<svg width="300" height="74" viewBox="0 0 300 74" fill="none" xmlns="http://www.w3.org/2000/svg">
<path d="M76.8009 0.0466899L75.9293 0.140074V36.8711V73.5711H77.0188H78.1083V36.8711C78.1083 16.6691 78.0149 0.108946 77.8904 0.0466899C77.7347 -0.0155661 77.2678 -0.0155661 76.8009 0.0466899Z" fill="black"/>
<path d="M0.194853 0.638132C-0.178683 1.01167 -0.0541712 1.19844 0.910797 1.6031C1.43997 1.85212 1.84464 2.22566 1.84464 2.44356C1.84464 2.66145 2.00028 2.91048 2.15592 2.97273C2.34269 3.03499 2.56058 4.46688 2.68509 6.14779C2.87186 8.94931 2.96525 9.32285 3.77457 10.2256C4.83293 11.4707 4.86406 11.6263 3.86796 11.6263C2.96525 11.6263 1.96915 13.1827 2.71622 13.4317C3.15201 13.5563 3.21427 14.7391 2.77848 14.7391C2.34269 14.7391 2.40494 15.7975 2.84073 16.2333C3.15201 16.5445 3.15201 16.7624 2.84073 17.2294C2.59171 17.634 2.56058 18.0698 2.77848 18.6301L3.08976 19.4083H25.8132H48.5367L48.8791 18.599C49.097 17.9453 49.0658 17.634 48.6612 17.1982C48.3499 16.8558 48.2876 16.6068 48.4433 16.6068C48.9725 16.6068 49.2215 15.0504 48.8168 14.5524C48.5367 14.2099 48.5367 13.9921 48.7857 13.743C49.0036 13.5251 49.1592 13.0582 49.1592 12.6535C49.1592 12.0932 48.9413 11.9376 48.0075 11.782C46.2021 11.4707 46.1398 11.4396 47.0736 11.0038C47.5406 10.7859 47.9141 10.4435 47.9141 10.2878C47.9141 10.101 48.132 9.72751 48.4122 9.41623C48.7546 9.0427 48.9413 8.10886 49.0347 6.42794C49.1592 3.28401 49.5639 2.13228 50.7468 1.66536C52.0853 1.10505 51.9296 0.420236 50.4355 0.420236C48.7857 0.420236 48.2254 0.66926 47.883 1.54084C47.6651 2.13228 47.3849 2.28792 46.5133 2.28792C45.4861 2.28792 45.455 2.31904 45.7663 3.09725C45.9219 3.56417 45.9842 4.03109 45.8597 4.12447C45.7351 4.21785 45.5795 4.12447 45.5172 3.90657C45.2682 3.25289 44.1787 3.47078 44.1787 4.1556C44.1787 4.56026 43.9608 4.77816 43.5562 4.77816C43.0893 4.77816 42.9336 4.99605 42.9336 5.55636C42.9336 6.17892 42.778 6.33456 42.1865 6.33456C41.564 6.33456 41.4083 6.55245 41.2216 7.4863C40.9414 9.01157 40.5679 9.44736 39.5095 9.44736C38.6068 9.44736 37.6419 8.6069 37.6419 7.79758C37.6419 7.20614 38.6068 7.08163 39.5407 7.57968C40.0387 7.85983 40.1321 7.79758 40.1321 7.2684C40.1321 6.86374 40.4434 6.52133 40.9103 6.33456C41.8441 5.99215 41.9064 5.58749 41.1282 5.02718C40.8169 4.80929 40.4745 4.37349 40.35 4.06221C40.1321 3.47078 39.6652 3.3774 39.3539 3.84432C39.2605 3.99996 38.9181 4.1556 38.638 4.1556C38.2644 4.1556 38.2333 4.06221 38.5134 3.78206C39.0426 3.25289 38.9804 2.28792 38.4201 2.28792C38.1399 2.28792 37.7975 1.94551 37.6419 1.50972C37.2995 0.638132 36.0855 0.420236 36.0855 1.19844C36.0855 1.47859 35.8676 1.75874 35.5874 1.88325C35.3384 1.97664 34.9648 2.3813 34.8092 2.78596C34.6536 3.22176 34.28 3.53304 33.9065 3.53304C33.5018 3.53304 33.2839 3.75093 33.2839 4.12447C33.2839 4.43575 33.0038 4.77816 32.6614 4.87154C32.2878 4.96493 32.0388 5.30733 32.0388 5.68087C32.0388 6.11666 31.852 6.33456 31.4785 6.33456C30.7003 6.33456 30.1711 6.95712 30.1711 7.89096C30.1711 8.91818 29.642 9.44736 28.6147 9.44736C27.6809 9.44736 26.7471 8.6069 26.7471 7.79758C26.7471 7.20614 27.8365 7.0505 28.1478 7.57968C28.5213 8.20224 29.2373 7.89096 29.2373 7.08163C29.2373 6.45907 29.3618 6.30343 29.9532 6.39681C30.4513 6.45907 30.6381 6.33456 30.6381 5.86764C30.6381 5.52523 30.3268 5.12057 29.9532 4.9338C29.5486 4.77816 29.2373 4.37349 29.2373 4.09334C29.2373 3.43965 28.6147 3.34627 28.0544 3.90657C27.7743 4.18673 27.6809 4.03109 27.6809 3.12837C27.6809 2.35017 27.5253 1.97664 27.2451 1.97664C27.0272 1.97664 26.7471 1.69648 26.6537 1.35408C26.5603 0.98054 26.2179 0.731516 25.8443 0.731516C25.4085 0.731516 25.1907 0.918284 25.1907 1.35408C25.1907 1.78987 24.9728 1.97664 24.537 1.97664C23.9455 1.97664 23.8833 2.10115 24.0389 3.06612C24.1323 3.65755 24.1012 4.1556 23.9144 4.1556C23.7588 4.1556 23.6342 3.99996 23.6342 3.84432C23.6342 3.65755 23.3541 3.53304 23.0117 3.53304C22.6693 3.53304 22.3891 3.75093 22.3891 3.99996C22.3891 4.24898 22.109 4.59139 21.7666 4.77816C21.4242 4.96493 21.144 5.36959 21.144 5.68087C21.144 6.42794 20.9261 6.61471 20.179 6.42794C19.8678 6.33456 19.5876 5.99215 19.5876 5.68087C19.5876 5.36959 19.3075 4.96493 18.965 4.77816C18.6226 4.59139 18.3425 4.24898 18.3425 3.99996C18.3425 3.43965 17.1907 3.3774 17.004 3.90657C16.9417 4.12447 16.755 4.18673 16.5993 4.06221C16.4437 3.9377 16.5371 3.68868 16.755 3.56417C17.2841 3.22176 16.6927 1.97664 16.0079 1.97664C15.7589 1.97664 15.541 1.69648 15.541 1.35408C15.541 0.949412 15.3231 0.731516 14.9184 0.731516C14.5137 0.731516 14.2958 0.949412 14.2958 1.35408C14.2958 1.78987 14.0779 1.97664 13.6422 1.97664C13.0507 1.97664 12.9885 2.10115 13.1441 3.06612C13.2375 3.65755 13.2064 4.1556 13.0196 4.1556C12.864 4.1556 12.7394 3.99996 12.7394 3.84432C12.7394 3.65755 12.4593 3.53304 12.1169 3.53304C11.7122 3.53304 11.4943 3.75093 11.4943 4.1556C11.4943 4.56026 11.2764 4.77816 10.9029 4.77816C10.4982 4.77816 10.2492 5.02718 10.1869 5.46297C10.0624 6.45907 8.6928 6.67697 8.6928 5.712C8.6928 5.27621 8.44378 4.96493 8.03911 4.87154C7.69671 4.77816 7.47881 4.52913 7.57219 4.31124C7.66558 4.06221 7.41655 3.81319 6.94963 3.71981C6.48271 3.59529 6.20256 3.28401 6.20256 2.91048C6.20256 2.44356 5.98466 2.28792 5.33098 2.28792C4.86406 2.28792 4.2415 2.03889 3.96134 1.72761C3.68119 1.44746 3.2454 1.01167 2.96525 0.793772C2.4672 0.389108 0.537261 0.264596 0.194853 0.638132ZM6.10918 4.03109C6.01579 4.12447 5.73564 4.1556 5.51774 4.06221C5.26872 3.96883 5.3621 3.87545 5.70451 3.87545C6.04692 3.84432 6.23369 3.9377 6.10918 4.03109ZM8.56829 6.67697C8.66167 6.86374 8.59942 7.14389 8.35039 7.2684C8.1325 7.42404 7.94573 7.92209 7.9146 8.42014C7.9146 9.16721 7.75896 9.29172 6.94963 9.3851C5.86015 9.47849 4.95744 8.8248 4.95744 7.89096C4.95744 7.57968 5.17534 7.2684 5.42436 7.14389C5.67338 7.0505 5.89128 7.11276 5.89128 7.2684C5.89128 7.89096 7.38543 7.57968 7.54107 6.95712C7.72783 6.2723 8.22588 6.14779 8.56829 6.67697ZM11.4943 7.11276C11.4943 7.61081 11.6811 7.89096 11.9612 7.89096C12.2103 7.89096 12.4282 7.73532 12.4282 7.57968C12.4282 7.39291 12.7706 7.2684 13.2064 7.2684C14.1091 7.2684 14.1713 7.61081 13.4865 8.66916C12.5215 10.1633 10.7473 9.47849 10.4671 7.4863C10.3115 6.4902 10.3737 6.33456 10.9029 6.33456C11.3387 6.33456 11.4943 6.55245 11.4943 7.11276ZM19.432 6.61471C19.5254 6.77035 19.432 7.01938 19.2452 7.11276C19.0896 7.23727 18.9962 7.54855 19.0896 7.79758C19.4008 8.57578 18.716 9.44736 17.7822 9.44736C16.5993 9.44736 16.1947 9.10495 15.9768 7.95322C15.79 6.98825 16.0701 6.67697 16.6616 7.23727C16.8172 7.39291 17.253 7.61081 17.6577 7.73532C18.2491 7.89096 18.3425 7.8287 18.3425 7.14389C18.3425 6.33456 19.0273 6.02328 19.432 6.61471ZM22.3891 6.92599C22.3891 7.79758 22.9183 8.01547 23.6965 7.45517C24.6303 6.80148 24.8794 6.83261 24.8794 7.64194C24.8482 8.73142 24.1323 9.44736 23.1051 9.44736C22.0156 9.44736 21.2996 8.76254 21.5798 7.98434C21.7043 7.70419 21.6109 7.36178 21.4242 7.23727C20.9884 6.95712 21.3308 6.33456 21.9533 6.33456C22.2024 6.33456 22.3891 6.61471 22.3891 6.92599ZM33.2839 7.11276C33.2839 7.89096 33.2839 7.89096 34.4045 7.42404C35.0271 7.17502 35.5874 6.95712 35.6497 6.95712C35.9609 6.95712 35.7119 8.42014 35.3384 8.88706C34.8715 9.54074 33.1906 9.63413 32.7548 9.0427C32.3501 8.54465 32.0077 6.77035 32.2567 6.52133C32.7236 6.05441 33.2839 6.39681 33.2839 7.11276ZM44.1787 7.11276C44.1787 7.92209 44.4589 8.10886 44.9881 7.61081C45.1437 7.45517 45.5795 7.23727 45.9842 7.11276C46.5756 6.95712 46.669 7.01938 46.669 7.76645C46.669 8.70029 45.9219 9.41623 44.9569 9.44736C43.9608 9.44736 43.6496 9.07382 43.4005 7.64194C43.2138 6.55245 43.276 6.33456 43.6807 6.33456C43.992 6.33456 44.1787 6.61471 44.1787 7.11276ZM10.1869 10.8792C11.3076 11.1905 10.9651 11.6263 9.62664 11.6263C8.72393 11.6263 8.38152 11.5018 8.38152 11.1594C8.38152 10.6614 9.00408 10.568 10.1869 10.8792ZM15.8522 11.1594C16.1947 11.5641 16.0701 11.6263 14.9807 11.6263C13.9534 11.6263 13.7355 11.5329 13.8601 11.1594C13.9846 10.9104 14.3581 10.6925 14.7628 10.6925C15.1363 10.6925 15.6343 10.9104 15.8522 11.1594ZM21.0818 10.8792C22.2335 11.1905 21.86 11.6263 20.3658 11.6263C18.5604 11.6263 18.467 11.0971 20.2102 10.7236C20.3036 10.7236 20.6771 10.7859 21.0818 10.8792ZM26.9961 11.2217C27.0583 11.5018 26.7159 11.6263 25.8443 11.6263C24.6303 11.6263 24.2879 11.3773 24.786 10.8792C25.1284 10.5368 26.8404 10.817 26.9961 11.2217ZM31.9766 10.8792C33.0972 11.1905 32.7548 11.6263 31.4163 11.6263C30.2334 11.6263 29.7353 11.2217 30.5758 10.9104C31.105 10.6925 31.1672 10.6925 31.9766 10.8792ZM37.9531 11.1594C37.9531 11.5018 37.6107 11.6263 36.708 11.6263C35.5252 11.6263 35.1827 11.3773 35.6808 10.9104C35.7742 10.7859 36.3345 10.6925 36.9259 10.6925C37.6419 10.6925 37.9531 10.8481 37.9531 11.1594ZM43.4939 11.2217C43.5562 11.5018 43.1826 11.6263 42.1554 11.6263C40.848 11.6263 40.7235 11.5641 41.0659 11.1283C41.5329 10.568 43.276 10.6614 43.4939 11.2217ZM8.19475 15.5173C8.19475 16.2955 8.1325 16.9181 8.00799 16.9181C7.9146 16.9181 7.60332 17.0115 7.32317 17.1049C6.9185 17.2605 6.82512 17.0426 6.82512 15.7352C6.82512 14.4901 6.94963 14.1477 7.38543 14.0543C8.1325 13.8675 8.1325 13.9298 8.19475 15.5173ZM13.6733 14.1166C13.6733 14.2722 13.4865 14.4278 13.2686 14.4278C12.7706 14.4278 12.0546 16.2333 12.4593 16.4823C12.6461 16.5757 12.9573 16.5757 13.2064 16.4823C13.4865 16.3889 13.6733 16.5134 13.6733 16.7624C13.6733 17.2605 13.2064 17.3227 11.4321 17.0426C10.2803 16.8558 10.2492 16.7936 10.2492 15.4862V14.1477L11.7433 14.0232C12.5527 13.9609 13.2997 13.8987 13.4554 13.8675C13.5799 13.8364 13.6733 13.9298 13.6733 14.1166ZM35.6185 14.1166C35.743 14.3033 35.4629 14.4278 35.0271 14.4278C34.1555 14.4278 33.9688 14.9881 34.6224 15.6418C34.9337 15.9842 34.9337 16.0465 34.6224 15.8597C34.3734 15.7041 34.2178 15.8286 34.2178 16.1399C34.2178 16.5445 34.4045 16.6379 34.996 16.4823C35.4318 16.3578 35.7742 16.42 35.7742 16.6068C35.7742 16.7624 35.0271 16.9181 34.0621 16.9181H32.3501V15.5485C32.3501 14.2099 32.3812 14.1477 33.3773 14.0232C35.245 13.8053 35.4318 13.8053 35.6185 14.1166ZM19.2763 15.5173C19.2763 16.6379 19.1518 16.9181 18.7472 16.9492C18.4359 16.9492 17.7822 17.0115 17.2841 17.0737C16.7861 17.136 16.1324 17.0737 15.8834 16.9181C15.5098 16.7002 15.7277 16.6068 16.6304 16.6068C17.3153 16.5757 17.6888 16.4823 17.502 16.3889C17.004 16.2021 16.9729 15.3617 17.4398 15.3617C18.1557 15.3617 17.4709 14.5835 16.5993 14.3967C15.9456 14.2411 16.1635 14.1788 17.502 14.1477L19.2763 14.1166V15.5173ZM22.7004 15.5173C22.7004 16.8247 22.6382 16.9181 21.8911 16.9181C21.2685 16.9181 21.1129 16.7936 21.2685 16.42C21.3619 16.1399 21.4553 15.5173 21.4553 15.0193C21.4553 14.3345 21.6109 14.1166 22.0778 14.1166C22.607 14.1166 22.7004 14.3345 22.7004 15.5173ZM30.1711 15.5173C30.1711 16.7313 30.0777 16.9181 29.5174 16.9181C28.926 16.9181 28.8638 16.7936 29.0817 15.7975C29.2062 14.9881 29.1439 14.5835 28.8638 14.3967C28.5836 14.2099 28.7392 14.1166 29.3307 14.1166C30.1089 14.1166 30.1711 14.2099 30.1711 15.5173ZM41.3772 15.5173C41.3772 16.7002 41.2838 16.9181 40.7547 16.9181C40.4123 16.9181 40.1321 16.7624 40.1321 16.5757C40.1321 16.3889 39.9142 16.4823 39.6341 16.7313C39.0737 17.2916 38.887 17.3227 38.2644 16.9181C37.8909 16.6691 37.922 16.6068 38.4512 16.6068C38.8559 16.6068 39.2294 16.3267 39.3539 15.8909C39.7586 14.7703 39.6963 14.6146 38.887 14.3967C38.3267 14.2411 38.5446 14.1788 39.7586 14.1477L41.3772 14.1166V15.5173ZM44.8636 15.4239C44.739 16.6379 44.3966 17.1982 43.8052 17.2294C43.4939 17.2294 43.4628 14.6146 43.7741 14.3345C43.8675 14.2099 44.2099 14.1166 44.4589 14.1166C44.8636 14.1166 44.9569 14.3656 44.8636 15.4239Z" fill="black"/>
<path d="M107.68 15.0504V29.6806H111.446H115.213L115.088 20.9647C115.026 16.171 115.057 12.2489 115.151 12.2489C115.244 12.2489 117.112 14.2099 119.291 16.6068C121.47 19.0037 123.4 20.9647 123.555 20.9647C123.711 20.9647 125.641 18.9414 127.82 16.4512L131.804 11.9376L131.897 20.8091L131.96 29.6806H135.695H139.43V15.0504V0.420238H136.1L132.738 0.451366L128.256 5.55636C125.765 8.38901 123.649 10.6925 123.555 10.6925C123.337 10.6925 116.738 3.40853 115.306 1.6031L114.372 0.420238H111.042H107.68V15.0504Z" fill="black"/>
<path d="M177.718 5.71201V11.0349L176.877 10.5991C175.414 9.85204 172.737 9.35399 171.274 9.57189C165.64 10.3501 162.216 15.3928 163.088 21.6184C163.492 24.4511 163.99 25.6028 165.64 27.3771C167.975 29.9296 171.119 30.8012 174.543 29.8362C175.601 29.5249 176.628 29.0892 176.815 28.8713C177.313 28.2487 177.718 28.3421 177.718 29.058C177.718 29.6495 177.936 29.6806 180.831 29.6806H183.944V15.0504V0.420251H180.831H177.718V5.71201ZM176.815 14.3345L177.718 14.8637V19.7196V24.5756L176.504 25.2604C174.885 26.1631 172.52 26.1942 171.368 25.2915C169.936 24.1709 169.189 22.3032 169.189 20.0309C169.22 17.3539 169.749 15.8909 171.119 14.7391C172.084 13.9298 172.52 13.8053 174.076 13.8053C175.259 13.8053 176.224 13.9921 176.815 14.3345Z" fill="black"/>
<path d="M205.827 1.04281C204.613 1.75875 204.177 2.53695 204.177 3.96884C204.177 5.30735 205.391 6.83262 206.667 7.11277C207.196 7.23728 208.099 7.1439 208.69 6.95713C211.585 5.99216 211.865 2.28793 209.157 0.887167C207.943 0.264607 207.009 0.295735 205.827 1.04281Z" fill="black"/>
<path d="M227.834 5.58749V10.7547L227.149 10.568C224.005 9.603 222.854 9.38511 221.422 9.54075C218.247 9.85203 215.165 12.1866 213.733 15.3306C212.768 17.4161 212.768 22.3655 213.733 24.4822C214.76 26.7234 216.068 28.2176 217.935 29.2137C219.336 29.9919 219.928 30.1164 221.92 30.1475C223.881 30.1475 224.503 29.9919 225.78 29.2759C227.305 28.4355 227.834 28.4043 227.834 29.2448C227.834 29.5872 228.457 29.6806 230.947 29.6806H234.06V15.0504V0.420239H230.947H227.834V5.58749ZM226.838 14.4278L227.834 15.0504V19.6885V24.3577L226.962 24.9491C225.531 25.9763 223.756 26.3187 222.355 25.8518C218.62 24.5444 217.966 16.6379 221.422 14.4278C222.729 13.5874 225.437 13.5874 226.838 14.4278Z" fill="black"/>
<path d="M148.271 9.91428C147.212 10.1322 145.656 10.6925 144.784 11.1283L143.228 11.9376L143.01 13.9609C142.699 16.8558 142.886 17.1982 144.349 16.0465C146.465 14.3656 147.96 13.8053 150.17 13.8053C151.944 13.8053 152.317 13.8987 152.971 14.5835C153.438 15.0193 153.749 15.7041 153.749 16.2021C153.749 17.0737 153.625 17.136 150.045 18.2566C148.022 18.9103 145.718 19.8441 144.94 20.3422C142.201 22.0853 141.142 25.3226 142.637 27.5327C143.415 28.6845 145.065 29.8985 146.247 30.2097C147.337 30.4899 150.138 29.8362 152.068 28.9024C153.905 27.9997 154.372 27.9374 154.372 28.5911C154.372 29.2448 156.208 30.3031 157.329 30.3031C158.823 30.3031 162.247 29.4004 162.839 28.8401C163.243 28.4977 163.399 27.8751 163.399 26.7857C163.399 25.3226 163.368 25.2604 162.714 25.4783C162.31 25.6028 161.625 25.7584 161.189 25.8518L160.38 26.0075L160.193 22.9258C160.068 21.2449 159.975 18.4745 159.975 16.7313C159.975 13.3072 159.57 12.28 157.765 10.9104C155.959 9.57187 151.788 9.13608 148.271 9.91428ZM153.749 22.6145V25.2293L152.566 25.7584C150.823 26.5366 149.08 26.3187 148.489 25.2604C148.053 24.5133 148.053 24.3266 148.52 23.3616C148.925 22.5211 149.547 22.0231 151.29 21.1515C152.504 20.5289 153.563 20.0309 153.625 20.0309C153.687 20.0309 153.749 21.2138 153.749 22.6145Z" fill="black"/>
<path d="M197.578 10.4746C196.83 11.0349 195.648 12.3734 194.932 13.4629L193.593 15.4239V12.7469V10.0699H190.48H187.368V19.8752V29.6806H190.449H193.562L193.655 24.918C193.749 19.6885 193.967 19.0037 195.959 16.6379C196.955 15.4862 197.204 15.3617 198.511 15.3617C199.414 15.3617 200.348 15.6107 201.002 15.9842C201.562 16.3267 202.153 16.5446 202.309 16.4512C202.465 16.3578 202.807 15.4862 203.087 14.4901C203.367 13.5251 203.741 12.529 203.928 12.3423C204.457 11.6886 203.99 11.1283 202.278 10.2567C200.13 9.19834 199.227 9.22947 197.578 10.4746Z" fill="black"/>
<path d="M204.488 19.8752V29.6806H207.601H210.714V19.8752V10.0699H207.601H204.519L204.488 19.8752Z" fill="black"/>
<path d="M3.40104 39.1435C3.40104 60.0615 3.49443 61.4934 5.17534 64.6373C6.54497 67.1898 9.22198 69.6178 12.1791 71.0186C16.4437 73.0419 18.7472 73.4154 26.1245 73.4154C31.852 73.3843 32.7859 73.3221 35.1516 72.6684C42.0309 70.7384 46.0153 67.1898 47.7273 61.4623C48.1631 59.9681 48.2254 57.26 48.2254 39.8906V20.0309H25.8132H3.40104V39.1435ZM27.3074 23.3616C27.3696 23.953 27.1828 24.4511 26.7782 24.8246C26.2179 25.3226 26.0311 25.3538 25.1907 25.0114C24.4125 24.7001 24.2568 24.4511 24.2568 23.5795C24.2568 22.7702 24.4436 22.4589 25.1284 22.0853C26.2179 21.4939 27.1828 22.0542 27.3074 23.3616ZM45.0815 22.1165C45.2993 22.49 45.3927 22.5523 45.4239 22.241C45.4239 21.3071 46.3577 22.6145 46.3577 23.6106C46.3577 24.4511 46.2021 24.7001 45.455 25.0114C44.1787 25.5405 42.9647 24.7623 43.1826 23.5172C43.3383 22.6456 44.0854 21.5873 44.5211 21.5873C44.6457 21.5873 44.9258 21.8363 45.0815 22.1165ZM8.03912 22.1787C8.25701 22.3344 8.50604 22.9569 8.56829 23.5795C8.63055 24.5133 8.56829 24.7001 8.07024 24.7001C7.75896 24.7001 7.44768 24.8557 7.38543 25.0736C7.29204 25.3226 7.01189 25.3226 6.26482 24.9802C5.45549 24.6378 5.26872 24.3577 5.26872 23.6106C5.26872 23.0814 5.42436 22.49 5.64226 22.2721C6.07805 21.8363 7.41656 21.7741 8.03912 22.1787ZM41.315 42.9411C41.2216 58.4117 41.1905 59.0032 40.6301 59.439C40.2877 59.688 39.4162 59.8747 38.6691 59.8747C37.4862 59.8747 37.2372 59.7502 36.708 58.8475C36.0232 57.758 35.8987 56.6063 36.3967 56.295C36.957 55.9526 36.708 54.3962 35.8053 52.6842C33.6575 48.762 32.7548 45.3691 33.533 44.2796C34.0933 43.4703 33.9065 43.3146 31.6342 42.4742C28.5836 41.3536 28.0544 41.6649 29.0817 44.0928C29.7353 45.6804 29.7042 47.8282 29.0505 47.6726C28.3657 47.5481 27.0583 43.9683 27.0583 42.2563C27.0583 40.9489 27.0895 40.9178 28.2412 40.731C31.6342 40.1396 34.8092 37.9295 35.494 35.626C35.8053 34.6299 35.743 34.2875 35.2139 33.2292C33.4084 29.7117 28.6459 27.9063 23.3541 28.7156C18.8405 29.4315 15.8522 31.8595 15.8522 34.8167C15.8522 37.3381 19.2141 40.1396 22.9494 40.731L24.2568 40.9489V49.727V58.5362L23.5097 59.2211C22.7627 59.9059 22.6382 59.937 17.004 59.8125C13.8289 59.7814 11.1208 59.5946 10.9651 59.4701C10.5605 59.0654 10.3115 50.9721 10.2803 38.4587L10.2492 26.8791H25.8132H41.4083L41.315 42.9411ZM7.54107 39.9839C7.9146 40.2018 8.31927 40.5131 8.47491 40.6999C8.75506 41.1357 8.44378 42.5364 7.97686 42.8166C7.41656 43.1901 6.04692 43.0967 5.64226 42.6921C5.0197 42.0695 5.20647 40.6688 5.95354 40.1396C6.79399 39.5482 6.70061 39.5482 7.54107 39.9839ZM45.4239 40.1085C46.1398 40.482 46.3577 40.7933 46.3577 41.5403C46.3577 42.2252 46.2021 42.5364 45.7351 42.661C45.3927 42.7543 45.1126 42.9411 45.1126 43.0967C45.1126 43.2524 44.8947 43.3769 44.6457 43.3769C44.3966 43.3769 44.1787 43.2213 44.1787 43.0656C44.1787 42.8789 43.9297 42.7543 43.6184 42.7543C42.5912 42.7543 43.3694 39.766 44.4278 39.6415C44.49 39.6415 44.9258 39.8594 45.4239 40.1085ZM29.5486 53.0577C29.5486 53.9293 31.0116 57.6647 31.603 58.225C32.0699 58.6919 32.0699 58.7853 31.5408 59.1588C30.7626 59.7191 28.1789 59.688 27.6809 59.0965C27.463 58.8164 27.2451 57.011 27.1517 54.2094L26.9649 49.7581L28.2723 51.1278C28.9571 51.8748 29.5486 52.7464 29.5486 53.0577ZM44.8013 57.8514C44.8013 58.1005 45.0815 58.3183 45.4239 58.3183C46.3888 58.3183 46.2954 60.2794 45.2682 60.9331C44.3344 61.5557 44.1787 61.5557 44.1787 60.9642C44.1787 60.6218 43.9608 60.5284 43.4005 60.6841C42.6223 60.8708 42.3111 60.4351 42.9336 60.0304C43.0893 59.937 43.1515 59.439 43.027 58.9409C42.8714 58.1316 42.9647 58.0071 43.5251 58.0071C43.8675 58.0071 44.1787 57.8514 44.1787 57.6958C44.1787 57.509 44.3344 57.3845 44.49 57.3845C44.6768 57.3845 44.8013 57.6024 44.8013 57.8514ZM8.19476 58.1005C8.41265 58.2872 8.66168 58.9098 8.78619 59.4078C8.94183 60.2172 8.81732 60.4351 8.00799 60.902C7.47881 61.2133 6.94963 61.3378 6.85625 61.1821C6.76287 61.0265 6.45159 60.8397 6.20256 60.7463C5.89128 60.6218 5.70451 60.1238 5.67339 59.3144C5.61113 58.225 5.70451 58.0382 6.29595 57.9137C7.54107 57.6647 7.79009 57.6958 8.19476 58.1005ZM39.8208 61.3689C39.8208 61.7424 37.9531 63.4233 36.708 64.1704C36.1166 64.5128 34.7158 65.1354 33.5952 65.5089C31.7898 66.1626 31.0116 66.2249 25.9689 66.256C21.0195 66.256 20.1168 66.1626 18.1557 65.54C16.9417 65.1665 15.3853 64.4817 14.7316 64.0459C13.2997 63.0809 11.8056 61.7113 11.8056 61.3689C11.8056 61.2444 18.1246 61.1199 25.8132 61.1199C33.533 61.1199 39.8208 61.2444 39.8208 61.3689Z" fill="black"/>
<path d="M107.742 47.6414L107.836 62.2094L118.668 62.3027L129.469 62.365V59.7191V57.0732H122.31H115.151V53.4935V49.9138H121.781C125.454 49.9138 128.505 49.8515 128.567 49.7893C128.629 49.727 128.66 48.513 128.598 47.1434L128.473 44.622H121.812H115.151V41.5092V38.3964H121.812C125.485 38.3964 128.691 38.303 128.971 38.2097C129.376 38.054 129.469 37.5248 129.469 35.5638V33.1047H118.575H107.68L107.742 47.6414Z" fill="black"/>
<path d="M270.791 38.2408C270.791 41.0734 270.697 43.3769 270.573 43.3769C270.417 43.3769 269.546 43.0968 268.612 42.7232C266.184 41.7894 263.133 42.0073 260.861 43.2213C258.993 44.2485 258.028 45.2757 256.845 47.5481C256.098 48.9799 256.005 49.478 256.005 52.404C256.005 56.295 256.534 57.7269 258.806 60.1549C261.266 62.7697 265.032 63.4233 268.767 61.8981C269.795 61.4623 270.666 61.1199 270.728 61.1199C270.76 61.1199 270.791 61.4 270.791 61.7424C270.791 62.365 270.946 62.3961 273.841 62.3027L276.861 62.2094L276.954 47.6414L277.016 33.1047H273.903H270.791V38.2408ZM269.826 46.9566L270.791 47.4547V52.2173V57.011L269.639 57.7269C268.985 58.1316 267.834 58.474 266.9 58.5674C265.437 58.6919 265.188 58.5985 264.16 57.7269C261.701 55.548 261.359 50.1006 263.538 47.6726C264.876 46.1473 267.678 45.836 269.826 46.9566Z" fill="black"/>
<path d="M142.388 42.661C141.672 42.9722 140.613 43.5948 140.022 44.0617C139.399 44.5598 138.808 44.9333 138.715 44.9333C138.59 44.9333 138.497 44.4353 138.497 43.8438V42.7543H135.384H132.271V52.5597V62.365H135.384H138.497V56.046C138.497 49.229 138.528 49.1356 140.364 47.5169C142.419 45.6492 145.5 45.9294 146.621 48.0461C147.15 49.0111 147.212 49.9138 147.212 55.7347V62.365H150.325H153.438V56.046C153.438 50.4118 153.5 49.6648 154.03 48.7932C155.306 46.7076 158.481 45.6181 160.255 46.6765C161.998 47.7037 162.154 48.513 162.154 55.797V62.365H165.298H168.473L168.317 54.9565C168.162 47.0189 168.099 46.7699 166.325 44.6531C164.862 42.91 163.275 42.2874 160.286 42.2874C157.983 42.2874 157.454 42.3808 156.24 43.1279C155.461 43.5637 154.372 44.4353 153.78 45.0578L152.722 46.1784L151.633 44.9022C150.107 43.1279 148.426 42.3808 145.812 42.2252C144.224 42.1629 143.29 42.2874 142.388 42.661Z" fill="black"/>
<path d="M180.737 42.5987C180.115 42.8477 179.274 43.2524 178.901 43.5325C177.967 44.1551 177.718 44.124 177.718 43.3769C177.718 42.7855 177.5 42.7543 174.605 42.7543H171.492V57.5402V72.326H174.605H177.718V66.8786C177.718 63.8903 177.749 61.4312 177.811 61.4312C177.842 61.4312 178.621 61.7113 179.523 62.0537C181.64 62.863 184.348 62.863 186.558 62.0226C189.982 60.7463 192.659 56.5441 192.659 52.404C192.659 49.5091 191.134 46.0228 189.08 44.2174C186.994 42.4119 183.196 41.6649 180.737 42.5987ZM184.473 47.4858C185.749 48.7309 186.216 50.1006 186.185 52.7153C186.185 55.2055 185.344 57.1044 183.85 58.0382C183.072 58.5362 182.481 58.6296 181.142 58.5362C180.208 58.4429 179.056 58.1938 178.59 57.9759L177.718 57.6024V52.5597V47.5481L179.056 46.8632C180.955 45.8671 183.072 46.1162 184.473 47.4858Z" fill="black"/>
<path d="M205.578 42.7232C204.395 43.4392 203.274 44.6843 202.122 46.4897L201.22 47.8905L201.126 45.3068L201.033 42.7543H197.951H194.838V52.5597V62.365H197.951H201.064V57.8203C201.064 53.3379 201.064 53.2445 202.029 51.4702C203.834 48.0461 205.858 47.0189 208.068 48.3263C209.935 49.4157 210.029 49.3535 211.149 45.6804C211.647 44.0928 211.398 43.5948 209.78 42.7543C208.255 41.9761 206.792 41.9761 205.578 42.7232Z" fill="black"/>
<path d="M218.029 42.5676C214.978 43.5325 213.266 45.0267 211.928 47.8905C211.149 49.5091 211.025 50.1317 211.025 52.5597C211.025 54.8631 211.149 55.6413 211.772 56.9176C213.609 60.7463 217.282 62.6763 222.729 62.6763C225.624 62.6763 227.772 62.1471 230.075 60.9331C231.632 60.0615 231.725 59.9681 231.818 58.6608C231.974 56.4195 231.881 56.3884 229.11 57.7892C226.776 58.9409 226.371 59.0654 224.005 59.0654C221.826 59.0965 221.266 59.0032 220.239 58.3495C218.9 57.509 217.25 55.1433 217.25 54.0538V53.3379H224.441H231.663L231.476 51.1589C231.04 45.8671 226.807 42.1007 221.359 42.1629C220.208 42.1629 218.714 42.3497 218.029 42.5676ZM224.068 46.4274C224.97 47.0811 226.402 49.7581 226.122 50.2251C225.997 50.4118 224.13 50.5363 221.577 50.5363C217.655 50.5363 217.25 50.4741 217.25 49.976C217.25 49.0422 218.62 47.0189 219.741 46.2407C221.017 45.3691 222.76 45.4313 224.068 46.4274Z" fill="black"/>
<path d="M243.865 42.4742C243.336 42.6298 242.34 43.2213 241.624 43.8438C240.908 44.4353 240.254 44.9333 240.161 44.9333C240.067 44.9333 239.974 44.4353 239.974 43.8438V42.7543H236.861H233.748V52.5597V62.365H236.861H239.974V55.8281V49.2912L241.312 47.9216C242.807 46.3341 244.363 45.8671 245.764 46.552C247.32 47.2679 247.445 47.9216 247.445 55.4234V62.365H250.557H253.67V55.2678C253.67 47.1745 253.452 46.085 251.554 44.2174C249.686 42.3808 246.573 41.6649 243.865 42.4742Z" fill="black"/>
<path d="M285.888 42.6298C284.113 43.2835 281.903 44.8399 281.094 46.0228C278.479 49.8515 278.542 55.7347 281.25 58.8786C284.767 62.9875 291.833 63.9214 298.09 61.0887C299.46 60.4662 299.74 60.2172 299.74 59.5323C299.74 59.0654 299.833 58.2561 299.926 57.7269C300.175 56.4818 299.926 56.4818 297.032 57.9137C294.946 58.9409 294.448 59.0654 292.144 59.0654C289.872 59.0965 289.436 59.0032 288.316 58.2561C286.915 57.3222 285.825 55.797 285.545 54.3028L285.359 53.3379H292.549H299.74V51.9994C299.709 46.2095 295.382 42.1006 289.374 42.1629C288.129 42.1629 286.573 42.3808 285.888 42.6298ZM292.144 46.3341C292.549 46.5831 293.265 47.5169 293.701 48.4196C294.355 49.6959 294.417 50.0383 294.074 50.2562C293.514 50.6297 285.825 50.5986 285.576 50.2251C285.359 49.8515 286.199 47.7971 286.915 46.9877C288.191 45.5559 290.526 45.2757 292.144 46.3341Z" fill="black"/>
</svg>
