<svg xmlns="http://www.w3.org/2000/svg" width="863" height="112" fill="none" viewBox="0 0 863 112"><path stroke="#fff" stroke-width="7" d="M294 34.5H353.577C353.746 34.5 353.839 34.6965 353.731 34.827L294.269 107.173C294.161 107.304 294.254 107.5 294.423 107.5H356"/><path stroke="#fff" stroke-width="6" d="M3 31V111"/><path stroke="#fff" stroke-width="8" d="M0 107L49 107"/><path stroke="#fff" stroke-width="7" d="M82 110V109.5V109V108.504C82 108.501 82.0006 108.499 82.0018 108.496L115.482 35.0393C115.489 35.0238 115.511 35.0237 115.518 35.0391L149.998 108.496C149.999 108.499 150 108.502 150 108.504V109V109.5V110"/><path stroke="#fff" stroke-width="7" d="M791 110V109.5V109V108.504C791 108.501 791.001 108.499 791.002 108.496L824.482 35.0393C824.489 35.0238 824.511 35.0237 824.518 35.0391L858.998 108.496C858.999 108.499 859 108.502 859 108.504V109V109.5V110"/><path stroke="#fff" stroke-width="7" d="M389 79V78.5V78V77.5043C389 77.5015 389.001 77.4987 389.002 77.496L422.482 4.03934C422.489 4.02383 422.511 4.02371 422.518 4.03914L456.998 77.496C456.999 77.4986 457 77.5015 457 77.5045V78V78.5V79"/><path stroke="#fff" stroke-width="7" d="M194 110V34.0599C194 34.0407 194.024 34.0325 194.036 34.0479L249.964 108.452C249.976 108.467 250 108.459 250 108.44V32"/><path stroke="#fff" stroke-width="7" d="M501.5 106.8V35.2C501.5 35.0895 501.59 35 501.7 35H533H537.5H539.475C539.492 35 539.508 35.002 539.524 35.006L545.5 36.5L550.483 38.4934C550.494 38.4978 550.505 38.5032 550.515 38.5095L554.486 40.9915C554.495 40.9972 554.504 41.0035 554.512 41.0106L558.488 44.4896C558.496 44.4965 558.503 44.504 558.51 44.5121L561 47.5L563.5 51L565.987 54.4824C565.996 54.4941 566.003 54.5067 566.009 54.5199L567.5 58L568.49 60.9692C568.497 60.9896 568.5 61.011 568.5 61.0325V63V64.5V66V75.5V78.5V80.9675C568.5 80.989 568.497 81.0104 568.49 81.0308L567.504 83.9865C567.502 83.9955 567.498 84.0042 567.494 84.0127L566.007 86.986C566.002 86.9953 565.997 87.0043 565.991 87.0128L563.5 90.5L561 93.5L558.51 96.4879C558.503 96.496 558.496 96.5035 558.488 96.5104L554.5 100L550.514 102.989C550.505 102.996 550.495 103.003 550.484 103.008L545.513 105.494C545.504 105.498 545.495 105.502 545.487 105.504L541.031 106.99C541.01 106.997 540.989 107 540.968 107H501.7C501.59 107 501.5 106.91 501.5 106.8Z"/><path stroke="#fff" stroke-width="7" d="M660 34.5H612V68M660 107H612V68M612 68H651"/><path stroke="#fff" stroke-width="7" d="M704 110V77M704 77V34.7C704 34.5895 704.09 34.5 704.2 34.5H729.473C729.491 34.5 729.509 34.5024 729.526 34.507L734.973 35.9927C734.991 35.9976 735.008 36.0048 735.024 36.0142L740 39L744.969 42.9749C744.989 42.9915 745.007 43.012 745.019 43.0353L747.985 48.4733C747.995 48.491 748.002 48.5101 748.006 48.5298L748.496 50.9806C748.499 50.9935 748.5 51.0066 748.5 51.0198V55V61.9589C748.5 61.986 748.494 62.0128 748.484 62.0377L747.007 65.4831C747.002 65.4944 746.997 65.5051 746.99 65.5153L745.016 68.4759C745.005 68.4919 744.992 68.5063 744.978 68.5186L742 71L739 73L735 75L732.5 76L731.5 76.5M704 77H715H729.475C729.492 77 729.508 76.998 729.524 76.994L731.5 76.5M731.5 76.5L750.97 107.952C750.99 107.983 751 108.02 751 108.057V108.5V109V109.5V110"/></svg>