<svg width="300" height="74" viewBox="0 0 300 74" fill="none" xmlns="http://www.w3.org/2000/svg">
  <path d="M76.8009 0.0466594L75.9293 0.140043V36.8711V73.571H77.0188H78.1083V36.8711C78.1083 16.669 78.0149 0.108915 77.8904 0.0466594C77.7347 -0.0155966 77.2678 -0.0155966 76.8009 0.0466594Z" fill="white"/>
  <path d="M0.194853 0.638071C-0.178683 1.01161 -0.0541712 1.19838 0.910797 1.60304C1.43997 1.85206 1.84464 2.2256 1.84464 2.4435C1.84464 2.66139 2.00028 2.91042 2.15592 2.97267C2.34269 3.03493 2.56058 4.46682 2.68509 6.14773C2.87186 8.94925 2.96525 9.32279 3.77457 10.2255C4.83293 11.4706 4.86406 11.6263 3.86796 11.6263C2.96525 11.6263 1.96915 13.1827 2.71622 13.4317C3.15201 13.5562 3.21427 14.7391 2.77848 14.7391C2.34269 14.7391 2.40494 15.7974 2.84073 16.2332C3.15201 16.5445 3.15201 16.7624 2.84073 17.2293C2.59171 17.634 2.56058 18.0698 2.77848 18.6301L3.08976 19.4083H25.8132H48.5367L48.8791 18.5989C49.097 17.9452 49.0658 17.634 48.6612 17.1982C48.3499 16.8558 48.2876 16.6067 48.4433 16.6067C48.9725 16.6067 49.2215 15.0503 48.8168 14.5523C48.5367 14.2099 48.5367 13.992 48.7857 13.743C49.0036 13.5251 49.1592 13.0581 49.1592 12.6535C49.1592 12.0932 48.9413 11.9375 48.0075 11.7819C46.2021 11.4706 46.1398 11.4395 47.0736 11.0037C47.5406 10.7858 47.9141 10.4434 47.9141 10.2878C47.9141 10.101 48.132 9.72745 48.4122 9.41617C48.7546 9.04264 48.9413 8.10879 49.0347 6.42788C49.1592 3.28395 49.5639 2.13222 50.7468 1.6653C52.0853 1.10499 51.9296 0.420175 50.4355 0.420175C48.7857 0.420175 48.2254 0.669199 47.883 1.54078C47.6651 2.13222 47.3849 2.28786 46.5133 2.28786C45.4861 2.28786 45.455 2.31898 45.7663 3.09718C45.9219 3.5641 45.9842 4.03102 45.8597 4.12441C45.7351 4.21779 45.5795 4.12441 45.5172 3.90651C45.2682 3.25282 44.1787 3.47072 44.1787 4.15554C44.1787 4.5602 43.9608 4.7781 43.5562 4.7781C43.0893 4.7781 42.9336 4.99599 42.9336 5.5563C42.9336 6.17886 42.778 6.3345 42.1865 6.3345C41.564 6.3345 41.4083 6.55239 41.2216 7.48623C40.9414 9.01151 40.5679 9.4473 39.5095 9.4473C38.6068 9.4473 37.6419 8.60684 37.6419 7.79751C37.6419 7.20608 38.6068 7.08157 39.5407 7.57962C40.0387 7.85977 40.1321 7.79751 40.1321 7.26834C40.1321 6.86367 40.4434 6.52127 40.9103 6.3345C41.8441 5.99209 41.9064 5.58743 41.1282 5.02712C40.8169 4.80922 40.4745 4.37343 40.35 4.06215C40.1321 3.47072 39.6652 3.37734 39.3539 3.84426C39.2605 3.9999 38.9181 4.15554 38.638 4.15554C38.2644 4.15554 38.2333 4.06215 38.5134 3.782C39.0426 3.25282 38.9804 2.28786 38.4201 2.28786C38.1399 2.28786 37.7975 1.94545 37.6419 1.50966C37.2995 0.638071 36.0855 0.420175 36.0855 1.19838C36.0855 1.47853 35.8676 1.75868 35.5874 1.88319C35.3384 1.97658 34.9648 2.38124 34.8092 2.7859C34.6536 3.2217 34.28 3.53298 33.9065 3.53298C33.5018 3.53298 33.2839 3.75087 33.2839 4.12441C33.2839 4.43569 33.0038 4.7781 32.6614 4.87148C32.2878 4.96487 32.0388 5.30727 32.0388 5.68081C32.0388 6.1166 31.852 6.3345 31.4785 6.3345C30.7003 6.3345 30.1711 6.95706 30.1711 7.8909C30.1711 8.91812 29.642 9.4473 28.6147 9.4473C27.6809 9.4473 26.7471 8.60684 26.7471 7.79751C26.7471 7.20608 27.8365 7.05044 28.1478 7.57962C28.5213 8.20218 29.2373 7.8909 29.2373 7.08157C29.2373 6.45901 29.3618 6.30337 29.9532 6.39675C30.4513 6.45901 30.6381 6.3345 30.6381 5.86758C30.6381 5.52517 30.3268 5.12051 29.9532 4.93374C29.5486 4.7781 29.2373 4.37343 29.2373 4.09328C29.2373 3.43959 28.6147 3.34621 28.0544 3.90651C27.7743 4.18666 27.6809 4.03102 27.6809 3.12831C27.6809 2.35011 27.5253 1.97658 27.2451 1.97658C27.0272 1.97658 26.7471 1.69642 26.6537 1.35402C26.5603 0.980479 26.2179 0.731455 25.8443 0.731455C25.4085 0.731455 25.1907 0.918223 25.1907 1.35402C25.1907 1.78981 24.9728 1.97658 24.537 1.97658C23.9455 1.97658 23.8833 2.10109 24.0389 3.06606C24.1323 3.65749 24.1012 4.15554 23.9144 4.15554C23.7588 4.15554 23.6342 3.9999 23.6342 3.84426C23.6342 3.65749 23.3541 3.53298 23.0117 3.53298C22.6693 3.53298 22.3891 3.75087 22.3891 3.9999C22.3891 4.24892 22.109 4.59133 21.7666 4.7781C21.4242 4.96487 21.144 5.36953 21.144 5.68081C21.144 6.42788 20.9261 6.61465 20.179 6.42788C19.8678 6.3345 19.5876 5.99209 19.5876 5.68081C19.5876 5.36953 19.3075 4.96487 18.965 4.7781C18.6226 4.59133 18.3425 4.24892 18.3425 3.9999C18.3425 3.43959 17.1907 3.37734 17.004 3.90651C16.9417 4.12441 16.755 4.18666 16.5993 4.06215C16.4437 3.93764 16.5371 3.68862 16.755 3.5641C17.2841 3.2217 16.6927 1.97658 16.0079 1.97658C15.7589 1.97658 15.541 1.69642 15.541 1.35402C15.541 0.949351 15.3231 0.731455 14.9184 0.731455C14.5137 0.731455 14.2958 0.949351 14.2958 1.35402C14.2958 1.78981 14.0779 1.97658 13.6422 1.97658C13.0507 1.97658 12.9885 2.10109 13.1441 3.06606C13.2375 3.65749 13.2064 4.15554 13.0196 4.15554C12.864 4.15554 12.7394 3.9999 12.7394 3.84426C12.7394 3.65749 12.4593 3.53298 12.1169 3.53298C11.7122 3.53298 11.4943 3.75087 11.4943 4.15554C11.4943 4.5602 11.2764 4.7781 10.9029 4.7781C10.4982 4.7781 10.2492 5.02712 10.1869 5.46291C10.0624 6.45901 8.6928 6.67691 8.6928 5.71194C8.6928 5.27615 8.44378 4.96487 8.03911 4.87148C7.69671 4.7781 7.47881 4.52907 7.57219 4.31118C7.66558 4.06215 7.41655 3.81313 6.94963 3.71974C6.48271 3.59523 6.20256 3.28395 6.20256 2.91042C6.20256 2.4435 5.98466 2.28786 5.33098 2.28786C4.86406 2.28786 4.2415 2.03883 3.96134 1.72755C3.68119 1.4474 3.2454 1.01161 2.96525 0.793711C2.4672 0.389047 0.537261 0.264535 0.194853 0.638071ZM6.10918 4.03102C6.01579 4.12441 5.73564 4.15554 5.51774 4.06215C5.26872 3.96877 5.3621 3.87538 5.70451 3.87538C6.04692 3.84426 6.23369 3.93764 6.10918 4.03102ZM8.56829 6.67691C8.66167 6.86367 8.59942 7.14383 8.35039 7.26834C8.1325 7.42398 7.94573 7.92203 7.9146 8.42007C7.9146 9.16715 7.75896 9.29166 6.94963 9.38504C5.86015 9.47843 4.95744 8.82474 4.95744 7.8909C4.95744 7.57962 5.17534 7.26834 5.42436 7.14383C5.67338 7.05044 5.89128 7.1127 5.89128 7.26834C5.89128 7.8909 7.38543 7.57962 7.54107 6.95706C7.72783 6.27224 8.22588 6.14773 8.56829 6.67691ZM11.4943 7.1127C11.4943 7.61075 11.6811 7.8909 11.9612 7.8909C12.2103 7.8909 12.4282 7.73526 12.4282 7.57962C12.4282 7.39285 12.7706 7.26834 13.2064 7.26834C14.1091 7.26834 14.1713 7.61075 13.4865 8.6691C12.5215 10.1632 10.7473 9.47843 10.4671 7.48623C10.3115 6.49014 10.3737 6.3345 10.9029 6.3345C11.3387 6.3345 11.4943 6.55239 11.4943 7.1127ZM19.432 6.61465C19.5254 6.77029 19.432 7.01931 19.2452 7.1127C19.0896 7.23721 18.9962 7.54849 19.0896 7.79751C19.4008 8.57571 18.716 9.4473 17.7822 9.4473C16.5993 9.4473 16.1947 9.10489 15.9768 7.95315C15.79 6.98819 16.0701 6.67691 16.6616 7.23721C16.8172 7.39285 17.253 7.61075 17.6577 7.73526C18.2491 7.8909 18.3425 7.82864 18.3425 7.14383C18.3425 6.3345 19.0273 6.02322 19.432 6.61465ZM22.3891 6.92593C22.3891 7.79751 22.9183 8.01541 23.6965 7.45511C24.6303 6.80142 24.8794 6.83255 24.8794 7.64187C24.8482 8.73135 24.1323 9.4473 23.1051 9.4473C22.0156 9.4473 21.2996 8.76248 21.5798 7.98428C21.7043 7.70413 21.6109 7.36172 21.4242 7.23721C20.9884 6.95706 21.3308 6.3345 21.9533 6.3345C22.2024 6.3345 22.3891 6.61465 22.3891 6.92593ZM33.2839 7.1127C33.2839 7.8909 33.2839 7.8909 34.4045 7.42398C35.0271 7.17495 35.5874 6.95706 35.6497 6.95706C35.9609 6.95706 35.7119 8.42007 35.3384 8.88699C34.8715 9.54068 33.1906 9.63407 32.7548 9.04264C32.3501 8.54459 32.0077 6.77029 32.2567 6.52127C32.7236 6.05435 33.2839 6.39675 33.2839 7.1127ZM44.1787 7.1127C44.1787 7.92203 44.4589 8.10879 44.9881 7.61075C45.1437 7.45511 45.5795 7.23721 45.9842 7.1127C46.5756 6.95706 46.669 7.01931 46.669 7.76639C46.669 8.70023 45.9219 9.41617 44.9569 9.4473C43.9608 9.4473 43.6496 9.07376 43.4005 7.64187C43.2138 6.55239 43.276 6.3345 43.6807 6.3345C43.992 6.3345 44.1787 6.61465 44.1787 7.1127ZM10.1869 10.8792C11.3076 11.1905 10.9651 11.6263 9.62664 11.6263C8.72393 11.6263 8.38152 11.5017 8.38152 11.1593C8.38152 10.6613 9.00408 10.5679 10.1869 10.8792ZM15.8522 11.1593C16.1947 11.564 16.0701 11.6263 14.9807 11.6263C13.9534 11.6263 13.7355 11.5329 13.8601 11.1593C13.9846 10.9103 14.3581 10.6924 14.7628 10.6924C15.1363 10.6924 15.6343 10.9103 15.8522 11.1593ZM21.0818 10.8792C22.2335 11.1905 21.86 11.6263 20.3658 11.6263C18.5604 11.6263 18.467 11.0971 20.2102 10.7235C20.3036 10.7235 20.6771 10.7858 21.0818 10.8792ZM26.9961 11.2216C27.0583 11.5017 26.7159 11.6263 25.8443 11.6263C24.6303 11.6263 24.2879 11.3772 24.786 10.8792C25.1284 10.5368 26.8404 10.8169 26.9961 11.2216ZM31.9766 10.8792C33.0972 11.1905 32.7548 11.6263 31.4163 11.6263C30.2334 11.6263 29.7353 11.2216 30.5758 10.9103C31.105 10.6924 31.1672 10.6924 31.9766 10.8792ZM37.9531 11.1593C37.9531 11.5017 37.6107 11.6263 36.708 11.6263C35.5252 11.6263 35.1827 11.3772 35.6808 10.9103C35.7742 10.7858 36.3345 10.6924 36.9259 10.6924C37.6419 10.6924 37.9531 10.8481 37.9531 11.1593ZM43.4939 11.2216C43.5562 11.5017 43.1826 11.6263 42.1554 11.6263C40.848 11.6263 40.7235 11.564 41.0659 11.1282C41.5329 10.5679 43.276 10.6613 43.4939 11.2216ZM8.19475 15.5173C8.19475 16.2955 8.1325 16.918 8.00799 16.918C7.9146 16.918 7.60332 17.0114 7.32317 17.1048C6.9185 17.2604 6.82512 17.0425 6.82512 15.7352C6.82512 14.49 6.94963 14.1476 7.38543 14.0542C8.1325 13.8675 8.1325 13.9297 8.19475 15.5173ZM13.6733 14.1165C13.6733 14.2721 13.4865 14.4278 13.2686 14.4278C12.7706 14.4278 12.0546 16.2332 12.4593 16.4822C12.6461 16.5756 12.9573 16.5756 13.2064 16.4822C13.4865 16.3888 13.6733 16.5134 13.6733 16.7624C13.6733 17.2604 13.2064 17.3227 11.4321 17.0425C10.2803 16.8558 10.2492 16.7935 10.2492 15.4861V14.1476L11.7433 14.0231C12.5527 13.9609 13.2997 13.8986 13.4554 13.8675C13.5799 13.8363 13.6733 13.9297 13.6733 14.1165ZM35.6185 14.1165C35.743 14.3033 35.4629 14.4278 35.0271 14.4278C34.1555 14.4278 33.9688 14.9881 34.6224 15.6418C34.9337 15.9842 34.9337 16.0464 34.6224 15.8597C34.3734 15.704 34.2178 15.8285 34.2178 16.1398C34.2178 16.5445 34.4045 16.6379 34.996 16.4822C35.4318 16.3577 35.7742 16.42 35.7742 16.6067C35.7742 16.7624 35.0271 16.918 34.0621 16.918H32.3501V15.5484C32.3501 14.2099 32.3812 14.1476 33.3773 14.0231C35.245 13.8052 35.4318 13.8052 35.6185 14.1165ZM19.2763 15.5173C19.2763 16.6379 19.1518 16.918 18.7472 16.9492C18.4359 16.9492 17.7822 17.0114 17.2841 17.0737C16.7861 17.1359 16.1324 17.0737 15.8834 16.918C15.5098 16.7001 15.7277 16.6067 16.6304 16.6067C17.3153 16.5756 17.6888 16.4822 17.502 16.3888C17.004 16.2021 16.9729 15.3616 17.4398 15.3616C18.1557 15.3616 17.4709 14.5834 16.5993 14.3967C15.9456 14.241 16.1635 14.1788 17.502 14.1476L19.2763 14.1165V15.5173ZM22.7004 15.5173C22.7004 16.8246 22.6382 16.918 21.8911 16.918C21.2685 16.918 21.1129 16.7935 21.2685 16.42C21.3619 16.1398 21.4553 15.5173 21.4553 15.0192C21.4553 14.3344 21.6109 14.1165 22.0778 14.1165C22.607 14.1165 22.7004 14.3344 22.7004 15.5173ZM30.1711 15.5173C30.1711 16.7313 30.0777 16.918 29.5174 16.918C28.926 16.918 28.8638 16.7935 29.0817 15.7974C29.2062 14.9881 29.1439 14.5834 28.8638 14.3967C28.5836 14.2099 28.7392 14.1165 29.3307 14.1165C30.1089 14.1165 30.1711 14.2099 30.1711 15.5173ZM41.3772 15.5173C41.3772 16.7001 41.2838 16.918 40.7547 16.918C40.4123 16.918 40.1321 16.7624 40.1321 16.5756C40.1321 16.3888 39.9142 16.4822 39.6341 16.7313C39.0737 17.2916 38.887 17.3227 38.2644 16.918C37.8909 16.669 37.922 16.6067 38.4512 16.6067C38.8559 16.6067 39.2294 16.3266 39.3539 15.8908C39.7586 14.7702 39.6963 14.6145 38.887 14.3967C38.3267 14.241 38.5446 14.1788 39.7586 14.1476L41.3772 14.1165V15.5173ZM44.8636 15.4239C44.739 16.6379 44.3966 17.1982 43.8052 17.2293C43.4939 17.2293 43.4628 14.6145 43.7741 14.3344C43.8675 14.2099 44.2099 14.1165 44.4589 14.1165C44.8636 14.1165 44.9569 14.3655 44.8636 15.4239Z" fill="white"/>
  <path d="M107.68 15.0504V29.6805H111.446H115.213L115.088 20.9647C115.026 16.171 115.057 12.2489 115.151 12.2489C115.244 12.2489 117.112 14.2099 119.291 16.6068C121.47 19.0036 123.4 20.9647 123.555 20.9647C123.711 20.9647 125.641 18.9414 127.82 16.4511L131.804 11.9376L131.897 20.8091L131.96 29.6805H135.695H139.43V15.0504V0.420208H136.1L132.738 0.451336L128.256 5.55633C125.765 8.38898 123.649 10.6925 123.555 10.6925C123.337 10.6925 116.738 3.4085 115.306 1.60307L114.372 0.420208H111.042H107.68V15.0504Z" fill="white"/>
  <path d="M177.718 5.71195V11.0348L176.877 10.5991C175.414 9.85198 172.737 9.35393 171.274 9.57183C165.64 10.35 162.216 15.3928 163.088 21.6184C163.492 24.451 163.99 25.6028 165.64 27.3771C167.975 29.9296 171.119 30.8011 174.543 29.8362C175.601 29.5249 176.628 29.0891 176.815 28.8712C177.313 28.2486 177.718 28.342 177.718 29.058C177.718 29.6494 177.936 29.6805 180.831 29.6805H183.944V15.0504V0.42019H180.831H177.718V5.71195ZM176.815 14.3344L177.718 14.8636V19.7196V24.5755L176.504 25.2603C174.885 26.1631 172.52 26.1942 171.368 25.2915C169.936 24.1709 169.189 22.3032 169.189 20.0308C169.22 17.3538 169.749 15.8908 171.119 14.7391C172.084 13.9297 172.52 13.8052 174.076 13.8052C175.259 13.8052 176.224 13.992 176.815 14.3344Z" fill="white"/>
  <path d="M205.827 1.04278C204.613 1.75872 204.177 2.53692 204.177 3.96881C204.177 5.30731 205.391 6.83259 206.667 7.11274C207.196 7.23725 208.099 7.14387 208.69 6.9571C211.585 5.99213 211.865 2.2879 209.157 0.887136C207.943 0.264576 207.009 0.295704 205.827 1.04278Z" fill="white"/>
  <path d="M227.834 5.58746V10.7547L227.149 10.5679C224.005 9.60297 222.854 9.38508 221.422 9.54072C218.247 9.852 215.165 12.1866 213.733 15.3305C212.768 17.4161 212.768 22.3655 213.733 24.4822C214.76 26.7234 216.068 28.2175 217.935 29.2136C219.336 29.9918 219.928 30.1163 221.92 30.1475C223.881 30.1475 224.503 29.9918 225.78 29.2759C227.305 28.4354 227.834 28.4043 227.834 29.2447C227.834 29.5872 228.457 29.6805 230.947 29.6805H234.06V15.0504V0.420208H230.947H227.834V5.58746ZM226.838 14.4278L227.834 15.0504V19.6884V24.3577L226.962 24.9491C225.531 25.9763 223.756 26.3187 222.355 25.8518C218.62 24.5444 217.966 16.6379 221.422 14.4278C222.729 13.5874 225.437 13.5874 226.838 14.4278Z" fill="white"/>
  <path d="M148.271 9.91425C147.212 10.1321 145.656 10.6924 144.784 11.1282L143.228 11.9376L143.01 13.9609C142.699 16.8558 142.886 17.1982 144.349 16.0465C146.465 14.3656 147.96 13.8053 150.17 13.8053C151.944 13.8053 152.317 13.8986 152.971 14.5835C153.438 15.0192 153.749 15.7041 153.749 16.2021C153.749 17.0737 153.625 17.1359 150.045 18.2566C148.022 18.9102 145.718 19.8441 144.94 20.3421C142.201 22.0853 141.142 25.3226 142.637 27.5327C143.415 28.6844 145.065 29.8984 146.247 30.2097C147.337 30.4899 150.138 29.8362 152.068 28.9023C153.905 27.9996 154.372 27.9374 154.372 28.5911C154.372 29.2447 156.208 30.3031 157.329 30.3031C158.823 30.3031 162.247 29.4004 162.839 28.8401C163.243 28.4977 163.399 27.8751 163.399 26.7856C163.399 25.3226 163.368 25.2604 162.714 25.4783C162.31 25.6028 161.625 25.7584 161.189 25.8518L160.38 26.0074L160.193 22.9258C160.068 21.2448 159.975 18.4745 159.975 16.7313C159.975 13.3072 159.57 12.28 157.765 10.9103C155.959 9.57184 151.788 9.13605 148.271 9.91425ZM153.749 22.6145V25.2292L152.566 25.7584C150.823 26.5366 149.08 26.3187 148.489 25.2604C148.053 24.5133 148.053 24.3265 148.52 23.3616C148.925 22.5211 149.547 22.023 151.29 21.1515C152.504 20.5289 153.563 20.0309 153.625 20.0309C153.687 20.0309 153.749 21.2137 153.749 22.6145Z" fill="white"/>
  <path d="M197.578 10.4746C196.83 11.0349 195.648 12.3734 194.932 13.4628L193.593 15.4239V12.7469V10.0699H190.48H187.368V19.8752V29.6805H190.449H193.562L193.655 24.918C193.749 19.6884 193.967 19.0036 195.959 16.6379C196.955 15.4862 197.204 15.3617 198.511 15.3617C199.414 15.3617 200.348 15.6107 201.002 15.9842C201.562 16.3266 202.153 16.5445 202.309 16.4511C202.465 16.3578 202.807 15.4862 203.087 14.4901C203.367 13.5251 203.741 12.529 203.928 12.3422C204.457 11.6886 203.99 11.1282 202.278 10.2567C200.13 9.19831 199.227 9.22944 197.578 10.4746Z" fill="white"/>
  <path d="M204.488 19.8752V29.6805H207.601H210.714V19.8752V10.0699H207.601H204.519L204.488 19.8752Z" fill="white"/>
  <path d="M3.40104 39.1435C3.40104 60.0615 3.49443 61.4934 5.17534 64.6373C6.54497 67.1898 9.22198 69.6178 12.1791 71.0185C16.4437 73.0419 18.7472 73.4154 26.1245 73.4154C31.852 73.3843 32.7859 73.322 35.1516 72.6683C42.0309 70.7384 46.0153 67.1898 47.7273 61.4622C48.1631 59.9681 48.2254 57.26 48.2254 39.8905V20.0309H25.8132H3.40104V39.1435ZM27.3074 23.3616C27.3696 23.953 27.1828 24.451 26.7782 24.8246C26.2179 25.3226 26.0311 25.3537 25.1907 25.0113C24.4125 24.7001 24.2568 24.451 24.2568 23.5794C24.2568 22.7701 24.4436 22.4588 25.1284 22.0853C26.2179 21.4939 27.1828 22.0542 27.3074 23.3616ZM45.0815 22.1164C45.2993 22.49 45.3927 22.5522 45.4239 22.2409C45.4239 21.3071 46.3577 22.6145 46.3577 23.6106C46.3577 24.451 46.2021 24.7001 45.455 25.0113C44.1787 25.5405 42.9647 24.7623 43.1826 23.5172C43.3383 22.6456 44.0854 21.5873 44.5211 21.5873C44.6457 21.5873 44.9258 21.8363 45.0815 22.1164ZM8.03912 22.1787C8.25701 22.3343 8.50604 22.9569 8.56829 23.5794C8.63055 24.5133 8.56829 24.7001 8.07024 24.7001C7.75896 24.7001 7.44768 24.8557 7.38543 25.0736C7.29204 25.3226 7.01189 25.3226 6.26482 24.9802C5.45549 24.6378 5.26872 24.3577 5.26872 23.6106C5.26872 23.0814 5.42436 22.49 5.64226 22.2721C6.07805 21.8363 7.41656 21.774 8.03912 22.1787ZM41.315 42.9411C41.2216 58.4117 41.1905 59.0031 40.6301 59.4389C40.2877 59.6879 39.4162 59.8747 38.6691 59.8747C37.4862 59.8747 37.2372 59.7502 36.708 58.8475C36.0232 57.758 35.8987 56.6063 36.3967 56.295C36.957 55.9526 36.708 54.3962 35.8053 52.6841C33.6575 48.762 32.7548 45.3691 33.533 44.2796C34.0933 43.4703 33.9065 43.3146 31.6342 42.4742C28.5836 41.3535 28.0544 41.6648 29.0817 44.0928C29.7353 45.6803 29.7042 47.8282 29.0505 47.6725C28.3657 47.548 27.0583 43.9683 27.0583 42.2563C27.0583 40.9489 27.0895 40.9178 28.2412 40.731C31.6342 40.1396 34.8092 37.9295 35.494 35.626C35.8053 34.6299 35.743 34.2875 35.2139 33.2291C33.4084 29.7117 28.6459 27.9062 23.3541 28.7156C18.8405 29.4315 15.8522 31.8595 15.8522 34.8167C15.8522 37.338 19.2141 40.1396 22.9494 40.731L24.2568 40.9489V49.727V58.5362L23.5097 59.221C22.7627 59.9058 22.6382 59.937 17.004 59.8125C13.8289 59.7813 11.1208 59.5946 10.9651 59.4701C10.5605 59.0654 10.3115 50.9721 10.2803 38.4586L10.2492 26.879H25.8132H41.4083L41.315 42.9411ZM7.54107 39.9839C7.9146 40.2018 8.31927 40.5131 8.47491 40.6999C8.75506 41.1357 8.44378 42.5364 7.97686 42.8166C7.41656 43.1901 6.04692 43.0967 5.64226 42.6921C5.0197 42.0695 5.20647 40.6687 5.95354 40.1396C6.79399 39.5481 6.70061 39.5481 7.54107 39.9839ZM45.4239 40.1084C46.1398 40.482 46.3577 40.7932 46.3577 41.5403C46.3577 42.2251 46.2021 42.5364 45.7351 42.6609C45.3927 42.7543 45.1126 42.9411 45.1126 43.0967C45.1126 43.2524 44.8947 43.3769 44.6457 43.3769C44.3966 43.3769 44.1787 43.2212 44.1787 43.0656C44.1787 42.8788 43.9297 42.7543 43.6184 42.7543C42.5912 42.7543 43.3694 39.766 44.4278 39.6415C44.49 39.6415 44.9258 39.8594 45.4239 40.1084ZM29.5486 53.0577C29.5486 53.9293 31.0116 57.6646 31.603 58.2249C32.0699 58.6919 32.0699 58.7852 31.5408 59.1588C30.7626 59.7191 28.1789 59.6879 27.6809 59.0965C27.463 58.8164 27.2451 57.0109 27.1517 54.2094L26.9649 49.7581L28.2723 51.1277C28.9571 51.8748 29.5486 52.7464 29.5486 53.0577ZM44.8013 57.8514C44.8013 58.1004 45.0815 58.3183 45.4239 58.3183C46.3888 58.3183 46.2954 60.2794 45.2682 60.9331C44.3344 61.5556 44.1787 61.5556 44.1787 60.9642C44.1787 60.6218 43.9608 60.5284 43.4005 60.684C42.6223 60.8708 42.3111 60.435 42.9336 60.0304C43.0893 59.937 43.1515 59.4389 43.027 58.9409C42.8714 58.1315 42.9647 58.007 43.5251 58.007C43.8675 58.007 44.1787 57.8514 44.1787 57.6958C44.1787 57.509 44.3344 57.3845 44.49 57.3845C44.6768 57.3845 44.8013 57.6024 44.8013 57.8514ZM8.19476 58.1004C8.41265 58.2872 8.66168 58.9097 8.78619 59.4078C8.94183 60.2171 8.81732 60.435 8.00799 60.9019C7.47881 61.2132 6.94963 61.3377 6.85625 61.1821C6.76287 61.0265 6.45159 60.8397 6.20256 60.7463C5.89128 60.6218 5.70451 60.1237 5.67339 59.3144C5.61113 58.2249 5.70451 58.0382 6.29595 57.9137C7.54107 57.6646 7.79009 57.6958 8.19476 58.1004ZM39.8208 61.3689C39.8208 61.7424 37.9531 63.4233 36.708 64.1704C36.1166 64.5128 34.7158 65.1354 33.5952 65.5089C31.7898 66.1626 31.0116 66.2248 25.9689 66.256C21.0195 66.256 20.1168 66.1626 18.1557 65.54C16.9417 65.1665 15.3853 64.4817 14.7316 64.0459C13.2997 63.0809 11.8056 61.7113 11.8056 61.3689C11.8056 61.2444 18.1246 61.1198 25.8132 61.1198C33.533 61.1198 39.8208 61.2444 39.8208 61.3689Z" fill="white"/>
  <path d="M107.742 47.6414L107.836 62.2093L118.668 62.3027L129.469 62.3649V59.719V57.0732H122.31H115.151V53.4934V49.9137H121.781C125.454 49.9137 128.505 49.8515 128.567 49.7892C128.629 49.727 128.66 48.513 128.598 47.1433L128.473 44.622H121.812H115.151V41.5092V38.3964H121.812C125.485 38.3964 128.691 38.303 128.971 38.2096C129.376 38.0539 129.469 37.5248 129.469 35.5637V33.1046H118.575H107.68L107.742 47.6414Z" fill="white"/>
  <path d="M270.791 38.2407C270.791 41.0734 270.697 43.3768 270.573 43.3768C270.417 43.3768 269.546 43.0967 268.612 42.7232C266.184 41.7893 263.133 42.0072 260.861 43.2212C258.993 44.2484 258.028 45.2757 256.845 47.548C256.098 48.9799 256.005 49.4779 256.005 52.404C256.005 56.295 256.534 57.7269 258.806 60.1548C261.266 62.7696 265.032 63.4233 268.767 61.898C269.795 61.4622 270.666 61.1198 270.728 61.1198C270.76 61.1198 270.791 61.4 270.791 61.7424C270.791 62.3649 270.946 62.3961 273.841 62.3027L276.861 62.2093L276.954 47.6414L277.016 33.1046H273.903H270.791V38.2407ZM269.826 46.9566L270.791 47.4546V52.2172V57.0109L269.639 57.7269C268.985 58.1315 267.834 58.4739 266.9 58.5673C265.437 58.6918 265.188 58.5984 264.16 57.7269C261.701 55.5479 261.359 50.1005 263.538 47.6725C264.876 46.1472 267.678 45.836 269.826 46.9566Z" fill="white"/>
  <path d="M142.388 42.6609C141.672 42.9722 140.613 43.5947 140.022 44.0617C139.399 44.5597 138.808 44.9332 138.715 44.9332C138.59 44.9332 138.497 44.4352 138.497 43.8438V42.7543H135.384H132.271V52.5596V62.3649H135.384H138.497V56.0459C138.497 49.2289 138.528 49.1355 140.364 47.5169C142.419 45.6492 145.5 45.9293 146.621 48.046C147.15 49.011 147.212 49.9137 147.212 55.7347V62.3649H150.325H153.438V56.0459C153.438 50.4118 153.5 49.6647 154.03 48.7931C155.306 46.7075 158.481 45.6181 160.255 46.6764C161.998 47.7036 162.154 48.513 162.154 55.7969V62.3649H165.298H168.473L168.317 54.9565C168.162 47.0188 168.099 46.7698 166.325 44.6531C164.862 42.9099 163.275 42.2874 160.286 42.2874C157.983 42.2874 157.454 42.3807 156.24 43.1278C155.461 43.5636 154.372 44.4352 153.78 45.0578L152.722 46.1784L151.633 44.9021C150.107 43.1278 148.426 42.3807 145.812 42.2251C144.224 42.1628 143.29 42.2874 142.388 42.6609Z" fill="white"/>
  <path d="M180.737 42.5987C180.115 42.8477 179.274 43.2524 178.901 43.5325C177.967 44.1551 177.718 44.1239 177.718 43.3769C177.718 42.7854 177.5 42.7543 174.605 42.7543H171.492V57.5401V72.3259H174.605H177.718V66.8785C177.718 63.8902 177.749 61.4311 177.811 61.4311C177.842 61.4311 178.621 61.7113 179.523 62.0537C181.64 62.863 184.348 62.863 186.558 62.0226C189.982 60.7463 192.659 56.544 192.659 52.404C192.659 49.5091 191.134 46.0228 189.08 44.2173C186.994 42.4119 183.196 41.6648 180.737 42.5987ZM184.473 47.4858C185.749 48.7309 186.216 50.1005 186.185 52.7153C186.185 55.2055 185.344 57.1043 183.85 58.0382C183.072 58.5362 182.481 58.6296 181.142 58.5362C180.208 58.4428 179.056 58.1938 178.59 57.9759L177.718 57.6024V52.5596V47.548L179.056 46.8632C180.955 45.8671 183.072 46.1161 184.473 47.4858Z" fill="white"/>
  <path d="M205.578 42.7232C204.395 43.4391 203.274 44.6842 202.122 46.4896L201.22 47.8904L201.126 45.3068L201.033 42.7543H197.951H194.838V52.5596V62.3649H197.951H201.064V57.8202C201.064 53.3378 201.064 53.2444 202.029 51.4701C203.834 48.046 205.858 47.0188 208.068 48.3262C209.935 49.4157 210.029 49.3534 211.149 45.6803C211.647 44.0928 211.398 43.5947 209.78 42.7543C208.255 41.9761 206.792 41.9761 205.578 42.7232Z" fill="white"/>
  <path d="M218.029 42.5676C214.978 43.5325 213.266 45.0267 211.928 47.8905C211.149 49.5091 211.025 50.1317 211.025 52.5597C211.025 54.8631 211.149 55.6413 211.772 56.9176C213.609 60.7463 217.282 62.6763 222.729 62.6763C225.624 62.6763 227.772 62.1471 230.075 60.9331C231.632 60.0615 231.725 59.9681 231.818 58.6608C231.974 56.4195 231.881 56.3884 229.11 57.7892C226.776 58.9409 226.371 59.0654 224.005 59.0654C221.826 59.0965 221.266 59.0032 220.239 58.3495C218.9 57.509 217.25 55.1433 217.25 54.0538V53.3379H224.441H231.663L231.476 51.1589C231.04 45.8671 226.807 42.1007 221.359 42.1629C220.208 42.1629 218.714 42.3497 218.029 42.5676ZM224.068 46.4274C224.97 47.0811 226.402 49.7581 226.122 50.2251C225.997 50.4118 224.13 50.5363 221.577 50.5363C217.655 50.5363 217.25 50.4741 217.25 49.976C217.25 49.0422 218.62 47.0189 219.741 46.2407C221.017 45.3691 222.76 45.4313 224.068 46.4274Z" fill="white"/>
  <path d="M243.865 42.4741C243.336 42.6298 242.34 43.2212 241.624 43.8438C240.908 44.4352 240.254 44.9332 240.161 44.9332C240.067 44.9332 239.974 44.4352 239.974 43.8438V42.7543H236.861H233.748V52.5596V62.3649H236.861H239.974V55.828V49.2912L241.312 47.9215C242.807 46.334 244.363 45.8671 245.764 46.5519C247.32 47.2678 247.445 47.9215 247.445 55.4234V62.3649H250.557H253.67V55.2677C253.67 47.1745 253.452 46.085 251.554 44.2173C249.686 42.3807 246.573 41.6648 243.865 42.4741Z" fill="white"/>
  <path d="M285.888 42.6298C284.113 43.2835 281.903 44.8399 281.094 46.0227C278.479 49.8515 278.542 55.7347 281.25 58.8786C284.767 62.9875 291.833 63.9213 298.09 61.0887C299.46 60.4661 299.74 60.2171 299.74 59.5323C299.74 59.0654 299.833 58.256 299.926 57.7269C300.175 56.4817 299.926 56.4817 297.032 57.9136C294.946 58.9408 294.448 59.0654 292.144 59.0654C289.872 59.0965 289.436 59.0031 288.316 58.256C286.915 57.3222 285.825 55.7969 285.545 54.3028L285.359 53.3378H292.549H299.74V51.9993C299.709 46.2095 295.382 42.1006 289.374 42.1628C288.129 42.1628 286.573 42.3807 285.888 42.6298ZM292.144 46.334C292.549 46.583 293.265 47.5169 293.701 48.4196C294.355 49.6958 294.417 50.0382 294.074 50.2561C293.514 50.6297 285.825 50.5985 285.576 50.225C285.359 49.8515 286.199 47.797 286.915 46.9877C288.191 45.5558 290.526 45.2756 292.144 46.334Z" fill="white"/>
</svg>
