<svg width="29" height="30" viewBox="0 0 29 30" fill="none" xmlns="http://www.w3.org/2000/svg">
<path d="M0 29.2371L2.00937 21.9259C0.458284 19.2342 -0.16144 16.106 0.246288 13.0263C0.654016 9.94653 2.06642 7.08734 4.2645 4.89203C6.46258 2.69672 9.32354 1.28792 12.4038 0.884071C15.484 0.480223 18.6114 1.10389 21.3012 2.65837C23.9909 4.21285 26.0926 6.61129 27.2805 9.48182C28.4683 12.3523 28.676 15.5346 27.8712 18.5351C27.0664 21.5357 25.2941 24.1869 22.8292 26.0777C20.3643 27.9685 17.3444 28.9933 14.2378 28.9931C11.8807 28.9914 9.56154 28.3993 7.49209 27.2708L0 29.2371ZM7.82938 24.7203L8.25996 24.9744C10.0674 26.0455 12.1297 26.6106 14.2307 26.6106C16.8317 26.6106 19.359 25.7463 21.4153 24.1535C23.4715 22.5607 24.9402 20.3297 25.5903 17.8112C26.2405 15.2927 26.0353 12.6296 25.007 10.2405C23.9786 7.85138 22.1855 5.87172 19.9095 4.61274C17.6335 3.35376 15.0036 2.88684 12.4333 3.28538C9.86295 3.68392 7.49796 4.92533 5.71006 6.81445C3.92217 8.70357 2.81275 11.1333 2.55622 13.7216C2.29969 16.31 2.91059 18.9102 4.29288 21.1135L4.57132 21.557L3.3901 25.8786L7.82938 24.7203Z" fill="white"/>
<path d="M0.491211 28.7491L2.42452 21.6905C0.925971 19.0927 0.326271 16.0732 0.718384 13.0999C1.1105 10.1267 2.47252 7.36585 4.5933 5.24543C6.71408 3.125 9.47515 1.76344 12.4485 1.37182C15.4218 0.98021 18.4412 1.58041 21.0387 3.07939C23.6362 4.57837 25.6667 6.89239 26.8153 9.6627C27.9639 12.433 28.1665 15.5049 27.3917 18.402C26.6168 21.2992 24.9079 23.8598 22.5298 25.687C20.1517 27.5141 17.2372 28.5057 14.2382 28.508C11.9632 28.5083 9.72435 27.9383 7.72639 26.8503L0.491211 28.7491Z" fill="url(#paint0_linear_667_1028)"/>
<path d="M0 29.2371L2.00937 21.9259C0.458284 19.2342 -0.16144 16.106 0.246288 13.0263C0.654016 9.94653 2.06642 7.08734 4.2645 4.89203C6.46258 2.69672 9.32354 1.28792 12.4038 0.884071C15.484 0.480223 18.6114 1.10389 21.3012 2.65837C23.9909 4.21285 26.0926 6.61129 27.2805 9.48182C28.4683 12.3523 28.676 15.5346 27.8712 18.5351C27.0664 21.5357 25.2941 24.1869 22.8292 26.0777C20.3643 27.9685 17.3444 28.9933 14.2378 28.9931C11.8807 28.9914 9.56154 28.3993 7.49209 27.2708L0 29.2371ZM7.82938 24.7203L8.25996 24.9744C10.0674 26.0455 12.1297 26.6106 14.2307 26.6106C16.8317 26.6106 19.359 25.7463 21.4153 24.1535C23.4715 22.5607 24.9402 20.3297 25.5903 17.8112C26.2405 15.2927 26.0353 12.6296 25.007 10.2405C23.9786 7.85138 22.1855 5.87172 19.9095 4.61274C17.6335 3.35376 15.0036 2.88684 12.4333 3.28538C9.86295 3.68392 7.49796 4.92533 5.71006 6.81445C3.92217 8.70357 2.81275 11.1333 2.55622 13.7216C2.29969 16.31 2.91059 18.9102 4.29288 21.1135L4.57132 21.557L3.3901 25.8786L7.82938 24.7203Z" fill="url(#paint1_linear_667_1028)"/>
<path fill-rule="evenodd" clip-rule="evenodd" d="M10.7057 8.97407C10.4416 8.38561 10.1631 8.37413 9.91196 8.36408C9.70671 8.35547 9.47133 8.35547 9.23595 8.35547C9.05708 8.36025 8.88115 8.40214 8.71932 8.47848C8.55749 8.55483 8.41329 8.66396 8.29585 8.79896C7.97292 9.15204 7.06152 10.0046 7.06152 11.7399C7.06152 13.4751 8.32599 15.1515 8.49679 15.3869C8.66759 15.6223 10.9367 19.2965 14.5249 20.7103C17.5045 21.8858 18.1131 21.6518 18.7561 21.593C19.3991 21.5341 20.8429 20.7318 21.1372 19.9166C21.4314 19.1013 21.4314 18.3866 21.3424 18.2402C21.2534 18.0938 21.0195 18.0048 20.6664 17.8283C20.3133 17.6517 18.581 16.7977 18.2566 16.68C17.9322 16.5624 17.6983 16.5049 17.4629 16.858C17.2275 17.2111 16.5529 18.0062 16.3477 18.2402C16.1424 18.4741 15.9358 18.5043 15.5827 18.3277C15.2296 18.1512 14.0943 17.7795 12.7466 16.5781C11.9761 15.8658 11.3149 15.0436 10.7846 14.1382C10.5794 13.7866 10.7631 13.5942 10.9396 13.4206C11.1161 13.2469 11.2927 13.0086 11.4692 12.8034C11.6133 12.6246 11.7317 12.4265 11.8209 12.2149C11.8676 12.1175 11.8895 12.01 11.8845 11.902C11.8795 11.7941 11.8478 11.689 11.7922 11.5963C11.7046 11.4155 11.02 9.67017 10.7057 8.97407Z" fill="white"/>
<defs>
<linearGradient id="paint0_linear_667_1028" x1="14.1751" y1="28.7448" x2="14.1751" y2="1.25514" gradientUnits="userSpaceOnUse">
<stop stop-color="#20B038"/>
<stop offset="1" stop-color="#60D66A"/>
</linearGradient>
<linearGradient id="paint1_linear_667_1028" x1="14.1747" y1="29.2371" x2="14.1747" y2="0.762867" gradientUnits="userSpaceOnUse">
<stop stop-color="#F9F9F9"/>
<stop offset="1" stop-color="white"/>
</linearGradient>
</defs>
</svg>
