<svg width="638" height="172" viewBox="0 0 638 172" fill="none" xmlns="http://www.w3.org/2000/svg">
<path d="M35.2433 55.8387C39.8009 55.8387 43.9291 57.0276 47.628 59.4055C51.3269 61.7173 54.2332 64.9538 56.3468 69.1151C58.5265 73.2763 59.6164 77.999 59.6164 83.2832C59.6164 88.5673 58.5596 93.323 56.4459 97.5503C54.3323 101.712 51.426 104.981 47.7271 107.359C44.0942 109.671 40.0651 110.827 35.6396 110.827C32.4691 110.827 29.4638 110.199 26.6236 108.944C23.8494 107.623 21.5376 106.038 19.6881 104.189V104.783C19.6881 106.5 19.1267 107.953 18.0038 109.142C16.8809 110.265 15.4608 110.827 13.7435 110.827C12.0261 110.827 10.606 110.265 9.48315 109.142C8.36027 108.02 7.79883 106.566 7.79883 104.783V42.5623C7.79883 40.8449 8.36027 39.4248 9.48315 38.3019C10.606 37.113 12.0261 36.5186 13.7435 36.5186C15.4608 36.5186 16.8809 37.113 18.0038 38.3019C19.1267 39.4248 19.6881 40.8449 19.6881 42.5623V63.2695C21.2734 61.2879 23.4861 59.5706 26.3263 58.1175C29.1666 56.5983 32.1389 55.8387 35.2433 55.8387ZM33.7571 99.9282C37.9845 99.9282 41.4522 98.3429 44.1603 95.1725C46.8684 92.002 48.2225 88.0389 48.2225 83.2832C48.2225 78.5274 46.8684 74.5974 44.1603 71.4929C41.5182 68.3224 38.0505 66.7372 33.7571 66.7372C29.4638 66.7372 25.963 68.3224 23.2549 71.4929C20.5468 74.5974 19.1927 78.5274 19.1927 83.2832C19.1927 88.0389 20.5468 92.002 23.2549 95.1725C25.963 98.3429 29.4638 99.9282 33.7571 99.9282Z" fill="white"/>
<path d="M108.863 56.8295C110.58 56.8295 112 57.4239 113.123 58.6128C114.246 59.7357 114.807 61.1558 114.807 62.8732V88.0389C114.807 95.1725 112.826 100.754 108.863 104.783C104.966 108.812 99.3842 110.827 92.1185 110.827C84.8528 110.827 79.2714 108.812 75.3744 104.783C71.4773 100.754 69.5288 95.1725 69.5288 88.0389V62.8732C69.5288 61.1558 70.0902 59.7357 71.2131 58.6128C72.336 57.4239 73.7561 56.8295 75.4734 56.8295C77.1908 56.8295 78.6109 57.4239 79.7338 58.6128C80.8566 59.7357 81.4181 61.1558 81.4181 62.8732V88.0389C81.4181 92.068 82.3098 95.0734 84.0932 97.0549C85.8766 98.9704 88.5517 99.9282 92.1185 99.9282C95.7513 99.9282 98.4594 98.9704 100.243 97.0549C102.026 95.0734 102.918 92.068 102.918 88.0389V62.8732C102.918 61.1558 103.479 59.7357 104.602 58.6128C105.725 57.4239 107.145 56.8295 108.863 56.8295Z" fill="white"/>
<path d="M138.875 103.792C138.875 105.51 138.313 106.963 137.19 108.152C136.067 109.275 134.647 109.836 132.93 109.836C131.213 109.836 129.792 109.275 128.67 108.152C127.547 106.963 126.985 105.51 126.985 103.792V62.8732C126.985 61.1558 127.547 59.7357 128.67 58.6128C129.792 57.4239 131.213 56.8295 132.93 56.8295C134.647 56.8295 136.067 57.4239 137.19 58.6128C138.313 59.7357 138.875 61.1558 138.875 62.8732V103.792ZM132.831 50.3894C130.585 50.3894 129 50.0261 128.075 49.2996C127.15 48.573 126.688 47.285 126.688 45.4355V43.5531C126.688 41.7036 127.183 40.4156 128.174 39.689C129.165 38.9625 130.75 38.5992 132.93 38.5992C135.242 38.5992 136.86 38.9625 137.785 39.689C138.709 40.4156 139.172 41.7036 139.172 43.5531V45.4355C139.172 47.351 138.676 48.6721 137.686 49.3986C136.761 50.0592 135.143 50.3894 132.831 50.3894Z" fill="white"/>
<path d="M163.974 103.792C163.974 105.51 163.379 106.963 162.19 108.152C161.067 109.275 159.647 109.836 157.93 109.836C156.279 109.836 154.892 109.275 153.769 108.152C152.646 106.963 152.084 105.51 152.084 103.792V42.5623C152.084 40.8449 152.646 39.4248 153.769 38.3019C154.958 37.113 156.411 36.5186 158.128 36.5186C159.779 36.5186 161.166 37.113 162.289 38.3019C163.412 39.4248 163.974 40.8449 163.974 42.5623V103.792Z" fill="white"/>
<path d="M203.07 98.6402C203.995 98.6402 204.82 99.1025 205.547 100.027C206.339 100.886 206.736 102.042 206.736 103.495C206.736 105.278 205.745 106.798 203.763 108.053C201.848 109.241 199.668 109.836 197.224 109.836C193.129 109.836 189.661 108.977 186.821 107.26C184.047 105.477 182.66 101.745 182.66 96.0642V68.7188H178.102C176.517 68.7188 175.196 68.1903 174.139 67.1335C173.082 66.0767 172.554 64.7557 172.554 63.1704C172.554 61.6512 173.082 60.3962 174.139 59.4055C175.196 58.3486 176.517 57.8202 178.102 57.8202H182.66V51.4793C182.66 49.7619 183.221 48.3418 184.344 47.2189C185.533 46.03 186.986 45.4355 188.704 45.4355C190.355 45.4355 191.742 46.03 192.865 47.2189C193.988 48.3418 194.549 49.7619 194.549 51.4793V57.8202H201.584C203.169 57.8202 204.49 58.3486 205.547 59.4055C206.604 60.4623 207.132 61.7833 207.132 63.3686C207.132 64.8878 206.604 66.1758 205.547 67.2326C204.49 68.2234 203.169 68.7188 201.584 68.7188H194.549V95.5688C194.549 96.9559 194.912 97.9797 195.639 98.6402C196.366 99.2346 197.356 99.5319 198.611 99.5319C199.14 99.5319 199.866 99.3998 200.791 99.1356C201.584 98.8053 202.343 98.6402 203.07 98.6402Z" fill="white"/>
<path d="M306.667 58.1175C307.526 58.1175 308.219 58.3817 308.748 58.9101C309.342 59.4385 309.639 60.1651 309.639 61.0898C309.639 61.1558 309.54 61.5852 309.342 62.3778L294.084 107.953C293.754 108.548 293.325 109.043 292.796 109.44C292.268 109.77 291.706 109.902 291.112 109.836C290.517 109.836 289.989 109.671 289.527 109.341C289.064 109.01 288.701 108.548 288.437 107.953L275.458 77.4376L263.866 107.953C263.601 108.482 263.205 108.944 262.677 109.341C262.214 109.671 261.719 109.836 261.19 109.836C260.53 109.902 259.902 109.77 259.308 109.44C258.78 109.043 258.416 108.548 258.218 107.953L242.564 62.3778C242.366 61.9815 242.267 61.5521 242.267 61.0898C242.267 60.2311 242.564 59.5376 243.158 59.0092C243.753 58.4147 244.479 58.1175 245.338 58.1175C245.932 58.1175 246.461 58.3156 246.923 58.7119C247.452 59.0422 247.815 59.5045 248.013 60.099L261.19 99.631L272.981 70.0068C273.443 68.7518 274.368 68.1243 275.755 68.1243C277.076 68.1243 278.001 68.7518 278.529 70.0068L290.914 99.4328L303.893 60.099C304.289 58.778 305.214 58.1175 306.667 58.1175Z" fill="white"/>
<path d="M326.775 106.864C326.775 107.722 326.478 108.449 325.883 109.043C325.355 109.572 324.661 109.836 323.803 109.836C322.944 109.836 322.218 109.572 321.623 109.043C321.095 108.449 320.83 107.722 320.83 106.864V61.2879C320.83 60.4293 321.095 59.7357 321.623 59.2073C322.218 58.6128 322.944 58.3156 323.803 58.3156C324.661 58.3156 325.355 58.6128 325.883 59.2073C326.478 59.7357 326.775 60.4293 326.775 61.2879V106.864ZM323.803 51.6774C322.482 51.6774 321.458 51.3802 320.731 50.7857C320.005 50.1252 319.642 49.2005 319.642 48.0115V47.0208C319.642 45.8318 320.005 44.9401 320.731 44.3457C321.524 43.6852 322.581 43.3549 323.902 43.3549C326.544 43.3549 327.865 44.5769 327.865 47.0208V48.0115C327.865 49.2005 327.502 50.1252 326.775 50.7857C326.115 51.3802 325.124 51.6774 323.803 51.6774Z" fill="white"/>
<path d="M352.126 64.9538V98.1448C352.126 100.655 352.588 102.372 353.513 103.297C354.438 104.156 355.66 104.585 357.179 104.585C357.575 104.585 358.07 104.519 358.665 104.387C359.259 104.189 359.722 104.089 360.052 104.089C360.646 104.089 361.142 104.354 361.538 104.882C362.001 105.344 362.232 105.906 362.232 106.566C362.232 107.491 361.703 108.284 360.646 108.944C359.59 109.539 358.335 109.836 356.882 109.836C355.098 109.836 353.513 109.671 352.126 109.341C350.739 109.01 349.385 108.02 348.064 106.368C346.809 104.717 346.181 102.075 346.181 98.442V64.9538H338.948C338.156 64.9538 337.462 64.6896 336.868 64.1612C336.339 63.6328 336.075 62.9723 336.075 62.1796C336.075 61.387 336.339 60.7265 336.868 60.1981C337.462 59.6697 338.156 59.4055 338.948 59.4055H346.181V48.4079C346.181 47.5492 346.445 46.8556 346.974 46.3272C347.568 45.7328 348.295 45.4355 349.153 45.4355C350.012 45.4355 350.706 45.7328 351.234 46.3272C351.829 46.8556 352.126 47.5492 352.126 48.4079V59.4055H362.034C362.76 59.4055 363.388 59.7027 363.916 60.2972C364.51 60.8916 364.808 61.5521 364.808 62.2787C364.808 63.0713 364.544 63.7319 364.015 64.2603C363.487 64.7226 362.826 64.9538 362.034 64.9538H352.126Z" fill="white"/>
<path d="M398.877 58.811C404.822 58.811 409.247 60.6935 412.154 64.4584C415.06 68.1573 416.513 72.9461 416.513 78.8247V106.864C416.513 107.722 416.216 108.449 415.621 109.043C415.093 109.572 414.399 109.836 413.541 109.836C412.682 109.836 411.956 109.572 411.361 109.043C410.833 108.449 410.568 107.722 410.568 106.864V78.8247C410.568 74.5313 409.545 71.0636 407.497 68.4215C405.449 65.7134 402.246 64.3593 397.886 64.3593C395.112 64.3593 392.47 65.0199 389.96 66.3409C387.516 67.6619 385.535 69.4453 384.016 71.6911C382.496 73.8708 381.737 76.2486 381.737 78.8247V106.864C381.737 107.722 381.44 108.449 380.845 109.043C380.317 109.572 379.623 109.836 378.765 109.836C377.906 109.836 377.179 109.572 376.585 109.043C376.056 108.449 375.792 107.722 375.792 106.864V39.4909C375.792 38.6322 376.056 37.9387 376.585 37.4103C377.179 36.8158 377.906 36.5186 378.765 36.5186C379.623 36.5186 380.317 36.8158 380.845 37.4103C381.44 37.9387 381.737 38.6322 381.737 39.4909V68.5206C383.52 65.6804 385.997 63.3686 389.168 61.5852C392.338 59.7357 395.575 58.811 398.877 58.811Z" fill="white"/>
<g clip-path="url(#clip0_521_248)">
<path fill-rule="evenodd" clip-rule="evenodd" d="M550.685 171.332C570.161 171.332 588.115 164.813 602.484 153.838L589.734 141.088C578.731 148.842 565.311 153.396 550.827 153.396C536.241 153.396 522.733 148.777 511.687 140.922L498.821 153.788C513.2 164.793 531.179 171.332 550.685 171.332ZM482.717 137.653L495.587 124.783C487.791 113.762 483.21 100.305 483.21 85.7781C483.21 71.2947 487.764 57.8748 495.517 46.8721L482.767 34.1221C471.792 48.4904 465.273 66.4441 465.273 85.9205C465.273 105.367 471.772 123.296 482.717 137.653ZM636.097 85.9205C636.097 105.397 629.578 123.351 618.603 137.719L605.902 125.017C613.799 113.953 618.445 100.408 618.445 85.7781C618.445 71.1916 613.826 57.6839 605.972 46.6376L618.553 34.0564C629.558 48.4356 636.097 66.4145 636.097 85.9205ZM602.418 17.9523C588.06 7.00779 570.132 0.508789 550.685 0.508789C531.209 0.508789 513.255 7.02765 498.887 18.0025L511.588 30.7041C522.653 22.8067 536.198 18.1605 550.827 18.1605C565.354 18.1605 578.811 22.7415 589.832 30.5377L602.418 17.9523Z" fill="white"/>
<path d="M572.038 85.9203C572.038 97.7132 562.478 107.273 550.685 107.273C538.892 107.273 529.332 97.7132 529.332 85.9203C529.332 74.1274 538.892 64.5674 550.685 64.5674C562.478 64.5674 572.038 74.1274 572.038 85.9203Z" fill="white"/>
<path fill-rule="evenodd" clip-rule="evenodd" d="M543.363 32.9653C519.689 36.1844 500.95 54.924 497.73 78.598H515.663C518.585 64.789 529.514 53.9353 543.363 51.124V32.9653ZM585.298 78.598C582.397 64.8838 571.597 54.0845 557.883 51.1831V32.9653C581.557 36.1844 600.297 54.924 603.516 78.598H585.298ZM557.883 120.818C571.692 117.896 582.546 106.967 585.357 93.118H603.516C600.297 116.792 581.557 135.532 557.883 138.751V120.818ZM515.604 93.118C518.435 107.062 529.419 118.046 543.363 120.877V138.751C519.689 135.532 500.95 116.792 497.73 93.118H515.604Z" fill="white"/>
</g>
<defs>
<clipPath id="clip0_521_248">
<rect width="635.748" height="170.823" fill="white" transform="translate(0.634766 0.508789)"/>
</clipPath>
</defs>
</svg>
