<svg xmlns="http://www.w3.org/2000/svg" width="638" height="172" fill="none" viewBox="0 0 638 172"><path fill="#fff" d="M35.2433 55.5384C39.8009 55.5384 43.9291 56.7273 47.628 59.1052C51.3269 61.417 54.2332 64.6535 56.3468 68.8148C58.5265 72.976 59.6164 77.6987 59.6164 82.9829C59.6164 88.267 58.5596 93.0227 56.4459 97.25C54.3323 101.411 51.426 104.681 47.7271 107.059C44.0942 109.371 40.0651 110.526 35.6396 110.526C32.4691 110.526 29.4638 109.899 26.6236 108.644C23.8494 107.323 21.5376 105.738 19.6881 103.888V104.483C19.6881 106.2 19.1267 107.653 18.0038 108.842C16.8809 109.965 15.4608 110.526 13.7435 110.526C12.0261 110.526 10.606 109.965 9.48315 108.842C8.36027 107.719 7.79883 106.266 7.79883 104.483V42.262C7.79883 40.5446 8.36027 39.1245 9.48315 38.0017C10.606 36.8127 12.0261 36.2183 13.7435 36.2183C15.4608 36.2183 16.8809 36.8127 18.0038 38.0017C19.1267 39.1245 19.6881 40.5446 19.6881 42.262V62.9692C21.2734 60.9876 23.4861 59.2703 26.3263 57.8172C29.1666 56.298 32.1389 55.5384 35.2433 55.5384ZM33.7571 99.6279C37.9845 99.6279 41.4522 98.0427 44.1603 94.8722C46.8684 91.7017 48.2225 87.7386 48.2225 82.9829C48.2225 78.2271 46.8684 74.2971 44.1603 71.1926C41.5182 68.0222 38.0505 66.4369 33.7571 66.4369C29.4638 66.4369 25.963 68.0222 23.2549 71.1926C20.5468 74.2971 19.1927 78.2271 19.1927 82.9829C19.1927 87.7386 20.5468 91.7017 23.2549 94.8722C25.963 98.0427 29.4638 99.6279 33.7571 99.6279Z"/><path fill="#fff" d="M108.863 56.5292C110.58 56.5292 112 57.1236 113.123 58.3126C114.246 59.4354 114.807 60.8555 114.807 62.5729V87.7386C114.807 94.8722 112.826 100.454 108.863 104.483C104.966 108.512 99.3842 110.526 92.1185 110.526C84.8528 110.526 79.2714 108.512 75.3744 104.483C71.4773 100.454 69.5288 94.8722 69.5288 87.7386V62.5729C69.5288 60.8555 70.0902 59.4354 71.2131 58.3126C72.336 57.1236 73.7561 56.5292 75.4734 56.5292C77.1908 56.5292 78.6109 57.1236 79.7338 58.3126C80.8566 59.4354 81.4181 60.8555 81.4181 62.5729V87.7386C81.4181 91.7677 82.3098 94.7731 84.0932 96.7546C85.8766 98.6701 88.5517 99.6279 92.1185 99.6279C95.7513 99.6279 98.4594 98.6701 100.243 96.7546C102.026 94.7731 102.918 91.7677 102.918 87.7386V62.5729C102.918 60.8555 103.479 59.4354 104.602 58.3126C105.725 57.1236 107.145 56.5292 108.863 56.5292Z"/><path fill="#fff" d="M138.875 103.492C138.875 105.209 138.313 106.662 137.19 107.851C136.067 108.974 134.647 109.536 132.93 109.536C131.213 109.536 129.792 108.974 128.67 107.851C127.547 106.662 126.985 105.209 126.985 103.492V62.5729C126.985 60.8555 127.547 59.4354 128.67 58.3126C129.792 57.1236 131.213 56.5292 132.93 56.5292C134.647 56.5292 136.067 57.1236 137.19 58.3126C138.313 59.4354 138.875 60.8555 138.875 62.5729V103.492ZM132.831 50.0891C130.585 50.0891 129 49.7258 128.075 48.9993C127.15 48.2727 126.688 46.9847 126.688 45.1352V43.2528C126.688 41.4033 127.183 40.1153 128.174 39.3887C129.165 38.6622 130.75 38.2989 132.93 38.2989C135.242 38.2989 136.86 38.6622 137.785 39.3887C138.709 40.1153 139.172 41.4033 139.172 43.2528V45.1352C139.172 47.0507 138.676 48.3718 137.686 49.0983C136.761 49.7589 135.143 50.0891 132.831 50.0891Z"/><path fill="#fff" d="M163.974 103.492C163.974 105.209 163.379 106.662 162.19 107.851C161.067 108.974 159.647 109.536 157.93 109.536C156.279 109.536 154.892 108.974 153.769 107.851C152.646 106.662 152.084 105.209 152.084 103.492V42.262C152.084 40.5446 152.646 39.1245 153.769 38.0017C154.958 36.8127 156.411 36.2183 158.128 36.2183C159.779 36.2183 161.166 36.8127 162.289 38.0017C163.412 39.1245 163.974 40.5446 163.974 42.262V103.492Z"/><path fill="#fff" d="M203.07 98.3399C203.995 98.3399 204.82 98.8023 205.547 99.727C206.339 100.586 206.736 101.742 206.736 103.195C206.736 104.978 205.745 106.497 203.763 107.752C201.848 108.941 199.668 109.536 197.224 109.536C193.129 109.536 189.661 108.677 186.821 106.96C184.047 105.176 182.66 101.444 182.66 95.7639V68.4185H178.102C176.517 68.4185 175.196 67.8901 174.139 66.8332C173.082 65.7764 172.554 64.4554 172.554 62.8701C172.554 61.3509 173.082 60.096 174.139 59.1052C175.196 58.0483 176.517 57.5199 178.102 57.5199H182.66V51.179C182.66 49.4616 183.221 48.0415 184.344 46.9186C185.533 45.7297 186.986 45.1352 188.704 45.1352C190.355 45.1352 191.742 45.7297 192.865 46.9186C193.988 48.0415 194.549 49.4616 194.549 51.179V57.5199H201.584C203.169 57.5199 204.49 58.0483 205.547 59.1052C206.604 60.162 207.132 61.483 207.132 63.0683C207.132 64.5875 206.604 65.8755 205.547 66.9323C204.49 67.9231 203.169 68.4185 201.584 68.4185H194.549V95.2685C194.549 96.6556 194.912 97.6794 195.639 98.3399C196.366 98.9343 197.356 99.2316 198.611 99.2316C199.14 99.2316 199.866 99.0995 200.791 98.8353C201.584 98.505 202.343 98.3399 203.07 98.3399Z"/><path fill="#fff" d="M306.667 57.8172C307.526 57.8172 308.219 58.0814 308.748 58.6098C309.342 59.1382 309.639 59.8648 309.639 60.7895C309.639 60.8555 309.54 61.2849 309.342 62.0775L294.084 107.653C293.754 108.248 293.325 108.743 292.796 109.139C292.268 109.47 291.706 109.602 291.112 109.536C290.517 109.536 289.989 109.371 289.527 109.04C289.064 108.71 288.701 108.248 288.437 107.653L275.458 77.1373L263.866 107.653C263.601 108.182 263.205 108.644 262.677 109.04C262.214 109.371 261.719 109.536 261.19 109.536C260.53 109.602 259.902 109.47 259.308 109.139C258.78 108.743 258.416 108.248 258.218 107.653L242.564 62.0775C242.366 61.6812 242.267 61.2519 242.267 60.7895C242.267 59.9308 242.564 59.2373 243.158 58.7089C243.753 58.1144 244.479 57.8172 245.338 57.8172C245.932 57.8172 246.461 58.0153 246.923 58.4116C247.452 58.7419 247.815 59.2043 248.013 59.7987L261.19 99.3307L272.981 69.7065C273.443 68.4515 274.368 67.824 275.755 67.824C277.076 67.824 278.001 68.4515 278.529 69.7065L290.914 99.1325L303.893 59.7987C304.289 58.4777 305.214 57.8172 306.667 57.8172Z"/><path fill="#fff" d="M326.775 106.563C326.775 107.422 326.478 108.149 325.883 108.743C325.355 109.271 324.661 109.536 323.803 109.536C322.944 109.536 322.218 109.271 321.623 108.743C321.095 108.149 320.83 107.422 320.83 106.563V60.9877C320.83 60.129 321.095 59.4354 321.623 58.907C322.218 58.3126 322.944 58.0153 323.803 58.0153C324.661 58.0153 325.355 58.3126 325.883 58.907C326.478 59.4354 326.775 60.129 326.775 60.9877V106.563ZM323.803 51.3771C322.482 51.3771 321.458 51.0799 320.731 50.4854C320.005 49.8249 319.642 48.9002 319.642 47.7113V46.7205C319.642 45.5316 320.005 44.6399 320.731 44.0454C321.524 43.3849 322.581 43.0546 323.902 43.0546C326.544 43.0546 327.865 44.2766 327.865 46.7205V47.7113C327.865 48.9002 327.502 49.8249 326.775 50.4854C326.115 51.0799 325.124 51.3771 323.803 51.3771Z"/><path fill="#fff" d="M352.126 64.6535V97.8445C352.126 100.354 352.588 102.072 353.513 102.997C354.438 103.855 355.66 104.285 357.179 104.285C357.575 104.285 358.07 104.218 358.665 104.086C359.259 103.888 359.722 103.789 360.052 103.789C360.646 103.789 361.142 104.053 361.538 104.582C362.001 105.044 362.232 105.606 362.232 106.266C362.232 107.191 361.703 107.983 360.646 108.644C359.59 109.238 358.335 109.536 356.882 109.536C355.098 109.536 353.513 109.371 352.126 109.04C350.739 108.71 349.385 107.719 348.064 106.068C346.809 104.417 346.181 101.775 346.181 98.1417V64.6535H338.948C338.156 64.6535 337.462 64.3893 336.868 63.8609C336.339 63.3325 336.075 62.672 336.075 61.8793C336.075 61.0867 336.339 60.4262 336.868 59.8978C337.462 59.3694 338.156 59.1052 338.948 59.1052H346.181V48.1076C346.181 47.2489 346.445 46.5554 346.974 46.0269C347.568 45.4325 348.295 45.1352 349.153 45.1352C350.012 45.1352 350.706 45.4325 351.234 46.0269C351.829 46.5554 352.126 47.2489 352.126 48.1076V59.1052H362.034C362.76 59.1052 363.388 59.4024 363.916 59.9969C364.51 60.5913 364.808 61.2519 364.808 61.9784C364.808 62.771 364.544 63.4316 364.015 63.96C363.487 64.4223 362.826 64.6535 362.034 64.6535H352.126Z"/><path fill="#fff" d="M398.877 58.5107C404.822 58.5107 409.247 60.3932 412.154 64.1581C415.06 67.857 416.513 72.6458 416.513 78.5244V106.563C416.513 107.422 416.216 108.149 415.621 108.743C415.093 109.271 414.399 109.536 413.541 109.536C412.682 109.536 411.956 109.271 411.361 108.743C410.833 108.149 410.568 107.422 410.568 106.563V78.5244C410.568 74.231 409.545 70.7633 407.497 68.1212C405.449 65.4131 402.246 64.0591 397.886 64.0591C395.112 64.0591 392.47 64.7196 389.96 66.0406C387.516 67.3616 385.535 69.145 384.016 71.3908C382.496 73.5705 381.737 75.9484 381.737 78.5244V106.563C381.737 107.422 381.44 108.149 380.845 108.743C380.317 109.271 379.623 109.536 378.765 109.536C377.906 109.536 377.179 109.271 376.585 108.743C376.056 108.149 375.792 107.422 375.792 106.563V39.1906C375.792 38.3319 376.056 37.6384 376.585 37.11C377.179 36.5155 377.906 36.2183 378.765 36.2183C379.623 36.2183 380.317 36.5155 380.845 37.11C381.44 37.6384 381.737 38.3319 381.737 39.1906V68.2203C383.52 65.3801 385.997 63.0683 389.168 61.2849C392.338 59.4354 395.575 58.5107 398.877 58.5107Z"/><g clip-path="url(#clip0_521_255)"><path fill="#01E0CB" fill-rule="evenodd" d="M550.685 171.032C570.161 171.032 588.115 164.513 602.484 153.538L589.734 140.788C578.731 148.542 565.311 153.095 550.827 153.095C536.241 153.095 522.733 148.477 511.687 140.622L498.821 153.488C513.2 164.493 531.179 171.032 550.685 171.032ZM482.717 137.353L495.587 124.483C487.791 113.462 483.21 100.005 483.21 85.4778C483.21 70.9944 487.764 57.5745 495.517 46.5718L482.767 33.8218C471.792 48.1901 465.273 66.1438 465.273 85.6202C465.273 105.067 471.772 122.995 482.717 137.353ZM636.097 85.6202C636.097 105.096 629.578 123.05 618.603 137.419L605.902 124.717C613.799 113.652 618.445 100.108 618.445 85.4778C618.445 70.8913 613.826 57.3836 605.972 46.3373L618.553 33.7561C629.558 48.1354 636.097 66.1142 636.097 85.6202ZM602.418 17.652C588.06 6.7075 570.132 0.208496 550.685 0.208496C531.209 0.208496 513.255 6.72735 498.887 17.7022L511.588 30.4038C522.653 22.5064 536.198 17.8602 550.827 17.8602C565.354 17.8602 578.811 22.4412 589.832 30.2374L602.418 17.652Z" clip-rule="evenodd"/><path fill="#fff" d="M572.038 85.62C572.038 97.4129 562.478 106.973 550.685 106.973C538.892 106.973 529.332 97.4129 529.332 85.62C529.332 73.8271 538.892 64.2671 550.685 64.2671C562.478 64.2671 572.038 73.8271 572.038 85.62Z"/><path fill="#0080FF" fill-rule="evenodd" d="M543.363 32.665C519.689 35.8841 500.95 54.6237 497.73 78.2977H515.663C518.585 64.4887 529.514 53.635 543.363 50.8237V32.665ZM585.298 78.2977C582.397 64.5835 571.597 53.7842 557.883 50.8828V32.665C581.557 35.8841 600.297 54.6237 603.516 78.2977H585.298ZM557.883 120.517C571.692 117.596 582.546 106.667 585.357 92.8177H603.516C600.297 116.492 581.557 135.231 557.883 138.451V120.517ZM515.604 92.8177C518.435 106.762 529.419 117.746 543.363 120.576V138.451C519.689 135.231 500.95 116.492 497.73 92.8177H515.604Z" clip-rule="evenodd"/></g><defs><clipPath id="clip0_521_255"><rect width="635.748" height="170.823" fill="#fff" transform="translate(0.634766 0.208496)"/></clipPath></defs></svg>