<svg width="638" height="172" viewBox="0 0 638 172" fill="none" xmlns="http://www.w3.org/2000/svg">
<path d="M34.8332 55.8392C39.3907 55.8392 43.519 57.0281 47.2178 59.406C50.9167 61.7178 53.823 64.9543 55.9367 69.1156C58.1164 73.2768 59.2062 77.9995 59.2062 83.2837C59.2062 88.5678 58.1494 93.3235 56.0358 97.5508C53.9221 101.712 51.0158 104.982 47.3169 107.359C43.6841 109.671 39.6549 110.827 35.2295 110.827C32.059 110.827 29.0536 110.2 26.2134 108.945C23.4392 107.624 21.1274 106.038 19.278 104.189V104.783C19.278 106.501 18.7165 107.954 17.5937 109.143C16.4708 110.266 15.0507 110.827 13.3333 110.827C11.616 110.827 10.1959 110.266 9.07299 109.143C7.95011 108.02 7.38867 106.567 7.38867 104.783V42.5628C7.38867 40.8454 7.95011 39.4253 9.07299 38.3024C10.1959 37.1135 11.616 36.519 13.3333 36.519C15.0507 36.519 16.4708 37.1135 17.5937 38.3024C18.7165 39.4253 19.278 40.8454 19.278 42.5628V63.27C20.8632 61.2884 23.0759 59.5711 25.9162 58.1179C28.7564 56.5988 31.7287 55.8392 34.8332 55.8392ZM33.347 99.9287C37.5743 99.9287 41.042 98.3434 43.7501 95.173C46.4583 92.0025 47.8123 88.0394 47.8123 83.2837C47.8123 78.5279 46.4583 74.5978 43.7501 71.4934C41.1081 68.3229 37.6404 66.7377 33.347 66.7377C29.0536 66.7377 25.5529 68.3229 22.8448 71.4934C20.1367 74.5978 18.7826 78.5279 18.7826 83.2837C18.7826 88.0394 20.1367 92.0025 22.8448 95.173C25.5529 98.3434 29.0536 99.9287 33.347 99.9287Z" fill="black"/>
<path d="M108.452 56.8299C110.17 56.8299 111.59 57.4244 112.713 58.6133C113.836 59.7362 114.397 61.1563 114.397 62.8737V88.0394C114.397 95.173 112.416 100.754 108.452 104.783C104.555 108.813 98.974 110.827 91.7083 110.827C84.4426 110.827 78.8613 108.813 74.9642 104.783C71.0672 100.754 69.1186 95.173 69.1186 88.0394V62.8737C69.1186 61.1563 69.6801 59.7362 70.8029 58.6133C71.9258 57.4244 73.3459 56.8299 75.0633 56.8299C76.7806 56.8299 78.2007 57.4244 79.3236 58.6133C80.4465 59.7362 81.0079 61.1563 81.0079 62.8737V88.0394C81.0079 92.0685 81.8996 95.0739 83.683 97.0554C85.4664 98.9709 88.1415 99.9287 91.7083 99.9287C95.3412 99.9287 98.0493 98.9709 99.8327 97.0554C101.616 95.0739 102.508 92.0685 102.508 88.0394V62.8737C102.508 61.1563 103.069 59.7362 104.192 58.6133C105.315 57.4244 106.735 56.8299 108.452 56.8299Z" fill="black"/>
<path d="M138.464 103.793C138.464 105.51 137.903 106.963 136.78 108.152C135.657 109.275 134.237 109.836 132.52 109.836C130.802 109.836 129.382 109.275 128.259 108.152C127.137 106.963 126.575 105.51 126.575 103.793V62.8737C126.575 61.1563 127.137 59.7362 128.259 58.6133C129.382 57.4244 130.802 56.8299 132.52 56.8299C134.237 56.8299 135.657 57.4244 136.78 58.6133C137.903 59.7362 138.464 61.1563 138.464 62.8737V103.793ZM132.421 50.3899C130.175 50.3899 128.59 50.0266 127.665 49.3C126.74 48.5735 126.278 47.2855 126.278 45.436V43.5535C126.278 41.7041 126.773 40.4161 127.764 39.6895C128.755 38.963 130.34 38.5997 132.52 38.5997C134.832 38.5997 136.45 38.963 137.375 39.6895C138.299 40.4161 138.762 41.7041 138.762 43.5535V45.436C138.762 47.3515 138.266 48.6726 137.275 49.3991C136.351 50.0596 134.732 50.3899 132.421 50.3899Z" fill="black"/>
<path d="M163.564 103.793C163.564 105.51 162.969 106.963 161.78 108.152C160.657 109.275 159.237 109.836 157.52 109.836C155.868 109.836 154.481 109.275 153.359 108.152C152.236 106.963 151.674 105.51 151.674 103.793V42.5628C151.674 40.8454 152.236 39.4253 153.359 38.3024C154.547 37.1135 156.001 36.519 157.718 36.519C159.369 36.519 160.756 37.1135 161.879 38.3024C163.002 39.4253 163.564 40.8454 163.564 42.5628V103.793Z" fill="black"/>
<path d="M202.66 98.6407C203.584 98.6407 204.41 99.103 205.137 100.028C205.929 100.886 206.326 102.042 206.326 103.495C206.326 105.279 205.335 106.798 203.353 108.053C201.438 109.242 199.258 109.836 196.814 109.836C192.719 109.836 189.251 108.978 186.411 107.26C183.637 105.477 182.25 101.745 182.25 96.0647V68.7192H177.692C176.107 68.7192 174.786 68.1908 173.729 67.134C172.672 66.0772 172.144 64.7561 172.144 63.1709C172.144 61.6517 172.672 60.3967 173.729 59.406C174.786 58.3491 176.107 57.8207 177.692 57.8207H182.25V51.4797C182.25 49.7624 182.811 48.3423 183.934 47.2194C185.123 46.0305 186.576 45.436 188.293 45.436C189.945 45.436 191.332 46.0305 192.455 47.2194C193.578 48.3423 194.139 49.7624 194.139 51.4797V57.8207H201.174C202.759 57.8207 204.08 58.3491 205.137 59.406C206.193 60.4628 206.722 61.7838 206.722 63.3691C206.722 64.8882 206.193 66.1763 205.137 67.2331C204.08 68.2239 202.759 68.7192 201.174 68.7192H194.139V95.5693C194.139 96.9564 194.502 97.9801 195.229 98.6407C195.955 99.2351 196.946 99.5324 198.201 99.5324C198.73 99.5324 199.456 99.4003 200.381 99.1361C201.174 98.8058 201.933 98.6407 202.66 98.6407Z" fill="black"/>
<path d="M306.257 58.1179C307.116 58.1179 307.809 58.3822 308.337 58.9106C308.932 59.439 309.229 60.1655 309.229 61.0903C309.229 61.1563 309.13 61.5857 308.932 62.3783L293.674 107.954C293.344 108.548 292.914 109.044 292.386 109.44C291.858 109.77 291.296 109.902 290.702 109.836C290.107 109.836 289.579 109.671 289.116 109.341C288.654 109.011 288.291 108.548 288.027 107.954L275.047 77.4381L263.455 107.954C263.191 108.482 262.795 108.945 262.266 109.341C261.804 109.671 261.309 109.836 260.78 109.836C260.12 109.902 259.492 109.77 258.898 109.44C258.369 109.044 258.006 108.548 257.808 107.954L242.154 62.3783C241.956 61.982 241.856 61.5526 241.856 61.0903C241.856 60.2316 242.154 59.5381 242.748 59.0096C243.343 58.4152 244.069 58.1179 244.928 58.1179C245.522 58.1179 246.051 58.3161 246.513 58.7124C247.042 59.0427 247.405 59.505 247.603 60.0995L260.78 99.6314L272.571 70.0073C273.033 68.7523 273.958 68.1248 275.345 68.1248C276.666 68.1248 277.59 68.7523 278.119 70.0073L290.504 99.4333L303.483 60.0995C303.879 58.7785 304.804 58.1179 306.257 58.1179Z" fill="black"/>
<path d="M326.365 106.864C326.365 107.723 326.068 108.449 325.473 109.044C324.945 109.572 324.251 109.836 323.393 109.836C322.534 109.836 321.807 109.572 321.213 109.044C320.685 108.449 320.42 107.723 320.42 106.864V61.2884C320.42 60.4298 320.685 59.7362 321.213 59.2078C321.807 58.6133 322.534 58.3161 323.393 58.3161C324.251 58.3161 324.945 58.6133 325.473 59.2078C326.068 59.7362 326.365 60.4298 326.365 61.2884V106.864ZM323.393 51.6779C322.072 51.6779 321.048 51.3807 320.321 50.7862C319.595 50.1257 319.231 49.201 319.231 48.012V47.0213C319.231 45.8323 319.595 44.9406 320.321 44.3462C321.114 43.6857 322.171 43.3554 323.492 43.3554C326.134 43.3554 327.455 44.5774 327.455 47.0213V48.012C327.455 49.201 327.092 50.1257 326.365 50.7862C325.704 51.3807 324.714 51.6779 323.393 51.6779Z" fill="black"/>
<path d="M351.716 64.9543V98.1453C351.716 100.655 352.178 102.373 353.103 103.297C354.027 104.156 355.249 104.585 356.769 104.585C357.165 104.585 357.66 104.519 358.255 104.387C358.849 104.189 359.312 104.09 359.642 104.09C360.236 104.09 360.732 104.354 361.128 104.883C361.59 105.345 361.822 105.906 361.822 106.567C361.822 107.492 361.293 108.284 360.236 108.945C359.179 109.539 357.925 109.836 356.471 109.836C354.688 109.836 353.103 109.671 351.716 109.341C350.329 109.011 348.975 108.02 347.653 106.369C346.398 104.717 345.771 102.075 345.771 98.4425V64.9543H338.538C337.746 64.9543 337.052 64.6901 336.458 64.1617C335.929 63.6333 335.665 62.9727 335.665 62.1801C335.665 61.3875 335.929 60.727 336.458 60.1986C337.052 59.6702 337.746 59.406 338.538 59.406H345.771V48.4083C345.771 47.5497 346.035 46.8561 346.564 46.3277C347.158 45.7333 347.885 45.436 348.743 45.436C349.602 45.436 350.296 45.7333 350.824 46.3277C351.418 46.8561 351.716 47.5497 351.716 48.4083V59.406H361.623C362.35 59.406 362.977 59.7032 363.506 60.2977C364.1 60.8921 364.398 61.5526 364.398 62.2792C364.398 63.0718 364.133 63.7323 363.605 64.2608C363.077 64.7231 362.416 64.9543 361.623 64.9543H351.716Z" fill="black"/>
<path d="M398.467 58.8115C404.412 58.8115 408.837 60.694 411.743 64.4589C414.65 68.1578 416.103 72.9466 416.103 78.8252V106.864C416.103 107.723 415.806 108.449 415.211 109.044C414.683 109.572 413.989 109.836 413.131 109.836C412.272 109.836 411.545 109.572 410.951 109.044C410.422 108.449 410.158 107.723 410.158 106.864V78.8252C410.158 74.5318 409.134 71.0641 407.087 68.422C405.039 65.7139 401.836 64.3598 397.476 64.3598C394.702 64.3598 392.06 65.0203 389.55 66.3414C387.106 67.6624 385.125 69.4458 383.605 71.6916C382.086 73.8713 381.327 76.2491 381.327 78.8252V106.864C381.327 107.723 381.029 108.449 380.435 109.044C379.907 109.572 379.213 109.836 378.354 109.836C377.496 109.836 376.769 109.572 376.175 109.044C375.646 108.449 375.382 107.723 375.382 106.864V39.4914C375.382 38.6327 375.646 37.9392 376.175 37.4107C376.769 36.8163 377.496 36.519 378.354 36.519C379.213 36.519 379.907 36.8163 380.435 37.4107C381.029 37.9392 381.327 38.6327 381.327 39.4914V68.5211C383.11 65.6809 385.587 63.3691 388.758 61.5857C391.928 59.7362 395.164 58.8115 398.467 58.8115Z" fill="black"/>
<g clip-path="url(#clip0_521_368)">
<path fill-rule="evenodd" clip-rule="evenodd" d="M550.275 171.333C569.751 171.333 587.705 164.814 602.073 153.839L589.323 141.089C578.321 148.843 564.901 153.396 550.417 153.396C535.831 153.396 522.323 148.778 511.277 140.923L498.411 153.789C512.79 164.794 530.769 171.333 550.275 171.333ZM482.307 137.654L495.177 124.784C487.381 113.762 482.8 100.305 482.8 85.7786C482.8 71.2952 487.353 57.8753 495.107 46.8726L482.357 34.1225C471.382 48.4908 464.863 66.4446 464.863 85.921C464.863 105.368 471.362 123.296 482.307 137.654ZM635.687 85.921C635.687 105.397 629.168 123.351 618.193 137.719L605.491 125.018C613.389 113.953 618.035 100.409 618.035 85.7786C618.035 71.1921 613.416 57.6843 605.562 46.638L618.143 34.0569C629.148 48.4361 635.687 66.4149 635.687 85.921ZM602.008 17.9528C587.65 7.00828 569.722 0.509277 550.275 0.509277C530.799 0.509277 512.845 7.02814 498.477 18.003L511.178 30.7046C522.243 22.8072 535.787 18.161 550.417 18.161C564.944 18.161 578.401 22.742 589.422 30.5382L602.008 17.9528Z" fill="black"/>
<path d="M571.628 85.9208C571.628 97.7137 562.068 107.274 550.275 107.274C538.482 107.274 528.922 97.7137 528.922 85.9208C528.922 74.1279 538.482 64.5679 550.275 64.5679C562.068 64.5679 571.628 74.1279 571.628 85.9208Z" fill="black"/>
<path fill-rule="evenodd" clip-rule="evenodd" d="M542.953 32.9658C519.279 36.1849 500.539 54.9245 497.32 78.5985H515.253C518.175 64.7895 529.104 53.9358 542.953 51.1245V32.9658ZM584.888 78.5985C581.987 64.8843 571.187 54.085 557.473 51.1836V32.9658C581.147 36.1849 599.887 54.9245 603.106 78.5985H584.888ZM557.473 120.818C571.282 117.897 582.136 106.968 584.947 93.1185H603.106C599.887 116.793 581.147 135.532 557.473 138.751V120.818ZM515.194 93.1185C518.025 107.063 529.009 118.047 542.953 120.877V138.751C519.279 135.532 500.539 116.793 497.32 93.1185H515.194Z" fill="black"/>
</g>
<defs>
<clipPath id="clip0_521_368">
<rect width="635.748" height="170.823" fill="white" transform="translate(0.224609 0.509277)"/>
</clipPath>
</defs>
</svg>
