<svg xmlns="http://www.w3.org/2000/svg" width="638" height="172" fill="none" viewBox="0 0 638 172"><path fill="#000" d="M34.8332 56.1399C39.3907 56.1399 43.519 57.3289 47.2178 59.7067C50.9167 62.0185 53.823 65.2551 55.9367 69.4163C58.1164 73.5776 59.2062 78.3003 59.2062 83.5844C59.2062 88.8686 58.1494 93.6243 56.0358 97.8516C53.9221 102.013 51.0158 105.282 47.3169 107.66C43.6841 109.972 39.6549 111.128 35.2295 111.128C32.059 111.128 29.0536 110.501 26.2134 109.246C23.4392 107.924 21.1274 106.339 19.278 104.49V105.084C19.278 106.802 18.7165 108.255 17.5937 109.444C16.4708 110.567 15.0507 111.128 13.3333 111.128C11.616 111.128 10.1959 110.567 9.07299 109.444C7.95011 108.321 7.38867 106.868 7.38867 105.084V42.8636C7.38867 41.1462 7.95011 39.7261 9.07299 38.6032C10.1959 37.4143 11.616 36.8198 13.3333 36.8198C15.0507 36.8198 16.4708 37.4143 17.5937 38.6032C18.7165 39.7261 19.278 41.1462 19.278 42.8636V63.5708C20.8632 61.5892 23.0759 59.8719 25.9162 58.4187C28.7564 56.8995 31.7287 56.1399 34.8332 56.1399ZM33.347 100.229C37.5743 100.229 41.042 98.6442 43.7501 95.4737C46.4583 92.3033 47.8123 88.3402 47.8123 83.5844C47.8123 78.8287 46.4583 74.8986 43.7501 71.7942C41.1081 68.6237 37.6404 67.0385 33.347 67.0385C29.0536 67.0385 25.5529 68.6237 22.8448 71.7942C20.1367 74.8986 18.7826 78.8287 18.7826 83.5844C18.7826 88.3402 20.1367 92.3033 22.8448 95.4737C25.5529 98.6442 29.0536 100.229 33.347 100.229Z"/><path fill="#000" d="M108.452 57.1307C110.17 57.1307 111.59 57.7252 112.713 58.9141C113.836 60.037 114.397 61.4571 114.397 63.1744V88.3401C114.397 95.4737 112.416 101.055 108.452 105.084C104.555 109.113 98.974 111.128 91.7083 111.128C84.4426 111.128 78.8613 109.113 74.9642 105.084C71.0672 101.055 69.1186 95.4737 69.1186 88.3401V63.1744C69.1186 61.4571 69.6801 60.037 70.8029 58.9141C71.9258 57.7252 73.3459 57.1307 75.0633 57.1307C76.7806 57.1307 78.2007 57.7252 79.3236 58.9141C80.4465 60.037 81.0079 61.4571 81.0079 63.1744V88.3401C81.0079 92.3693 81.8996 95.3747 83.683 97.3562C85.4664 99.2717 88.1415 100.229 91.7083 100.229C95.3412 100.229 98.0493 99.2717 99.8327 97.3562C101.616 95.3747 102.508 92.3693 102.508 88.3401V63.1744C102.508 61.4571 103.069 60.037 104.192 58.9141C105.315 57.7252 106.735 57.1307 108.452 57.1307Z"/><path fill="#000" d="M138.464 104.093C138.464 105.811 137.903 107.264 136.78 108.453C135.657 109.576 134.237 110.137 132.52 110.137C130.802 110.137 129.382 109.576 128.259 108.453C127.137 107.264 126.575 105.811 126.575 104.093V63.1744C126.575 61.4571 127.137 60.037 128.259 58.9141C129.382 57.7252 130.802 57.1307 132.52 57.1307C134.237 57.1307 135.657 57.7252 136.78 58.9141C137.903 60.037 138.464 61.4571 138.464 63.1744V104.093ZM132.421 50.6907C130.175 50.6907 128.59 50.3274 127.665 49.6008C126.74 48.8743 126.278 47.5862 126.278 45.7368V43.8543C126.278 42.0049 126.773 40.7169 127.764 39.9903C128.755 39.2637 130.34 38.9005 132.52 38.9005C134.832 38.9005 136.45 39.2637 137.375 39.9903C138.299 40.7169 138.762 42.0049 138.762 43.8543V45.7368C138.762 47.6523 138.266 48.9733 137.275 49.6999C136.351 50.3604 134.732 50.6907 132.421 50.6907Z"/><path fill="#000" d="M163.564 104.093C163.564 105.811 162.969 107.264 161.78 108.453C160.657 109.576 159.237 110.137 157.52 110.137C155.868 110.137 154.481 109.576 153.359 108.453C152.236 107.264 151.674 105.811 151.674 104.093V42.8636C151.674 41.1462 152.236 39.7261 153.359 38.6032C154.547 37.4143 156.001 36.8198 157.718 36.8198C159.369 36.8198 160.756 37.4143 161.879 38.6032C163.002 39.7261 163.564 41.1462 163.564 42.8636V104.093Z"/><path fill="#000" d="M202.66 98.9414C203.584 98.9414 204.41 99.4038 205.137 100.329C205.929 101.187 206.326 102.343 206.326 103.796C206.326 105.58 205.335 107.099 203.353 108.354C201.438 109.543 199.258 110.137 196.814 110.137C192.719 110.137 189.251 109.279 186.411 107.561C183.637 105.778 182.25 102.046 182.25 96.3654V69.02H177.692C176.107 69.02 174.786 68.4916 173.729 67.4348C172.672 66.378 172.144 65.0569 172.144 63.4717C172.144 61.9525 172.672 60.6975 173.729 59.7067C174.786 58.6499 176.107 58.1215 177.692 58.1215H182.25V51.7805C182.25 50.0632 182.811 48.6431 183.934 47.5202C185.123 46.3313 186.576 45.7368 188.293 45.7368C189.945 45.7368 191.332 46.3313 192.455 47.5202C193.578 48.6431 194.139 50.0632 194.139 51.7805V58.1215H201.174C202.759 58.1215 204.08 58.6499 205.137 59.7067C206.193 60.7636 206.722 62.0846 206.722 63.6698C206.722 65.189 206.193 66.477 205.137 67.5339C204.08 68.5246 202.759 69.02 201.174 69.02H194.139V95.87C194.139 97.2571 194.502 98.2809 195.229 98.9414C195.955 99.5359 196.946 99.8331 198.201 99.8331C198.73 99.8331 199.456 99.701 200.381 99.4368C201.174 99.1066 201.933 98.9414 202.66 98.9414Z"/><path fill="#000" d="M306.257 58.4187C307.116 58.4187 307.809 58.6829 308.337 59.2114C308.932 59.7398 309.229 60.4663 309.229 61.3911C309.229 61.4571 309.13 61.8864 308.932 62.6791L293.674 108.255C293.344 108.849 292.914 109.345 292.386 109.741C291.858 110.071 291.296 110.203 290.702 110.137C290.107 110.137 289.579 109.972 289.116 109.642C288.654 109.312 288.291 108.849 288.027 108.255L275.047 77.7389L263.455 108.255C263.191 108.783 262.795 109.246 262.266 109.642C261.804 109.972 261.309 110.137 260.78 110.137C260.12 110.203 259.492 110.071 258.898 109.741C258.369 109.345 258.006 108.849 257.808 108.255L242.154 62.6791C241.956 62.2828 241.856 61.8534 241.856 61.3911C241.856 60.5324 242.154 59.8388 242.748 59.3104C243.343 58.716 244.069 58.4187 244.928 58.4187C245.522 58.4187 246.051 58.6169 246.513 59.0132C247.042 59.3435 247.405 59.8058 247.603 60.4003L260.78 99.9322L272.571 70.308C273.033 69.0531 273.958 68.4256 275.345 68.4256C276.666 68.4256 277.59 69.0531 278.119 70.308L290.504 99.7341L303.483 60.4003C303.879 59.0792 304.804 58.4187 306.257 58.4187Z"/><path fill="#000" d="M326.365 107.165C326.365 108.024 326.068 108.75 325.473 109.345C324.945 109.873 324.251 110.137 323.393 110.137C322.534 110.137 321.807 109.873 321.213 109.345C320.685 108.75 320.42 108.024 320.42 107.165V61.5892C320.42 60.7305 320.685 60.037 321.213 59.5086C321.807 58.9141 322.534 58.6169 323.393 58.6169C324.251 58.6169 324.945 58.9141 325.473 59.5086C326.068 60.037 326.365 60.7305 326.365 61.5892V107.165ZM323.393 51.9787C322.072 51.9787 321.048 51.6815 320.321 51.087C319.595 50.4265 319.231 49.5017 319.231 48.3128V47.322C319.231 46.1331 319.595 45.2414 320.321 44.6469C321.114 43.9864 322.171 43.6562 323.492 43.6562C326.134 43.6562 327.455 44.8781 327.455 47.322V48.3128C327.455 49.5017 327.092 50.4265 326.365 51.087C325.704 51.6815 324.714 51.9787 323.393 51.9787Z"/><path fill="#000" d="M351.716 65.2551V98.4461C351.716 100.956 352.178 102.673 353.103 103.598C354.027 104.457 355.249 104.886 356.769 104.886C357.165 104.886 357.66 104.82 358.255 104.688C358.849 104.49 359.312 104.391 359.642 104.391C360.236 104.391 360.732 104.655 361.128 105.183C361.59 105.646 361.822 106.207 361.822 106.868C361.822 107.792 361.293 108.585 360.236 109.246C359.179 109.84 357.925 110.137 356.471 110.137C354.688 110.137 353.103 109.972 351.716 109.642C350.329 109.312 348.975 108.321 347.653 106.67C346.398 105.018 345.771 102.376 345.771 98.7433V65.2551H338.538C337.746 65.2551 337.052 64.9909 336.458 64.4625C335.929 63.934 335.665 63.2735 335.665 62.4809C335.665 61.6883 335.929 61.0278 336.458 60.4994C337.052 59.9709 337.746 59.7067 338.538 59.7067H345.771V48.7091C345.771 47.8505 346.035 47.1569 346.564 46.6285C347.158 46.034 347.885 45.7368 348.743 45.7368C349.602 45.7368 350.296 46.034 350.824 46.6285C351.418 47.1569 351.716 47.8505 351.716 48.7091V59.7067H361.623C362.35 59.7067 362.977 60.004 363.506 60.5984C364.1 61.1929 364.398 61.8534 364.398 62.58C364.398 63.3726 364.133 64.0331 363.605 64.5615C363.077 65.0239 362.416 65.2551 361.623 65.2551H351.716Z"/><path fill="#000" d="M398.467 59.1123C404.412 59.1123 408.837 60.9947 411.743 64.7597C414.65 68.4586 416.103 73.2473 416.103 79.1259V107.165C416.103 108.024 415.806 108.75 415.211 109.345C414.683 109.873 413.989 110.137 413.131 110.137C412.272 110.137 411.545 109.873 410.951 109.345C410.422 108.75 410.158 108.024 410.158 107.165V79.1259C410.158 74.8326 409.134 71.3649 407.087 68.7228C405.039 66.0147 401.836 64.6606 397.476 64.6606C394.702 64.6606 392.06 65.3211 389.55 66.6422C387.106 67.9632 385.125 69.7466 383.605 71.9924C382.086 74.1721 381.327 76.5499 381.327 79.1259V107.165C381.327 108.024 381.029 108.75 380.435 109.345C379.907 109.873 379.213 110.137 378.354 110.137C377.496 110.137 376.769 109.873 376.175 109.345C375.646 108.75 375.382 108.024 375.382 107.165V39.7921C375.382 38.9335 375.646 38.2399 376.175 37.7115C376.769 37.1171 377.496 36.8198 378.354 36.8198C379.213 36.8198 379.907 37.1171 380.435 37.7115C381.029 38.2399 381.327 38.9335 381.327 39.7921V68.8219C383.11 65.9817 385.587 63.6698 388.758 61.8864C391.928 60.037 395.164 59.1123 398.467 59.1123Z"/><g clip-path="url(#clip0_521_361)"><path fill="#9B9B9B" fill-rule="evenodd" d="M550.275 171.633C569.751 171.633 587.705 165.115 602.073 154.14L589.323 141.39C578.321 149.143 564.901 153.697 550.417 153.697C535.831 153.697 522.323 149.078 511.277 141.224L498.411 154.089C512.79 165.095 530.769 171.633 550.275 171.633ZM482.307 137.954L495.177 125.084C487.381 114.063 482.8 100.606 482.8 86.0794C482.8 71.596 487.353 58.1761 495.107 47.1734L482.357 34.4233C471.382 48.7916 464.863 66.7454 464.863 86.2217C464.863 105.668 471.362 123.597 482.307 137.954ZM635.687 86.2217C635.687 105.698 629.168 123.652 618.193 138.02L605.491 125.318C613.389 114.254 618.035 100.709 618.035 86.0794C618.035 71.4929 613.416 57.9851 605.562 46.9388L618.143 34.3577C629.148 48.7369 635.687 66.7157 635.687 86.2217ZM602.008 18.2536C587.65 7.30906 569.722 0.810059 550.275 0.810059C530.799 0.810059 512.845 7.32892 498.477 18.3038L511.178 31.0054C522.243 23.108 535.787 18.4618 550.417 18.4618C564.944 18.4618 578.401 23.0428 589.422 30.839L602.008 18.2536Z" clip-rule="evenodd"/><path fill="#000" d="M571.628 86.2216C571.628 98.0145 562.068 107.574 550.275 107.574C538.482 107.574 528.922 98.0145 528.922 86.2216C528.922 74.4287 538.482 64.8687 550.275 64.8687C562.068 64.8687 571.628 74.4287 571.628 86.2216Z"/><path fill="#7B7B7B" fill-rule="evenodd" d="M542.953 33.2666C519.279 36.4857 500.539 55.2253 497.32 78.8993H515.253C518.175 65.0902 529.104 54.2366 542.953 51.4253V33.2666ZM584.888 78.8993C581.987 65.1851 571.187 54.3857 557.473 51.4844V33.2666C581.147 36.4857 599.887 55.2253 603.106 78.8993H584.888ZM557.473 121.119C571.282 118.197 582.136 107.269 584.947 93.4193H603.106C599.887 117.093 581.147 135.833 557.473 139.052V121.119ZM515.194 93.4193C518.025 107.364 529.009 118.347 542.953 121.178V139.052C519.279 135.833 500.539 117.093 497.32 93.4193H515.194Z" clip-rule="evenodd"/></g><defs><clipPath id="clip0_521_361"><rect width="635.748" height="170.823" fill="#fff" transform="translate(0.224609 0.810059)"/></clipPath></defs></svg>