<svg xmlns="http://www.w3.org/2000/svg" width="638" height="172" fill="none" viewBox="0 0 638 172"><path fill="#fff" d="M35.2433 56.1395C39.8009 56.1395 43.9291 57.3284 47.628 59.7063C51.3269 62.0181 54.2332 65.2546 56.3468 69.4158C58.5265 73.5771 59.6164 78.2998 59.6164 83.5839C59.6164 88.8681 58.5596 93.6238 56.4459 97.8511C54.3323 102.012 51.426 105.282 47.7271 107.66C44.0942 109.972 40.0651 111.128 35.6396 111.128C32.4691 111.128 29.4638 110.5 26.6236 109.245C23.8494 107.924 21.5376 106.339 19.6881 104.489V105.084C19.6881 106.801 19.1267 108.254 18.0038 109.443C16.8809 110.566 15.4608 111.128 13.7435 111.128C12.0261 111.128 10.606 110.566 9.48315 109.443C8.36027 108.32 7.79883 106.867 7.79883 105.084V42.8631C7.79883 41.1457 8.36027 39.7256 9.48315 38.6027C10.606 37.4138 12.0261 36.8193 13.7435 36.8193C15.4608 36.8193 16.8809 37.4138 18.0038 38.6027C19.1267 39.7256 19.6881 41.1457 19.6881 42.8631V63.5703C21.2734 61.5887 23.4861 59.8714 26.3263 58.4182C29.1666 56.8991 32.1389 56.1395 35.2433 56.1395ZM33.7571 100.229C37.9845 100.229 41.4522 98.6437 44.1603 95.4732C46.8684 92.3028 48.2225 88.3397 48.2225 83.5839C48.2225 78.8282 46.8684 74.8981 44.1603 71.7937C41.5182 68.6232 38.0505 67.038 33.7571 67.038C29.4638 67.038 25.963 68.6232 23.2549 71.7937C20.5468 74.8981 19.1927 78.8282 19.1927 83.5839C19.1927 88.3397 20.5468 92.3028 23.2549 95.4732C25.963 98.6437 29.4638 100.229 33.7571 100.229Z"/><path fill="#fff" d="M108.863 57.1302C110.58 57.1302 112 57.7247 113.123 58.9136C114.246 60.0365 114.807 61.4566 114.807 63.174V88.3397C114.807 95.4732 112.826 101.055 108.863 105.084C104.966 109.113 99.3842 111.128 92.1185 111.128C84.8528 111.128 79.2714 109.113 75.3744 105.084C71.4773 101.055 69.5288 95.4732 69.5288 88.3397V63.174C69.5288 61.4566 70.0902 60.0365 71.2131 58.9136C72.336 57.7247 73.7561 57.1302 75.4734 57.1302C77.1908 57.1302 78.6109 57.7247 79.7338 58.9136C80.8566 60.0365 81.4181 61.4566 81.4181 63.174V88.3397C81.4181 92.3688 82.3098 95.3742 84.0932 97.3557C85.8766 99.2712 88.5517 100.229 92.1185 100.229C95.7513 100.229 98.4594 99.2712 100.243 97.3557C102.026 95.3742 102.918 92.3688 102.918 88.3397V63.174C102.918 61.4566 103.479 60.0365 104.602 58.9136C105.725 57.7247 107.145 57.1302 108.863 57.1302Z"/><path fill="#fff" d="M138.875 104.093C138.875 105.81 138.313 107.263 137.19 108.452C136.067 109.575 134.647 110.137 132.93 110.137C131.213 110.137 129.792 109.575 128.67 108.452C127.547 107.263 126.985 105.81 126.985 104.093V63.174C126.985 61.4566 127.547 60.0365 128.67 58.9136C129.792 57.7247 131.213 57.1302 132.93 57.1302C134.647 57.1302 136.067 57.7247 137.19 58.9136C138.313 60.0365 138.875 61.4566 138.875 63.174V104.093ZM132.831 50.6902C130.585 50.6902 129 50.3269 128.075 49.6003C127.15 48.8738 126.688 47.5858 126.688 45.7363V43.8538C126.688 42.0044 127.183 40.7164 128.174 39.9898C129.165 39.2632 130.75 38.9 132.93 38.9C135.242 38.9 136.86 39.2632 137.785 39.9898C138.709 40.7164 139.172 42.0044 139.172 43.8538V45.7363C139.172 47.6518 138.676 48.9728 137.686 49.6994C136.761 50.3599 135.143 50.6902 132.831 50.6902Z"/><path fill="#fff" d="M163.974 104.093C163.974 105.81 163.379 107.263 162.19 108.452C161.067 109.575 159.647 110.137 157.93 110.137C156.279 110.137 154.892 109.575 153.769 108.452C152.646 107.263 152.084 105.81 152.084 104.093V42.8631C152.084 41.1457 152.646 39.7256 153.769 38.6027C154.958 37.4138 156.411 36.8193 158.128 36.8193C159.779 36.8193 161.166 37.4138 162.289 38.6027C163.412 39.7256 163.974 41.1457 163.974 42.8631V104.093Z"/><path fill="#fff" d="M203.07 98.941C203.995 98.941 204.82 99.4033 205.547 100.328C206.339 101.187 206.736 102.343 206.736 103.796C206.736 105.579 205.745 107.098 203.763 108.353C201.848 109.542 199.668 110.137 197.224 110.137C193.129 110.137 189.661 109.278 186.821 107.561C184.047 105.777 182.66 102.045 182.66 96.3649V69.0195H178.102C176.517 69.0195 175.196 68.4911 174.139 67.4343C173.082 66.3775 172.554 65.0564 172.554 63.4712C172.554 61.952 173.082 60.697 174.139 59.7063C175.196 58.6494 176.517 58.121 178.102 58.121H182.66V51.78C182.66 50.0627 183.221 48.6426 184.344 47.5197C185.533 46.3308 186.986 45.7363 188.704 45.7363C190.355 45.7363 191.742 46.3308 192.865 47.5197C193.988 48.6426 194.549 50.0627 194.549 51.78V58.121H201.584C203.169 58.121 204.49 58.6494 205.547 59.7063C206.604 60.7631 207.132 62.0841 207.132 63.6694C207.132 65.1885 206.604 66.4766 205.547 67.5334C204.49 68.5242 203.169 69.0195 201.584 69.0195H194.549V95.8696C194.549 97.2566 194.912 98.2804 195.639 98.941C196.366 99.5354 197.356 99.8327 198.611 99.8327C199.14 99.8327 199.866 99.7006 200.791 99.4363C201.584 99.1061 202.343 98.941 203.07 98.941Z"/><path fill="#fff" d="M306.667 58.4182C307.526 58.4182 308.219 58.6824 308.748 59.2109C309.342 59.7393 309.639 60.4658 309.639 61.3906C309.639 61.4566 309.54 61.886 309.342 62.6786L294.084 108.254C293.754 108.849 293.325 109.344 292.796 109.74C292.268 110.071 291.706 110.203 291.112 110.137C290.517 110.137 289.989 109.972 289.527 109.641C289.064 109.311 288.701 108.849 288.437 108.254L275.458 77.7384L263.866 108.254C263.601 108.783 263.205 109.245 262.677 109.641C262.214 109.972 261.719 110.137 261.19 110.137C260.53 110.203 259.902 110.071 259.308 109.74C258.78 109.344 258.416 108.849 258.218 108.254L242.564 62.6786C242.366 62.2823 242.267 61.8529 242.267 61.3906C242.267 60.5319 242.564 59.8384 243.158 59.3099C243.753 58.7155 244.479 58.4182 245.338 58.4182C245.932 58.4182 246.461 58.6164 246.923 59.0127C247.452 59.343 247.815 59.8053 248.013 60.3998L261.19 99.9317L272.981 70.3075C273.443 69.0526 274.368 68.4251 275.755 68.4251C277.076 68.4251 278.001 69.0526 278.529 70.3075L290.914 99.7336L303.893 60.3998C304.289 59.0788 305.214 58.4182 306.667 58.4182Z"/><path fill="#fff" d="M326.775 107.164C326.775 108.023 326.478 108.75 325.883 109.344C325.355 109.873 324.661 110.137 323.803 110.137C322.944 110.137 322.218 109.873 321.623 109.344C321.095 108.75 320.83 108.023 320.83 107.164V61.5887C320.83 60.7301 321.095 60.0365 321.623 59.5081C322.218 58.9136 322.944 58.6164 323.803 58.6164C324.661 58.6164 325.355 58.9136 325.883 59.5081C326.478 60.0365 326.775 60.7301 326.775 61.5887V107.164ZM323.803 51.9782C322.482 51.9782 321.458 51.681 320.731 51.0865C320.005 50.426 319.642 49.5013 319.642 48.3123V47.3216C319.642 46.1326 320.005 45.2409 320.731 44.6465C321.524 43.9859 322.581 43.6557 323.902 43.6557C326.544 43.6557 327.865 44.8776 327.865 47.3216V48.3123C327.865 49.5013 327.502 50.426 326.775 51.0865C326.115 51.681 325.124 51.9782 323.803 51.9782Z"/><path fill="#fff" d="M352.126 65.2546V98.4456C352.126 100.956 352.588 102.673 353.513 103.598C354.438 104.456 355.66 104.886 357.179 104.886C357.575 104.886 358.07 104.82 358.665 104.687C359.259 104.489 359.722 104.39 360.052 104.39C360.646 104.39 361.142 104.654 361.538 105.183C362.001 105.645 362.232 106.207 362.232 106.867C362.232 107.792 361.703 108.585 360.646 109.245C359.59 109.839 358.335 110.137 356.882 110.137C355.098 110.137 353.513 109.972 352.126 109.641C350.739 109.311 349.385 108.32 348.064 106.669C346.809 105.018 346.181 102.376 346.181 98.7428V65.2546H338.948C338.156 65.2546 337.462 64.9904 336.868 64.462C336.339 63.9336 336.075 63.273 336.075 62.4804C336.075 61.6878 336.339 61.0273 336.868 60.4989C337.462 59.9705 338.156 59.7063 338.948 59.7063H346.181V48.7086C346.181 47.85 346.445 47.1564 346.974 46.628C347.568 46.0335 348.295 45.7363 349.153 45.7363C350.012 45.7363 350.706 46.0335 351.234 46.628C351.829 47.1564 352.126 47.85 352.126 48.7086V59.7063H362.034C362.76 59.7063 363.388 60.0035 363.916 60.5979C364.51 61.1924 364.808 61.8529 364.808 62.5795C364.808 63.3721 364.544 64.0326 364.015 64.5611C363.487 65.0234 362.826 65.2546 362.034 65.2546H352.126Z"/><path fill="#fff" d="M398.877 59.1118C404.822 59.1118 409.247 60.9943 412.154 64.7592C415.06 68.4581 416.513 73.2468 416.513 79.1254V107.164C416.513 108.023 416.216 108.75 415.621 109.344C415.093 109.873 414.399 110.137 413.541 110.137C412.682 110.137 411.956 109.873 411.361 109.344C410.833 108.75 410.568 108.023 410.568 107.164V79.1254C410.568 74.8321 409.545 71.3644 407.497 68.7223C405.449 66.0142 402.246 64.6601 397.886 64.6601C395.112 64.6601 392.47 65.3206 389.96 66.6417C387.516 67.9627 385.535 69.7461 384.016 71.9919C382.496 74.1716 381.737 76.5494 381.737 79.1254V107.164C381.737 108.023 381.44 108.75 380.845 109.344C380.317 109.873 379.623 110.137 378.765 110.137C377.906 110.137 377.179 109.873 376.585 109.344C376.056 108.75 375.792 108.023 375.792 107.164V39.7917C375.792 38.933 376.056 38.2394 376.585 37.711C377.179 37.1166 377.906 36.8193 378.765 36.8193C379.623 36.8193 380.317 37.1166 380.845 37.711C381.44 38.2394 381.737 38.933 381.737 39.7917V68.8214C383.52 65.9812 385.997 63.6694 389.168 61.886C392.338 60.0365 395.575 59.1118 398.877 59.1118Z"/><g clip-path="url(#clip0_521_241)"><path fill="#9B9B9B" fill-rule="evenodd" d="M550.685 171.633C570.161 171.633 588.115 165.114 602.484 154.139L589.734 141.389C578.731 149.143 565.311 153.696 550.827 153.696C536.241 153.696 522.733 149.078 511.687 141.223L498.821 154.089C513.2 165.094 531.179 171.633 550.685 171.633ZM482.717 137.954L495.587 125.084C487.791 114.063 483.21 100.606 483.21 86.0789C483.21 71.5955 487.764 58.1756 495.517 47.1729L482.767 34.4228C471.792 48.7911 465.273 66.7449 465.273 86.2213C465.273 105.668 471.772 123.597 482.717 137.954ZM636.097 86.2213C636.097 105.698 629.578 123.651 618.603 138.02L605.902 125.318C613.799 114.253 618.445 100.709 618.445 86.0789C618.445 71.4924 613.826 57.9846 605.972 46.9383L618.553 34.3572C629.558 48.7364 636.097 66.7152 636.097 86.2213ZM602.418 18.2531C588.06 7.30857 570.132 0.80957 550.685 0.80957C531.209 0.80957 513.255 7.32843 498.887 18.3033L511.588 31.0049C522.653 23.1075 536.198 18.4613 550.827 18.4613C565.354 18.4613 578.811 23.0423 589.832 30.8385L602.418 18.2531Z" clip-rule="evenodd"/><path fill="#fff" d="M572.038 86.2211C572.038 98.014 562.478 107.574 550.685 107.574C538.892 107.574 529.332 98.014 529.332 86.2211C529.332 74.4282 538.892 64.8682 550.685 64.8682C562.478 64.8682 572.038 74.4282 572.038 86.2211Z"/><path fill="#7B7B7B" fill-rule="evenodd" d="M543.363 33.2661C519.689 36.4852 500.95 55.2248 497.73 78.8988H515.663C518.585 65.0898 529.514 54.2361 543.363 51.4248V33.2661ZM585.298 78.8988C582.397 65.1846 571.597 54.3853 557.883 51.4839V33.2661C581.557 36.4852 600.297 55.2248 603.516 78.8988H585.298ZM557.883 121.118C571.692 118.197 582.546 107.268 585.357 93.4188H603.516C600.297 117.093 581.557 135.833 557.883 139.052V121.118ZM515.604 93.4188C518.435 107.363 529.419 118.347 543.363 121.177V139.052C519.689 135.833 500.95 117.093 497.73 93.4188H515.604Z" clip-rule="evenodd"/></g><defs><clipPath id="clip0_521_241"><rect width="635.748" height="170.823" fill="#fff" transform="translate(0.634766 0.80957)"/></clipPath></defs></svg>