<svg width="296" height="69" viewBox="0 0 296 69" fill="none" xmlns="http://www.w3.org/2000/svg">
<path d="M288.738 0.0126953H6.87981C3.75824 0.0126953 0.046875 3.45895 0.046875 6.84563V61.5091C0.046875 64.8958 3.75824 68.342 6.87981 68.342H288.547C291.669 68.342 295.571 64.8958 295.571 61.5091V6.84563C295.571 3.45895 291.86 0.0126953 288.738 0.0126953Z" fill="#0080FF"/>
<path fill-rule="evenodd" clip-rule="evenodd" d="M42.7535 52.9679C47.0382 52.9679 50.988 51.5337 54.149 49.1193L51.3443 46.3146C48.9237 48.0205 45.9712 49.0223 42.7848 49.0223C39.5758 49.0223 36.6042 48.0063 34.174 46.2783L31.3438 49.1085C34.5072 51.5295 38.4623 52.9679 42.7535 52.9679ZM27.8008 45.5589L30.632 42.7277C28.9168 40.303 27.9089 37.3424 27.9089 34.1464C27.9089 30.96 28.9108 28.0076 30.6167 25.5869L27.8114 22.7817C25.397 25.9427 23.9629 29.8925 23.9629 34.1773C23.9629 38.4558 25.3928 42.4002 27.8008 45.5589ZM61.544 34.1773C61.544 38.4621 60.1098 42.412 57.6953 45.573L54.9012 42.7789C56.6386 40.3447 57.6607 37.3649 57.6607 34.1464C57.6607 30.9375 56.6446 27.9658 54.9166 25.5357L57.6847 22.7676C60.1056 25.931 61.544 29.8862 61.544 34.1773ZM54.1351 19.2246C50.9764 16.8166 47.0319 15.3867 42.7535 15.3867C38.4686 15.3867 34.5188 16.8209 31.3577 19.2354L34.1524 22.03C36.5865 20.2927 39.5663 19.2706 42.7848 19.2706C45.9808 19.2706 48.9414 20.2784 51.366 21.9937L54.1351 19.2246Z" fill="white"/>
<path d="M47.452 34.1771C47.452 36.7716 45.3488 38.8748 42.7543 38.8748C40.1599 38.8748 38.0566 36.7716 38.0566 34.1771C38.0566 31.5827 40.1599 29.4795 42.7543 29.4795C45.3488 29.4795 47.452 31.5827 47.452 34.1771Z" fill="white"/>
<path fill-rule="evenodd" clip-rule="evenodd" d="M41.1427 22.5284C35.9342 23.2367 31.8113 27.3599 31.1035 32.5686H35.0484C35.691 29.5303 38.0956 27.1423 41.1427 26.5239V22.5284ZM50.3682 32.5686C49.7301 29.5514 47.3543 27.1754 44.3371 26.537V22.5283C49.5458 23.2365 53.6688 27.3598 54.3766 32.5686H50.3682ZM44.3371 41.8565C47.3748 41.2137 49.7625 38.8096 50.381 35.763H54.3763C53.6677 40.9709 49.5451 45.0931 44.3371 45.8012V41.8565ZM35.0356 35.763C35.6585 38.8307 38.075 41.247 41.1427 41.8696V45.8012C35.9349 45.093 31.8124 40.9708 31.1038 35.763H35.0356Z" fill="white"/>
<path d="M109.394 42.8141C109.631 42.8141 109.822 42.8961 109.968 43.0601C110.132 43.2241 110.214 43.4154 110.214 43.634C110.214 43.8709 110.132 44.0622 109.968 44.208C109.822 44.3538 109.631 44.4267 109.394 44.4267H99.3629C99.126 44.4267 98.9256 44.3538 98.7616 44.208C98.6159 44.044 98.543 43.8436 98.543 43.6067V26.1144C98.543 25.8775 98.6159 25.6862 98.7616 25.5404C98.9256 25.3764 99.126 25.2944 99.3629 25.2944H109.394C109.631 25.2944 109.822 25.3764 109.968 25.5404C110.132 25.6862 110.214 25.8775 110.214 26.1144C110.214 26.3513 110.132 26.5426 109.968 26.6884C109.822 26.8341 109.631 26.907 109.394 26.907H100.265V33.7673H108.164C108.401 33.7673 108.592 33.8493 108.738 34.0133C108.902 34.159 108.984 34.3504 108.984 34.5872C108.984 34.8241 108.902 35.0154 108.738 35.1612C108.592 35.307 108.401 35.3799 108.164 35.3799H100.265V42.8141H109.394Z" fill="white"/>
<path d="M124.876 24.2012C125.113 24.2012 125.305 24.2832 125.45 24.4472C125.614 24.5929 125.696 24.7842 125.696 25.0211V43.6067C125.696 43.8436 125.614 44.044 125.45 44.208C125.305 44.3538 125.113 44.4267 124.876 44.4267C124.64 44.4267 124.439 44.3538 124.275 44.208C124.129 44.044 124.057 43.8436 124.057 43.6067V41.6935C123.601 42.5317 122.918 43.2423 122.007 43.8254C121.114 44.4084 120.121 44.7 119.027 44.7C117.825 44.7 116.732 44.3902 115.748 43.7707C114.782 43.133 114.017 42.2583 113.452 41.1468C112.887 40.0354 112.605 38.7872 112.605 37.4024C112.605 36.0358 112.887 34.7968 113.452 33.6853C114.017 32.5738 114.782 31.7083 115.748 31.0888C116.732 30.451 117.816 30.1322 119 30.1322C120.075 30.1322 121.068 30.4055 121.979 30.9521C122.89 31.4805 123.583 32.1729 124.057 33.0293V25.0211C124.057 24.7842 124.129 24.5929 124.275 24.4472C124.439 24.2832 124.64 24.2012 124.876 24.2012ZM119.191 43.1694C120.139 43.1694 120.986 42.9234 121.733 42.4314C122.499 41.9395 123.091 41.2562 123.51 40.3816C123.947 39.4887 124.166 38.4957 124.166 37.4024C124.166 36.3274 123.947 35.3525 123.51 34.4779C123.091 33.6033 122.499 32.92 121.733 32.428C120.986 31.9178 120.139 31.6627 119.191 31.6627C118.244 31.6627 117.388 31.9178 116.622 32.428C115.875 32.92 115.283 33.6033 114.846 34.4779C114.427 35.3525 114.217 36.3274 114.217 37.4024C114.217 38.4957 114.427 39.4796 114.846 40.3542C115.283 41.2288 115.875 41.9212 116.622 42.4314C117.388 42.9234 118.244 43.1694 119.191 43.1694Z" fill="white"/>
<path d="M131.561 43.6067C131.561 43.8436 131.479 44.044 131.315 44.208C131.169 44.3538 130.978 44.4267 130.741 44.4267C130.504 44.4267 130.304 44.3538 130.14 44.208C129.994 44.044 129.921 43.8436 129.921 43.6067V31.0341C129.921 30.7972 129.994 30.6059 130.14 30.4601C130.304 30.2961 130.504 30.2142 130.741 30.2142C130.978 30.2142 131.169 30.2961 131.315 30.4601C131.479 30.6059 131.561 30.7972 131.561 31.0341V43.6067ZM130.741 28.3829C130.376 28.3829 130.094 28.3009 129.894 28.1369C129.693 27.9547 129.593 27.6996 129.593 27.3717V27.0983C129.593 26.7704 129.693 26.5244 129.894 26.3604C130.112 26.1782 130.404 26.0871 130.768 26.0871C131.497 26.0871 131.861 26.4242 131.861 27.0983V27.3717C131.861 27.6996 131.761 27.9547 131.561 28.1369C131.379 28.3009 131.105 28.3829 130.741 28.3829Z" fill="white"/>
<path d="M138.554 32.0454V41.2015C138.554 41.8939 138.682 42.3677 138.937 42.6228C139.192 42.8596 139.529 42.9781 139.948 42.9781C140.057 42.9781 140.194 42.9599 140.358 42.9234C140.522 42.8687 140.65 42.8414 140.741 42.8414C140.905 42.8414 141.041 42.9143 141.151 43.0601C141.278 43.1876 141.342 43.3425 141.342 43.5247C141.342 43.7798 141.196 43.9985 140.905 44.1807C140.613 44.3447 140.267 44.4267 139.866 44.4267C139.374 44.4267 138.937 44.3811 138.554 44.29C138.171 44.1989 137.798 43.9256 137.433 43.47C137.087 43.0145 136.914 42.2857 136.914 41.2835V32.0454H134.919C134.7 32.0454 134.509 31.9725 134.345 31.8267C134.199 31.681 134.126 31.4987 134.126 31.2801C134.126 31.0614 134.199 30.8792 134.345 30.7335C134.509 30.5877 134.7 30.5148 134.919 30.5148H136.914V27.481C136.914 27.2441 136.987 27.0528 137.133 26.907C137.297 26.743 137.497 26.661 137.734 26.661C137.971 26.661 138.162 26.743 138.308 26.907C138.472 27.0528 138.554 27.2441 138.554 27.481V30.5148H141.287C141.488 30.5148 141.661 30.5968 141.807 30.7608C141.971 30.9248 142.053 31.107 142.053 31.3074C142.053 31.5261 141.98 31.7083 141.834 31.8541C141.688 31.9816 141.506 32.0454 141.287 32.0454H138.554Z" fill="white"/>
<path d="M154.141 43.6067C154.141 43.8436 154.059 44.044 153.896 44.208C153.75 44.3538 153.558 44.4267 153.322 44.4267C153.085 44.4267 152.884 44.3538 152.72 44.208C152.574 44.044 152.502 43.8436 152.502 43.6067V31.0341C152.502 30.7972 152.574 30.6059 152.72 30.4601C152.884 30.2961 153.085 30.2142 153.322 30.2142C153.558 30.2142 153.75 30.2961 153.896 30.4601C154.059 30.6059 154.141 30.7972 154.141 31.0341V43.6067ZM153.322 28.3829C152.957 28.3829 152.675 28.3009 152.474 28.1369C152.274 27.9547 152.174 27.6996 152.174 27.3717V27.0983C152.174 26.7704 152.274 26.5244 152.474 26.3604C152.693 26.1782 152.984 26.0871 153.349 26.0871C154.078 26.0871 154.442 26.4242 154.442 27.0983V27.3717C154.442 27.6996 154.342 27.9547 154.141 28.1369C153.959 28.3009 153.686 28.3829 153.322 28.3829Z" fill="white"/>
<path d="M164.989 30.1322C166.683 30.1322 167.922 30.6332 168.706 31.6354C169.507 32.6193 169.908 33.9313 169.908 35.5712V43.6067C169.908 43.8436 169.826 44.044 169.662 44.208C169.498 44.3538 169.307 44.4267 169.088 44.4267C168.851 44.4267 168.651 44.3538 168.487 44.208C168.341 44.044 168.268 43.8436 168.268 43.6067V35.6532C168.268 34.4688 167.968 33.5122 167.366 32.7833C166.783 32.0363 165.872 31.6627 164.633 31.6627C163.85 31.6627 163.103 31.8449 162.392 32.2094C161.7 32.5738 161.135 33.0658 160.697 33.6853C160.26 34.2866 160.042 34.9425 160.042 35.6532V43.6067C160.042 43.8436 159.96 44.044 159.796 44.208C159.65 44.3538 159.458 44.4267 159.222 44.4267C158.985 44.4267 158.784 44.3538 158.62 44.208C158.474 44.044 158.402 43.8436 158.402 43.6067V31.3621C158.402 31.1252 158.474 30.9339 158.62 30.7881C158.784 30.6241 158.985 30.5421 159.222 30.5421C159.458 30.5421 159.65 30.6241 159.796 30.7881C159.96 30.9339 160.042 31.1252 160.042 31.3621V32.8653C160.533 32.0818 161.235 31.435 162.146 30.9248C163.075 30.3964 164.023 30.1322 164.989 30.1322Z" fill="white"/>
<path d="M189.111 29.5309C190.969 29.5309 192.254 30.0866 192.964 31.1981C193.675 32.2914 194.03 33.8128 194.03 35.7625V42.7594C194.03 43.2332 193.875 43.634 193.566 43.962C193.256 44.2718 192.864 44.4267 192.39 44.4267C191.917 44.4267 191.525 44.2718 191.215 43.962C190.905 43.634 190.75 43.2332 190.75 42.7594V35.7625C190.75 34.7603 190.541 33.9768 190.122 33.412C189.703 32.8289 188.983 32.5374 187.963 32.5374C186.906 32.5374 186.077 32.8471 185.475 33.4666C184.874 34.0679 184.573 34.8332 184.573 35.7625V42.7594C184.573 43.2332 184.419 43.634 184.109 43.962C183.799 44.2718 183.407 44.4267 182.934 44.4267C182.46 44.4267 182.068 44.2718 181.758 43.962C181.449 43.634 181.294 43.2332 181.294 42.7594V31.4714C181.294 30.9977 181.449 30.6059 181.758 30.2961C182.068 29.9682 182.46 29.8042 182.934 29.8042C183.407 29.8042 183.799 29.9682 184.109 30.2961C184.419 30.6059 184.573 30.9977 184.573 31.4714V31.9361C185.065 31.2801 185.703 30.7152 186.487 30.2415C187.288 29.7677 188.163 29.5309 189.111 29.5309Z" fill="white"/>
<path d="M210.694 36.7738C210.676 37.2111 210.503 37.5664 210.175 37.8397C209.847 38.113 209.465 38.2497 209.027 38.2497H200.008C200.226 39.3247 200.728 40.172 201.511 40.7915C202.295 41.3928 203.178 41.6935 204.162 41.6935C204.909 41.6935 205.492 41.6297 205.911 41.5022C206.331 41.3564 206.658 41.2106 206.895 41.0649C207.15 40.9009 207.324 40.7915 207.415 40.7369C207.743 40.5729 208.052 40.4909 208.344 40.4909C208.727 40.4909 209.055 40.6275 209.328 40.9009C209.601 41.1742 209.738 41.4931 209.738 41.8575C209.738 42.3494 209.483 42.7959 208.973 43.1967C208.462 43.6158 207.779 43.9711 206.923 44.2627C206.066 44.5542 205.201 44.7 204.326 44.7C202.796 44.7 201.456 44.3811 200.308 43.7434C199.179 43.1056 198.304 42.231 197.685 41.1195C197.065 39.9898 196.755 38.7234 196.755 37.3204C196.755 35.7534 197.083 34.3777 197.739 33.1933C198.395 32.0089 199.261 31.107 200.336 30.4875C201.411 29.8497 202.559 29.5309 203.78 29.5309C204.982 29.5309 206.112 29.8588 207.169 30.5148C208.244 31.1708 209.1 32.0545 209.738 33.166C210.376 34.2775 210.694 35.4801 210.694 36.7738ZM203.78 32.5374C201.666 32.5374 200.418 33.5304 200.035 35.5165H207.196V35.3252C207.123 34.5599 206.75 33.9039 206.075 33.3573C205.401 32.8107 204.636 32.5374 203.78 32.5374Z" fill="white"/>
<path d="M220.481 41.3382C220.736 41.3382 220.964 41.4657 221.165 41.7208C221.383 41.9577 221.493 42.2766 221.493 42.6774C221.493 43.1694 221.219 43.5885 220.673 43.9347C220.144 44.2627 219.543 44.4267 218.869 44.4267C217.739 44.4267 216.782 44.1898 215.999 43.716C215.234 43.2241 214.851 42.1946 214.851 40.6275V33.084H213.594C213.156 33.084 212.792 32.9382 212.501 32.6467C212.209 32.3551 212.063 31.9907 212.063 31.5534C212.063 31.1343 212.209 30.7881 212.501 30.5148C212.792 30.2233 213.156 30.0775 213.594 30.0775H214.851V28.3283C214.851 27.8545 215.006 27.4628 215.316 27.153C215.644 26.825 216.045 26.661 216.518 26.661C216.974 26.661 217.356 26.825 217.666 27.153C217.976 27.4628 218.131 27.8545 218.131 28.3283V30.0775H220.071C220.509 30.0775 220.873 30.2233 221.165 30.5148C221.456 30.8063 221.602 31.1708 221.602 31.6081C221.602 32.0272 221.456 32.3825 221.165 32.674C220.873 32.9473 220.509 33.084 220.071 33.084H218.131V40.4909C218.131 40.8735 218.231 41.156 218.431 41.3382C218.632 41.5022 218.905 41.5842 219.251 41.5842C219.397 41.5842 219.598 41.5477 219.853 41.4748C220.071 41.3837 220.281 41.3382 220.481 41.3382Z" fill="white"/>
<path d="M233.934 41.4202C234.371 41.4202 234.735 41.5659 235.027 41.8575C235.318 42.1308 235.464 42.4861 235.464 42.9234C235.464 43.3425 235.318 43.6978 235.027 43.9893C234.735 44.2809 234.371 44.4267 233.934 44.4267H225.133C224.714 44.4267 224.358 44.2809 224.067 43.9893C223.793 43.6796 223.657 43.3516 223.657 43.0054C223.657 42.6956 223.693 42.4406 223.766 42.2401C223.839 42.0215 223.976 41.7755 224.176 41.5022L230.681 33.084H225.379C224.941 33.084 224.577 32.9382 224.285 32.6467C223.994 32.3551 223.848 31.9907 223.848 31.5534C223.848 31.1343 223.994 30.7881 224.285 30.5148C224.577 30.2233 224.941 30.0775 225.379 30.0775H233.797C234.198 30.0775 234.535 30.2233 234.808 30.5148C235.1 30.7881 235.245 31.1343 235.245 31.5534C235.245 31.8267 235.218 32.0636 235.163 32.264C235.109 32.4462 234.981 32.6649 234.781 32.92L228.221 41.4202H233.934Z" fill="white"/>
<path d="M251.634 37.1291C251.634 38.5868 251.306 39.8987 250.65 41.0649C249.994 42.2128 249.092 43.1056 247.944 43.7434C246.814 44.3811 245.566 44.7 244.2 44.7C242.815 44.7 241.557 44.3811 240.428 43.7434C239.298 43.1056 238.405 42.2128 237.749 41.0649C237.093 39.8987 236.765 38.5868 236.765 37.1291C236.765 35.6714 237.093 34.3686 237.749 33.2206C238.405 32.0545 239.298 31.1525 240.428 30.5148C241.557 29.8588 242.815 29.5309 244.2 29.5309C245.566 29.5309 246.814 29.8588 247.944 30.5148C249.092 31.1525 249.994 32.0545 250.65 33.2206C251.306 34.3686 251.634 35.6714 251.634 37.1291ZM248.354 37.1291C248.354 36.2362 248.163 35.4436 247.78 34.7512C247.416 34.0406 246.915 33.494 246.277 33.1113C245.657 32.7287 244.965 32.5374 244.2 32.5374C243.434 32.5374 242.733 32.7287 242.095 33.1113C241.475 33.494 240.974 34.0406 240.592 34.7512C240.227 35.4436 240.045 36.2362 240.045 37.1291C240.045 38.0219 240.227 38.8145 240.592 39.5069C240.974 40.1993 241.475 40.7369 242.095 41.1195C242.733 41.5022 243.434 41.6935 244.2 41.6935C244.965 41.6935 245.657 41.5022 246.277 41.1195C246.915 40.7369 247.416 40.1993 247.78 39.5069C248.163 38.8145 248.354 38.0219 248.354 37.1291Z" fill="white"/>
</svg>
