<svg xmlns="http://www.w3.org/2000/svg" width="296" height="69" fill="none" viewBox="0 0 296 69"><path fill="#0080FF" d="M289.149 0.0126953H7.28997C4.16839 0.0126953 0.457031 3.45895 0.457031 6.84563V61.5091C0.457031 64.8958 4.16839 68.342 7.28997 68.342H288.958C292.079 68.342 295.981 64.8958 295.981 61.5091V6.84563C295.981 3.45895 292.27 0.0126953 289.149 0.0126953Z"/><path fill="#fff" fill-rule="evenodd" d="M43.1636 52.9679C47.4484 52.9679 51.3982 51.5337 54.5592 49.1193L51.7545 46.3146C49.3338 48.0205 46.3814 49.0223 43.1949 49.0223C39.986 49.0223 37.0144 48.0063 34.5842 46.2783L31.754 49.1085C34.9173 51.5295 38.8725 52.9679 43.1636 52.9679ZM28.211 45.5589L31.0422 42.7277C29.3269 40.303 28.3191 37.3424 28.3191 34.1464C28.3191 30.96 29.3209 28.0076 31.0268 25.5869L28.2216 22.7817C25.8072 25.9427 24.373 29.8925 24.373 34.1773C24.373 38.4558 25.803 42.4002 28.211 45.5589ZM61.9542 34.1773C61.9542 38.4621 60.52 42.412 58.1055 45.573L55.3114 42.7789C57.0487 40.3447 58.0708 37.3649 58.0708 34.1464C58.0708 30.9375 57.0548 27.9658 55.3268 25.5357L58.0948 22.7676C60.5158 25.931 61.9542 29.8862 61.9542 34.1773ZM54.5452 19.2246C51.3866 16.8166 47.4421 15.3867 43.1636 15.3867C38.8788 15.3867 34.9289 16.8209 31.7679 19.2354L34.5625 22.03C36.9967 20.2927 39.9764 19.2706 43.1949 19.2706C46.3909 19.2706 49.3515 20.2784 51.7762 21.9937L54.5452 19.2246Z" clip-rule="evenodd"/><path fill="#fff" d="M47.8621 34.1771C47.8621 36.7716 45.7589 38.8748 43.1645 38.8748C40.57 38.8748 38.4668 36.7716 38.4668 34.1771C38.4668 31.5827 40.57 29.4795 43.1645 29.4795C45.7589 29.4795 47.8621 31.5827 47.8621 34.1771Z"/><path fill="#fff" fill-rule="evenodd" d="M41.5529 22.5284C36.3443 23.2367 32.2215 27.3599 31.5137 32.5686H35.4586C36.1012 29.5303 38.5058 27.1423 41.5529 26.5239V22.5284ZM50.7784 32.5686C50.1402 29.5514 47.7644 27.1754 44.7473 26.537V22.5283C49.956 23.2365 54.0789 27.3598 54.7867 32.5686H50.7784ZM44.7473 41.8565C47.785 41.2137 50.1726 38.8096 50.7912 35.763H54.7864C54.0778 40.9709 49.9553 45.0931 44.7473 45.8012V41.8565ZM35.4458 35.763C36.0686 38.8307 38.4851 41.247 41.5529 41.8696V45.8012C36.345 45.093 32.2226 40.9708 31.514 35.763H35.4458Z" clip-rule="evenodd"/><path fill="#fff" d="M109.804 42.8141C110.041 42.8141 110.232 42.8961 110.378 43.0601C110.542 43.2241 110.624 43.4154 110.624 43.634C110.624 43.8709 110.542 44.0622 110.378 44.208C110.232 44.3538 110.041 44.4267 109.804 44.4267H99.7731C99.5362 44.4267 99.3358 44.3538 99.1718 44.208C99.026 44.044 98.9531 43.8436 98.9531 43.6067V26.1144C98.9531 25.8775 99.026 25.6862 99.1718 25.5404C99.3358 25.3764 99.5362 25.2944 99.7731 25.2944H109.804C110.041 25.2944 110.232 25.3764 110.378 25.5404C110.542 25.6862 110.624 25.8775 110.624 26.1144C110.624 26.3513 110.542 26.5426 110.378 26.6884C110.232 26.8341 110.041 26.907 109.804 26.907H100.675V33.7673H108.574C108.811 33.7673 109.002 33.8493 109.148 34.0133C109.312 34.159 109.394 34.3504 109.394 34.5872C109.394 34.8241 109.312 35.0154 109.148 35.1612C109.002 35.307 108.811 35.3799 108.574 35.3799H100.675V42.8141H109.804Z"/><path fill="#fff" d="M125.287 24.2012C125.523 24.2012 125.715 24.2832 125.861 24.4472C126.025 24.5929 126.107 24.7842 126.107 25.0211V43.6067C126.107 43.8436 126.025 44.044 125.861 44.208C125.715 44.3538 125.523 44.4267 125.287 44.4267C125.05 44.4267 124.849 44.3538 124.685 44.208C124.54 44.044 124.467 43.8436 124.467 43.6067V41.6935C124.011 42.5317 123.328 43.2423 122.417 43.8254C121.524 44.4084 120.531 44.7 119.438 44.7C118.235 44.7 117.142 44.3902 116.158 43.7707C115.192 43.133 114.427 42.2583 113.862 41.1468C113.297 40.0354 113.015 38.7872 113.015 37.4024C113.015 36.0358 113.297 34.7968 113.862 33.6853C114.427 32.5738 115.192 31.7083 116.158 31.0888C117.142 30.451 118.226 30.1322 119.41 30.1322C120.485 30.1322 121.478 30.4055 122.389 30.9521C123.301 31.4805 123.993 32.1729 124.467 33.0293V25.0211C124.467 24.7842 124.54 24.5929 124.685 24.4472C124.849 24.2832 125.05 24.2012 125.287 24.2012ZM119.602 43.1694C120.549 43.1694 121.396 42.9234 122.143 42.4314C122.909 41.9395 123.501 41.2562 123.92 40.3816C124.357 39.4887 124.576 38.4957 124.576 37.4024C124.576 36.3274 124.357 35.3525 123.92 34.4779C123.501 33.6033 122.909 32.92 122.143 32.428C121.396 31.9178 120.549 31.6627 119.602 31.6627C118.654 31.6627 117.798 31.9178 117.032 32.428C116.285 32.92 115.693 33.6033 115.256 34.4779C114.837 35.3525 114.627 36.3274 114.627 37.4024C114.627 38.4957 114.837 39.4796 115.256 40.3542C115.693 41.2288 116.285 41.9212 117.032 42.4314C117.798 42.9234 118.654 43.1694 119.602 43.1694Z"/><path fill="#fff" d="M131.971 43.6067C131.971 43.8436 131.889 44.044 131.725 44.208C131.579 44.3538 131.388 44.4267 131.151 44.4267C130.914 44.4267 130.714 44.3538 130.55 44.208C130.404 44.044 130.331 43.8436 130.331 43.6067V31.0341C130.331 30.7972 130.404 30.6059 130.55 30.4601C130.714 30.2961 130.914 30.2142 131.151 30.2142C131.388 30.2142 131.579 30.2961 131.725 30.4601C131.889 30.6059 131.971 30.7972 131.971 31.0341V43.6067ZM131.151 28.3829C130.787 28.3829 130.504 28.3009 130.304 28.1369C130.103 27.9547 130.003 27.6996 130.003 27.3717V27.0983C130.003 26.7704 130.103 26.5244 130.304 26.3604C130.522 26.1782 130.814 26.0871 131.178 26.0871C131.907 26.0871 132.272 26.4242 132.272 27.0983V27.3717C132.272 27.6996 132.171 27.9547 131.971 28.1369C131.789 28.3009 131.515 28.3829 131.151 28.3829Z"/><path fill="#fff" d="M138.964 32.0454V41.2015C138.964 41.8939 139.092 42.3677 139.347 42.6228C139.602 42.8596 139.939 42.9781 140.358 42.9781C140.467 42.9781 140.604 42.9599 140.768 42.9234C140.932 42.8687 141.06 42.8414 141.151 42.8414C141.315 42.8414 141.451 42.9143 141.561 43.0601C141.688 43.1876 141.752 43.3425 141.752 43.5247C141.752 43.7798 141.606 43.9985 141.315 44.1807C141.023 44.3447 140.677 44.4267 140.276 44.4267C139.784 44.4267 139.347 44.3811 138.964 44.29C138.582 44.1989 138.208 43.9256 137.844 43.47C137.497 43.0145 137.324 42.2857 137.324 41.2835V32.0454H135.329C135.11 32.0454 134.919 31.9725 134.755 31.8267C134.609 31.681 134.536 31.4987 134.536 31.2801C134.536 31.0614 134.609 30.8792 134.755 30.7335C134.919 30.5877 135.11 30.5148 135.329 30.5148H137.324V27.481C137.324 27.2441 137.397 27.0528 137.543 26.907C137.707 26.743 137.907 26.661 138.144 26.661C138.381 26.661 138.572 26.743 138.718 26.907C138.882 27.0528 138.964 27.2441 138.964 27.481V30.5148H141.697C141.898 30.5148 142.071 30.5968 142.217 30.7608C142.381 30.9248 142.463 31.107 142.463 31.3074C142.463 31.5261 142.39 31.7083 142.244 31.8541C142.098 31.9816 141.916 32.0454 141.697 32.0454H138.964Z"/><path fill="#fff" d="M154.552 43.6067C154.552 43.8436 154.47 44.044 154.306 44.208C154.16 44.3538 153.969 44.4267 153.732 44.4267C153.495 44.4267 153.294 44.3538 153.13 44.208C152.985 44.044 152.912 43.8436 152.912 43.6067V31.0341C152.912 30.7972 152.985 30.6059 153.13 30.4601C153.294 30.2961 153.495 30.2142 153.732 30.2142C153.969 30.2142 154.16 30.2961 154.306 30.4601C154.47 30.6059 154.552 30.7972 154.552 31.0341V43.6067ZM153.732 28.3829C153.367 28.3829 153.085 28.3009 152.884 28.1369C152.684 27.9547 152.584 27.6996 152.584 27.3717V27.0983C152.584 26.7704 152.684 26.5244 152.884 26.3604C153.103 26.1782 153.395 26.0871 153.759 26.0871C154.488 26.0871 154.852 26.4242 154.852 27.0983V27.3717C154.852 27.6996 154.752 27.9547 154.552 28.1369C154.369 28.3009 154.096 28.3829 153.732 28.3829Z"/><path fill="#fff" d="M165.399 30.1322C167.093 30.1322 168.332 30.6332 169.116 31.6354C169.918 32.6193 170.318 33.9313 170.318 35.5712V43.6067C170.318 43.8436 170.236 44.044 170.072 44.208C169.908 44.3538 169.717 44.4267 169.498 44.4267C169.262 44.4267 169.061 44.3538 168.897 44.208C168.751 44.044 168.679 43.8436 168.679 43.6067V35.6532C168.679 34.4688 168.378 33.5122 167.777 32.7833C167.194 32.0363 166.282 31.6627 165.043 31.6627C164.26 31.6627 163.513 31.8449 162.802 32.2094C162.11 32.5738 161.545 33.0658 161.108 33.6853C160.67 34.2866 160.452 34.9425 160.452 35.6532V43.6067C160.452 43.8436 160.37 44.044 160.206 44.208C160.06 44.3538 159.869 44.4267 159.632 44.4267C159.395 44.4267 159.194 44.3538 159.03 44.208C158.885 44.044 158.812 43.8436 158.812 43.6067V31.3621C158.812 31.1252 158.885 30.9339 159.03 30.7881C159.194 30.6241 159.395 30.5421 159.632 30.5421C159.869 30.5421 160.06 30.6241 160.206 30.7881C160.37 30.9339 160.452 31.1252 160.452 31.3621V32.8653C160.944 32.0818 161.645 31.435 162.556 30.9248C163.485 30.3964 164.433 30.1322 165.399 30.1322Z"/><path fill="#fff" d="M189.521 29.5309C191.379 29.5309 192.664 30.0866 193.374 31.1981C194.085 32.2914 194.44 33.8128 194.44 35.7625V42.7594C194.44 43.2332 194.286 43.634 193.976 43.962C193.666 44.2718 193.274 44.4267 192.8 44.4267C192.327 44.4267 191.935 44.2718 191.625 43.962C191.315 43.634 191.161 43.2332 191.161 42.7594V35.7625C191.161 34.7603 190.951 33.9768 190.532 33.412C190.113 32.8289 189.393 32.5374 188.373 32.5374C187.316 32.5374 186.487 32.8471 185.886 33.4666C185.284 34.0679 184.984 34.8332 184.984 35.7625V42.7594C184.984 43.2332 184.829 43.634 184.519 43.962C184.209 44.2718 183.817 44.4267 183.344 44.4267C182.87 44.4267 182.478 44.2718 182.168 43.962C181.859 43.634 181.704 43.2332 181.704 42.7594V31.4714C181.704 30.9977 181.859 30.6059 182.168 30.2961C182.478 29.9682 182.87 29.8042 183.344 29.8042C183.817 29.8042 184.209 29.9682 184.519 30.2961C184.829 30.6059 184.984 30.9977 184.984 31.4714V31.9361C185.476 31.2801 186.113 30.7152 186.897 30.2415C187.699 29.7677 188.573 29.5309 189.521 29.5309Z"/><path fill="#fff" d="M211.105 36.7738C211.086 37.2111 210.913 37.5664 210.585 37.8397C210.257 38.113 209.875 38.2497 209.437 38.2497H200.418C200.637 39.3247 201.138 40.172 201.921 40.7915C202.705 41.3928 203.588 41.6935 204.572 41.6935C205.319 41.6935 205.902 41.6297 206.322 41.5022C206.741 41.3564 207.069 41.2106 207.306 41.0649C207.561 40.9009 207.734 40.7915 207.825 40.7369C208.153 40.5729 208.463 40.4909 208.754 40.4909C209.137 40.4909 209.465 40.6275 209.738 40.9009C210.011 41.1742 210.148 41.4931 210.148 41.8575C210.148 42.3494 209.893 42.7959 209.383 43.1967C208.873 43.6158 208.189 43.9711 207.333 44.2627C206.476 44.5542 205.611 44.7 204.736 44.7C203.206 44.7 201.867 44.3811 200.719 43.7434C199.589 43.1056 198.714 42.231 198.095 41.1195C197.475 39.9898 197.165 38.7234 197.165 37.3204C197.165 35.7534 197.493 34.3777 198.149 33.1933C198.805 32.0089 199.671 31.107 200.746 30.4875C201.821 29.8497 202.969 29.5309 204.19 29.5309C205.392 29.5309 206.522 29.8588 207.579 30.5148C208.654 31.1708 209.51 32.0545 210.148 33.166C210.786 34.2775 211.105 35.4801 211.105 36.7738ZM204.19 32.5374C202.076 32.5374 200.828 33.5304 200.445 35.5165H207.606V35.3252C207.533 34.5599 207.16 33.9039 206.486 33.3573C205.811 32.8107 205.046 32.5374 204.19 32.5374Z"/><path fill="#fff" d="M220.892 41.3382C221.147 41.3382 221.374 41.4657 221.575 41.7208C221.793 41.9577 221.903 42.2766 221.903 42.6774C221.903 43.1694 221.629 43.5885 221.083 43.9347C220.554 44.2627 219.953 44.4267 219.279 44.4267C218.149 44.4267 217.193 44.1898 216.409 43.716C215.644 43.2241 215.261 42.1946 215.261 40.6275V33.084H214.004C213.567 33.084 213.202 32.9382 212.911 32.6467C212.619 32.3551 212.473 31.9907 212.473 31.5534C212.473 31.1343 212.619 30.7881 212.911 30.5148C213.202 30.2233 213.567 30.0775 214.004 30.0775H215.261V28.3283C215.261 27.8545 215.416 27.4628 215.726 27.153C216.054 26.825 216.455 26.661 216.928 26.661C217.384 26.661 217.767 26.825 218.076 27.153C218.386 27.4628 218.541 27.8545 218.541 28.3283V30.0775H220.482C220.919 30.0775 221.283 30.2233 221.575 30.5148C221.866 30.8063 222.012 31.1708 222.012 31.6081C222.012 32.0272 221.866 32.3825 221.575 32.674C221.283 32.9473 220.919 33.084 220.482 33.084H218.541V40.4909C218.541 40.8735 218.641 41.156 218.842 41.3382C219.042 41.5022 219.315 41.5842 219.662 41.5842C219.807 41.5842 220.008 41.5477 220.263 41.4748C220.482 41.3837 220.691 41.3382 220.892 41.3382Z"/><path fill="#fff" d="M234.344 41.4202C234.781 41.4202 235.145 41.5659 235.437 41.8575C235.728 42.1308 235.874 42.4861 235.874 42.9234C235.874 43.3425 235.728 43.6978 235.437 43.9893C235.145 44.2809 234.781 44.4267 234.344 44.4267H225.543C225.124 44.4267 224.768 44.2809 224.477 43.9893C224.204 43.6796 224.067 43.3516 224.067 43.0054C224.067 42.6956 224.103 42.4406 224.176 42.2401C224.249 42.0215 224.386 41.7755 224.586 41.5022L231.091 33.084H225.789C225.352 33.084 224.987 32.9382 224.696 32.6467C224.404 32.3551 224.258 31.9907 224.258 31.5534C224.258 31.1343 224.404 30.7881 224.696 30.5148C224.987 30.2233 225.352 30.0775 225.789 30.0775H234.207C234.608 30.0775 234.945 30.2233 235.218 30.5148C235.51 30.7881 235.656 31.1343 235.656 31.5534C235.656 31.8267 235.628 32.0636 235.574 32.264C235.519 32.4462 235.391 32.6649 235.191 32.92L228.631 41.4202H234.344Z"/><path fill="#fff" d="M252.044 37.1291C252.044 38.5868 251.716 39.8987 251.06 41.0649C250.404 42.2128 249.502 43.1056 248.354 43.7434C247.224 44.3811 245.976 44.7 244.61 44.7C243.225 44.7 241.968 44.3811 240.838 43.7434C239.708 43.1056 238.815 42.2128 238.159 41.0649C237.503 39.8987 237.175 38.5868 237.175 37.1291C237.175 35.6714 237.503 34.3686 238.159 33.2206C238.815 32.0545 239.708 31.1525 240.838 30.5148C241.968 29.8588 243.225 29.5309 244.61 29.5309C245.976 29.5309 247.224 29.8588 248.354 30.5148C249.502 31.1525 250.404 32.0545 251.06 33.2206C251.716 34.3686 252.044 35.6714 252.044 37.1291ZM248.764 37.1291C248.764 36.2362 248.573 35.4436 248.19 34.7512C247.826 34.0406 247.325 33.494 246.687 33.1113C246.067 32.7287 245.375 32.5374 244.61 32.5374C243.844 32.5374 243.143 32.7287 242.505 33.1113C241.886 33.494 241.385 34.0406 241.002 34.7512C240.638 35.4436 240.455 36.2362 240.455 37.1291C240.455 38.0219 240.638 38.8145 241.002 39.5069C241.385 40.1993 241.886 40.7369 242.505 41.1195C243.143 41.5022 243.844 41.6935 244.61 41.6935C245.375 41.6935 246.067 41.5022 246.687 41.1195C247.325 40.7369 247.826 40.1993 248.19 39.5069C248.573 38.8145 248.764 38.0219 248.764 37.1291Z"/></svg>