<svg xmlns="http://www.w3.org/2000/svg" width="460" height="172" fill="none" viewBox="0 0 460 172"><path fill="#fff" d="M232.231 59.9614C244.12 59.9614 250.065 67.095 250.065 81.3622V108.311C250.065 109.632 249.603 110.755 248.678 111.68C247.819 112.605 246.696 113.067 245.309 113.067C243.988 113.067 242.865 112.605 241.941 111.68C241.082 110.755 240.653 109.632 240.653 108.311V81.4612C240.653 77.5642 239.761 74.4598 237.978 72.1479C236.194 69.8361 233.288 68.6802 229.259 68.6802C226.617 68.6802 224.206 69.2747 222.026 70.4636C219.912 71.5865 218.228 73.1387 216.973 75.1203C215.784 77.0358 215.19 79.1494 215.19 81.4612V108.311C215.19 109.632 214.727 110.755 213.803 111.68C212.944 112.605 211.821 113.067 210.434 113.067C209.047 113.067 207.924 112.638 207.065 111.779C206.207 110.854 205.777 109.698 205.777 108.311V65.9061C205.777 64.585 206.207 63.4621 207.065 62.5374C207.99 61.6127 209.113 61.1503 210.434 61.1503C211.821 61.1503 212.944 61.6127 213.803 62.5374C214.727 63.4621 215.19 64.585 215.19 65.9061V69.3738C216.907 66.7317 219.285 64.519 222.323 62.7356C225.428 60.8861 228.73 59.9614 232.231 59.9614Z"/><path fill="#fff" d="M309.697 85.1271C309.631 86.316 309.135 87.3398 308.21 88.1985C307.286 88.9911 306.196 89.3874 304.941 89.3874H270.066C270.528 94.2092 272.344 98.0732 275.515 100.98C278.751 103.886 282.681 105.339 287.305 105.339C290.475 105.339 293.052 104.877 295.033 103.952C297.015 103.027 298.765 101.838 300.284 100.385C301.275 99.7906 302.233 99.4934 303.157 99.4934C304.28 99.4934 305.205 99.8897 305.932 100.682C306.724 101.475 307.121 102.4 307.121 103.456C307.121 104.844 306.46 106.099 305.139 107.221C303.223 109.137 300.68 110.755 297.51 112.076C294.34 113.397 291.103 114.058 287.8 114.058C282.45 114.058 277.728 112.935 273.632 110.689C269.603 108.443 266.466 105.306 264.22 101.277C262.04 97.2476 260.95 92.69 260.95 87.6041C260.95 82.0557 262.073 77.2009 264.319 73.0396C266.631 68.8123 269.636 65.5758 273.335 63.33C277.1 61.0843 281.129 59.9614 285.423 59.9614C289.65 59.9614 293.613 61.0513 297.312 63.231C301.011 65.4107 303.983 68.416 306.229 72.247C308.475 76.078 309.631 80.3714 309.697 85.1271ZM285.423 68.6802C281.724 68.6802 278.52 69.7371 275.812 71.8507C273.104 73.8983 271.321 77.1018 270.462 81.4612H299.69V80.6686C299.359 77.1679 297.774 74.2946 294.934 72.0489C292.16 69.8031 288.989 68.6802 285.423 68.6802Z"/><path fill="#fff" d="M334.695 70.3646V99.8897C334.695 103.192 336.181 104.844 339.154 104.844C339.616 104.844 340.243 104.744 341.036 104.546C341.829 104.282 342.456 104.15 342.918 104.15C343.777 104.15 344.504 104.513 345.098 105.24C345.693 105.966 345.99 106.891 345.99 108.014C345.99 109.401 345.197 110.59 343.612 111.581C342.027 112.572 340.243 113.067 338.262 113.067C336.082 113.067 334.068 112.836 332.218 112.373C330.435 111.911 328.816 110.755 327.363 108.906C325.976 106.99 325.283 104.117 325.283 100.286V70.3646H319.536C318.281 70.3646 317.224 69.9682 316.366 69.1756C315.573 68.317 315.177 67.2601 315.177 66.0051C315.177 64.7502 315.573 63.7264 316.366 62.9337C317.224 62.1411 318.281 61.7448 319.536 61.7448H325.283V53.4223C325.283 52.1013 325.712 50.9784 326.571 50.0537C327.495 49.1289 328.651 48.6666 330.038 48.6666C331.359 48.6666 332.449 49.1289 333.308 50.0537C334.233 50.9784 334.695 52.1013 334.695 53.4223V61.7448H342.918C344.173 61.7448 345.197 62.1741 345.99 63.0328C346.849 63.8254 347.278 64.8492 347.278 66.1042C347.278 67.3592 346.849 68.383 345.99 69.1756C345.197 69.9682 344.173 70.3646 342.918 70.3646H334.695Z"/><path fill="#fff" d="M391.158 104.348C392.413 104.348 393.469 104.777 394.328 105.636C395.187 106.429 395.616 107.453 395.616 108.708C395.616 109.963 395.187 111.019 394.328 111.878C393.469 112.671 392.413 113.067 391.158 113.067H359.156C357.901 113.067 356.844 112.605 355.985 111.68C355.193 110.755 354.796 109.797 354.796 108.807C354.862 107.948 354.994 107.254 355.192 106.726C355.391 106.132 355.754 105.471 356.282 104.744L382.241 70.0673H360.741C359.486 70.0673 358.429 69.638 357.57 68.7793C356.712 67.9206 356.282 66.8638 356.282 65.6088C356.282 64.3538 356.679 63.33 357.471 62.5374C358.33 61.7448 359.42 61.3485 360.741 61.3485H391.158C392.413 61.3485 393.436 61.8109 394.229 62.7356C395.088 63.6603 395.484 64.7832 395.418 66.1042C395.352 66.7647 395.22 67.3592 395.022 67.8876C394.89 68.35 394.559 68.8784 394.031 69.4729L367.874 104.348H391.158Z"/><path fill="#fff" d="M454.236 87.1087C454.236 92.2607 453.08 96.8843 450.768 100.98C448.456 105.075 445.286 108.278 441.257 110.59C437.294 112.902 432.901 114.058 428.08 114.058C423.258 114.058 418.832 112.902 414.803 110.59C410.84 108.278 407.703 105.075 405.391 100.98C403.079 96.8843 401.923 92.2607 401.923 87.1087C401.923 81.9566 403.079 77.3 405.391 73.1387C407.703 68.9775 410.84 65.7409 414.803 63.4291C418.832 61.1173 423.258 59.9614 428.08 59.9614C432.901 59.9614 437.294 61.1173 441.257 63.4291C445.286 65.7409 448.456 68.9775 450.768 73.1387C453.08 77.3 454.236 81.9566 454.236 87.1087ZM444.824 87.1087C444.824 83.5419 444.064 80.3714 442.545 77.5972C441.092 74.757 439.077 72.5773 436.501 71.0581C433.991 69.4729 431.184 68.6802 428.08 68.6802C424.975 68.6802 422.135 69.4729 419.559 71.0581C417.049 72.5773 415.034 74.757 413.515 77.5972C412.062 80.3714 411.335 83.5419 411.335 87.1087C411.335 90.6094 412.062 93.7469 413.515 96.521C415.034 99.2952 417.049 101.475 419.559 103.06C422.135 104.579 424.975 105.339 428.08 105.339C431.184 105.339 433.991 104.579 436.501 103.06C439.077 101.475 441.092 99.2952 442.545 96.521C444.064 93.7469 444.824 90.6094 444.824 87.1087Z"/><path fill="#01E0CB" fill-rule="evenodd" d="M85.8746 171.147C105.351 171.147 123.305 164.628 137.673 153.653L124.923 140.903C113.92 148.657 100.5 153.211 86.0169 153.211C71.4304 153.211 57.9227 148.592 46.8764 140.737L34.0105 153.603C48.3898 164.608 66.3686 171.147 85.8746 171.147ZM17.9064 137.468L30.7765 124.598C22.9803 113.577 18.3993 100.12 18.3993 85.593C18.3993 71.1096 22.953 57.6897 30.7067 46.687L17.9566 33.9369C6.98177 48.3052 0.462891 66.259 0.462891 85.7353C0.462891 105.182 6.96189 123.111 17.9064 137.468ZM171.286 85.7353C171.286 105.212 164.767 123.165 153.793 137.534L141.091 124.832C148.988 113.768 153.635 100.223 153.635 85.593C153.635 71.0065 149.016 57.4987 141.161 46.4524L153.742 33.8713C164.748 48.2505 171.286 66.2293 171.286 85.7353ZM137.607 17.7672C123.25 6.82267 105.321 0.323669 85.8746 0.323669C66.3983 0.323669 48.4445 6.84253 34.0762 17.8174L46.7778 30.519C57.8423 22.6216 71.387 17.9754 86.0169 17.9754C100.544 17.9754 114.001 22.5564 125.022 30.3526L137.607 17.7672Z" clip-rule="evenodd"/><path fill="#fff" d="M107.227 85.7354C107.227 97.5283 97.6673 107.088 85.8744 107.088C74.0815 107.088 64.5215 97.5283 64.5215 85.7354C64.5215 73.9425 74.0815 64.3824 85.8744 64.3824C97.6673 64.3824 107.227 73.9425 107.227 85.7354Z"/><path fill="#0080FF" fill-rule="evenodd" d="M78.5527 32.7801C54.8787 35.9992 36.1391 54.7388 32.9199 78.4128H50.853C53.7744 64.6037 64.7033 53.75 78.5527 50.9388V32.7801ZM120.488 78.4128C117.586 64.6986 106.787 53.8992 93.0727 50.9978V32.7801C116.747 35.9992 135.486 54.7388 138.705 78.4128H120.488ZM93.0727 120.632C106.882 117.711 117.735 106.782 120.547 92.9328H138.705C135.486 116.607 116.747 135.347 93.0727 138.566V120.632ZM50.7939 92.9328C53.6245 106.877 64.6083 117.861 78.5527 120.691V138.566C54.8786 135.347 36.139 116.607 32.9199 92.9328H50.7939Z" clip-rule="evenodd"/></svg>