<svg xmlns="http://www.w3.org/2000/svg" width="460" height="172" fill="none" viewBox="0 0 460 172"><path fill="#fff" d="M232.231 60.5628C244.12 60.5628 250.065 67.6964 250.065 81.9635V108.913C250.065 110.234 249.603 111.357 248.678 112.281C247.819 113.206 246.696 113.668 245.309 113.668C243.988 113.668 242.865 113.206 241.941 112.281C241.082 111.357 240.653 110.234 240.653 108.913V82.0626C240.653 78.1656 239.761 75.0611 237.978 72.7493C236.194 70.4375 233.288 69.2816 229.259 69.2816C226.617 69.2816 224.206 69.8761 222.026 71.065C219.912 72.1879 218.228 73.7401 216.973 75.7217C215.784 77.6372 215.19 79.7508 215.19 82.0626V108.913C215.19 110.234 214.727 111.357 213.803 112.281C212.944 113.206 211.821 113.668 210.434 113.668C209.047 113.668 207.924 113.239 207.065 112.38C206.207 111.456 205.777 110.3 205.777 108.913V66.5074C205.777 65.1864 206.207 64.0635 207.065 63.1388C207.99 62.2141 209.113 61.7517 210.434 61.7517C211.821 61.7517 212.944 62.2141 213.803 63.1388C214.727 64.0635 215.19 65.1864 215.19 66.5074V69.9752C216.907 67.3331 219.285 65.1204 222.323 63.337C225.428 61.4875 228.73 60.5628 232.231 60.5628Z"/><path fill="#fff" d="M309.697 85.7285C309.631 86.9174 309.135 87.9412 308.21 88.7999C307.286 89.5925 306.196 89.9888 304.941 89.9888H270.066C270.528 94.8106 272.344 98.6746 275.515 101.581C278.751 104.487 282.681 105.94 287.305 105.94C290.475 105.94 293.052 105.478 295.033 104.553C297.015 103.629 298.765 102.44 300.284 100.986C301.275 100.392 302.233 100.095 303.157 100.095C304.28 100.095 305.205 100.491 305.932 101.284C306.724 102.076 307.121 103.001 307.121 104.058C307.121 105.445 306.46 106.7 305.139 107.823C303.223 109.738 300.68 111.357 297.51 112.678C294.34 113.999 291.103 114.659 287.8 114.659C282.45 114.659 277.728 113.536 273.632 111.291C269.603 109.045 266.466 105.907 264.22 101.878C262.04 97.849 260.95 93.2914 260.95 88.2054C260.95 82.6571 262.073 77.8023 264.319 73.641C266.631 69.4137 269.636 66.1772 273.335 63.9314C277.1 61.6857 281.129 60.5628 285.423 60.5628C289.65 60.5628 293.613 61.6526 297.312 63.8323C301.011 66.0121 303.983 69.0174 306.229 72.8484C308.475 76.6794 309.631 80.9728 309.697 85.7285ZM285.423 69.2816C281.724 69.2816 278.52 70.3384 275.812 72.4521C273.104 74.4997 271.321 77.7032 270.462 82.0626H299.69V81.27C299.359 77.7693 297.774 74.896 294.934 72.6503C292.16 70.4045 288.989 69.2816 285.423 69.2816Z"/><path fill="#fff" d="M334.695 70.9659V100.491C334.695 103.794 336.181 105.445 339.154 105.445C339.616 105.445 340.243 105.346 341.036 105.148C341.829 104.883 342.456 104.751 342.918 104.751C343.777 104.751 344.504 105.115 345.098 105.841C345.693 106.568 345.99 107.493 345.99 108.615C345.99 110.002 345.197 111.191 343.612 112.182C342.027 113.173 340.243 113.668 338.262 113.668C336.082 113.668 334.068 113.437 332.218 112.975C330.435 112.512 328.816 111.357 327.363 109.507C325.976 107.592 325.283 104.718 325.283 100.887V70.9659H319.536C318.281 70.9659 317.224 70.5696 316.366 69.777C315.573 68.9183 315.177 67.8615 315.177 66.6065C315.177 65.3515 315.573 64.3277 316.366 63.5351C317.224 62.7425 318.281 62.3462 319.536 62.3462H325.283V54.0237C325.283 52.7026 325.712 51.5798 326.571 50.655C327.495 49.7303 328.651 49.2679 330.038 49.2679C331.359 49.2679 332.449 49.7303 333.308 50.655C334.233 51.5798 334.695 52.7026 334.695 54.0237V62.3462H342.918C344.173 62.3462 345.197 62.7755 345.99 63.6342C346.849 64.4268 347.278 65.4506 347.278 66.7056C347.278 67.9606 346.849 68.9844 345.99 69.777C345.197 70.5696 344.173 70.9659 342.918 70.9659H334.695Z"/><path fill="#fff" d="M391.158 104.95C392.413 104.95 393.469 105.379 394.328 106.238C395.187 107.03 395.616 108.054 395.616 109.309C395.616 110.564 395.187 111.621 394.328 112.479C393.469 113.272 392.413 113.668 391.158 113.668H359.156C357.901 113.668 356.844 113.206 355.985 112.281C355.193 111.357 354.796 110.399 354.796 109.408C354.862 108.549 354.994 107.856 355.192 107.327C355.391 106.733 355.754 106.072 356.282 105.346L382.241 70.6687H360.741C359.486 70.6687 358.429 70.2394 357.57 69.3807C356.712 68.522 356.282 67.4652 356.282 66.2102C356.282 64.9552 356.679 63.9314 357.471 63.1388C358.33 62.3462 359.42 61.9499 360.741 61.9499H391.158C392.413 61.9499 393.436 62.4122 394.229 63.337C395.088 64.2617 395.484 65.3846 395.418 66.7056C395.352 67.3661 395.22 67.9606 395.022 68.489C394.89 68.9514 394.559 69.4798 394.031 70.0742L367.874 104.95H391.158Z"/><path fill="#fff" d="M454.236 87.71C454.236 92.8621 453.08 97.4857 450.768 101.581C448.456 105.676 445.286 108.88 441.257 111.191C437.294 113.503 432.901 114.659 428.08 114.659C423.258 114.659 418.832 113.503 414.803 111.191C410.84 108.88 407.703 105.676 405.391 101.581C403.079 97.4857 401.923 92.8621 401.923 87.71C401.923 82.558 403.079 77.9014 405.391 73.7401C407.703 69.5788 410.84 66.3423 414.803 64.0305C418.832 61.7187 423.258 60.5628 428.08 60.5628C432.901 60.5628 437.294 61.7187 441.257 64.0305C445.286 66.3423 448.456 69.5788 450.768 73.7401C453.08 77.9014 454.236 82.558 454.236 87.71ZM444.824 87.71C444.824 84.1432 444.064 80.9728 442.545 78.1986C441.092 75.3584 439.077 73.1787 436.501 71.6595C433.991 70.0742 431.184 69.2816 428.08 69.2816C424.975 69.2816 422.135 70.0742 419.559 71.6595C417.049 73.1787 415.034 75.3584 413.515 78.1986C412.062 80.9728 411.335 84.1432 411.335 87.71C411.335 91.2108 412.062 94.3482 413.515 97.1224C415.034 99.8966 417.049 102.076 419.559 103.662C422.135 105.181 424.975 105.94 428.08 105.94C431.184 105.94 433.991 105.181 436.501 103.662C439.077 102.076 441.092 99.8966 442.545 97.1224C444.064 94.3482 444.824 91.2108 444.824 87.71Z"/><path fill="#9B9B9B" fill-rule="evenodd" d="M85.8746 171.748C105.351 171.748 123.305 165.23 137.673 154.255L124.923 141.505C113.92 149.258 100.5 153.812 86.0169 153.812C71.4304 153.812 57.9227 149.193 46.8764 141.339L34.0105 154.204C48.3898 165.21 66.3686 171.748 85.8746 171.748ZM17.9064 138.069L30.7765 125.199C22.9803 114.178 18.3993 100.721 18.3993 86.1944C18.3993 71.7109 22.953 58.2911 30.7067 47.2884L17.9566 34.5383C6.98177 48.9066 0.462891 66.8604 0.462891 86.3367C0.462891 105.783 6.96189 123.712 17.9064 138.069ZM171.286 86.3367C171.286 105.813 164.767 123.767 153.793 138.135L141.091 125.433C148.988 114.369 153.635 100.824 153.635 86.1944C153.635 71.6079 149.016 58.1001 141.161 47.0538L153.742 34.4726C164.748 48.8519 171.286 66.8307 171.286 86.3367ZM137.607 18.3686C123.25 7.42405 105.321 0.925049 85.8746 0.925049C66.3983 0.925049 48.4445 7.44391 34.0762 18.4187L46.7778 31.1204C57.8423 23.223 71.387 18.5768 86.0169 18.5768C100.544 18.5768 114.001 23.1578 125.022 30.954L137.607 18.3686Z" clip-rule="evenodd"/><path fill="#fff" d="M107.227 86.3367C107.227 98.1296 97.6673 107.69 85.8744 107.69C74.0815 107.69 64.5215 98.1296 64.5215 86.3367C64.5215 74.5438 74.0815 64.9838 85.8744 64.9838C97.6673 64.9838 107.227 74.5438 107.227 86.3367Z"/><path fill="#7B7B7B" fill-rule="evenodd" d="M78.5527 33.3815C54.8787 36.6006 36.1391 55.3401 32.9199 79.0142H50.853C53.7744 65.2051 64.7033 54.3514 78.5527 51.5402V33.3815ZM120.488 79.0142C117.586 65.2999 106.787 54.5006 93.0727 51.5992V33.3815C116.747 36.6006 135.486 55.3401 138.705 79.0142H120.488ZM93.0727 121.234C106.882 118.312 117.735 107.383 120.547 93.5341H138.705C135.486 117.208 116.747 135.948 93.0727 139.167V121.234ZM50.7939 93.5341C53.6245 107.479 64.6083 118.462 78.5527 121.293V139.167C54.8786 135.948 36.139 117.208 32.9199 93.5341H50.7939Z" clip-rule="evenodd"/></svg>