<svg xmlns="http://www.w3.org/2000/svg" width="460" height="172" fill="none" viewBox="0 0 460 172"><path fill="#000" d="M231.821 60.5629C243.71 60.5629 249.655 67.6965 249.655 81.9637V108.913C249.655 110.234 249.192 111.357 248.268 112.281C247.409 113.206 246.286 113.668 244.899 113.668C243.578 113.668 242.455 113.206 241.531 112.281C240.672 111.357 240.242 110.234 240.242 108.913V82.0627C240.242 78.1657 239.351 75.0613 237.567 72.7494C235.784 70.4376 232.878 69.2817 228.849 69.2817C226.207 69.2817 223.796 69.8762 221.616 71.0651C219.502 72.188 217.818 73.7402 216.563 75.7218C215.374 77.6373 214.78 79.7509 214.78 82.0627V108.913C214.78 110.234 214.317 111.357 213.392 112.281C212.534 113.206 211.411 113.668 210.024 113.668C208.637 113.668 207.514 113.239 206.655 112.38C205.797 111.456 205.367 110.3 205.367 108.913V66.5076C205.367 65.1865 205.797 64.0636 206.655 63.1389C207.58 62.2142 208.703 61.7518 210.024 61.7518C211.411 61.7518 212.534 62.2142 213.392 63.1389C214.317 64.0636 214.78 65.1865 214.78 66.5076V69.9753C216.497 67.3332 218.875 65.1205 221.913 63.3371C225.018 61.4876 228.32 60.5629 231.821 60.5629Z"/><path fill="#000" d="M309.286 85.7286C309.22 86.9175 308.725 87.9413 307.8 88.8C306.876 89.5926 305.786 89.9889 304.531 89.9889H269.655C270.118 94.8107 271.934 98.6747 275.105 101.581C278.341 104.487 282.271 105.94 286.895 105.94C290.065 105.94 292.641 105.478 294.623 104.553C296.604 103.629 298.355 102.44 299.874 100.987C300.865 100.392 301.823 100.095 302.747 100.095C303.87 100.095 304.795 100.491 305.521 101.284C306.314 102.076 306.71 103.001 306.71 104.058C306.71 105.445 306.05 106.7 304.729 107.823C302.813 109.738 300.27 111.357 297.1 112.678C293.929 113.999 290.693 114.659 287.39 114.659C282.04 114.659 277.317 113.536 273.222 111.291C269.193 109.045 266.056 105.907 263.81 101.878C261.63 97.8491 260.54 93.2915 260.54 88.2056C260.54 82.6572 261.663 77.8024 263.909 73.6412C266.221 69.4138 269.226 66.1773 272.925 63.9315C276.69 61.6858 280.719 60.5629 285.012 60.5629C289.24 60.5629 293.203 61.6528 296.902 63.8325C300.601 66.0122 303.573 69.0175 305.819 72.8485C308.064 76.6795 309.22 80.9729 309.286 85.7286ZM285.012 69.2817C281.313 69.2817 278.11 70.3386 275.402 72.4522C272.694 74.4998 270.91 77.7033 270.052 82.0627H299.28V81.2701C298.949 77.7694 297.364 74.8961 294.524 72.6504C291.75 70.4046 288.579 69.2817 285.012 69.2817Z"/><path fill="#000" d="M334.285 70.9661V100.491C334.285 103.794 335.771 105.445 338.743 105.445C339.206 105.445 339.833 105.346 340.626 105.148C341.418 104.884 342.046 104.752 342.508 104.752C343.367 104.752 344.094 105.115 344.688 105.841C345.283 106.568 345.58 107.493 345.58 108.616C345.58 110.003 344.787 111.192 343.202 112.182C341.617 113.173 339.833 113.668 337.852 113.668C335.672 113.668 333.657 113.437 331.808 112.975C330.025 112.513 328.406 111.357 326.953 109.507C325.566 107.592 324.873 104.718 324.873 100.887V70.9661H319.126C317.871 70.9661 316.814 70.5697 315.956 69.7771C315.163 68.9185 314.767 67.8616 314.767 66.6066C314.767 65.3517 315.163 64.3279 315.956 63.5352C316.814 62.7426 317.871 62.3463 319.126 62.3463H324.873V54.0238C324.873 52.7028 325.302 51.5799 326.161 50.6552C327.085 49.7304 328.241 49.2681 329.628 49.2681C330.949 49.2681 332.039 49.7304 332.898 50.6552C333.823 51.5799 334.285 52.7028 334.285 54.0238V62.3463H342.508C343.763 62.3463 344.787 62.7756 345.58 63.6343C346.438 64.4269 346.868 65.4507 346.868 66.7057C346.868 67.9607 346.438 68.9845 345.58 69.7771C344.787 70.5697 343.763 70.9661 342.508 70.9661H334.285Z"/><path fill="#000" d="M390.747 104.95C392.002 104.95 393.059 105.379 393.918 106.238C394.777 107.03 395.206 108.054 395.206 109.309C395.206 110.564 394.777 111.621 393.918 112.48C393.059 113.272 392.002 113.668 390.747 113.668H358.745C357.49 113.668 356.434 113.206 355.575 112.281C354.782 111.357 354.386 110.399 354.386 109.408C354.452 108.549 354.584 107.856 354.782 107.328C354.98 106.733 355.344 106.073 355.872 105.346L381.831 70.6688H360.331C359.076 70.6688 358.019 70.2395 357.16 69.3808C356.302 68.5221 355.872 67.4653 355.872 66.2103C355.872 64.9553 356.268 63.9315 357.061 63.1389C357.92 62.3463 359.01 61.95 360.331 61.95H390.747C392.002 61.95 393.026 62.4124 393.819 63.3371C394.678 64.2618 395.074 65.3847 395.008 66.7057C394.942 67.3662 394.81 67.9607 394.612 68.4891C394.479 68.9515 394.149 69.4799 393.621 70.0744L367.464 104.95H390.747Z"/><path fill="#000" d="M453.826 87.7102C453.826 92.8622 452.67 97.4858 450.358 101.581C448.046 105.676 444.876 108.88 440.847 111.192C436.884 113.503 432.491 114.659 427.669 114.659C422.848 114.659 418.422 113.503 414.393 111.192C410.43 108.88 407.292 105.676 404.981 101.581C402.669 97.4858 401.513 92.8622 401.513 87.7102C401.513 82.5581 402.669 77.9015 404.981 73.7402C407.292 69.579 410.43 66.3424 414.393 64.0306C418.422 61.7188 422.848 60.5629 427.669 60.5629C432.491 60.5629 436.884 61.7188 440.847 64.0306C444.876 66.3424 448.046 69.579 450.358 73.7402C452.67 77.9015 453.826 82.5581 453.826 87.7102ZM444.413 87.7102C444.413 84.1434 443.654 80.9729 442.135 78.1987C440.682 75.3585 438.667 73.1788 436.091 71.6596C433.581 70.0744 430.774 69.2817 427.669 69.2817C424.565 69.2817 421.725 70.0744 419.149 71.6596C416.639 73.1788 414.624 75.3585 413.105 78.1987C411.652 80.9729 410.925 84.1434 410.925 87.7102C410.925 91.2109 411.652 94.3484 413.105 97.1225C414.624 99.8967 416.639 102.076 419.149 103.662C421.725 105.181 424.565 105.94 427.669 105.94C430.774 105.94 433.581 105.181 436.091 103.662C438.667 102.076 440.682 99.8967 442.135 97.1225C443.654 94.3484 444.413 91.2109 444.413 87.7102Z"/><path fill="#9B9B9B" fill-rule="evenodd" d="M85.4644 171.749C104.941 171.749 122.895 165.23 137.263 154.255L124.513 141.505C113.51 149.258 100.09 153.812 85.6068 153.812C71.0203 153.812 57.5125 149.193 46.4662 141.339L33.6003 154.205C47.9796 165.21 65.9584 171.749 85.4644 171.749ZM17.4963 138.069L30.3664 125.199C22.5702 114.178 17.9892 100.721 17.9892 86.1945C17.9892 71.7111 22.5428 58.2912 30.2965 47.2885L17.5465 34.5384C6.57162 48.9067 0.0527344 66.8605 0.0527344 86.3369C0.0527344 105.783 6.55174 123.712 17.4963 138.069ZM170.876 86.3369C170.876 105.813 164.357 123.767 153.382 138.135L140.681 125.434C148.578 114.369 153.224 100.824 153.224 86.1945C153.224 71.608 148.606 58.1002 140.751 47.0539L153.332 34.4728C164.337 48.852 170.876 66.8308 170.876 86.3369ZM137.197 18.3687C122.84 7.42417 104.911 0.925171 85.4644 0.925171C65.9881 0.925171 48.0344 7.44403 33.6661 18.4189L46.3677 31.1205C57.4322 23.2231 70.9769 18.5769 85.6068 18.5769C100.134 18.5769 113.591 23.1579 124.612 30.9541L137.197 18.3687Z" clip-rule="evenodd"/><path fill="#000" d="M106.817 86.3368C106.817 98.1297 97.2571 107.69 85.4642 107.69C73.6714 107.69 64.1113 98.1297 64.1113 86.3368C64.1113 74.5439 73.6714 64.9839 85.4642 64.9839C97.2571 64.9839 106.817 74.5439 106.817 86.3368Z"/><path fill="#7B7B7B" fill-rule="evenodd" d="M78.1425 33.3816C54.4685 36.6007 35.7289 55.3403 32.5098 79.0143H50.4428C53.3642 65.2052 64.2932 54.3515 78.1425 51.5403V33.3816ZM120.077 79.0143C117.176 65.3001 106.377 54.5007 92.6625 51.5993V33.3816C116.337 36.6007 135.076 55.3403 138.295 79.0143H120.077ZM92.6625 121.234C106.472 118.312 117.325 107.384 120.136 93.5343H138.295C135.076 117.208 116.337 135.948 92.6625 139.167V121.234ZM50.3838 93.5343C53.2144 107.479 64.1981 118.462 78.1425 121.293V139.167C54.4685 135.948 35.7288 117.208 32.5098 93.5343H50.3838Z" clip-rule="evenodd"/></svg>