<svg xmlns="http://www.w3.org/2000/svg" width="320" height="126" fill="none" viewBox="0 0 320 126"><path fill="#000" d="M39.9908 46.6457C51.8801 46.6457 57.8248 53.7793 57.8248 68.0464V94.9955C57.8248 96.3165 57.3624 97.4394 56.4377 98.3641C55.579 99.2889 54.4561 99.7512 53.0691 99.7512C51.748 99.7512 50.6251 99.2889 49.7004 98.3641C48.8418 97.4394 48.4124 96.3165 48.4124 94.9955V68.1455C48.4124 64.2485 47.5207 61.144 45.7373 58.8322C43.9539 56.5204 41.0476 55.3645 37.0185 55.3645C34.3764 55.3645 31.9655 55.959 29.7858 57.1479C27.6722 58.2708 25.9879 59.823 24.7329 61.8045C23.5439 63.72 22.9495 65.8337 22.9495 68.1455V94.9955C22.9495 96.3165 22.4871 97.4394 21.5624 98.3641C20.7037 99.2889 19.5808 99.7512 18.1938 99.7512C16.8067 99.7512 15.6838 99.3219 14.8251 98.4632C13.9664 97.5385 13.5371 96.3826 13.5371 94.9955V52.5903C13.5371 51.2693 13.9664 50.1464 14.8251 49.2217C15.7498 48.297 16.8727 47.8346 18.1938 47.8346C19.5808 47.8346 20.7037 48.297 21.5624 49.2217C22.4871 50.1464 22.9495 51.2693 22.9495 52.5903V56.058C24.6668 53.416 27.0447 51.2032 30.0831 49.4198C33.1875 47.5704 36.4901 46.6457 39.9908 46.6457Z"/><path fill="#000" d="M117.456 71.8114C117.39 73.0003 116.895 74.0241 115.97 74.8828C115.045 75.6754 113.956 76.0717 112.701 76.0717H77.8253C78.2877 80.8935 80.1041 84.7575 83.2746 87.6638C86.5111 90.5701 90.4412 92.0232 95.0648 92.0232C98.2353 92.0232 100.811 91.5608 102.793 90.6361C104.774 89.7114 106.525 88.5224 108.044 87.0693C109.035 86.4748 109.992 86.1776 110.917 86.1776C112.04 86.1776 112.965 86.5739 113.691 87.3665C114.484 88.1592 114.88 89.0839 114.88 90.1407C114.88 91.5278 114.22 92.7828 112.899 93.9057C110.983 95.8212 108.44 97.4394 105.27 98.7605C102.099 100.081 98.8628 100.742 95.5602 100.742C90.21 100.742 85.4873 99.6191 81.3921 97.3734C77.3629 95.1276 74.2255 91.9902 71.9797 87.961C69.8 83.9319 68.7102 79.3743 68.7102 74.2883C68.7102 68.74 69.833 63.8852 72.0788 59.7239C74.3906 55.4966 77.396 52.2601 81.0948 50.0143C84.8598 47.7686 88.889 46.6457 93.1823 46.6457C97.4096 46.6457 101.373 47.7355 105.072 49.9152C108.771 52.0949 111.743 55.1003 113.989 58.9313C116.234 62.7623 117.39 67.0557 117.456 71.8114ZM93.1823 55.3645C89.4834 55.3645 86.2799 56.4213 83.5718 58.535C80.8637 60.5826 79.0803 63.7861 78.2216 68.1455H107.449V67.3529C107.119 63.8521 105.534 60.9789 102.694 58.7331C99.9196 56.4874 96.7491 55.3645 93.1823 55.3645Z"/><path fill="#000" d="M142.455 57.0488V86.5739C142.455 89.8765 143.941 91.5278 146.913 91.5278C147.376 91.5278 148.003 91.4287 148.796 91.2306C149.588 90.9664 150.216 90.8343 150.678 90.8343C151.537 90.8343 152.264 91.1975 152.858 91.9241C153.452 92.6507 153.75 93.5754 153.75 94.6983C153.75 96.0854 152.957 97.2743 151.372 98.2651C149.787 99.2558 148.003 99.7512 146.022 99.7512C143.842 99.7512 141.827 99.5201 139.978 99.0577C138.194 98.5953 136.576 97.4394 135.123 95.59C133.736 93.6745 133.042 90.8012 133.042 86.9702V57.0488H127.296C126.041 57.0488 124.984 56.6525 124.125 55.8599C123.333 55.0012 122.937 53.9444 122.937 52.6894C122.937 51.4344 123.333 50.4106 124.125 49.618C124.984 48.8254 126.041 48.4291 127.296 48.4291H133.042V40.1065C133.042 38.7855 133.472 37.6626 134.33 36.7379C135.255 35.8132 136.411 35.3508 137.798 35.3508C139.119 35.3508 140.209 35.8132 141.068 36.7379C141.992 37.6626 142.455 38.7855 142.455 40.1065V48.4291H150.678C151.933 48.4291 152.957 48.8584 153.75 49.7171C154.608 50.5097 155.038 51.5335 155.038 52.7885C155.038 54.0435 154.608 55.0673 153.75 55.8599C152.957 56.6525 151.933 57.0488 150.678 57.0488H142.455Z"/><path fill="#000" d="M198.917 91.0324C200.172 91.0324 201.229 91.4618 202.088 92.3204C202.947 93.113 203.376 94.1368 203.376 95.3918C203.376 96.6468 202.947 97.7036 202.088 98.5623C201.229 99.3549 200.172 99.7512 198.917 99.7512H166.915C165.66 99.7512 164.604 99.2889 163.745 98.3641C162.952 97.4394 162.556 96.4817 162.556 95.4909C162.622 94.6322 162.754 93.9387 162.952 93.4103C163.15 92.8158 163.514 92.1553 164.042 91.4287L190 56.7516H168.501C167.246 56.7516 166.189 56.3222 165.33 55.4636C164.471 54.6049 164.042 53.5481 164.042 52.2931C164.042 51.0381 164.438 50.0143 165.231 49.2217C166.09 48.4291 167.18 48.0328 168.501 48.0328H198.917C200.172 48.0328 201.196 48.4951 201.989 49.4198C202.848 50.3446 203.244 51.4674 203.178 52.7885C203.112 53.449 202.98 54.0435 202.781 54.5719C202.649 55.0342 202.319 55.5627 201.791 56.1571L175.634 91.0324H198.917Z"/><g clip-path="url(#clip0_521_396)"><path fill="#01E0CB" fill-rule="evenodd" d="M266.574 121.958C277.87 121.958 288.284 118.177 296.617 111.812L289.222 104.417C282.84 108.914 275.057 111.555 266.657 111.555C258.196 111.555 250.362 108.876 243.955 104.32L236.493 111.783C244.833 118.166 255.26 121.958 266.574 121.958ZM227.152 102.424L234.617 94.9595C230.095 88.5672 227.438 80.7622 227.438 72.3366C227.438 63.9362 230.079 56.1527 234.577 49.7711L227.182 42.3763C220.816 50.7099 217.035 61.1232 217.035 72.4196C217.035 83.6986 220.805 94.0972 227.152 102.424ZM316.113 72.4196C316.113 83.7158 312.332 94.1288 305.967 102.462L298.599 95.0953C303.18 88.6779 305.875 80.8219 305.875 72.3366C305.875 63.8765 303.196 56.042 298.64 49.6351L305.937 42.3383C312.32 50.6783 316.113 61.1061 316.113 72.4196ZM296.579 32.998C288.251 26.6502 277.853 22.8809 266.574 22.8809C255.278 22.8809 244.865 26.6617 236.531 33.027L243.898 40.3937C250.315 35.8132 258.171 33.1184 266.657 33.1184C275.082 33.1184 282.887 35.7754 289.28 40.2972L296.579 32.998Z" clip-rule="evenodd"/><path fill="#000" d="M278.959 72.4196C278.959 79.2595 273.414 84.8043 266.574 84.8043C259.734 84.8043 254.189 79.2595 254.189 72.4196C254.189 65.5797 259.734 60.0349 266.574 60.0349C273.414 60.0349 278.959 65.5797 278.959 72.4196Z"/><path fill="#0080FF" fill-rule="evenodd" d="M262.327 41.7056C248.596 43.5726 237.727 54.4415 235.859 68.1724H246.26C247.955 60.163 254.294 53.8678 262.327 52.2374V41.7056ZM286.648 68.1724C284.966 60.2182 278.702 53.9547 270.748 52.2718V41.7056C284.479 43.5727 295.348 54.4416 297.215 68.1724H286.648ZM270.748 92.6597C278.757 90.9651 285.052 84.6264 286.683 76.594H297.215C295.348 90.325 284.479 101.194 270.748 103.061V92.6597ZM246.226 76.594C247.868 84.6818 254.239 91.0525 262.327 92.6941V103.061C248.595 101.194 237.726 90.3251 235.859 76.594H246.226Z" clip-rule="evenodd"/></g><defs><clipPath id="clip0_521_396"><rect width="102.494" height="102.494" fill="#fff" transform="translate(217.035 22.8809)"/></clipPath></defs></svg>