<svg xmlns="http://www.w3.org/2000/svg" width="320" height="126" fill="none" viewBox="0 0 320 126"><path fill="#fff" d="M40.401 46.8232C52.2903 46.8232 58.2349 53.9567 58.2349 68.2239V95.173C58.2349 96.494 57.7726 97.6169 56.8478 98.5416C55.9892 99.4664 54.8663 99.9287 53.4792 99.9287C52.1582 99.9287 51.0353 99.4664 50.1106 98.5416C49.2519 97.6169 48.8226 96.494 48.8226 95.173V68.323C48.8226 64.4259 47.9309 61.3215 46.1475 59.0097C44.3641 56.6979 41.4578 55.542 37.4286 55.542C34.7866 55.542 32.3757 56.1365 30.196 57.3254C28.0823 58.4483 26.398 60.0005 25.143 61.982C23.9541 63.8975 23.3596 66.0112 23.3596 68.323V95.173C23.3596 96.494 22.8973 97.6169 21.9725 98.5416C21.1139 99.4664 19.991 99.9287 18.6039 99.9287C17.2168 99.9287 16.0939 99.4994 15.2353 98.6407C14.3766 97.716 13.9473 96.5601 13.9473 95.173V52.7678C13.9473 51.4468 14.3766 50.3239 15.2353 49.3992C16.16 48.4745 17.2829 48.0121 18.6039 48.0121C19.991 48.0121 21.1139 48.4745 21.9725 49.3992C22.8973 50.3239 23.3596 51.4468 23.3596 52.7678V56.2355C25.077 53.5935 27.4548 51.3807 30.4932 49.5973C33.5976 47.7479 36.9002 46.8232 40.401 46.8232Z"/><path fill="#fff" d="M117.866 71.9889C117.8 73.1778 117.305 74.2016 116.38 75.0603C115.456 75.8529 114.366 76.2492 113.111 76.2492H78.2354C78.6978 81.071 80.5142 84.935 83.6847 87.8413C86.9212 90.7475 90.8513 92.2007 95.4749 92.2007C98.6454 92.2007 101.221 91.7383 103.203 90.8136C105.185 89.8889 106.935 88.6999 108.454 87.2468C109.445 86.6523 110.403 86.3551 111.327 86.3551C112.45 86.3551 113.375 86.7514 114.102 87.544C114.894 88.3367 115.29 89.2614 115.29 90.3182C115.29 91.7053 114.63 92.9603 113.309 94.0832C111.393 95.9987 108.85 97.6169 105.68 98.938C102.509 100.259 99.2729 100.92 95.9703 100.92C90.6201 100.92 85.8974 99.7966 81.8022 97.5509C77.7731 95.3051 74.6356 92.1677 72.3899 88.1385C70.2102 84.1094 69.1203 79.5518 69.1203 74.4658C69.1203 68.9175 70.2432 64.0627 72.4889 59.9014C74.8007 55.6741 77.8061 52.4376 81.505 50.1918C85.2699 47.946 89.2991 46.8232 93.5925 46.8232C97.8198 46.8232 101.783 47.913 105.482 50.0927C109.181 52.2724 112.153 55.2778 114.399 59.1088C116.645 62.9398 117.8 67.2331 117.866 71.9889ZM93.5925 55.542C89.8936 55.542 86.6901 56.5988 83.9819 58.7125C81.2738 60.7601 79.4904 63.9636 78.6317 68.323H107.86V67.5304C107.529 64.0296 105.944 61.1564 103.104 58.9106C100.33 56.6649 97.1592 55.542 93.5925 55.542Z"/><path fill="#fff" d="M142.865 57.2263V86.7514C142.865 90.054 144.351 91.7053 147.323 91.7053C147.786 91.7053 148.413 91.6062 149.206 91.4081C149.999 91.1439 150.626 91.0118 151.088 91.0118C151.947 91.0118 152.674 91.375 153.268 92.1016C153.863 92.8282 154.16 93.7529 154.16 94.8758C154.16 96.2629 153.367 97.4518 151.782 98.4426C150.197 99.4333 148.413 99.9287 146.432 99.9287C144.252 99.9287 142.237 99.6976 140.388 99.2352C138.605 98.7728 136.986 97.6169 135.533 95.7675C134.146 93.852 133.453 90.9787 133.453 87.1477V57.2263H127.706C126.451 57.2263 125.394 56.83 124.536 56.0374C123.743 55.1787 123.347 54.1219 123.347 52.8669C123.347 51.6119 123.743 50.5881 124.536 49.7955C125.394 49.0029 126.451 48.6066 127.706 48.6066H133.453V40.284C133.453 38.963 133.882 37.8401 134.741 36.9154C135.665 35.9907 136.821 35.5283 138.208 35.5283C139.529 35.5283 140.619 35.9907 141.478 36.9154C142.403 37.8401 142.865 38.963 142.865 40.284V48.6066H151.088C152.343 48.6066 153.367 49.0359 154.16 49.8946C155.018 50.6872 155.448 51.711 155.448 52.966C155.448 54.221 155.018 55.2448 154.16 56.0374C153.367 56.83 152.343 57.2263 151.088 57.2263H142.865Z"/><path fill="#fff" d="M199.328 91.2099C200.583 91.2099 201.639 91.6393 202.498 92.4979C203.357 93.2905 203.786 94.3143 203.786 95.5693C203.786 96.8243 203.357 97.8811 202.498 98.7398C201.639 99.5324 200.583 99.9287 199.328 99.9287H167.326C166.071 99.9287 165.014 99.4664 164.155 98.5416C163.362 97.6169 162.966 96.6592 162.966 95.6684C163.032 94.8097 163.164 94.1162 163.362 93.5878C163.561 92.9933 163.924 92.3328 164.452 91.6062L190.411 56.9291H168.911C167.656 56.9291 166.599 56.4997 165.74 55.6411C164.882 54.7824 164.452 53.7256 164.452 52.4706C164.452 51.2156 164.849 50.1918 165.641 49.3992C166.5 48.6066 167.59 48.2103 168.911 48.2103H199.328C200.583 48.2103 201.606 48.6726 202.399 49.5973C203.258 50.5221 203.654 51.6449 203.588 52.966C203.522 53.6265 203.39 54.221 203.192 54.7494C203.059 55.2117 202.729 55.7401 202.201 56.3346L176.044 91.2099H199.328Z"/><g clip-path="url(#clip0_521_269)"><path fill="#fff" fill-rule="evenodd" d="M266.984 122.136C278.28 122.136 288.694 118.355 297.027 111.99L289.632 104.594C283.251 109.091 275.467 111.733 267.067 111.733C258.607 111.733 250.772 109.054 244.365 104.498L236.903 111.961C245.243 118.344 255.671 122.136 266.984 122.136ZM227.562 102.602L235.027 95.1373C230.506 88.745 227.849 80.9399 227.849 72.5143C227.849 64.1139 230.49 56.3304 234.987 49.9489L227.592 42.554C221.226 50.8877 217.445 61.301 217.445 72.5974C217.445 83.8763 221.215 94.2749 227.562 102.602ZM316.523 72.5974C316.523 83.8935 312.742 94.3066 306.377 102.64L299.01 95.273C303.59 88.8556 306.285 80.9997 306.285 72.5143C306.285 64.0542 303.606 56.2197 299.05 49.8129L306.347 42.5161C312.73 50.8561 316.523 61.2838 316.523 72.5974ZM296.989 33.1757C288.662 26.828 278.263 23.0586 266.984 23.0586C255.688 23.0586 245.275 26.8394 236.941 33.2047L244.308 40.5714C250.725 35.9909 258.581 33.2961 267.067 33.2961C275.492 33.2961 283.297 35.9531 289.69 40.4749L296.989 33.1757Z" clip-rule="evenodd"/><path fill="#fff" d="M279.369 72.5976C279.369 79.4375 273.824 84.9823 266.984 84.9823C260.144 84.9823 254.6 79.4375 254.6 72.5976C254.6 65.7577 260.144 60.2129 266.984 60.2129C273.824 60.2129 279.369 65.7577 279.369 72.5976Z"/><path fill="#fff" fill-rule="evenodd" d="M262.737 41.8833C249.006 43.7503 238.137 54.6192 236.27 68.3501H246.67C248.365 60.3407 254.704 54.0455 262.737 52.4151V41.8833ZM287.059 68.3501C285.376 60.396 279.112 54.1324 271.158 52.4495V41.8833C284.889 43.7505 295.758 54.6193 297.625 68.3501H287.059ZM271.158 92.8374C279.167 91.1429 285.462 84.8042 287.093 76.7717H297.625C295.758 90.5027 284.889 101.372 271.158 103.239V92.8374ZM246.636 76.7717C248.278 84.8596 254.649 91.2302 262.737 92.8718V103.239C249.006 101.372 238.137 90.5028 236.27 76.7717H246.636Z" clip-rule="evenodd"/></g><defs><clipPath id="clip0_521_269"><rect width="102.494" height="102.494" fill="#fff" transform="translate(217.445 23.0586)"/></clipPath></defs></svg>