<svg xmlns="http://www.w3.org/2000/svg" width="278" height="100" fill="none" viewBox="0 0 278 100"><path fill="#fff" d="M176.007 84.584C176.177 84.584 176.321 84.6427 176.439 84.76C176.567 84.8773 176.631 85.032 176.631 85.224C176.631 85.2667 176.625 85.3147 176.615 85.368C176.615 85.4107 176.604 85.4533 176.583 85.496L174.119 92.584C174.065 92.7227 173.975 92.8293 173.847 92.904C173.729 92.9787 173.601 93.0107 173.463 93C173.217 92.9893 173.031 92.8507 172.903 92.584L170.887 87.528L171.207 87.576L169.383 92.584C169.265 92.8507 169.079 92.9893 168.823 93C168.684 93.0107 168.551 92.9787 168.423 92.904C168.295 92.8293 168.209 92.7227 168.167 92.584L165.655 85.496C165.623 85.4 165.607 85.3093 165.607 85.224C165.607 85.0533 165.665 84.904 165.783 84.776C165.9 84.648 166.06 84.584 166.263 84.584C166.391 84.584 166.508 84.616 166.615 84.68C166.721 84.744 166.796 84.8453 166.839 84.984L168.999 91.288L168.663 91.272L170.535 86.472C170.641 86.2053 170.839 86.072 171.127 86.072C171.276 86.072 171.393 86.1093 171.479 86.184C171.575 86.248 171.644 86.344 171.687 86.472L173.639 91.272L173.239 91.304L175.399 84.984C175.495 84.7173 175.697 84.584 176.007 84.584ZM182.18 93.16C181.327 93.16 180.58 92.9787 179.94 92.616C179.3 92.2533 178.799 91.7573 178.436 91.128C178.084 90.488 177.908 89.752 177.908 88.92C177.908 87.992 178.089 87.2027 178.452 86.552C178.825 85.8907 179.305 85.3893 179.892 85.048C180.489 84.696 181.119 84.52 181.78 84.52C182.271 84.52 182.745 84.6107 183.204 84.792C183.663 84.9733 184.068 85.24 184.42 85.592C184.772 85.9333 185.055 86.3493 185.268 86.84C185.481 87.32 185.593 87.8587 185.604 88.456C185.604 88.6267 185.54 88.7707 185.412 88.888C185.284 89.0053 185.135 89.064 184.964 89.064H178.644L178.356 87.96H184.516L184.26 88.184V87.832C184.217 87.3947 184.068 87.0213 183.812 86.712C183.567 86.392 183.263 86.1467 182.9 85.976C182.548 85.8053 182.175 85.72 181.78 85.72C181.46 85.72 181.14 85.7787 180.82 85.896C180.511 86.0027 180.228 86.184 179.972 86.44C179.727 86.6853 179.524 87.0053 179.364 87.4C179.215 87.7947 179.14 88.2693 179.14 88.824C179.14 89.4427 179.263 89.9867 179.508 90.456C179.764 90.9253 180.116 91.2987 180.564 91.576C181.012 91.8427 181.535 91.976 182.132 91.976C182.505 91.976 182.831 91.928 183.108 91.832C183.385 91.736 183.625 91.6187 183.828 91.48C184.031 91.3307 184.201 91.1813 184.34 91.032C184.479 90.936 184.612 90.888 184.74 90.888C184.9 90.888 185.028 90.9413 185.124 91.048C185.231 91.1547 185.284 91.2827 185.284 91.432C185.284 91.6133 185.199 91.7733 185.028 91.912C184.729 92.2427 184.324 92.536 183.812 92.792C183.3 93.0373 182.756 93.16 182.18 93.16ZM191.608 84.52C192.333 84.52 192.984 84.7067 193.56 85.08C194.136 85.4427 194.589 85.944 194.92 86.584C195.261 87.224 195.432 87.9653 195.432 88.808C195.432 89.6507 195.261 90.3973 194.92 91.048C194.589 91.6987 194.136 92.216 193.56 92.6C192.994 92.9733 192.354 93.16 191.64 93.16C191.245 93.16 190.872 93.1013 190.52 92.984C190.178 92.856 189.864 92.6907 189.576 92.488C189.298 92.2747 189.064 92.0453 188.872 91.8C188.68 91.544 188.541 91.2933 188.456 91.048L188.808 90.824V92.424C188.808 92.6053 188.749 92.76 188.632 92.888C188.514 93.016 188.36 93.08 188.168 93.08C187.986 93.08 187.832 93.0213 187.704 92.904C187.586 92.776 187.528 92.616 187.528 92.424V81.816C187.528 81.6347 187.586 81.48 187.704 81.352C187.832 81.224 187.986 81.16 188.168 81.16C188.36 81.16 188.514 81.224 188.632 81.352C188.749 81.48 188.808 81.6347 188.808 81.816V86.744L188.568 86.616C188.642 86.3493 188.77 86.0933 188.952 85.848C189.144 85.592 189.373 85.368 189.64 85.176C189.917 84.9733 190.221 84.8133 190.552 84.696C190.893 84.5787 191.245 84.52 191.608 84.52ZM191.464 85.704C190.93 85.704 190.456 85.8373 190.04 86.104C189.634 86.3707 189.314 86.7387 189.08 87.208C188.856 87.6773 188.744 88.2107 188.744 88.808C188.744 89.4053 188.856 89.944 189.08 90.424C189.314 90.904 189.634 91.2827 190.04 91.56C190.456 91.8373 190.93 91.976 191.464 91.976C191.997 91.976 192.466 91.8373 192.872 91.56C193.277 91.2827 193.597 90.904 193.832 90.424C194.066 89.944 194.184 89.4053 194.184 88.808C194.184 88.2107 194.066 87.6773 193.832 87.208C193.597 86.7387 193.277 86.3707 192.872 86.104C192.466 85.8373 191.997 85.704 191.464 85.704ZM205.842 84.6C206.567 84.6 207.218 84.7813 207.794 85.144C208.37 85.5067 208.823 86.008 209.154 86.648C209.495 87.288 209.666 88.024 209.666 88.856C209.666 89.6773 209.495 90.4133 209.154 91.064C208.823 91.704 208.37 92.2107 207.794 92.584C207.229 92.9467 206.589 93.128 205.874 93.128C205.479 93.128 205.106 93.0693 204.754 92.952C204.413 92.824 204.098 92.664 203.81 92.472C203.533 92.2693 203.298 92.0453 203.106 91.8C202.914 91.544 202.775 91.2933 202.69 91.048L203.042 90.824V95.544C203.042 95.7253 202.983 95.88 202.866 96.008C202.749 96.136 202.594 96.2 202.402 96.2C202.221 96.2 202.066 96.136 201.938 96.008C201.821 95.8907 201.762 95.736 201.762 95.544V85.32C201.762 85.1387 201.821 84.9893 201.938 84.872C202.066 84.744 202.221 84.68 202.402 84.68C202.594 84.68 202.749 84.744 202.866 84.872C202.983 84.9893 203.042 85.1387 203.042 85.32V86.744L202.802 86.616C202.877 86.3493 203.005 86.0933 203.186 85.848C203.378 85.6027 203.607 85.3893 203.874 85.208C204.151 85.016 204.455 84.8667 204.786 84.76C205.127 84.6533 205.479 84.6 205.842 84.6ZM205.698 85.784C205.165 85.784 204.69 85.9173 204.274 86.184C203.869 86.4507 203.549 86.8133 203.314 87.272C203.09 87.7307 202.978 88.2587 202.978 88.856C202.978 89.4427 203.09 89.9707 203.314 90.44C203.549 90.9093 203.869 91.2773 204.274 91.544C204.69 91.8107 205.165 91.944 205.698 91.944C206.231 91.944 206.701 91.8107 207.106 91.544C207.511 91.2773 207.831 90.9093 208.066 90.44C208.301 89.9707 208.418 89.4427 208.418 88.856C208.418 88.2587 208.301 87.7307 208.066 87.272C207.831 86.8133 207.511 86.4507 207.106 86.184C206.701 85.9173 206.231 85.784 205.698 85.784ZM212.998 92.344C212.998 92.5253 212.934 92.68 212.806 92.808C212.678 92.936 212.524 93 212.342 93C212.161 93 212.012 92.936 211.894 92.808C211.777 92.68 211.718 92.5253 211.718 92.344V81.8C211.718 81.6187 211.777 81.4693 211.894 81.352C212.022 81.224 212.177 81.16 212.358 81.16C212.55 81.16 212.705 81.224 212.822 81.352C212.94 81.4693 212.998 81.6187 212.998 81.8V92.344ZM222.297 84.648C222.478 84.648 222.628 84.712 222.745 84.84C222.873 84.9573 222.937 85.1067 222.937 85.288V92.344C222.937 92.5253 222.873 92.68 222.745 92.808C222.628 92.936 222.478 93 222.297 93C222.105 93 221.95 92.936 221.833 92.808C221.716 92.68 221.657 92.5253 221.657 92.344V90.824L221.961 90.792C221.961 91.0267 221.881 91.2827 221.721 91.56C221.561 91.8373 221.342 92.0987 221.065 92.344C220.788 92.5787 220.457 92.776 220.073 92.936C219.7 93.0853 219.294 93.16 218.857 93.16C218.132 93.16 217.481 92.9733 216.905 92.6C216.329 92.216 215.87 91.6987 215.529 91.048C215.198 90.3973 215.033 89.656 215.033 88.824C215.033 87.9813 215.198 87.24 215.529 86.6C215.87 85.9493 216.329 85.4427 216.905 85.08C217.481 84.7067 218.121 84.52 218.825 84.52C219.284 84.52 219.71 84.5947 220.105 84.744C220.5 84.8933 220.841 85.096 221.129 85.352C221.428 85.608 221.657 85.8907 221.817 86.2C221.988 86.5093 222.073 86.8187 222.073 87.128L221.657 87.032V85.288C221.657 85.1067 221.716 84.9573 221.833 84.84C221.95 84.712 222.105 84.648 222.297 84.648ZM219.001 91.976C219.534 91.976 220.004 91.8373 220.409 91.56C220.825 91.2827 221.145 90.9093 221.369 90.44C221.604 89.96 221.721 89.4213 221.721 88.824C221.721 88.2373 221.604 87.7093 221.369 87.24C221.145 86.76 220.825 86.3867 220.409 86.12C220.004 85.8427 219.534 85.704 219.001 85.704C218.478 85.704 218.009 85.8373 217.593 86.104C217.188 86.3707 216.868 86.7387 216.633 87.208C216.398 87.6773 216.281 88.216 216.281 88.824C216.281 89.4213 216.393 89.96 216.617 90.44C216.852 90.9093 217.172 91.2827 217.577 91.56C217.993 91.8373 218.468 91.976 219.001 91.976ZM224.989 84.776H228.749C228.92 84.776 229.058 84.8347 229.165 84.952C229.282 85.0693 229.341 85.208 229.341 85.368C229.341 85.5387 229.282 85.6827 229.165 85.8C229.058 85.9067 228.92 85.96 228.749 85.96H224.989C224.829 85.96 224.69 85.9013 224.573 85.784C224.456 85.6667 224.397 85.5227 224.397 85.352C224.397 85.192 224.456 85.0587 224.573 84.952C224.69 84.8347 224.829 84.776 224.989 84.776ZM226.669 82.6C226.85 82.6 227 82.664 227.117 82.792C227.234 82.9093 227.293 83.0587 227.293 83.24V90.968C227.293 91.224 227.33 91.416 227.405 91.544C227.48 91.672 227.576 91.7627 227.693 91.816C227.821 91.8587 227.944 91.88 228.061 91.88C228.168 91.88 228.258 91.864 228.333 91.832C228.418 91.7893 228.514 91.768 228.621 91.768C228.728 91.768 228.824 91.8213 228.909 91.928C229.005 92.024 229.053 92.152 229.053 92.312C229.053 92.504 228.941 92.6693 228.717 92.808C228.493 92.936 228.242 93 227.965 93C227.816 93 227.629 92.9893 227.405 92.968C227.192 92.9467 226.978 92.8773 226.765 92.76C226.552 92.6427 226.37 92.4507 226.221 92.184C226.082 91.9067 226.013 91.5227 226.013 91.032V83.24C226.013 83.0587 226.077 82.9093 226.205 82.792C226.333 82.664 226.488 82.6 226.669 82.6ZM234.171 81.192C234.353 81.192 234.539 81.2133 234.731 81.256C234.934 81.2987 235.105 81.3733 235.243 81.48C235.393 81.5867 235.467 81.7307 235.467 81.912C235.467 82.0827 235.414 82.2267 235.307 82.344C235.201 82.4507 235.073 82.504 234.923 82.504C234.827 82.504 234.694 82.4773 234.523 82.424C234.353 82.36 234.177 82.328 233.995 82.328C233.75 82.328 233.547 82.3813 233.387 82.488C233.238 82.5947 233.126 82.7387 233.051 82.92C232.987 83.0907 232.955 83.2827 232.955 83.496V92.344C232.955 92.5253 232.891 92.68 232.763 92.808C232.646 92.936 232.497 93 232.315 93C232.123 93 231.969 92.936 231.851 92.808C231.734 92.68 231.675 92.5253 231.675 92.344V83.512C231.675 82.7973 231.894 82.232 232.331 81.816C232.779 81.4 233.393 81.192 234.171 81.192ZM234.619 84.856C234.79 84.856 234.934 84.9147 235.051 85.032C235.169 85.1387 235.227 85.2773 235.227 85.448C235.227 85.6187 235.169 85.7627 235.051 85.88C234.934 85.9867 234.79 86.04 234.619 86.04H230.603C230.433 86.04 230.289 85.9813 230.171 85.864C230.054 85.7467 229.995 85.608 229.995 85.448C229.995 85.2667 230.054 85.1227 230.171 85.016C230.289 84.9093 230.433 84.856 230.603 84.856H234.619ZM244.181 88.84C244.181 89.672 243.994 90.4133 243.621 91.064C243.258 91.7147 242.762 92.2267 242.133 92.6C241.514 92.9733 240.815 93.16 240.037 93.16C239.258 93.16 238.554 92.9733 237.925 92.6C237.295 92.2267 236.794 91.7147 236.421 91.064C236.058 90.4133 235.877 89.672 235.877 88.84C235.877 88.008 236.058 87.2667 236.421 86.616C236.794 85.9653 237.295 85.4533 237.925 85.08C238.554 84.7067 239.258 84.52 240.037 84.52C240.815 84.52 241.514 84.7067 242.133 85.08C242.762 85.4533 243.258 85.9653 243.621 86.616C243.994 87.2667 244.181 88.008 244.181 88.84ZM242.901 88.84C242.901 88.2213 242.773 87.6773 242.517 87.208C242.271 86.7387 241.93 86.3707 241.493 86.104C241.066 85.8373 240.581 85.704 240.037 85.704C239.493 85.704 239.002 85.8373 238.565 86.104C238.138 86.3707 237.797 86.7387 237.541 87.208C237.285 87.6773 237.157 88.2213 237.157 88.84C237.157 89.448 237.285 89.9867 237.541 90.456C237.797 90.9253 238.138 91.2987 238.565 91.576C239.002 91.8427 239.493 91.976 240.037 91.976C240.581 91.976 241.066 91.8427 241.493 91.576C241.93 91.2987 242.271 90.9253 242.517 90.456C242.773 89.9867 242.901 89.448 242.901 88.84ZM246.746 93C246.565 93 246.41 92.936 246.282 92.808C246.165 92.68 246.106 92.5253 246.106 92.344V85.368C246.106 85.1867 246.165 85.0373 246.282 84.92C246.41 84.792 246.565 84.728 246.746 84.728C246.938 84.728 247.093 84.792 247.21 84.92C247.327 85.0373 247.386 85.1867 247.386 85.368V87.48L247.194 87.144C247.258 86.8133 247.37 86.4933 247.53 86.184C247.701 85.864 247.914 85.5813 248.17 85.336C248.426 85.08 248.719 84.8827 249.05 84.744C249.381 84.5947 249.743 84.52 250.138 84.52C250.373 84.52 250.586 84.5787 250.778 84.696C250.981 84.8027 251.082 84.9573 251.082 85.16C251.082 85.384 251.023 85.5493 250.906 85.656C250.789 85.7627 250.655 85.816 250.506 85.816C250.367 85.816 250.234 85.7893 250.106 85.736C249.978 85.672 249.818 85.64 249.626 85.64C249.359 85.64 249.093 85.7147 248.826 85.864C248.57 86.0027 248.33 86.2053 248.106 86.472C247.893 86.7387 247.717 87.0427 247.578 87.384C247.45 87.7147 247.386 88.072 247.386 88.456V92.344C247.386 92.5253 247.322 92.68 247.194 92.808C247.077 92.936 246.927 93 246.746 93ZM256.48 84.6C257.205 84.6 257.792 84.7867 258.24 85.16C258.698 85.5227 259.002 86.04 259.152 86.712H258.912L259.024 86.424C259.152 86.1253 259.37 85.8373 259.68 85.56C259.989 85.2827 260.346 85.0533 260.752 84.872C261.157 84.6907 261.578 84.6 262.016 84.6C262.72 84.6 263.274 84.7547 263.68 85.064C264.085 85.3627 264.373 85.768 264.544 86.28C264.725 86.7813 264.816 87.3467 264.816 87.976V92.344C264.816 92.5253 264.752 92.68 264.624 92.808C264.506 92.936 264.357 93 264.176 93C263.984 93 263.829 92.936 263.712 92.808C263.594 92.68 263.536 92.5253 263.536 92.344V88.008C263.536 87.592 263.472 87.2187 263.344 86.888C263.226 86.5467 263.029 86.28 262.752 86.088C262.485 85.8853 262.117 85.784 261.648 85.784C261.21 85.784 260.81 85.8853 260.448 86.088C260.085 86.28 259.797 86.5467 259.584 86.888C259.37 87.2187 259.264 87.592 259.264 88.008V92.344C259.264 92.5253 259.205 92.68 259.088 92.808C258.97 92.936 258.816 93 258.624 93C258.442 93 258.288 92.936 258.16 92.808C258.042 92.68 257.984 92.5253 257.984 92.344V87.96C257.984 87.5547 257.925 87.192 257.808 86.872C257.701 86.5413 257.514 86.28 257.248 86.088C256.981 85.8853 256.613 85.784 256.144 85.784C255.717 85.784 255.328 85.8853 254.976 86.088C254.624 86.28 254.341 86.5413 254.128 86.872C253.914 87.192 253.808 87.5547 253.808 87.96V92.344C253.808 92.5253 253.744 92.68 253.616 92.808C253.498 92.936 253.349 93 253.168 93C252.986 93 252.832 92.936 252.704 92.808C252.586 92.68 252.528 92.5253 252.528 92.344V85.368C252.528 85.1867 252.586 85.0373 252.704 84.92C252.832 84.792 252.986 84.728 253.168 84.728C253.36 84.728 253.514 84.792 253.632 84.92C253.749 85.0373 253.808 85.1867 253.808 85.368V86.584L253.456 86.968C253.498 86.6907 253.605 86.4133 253.776 86.136C253.957 85.8587 254.186 85.6027 254.464 85.368C254.741 85.1333 255.05 84.9467 255.392 84.808C255.733 84.6693 256.096 84.6 256.48 84.6Z"/><path fill="#fff" d="M135.696 35.26C138.325 35.26 140.394 35.8013 141.902 36.884C143.41 37.9667 144.473 39.4167 145.092 41.234C145.749 43.0513 146.078 45.0813 146.078 47.324V63.622C146.078 64.2793 145.846 64.84 145.382 65.304C144.957 65.768 144.415 66 143.758 66C143.101 66 142.54 65.768 142.076 65.304C141.651 64.84 141.438 64.2793 141.438 63.622V47.44C141.438 45.9707 141.206 44.656 140.742 43.496C140.317 42.2973 139.582 41.35 138.538 40.654C137.533 39.9193 136.141 39.552 134.362 39.552C132.738 39.552 131.249 39.9193 129.896 40.654C128.543 41.35 127.46 42.2973 126.648 43.496C125.836 44.656 125.43 45.9707 125.43 47.44V63.622C125.43 64.2793 125.198 64.84 124.734 65.304C124.309 65.768 123.767 66 123.11 66C122.453 66 121.892 65.768 121.428 65.304C121.003 64.84 120.79 64.2793 120.79 63.622V38.334C120.79 37.6767 121.003 37.1353 121.428 36.71C121.892 36.246 122.453 36.014 123.11 36.014C123.806 36.014 124.367 36.246 124.792 36.71C125.217 37.1353 125.43 37.6767 125.43 38.334V42.452L124.27 43.728C124.463 42.7227 124.908 41.7173 125.604 40.712C126.3 39.668 127.17 38.74 128.214 37.928C129.258 37.116 130.418 36.478 131.694 36.014C132.97 35.5113 134.304 35.26 135.696 35.26ZM168.523 66.58C165.43 66.58 162.723 65.9227 160.403 64.608C158.083 63.2933 156.266 61.4953 154.951 59.214C153.675 56.894 153.037 54.226 153.037 51.21C153.037 47.846 153.694 44.9847 155.009 42.626C156.362 40.2287 158.102 38.4113 160.229 37.174C162.394 35.898 164.676 35.26 167.073 35.26C168.852 35.26 170.572 35.5887 172.235 36.246C173.898 36.9033 175.367 37.87 176.643 39.146C177.919 40.3833 178.944 41.8913 179.717 43.67C180.49 45.41 180.896 47.3627 180.935 49.528C180.935 50.1467 180.703 50.6687 180.239 51.094C179.775 51.5193 179.234 51.732 178.615 51.732H155.705L154.661 47.73H176.991L176.063 48.542V47.266C175.908 45.6807 175.367 44.3273 174.439 43.206C173.55 42.046 172.448 41.1567 171.133 40.538C169.857 39.9193 168.504 39.61 167.073 39.61C165.913 39.61 164.753 39.8227 163.593 40.248C162.472 40.6347 161.447 41.292 160.519 42.22C159.63 43.1093 158.895 44.2693 158.315 45.7C157.774 47.1307 157.503 48.8513 157.503 50.862C157.503 53.1047 157.948 55.0767 158.837 56.778C159.765 58.4793 161.041 59.8327 162.665 60.838C164.289 61.8047 166.184 62.288 168.349 62.288C169.702 62.288 170.882 62.114 171.887 61.766C172.892 61.418 173.762 60.9927 174.497 60.49C175.232 59.9487 175.85 59.4073 176.353 58.866C176.856 58.518 177.339 58.344 177.803 58.344C178.383 58.344 178.847 58.5373 179.195 58.924C179.582 59.3107 179.775 59.7747 179.775 60.316C179.775 60.9733 179.466 61.5533 178.847 62.056C177.764 63.2547 176.295 64.318 174.439 65.246C172.583 66.1353 170.611 66.58 168.523 66.58ZM186.749 36.188H200.379C200.998 36.188 201.501 36.4007 201.887 36.826C202.313 37.2513 202.525 37.754 202.525 38.334C202.525 38.9527 202.313 39.4747 201.887 39.9C201.501 40.2867 200.998 40.48 200.379 40.48H186.749C186.169 40.48 185.667 40.2673 185.241 39.842C184.816 39.4167 184.603 38.8947 184.603 38.276C184.603 37.696 184.816 37.2127 185.241 36.826C185.667 36.4007 186.169 36.188 186.749 36.188ZM192.839 28.3C193.497 28.3 194.038 28.532 194.463 28.996C194.889 29.4213 195.101 29.9627 195.101 30.62V58.634C195.101 59.562 195.237 60.258 195.507 60.722C195.778 61.186 196.126 61.5147 196.551 61.708C197.015 61.8627 197.46 61.94 197.885 61.94C198.272 61.94 198.601 61.882 198.871 61.766C199.181 61.6113 199.529 61.534 199.915 61.534C200.302 61.534 200.65 61.7273 200.959 62.114C201.307 62.462 201.481 62.926 201.481 63.506C201.481 64.202 201.075 64.8013 200.263 65.304C199.451 65.768 198.543 66 197.537 66C196.996 66 196.319 65.9613 195.507 65.884C194.734 65.8067 193.961 65.5553 193.187 65.13C192.414 64.7047 191.757 64.0087 191.215 63.042C190.713 62.0367 190.461 60.6447 190.461 58.866V30.62C190.461 29.9627 190.693 29.4213 191.157 28.996C191.621 28.532 192.182 28.3 192.839 28.3ZM228.004 61.708C228.622 61.708 229.144 61.9207 229.57 62.346C229.995 62.7327 230.208 63.2353 230.208 63.854C230.208 64.434 229.995 64.9367 229.57 65.362C229.144 65.7873 228.622 66 228.004 66H209.212C208.516 66 207.974 65.7487 207.588 65.246C207.201 64.7433 207.008 64.2793 207.008 63.854C207.046 63.4673 207.104 63.1387 207.182 62.868C207.259 62.5973 207.433 62.288 207.704 61.94L224.292 39.494L224.35 40.132H210.314C209.695 40.132 209.173 39.9193 208.748 39.494C208.322 39.0687 208.11 38.5467 208.11 37.928C208.11 37.348 208.322 36.8647 208.748 36.478C209.173 36.0527 209.695 35.84 210.314 35.84H228.12C228.738 35.84 229.241 36.072 229.628 36.536C230.053 36.9613 230.266 37.5027 230.266 38.16C230.227 38.4307 230.169 38.7013 230.092 38.972C230.014 39.204 229.86 39.494 229.628 39.842L213.213 61.998L212.808 61.708H228.004ZM264.815 50.92C264.815 53.936 264.138 56.6233 262.785 58.982C261.47 61.3407 259.672 63.1967 257.391 64.55C255.148 65.9033 252.616 66.58 249.793 66.58C246.97 66.58 244.418 65.9033 242.137 64.55C239.856 63.1967 238.038 61.3407 236.685 58.982C235.37 56.6233 234.713 53.936 234.713 50.92C234.713 47.904 235.37 45.2167 236.685 42.858C238.038 40.4993 239.856 38.6433 242.137 37.29C244.418 35.9367 246.97 35.26 249.793 35.26C252.616 35.26 255.148 35.9367 257.391 37.29C259.672 38.6433 261.47 40.4993 262.785 42.858C264.138 45.2167 264.815 47.904 264.815 50.92ZM260.175 50.92C260.175 48.6773 259.711 46.7053 258.783 45.004C257.894 43.3027 256.656 41.9687 255.071 41.002C253.524 40.0353 251.765 39.552 249.793 39.552C247.821 39.552 246.042 40.0353 244.457 41.002C242.91 41.9687 241.673 43.3027 240.745 45.004C239.817 46.7053 239.353 48.6773 239.353 50.92C239.353 53.124 239.817 55.0767 240.745 56.778C241.673 58.4793 242.91 59.8327 244.457 60.838C246.042 61.8047 247.821 62.288 249.793 62.288C251.765 62.288 253.524 61.8047 255.071 60.838C256.656 59.8327 257.894 58.4793 258.783 56.778C259.711 55.0767 260.175 53.124 260.175 50.92Z"/><path fill="#01E0CB" fill-rule="evenodd" d="M50 100C61.4014 100 71.9116 96.1838 80.3228 89.7592L72.8589 82.2953C66.4179 86.8343 58.5619 89.5 50.0833 89.5C41.5444 89.5 33.637 86.7962 27.1704 82.1981L19.6388 89.7298C28.0564 96.1722 38.5812 100 50 100ZM10.2115 80.2843L17.7456 72.7501C13.1817 66.2983 10.5 58.4207 10.5 49.9167C10.5 41.4381 13.1657 33.5821 17.7047 27.1411L10.2408 19.6772C3.81615 28.0884 0 38.5986 0 50C0 61.3841 3.80452 71.8795 10.2115 80.2843ZM100 50C100 61.4014 96.1839 71.9116 89.7592 80.3228L82.3237 72.8872C86.9468 66.4101 89.6667 58.481 89.6667 49.9167C89.6667 41.3777 86.9629 33.4703 82.3648 27.0038L89.7298 19.6388C96.1722 28.0564 100 38.5812 100 50ZM80.2843 10.2115C71.8795 3.80452 61.3841 0 50 0C38.5986 0 28.0884 3.81614 19.6772 10.2408L27.1128 17.6763C33.5899 13.0532 41.519 10.3333 50.0833 10.3333C58.5873 10.3333 66.465 13.015 72.9168 17.5789L80.2843 10.2115Z" clip-rule="evenodd"/><circle cx="50" cy="50" r="12.5" fill="#fff"/><path fill="#0080FF" fill-rule="evenodd" d="M45.7134 19C31.8547 20.8845 20.8845 31.8546 19 45.7134H29.498C31.2082 37.6296 37.606 31.2758 45.7134 29.6301V19ZM70.2621 45.7134C68.5636 37.6851 62.2417 31.3631 54.2134 29.6647V19C68.0722 20.8845 79.0424 31.8546 80.9269 45.7134H70.2621ZM54.2134 70.4287C62.2972 68.7185 68.6509 62.3208 70.2966 54.2134H80.9269C79.0424 68.0722 68.0722 79.0424 54.2134 80.9268V70.4287ZM29.4635 54.2134C31.1205 62.3764 37.5504 68.8063 45.7134 70.4633V80.9268C31.8546 79.0424 20.8844 68.0722 19 54.2134H29.4635Z" clip-rule="evenodd"/><path fill="#fff" d="M273 66.833C272.453 66.833 271.911 66.9408 271.405 67.1502C270.9 67.3596 270.441 67.6665 270.054 68.0534C269.272 68.8348 268.833 69.8946 268.833 70.9997C268.833 72.1047 269.272 73.1646 270.054 73.946C270.441 74.3329 270.9 74.6398 271.405 74.8492C271.911 75.0586 272.453 75.1663 273 75.1663C274.105 75.1663 275.165 74.7274 275.946 73.946C276.728 73.1646 277.167 72.1047 277.167 70.9997C277.167 70.4525 277.059 69.9107 276.849 69.4052C276.64 68.8996 276.333 68.4403 275.946 68.0534C275.559 67.6665 275.1 67.3596 274.594 67.1502C274.089 66.9408 273.547 66.833 273 66.833ZM273 74.333C271.162 74.333 269.667 72.8372 269.667 70.9997C269.667 69.1622 271.162 67.6663 273 67.6663C274.837 67.6663 276.333 69.1622 276.333 70.9997C276.333 72.8372 274.837 74.333 273 74.333ZM273.104 71.5288H272.504V72.8747H271.75V69.2122H273.108C273.537 69.2122 273.871 69.308 274.108 69.4997C274.342 69.6955 274.458 69.958 274.458 70.3163C274.458 70.5663 274.404 70.7747 274.296 70.9413C274.187 71.108 274.025 71.2413 273.804 71.3372L274.596 72.833V72.8747H273.787L273.104 71.5288ZM272.504 70.9205H273.112C273.3 70.9205 273.446 70.8705 273.55 70.7747C273.654 70.6788 273.704 70.5455 273.704 70.3747C273.704 70.2038 273.658 70.0705 273.558 69.9705C273.462 69.8705 273.312 69.8247 273.108 69.8247H272.504V70.9205Z"/></svg>