<svg xmlns="http://www.w3.org/2000/svg" width="172" height="171" fill="none" viewBox="0 0 172 171"><path fill="#01E0CB" fill-rule="evenodd" d="M86.0738 170.884C105.55 170.884 123.504 164.366 137.872 153.391L125.122 140.641C114.119 148.394 100.7 152.948 86.2161 152.948C71.6296 152.948 58.1219 148.329 47.0756 140.475L34.2097 153.34C48.589 164.346 66.5678 170.884 86.0738 170.884ZM18.1057 137.205L30.9757 124.335C23.1796 113.314 18.5986 99.8572 18.5986 85.3304C18.5986 70.8469 23.1522 57.4271 30.9059 46.4243L18.1559 33.6743C7.18099 48.0426 0.662109 65.9964 0.662109 85.4727C0.662109 104.919 7.16111 122.848 18.1057 137.205ZM171.485 85.4727C171.485 104.949 164.967 122.903 153.992 137.271L141.29 124.569C149.187 113.505 153.834 99.9603 153.834 85.3304C153.834 70.7439 149.215 57.2361 141.36 46.1898L153.942 33.6086C164.947 47.9879 171.485 65.9667 171.485 85.4727ZM137.806 17.5046C123.449 6.56004 105.52 0.0610352 86.0738 0.0610352C66.5975 0.0610352 48.6437 6.5799 34.2754 17.5547L46.9771 30.2563C58.0415 22.359 71.5862 17.7128 86.2161 17.7128C100.743 17.7128 114.2 22.2938 125.221 30.0899L137.806 17.5046Z" clip-rule="evenodd"/><path fill="#fff" d="M107.427 85.4728C107.427 97.2657 97.8665 106.826 86.0736 106.826C74.2807 106.826 64.7207 97.2657 64.7207 85.4728C64.7207 73.6799 74.2807 64.1199 86.0736 64.1199C97.8665 64.1199 107.427 73.6799 107.427 85.4728Z"/><path fill="#0080FF" fill-rule="evenodd" d="M78.7519 32.5173C55.0778 35.7365 36.3382 54.4762 33.1191 78.1503H51.0521C53.9735 64.3412 64.9025 53.4875 78.7519 50.6763V32.5173ZM120.687 78.1503C117.785 64.4361 106.986 53.6368 93.2719 50.7354V32.5173C116.946 35.7364 135.686 54.4761 138.905 78.1503H120.687ZM93.2719 120.37C107.081 117.448 117.934 106.52 120.746 92.6703H138.905C135.685 116.344 116.946 135.084 93.2719 138.303V120.37ZM50.9931 92.6703C53.8237 106.615 64.8075 117.599 78.7519 120.429V138.303C55.0779 135.084 36.3384 116.344 33.1192 92.6703H50.9931Z" clip-rule="evenodd"/></svg>