<svg xmlns="http://www.w3.org/2000/svg" width="172" height="172" fill="none" viewBox="0 0 172 172"><path fill="#9B9B9B" fill-rule="evenodd" d="M85.6636 171.196C105.14 171.196 123.094 164.678 137.462 153.703L124.712 140.953C113.709 148.706 100.289 153.26 85.806 153.26C71.2195 153.26 57.7117 148.641 46.6654 140.787L33.7996 153.652C48.1788 164.658 66.1576 171.196 85.6636 171.196ZM17.6955 137.517L30.5656 124.647C22.7694 113.626 18.1884 100.169 18.1884 85.6424C18.1884 71.159 22.7421 57.7391 30.4958 46.7364L17.7457 33.9863C6.77083 48.3546 0.251953 66.3084 0.251953 85.7847C0.251953 105.231 6.75096 123.16 17.6955 137.517ZM171.075 85.7847C171.075 105.261 164.556 123.215 153.582 137.583L140.88 124.881C148.777 113.817 153.424 100.272 153.424 85.6424C153.424 71.0559 148.805 57.5481 140.95 46.5018L153.531 33.9206C164.537 48.2999 171.075 66.2787 171.075 85.7847ZM137.396 17.8166C123.039 6.87205 105.11 0.373047 85.6636 0.373047C66.1873 0.373047 48.2336 6.89191 33.8653 17.8667L46.5669 30.5684C57.6314 22.671 71.1761 18.0248 85.806 18.0248C100.333 18.0248 113.79 22.6058 124.811 30.402L137.396 17.8166Z" clip-rule="evenodd"/><path fill="#000" d="M107.016 85.7848C107.016 97.5777 97.4564 107.138 85.6635 107.138C73.8706 107.138 64.3105 97.5777 64.3105 85.7848C64.3105 73.9919 73.8706 64.4319 85.6635 64.4319C97.4564 64.4319 107.016 73.9919 107.016 85.7848Z"/><path fill="#7B7B7B" fill-rule="evenodd" d="M78.3418 32.8294C54.6677 36.0485 35.928 54.7882 32.709 78.4623H50.6419C53.5633 64.6533 64.4923 53.7995 78.3418 50.9883V32.8294ZM120.277 78.4623C117.375 64.7481 106.576 53.9488 92.8617 51.0474V32.8293C116.536 36.0484 135.276 54.7882 138.495 78.4623H120.277ZM92.8617 120.682C106.671 117.76 117.524 106.832 120.336 92.9823H138.495C135.275 116.656 116.536 135.396 92.8617 138.615V120.682ZM50.5829 92.9823C53.4135 106.927 64.3973 117.911 78.3418 120.741V138.615C54.6678 135.396 35.9282 116.656 32.709 92.9823H50.5829Z" clip-rule="evenodd"/></svg>