<svg width="172" height="172" viewBox="0 0 172 172" fill="none" xmlns="http://www.w3.org/2000/svg">
<path fill-rule="evenodd" clip-rule="evenodd" d="M85.6636 171.811C105.14 171.811 123.094 165.292 137.462 154.317L124.712 141.567C113.709 149.321 100.289 153.875 85.806 153.875C71.2195 153.875 57.7117 149.256 46.6654 141.401L33.7996 154.267C48.1788 165.272 66.1576 171.811 85.6636 171.811ZM17.6955 138.132L30.5656 125.262C22.7694 114.241 18.1884 100.784 18.1884 86.2571C18.1884 71.7737 22.7421 58.3538 30.4958 47.3511L17.7457 34.6011C6.77083 48.9694 0.251953 66.9231 0.251953 86.3995C0.251953 105.846 6.75096 123.775 17.6955 138.132ZM171.075 86.3995C171.075 105.876 164.556 123.83 153.582 138.198L140.88 125.496C148.777 114.432 153.424 100.887 153.424 86.2571C153.424 71.6706 148.805 58.1629 140.95 47.1166L153.531 34.5354C164.537 48.9146 171.075 66.8935 171.075 86.3995ZM137.396 18.4313C123.039 7.4868 105.11 0.987793 85.6636 0.987793C66.1873 0.987793 48.2336 7.50665 33.8653 18.4815L46.5669 31.1831C57.6314 23.2857 71.1761 18.6395 85.806 18.6395C100.333 18.6395 113.79 23.2205 124.811 31.0167L137.396 18.4313Z" fill="black"/>
<path d="M107.016 86.3996C107.016 98.1924 97.4564 107.752 85.6635 107.752C73.8706 107.752 64.3105 98.1924 64.3105 86.3996C64.3105 74.6067 73.8706 65.0466 85.6635 65.0466C97.4564 65.0466 107.016 74.6067 107.016 86.3996Z" fill="black"/>
<path fill-rule="evenodd" clip-rule="evenodd" d="M78.3418 33.4441C54.6677 36.6632 35.928 55.4029 32.709 79.0771H50.6419C53.5633 65.268 64.4923 54.4143 78.3418 51.6031V33.4441ZM120.277 79.0771C117.375 65.3629 106.576 54.5636 92.8617 51.6622V33.4441C116.536 36.6632 135.276 55.4029 138.495 79.0771H120.277ZM92.8617 121.297C106.671 118.375 117.524 107.446 120.336 93.5971H138.495C135.275 117.271 116.536 136.011 92.8617 139.23V121.297ZM50.5829 93.5971C53.4135 107.542 64.3973 118.525 78.3418 121.356V139.23C54.6678 136.011 35.9282 117.271 32.709 93.5971H50.5829Z" fill="black"/>
</svg>
