<svg width="460" height="172" viewBox="0 0 460 172" fill="none" xmlns="http://www.w3.org/2000/svg">
<path d="M232.231 60.262C244.12 60.262 250.065 67.3956 250.065 81.6628V108.612C250.065 109.933 249.603 111.056 248.678 111.98C247.819 112.905 246.696 113.368 245.309 113.368C243.988 113.368 242.865 112.905 241.941 111.98C241.082 111.056 240.653 109.933 240.653 108.612V81.7618C240.653 77.8648 239.761 74.7604 237.978 72.4485C236.194 70.1367 233.288 68.9808 229.259 68.9808C226.617 68.9808 224.206 69.5753 222.026 70.7642C219.912 71.8871 218.228 73.4393 216.973 75.4209C215.784 77.3364 215.19 79.45 215.19 81.7618V108.612C215.19 109.933 214.727 111.056 213.803 111.98C212.944 112.905 211.821 113.368 210.434 113.368C209.047 113.368 207.924 112.938 207.065 112.08C206.207 111.155 205.777 109.999 205.777 108.612V66.2067C205.777 64.8856 206.207 63.7627 207.065 62.838C207.99 61.9133 209.113 61.4509 210.434 61.4509C211.821 61.4509 212.944 61.9133 213.803 62.838C214.727 63.7627 215.19 64.8856 215.19 66.2067V69.6744C216.907 67.0323 219.285 64.8196 222.323 63.0362C225.428 61.1867 228.73 60.262 232.231 60.262Z" fill="white"/>
<path d="M309.697 85.4277C309.631 86.6166 309.135 87.6404 308.21 88.4991C307.286 89.2917 306.196 89.688 304.941 89.688H270.066C270.528 94.5098 272.344 98.3738 275.515 101.28C278.751 104.186 282.681 105.64 287.305 105.64C290.475 105.64 293.052 105.177 295.033 104.252C297.015 103.328 298.765 102.139 300.284 100.686C301.275 100.091 302.233 99.794 303.157 99.794C304.28 99.794 305.205 100.19 305.932 100.983C306.724 101.776 307.121 102.7 307.121 103.757C307.121 105.144 306.46 106.399 305.139 107.522C303.223 109.437 300.68 111.056 297.51 112.377C294.34 113.698 291.103 114.358 287.8 114.358C282.45 114.358 277.728 113.235 273.632 110.99C269.603 108.744 266.466 105.607 264.22 101.577C262.04 97.5482 260.95 92.9906 260.95 87.9046C260.95 82.3563 262.073 77.5015 264.319 73.3402C266.631 69.1129 269.636 65.8764 273.335 63.6306C277.1 61.3849 281.129 60.262 285.423 60.262C289.65 60.262 293.613 61.3519 297.312 63.5316C301.011 65.7113 303.983 68.7166 306.229 72.5476C308.475 76.3786 309.631 80.672 309.697 85.4277ZM285.423 68.9808C281.724 68.9808 278.52 70.0377 275.812 72.1513C273.104 74.1989 271.321 77.4024 270.462 81.7618H299.69V80.9692C299.359 77.4685 297.774 74.5952 294.934 72.3495C292.16 70.1037 288.989 68.9808 285.423 68.9808Z" fill="white"/>
<path d="M334.695 70.6652V100.19C334.695 103.493 336.181 105.144 339.154 105.144C339.616 105.144 340.243 105.045 341.036 104.847C341.829 104.583 342.456 104.451 342.918 104.451C343.777 104.451 344.504 104.814 345.098 105.54C345.693 106.267 345.99 107.192 345.99 108.315C345.99 109.702 345.197 110.891 343.612 111.881C342.027 112.872 340.243 113.368 338.262 113.368C336.082 113.368 334.068 113.136 332.218 112.674C330.435 112.212 328.816 111.056 327.363 109.206C325.976 107.291 325.283 104.418 325.283 100.587V70.6652H319.536C318.281 70.6652 317.224 70.2688 316.366 69.4762C315.573 68.6175 315.177 67.5607 315.177 66.3057C315.177 65.0508 315.573 64.027 316.366 63.2343C317.224 62.4417 318.281 62.0454 319.536 62.0454H325.283V53.7229C325.283 52.4019 325.712 51.279 326.571 50.3542C327.495 49.4295 328.651 48.9672 330.038 48.9672C331.359 48.9672 332.449 49.4295 333.308 50.3542C334.233 51.279 334.695 52.4019 334.695 53.7229V62.0454H342.918C344.173 62.0454 345.197 62.4747 345.99 63.3334C346.849 64.126 347.278 65.1498 347.278 66.4048C347.278 67.6598 346.849 68.6836 345.99 69.4762C345.197 70.2688 344.173 70.6652 342.918 70.6652H334.695Z" fill="white"/>
<path d="M391.158 104.649C392.413 104.649 393.469 105.078 394.328 105.937C395.187 106.729 395.616 107.753 395.616 109.008C395.616 110.263 395.187 111.32 394.328 112.179C393.469 112.971 392.413 113.368 391.158 113.368H359.156C357.901 113.368 356.844 112.905 355.985 111.98C355.193 111.056 354.796 110.098 354.796 109.107C354.862 108.249 354.994 107.555 355.192 107.027C355.391 106.432 355.754 105.772 356.282 105.045L382.241 70.3679H360.741C359.486 70.3679 358.429 69.9386 357.57 69.0799C356.712 68.2212 356.282 67.1644 356.282 65.9094C356.282 64.6544 356.679 63.6306 357.471 62.838C358.33 62.0454 359.42 61.6491 360.741 61.6491H391.158C392.413 61.6491 393.436 62.1115 394.229 63.0362C395.088 63.9609 395.484 65.0838 395.418 66.4048C395.352 67.0653 395.22 67.6598 395.022 68.1882C394.89 68.6506 394.559 69.179 394.031 69.7735L367.874 104.649H391.158Z" fill="white"/>
<path d="M454.236 87.4093C454.236 92.5613 453.08 97.1849 450.768 101.28C448.456 105.375 445.286 108.579 441.257 110.891C437.294 113.202 432.901 114.358 428.08 114.358C423.258 114.358 418.832 113.202 414.803 110.891C410.84 108.579 407.703 105.375 405.391 101.28C403.079 97.1849 401.923 92.5613 401.923 87.4093C401.923 82.2572 403.079 77.6006 405.391 73.4393C407.703 69.2781 410.84 66.0415 414.803 63.7297C418.832 61.4179 423.258 60.262 428.08 60.262C432.901 60.262 437.294 61.4179 441.257 63.7297C445.286 66.0415 448.456 69.2781 450.768 73.4393C453.08 77.6006 454.236 82.2572 454.236 87.4093ZM444.824 87.4093C444.824 83.8425 444.064 80.672 442.545 77.8978C441.092 75.0576 439.077 72.8779 436.501 71.3587C433.991 69.7735 431.184 68.9808 428.08 68.9808C424.975 68.9808 422.135 69.7735 419.559 71.3587C417.049 72.8779 415.034 75.0576 413.515 77.8978C412.062 80.672 411.335 83.8425 411.335 87.4093C411.335 90.91 412.062 94.0475 413.515 96.8216C415.034 99.5958 417.049 101.776 419.559 103.361C422.135 104.88 424.975 105.64 428.08 105.64C431.184 105.64 433.991 104.88 436.501 103.361C439.077 101.776 441.092 99.5958 442.545 96.8216C444.064 94.0475 444.824 90.91 444.824 87.4093Z" fill="white"/>
<path fill-rule="evenodd" clip-rule="evenodd" d="M85.8746 171.448C105.351 171.448 123.305 164.929 137.673 153.954L124.923 141.204C113.92 148.958 100.5 153.511 86.0169 153.511C71.4304 153.511 57.9227 148.892 46.8764 141.038L34.0105 153.904C48.3898 164.909 66.3686 171.448 85.8746 171.448ZM17.9064 137.769L30.7765 124.898C22.9803 113.877 18.3993 100.42 18.3993 85.8936C18.3993 71.4102 22.953 57.9903 30.7067 46.9876L17.9566 34.2375C6.98177 48.6058 0.462891 66.5596 0.462891 86.0359C0.462891 105.483 6.96189 123.411 17.9064 137.769ZM171.286 86.0359C171.286 105.512 164.767 123.466 153.793 137.834L141.091 125.133C148.988 114.068 153.635 100.523 153.635 85.8936C153.635 71.3071 149.016 57.7993 141.161 46.753L153.742 34.1719C164.748 48.5511 171.286 66.5299 171.286 86.0359ZM137.607 18.0678C123.25 7.12327 105.321 0.624268 85.8746 0.624268C66.3983 0.624268 48.4445 7.14313 34.0762 18.118L46.7778 30.8196C57.8423 22.9222 71.387 18.276 86.0169 18.276C100.544 18.276 114.001 22.857 125.022 30.6532L137.607 18.0678Z" fill="white"/>
<path d="M107.227 86.0359C107.227 97.8288 97.6673 107.389 85.8744 107.389C74.0815 107.389 64.5215 97.8288 64.5215 86.0359C64.5215 74.243 74.0815 64.683 85.8744 64.683C97.6673 64.683 107.227 74.243 107.227 86.0359Z" fill="white"/>
<path fill-rule="evenodd" clip-rule="evenodd" d="M78.5527 33.0807C54.8787 36.2998 36.1391 55.0394 32.9199 78.7134H50.853C53.7744 64.9043 64.7033 54.0506 78.5527 51.2394V33.0807ZM120.488 78.7134C117.586 64.9991 106.787 54.1998 93.0727 51.2984V33.0807C116.747 36.2998 135.486 55.0394 138.705 78.7134H120.488ZM93.0727 120.933C106.882 118.012 117.735 107.083 120.547 93.2334H138.705C135.486 116.907 116.747 135.647 93.0727 138.866V120.933ZM50.7939 93.2334C53.6245 107.178 64.6083 118.162 78.5527 120.992V138.866C54.8786 135.647 36.139 116.907 32.9199 93.2334H50.7939Z" fill="white"/>
</svg>
