<svg width="172" height="172" viewBox="0 0 172 172" fill="none" xmlns="http://www.w3.org/2000/svg">
<path fill-rule="evenodd" clip-rule="evenodd" d="M86.0738 171.811C105.55 171.811 123.504 165.292 137.872 154.317L125.122 141.567C114.119 149.321 100.7 153.875 86.2161 153.875C71.6296 153.875 58.1219 149.256 47.0756 141.401L34.2097 154.267C48.589 165.272 66.5678 171.811 86.0738 171.811ZM18.1057 138.132L30.9757 125.262C23.1796 114.241 18.5986 100.784 18.5986 86.2571C18.5986 71.7737 23.1522 58.3538 30.9059 47.3511L18.1559 34.6011C7.18099 48.9694 0.662109 66.9231 0.662109 86.3995C0.662109 105.846 7.16111 123.775 18.1057 138.132ZM171.485 86.3995C171.485 105.876 164.967 123.83 153.992 138.198L141.29 125.496C149.187 114.432 153.834 100.887 153.834 86.2571C153.834 71.6706 149.215 58.1629 141.36 47.1166L153.942 34.5354C164.947 48.9146 171.485 66.8935 171.485 86.3995ZM137.806 18.4313C123.449 7.4868 105.52 0.987793 86.0738 0.987793C66.5975 0.987793 48.6437 7.50665 34.2754 18.4815L46.9771 31.1831C58.0415 23.2857 71.5862 18.6395 86.2161 18.6395C100.743 18.6395 114.2 23.2205 125.221 31.0167L137.806 18.4313Z" fill="white"/>
<path d="M107.427 86.3996C107.427 98.1924 97.8665 107.752 86.0736 107.752C74.2807 107.752 64.7207 98.1924 64.7207 86.3996C64.7207 74.6067 74.2807 65.0466 86.0736 65.0466C97.8665 65.0466 107.427 74.6067 107.427 86.3996Z" fill="white"/>
<path fill-rule="evenodd" clip-rule="evenodd" d="M78.7519 33.4441C55.0778 36.6632 36.3382 55.4029 33.1191 79.0771H51.0521C53.9735 65.268 64.9025 54.4143 78.7519 51.6031V33.4441ZM120.687 79.0771C117.785 65.3629 106.986 54.5636 93.2719 51.6622V33.4441C116.946 36.6632 135.686 55.4029 138.905 79.0771H120.687ZM93.2719 121.297C107.081 118.375 117.934 107.446 120.746 93.5971H138.905C135.685 117.271 116.946 136.011 93.2719 139.23V121.297ZM50.9931 93.5971C53.8237 107.542 64.8075 118.525 78.7519 121.356V139.23C55.0779 136.011 36.3384 117.271 33.1192 93.5971H50.9931Z" fill="white"/>
</svg>
