<svg width="320" height="126" viewBox="0 0 320 126" fill="none" xmlns="http://www.w3.org/2000/svg">
<path d="M40.401 46.6457C52.2903 46.6457 58.2349 53.7793 58.2349 68.0464V94.9955C58.2349 96.3166 57.7726 97.4394 56.8478 98.3642C55.9892 99.2889 54.8663 99.7512 53.4792 99.7512C52.1582 99.7512 51.0353 99.2889 50.1106 98.3642C49.2519 97.4394 48.8226 96.3166 48.8226 94.9955V68.1455C48.8226 64.2485 47.9309 61.144 46.1475 58.8322C44.3641 56.5204 41.4578 55.3645 37.4286 55.3645C34.7866 55.3645 32.3757 55.959 30.196 57.1479C28.0823 58.2708 26.398 59.823 25.143 61.8045C23.9541 63.72 23.3596 65.8337 23.3596 68.1455V94.9955C23.3596 96.3166 22.8973 97.4394 21.9725 98.3642C21.1139 99.2889 19.991 99.7512 18.6039 99.7512C17.2168 99.7512 16.0939 99.3219 15.2353 98.4632C14.3766 97.5385 13.9473 96.3826 13.9473 94.9955V52.5903C13.9473 51.2693 14.3766 50.1464 15.2353 49.2217C16.16 48.297 17.2829 47.8346 18.6039 47.8346C19.991 47.8346 21.1139 48.297 21.9725 49.2217C22.8973 50.1464 23.3596 51.2693 23.3596 52.5903V56.058C25.077 53.416 27.4548 51.2032 30.4932 49.4198C33.5976 47.5704 36.9002 46.6457 40.401 46.6457Z" fill="white"/>
<path d="M117.866 71.8114C117.8 73.0003 117.305 74.0241 116.38 74.8828C115.456 75.6754 114.366 76.0717 113.111 76.0717H78.2354C78.6978 80.8935 80.5142 84.7575 83.6847 87.6638C86.9212 90.5701 90.8513 92.0232 95.4749 92.0232C98.6454 92.0232 101.221 91.5608 103.203 90.6361C105.185 89.7114 106.935 88.5225 108.454 87.0693C109.445 86.4749 110.403 86.1776 111.327 86.1776C112.45 86.1776 113.375 86.5739 114.102 87.3666C114.894 88.1592 115.29 89.0839 115.29 90.1407C115.29 91.5278 114.63 92.7828 113.309 93.9057C111.393 95.8212 108.85 97.4394 105.68 98.7605C102.509 100.082 99.2729 100.742 95.9703 100.742C90.6201 100.742 85.8974 99.6191 81.8022 97.3734C77.7731 95.1276 74.6356 91.9902 72.3899 87.961C70.2102 83.9319 69.1203 79.3743 69.1203 74.2883C69.1203 68.74 70.2432 63.8852 72.4889 59.7239C74.8007 55.4966 77.8061 52.2601 81.505 50.0143C85.2699 47.7686 89.2991 46.6457 93.5925 46.6457C97.8198 46.6457 101.783 47.7355 105.482 49.9152C109.181 52.0949 112.153 55.1003 114.399 58.9313C116.645 62.7623 117.8 67.0557 117.866 71.8114ZM93.5925 55.3645C89.8936 55.3645 86.6901 56.4213 83.9819 58.535C81.2738 60.5826 79.4904 63.7861 78.6317 68.1455H107.86V67.3529C107.529 63.8521 105.944 60.9789 103.104 58.7331C100.33 56.4874 97.1592 55.3645 93.5925 55.3645Z" fill="white"/>
<path d="M142.865 57.0488V86.5739C142.865 89.8765 144.351 91.5278 147.323 91.5278C147.786 91.5278 148.413 91.4287 149.206 91.2306C149.999 90.9664 150.626 90.8343 151.088 90.8343C151.947 90.8343 152.674 91.1976 153.268 91.9241C153.863 92.6507 154.16 93.5754 154.16 94.6983C154.16 96.0854 153.367 97.2743 151.782 98.2651C150.197 99.2559 148.413 99.7512 146.432 99.7512C144.252 99.7512 142.237 99.5201 140.388 99.0577C138.605 98.5953 136.986 97.4394 135.533 95.59C134.146 93.6745 133.453 90.8012 133.453 86.9702V57.0488H127.706C126.451 57.0488 125.394 56.6525 124.536 55.8599C123.743 55.0012 123.347 53.9444 123.347 52.6894C123.347 51.4344 123.743 50.4106 124.536 49.618C125.394 48.8254 126.451 48.4291 127.706 48.4291H133.453V40.1066C133.453 38.7855 133.882 37.6626 134.741 36.7379C135.665 35.8132 136.821 35.3508 138.208 35.3508C139.529 35.3508 140.619 35.8132 141.478 36.7379C142.403 37.6626 142.865 38.7855 142.865 40.1066V48.4291H151.088C152.343 48.4291 153.367 48.8584 154.16 49.7171C155.018 50.5097 155.448 51.5335 155.448 52.7885C155.448 54.0435 155.018 55.0673 154.16 55.8599C153.367 56.6525 152.343 57.0488 151.088 57.0488H142.865Z" fill="white"/>
<path d="M199.328 91.0324C200.583 91.0324 201.639 91.4618 202.498 92.3204C203.357 93.1131 203.786 94.1369 203.786 95.3918C203.786 96.6468 203.357 97.7036 202.498 98.5623C201.639 99.3549 200.583 99.7512 199.328 99.7512H167.326C166.071 99.7512 165.014 99.2889 164.155 98.3642C163.362 97.4394 162.966 96.4817 162.966 95.4909C163.032 94.6322 163.164 93.9387 163.362 93.4103C163.561 92.8158 163.924 92.1553 164.452 91.4287L190.411 56.7516H168.911C167.656 56.7516 166.599 56.3222 165.74 55.4636C164.882 54.6049 164.452 53.5481 164.452 52.2931C164.452 51.0381 164.849 50.0143 165.641 49.2217C166.5 48.4291 167.59 48.0328 168.911 48.0328H199.328C200.583 48.0328 201.606 48.4951 202.399 49.4198C203.258 50.3446 203.654 51.4674 203.588 52.7885C203.522 53.449 203.39 54.0435 203.192 54.5719C203.059 55.0342 202.729 55.5627 202.201 56.1571L176.044 91.0324H199.328Z" fill="white"/>
<g clip-path="url(#clip0_521_276)">
<path fill-rule="evenodd" clip-rule="evenodd" d="M266.984 121.958C278.28 121.958 288.694 118.177 297.027 111.812L289.632 104.417C283.251 108.914 275.467 111.555 267.067 111.555C258.607 111.555 250.772 108.876 244.365 104.32L236.903 111.783C245.243 118.166 255.671 121.958 266.984 121.958ZM227.562 102.424L235.027 94.9595C230.506 88.5672 227.849 80.7622 227.849 72.3366C227.849 63.9362 230.49 56.1527 234.987 49.7711L227.592 42.3763C221.226 50.7099 217.445 61.1232 217.445 72.4196C217.445 83.6986 221.215 94.0972 227.562 102.424ZM316.523 72.4196C316.523 83.7158 312.742 94.1288 306.377 102.462L299.01 95.0953C303.59 88.6779 306.285 80.8219 306.285 72.3366C306.285 63.8765 303.606 56.042 299.05 49.6351L306.347 42.3383C312.73 50.6783 316.523 61.1061 316.523 72.4196ZM296.989 32.998C288.662 26.6502 278.263 22.8809 266.984 22.8809C255.688 22.8809 245.275 26.6617 236.941 33.027L244.308 40.3937C250.725 35.8132 258.581 33.1184 267.067 33.1184C275.492 33.1184 283.297 35.7754 289.69 40.2972L296.989 32.998Z" fill="#01E0CB"/>
<path d="M279.369 72.4196C279.369 79.2595 273.824 84.8043 266.984 84.8043C260.144 84.8043 254.6 79.2595 254.6 72.4196C254.6 65.5797 260.144 60.0349 266.984 60.0349C273.824 60.0349 279.369 65.5797 279.369 72.4196Z" fill="white"/>
<path fill-rule="evenodd" clip-rule="evenodd" d="M262.737 41.7053C249.006 43.5723 238.137 54.4412 236.27 68.1721H246.67C248.365 60.1628 254.704 53.8676 262.737 52.2371V41.7053ZM287.059 68.1721C285.376 60.218 279.112 53.9545 271.158 52.2715V41.7054C284.889 43.5725 295.758 54.4413 297.625 68.1721H287.059ZM271.158 92.6594C279.167 90.9649 285.462 84.6262 287.093 76.5937H297.625C295.758 90.3247 284.889 101.194 271.158 103.061V92.6594ZM246.636 76.5937C248.278 84.6816 254.649 91.0522 262.737 92.6938V103.061C249.006 101.194 238.137 90.3248 236.27 76.5937H246.636Z" fill="#0080FF"/>
</g>
<defs>
<clipPath id="clip0_521_276">
<rect width="102.494" height="102.494" fill="white" transform="translate(217.445 22.8809)"/>
</clipPath>
</defs>
</svg>
