<svg width="320" height="125" viewBox="0 0 320 125" fill="none" xmlns="http://www.w3.org/2000/svg">
<path d="M40.401 46.0019C52.2903 46.0019 58.2349 53.1355 58.2349 67.4026V94.3517C58.2349 95.6728 57.7726 96.7956 56.8478 97.7204C55.9892 98.6451 54.8663 99.1075 53.4792 99.1075C52.1582 99.1075 51.0353 98.6451 50.1106 97.7204C49.2519 96.7956 48.8226 95.6728 48.8226 94.3517V67.5017C48.8226 63.6047 47.9309 60.5002 46.1475 58.1884C44.3641 55.8766 41.4578 54.7207 37.4286 54.7207C34.7866 54.7207 32.3757 55.3152 30.196 56.5041C28.0823 57.627 26.398 59.1792 25.143 61.1607C23.9541 63.0762 23.3596 65.1899 23.3596 67.5017V94.3517C23.3596 95.6728 22.8973 96.7956 21.9725 97.7204C21.1139 98.6451 19.991 99.1075 18.6039 99.1075C17.2168 99.1075 16.0939 98.6781 15.2353 97.8194C14.3766 96.8947 13.9473 95.7388 13.9473 94.3517V51.9465C13.9473 50.6255 14.3766 49.5026 15.2353 48.5779C16.16 47.6532 17.2829 47.1908 18.6039 47.1908C19.991 47.1908 21.1139 47.6532 21.9725 48.5779C22.8973 49.5026 23.3596 50.6255 23.3596 51.9465V55.4142C25.077 52.7722 27.4548 50.5594 30.4932 48.776C33.5976 46.9266 36.9002 46.0019 40.401 46.0019Z" fill="white"/>
<path d="M117.866 71.1676C117.8 72.3565 117.305 73.3803 116.38 74.239C115.456 75.0316 114.366 75.4279 113.111 75.4279H78.2354C78.6978 80.2497 80.5142 84.1137 83.6847 87.02C86.9212 89.9263 90.8513 91.3794 95.4749 91.3794C98.6454 91.3794 101.221 90.917 103.203 89.9923C105.185 89.0676 106.935 87.8787 108.454 86.4255C109.445 85.8311 110.403 85.5338 111.327 85.5338C112.45 85.5338 113.375 85.9301 114.102 86.7228C114.894 87.5154 115.29 88.4401 115.29 89.4969C115.29 90.884 114.63 92.139 113.309 93.2619C111.393 95.1774 108.85 96.7956 105.68 98.1167C102.509 99.4377 99.2729 100.098 95.9703 100.098C90.6201 100.098 85.8974 98.9753 81.8022 96.7296C77.7731 94.4838 74.6356 91.3464 72.3899 87.3172C70.2102 83.2881 69.1203 78.7305 69.1203 73.6445C69.1203 68.0962 70.2432 63.2414 72.4889 59.0801C74.8007 54.8528 77.8061 51.6163 81.505 49.3705C85.2699 47.1248 89.2991 46.0019 93.5925 46.0019C97.8198 46.0019 101.783 47.0917 105.482 49.2714C109.181 51.4511 112.153 54.4565 114.399 58.2875C116.645 62.1185 117.8 66.4119 117.866 71.1676ZM93.5925 54.7207C89.8936 54.7207 86.6901 55.7775 83.9819 57.8912C81.2738 59.9388 79.4904 63.1423 78.6317 67.5017H107.86V66.7091C107.529 63.2083 105.944 60.3351 103.104 58.0893C100.33 55.8436 97.1592 54.7207 93.5925 54.7207Z" fill="white"/>
<path d="M142.865 56.405V85.9301C142.865 89.2327 144.351 90.884 147.323 90.884C147.786 90.884 148.413 90.7849 149.206 90.5868C149.999 90.3226 150.626 90.1905 151.088 90.1905C151.947 90.1905 152.674 90.5538 153.268 91.2803C153.863 92.0069 154.16 92.9316 154.16 94.0545C154.16 95.4416 153.367 96.6305 151.782 97.6213C150.197 98.6121 148.413 99.1075 146.432 99.1075C144.252 99.1075 142.237 98.8763 140.388 98.4139C138.605 97.9515 136.986 96.7956 135.533 94.9462C134.146 93.0307 133.453 90.1574 133.453 86.3264V56.405H127.706C126.451 56.405 125.394 56.0087 124.536 55.2161C123.743 54.3574 123.347 53.3006 123.347 52.0456C123.347 50.7906 123.743 49.7668 124.536 48.9742C125.394 48.1816 126.451 47.7853 127.706 47.7853H133.453V39.4628C133.453 38.1417 133.882 37.0188 134.741 36.0941C135.665 35.1694 136.821 34.707 138.208 34.707C139.529 34.707 140.619 35.1694 141.478 36.0941C142.403 37.0188 142.865 38.1417 142.865 39.4628V47.7853H151.088C152.343 47.7853 153.367 48.2146 154.16 49.0733C155.018 49.8659 155.448 50.8897 155.448 52.1447C155.448 53.3997 155.018 54.4235 154.16 55.2161C153.367 56.0087 152.343 56.405 151.088 56.405H142.865Z" fill="white"/>
<path d="M199.328 90.3886C200.583 90.3886 201.639 90.818 202.498 91.6766C203.357 92.4693 203.786 93.4931 203.786 94.748C203.786 96.003 203.357 97.0598 202.498 97.9185C201.639 98.7111 200.583 99.1075 199.328 99.1075H167.326C166.071 99.1075 165.014 98.6451 164.155 97.7204C163.362 96.7956 162.966 95.8379 162.966 94.8471C163.032 93.9884 163.164 93.2949 163.362 92.7665C163.561 92.172 163.924 91.5115 164.452 90.7849L190.411 56.1078H168.911C167.656 56.1078 166.599 55.6784 165.74 54.8198C164.882 53.9611 164.452 52.9043 164.452 51.6493C164.452 50.3943 164.849 49.3705 165.641 48.5779C166.5 47.7853 167.59 47.389 168.911 47.389H199.328C200.583 47.389 201.606 47.8513 202.399 48.776C203.258 49.7008 203.654 50.8236 203.588 52.1447C203.522 52.8052 203.39 53.3997 203.192 53.9281C203.059 54.3904 202.729 54.9189 202.201 55.5133L176.044 90.3886H199.328Z" fill="white"/>
<g clip-path="url(#clip0_521_262)">
<path fill-rule="evenodd" clip-rule="evenodd" d="M266.984 121.314C278.28 121.314 288.694 117.533 297.027 111.168L289.632 103.772C283.251 108.27 275.467 110.911 267.067 110.911C258.607 110.911 250.772 108.232 244.365 103.676L236.903 111.139C245.243 117.522 255.671 121.314 266.984 121.314ZM227.562 101.78L235.027 94.3155C230.506 87.9232 227.849 80.1182 227.849 71.6925C227.849 63.2922 230.49 55.5086 234.987 49.1271L227.592 41.7322C221.226 50.0659 217.445 60.4792 217.445 71.7756C217.445 83.0546 221.215 93.4532 227.562 101.78ZM316.523 71.7756C316.523 83.0717 312.742 93.4848 306.377 101.818L299.01 94.4512C303.59 88.0338 306.285 80.1779 306.285 71.6925C306.285 63.2324 303.606 55.398 299.05 48.9911L306.347 41.6943C312.73 50.0343 316.523 60.462 316.523 71.7756ZM296.989 32.354C288.662 26.0062 278.263 22.2368 266.984 22.2368C255.688 22.2368 245.275 26.0177 236.941 32.3829L244.308 39.7496C250.725 35.1692 258.581 32.4743 267.067 32.4743C275.492 32.4743 283.297 35.1313 289.69 39.6532L296.989 32.354Z" fill="#9B9B9B"/>
<path d="M279.369 71.7758C279.369 78.6157 273.824 84.1605 266.984 84.1605C260.144 84.1605 254.6 78.6157 254.6 71.7758C254.6 64.9359 260.144 59.3911 266.984 59.3911C273.824 59.3911 279.369 64.9359 279.369 71.7758Z" fill="white"/>
<path fill-rule="evenodd" clip-rule="evenodd" d="M262.737 41.0615C249.006 42.9285 238.137 53.7974 236.27 67.5283H246.67C248.365 59.519 254.704 53.2238 262.737 51.5933V41.0615ZM287.059 67.5283C285.376 59.5742 279.112 53.3107 271.158 51.6277V41.0616C284.889 42.9287 295.758 53.7975 297.625 67.5283H287.059ZM271.158 92.0156C279.167 90.3211 285.462 83.9824 287.093 75.9499H297.625C295.758 89.6809 284.889 100.55 271.158 102.417V92.0156ZM246.636 75.9499C248.278 84.0378 254.649 90.4084 262.737 92.05V102.417C249.006 100.55 238.137 89.681 236.27 75.9499H246.636Z" fill="#7B7B7B"/>
</g>
<defs>
<clipPath id="clip0_521_262">
<rect width="102.494" height="102.494" fill="white" transform="translate(217.445 22.2368)"/>
</clipPath>
</defs>
</svg>
