<svg xmlns="http://www.w3.org/2000/svg" width="320" height="126" fill="none" viewBox="0 0 320 126"><path fill="#000" d="M39.9908 46.8241C51.8801 46.8241 57.8248 53.9577 57.8248 68.2249V95.174C57.8248 96.495 57.3624 97.6179 56.4377 98.5426C55.579 99.4673 54.4561 99.9297 53.0691 99.9297C51.748 99.9297 50.6251 99.4673 49.7004 98.5426C48.8417 97.6179 48.4124 96.495 48.4124 95.174V68.324C48.4124 64.4269 47.5207 61.3225 45.7373 59.0107C43.9539 56.6989 41.0476 55.543 37.0185 55.543C34.3764 55.543 31.9655 56.1374 29.7858 57.3264C27.6722 58.4492 25.9879 60.0015 24.7329 61.983C23.5439 63.8985 22.9495 66.0122 22.9495 68.324V95.174C22.9495 96.495 22.4871 97.6179 21.5624 98.5426C20.7037 99.4673 19.5808 99.9297 18.1938 99.9297C16.8067 99.9297 15.6838 99.5004 14.8251 98.6417C13.9664 97.717 13.5371 96.5611 13.5371 95.174V52.7688C13.5371 51.4478 13.9664 50.3249 14.8251 49.4002C15.7498 48.4754 16.8727 48.0131 18.1938 48.0131C19.5808 48.0131 20.7037 48.4754 21.5624 49.4002C22.4871 50.3249 22.9495 51.4478 22.9495 52.7688V56.2365C24.6668 53.5944 27.0447 51.3817 30.0831 49.5983C33.1875 47.7489 36.4901 46.8241 39.9908 46.8241Z"/><path fill="#000" d="M117.456 71.9898C117.39 73.1788 116.895 74.2026 115.97 75.0612C115.045 75.8539 113.956 76.2502 112.701 76.2502H77.8253C78.2876 81.072 80.1041 84.936 83.2746 87.8423C86.5111 90.7485 90.4412 92.2017 95.0648 92.2017C98.2353 92.2017 100.811 91.7393 102.793 90.8146C104.774 89.8899 106.525 88.7009 108.044 87.2478C109.035 86.6533 109.992 86.3561 110.917 86.3561C112.04 86.3561 112.965 86.7524 113.691 87.545C114.484 88.3376 114.88 89.2624 114.88 90.3192C114.88 91.7063 114.22 92.9613 112.899 94.0841C110.983 95.9996 108.44 97.6179 105.27 98.9389C102.099 100.26 98.8627 100.92 95.5602 100.92C90.21 100.92 85.4873 99.7976 81.3921 97.5519C77.3629 95.3061 74.2255 92.1686 71.9797 88.1395C69.8 84.1103 68.7101 79.5528 68.7101 74.4668C68.7101 68.9184 69.833 64.0636 72.0788 59.9024C74.3906 55.6751 77.3959 52.4385 81.0948 50.1928C84.8598 47.947 88.8889 46.8241 93.1823 46.8241C97.4096 46.8241 101.373 47.914 105.072 50.0937C108.771 52.2734 111.743 55.2788 113.989 59.1098C116.234 62.9408 117.39 67.2341 117.456 71.9898ZM93.1823 55.543C89.4834 55.543 86.2799 56.5998 83.5718 58.7134C80.8637 60.761 79.0803 63.9646 78.2216 68.324H107.449V67.5314C107.119 64.0306 105.534 61.1574 102.694 58.9116C99.9196 56.6658 96.7491 55.543 93.1823 55.543Z"/><path fill="#000" d="M142.455 57.2273V86.7524C142.455 90.055 143.941 91.7063 146.913 91.7063C147.376 91.7063 148.003 91.6072 148.796 91.409C149.588 91.1448 150.216 91.0127 150.678 91.0127C151.537 91.0127 152.263 91.376 152.858 92.1026C153.452 92.8292 153.75 93.7539 153.75 94.8768C153.75 96.2638 152.957 97.4528 151.372 98.4435C149.787 99.4343 148.003 99.9297 146.022 99.9297C143.842 99.9297 141.827 99.6985 139.978 99.2362C138.194 98.7738 136.576 97.6179 135.123 95.7685C133.736 93.853 133.042 90.9797 133.042 87.1487V57.2273H127.296C126.041 57.2273 124.984 56.831 124.125 56.0384C123.333 55.1797 122.937 54.1229 122.937 52.8679C122.937 51.6129 123.333 50.5891 124.125 49.7965C124.984 49.0038 126.041 48.6075 127.296 48.6075H133.042V40.285C133.042 38.964 133.472 37.8411 134.33 36.9164C135.255 35.9917 136.411 35.5293 137.798 35.5293C139.119 35.5293 140.209 35.9917 141.068 36.9164C141.992 37.8411 142.455 38.964 142.455 40.285V48.6075H150.678C151.933 48.6075 152.957 49.0369 153.75 49.8955C154.608 50.6882 155.038 51.712 155.038 52.9669C155.038 54.2219 154.608 55.2457 153.75 56.0384C152.957 56.831 151.933 57.2273 150.678 57.2273H142.455Z"/><path fill="#000" d="M198.917 91.2109C200.172 91.2109 201.229 91.6402 202.088 92.4989C202.947 93.2915 203.376 94.3153 203.376 95.5703C203.376 96.8253 202.947 97.8821 202.088 98.7408C201.229 99.5334 200.172 99.9297 198.917 99.9297H166.915C165.66 99.9297 164.604 99.4673 163.745 98.5426C162.952 97.6179 162.556 96.6602 162.556 95.6694C162.622 94.8107 162.754 94.1172 162.952 93.5887C163.15 92.9943 163.514 92.3338 164.042 91.6072L190 56.9301H168.501C167.246 56.9301 166.189 56.5007 165.33 55.642C164.471 54.7834 164.042 53.7265 164.042 52.4716C164.042 51.2166 164.438 50.1928 165.231 49.4002C166.09 48.6075 167.18 48.2112 168.501 48.2112H198.917C200.172 48.2112 201.196 48.6736 201.989 49.5983C202.847 50.523 203.244 51.6459 203.178 52.9669C203.112 53.6275 202.98 54.2219 202.781 54.7503C202.649 55.2127 202.319 55.7411 201.791 56.3356L175.634 91.2109H198.917Z"/><g clip-path="url(#clip0_521_389)"><path fill="#000" fill-rule="evenodd" d="M266.574 122.137C277.87 122.137 288.284 118.356 296.617 111.99L289.222 104.595C282.84 109.092 275.057 111.733 266.657 111.733C258.196 111.733 250.362 109.054 243.955 104.499L236.493 111.961C244.833 118.344 255.26 122.137 266.574 122.137ZM227.152 102.603L234.617 95.1377C230.095 88.7455 227.438 80.9404 227.438 72.5148C227.438 64.1144 230.079 56.3309 234.577 49.9493L227.182 42.5545C220.816 50.8881 217.035 61.3014 217.035 72.5979C217.035 83.8768 220.805 94.2754 227.152 102.603ZM316.113 72.5979C316.113 83.894 312.332 94.307 305.967 102.641L298.599 95.2735C303.18 88.8561 305.875 81.0002 305.875 72.5148C305.875 64.0547 303.196 56.2202 298.64 49.8134L305.937 42.5166C312.32 50.8565 316.113 61.2843 316.113 72.5979ZM296.579 33.1762C288.251 26.8285 277.853 23.0591 266.574 23.0591C255.278 23.0591 244.865 26.8399 236.531 33.2052L243.898 40.5719C250.315 35.9914 258.171 33.2966 266.657 33.2966C275.082 33.2966 282.887 35.9536 289.28 40.4754L296.579 33.1762Z" clip-rule="evenodd"/><path fill="#000" d="M278.959 72.5981C278.959 79.438 273.414 84.9828 266.574 84.9828C259.734 84.9828 254.189 79.438 254.189 72.5981C254.189 65.7582 259.734 60.2134 266.574 60.2134C273.414 60.2134 278.959 65.7582 278.959 72.5981Z"/><path fill="#000" fill-rule="evenodd" d="M262.327 41.8838C248.596 43.7508 237.727 54.6197 235.859 68.3506H246.26C247.955 60.3412 254.294 54.046 262.327 52.4156V41.8838ZM286.648 68.3506C284.966 60.3965 278.702 54.1329 270.748 52.45V41.8838C284.479 43.7509 295.348 54.6198 297.215 68.3506H286.648ZM270.748 92.8379C278.757 91.1433 285.052 84.8047 286.683 76.7722H297.215C295.348 90.5032 284.479 101.372 270.748 103.239V92.8379ZM246.226 76.7722C247.868 84.8601 254.239 91.2307 262.327 92.8723V103.239C248.595 101.372 237.726 90.5033 235.859 76.7722H246.226Z" clip-rule="evenodd"/></g><defs><clipPath id="clip0_521_389"><rect width="102.494" height="102.494" fill="#fff" transform="translate(217.035 23.0591)"/></clipPath></defs></svg>