<svg width="320" height="125" viewBox="0 0 320 125" fill="none" xmlns="http://www.w3.org/2000/svg">
<path d="M39.9908 46.0019C51.8801 46.0019 57.8248 53.1355 57.8248 67.4026V94.3517C57.8248 95.6728 57.3624 96.7956 56.4377 97.7204C55.579 98.6451 54.4561 99.1075 53.0691 99.1075C51.748 99.1075 50.6251 98.6451 49.7004 97.7204C48.8417 96.7956 48.4124 95.6728 48.4124 94.3517V67.5017C48.4124 63.6047 47.5207 60.5002 45.7373 58.1884C43.9539 55.8766 41.0476 54.7207 37.0185 54.7207C34.3764 54.7207 31.9655 55.3152 29.7858 56.5041C27.6722 57.627 25.9879 59.1792 24.7329 61.1607C23.5439 63.0762 22.9495 65.1899 22.9495 67.5017V94.3517C22.9495 95.6728 22.4871 96.7956 21.5624 97.7204C20.7037 98.6451 19.5808 99.1075 18.1938 99.1075C16.8067 99.1075 15.6838 98.6781 14.8251 97.8194C13.9664 96.8947 13.5371 95.7388 13.5371 94.3517V51.9465C13.5371 50.6255 13.9664 49.5026 14.8251 48.5779C15.7498 47.6532 16.8727 47.1908 18.1938 47.1908C19.5808 47.1908 20.7037 47.6532 21.5624 48.5779C22.4871 49.5026 22.9495 50.6255 22.9495 51.9465V55.4142C24.6668 52.7722 27.0447 50.5594 30.0831 48.776C33.1875 46.9266 36.4901 46.0019 39.9908 46.0019Z" fill="black"/>
<path d="M117.456 71.1676C117.39 72.3565 116.895 73.3803 115.97 74.239C115.045 75.0316 113.956 75.4279 112.701 75.4279H77.8253C78.2876 80.2497 80.1041 84.1137 83.2746 87.02C86.5111 89.9263 90.4412 91.3794 95.0648 91.3794C98.2353 91.3794 100.811 90.917 102.793 89.9923C104.774 89.0676 106.525 87.8787 108.044 86.4255C109.035 85.8311 109.992 85.5338 110.917 85.5338C112.04 85.5338 112.965 85.9301 113.691 86.7228C114.484 87.5154 114.88 88.4401 114.88 89.4969C114.88 90.884 114.22 92.139 112.899 93.2619C110.983 95.1774 108.44 96.7956 105.27 98.1167C102.099 99.4377 98.8627 100.098 95.5602 100.098C90.21 100.098 85.4873 98.9753 81.3921 96.7296C77.3629 94.4838 74.2255 91.3464 71.9797 87.3172C69.8 83.2881 68.7101 78.7305 68.7101 73.6445C68.7101 68.0962 69.833 63.2414 72.0788 59.0801C74.3906 54.8528 77.3959 51.6163 81.0948 49.3705C84.8598 47.1248 88.8889 46.0019 93.1823 46.0019C97.4096 46.0019 101.373 47.0917 105.072 49.2714C108.771 51.4511 111.743 54.4565 113.989 58.2875C116.234 62.1185 117.39 66.4119 117.456 71.1676ZM93.1823 54.7207C89.4834 54.7207 86.2799 55.7775 83.5718 57.8912C80.8637 59.9388 79.0803 63.1423 78.2216 67.5017H107.449V66.7091C107.119 63.2083 105.534 60.3351 102.694 58.0893C99.9196 55.8436 96.7491 54.7207 93.1823 54.7207Z" fill="black"/>
<path d="M142.455 56.405V85.9301C142.455 89.2327 143.941 90.884 146.913 90.884C147.376 90.884 148.003 90.7849 148.796 90.5868C149.588 90.3226 150.216 90.1905 150.678 90.1905C151.537 90.1905 152.263 90.5538 152.858 91.2803C153.452 92.0069 153.75 92.9316 153.75 94.0545C153.75 95.4416 152.957 96.6305 151.372 97.6213C149.787 98.6121 148.003 99.1075 146.022 99.1075C143.842 99.1075 141.827 98.8763 139.978 98.4139C138.194 97.9515 136.576 96.7956 135.123 94.9462C133.736 93.0307 133.042 90.1574 133.042 86.3264V56.405H127.296C126.041 56.405 124.984 56.0087 124.125 55.2161C123.333 54.3574 122.937 53.3006 122.937 52.0456C122.937 50.7906 123.333 49.7668 124.125 48.9742C124.984 48.1816 126.041 47.7853 127.296 47.7853H133.042V39.4628C133.042 38.1417 133.472 37.0188 134.33 36.0941C135.255 35.1694 136.411 34.707 137.798 34.707C139.119 34.707 140.209 35.1694 141.068 36.0941C141.992 37.0188 142.455 38.1417 142.455 39.4628V47.7853H150.678C151.933 47.7853 152.957 48.2146 153.75 49.0733C154.608 49.8659 155.038 50.8897 155.038 52.1447C155.038 53.3997 154.608 54.4235 153.75 55.2161C152.957 56.0087 151.933 56.405 150.678 56.405H142.455Z" fill="black"/>
<path d="M198.917 90.3886C200.172 90.3886 201.229 90.818 202.088 91.6766C202.947 92.4693 203.376 93.4931 203.376 94.748C203.376 96.003 202.947 97.0598 202.088 97.9185C201.229 98.7111 200.172 99.1075 198.917 99.1075H166.915C165.66 99.1075 164.604 98.6451 163.745 97.7204C162.952 96.7956 162.556 95.8379 162.556 94.8471C162.622 93.9884 162.754 93.2949 162.952 92.7665C163.15 92.172 163.514 91.5115 164.042 90.7849L190 56.1078H168.501C167.246 56.1078 166.189 55.6784 165.33 54.8198C164.471 53.9611 164.042 52.9043 164.042 51.6493C164.042 50.3943 164.438 49.3705 165.231 48.5779C166.09 47.7853 167.18 47.389 168.501 47.389H198.917C200.172 47.389 201.196 47.8513 201.989 48.776C202.847 49.7008 203.244 50.8236 203.178 52.1447C203.112 52.8052 202.98 53.3997 202.781 53.9281C202.649 54.3904 202.319 54.9189 201.791 55.5133L175.634 90.3886H198.917Z" fill="black"/>
<g clip-path="url(#clip0_521_382)">
<path fill-rule="evenodd" clip-rule="evenodd" d="M266.574 121.315C277.87 121.315 288.284 117.534 296.617 111.168L289.222 103.773C282.84 108.27 275.057 110.911 266.657 110.911C258.196 110.911 250.362 108.232 243.955 103.677L236.493 111.139C244.833 117.522 255.26 121.315 266.574 121.315ZM227.152 101.781L234.617 94.316C230.095 87.9237 227.438 80.1186 227.438 71.693C227.438 63.2926 230.079 55.5091 234.577 49.1276L227.182 41.7327C220.816 50.0664 217.035 60.4797 217.035 71.7761C217.035 83.0551 220.805 93.4536 227.152 101.781ZM316.113 71.7761C316.113 83.0722 312.332 93.4853 305.967 101.819L298.599 94.4517C303.18 88.0343 305.875 80.1784 305.875 71.693C305.875 63.2329 303.196 55.3984 298.64 48.9916L305.937 41.6948C312.32 50.0348 316.113 60.4625 316.113 71.7761ZM296.579 32.3545C288.251 26.0067 277.853 22.2373 266.574 22.2373C255.278 22.2373 244.865 26.0182 236.531 32.3834L243.898 39.7501C250.315 35.1696 258.171 32.4748 266.657 32.4748C275.082 32.4748 282.887 35.1318 289.28 39.6537L296.579 32.3545Z" fill="#9B9B9B"/>
<path d="M278.959 71.7763C278.959 78.6162 273.414 84.161 266.574 84.161C259.734 84.161 254.189 78.6162 254.189 71.7763C254.189 64.9364 259.734 59.3916 266.574 59.3916C273.414 59.3916 278.959 64.9364 278.959 71.7763Z" fill="black"/>
<path fill-rule="evenodd" clip-rule="evenodd" d="M262.327 41.062C248.596 42.929 237.727 53.7979 235.859 67.5288H246.26C247.955 59.5194 254.294 53.2242 262.327 51.5938V41.062ZM286.648 67.5288C284.966 59.5747 278.702 53.3111 270.748 51.6282V41.062C284.479 42.9292 295.348 53.798 297.215 67.5288H286.648ZM270.748 92.0161C278.757 90.3216 285.052 83.9829 286.683 75.9504H297.215C295.348 89.6814 284.479 100.55 270.748 102.418V92.0161ZM246.226 75.9504C247.868 84.0383 254.239 90.4089 262.327 92.0505V102.418C248.595 100.551 237.726 89.6815 235.859 75.9504H246.226Z" fill="#7B7B7B"/>
</g>
<defs>
<clipPath id="clip0_521_382">
<rect width="102.494" height="102.494" fill="white" transform="translate(217.035 22.2373)"/>
</clipPath>
</defs>
</svg>
