<svg width="172" height="172" viewBox="0 0 172 172" fill="none" xmlns="http://www.w3.org/2000/svg">
<path fill-rule="evenodd" clip-rule="evenodd" d="M86.0738 171.196C105.55 171.196 123.504 164.678 137.872 153.703L125.122 140.953C114.119 148.706 100.7 153.26 86.2161 153.26C71.6296 153.26 58.1219 148.641 47.0756 140.787L34.2097 153.652C48.589 164.658 66.5678 171.196 86.0738 171.196ZM18.1057 137.517L30.9757 124.647C23.1796 113.626 18.5986 100.169 18.5986 85.6424C18.5986 71.1589 23.1522 57.7391 30.9059 46.7364L18.1559 33.9863C7.18099 48.3546 0.662109 66.3084 0.662109 85.7847C0.662109 105.231 7.16111 123.16 18.1057 137.517ZM171.485 85.7847C171.485 105.261 164.967 123.215 153.992 137.583L141.29 124.881C149.187 113.817 153.834 100.272 153.834 85.6424C153.834 71.0559 149.215 57.5481 141.36 46.5018L153.942 33.9206C164.947 48.2999 171.485 66.2787 171.485 85.7847ZM137.806 17.8166C123.449 6.87205 105.52 0.373047 86.0738 0.373047C66.5975 0.373047 48.6437 6.89191 34.2754 17.8667L46.9771 30.5684C58.0415 22.671 71.5862 18.0248 86.2161 18.0248C100.743 18.0248 114.2 22.6058 125.221 30.402L137.806 17.8166Z" fill="#9B9B9B"/>
<path d="M107.427 85.7848C107.427 97.5777 97.8665 107.138 86.0736 107.138C74.2807 107.138 64.7207 97.5777 64.7207 85.7848C64.7207 73.9919 74.2807 64.4319 86.0736 64.4319C97.8665 64.4319 107.427 73.9919 107.427 85.7848Z" fill="white"/>
<path fill-rule="evenodd" clip-rule="evenodd" d="M78.7519 32.8294C55.0778 36.0485 36.3382 54.7882 33.1191 78.4623H51.0521C53.9735 64.6533 64.9025 53.7995 78.7519 50.9883V32.8294ZM120.687 78.4623C117.785 64.7481 106.986 53.9488 93.2719 51.0474V32.8293C116.946 36.0484 135.686 54.7882 138.905 78.4623H120.687ZM93.2719 120.682C107.081 117.76 117.934 106.832 120.746 92.9823H138.905C135.685 116.656 116.946 135.396 93.2719 138.615V120.682ZM50.9931 92.9823C53.8237 106.927 64.8075 117.911 78.7519 120.741V138.615C55.0779 135.396 36.3384 116.656 33.1192 92.9823H50.9931Z" fill="#7B7B7B"/>
</svg>
