<svg xmlns="http://www.w3.org/2000/svg" width="460" height="172" fill="none" viewBox="0 0 460 172"><path fill="#000" d="M231.821 60.2623C243.71 60.2623 249.655 67.3958 249.655 81.663V108.612C249.655 109.933 249.192 111.056 248.268 111.981C247.409 112.905 246.286 113.368 244.899 113.368C243.578 113.368 242.455 112.905 241.531 111.981C240.672 111.056 240.242 109.933 240.242 108.612V81.7621C240.242 77.865 239.351 74.7606 237.567 72.4488C235.784 70.137 232.878 68.9811 228.849 68.9811C226.207 68.9811 223.796 69.5755 221.616 70.7645C219.502 71.8874 217.818 73.4396 216.563 75.4211C215.374 77.3366 214.78 79.4503 214.78 81.7621V108.612C214.78 109.933 214.317 111.056 213.392 111.981C212.534 112.905 211.411 113.368 210.024 113.368C208.637 113.368 207.514 112.938 206.655 112.08C205.797 111.155 205.367 109.999 205.367 108.612V66.2069C205.367 64.8859 205.797 63.763 206.655 62.8383C207.58 61.9135 208.703 61.4512 210.024 61.4512C211.411 61.4512 212.534 61.9135 213.392 62.8383C214.317 63.763 214.78 64.8859 214.78 66.2069V69.6746C216.497 67.0326 218.875 64.8198 221.913 63.0364C225.018 61.187 228.32 60.2623 231.821 60.2623Z"/><path fill="#000" d="M309.286 85.428C309.22 86.6169 308.725 87.6407 307.8 88.4994C306.876 89.292 305.786 89.6883 304.531 89.6883H269.655C270.118 94.5101 271.934 98.3741 275.105 101.28C278.341 104.187 282.271 105.64 286.895 105.64C290.065 105.64 292.641 105.177 294.623 104.253C296.604 103.328 298.355 102.139 299.874 100.686C300.865 100.091 301.823 99.7942 302.747 99.7942C303.87 99.7942 304.795 100.191 305.521 100.983C306.314 101.776 306.71 102.7 306.71 103.757C306.71 105.144 306.05 106.399 304.729 107.522C302.813 109.438 300.27 111.056 297.1 112.377C293.929 113.698 290.693 114.359 287.39 114.359C282.04 114.359 277.317 113.236 273.222 110.99C269.193 108.744 266.056 105.607 263.81 101.578C261.63 97.5484 260.54 92.9909 260.54 87.9049C260.54 82.3565 261.663 77.5017 263.909 73.3405C266.221 69.1132 269.226 65.8766 272.925 63.6309C276.69 61.3851 280.719 60.2623 285.012 60.2623C289.24 60.2623 293.203 61.3521 296.902 63.5318C300.601 65.7115 303.573 68.7169 305.819 72.5479C308.064 76.3789 309.22 80.6722 309.286 85.428ZM285.012 68.9811C281.313 68.9811 278.11 70.0379 275.402 72.1516C272.694 74.1992 270.91 77.4027 270.052 81.7621H299.28V80.9695C298.949 77.4687 297.364 74.5955 294.524 72.3497C291.75 70.104 288.579 68.9811 285.012 68.9811Z"/><path fill="#000" d="M334.285 70.6654V100.191C334.285 103.493 335.771 105.144 338.743 105.144C339.206 105.144 339.833 105.045 340.626 104.847C341.418 104.583 342.046 104.451 342.508 104.451C343.367 104.451 344.094 104.814 344.688 105.541C345.283 106.267 345.58 107.192 345.58 108.315C345.58 109.702 344.787 110.891 343.202 111.882C341.617 112.872 339.833 113.368 337.852 113.368C335.672 113.368 333.657 113.137 331.808 112.674C330.025 112.212 328.406 111.056 326.953 109.207C325.566 107.291 324.873 104.418 324.873 100.587V70.6654H319.126C317.871 70.6654 316.814 70.2691 315.956 69.4765C315.163 68.6178 314.767 67.561 314.767 66.306C314.767 65.051 315.163 64.0272 315.956 63.2346C316.814 62.442 317.871 62.0456 319.126 62.0456H324.873V53.7231C324.873 52.4021 325.302 51.2792 326.161 50.3545C327.085 49.4298 328.241 48.9674 329.628 48.9674C330.949 48.9674 332.039 49.4298 332.898 50.3545C333.823 51.2792 334.285 52.4021 334.285 53.7231V62.0456H342.508C343.763 62.0456 344.787 62.475 345.58 63.3337C346.438 64.1263 346.868 65.1501 346.868 66.4051C346.868 67.66 346.438 68.6838 345.58 69.4765C344.787 70.2691 343.763 70.6654 342.508 70.6654H334.285Z"/><path fill="#000" d="M390.747 104.649C392.002 104.649 393.059 105.078 393.918 105.937C394.777 106.73 395.206 107.753 395.206 109.008C395.206 110.263 394.777 111.32 393.918 112.179C393.059 112.972 392.002 113.368 390.747 113.368H358.745C357.49 113.368 356.434 112.905 355.575 111.981C354.782 111.056 354.386 110.098 354.386 109.107C354.452 108.249 354.584 107.555 354.782 107.027C354.98 106.432 355.344 105.772 355.872 105.045L381.831 70.3682H360.331C359.076 70.3682 358.019 69.9388 357.16 69.0802C356.302 68.2215 355.872 67.1647 355.872 65.9097C355.872 64.6547 356.268 63.6309 357.061 62.8383C357.92 62.0456 359.01 61.6493 360.331 61.6493H390.747C392.002 61.6493 393.026 62.1117 393.819 63.0364C394.678 63.9611 395.074 65.084 395.008 66.4051C394.942 67.0656 394.81 67.66 394.612 68.1885C394.479 68.6508 394.149 69.1792 393.621 69.7737L367.464 104.649H390.747Z"/><path fill="#000" d="M453.826 87.4095C453.826 92.5615 452.67 97.1852 450.358 101.28C448.046 105.376 444.876 108.579 440.847 110.891C436.884 113.203 432.491 114.359 427.669 114.359C422.848 114.359 418.422 113.203 414.393 110.891C410.43 108.579 407.292 105.376 404.981 101.28C402.669 97.1852 401.513 92.5615 401.513 87.4095C401.513 82.2575 402.669 77.6008 404.981 73.4396C407.292 69.2783 410.43 66.0418 414.393 63.73C418.422 61.4182 422.848 60.2623 427.669 60.2623C432.491 60.2623 436.884 61.4182 440.847 63.73C444.876 66.0418 448.046 69.2783 450.358 73.4396C452.67 77.6008 453.826 82.2575 453.826 87.4095ZM444.413 87.4095C444.413 83.8427 443.654 80.6722 442.135 77.8981C440.682 75.0578 438.667 72.8781 436.091 71.3589C433.581 69.7737 430.774 68.9811 427.669 68.9811C424.565 68.9811 421.725 69.7737 419.149 71.3589C416.639 72.8781 414.624 75.0578 413.105 77.8981C411.652 80.6722 410.925 83.8427 410.925 87.4095C410.925 90.9102 411.652 94.0477 413.105 96.8219C414.624 99.596 416.639 101.776 419.149 103.361C421.725 104.88 424.565 105.64 427.669 105.64C430.774 105.64 433.581 104.88 436.091 103.361C438.667 101.776 440.682 99.596 442.135 96.8219C443.654 94.0477 444.413 90.9102 444.413 87.4095Z"/><path fill="#000" fill-rule="evenodd" d="M85.4644 171.448C104.941 171.448 122.895 164.929 137.263 153.954L124.513 141.204C113.51 148.958 100.09 153.511 85.6068 153.511C71.0203 153.511 57.5125 148.893 46.4662 141.038L33.6003 153.904C47.9796 164.909 65.9584 171.448 85.4644 171.448ZM17.4963 137.769L30.3664 124.899C22.5702 113.878 17.9892 100.421 17.9892 85.8938C17.9892 71.4104 22.5428 57.9905 30.2965 46.9878L17.5465 34.2378C6.57162 48.6061 0.0527344 66.5599 0.0527344 86.0362C0.0527344 105.483 6.55174 123.412 17.4963 137.769ZM170.876 86.0362C170.876 105.512 164.357 123.466 153.382 137.835L140.681 125.133C148.578 114.068 153.224 100.524 153.224 85.8938C153.224 71.3073 148.606 57.7996 140.751 46.7533L153.332 34.1721C164.337 48.5514 170.876 66.5302 170.876 86.0362ZM137.197 18.0681C122.84 7.12351 104.911 0.624512 85.4644 0.624512C65.9881 0.624512 48.0344 7.14337 33.6661 18.1182L46.3677 30.8198C57.4322 22.9225 70.9769 18.2763 85.6068 18.2763C100.134 18.2763 113.591 22.8572 124.612 30.6534L137.197 18.0681Z" clip-rule="evenodd"/><path fill="#000" d="M106.817 86.0361C106.817 97.829 97.2571 107.389 85.4642 107.389C73.6714 107.389 64.1113 97.829 64.1113 86.0361C64.1113 74.2433 73.6714 64.6832 85.4642 64.6832C97.2571 64.6832 106.817 74.2433 106.817 86.0361Z"/><path fill="#000" fill-rule="evenodd" d="M78.1425 33.0809C54.4685 36.3 35.7289 55.0396 32.5098 78.7136H50.4428C53.3642 64.9046 64.2932 54.0509 78.1425 51.2396V33.0809ZM120.077 78.7136C117.176 64.9994 106.377 54.2001 92.6625 51.2987V33.0809C116.337 36.3 135.076 55.0396 138.295 78.7136H120.077ZM92.6625 120.933C106.472 118.012 117.325 107.083 120.136 93.2336H138.295C135.076 116.908 116.337 135.647 92.6625 138.866V120.933ZM50.3838 93.2336C53.2144 107.178 64.1981 118.162 78.1425 120.992V138.866C54.4685 135.647 35.7288 116.908 32.5098 93.2336H50.3838Z" clip-rule="evenodd"/></svg>