<svg xmlns="http://www.w3.org/2000/svg" width="308" height="70" fill="none" viewBox="0 0 308 70"><path fill="#0080FF" d="M300.705 0.819336H7.44144C4.19356 0.819336 0.332031 4.26559 0.332031 7.65227V62.3157C0.332031 65.7024 4.19356 69.1487 7.44144 69.1487H300.506C303.754 69.1487 307.814 65.7024 307.814 62.3157V7.65227C307.814 4.26559 303.953 0.819336 300.705 0.819336Z"/><path fill="#fff" fill-rule="evenodd" d="M44.7657 53.7745C49.2238 53.7745 53.3335 52.3404 56.6224 49.9259L53.7042 47.1212C51.1856 48.8271 48.1137 49.829 44.7983 49.829C41.4595 49.829 38.3676 48.8129 35.8392 47.0849L32.8944 49.9152C36.1858 52.3361 40.301 53.7745 44.7657 53.7745ZM29.2081 46.3656L32.1538 43.5344C30.3692 41.1097 29.3205 38.1491 29.3205 34.9531C29.3205 31.7666 30.3629 28.8142 32.1378 26.3936L29.2191 23.5884C26.707 26.7494 25.2148 30.6992 25.2148 34.9839C25.2148 39.2624 26.7026 43.2069 29.2081 46.3656ZM64.3166 34.9839C64.3166 39.2687 62.8244 43.2186 60.3122 46.3796L57.405 43.5855C59.2126 41.1513 60.2761 38.1716 60.2761 34.9531C60.2761 31.7441 59.2189 28.7725 57.4211 26.3423L60.3011 23.5743C62.82 26.7376 64.3166 30.6928 64.3166 34.9839ZM56.6079 20.0313C53.3214 17.6233 49.2173 16.1934 44.7657 16.1934C40.3075 16.1934 36.1978 17.6275 32.9089 20.042L35.8166 22.8367C38.3493 21.0993 41.4496 20.0772 44.7983 20.0772C48.1236 20.0772 51.204 21.0851 53.7268 22.8003L56.6079 20.0313Z" clip-rule="evenodd"/><path fill="#fff" d="M49.6544 34.9838C49.6544 37.5782 47.4661 39.6814 44.7667 39.6814C42.0672 39.6814 39.8789 37.5782 39.8789 34.9838C39.8789 32.3893 42.0672 30.2861 44.7667 30.2861C47.4661 30.2861 49.6544 32.3893 49.6544 34.9838Z"/><path fill="#fff" fill-rule="evenodd" d="M43.09 23.335C37.6706 24.0433 33.381 28.1665 32.6445 33.3753H36.7491C37.4177 30.337 39.9195 27.9489 43.09 27.3305V23.335ZM52.6887 33.3753C52.0248 30.358 49.5528 27.982 46.4136 27.3436V23.335C51.833 24.0432 56.1228 28.1664 56.8593 33.3753H52.6887ZM46.4136 42.6631C49.5742 42.0204 52.0584 39.6162 52.7021 36.5697H56.859C56.1217 41.7775 51.8323 45.8997 46.4136 46.6079V42.6631ZM36.7357 36.5697C37.3838 39.6373 39.8981 42.0536 43.09 42.6762V46.6078C37.6714 45.8996 33.3821 41.7774 32.6448 36.5697H36.7357Z" clip-rule="evenodd"/><path fill="#fff" d="M112.23 35.6676C112.23 37.5443 111.838 39.2298 111.055 40.7239C110.271 42.2181 109.187 43.3933 107.802 44.2497C106.418 45.0879 104.842 45.507 103.074 45.507C101.307 45.507 99.7305 45.0879 98.3457 44.2497C96.9609 43.3933 95.8767 42.2181 95.0932 40.7239C94.3097 39.2298 93.918 37.5443 93.918 35.6676C93.918 33.7726 94.3097 32.078 95.0932 30.5838C95.8767 29.0897 96.9609 27.9236 98.3457 27.0854C99.7305 26.2472 101.307 25.8281 103.074 25.8281C104.842 25.8281 106.418 26.2472 107.802 27.0854C109.187 27.9236 110.271 29.0897 111.055 30.5838C111.838 32.078 112.23 33.7726 112.23 35.6676ZM110.481 35.6676C110.481 34.0823 110.162 32.6702 109.524 31.4311C108.905 30.1739 108.03 29.199 106.901 28.5066C105.789 27.8142 104.514 27.468 103.074 27.468C101.635 27.468 100.35 27.8142 99.2203 28.5066C98.1088 29.199 97.2342 30.1739 96.5965 31.4311C95.977 32.6702 95.6672 34.0823 95.6672 35.6676C95.6672 37.2528 95.977 38.674 96.5965 39.9313C97.2342 41.1703 98.1088 42.1361 99.2203 42.8285C100.35 43.5209 101.635 43.8671 103.074 43.8671C104.514 43.8671 105.789 43.5209 106.901 42.8285C108.03 42.1361 108.905 41.1703 109.524 39.9313C110.162 38.674 110.481 37.2528 110.481 35.6676Z"/><path fill="#fff" d="M122.333 31.1578C123.535 31.1578 124.629 31.4676 125.613 32.0871C126.596 32.6884 127.362 33.5357 127.908 34.6289C128.473 35.704 128.756 36.9157 128.756 38.2641C128.756 39.6307 128.473 40.8606 127.908 41.9539C127.362 43.0289 126.596 43.8762 125.613 44.4957C124.647 45.1152 123.563 45.425 122.36 45.425C121.303 45.425 120.328 45.179 119.436 44.687C118.561 44.1768 117.859 43.5027 117.331 42.6645V49.8801C117.331 50.1169 117.249 50.3083 117.085 50.454C116.939 50.618 116.748 50.7 116.511 50.7C116.274 50.7 116.074 50.618 115.91 50.454C115.764 50.3083 115.691 50.1169 115.691 49.8801V32.0598C115.691 31.8229 115.764 31.6225 115.91 31.4585C116.074 31.2945 116.274 31.2125 116.511 31.2125C116.748 31.2125 116.939 31.2945 117.085 31.4585C117.249 31.6225 117.331 31.8229 117.331 32.0598V33.9183C117.805 33.0619 118.488 32.3877 119.381 31.8958C120.274 31.4038 121.258 31.1578 122.333 31.1578ZM122.196 43.8944C123.144 43.8944 123.991 43.6575 124.738 43.1838C125.503 42.6918 126.095 42.0176 126.514 41.1612C126.952 40.3048 127.17 39.3391 127.17 38.2641C127.17 37.2072 126.952 36.2597 126.514 35.4216C126.095 34.5652 125.503 33.9001 124.738 33.4263C123.991 32.9344 123.144 32.6884 122.196 32.6884C121.23 32.6884 120.365 32.9253 119.6 33.399C118.834 33.8728 118.242 34.5378 117.823 35.3942C117.404 36.2324 117.194 37.189 117.194 38.2641C117.194 39.3391 117.404 40.3048 117.823 41.1612C118.242 42.0176 118.834 42.6918 119.6 43.1838C120.365 43.6575 121.23 43.8944 122.196 43.8944Z"/><path fill="#fff" d="M143.94 37.4441C143.94 37.6628 143.858 37.8541 143.694 38.0181C143.53 38.1639 143.339 38.2367 143.12 38.2367H132.789C132.789 39.33 133.007 40.3139 133.445 41.1886C133.9 42.045 134.538 42.7283 135.358 43.2384C136.196 43.7304 137.18 43.9764 138.31 43.9764C139.184 43.9764 139.968 43.7942 140.66 43.4298C141.353 43.0653 141.909 42.6007 142.328 42.0358C142.528 41.8719 142.719 41.7899 142.902 41.7899C143.084 41.7899 143.248 41.8627 143.394 42.0085C143.539 42.1543 143.612 42.3183 143.612 42.5005C143.612 42.7009 143.521 42.8922 143.339 43.0745C142.756 43.7851 142.018 44.3682 141.125 44.8237C140.25 45.2792 139.321 45.507 138.337 45.507C136.934 45.507 135.695 45.2063 134.62 44.605C133.545 44.0037 132.707 43.1656 132.106 42.0905C131.504 40.9972 131.204 39.74 131.204 38.3187C131.204 36.8246 131.495 35.5218 132.078 34.4103C132.679 33.2806 133.472 32.4242 134.456 31.8411C135.44 31.2398 136.488 30.9392 137.599 30.9392C138.692 30.9392 139.713 31.1943 140.66 31.7044C141.626 32.2146 142.41 32.9617 143.011 33.9457C143.612 34.9296 143.922 36.0957 143.94 37.4441ZM137.599 32.5244C136.542 32.5244 135.558 32.8888 134.647 33.6177C133.755 34.3465 133.181 35.3942 132.925 36.7608H142.246V36.5422C142.155 35.7222 141.881 35.0116 141.426 34.4103C140.97 33.7908 140.396 33.3261 139.704 33.0164C139.03 32.6884 138.328 32.5244 137.599 32.5244Z"/><path fill="#fff" d="M153.907 30.9392C155.602 30.9392 156.841 31.4402 157.624 32.4424C158.426 33.4263 158.827 34.7383 158.827 36.3782V44.4137C158.827 44.6506 158.745 44.851 158.581 45.015C158.417 45.1608 158.225 45.2337 158.007 45.2337C157.77 45.2337 157.57 45.1608 157.406 45.015C157.26 44.851 157.187 44.6506 157.187 44.4137V36.4602C157.187 35.2758 156.886 34.3192 156.285 33.5903C155.702 32.8433 154.791 32.4697 153.552 32.4697C152.768 32.4697 152.021 32.6519 151.311 33.0164C150.618 33.3808 150.053 33.8728 149.616 34.4923C149.179 35.0936 148.96 35.7495 148.96 36.4602V44.4137C148.96 44.6506 148.878 44.851 148.714 45.015C148.568 45.1608 148.377 45.2337 148.14 45.2337C147.903 45.2337 147.703 45.1608 147.539 45.015C147.393 44.851 147.32 44.6506 147.32 44.4137V32.1691C147.32 31.9322 147.393 31.7409 147.539 31.5951C147.703 31.4311 147.903 31.3491 148.14 31.3491C148.377 31.3491 148.568 31.4311 148.714 31.5951C148.878 31.7409 148.96 31.9322 148.96 32.1691V33.6723C149.452 32.8888 150.154 32.242 151.065 31.7318C151.994 31.2034 152.941 30.9392 153.907 30.9392Z"/><path fill="#fff" d="M172.18 44.4137C172.18 44.6506 172.098 44.851 171.934 45.015C171.788 45.1608 171.597 45.2337 171.36 45.2337C171.123 45.2337 170.923 45.1608 170.759 45.015C170.613 44.851 170.54 44.6506 170.54 44.4137V31.8411C170.54 31.6042 170.613 31.4129 170.759 31.2671C170.923 31.1032 171.123 31.0212 171.36 31.0212C171.597 31.0212 171.788 31.1032 171.934 31.2671C172.098 31.4129 172.18 31.6042 172.18 31.8411V44.4137ZM171.36 29.1899C170.996 29.1899 170.713 29.1079 170.513 28.9439C170.312 28.7617 170.212 28.5066 170.212 28.1787V27.9053C170.212 27.5774 170.312 27.3314 170.513 27.1674C170.731 26.9852 171.023 26.8941 171.387 26.8941C172.116 26.8941 172.481 27.2312 172.481 27.9053V28.1787C172.481 28.5066 172.38 28.7617 172.18 28.9439C171.998 29.1079 171.725 29.1899 171.36 29.1899Z"/><path fill="#fff" d="M183.027 30.9392C184.722 30.9392 185.961 31.4402 186.744 32.4424C187.546 33.4263 187.947 34.7383 187.947 36.3782V44.4137C187.947 44.6506 187.865 44.851 187.701 45.015C187.537 45.1608 187.346 45.2337 187.127 45.2337C186.89 45.2337 186.69 45.1608 186.526 45.015C186.38 44.851 186.307 44.6506 186.307 44.4137V36.4602C186.307 35.2758 186.006 34.3192 185.405 33.5903C184.822 32.8433 183.911 32.4697 182.672 32.4697C181.888 32.4697 181.141 32.6519 180.431 33.0164C179.738 33.3808 179.173 33.8728 178.736 34.4923C178.299 35.0936 178.08 35.7495 178.08 36.4602V44.4137C178.08 44.6506 177.998 44.851 177.834 45.015C177.688 45.1608 177.497 45.2337 177.26 45.2337C177.023 45.2337 176.823 45.1608 176.659 45.015C176.513 44.851 176.44 44.6506 176.44 44.4137V32.1691C176.44 31.9322 176.513 31.7409 176.659 31.5951C176.823 31.4311 177.023 31.3491 177.26 31.3491C177.497 31.3491 177.688 31.4311 177.834 31.5951C177.998 31.7409 178.08 31.9322 178.08 32.1691V33.6723C178.572 32.8888 179.274 32.242 180.185 31.7318C181.114 31.2034 182.061 30.9392 183.027 30.9392Z"/><path fill="#fff" d="M207.149 30.3379C209.008 30.3379 210.292 30.8936 211.003 32.0051C211.713 33.0984 212.069 34.6198 212.069 36.5695V43.5664C212.069 44.0402 211.914 44.441 211.604 44.769C211.294 45.0788 210.903 45.2337 210.429 45.2337C209.955 45.2337 209.563 45.0788 209.254 44.769C208.944 44.441 208.789 44.0402 208.789 43.5664V36.5695C208.789 35.5673 208.579 34.7838 208.16 34.219C207.741 33.6359 207.022 33.3444 206.001 33.3444C204.944 33.3444 204.115 33.6541 203.514 34.2736C202.913 34.8749 202.612 35.6402 202.612 36.5695V43.5664C202.612 44.0402 202.457 44.441 202.147 44.769C201.838 45.0788 201.446 45.2337 200.972 45.2337C200.498 45.2337 200.107 45.0788 199.797 44.769C199.487 44.441 199.332 44.0402 199.332 43.5664V32.2784C199.332 31.8047 199.487 31.4129 199.797 31.1032C200.107 30.7752 200.498 30.6112 200.972 30.6112C201.446 30.6112 201.838 30.7752 202.147 31.1032C202.457 31.4129 202.612 31.8047 202.612 32.2784V32.7431C203.104 32.0871 203.742 31.5222 204.525 31.0485C205.327 30.5747 206.202 30.3379 207.149 30.3379Z"/><path fill="#fff" d="M228.733 37.5808C228.715 38.0181 228.542 38.3734 228.214 38.6467C227.886 38.92 227.503 39.0567 227.066 39.0567H218.046C218.265 40.1317 218.766 40.979 219.55 41.5985C220.333 42.1998 221.217 42.5005 222.201 42.5005C222.948 42.5005 223.531 42.4367 223.95 42.3092C224.369 42.1634 224.697 42.0176 224.934 41.8719C225.189 41.7079 225.362 41.5985 225.453 41.5439C225.781 41.3799 226.091 41.2979 226.383 41.2979C226.765 41.2979 227.093 41.4345 227.366 41.7079C227.64 41.9812 227.776 42.3001 227.776 42.6645C227.776 43.1564 227.521 43.6029 227.011 44.0037C226.501 44.4228 225.818 44.7781 224.961 45.0697C224.105 45.3612 223.239 45.507 222.365 45.507C220.834 45.507 219.495 45.1881 218.347 44.5504C217.217 43.9126 216.343 43.038 215.723 41.9265C215.104 40.7968 214.794 39.5304 214.794 38.1274C214.794 36.5604 215.122 35.1847 215.778 34.0003C216.434 32.8159 217.299 31.914 218.374 31.2945C219.449 30.6567 220.597 30.3379 221.818 30.3379C223.021 30.3379 224.15 30.6658 225.207 31.3218C226.282 31.9778 227.139 32.8615 227.776 33.973C228.414 35.0845 228.733 36.2871 228.733 37.5808ZM221.818 33.3444C219.704 33.3444 218.456 34.3374 218.074 36.3235H225.235V36.1322C225.162 35.3669 224.788 34.7109 224.114 34.1643C223.44 33.6177 222.675 33.3444 221.818 33.3444Z"/><path fill="#fff" d="M238.52 42.1452C238.775 42.1452 239.003 42.2727 239.203 42.5278C239.422 42.7647 239.531 43.0836 239.531 43.4844C239.531 43.9764 239.258 44.3955 238.711 44.7417C238.183 45.0697 237.582 45.2337 236.907 45.2337C235.778 45.2337 234.821 44.9968 234.038 44.523C233.272 44.0311 232.89 43.0016 232.89 41.4345V33.891H231.632C231.195 33.891 230.831 33.7452 230.539 33.4537C230.248 33.1621 230.102 32.7977 230.102 32.3604C230.102 31.9413 230.248 31.5951 230.539 31.3218C230.831 31.0303 231.195 30.8845 231.632 30.8845H232.89V29.1353C232.89 28.6615 233.044 28.2698 233.354 27.96C233.682 27.632 234.083 27.468 234.557 27.468C235.012 27.468 235.395 27.632 235.705 27.96C236.015 28.2698 236.169 28.6615 236.169 29.1353V30.8845H238.11C238.547 30.8845 238.912 31.0303 239.203 31.3218C239.495 31.6133 239.641 31.9778 239.641 32.4151C239.641 32.8342 239.495 33.1895 239.203 33.481C238.912 33.7543 238.547 33.891 238.11 33.891H236.169V41.2979C236.169 41.6805 236.27 41.963 236.47 42.1452C236.671 42.3092 236.944 42.3912 237.29 42.3912C237.436 42.3912 237.636 42.3547 237.891 42.2818C238.11 42.1907 238.32 42.1452 238.52 42.1452Z"/><path fill="#fff" d="M251.972 42.2272C252.409 42.2272 252.774 42.3729 253.065 42.6645C253.357 42.9378 253.503 43.2931 253.503 43.7304C253.503 44.1495 253.357 44.5048 253.065 44.7964C252.774 45.0879 252.409 45.2337 251.972 45.2337H243.171C242.752 45.2337 242.397 45.0879 242.105 44.7964C241.832 44.4866 241.695 44.1586 241.695 43.8124C241.695 43.5027 241.732 43.2476 241.805 43.0471C241.878 42.8285 242.014 42.5825 242.215 42.3092L248.72 33.891H243.417C242.98 33.891 242.616 33.7452 242.324 33.4537C242.032 33.1621 241.887 32.7977 241.887 32.3604C241.887 31.9413 242.032 31.5951 242.324 31.3218C242.616 31.0303 242.98 30.8845 243.417 30.8845H251.835C252.236 30.8845 252.573 31.0303 252.847 31.3218C253.138 31.5951 253.284 31.9413 253.284 32.3604C253.284 32.6337 253.257 32.8706 253.202 33.071C253.147 33.2532 253.02 33.4719 252.819 33.727L246.26 42.2272H251.972Z"/><path fill="#fff" d="M269.672 37.9361C269.672 39.3938 269.344 40.7057 268.688 41.8719C268.032 43.0198 267.131 43.9126 265.983 44.5504C264.853 45.1881 263.605 45.507 262.238 45.507C260.853 45.507 259.596 45.1881 258.466 44.5504C257.337 43.9126 256.444 43.0198 255.788 41.8719C255.132 40.7057 254.804 39.3938 254.804 37.9361C254.804 36.4784 255.132 35.1756 255.788 34.0276C256.444 32.8615 257.337 31.9595 258.466 31.3218C259.596 30.6658 260.853 30.3379 262.238 30.3379C263.605 30.3379 264.853 30.6658 265.983 31.3218C267.131 31.9595 268.032 32.8615 268.688 34.0276C269.344 35.1756 269.672 36.4784 269.672 37.9361ZM266.393 37.9361C266.393 37.0432 266.201 36.2506 265.819 35.5582C265.454 34.8476 264.953 34.301 264.315 33.9183C263.696 33.5357 263.003 33.3444 262.238 33.3444C261.473 33.3444 260.771 33.5357 260.134 33.9183C259.514 34.301 259.013 34.8476 258.63 35.5582C258.266 36.2506 258.084 37.0432 258.084 37.9361C258.084 38.8289 258.266 39.6215 258.63 40.3139C259.013 41.0064 259.514 41.5439 260.134 41.9265C260.771 42.3092 261.473 42.5005 262.238 42.5005C263.003 42.5005 263.696 42.3092 264.315 41.9265C264.953 41.5439 265.454 41.0064 265.819 40.3139C266.201 39.6215 266.393 38.8289 266.393 37.9361Z"/></svg>