<svg width="309" height="70" viewBox="0 0 309 70" fill="none" xmlns="http://www.w3.org/2000/svg">
<path d="M301.294 0.819336H8.03129C4.78341 0.819336 0.921875 4.26559 0.921875 7.65227V62.3157C0.921875 65.7024 4.78341 69.1487 8.03129 69.1487H301.096C304.344 69.1487 308.404 65.7024 308.404 62.3157V7.65227C308.404 4.26559 304.542 0.819336 301.294 0.819336Z" fill="#0080FF"/>
<path fill-rule="evenodd" clip-rule="evenodd" d="M45.3556 53.7745C49.8137 53.7745 53.9233 52.3404 57.2122 49.9259L54.294 47.1212C51.7754 48.8271 48.7035 49.829 45.3882 49.829C42.0494 49.829 38.9575 48.8129 36.429 47.0849L33.4843 49.9152C36.7756 52.3361 40.8908 53.7745 45.3556 53.7745ZM29.7979 46.3656L32.7437 43.5344C30.959 41.1097 29.9104 38.1491 29.9104 34.9531C29.9104 31.7666 30.9528 28.8142 32.7277 26.3936L29.809 23.5884C27.2968 26.7494 25.8047 30.6992 25.8047 34.9839C25.8047 39.2624 27.2925 43.2069 29.7979 46.3656ZM64.9064 34.9839C64.9064 39.2687 63.4142 43.2186 60.902 46.3796L57.9948 43.5855C59.8025 41.1513 60.866 38.1716 60.866 34.9531C60.866 31.7441 59.8088 28.7725 58.0109 26.3423L60.891 23.5743C63.4098 26.7376 64.9064 30.6928 64.9064 34.9839ZM57.1977 20.0313C53.9112 17.6233 49.8071 16.1934 45.3556 16.1934C40.8974 16.1934 36.7877 17.6275 33.4987 20.042L36.4065 22.8367C38.9391 21.0993 42.0394 20.0772 45.3882 20.0772C48.7135 20.0772 51.7938 21.0851 54.3166 22.8003L57.1977 20.0313Z" fill="white"/>
<path d="M50.2442 34.9838C50.2442 37.5782 48.0559 39.6814 45.3565 39.6814C42.6571 39.6814 40.4688 37.5782 40.4688 34.9838C40.4688 32.3893 42.6571 30.2861 45.3565 30.2861C48.0559 30.2861 50.2442 32.3893 50.2442 34.9838Z" fill="white"/>
<path fill-rule="evenodd" clip-rule="evenodd" d="M43.6798 23.335C38.2605 24.0433 33.9708 28.1665 33.2344 33.3753H37.3389C38.0075 30.337 40.5094 27.9489 43.6798 27.3305V23.335ZM53.2786 33.3753C52.6146 30.358 50.1427 27.982 47.0034 27.3436V23.335C52.4229 24.0432 56.7127 28.1664 57.4491 33.3753H53.2786ZM47.0034 42.6631C50.1641 42.0204 52.6483 39.6162 53.2919 36.5697H57.4488C56.7115 41.7775 52.4222 45.8997 47.0034 46.6079V42.6631ZM37.3256 36.5697C37.9737 39.6373 40.4879 42.0536 43.6798 42.6762V46.6078C38.2612 45.8996 33.972 41.7774 33.2347 36.5697H37.3256Z" fill="white"/>
<path d="M112.82 35.6676C112.82 37.5443 112.428 39.2298 111.645 40.7239C110.861 42.2181 109.777 43.3933 108.392 44.2497C107.008 45.0879 105.431 45.507 103.664 45.507C101.896 45.507 100.32 45.0879 98.9356 44.2497C97.5507 43.3933 96.4666 42.2181 95.6831 40.7239C94.8996 39.2298 94.5078 37.5443 94.5078 35.6676C94.5078 33.7726 94.8996 32.078 95.6831 30.5838C96.4666 29.0897 97.5507 27.9236 98.9356 27.0854C100.32 26.2472 101.896 25.8281 103.664 25.8281C105.431 25.8281 107.008 26.2472 108.392 27.0854C109.777 27.9236 110.861 29.0897 111.645 30.5838C112.428 32.078 112.82 33.7726 112.82 35.6676ZM111.071 35.6676C111.071 34.0823 110.752 32.6702 110.114 31.4311C109.495 30.1739 108.62 29.199 107.49 28.5066C106.379 27.8142 105.103 27.468 103.664 27.468C102.224 27.468 100.94 27.8142 99.8102 28.5066C98.6987 29.199 97.8241 30.1739 97.1863 31.4311C96.5668 32.6702 96.257 34.0823 96.257 35.6676C96.257 37.2528 96.5668 38.674 97.1863 39.9313C97.8241 41.1703 98.6987 42.1361 99.8102 42.8285C100.94 43.5209 102.224 43.8671 103.664 43.8671C105.103 43.8671 106.379 43.5209 107.49 42.8285C108.62 42.1361 109.495 41.1703 110.114 39.9313C110.752 38.674 111.071 37.2528 111.071 35.6676Z" fill="white"/>
<path d="M122.923 31.1578C124.125 31.1578 125.218 31.4676 126.202 32.0871C127.186 32.6884 127.952 33.5357 128.498 34.6289C129.063 35.704 129.346 36.9157 129.346 38.2641C129.346 39.6307 129.063 40.8606 128.498 41.9539C127.952 43.0289 127.186 43.8762 126.202 44.4957C125.237 45.1152 124.152 45.425 122.95 45.425C121.893 45.425 120.918 45.179 120.025 44.687C119.151 44.1768 118.449 43.5027 117.921 42.6645V49.8801C117.921 50.1169 117.839 50.3083 117.675 50.454C117.529 50.618 117.338 50.7 117.101 50.7C116.864 50.7 116.664 50.618 116.5 50.454C116.354 50.3083 116.281 50.1169 116.281 49.8801V32.0598C116.281 31.8229 116.354 31.6225 116.5 31.4585C116.664 31.2945 116.864 31.2125 117.101 31.2125C117.338 31.2125 117.529 31.2945 117.675 31.4585C117.839 31.6225 117.921 31.8229 117.921 32.0598V33.9183C118.395 33.0619 119.078 32.3877 119.971 31.8958C120.864 31.4038 121.848 31.1578 122.923 31.1578ZM122.786 43.8944C123.733 43.8944 124.581 43.6575 125.328 43.1838C126.093 42.6918 126.685 42.0176 127.104 41.1612C127.542 40.3048 127.76 39.3391 127.76 38.2641C127.76 37.2072 127.542 36.2597 127.104 35.4216C126.685 34.5652 126.093 33.9001 125.328 33.4263C124.581 32.9344 123.733 32.6884 122.786 32.6884C121.82 32.6884 120.955 32.9253 120.189 33.399C119.424 33.8728 118.832 34.5378 118.413 35.3942C117.994 36.2324 117.784 37.189 117.784 38.2641C117.784 39.3391 117.994 40.3048 118.413 41.1612C118.832 42.0176 119.424 42.6918 120.189 43.1838C120.955 43.6575 121.82 43.8944 122.786 43.8944Z" fill="white"/>
<path d="M144.53 37.4441C144.53 37.6628 144.448 37.8541 144.284 38.0181C144.12 38.1639 143.929 38.2367 143.71 38.2367H133.379C133.379 39.33 133.597 40.3139 134.035 41.1886C134.49 42.045 135.128 42.7283 135.948 43.2384C136.786 43.7304 137.77 43.9764 138.9 43.9764C139.774 43.9764 140.558 43.7942 141.25 43.4298C141.943 43.0653 142.498 42.6007 142.917 42.0358C143.118 41.8719 143.309 41.7899 143.491 41.7899C143.674 41.7899 143.838 41.8627 143.983 42.0085C144.129 42.1543 144.202 42.3183 144.202 42.5005C144.202 42.7009 144.111 42.8922 143.929 43.0745C143.346 43.7851 142.608 44.3682 141.715 44.8237C140.84 45.2792 139.911 45.507 138.927 45.507C137.524 45.507 136.285 45.2063 135.21 44.605C134.135 44.0037 133.297 43.1656 132.695 42.0905C132.094 40.9972 131.793 39.74 131.793 38.3187C131.793 36.8246 132.085 35.5218 132.668 34.4103C133.269 33.2806 134.062 32.4242 135.046 31.8411C136.03 31.2398 137.078 30.9392 138.189 30.9392C139.282 30.9392 140.303 31.1943 141.25 31.7044C142.216 32.2146 142.999 32.9617 143.601 33.9457C144.202 34.9296 144.512 36.0957 144.53 37.4441ZM138.189 32.5244C137.132 32.5244 136.148 32.8888 135.237 33.6177C134.344 34.3465 133.77 35.3942 133.515 36.7608H142.835V36.5422C142.744 35.7222 142.471 35.0116 142.015 34.4103C141.56 33.7908 140.986 33.3261 140.294 33.0164C139.619 32.6884 138.918 32.5244 138.189 32.5244Z" fill="white"/>
<path d="M154.497 30.9392C156.191 30.9392 157.431 31.4402 158.214 32.4424C159.016 33.4263 159.417 34.7383 159.417 36.3782V44.4137C159.417 44.6506 159.335 44.851 159.171 45.015C159.007 45.1608 158.815 45.2337 158.597 45.2337C158.36 45.2337 158.159 45.1608 157.995 45.015C157.85 44.851 157.777 44.6506 157.777 44.4137V36.4602C157.777 35.2758 157.476 34.3192 156.875 33.5903C156.292 32.8433 155.381 32.4697 154.142 32.4697C153.358 32.4697 152.611 32.6519 151.9 33.0164C151.208 33.3808 150.643 33.8728 150.206 34.4923C149.769 35.0936 149.55 35.7495 149.55 36.4602V44.4137C149.55 44.6506 149.468 44.851 149.304 45.015C149.158 45.1608 148.967 45.2337 148.73 45.2337C148.493 45.2337 148.293 45.1608 148.129 45.015C147.983 44.851 147.91 44.6506 147.91 44.4137V32.1691C147.91 31.9322 147.983 31.7409 148.129 31.5951C148.293 31.4311 148.493 31.3491 148.73 31.3491C148.967 31.3491 149.158 31.4311 149.304 31.5951C149.468 31.7409 149.55 31.9322 149.55 32.1691V33.6723C150.042 32.8888 150.743 32.242 151.654 31.7318C152.584 31.2034 153.531 30.9392 154.497 30.9392Z" fill="white"/>
<path d="M172.77 44.4137C172.77 44.6506 172.688 44.851 172.524 45.015C172.378 45.1608 172.187 45.2337 171.95 45.2337C171.713 45.2337 171.513 45.1608 171.349 45.015C171.203 44.851 171.13 44.6506 171.13 44.4137V31.8411C171.13 31.6042 171.203 31.4129 171.349 31.2671C171.513 31.1032 171.713 31.0212 171.95 31.0212C172.187 31.0212 172.378 31.1032 172.524 31.2671C172.688 31.4129 172.77 31.6042 172.77 31.8411V44.4137ZM171.95 29.1899C171.586 29.1899 171.303 29.1079 171.103 28.9439C170.902 28.7617 170.802 28.5066 170.802 28.1787V27.9053C170.802 27.5774 170.902 27.3314 171.103 27.1674C171.321 26.9852 171.613 26.8941 171.977 26.8941C172.706 26.8941 173.071 27.2312 173.071 27.9053V28.1787C173.071 28.5066 172.97 28.7617 172.77 28.9439C172.588 29.1079 172.314 29.1899 171.95 29.1899Z" fill="white"/>
<path d="M183.617 30.9392C185.312 30.9392 186.551 31.4402 187.334 32.4424C188.136 33.4263 188.537 34.7383 188.537 36.3782V44.4137C188.537 44.6506 188.455 44.851 188.291 45.015C188.127 45.1608 187.935 45.2337 187.717 45.2337C187.48 45.2337 187.279 45.1608 187.115 45.015C186.97 44.851 186.897 44.6506 186.897 44.4137V36.4602C186.897 35.2758 186.596 34.3192 185.995 33.5903C185.412 32.8433 184.501 32.4697 183.262 32.4697C182.478 32.4697 181.731 32.6519 181.02 33.0164C180.328 33.3808 179.763 33.8728 179.326 34.4923C178.889 35.0936 178.67 35.7495 178.67 36.4602V44.4137C178.67 44.6506 178.588 44.851 178.424 45.015C178.278 45.1608 178.087 45.2337 177.85 45.2337C177.613 45.2337 177.413 45.1608 177.249 45.015C177.103 44.851 177.03 44.6506 177.03 44.4137V32.1691C177.03 31.9322 177.103 31.7409 177.249 31.5951C177.413 31.4311 177.613 31.3491 177.85 31.3491C178.087 31.3491 178.278 31.4311 178.424 31.5951C178.588 31.7409 178.67 31.9322 178.67 32.1691V33.6723C179.162 32.8888 179.863 32.242 180.774 31.7318C181.704 31.2034 182.651 30.9392 183.617 30.9392Z" fill="white"/>
<path d="M207.739 30.3379C209.597 30.3379 210.882 30.8936 211.593 32.0051C212.303 33.0984 212.659 34.6198 212.659 36.5695V43.5664C212.659 44.0402 212.504 44.441 212.194 44.769C211.884 45.0788 211.492 45.2337 211.019 45.2337C210.545 45.2337 210.153 45.0788 209.843 44.769C209.534 44.441 209.379 44.0402 209.379 43.5664V36.5695C209.379 35.5673 209.169 34.7838 208.75 34.219C208.331 33.6359 207.611 33.3444 206.591 33.3444C205.534 33.3444 204.705 33.6541 204.104 34.2736C203.503 34.8749 203.202 35.6402 203.202 36.5695V43.5664C203.202 44.0402 203.047 44.441 202.737 44.769C202.427 45.0788 202.036 45.2337 201.562 45.2337C201.088 45.2337 200.696 45.0788 200.387 44.769C200.077 44.441 199.922 44.0402 199.922 43.5664V32.2784C199.922 31.8047 200.077 31.4129 200.387 31.1032C200.696 30.7752 201.088 30.6112 201.562 30.6112C202.036 30.6112 202.427 30.7752 202.737 31.1032C203.047 31.4129 203.202 31.8047 203.202 32.2784V32.7431C203.694 32.0871 204.332 31.5222 205.115 31.0485C205.917 30.5747 206.791 30.3379 207.739 30.3379Z" fill="white"/>
<path d="M229.323 37.5808C229.305 38.0181 229.132 38.3734 228.804 38.6467C228.476 38.92 228.093 39.0567 227.656 39.0567H218.636C218.855 40.1317 219.356 40.979 220.139 41.5985C220.923 42.1998 221.807 42.5005 222.791 42.5005C223.538 42.5005 224.121 42.4367 224.54 42.3092C224.959 42.1634 225.287 42.0176 225.524 41.8719C225.779 41.7079 225.952 41.5985 226.043 41.5439C226.371 41.3799 226.681 41.2979 226.972 41.2979C227.355 41.2979 227.683 41.4345 227.956 41.7079C228.23 41.9812 228.366 42.3001 228.366 42.6645C228.366 43.1564 228.111 43.6029 227.601 44.0037C227.091 44.4228 226.408 44.7781 225.551 45.0697C224.695 45.3612 223.829 45.507 222.955 45.507C221.424 45.507 220.085 45.1881 218.937 44.5504C217.807 43.9126 216.933 43.038 216.313 41.9265C215.693 40.7968 215.384 39.5304 215.384 38.1274C215.384 36.5604 215.712 35.1847 216.368 34.0003C217.024 32.8159 217.889 31.914 218.964 31.2945C220.039 30.6567 221.187 30.3379 222.408 30.3379C223.611 30.3379 224.74 30.6658 225.797 31.3218C226.872 31.9778 227.729 32.8615 228.366 33.973C229.004 35.0845 229.323 36.2871 229.323 37.5808ZM222.408 33.3444C220.294 33.3444 219.046 34.3374 218.664 36.3235H225.824V36.1322C225.752 35.3669 225.378 34.7109 224.704 34.1643C224.03 33.6177 223.264 33.3444 222.408 33.3444Z" fill="white"/>
<path d="M239.11 42.1452C239.365 42.1452 239.593 42.2727 239.793 42.5278C240.012 42.7647 240.121 43.0836 240.121 43.4844C240.121 43.9764 239.848 44.3955 239.301 44.7417C238.773 45.0697 238.171 45.2337 237.497 45.2337C236.368 45.2337 235.411 44.9968 234.627 44.523C233.862 44.0311 233.479 43.0016 233.479 41.4345V33.891H232.222C231.785 33.891 231.42 33.7452 231.129 33.4537C230.837 33.1621 230.692 32.7977 230.692 32.3604C230.692 31.9413 230.837 31.5951 231.129 31.3218C231.42 31.0303 231.785 30.8845 232.222 30.8845H233.479V29.1353C233.479 28.6615 233.634 28.2698 233.944 27.96C234.272 27.632 234.673 27.468 235.147 27.468C235.602 27.468 235.985 27.632 236.295 27.96C236.604 28.2698 236.759 28.6615 236.759 29.1353V30.8845H238.7C239.137 30.8845 239.502 31.0303 239.793 31.3218C240.085 31.6133 240.23 31.9778 240.23 32.4151C240.23 32.8342 240.085 33.1895 239.793 33.481C239.502 33.7543 239.137 33.891 238.7 33.891H236.759V41.2979C236.759 41.6805 236.859 41.963 237.06 42.1452C237.26 42.3092 237.534 42.3912 237.88 42.3912C238.026 42.3912 238.226 42.3547 238.481 42.2818C238.7 42.1907 238.909 42.1452 239.11 42.1452Z" fill="white"/>
<path d="M252.562 42.2272C252.999 42.2272 253.364 42.3729 253.655 42.6645C253.947 42.9378 254.092 43.2931 254.092 43.7304C254.092 44.1495 253.947 44.5048 253.655 44.7964C253.364 45.0879 252.999 45.2337 252.562 45.2337H243.761C243.342 45.2337 242.987 45.0879 242.695 44.7964C242.422 44.4866 242.285 44.1586 242.285 43.8124C242.285 43.5027 242.322 43.2476 242.395 43.0471C242.467 42.8285 242.604 42.5825 242.804 42.3092L249.309 33.891H244.007C243.57 33.891 243.205 33.7452 242.914 33.4537C242.622 33.1621 242.477 32.7977 242.477 32.3604C242.477 31.9413 242.622 31.5951 242.914 31.3218C243.205 31.0303 243.57 30.8845 244.007 30.8845H252.425C252.826 30.8845 253.163 31.0303 253.437 31.3218C253.728 31.5951 253.874 31.9413 253.874 32.3604C253.874 32.6337 253.847 32.8706 253.792 33.071C253.737 33.2532 253.61 33.4719 253.409 33.727L246.85 42.2272H252.562Z" fill="white"/>
<path d="M270.262 37.9361C270.262 39.3938 269.934 40.7057 269.278 41.8719C268.622 43.0198 267.72 43.9126 266.572 44.5504C265.443 45.1881 264.195 45.507 262.828 45.507C261.443 45.507 260.186 45.1881 259.056 44.5504C257.926 43.9126 257.034 43.0198 256.378 41.8719C255.722 40.7057 255.394 39.3938 255.394 37.9361C255.394 36.4784 255.722 35.1756 256.378 34.0276C257.034 32.8615 257.926 31.9595 259.056 31.3218C260.186 30.6658 261.443 30.3379 262.828 30.3379C264.195 30.3379 265.443 30.6658 266.572 31.3218C267.72 31.9595 268.622 32.8615 269.278 34.0276C269.934 35.1756 270.262 36.4784 270.262 37.9361ZM266.982 37.9361C266.982 37.0432 266.791 36.2506 266.408 35.5582C266.044 34.8476 265.543 34.301 264.905 33.9183C264.286 33.5357 263.593 33.3444 262.828 33.3444C262.063 33.3444 261.361 33.5357 260.723 33.9183C260.104 34.301 259.603 34.8476 259.22 35.5582C258.856 36.2506 258.674 37.0432 258.674 37.9361C258.674 38.8289 258.856 39.6215 259.22 40.3139C259.603 41.0064 260.104 41.5439 260.723 41.9265C261.361 42.3092 262.063 42.5005 262.828 42.5005C263.593 42.5005 264.286 42.3092 264.905 41.9265C265.543 41.5439 266.044 41.0064 266.408 40.3139C266.791 39.6215 266.982 38.8289 266.982 37.9361Z" fill="white"/>
</svg>
