<svg width="775" height="171" viewBox="0 0 775 171" fill="none" xmlns="http://www.w3.org/2000/svg">
<path d="M35.4367 55.4402C39.9942 55.4402 44.1225 56.6292 47.8214 59.007C51.5203 61.3188 54.4265 64.5554 56.5402 68.7166C58.7199 72.8779 59.8097 77.6006 59.8097 82.8847C59.8097 88.1689 58.7529 92.9246 56.6393 97.1519C54.5256 101.313 51.6193 104.583 47.9204 106.961C44.2876 109.272 40.2584 110.428 35.833 110.428C32.6625 110.428 29.6571 109.801 26.8169 108.546C24.0428 107.225 21.7309 105.64 19.8815 103.79V123.209C19.8815 124.927 19.3201 126.347 18.1972 127.47C17.0743 128.659 15.6542 129.253 13.9368 129.253C12.2195 129.253 10.7994 128.692 9.67651 127.569C8.55363 126.446 7.99219 124.993 7.99219 123.209V62.4747C7.99219 60.7574 8.55363 59.3373 9.67651 58.2144C10.7994 57.0255 12.2195 56.431 13.9368 56.431C15.6542 56.431 17.0743 57.0255 18.1972 58.2144C19.3201 59.3373 19.8815 60.7574 19.8815 62.4747V62.8711C21.4667 60.8895 23.6795 59.1722 26.5197 57.719C29.3599 56.1998 32.3322 55.4402 35.4367 55.4402ZM33.9505 99.5298C38.1778 99.5298 41.6455 97.9445 44.3536 94.774C47.0618 91.6035 48.4158 87.6404 48.4158 82.8847C48.4158 78.129 47.0618 74.1989 44.3536 71.0945C41.7116 67.924 38.2439 66.3388 33.9505 66.3388C29.6571 66.3388 26.1564 67.924 23.4483 71.0945C20.7402 74.1989 19.3861 78.129 19.3861 82.8847C19.3861 87.6404 20.7402 91.6035 23.4483 94.774C26.1564 97.9445 29.6571 99.5298 33.9505 99.5298Z" fill="white"/>
<path d="M120.648 82.9838C120.648 88.2679 119.459 93.0237 117.081 97.251C114.703 101.412 111.434 104.649 107.273 106.961C103.177 109.272 98.6528 110.428 93.6989 110.428C88.679 110.428 84.1214 109.272 80.0262 106.961C75.931 104.649 72.6945 101.412 70.3166 97.251C67.9388 93.0237 66.7498 88.2679 66.7498 82.9838C66.7498 77.6997 67.9388 72.977 70.3166 68.8157C72.6945 64.5884 75.931 61.3188 80.0262 59.007C84.1214 56.6292 88.679 55.4402 93.6989 55.4402C98.6528 55.4402 103.177 56.6292 107.273 59.007C111.434 61.3188 114.703 64.5884 117.081 68.8157C119.459 72.977 120.648 77.6997 120.648 82.9838ZM108.759 82.9838C108.759 79.7473 108.065 76.874 106.678 74.3641C105.357 71.788 103.541 69.8065 101.229 68.4194C98.9831 67.0323 96.4731 66.3388 93.6989 66.3388C90.9247 66.3388 88.3818 67.0323 86.0699 68.4194C83.8242 69.8065 82.0078 71.788 80.6207 74.3641C79.2996 76.874 78.6391 79.7473 78.6391 82.9838C78.6391 86.2203 79.2996 89.0936 80.6207 91.6036C82.0078 94.1135 83.8242 96.062 86.0699 97.4491C88.3818 98.8362 90.9247 99.5298 93.6989 99.5298C96.4731 99.5298 98.9831 98.8362 101.229 97.4491C103.541 96.062 105.357 94.1135 106.678 91.6036C108.065 89.0936 108.759 86.2203 108.759 82.9838Z" fill="white"/>
<path d="M191.613 56.431C193.198 56.431 194.519 57.0255 195.576 58.2144C196.699 59.3373 197.261 60.7904 197.261 62.5738C197.261 63.1683 197.128 63.9279 196.864 64.8526L181.705 105.673C181.309 106.861 180.582 107.819 179.526 108.546C178.535 109.206 177.445 109.537 176.256 109.537L175.463 109.438C173.218 109.305 171.533 108.05 170.41 105.673L161.989 81.2995L153.964 105.673C152.841 108.05 151.156 109.305 148.911 109.438L148.118 109.537C146.929 109.537 145.806 109.206 144.749 108.546C143.759 107.819 143.065 106.861 142.669 105.673L127.51 64.8526C127.246 64.126 127.114 63.3664 127.114 62.5738C127.114 60.9225 127.642 59.5024 128.699 58.3135C129.822 57.0585 131.275 56.431 133.058 56.431C134.379 56.431 135.502 56.7613 136.427 57.4218C137.418 58.0163 138.111 58.941 138.508 60.196L149.208 89.2257L157.035 68.0231C158.092 65.5792 159.908 64.3572 162.484 64.3572C163.871 64.3572 164.928 64.6545 165.655 65.2489C166.447 65.8434 167.108 66.7681 167.636 68.0231L175.265 88.7303L185.867 60.196C186.263 58.941 186.956 58.0163 187.947 57.4218C188.938 56.7613 190.16 56.431 191.613 56.431Z" fill="white"/>
<path d="M254.188 81.6958C254.122 83.281 253.495 84.569 252.306 85.5598C251.117 86.5506 249.73 87.046 248.145 87.046H215.449C216.242 90.943 218.058 94.0144 220.898 96.2602C223.738 98.4399 226.942 99.5298 230.509 99.5298C233.217 99.5298 235.331 99.2986 236.85 98.8362C238.369 98.3078 239.558 97.7794 240.417 97.251C241.341 96.6565 241.969 96.2602 242.299 96.062C243.488 95.4676 244.611 95.1703 245.668 95.1703C247.055 95.1703 248.244 95.6657 249.234 96.6565C250.225 97.6473 250.721 98.8032 250.721 100.124C250.721 101.908 249.796 103.526 247.946 104.979C246.097 106.498 243.62 107.786 240.516 108.843C237.411 109.9 234.274 110.428 231.103 110.428C225.555 110.428 220.7 109.272 216.539 106.961C212.444 104.649 209.273 101.478 207.027 97.4491C204.782 93.3539 203.659 88.7633 203.659 83.6773C203.659 77.9969 204.848 73.01 207.226 68.7166C209.603 64.4233 212.741 61.1537 216.638 58.9079C220.535 56.5961 224.696 55.4402 229.122 55.4402C233.481 55.4402 237.576 56.6292 241.407 59.007C245.304 61.3849 248.409 64.5884 250.721 68.6176C253.032 72.6467 254.188 77.0061 254.188 81.6958ZM229.122 66.3388C221.46 66.3388 216.935 69.9386 215.548 77.1382H241.506V76.4447C241.242 73.6705 239.888 71.2926 237.444 69.3111C235 67.3295 232.226 66.3388 229.122 66.3388Z" fill="white"/>
<path d="M291.647 55.4402C293.629 55.4402 295.28 56.0017 296.601 57.1246C297.988 58.2474 298.682 59.5685 298.682 61.0877C298.682 63.1353 298.153 64.6875 297.097 65.7443C296.04 66.7351 294.785 67.2305 293.332 67.2305C292.341 67.2305 291.218 66.9993 289.963 66.5369C289.765 66.4709 289.303 66.3388 288.576 66.1406C287.915 65.9425 287.189 65.8434 286.396 65.8434C284.679 65.8434 283.028 66.3718 281.442 67.4286C279.857 68.4854 278.536 70.1037 277.479 72.2834C276.488 74.3971 275.993 76.9401 275.993 79.9124V103.394C275.993 105.111 275.432 106.564 274.309 107.753C273.186 108.876 271.766 109.438 270.048 109.438C268.331 109.438 266.911 108.876 265.788 107.753C264.665 106.564 264.104 105.111 264.104 103.394V62.4747C264.104 60.7574 264.665 59.3373 265.788 58.2144C266.911 57.0255 268.331 56.431 270.048 56.431C271.766 56.431 273.186 57.0255 274.309 58.2144C275.432 59.3373 275.993 60.7574 275.993 62.4747V63.7628C277.512 61.0546 279.692 59.007 282.532 57.6199C285.372 56.1668 288.411 55.4402 291.647 55.4402Z" fill="white"/>
<path d="M352.395 81.6958C352.329 83.281 351.702 84.569 350.513 85.5598C349.324 86.5506 347.937 87.046 346.351 87.046H313.656C314.448 90.943 316.265 94.0144 319.105 96.2602C321.945 98.4399 325.149 99.5298 328.716 99.5298C331.424 99.5298 333.537 99.2986 335.056 98.8362C336.576 98.3078 337.765 97.7794 338.623 97.251C339.548 96.6565 340.175 96.2602 340.506 96.062C341.695 95.4676 342.818 95.1703 343.874 95.1703C345.261 95.1703 346.45 95.6657 347.441 96.6565C348.432 97.6473 348.927 98.8032 348.927 100.124C348.927 101.908 348.003 103.526 346.153 104.979C344.304 106.498 341.827 107.786 338.722 108.843C335.618 109.9 332.48 110.428 329.31 110.428C323.762 110.428 318.907 109.272 314.746 106.961C310.65 104.649 307.48 101.478 305.234 97.4491C302.988 93.3539 301.865 88.7633 301.865 83.6773C301.865 77.9969 303.054 73.01 305.432 68.7166C307.81 64.4233 310.948 61.1537 314.845 58.9079C318.742 56.5961 322.903 55.4402 327.328 55.4402C331.688 55.4402 335.783 56.6292 339.614 59.007C343.511 61.3849 346.616 64.5884 348.927 68.6176C351.239 72.6467 352.395 77.0061 352.395 81.6958ZM327.328 66.3388C319.666 66.3388 315.142 69.9386 313.755 77.1382H339.713V76.4447C339.449 73.6705 338.095 71.2926 335.651 69.3111C333.207 67.3295 330.433 66.3388 327.328 66.3388Z" fill="white"/>
<path d="M405.211 36.1201C406.928 36.1201 408.349 36.6816 409.471 37.8044C410.594 38.9273 411.156 40.3804 411.156 42.1638V103.394C411.156 105.111 410.594 106.564 409.471 107.753C408.349 108.876 406.928 109.438 405.211 109.438C403.494 109.438 402.074 108.876 400.951 107.753C399.894 106.63 399.333 105.21 399.266 103.493C397.615 105.408 395.369 107.06 392.529 108.447C389.755 109.768 386.816 110.428 383.711 110.428C379.154 110.428 375.026 109.272 371.327 106.961C367.628 104.583 364.688 101.313 362.509 97.1519C360.395 92.9906 359.338 88.2679 359.338 82.9838C359.338 77.6997 360.395 72.977 362.509 68.8157C364.622 64.5884 367.496 61.3188 371.128 59.007C374.827 56.6292 378.89 55.4402 383.315 55.4402C386.485 55.4402 389.458 56.0347 392.232 57.2236C395.006 58.3465 397.351 59.7997 399.266 61.583V42.1638C399.266 40.4465 399.828 39.0264 400.951 37.9035C402.074 36.7146 403.494 36.1201 405.211 36.1201ZM385.197 99.5298C389.491 99.5298 392.992 97.9775 395.7 94.8731C398.408 91.7026 399.762 87.7395 399.762 82.9838C399.762 78.2281 398.408 74.265 395.7 71.0945C392.992 67.924 389.491 66.3388 385.197 66.3388C380.97 66.3388 377.502 67.924 374.794 71.0945C372.086 74.265 370.732 78.2281 370.732 82.9838C370.732 87.7395 372.053 91.7026 374.695 94.8731C377.403 97.9775 380.904 99.5298 385.197 99.5298Z" fill="white"/>
<path d="M476.595 57.6199C480.954 57.6199 484.918 58.7428 488.484 60.9886C492.051 63.2343 494.825 66.3718 496.807 70.4009C498.854 74.3641 499.878 78.8556 499.878 83.8755C499.878 88.8294 498.854 93.3539 496.807 97.4491C494.825 101.478 492.051 104.649 488.484 106.961C484.984 109.272 481.053 110.428 476.694 110.428C472.929 110.428 469.428 109.504 466.192 107.654C463.021 105.739 460.445 103.229 458.464 100.124V106.663C458.464 107.522 458.167 108.249 457.572 108.843C457.044 109.438 456.35 109.735 455.491 109.735C454.633 109.735 453.906 109.438 453.312 108.843C452.783 108.249 452.519 107.522 452.519 106.663V39.1915C452.519 38.3328 452.783 37.6393 453.312 37.1109C453.906 36.5164 454.633 36.2192 455.491 36.2192C456.35 36.2192 457.044 36.5164 457.572 37.1109C458.167 37.6393 458.464 38.3328 458.464 39.1915V68.4194C460.247 65.1829 462.757 62.5738 465.994 60.5923C469.23 58.6107 472.764 57.6199 476.595 57.6199ZM476.1 104.88C479.534 104.88 482.606 103.955 485.314 102.106C488.088 100.256 490.235 97.7464 491.754 94.5759C493.339 91.3393 494.132 87.7725 494.132 83.8755C494.132 79.9124 493.339 76.3786 491.754 73.2742C490.235 70.1037 488.088 67.6268 485.314 65.8434C482.606 64.06 479.534 63.1683 476.1 63.1683C472.599 63.1683 469.461 64.06 466.687 65.8434C463.913 67.5607 461.766 70.0046 460.247 73.1751C458.728 76.3456 457.968 79.9124 457.968 83.8755C457.968 87.8386 458.728 91.4384 460.247 94.675C461.832 97.8454 463.979 100.355 466.687 102.205C469.461 103.988 472.599 104.88 476.1 104.88Z" fill="white"/>
<path d="M549.869 57.9172C550.728 57.9172 551.421 58.2144 551.95 58.8089C552.544 59.3373 552.841 60.0308 552.841 60.8895V104.583C552.841 109.801 551.818 114.259 549.77 117.958C547.722 121.657 544.882 124.464 541.249 126.38C537.616 128.295 533.521 129.253 528.964 129.253C526.189 129.253 523.58 128.956 521.137 128.361C518.759 127.767 516.777 126.974 515.192 125.983C513.805 125.125 513.111 124.167 513.111 123.11C513.111 122.978 513.177 122.648 513.309 122.119C513.508 121.459 513.838 120.964 514.3 120.633C514.763 120.303 515.258 120.138 515.786 120.138C516.183 120.138 516.579 120.237 516.975 120.435C521.203 122.747 525.232 123.903 529.063 123.903C534.545 123.903 538.871 122.185 542.042 118.751C545.278 115.316 546.897 110.626 546.897 104.682V101.214C545.245 103.988 542.868 106.234 539.763 107.951C536.659 109.603 533.29 110.428 529.657 110.428C523.911 110.428 519.551 108.711 516.579 105.276C513.607 101.842 512.12 97.1849 512.12 91.3063V60.8895C512.12 60.0308 512.385 59.3373 512.913 58.8089C513.508 58.2144 514.234 57.9172 515.093 57.9172C515.951 57.9172 516.645 58.2144 517.173 58.8089C517.768 59.3373 518.065 60.0308 518.065 60.8895V90.4146C518.065 95.1703 519.089 98.7702 521.137 101.214C523.25 103.658 526.52 104.88 530.945 104.88C533.653 104.88 536.229 104.219 538.673 102.898C541.183 101.511 543.165 99.7279 544.618 97.5482C546.137 95.3024 546.897 92.9246 546.897 90.4146V60.8895C546.897 60.0308 547.161 59.3373 547.689 58.8089C548.284 58.2144 549.01 57.9172 549.869 57.9172Z" fill="white"/>
<g clip-path="url(#clip0_521_234)">
<path fill-rule="evenodd" clip-rule="evenodd" d="M687.013 170.934C706.49 170.934 724.443 164.415 738.812 153.44L726.062 140.69C715.059 148.444 701.639 152.997 687.156 152.997C672.569 152.997 659.061 148.379 648.015 140.524L635.149 153.39C649.528 164.395 667.507 170.934 687.013 170.934ZM619.045 137.255L631.915 124.385C624.119 113.363 619.538 99.9065 619.538 85.3797C619.538 70.8962 624.092 57.4764 631.845 46.4737L619.095 33.7236C608.12 48.0919 601.602 66.0457 601.602 85.522C601.602 104.969 608.101 122.897 619.045 137.255ZM772.425 85.522C772.425 104.998 765.906 122.952 754.931 137.32L742.23 124.619C750.127 113.554 754.773 100.01 754.773 85.3797C754.773 70.7932 750.155 57.2854 742.3 46.2391L754.881 33.658C765.886 48.0372 772.425 66.016 772.425 85.522ZM738.746 17.5539C724.389 6.60935 706.46 0.110352 687.013 0.110352C667.537 0.110352 649.583 6.62921 635.215 17.604L647.917 30.3057C658.981 22.4083 672.526 17.7621 687.156 17.7621C701.682 17.7621 715.139 22.3431 726.161 30.1393L738.746 17.5539Z" fill="#01E0CB"/>
<path d="M708.366 85.5219C708.366 97.3148 698.806 106.875 687.013 106.875C675.22 106.875 665.66 97.3148 665.66 85.5219C665.66 73.729 675.22 64.1689 687.013 64.1689C698.806 64.1689 708.366 73.729 708.366 85.5219Z" fill="white"/>
<path fill-rule="evenodd" clip-rule="evenodd" d="M679.691 32.5669C656.017 35.786 637.278 54.5256 634.059 78.1996H651.992C654.913 64.3905 665.842 53.5368 679.691 50.7256V32.5669ZM721.626 78.1996C718.725 64.4854 707.926 53.686 694.211 50.7847V32.5669C717.885 35.786 736.625 54.5256 739.844 78.1996H721.626ZM694.211 120.419C708.02 117.498 718.874 106.569 721.685 92.7196H739.844C736.625 116.394 717.885 135.133 694.211 138.352V120.419ZM651.933 92.7196C654.763 106.664 665.747 117.648 679.691 120.478V138.352C656.017 135.133 637.278 116.394 634.059 92.7196H651.933Z" fill="#0080FF"/>
</g>
<defs>
<clipPath id="clip0_521_234">
<rect width="635.748" height="170.823" fill="white" transform="translate(136.963 0.110352)"/>
</clipPath>
</defs>
</svg>
