<svg xmlns="http://www.w3.org/2000/svg" width="775" height="172" fill="none" viewBox="0 0 775 172"><path fill="#000" d="M36.0265 55.741C40.5841 55.741 44.7123 56.93 48.4112 59.3078C52.1101 61.6196 55.0164 64.8562 57.13 69.0174C59.3097 73.1787 60.3996 77.9014 60.3996 83.1855C60.3996 88.4696 59.3428 93.2254 57.2291 97.4527C55.1155 101.614 52.2092 104.883 48.5103 107.261C44.8774 109.573 40.8483 110.729 36.4228 110.729C33.2523 110.729 30.247 110.102 27.4068 108.847C24.6326 107.526 22.3208 105.94 20.4713 104.091V123.51C20.4713 125.227 19.9099 126.648 18.787 127.77C17.6641 128.959 16.244 129.554 14.5267 129.554C12.8093 129.554 11.3892 128.992 10.2663 127.869C9.14347 126.747 8.58203 125.293 8.58203 123.51V62.7755C8.58203 61.0582 9.14347 59.6381 10.2663 58.5152C11.3892 57.3263 12.8093 56.7318 14.5267 56.7318C16.244 56.7318 17.6641 57.3263 18.787 58.5152C19.9099 59.6381 20.4713 61.0582 20.4713 62.7755V63.1718C22.0566 61.1903 24.2693 59.4729 27.1095 58.0198C29.9498 56.5006 32.9221 55.741 36.0265 55.741ZM34.5404 99.8305C38.7677 99.8305 42.2354 98.2453 44.9435 95.0748C47.6516 91.9043 49.0057 87.9412 49.0057 83.1855C49.0057 78.4298 47.6516 74.4997 44.9435 71.3953C42.3014 68.2248 38.8337 66.6395 34.5404 66.6395C30.247 66.6395 26.7463 68.2248 24.0381 71.3953C21.33 74.4997 19.976 78.4298 19.976 83.1855C19.976 87.9412 21.33 91.9043 24.0381 95.0748C26.7463 98.2453 30.247 99.8305 34.5404 99.8305Z"/><path fill="#000" d="M121.238 83.2846C121.238 88.5687 120.049 93.3244 117.671 97.5518C115.293 101.713 112.024 104.95 107.862 107.261C103.767 109.573 99.2426 110.729 94.2888 110.729C89.2688 110.729 84.7113 109.573 80.6161 107.261C76.5209 104.95 73.2843 101.713 70.9065 97.5518C68.5286 93.3244 67.3397 88.5687 67.3397 83.2846C67.3397 78.0004 68.5286 73.2777 70.9065 69.1165C73.2843 64.8892 76.5209 61.6196 80.6161 59.3078C84.7113 56.93 89.2688 55.741 94.2888 55.741C99.2426 55.741 103.767 56.93 107.862 59.3078C112.024 61.6196 115.293 64.8892 117.671 69.1165C120.049 73.2777 121.238 78.0004 121.238 83.2846ZM109.349 83.2846C109.349 80.048 108.655 77.1748 107.268 74.6648C105.947 72.0888 104.13 70.1073 101.819 68.7202C99.5729 67.3331 97.0629 66.6395 94.2888 66.6395C91.5146 66.6395 88.9716 67.3331 86.6598 68.7202C84.414 70.1073 82.5976 72.0888 81.2105 74.6648C79.8895 77.1748 79.229 80.048 79.229 83.2846C79.229 86.5211 79.8895 89.3944 81.2105 91.9043C82.5976 94.4143 84.414 96.3628 86.6598 97.7499C88.9716 99.137 91.5146 99.8305 94.2888 99.8305C97.0629 99.8305 99.5729 99.137 101.819 97.7499C104.13 96.3628 105.947 94.4143 107.268 91.9043C108.655 89.3944 109.349 86.5211 109.349 83.2846Z"/><path fill="#000" d="M192.203 56.7318C193.788 56.7318 195.109 57.3263 196.166 58.5152C197.289 59.6381 197.85 61.0912 197.85 62.8746C197.85 63.4691 197.718 64.2287 197.454 65.1534L182.295 105.973C181.899 107.162 181.172 108.12 180.115 108.847C179.125 109.507 178.035 109.837 176.846 109.837L176.053 109.738C173.808 109.606 172.123 108.351 171 105.973L162.579 81.6003L154.553 105.973C153.431 108.351 151.746 109.606 149.5 109.738L148.708 109.837C147.519 109.837 146.396 109.507 145.339 108.847C144.348 108.12 143.655 107.162 143.259 105.973L128.1 65.1534C127.836 64.4268 127.703 63.6672 127.703 62.8746C127.703 61.2233 128.232 59.8032 129.289 58.6143C130.412 57.3593 131.865 56.7318 133.648 56.7318C134.969 56.7318 136.092 57.0621 137.017 57.7226C138.008 58.317 138.701 59.2418 139.097 60.4967L149.798 89.5265L157.625 68.3239C158.682 65.88 160.498 64.658 163.074 64.658C164.461 64.658 165.518 64.9552 166.245 65.5497C167.037 66.1442 167.698 67.0689 168.226 68.3239L175.855 89.0311L186.456 60.4967C186.853 59.2418 187.546 58.317 188.537 57.7226C189.528 57.0621 190.75 56.7318 192.203 56.7318Z"/><path fill="#000" d="M254.778 81.9966C254.712 83.5818 254.085 84.8698 252.896 85.8606C251.707 86.8514 250.32 87.3468 248.734 87.3468H216.039C216.831 91.2438 218.648 94.3152 221.488 96.561C224.328 98.7407 227.532 99.8305 231.099 99.8305C233.807 99.8305 235.92 99.5993 237.44 99.137C238.959 98.6086 240.148 98.0802 241.006 97.5518C241.931 96.9573 242.559 96.561 242.889 96.3628C244.078 95.7683 245.201 95.4711 246.257 95.4711C247.645 95.4711 248.833 95.9665 249.824 96.9573C250.815 97.9481 251.31 99.104 251.31 100.425C251.31 102.208 250.386 103.827 248.536 105.28C246.687 106.799 244.21 108.087 241.105 109.144C238.001 110.201 234.864 110.729 231.693 110.729C226.145 110.729 221.29 109.573 217.129 107.261C213.033 104.95 209.863 101.779 207.617 97.7499C205.371 93.6547 204.249 89.0641 204.249 83.9781C204.249 78.2977 205.438 73.3108 207.815 69.0174C210.193 64.7241 213.331 61.4545 217.228 59.2087C221.125 56.8969 225.286 55.741 229.712 55.741C234.071 55.741 238.166 56.93 241.997 59.3078C245.894 61.6857 248.999 64.8892 251.31 68.9183C253.622 72.9475 254.778 77.3069 254.778 81.9966ZM229.712 66.6395C222.05 66.6395 217.525 70.2394 216.138 77.439H242.096V76.7455C241.832 73.9713 240.478 71.5934 238.034 69.6119C235.59 67.6303 232.816 66.6395 229.712 66.6395Z"/><path fill="#000" d="M292.237 55.741C294.219 55.741 295.87 56.3025 297.191 57.4253C298.578 58.5482 299.272 59.8692 299.272 61.3884C299.272 63.436 298.743 64.9883 297.686 66.0451C296.63 67.0359 295.375 67.5312 293.922 67.5312C292.931 67.5312 291.808 67.3001 290.553 66.8377C290.355 66.7717 289.892 66.6396 289.166 66.4414C288.505 66.2432 287.779 66.1442 286.986 66.1442C285.269 66.1442 283.617 66.6726 282.032 67.7294C280.447 68.7862 279.126 70.4045 278.069 72.5842C277.078 74.6979 276.583 77.2408 276.583 80.2132V103.695C276.583 105.412 276.022 106.865 274.899 108.054C273.776 109.177 272.356 109.738 270.638 109.738C268.921 109.738 267.501 109.177 266.378 108.054C265.255 106.865 264.694 105.412 264.694 103.695V62.7755C264.694 61.0582 265.255 59.6381 266.378 58.5152C267.501 57.3263 268.921 56.7318 270.638 56.7318C272.356 56.7318 273.776 57.3263 274.899 58.5152C276.022 59.6381 276.583 61.0582 276.583 62.7755V64.0635C278.102 61.3554 280.282 59.3078 283.122 57.9207C285.962 56.4676 289.001 55.741 292.237 55.741Z"/><path fill="#000" d="M352.985 81.9966C352.919 83.5818 352.291 84.8698 351.102 85.8606C349.913 86.8514 348.526 87.3468 346.941 87.3468H314.246C315.038 91.2438 316.855 94.3152 319.695 96.561C322.535 98.7407 325.739 99.8305 329.305 99.8305C332.013 99.8305 334.127 99.5993 335.646 99.137C337.166 98.6086 338.354 98.0802 339.213 97.5518C340.138 96.9573 340.765 96.561 341.096 96.3628C342.285 95.7683 343.407 95.4711 344.464 95.4711C345.851 95.4711 347.04 95.9665 348.031 96.9573C349.022 97.9481 349.517 99.104 349.517 100.425C349.517 102.208 348.592 103.827 346.743 105.28C344.894 106.799 342.417 108.087 339.312 109.144C336.208 110.201 333.07 110.729 329.9 110.729C324.351 110.729 319.497 109.573 315.335 107.261C311.24 104.95 308.07 101.779 305.824 97.7499C303.578 93.6547 302.455 89.0641 302.455 83.9781C302.455 78.2977 303.644 73.3108 306.022 69.0174C308.4 64.7241 311.537 61.4545 315.435 59.2087C319.332 56.8969 323.493 55.741 327.918 55.741C332.278 55.741 336.373 56.93 340.204 59.3078C344.101 61.6857 347.205 64.8892 349.517 68.9183C351.829 72.9475 352.985 77.3069 352.985 81.9966ZM327.918 66.6395C320.256 66.6395 315.732 70.2394 314.345 77.439H340.303V76.7455C340.039 73.9713 338.685 71.5934 336.241 69.6119C333.797 67.6303 331.023 66.6395 327.918 66.6395Z"/><path fill="#000" d="M405.801 36.4209C407.518 36.4209 408.938 36.9823 410.061 38.1052C411.184 39.2281 411.746 40.6812 411.746 42.4646V103.695C411.746 105.412 411.184 106.865 410.061 108.054C408.938 109.177 407.518 109.738 405.801 109.738C404.084 109.738 402.664 109.177 401.541 108.054C400.484 106.931 399.922 105.511 399.856 103.794C398.205 105.709 395.959 107.36 393.119 108.748C390.345 110.069 387.406 110.729 384.301 110.729C379.744 110.729 375.615 109.573 371.916 107.261C368.218 104.883 365.278 101.614 363.099 97.4527C360.985 93.2914 359.928 88.5687 359.928 83.2846C359.928 78.0004 360.985 73.2777 363.099 69.1165C365.212 64.8892 368.085 61.6196 371.718 59.3078C375.417 56.93 379.479 55.741 383.905 55.741C387.075 55.741 390.048 56.3355 392.822 57.5244C395.596 58.6473 397.941 60.1004 399.856 61.8838V42.4646C399.856 40.7473 400.418 39.3272 401.541 38.2043C402.664 37.0154 404.084 36.4209 405.801 36.4209ZM385.787 99.8305C390.081 99.8305 393.581 98.2783 396.29 95.1739C398.998 92.0034 400.352 88.0403 400.352 83.2846C400.352 78.5289 398.998 74.5658 396.29 71.3953C393.581 68.2248 390.081 66.6395 385.787 66.6395C381.56 66.6395 378.092 68.2248 375.384 71.3953C372.676 74.5658 371.322 78.5289 371.322 83.2846C371.322 88.0403 372.643 92.0034 375.285 95.1739C377.993 98.2783 381.494 99.8305 385.787 99.8305Z"/><path fill="#000" d="M477.185 57.9207C481.544 57.9207 485.507 59.0436 489.074 61.2894C492.641 63.5351 495.415 66.6726 497.397 70.7017C499.444 74.6648 500.468 79.1563 500.468 84.1763C500.468 89.1302 499.444 93.6547 497.397 97.7499C495.415 101.779 492.641 104.95 489.074 107.261C485.573 109.573 481.643 110.729 477.284 110.729C473.519 110.729 470.018 109.804 466.782 107.955C463.611 106.039 461.035 103.529 459.054 100.425V106.964C459.054 107.823 458.756 108.549 458.162 109.144C457.634 109.738 456.94 110.036 456.081 110.036C455.223 110.036 454.496 109.738 453.902 109.144C453.373 108.549 453.109 107.823 453.109 106.964V39.4923C453.109 38.6336 453.373 37.9401 453.902 37.4117C454.496 36.8172 455.223 36.52 456.081 36.52C456.94 36.52 457.634 36.8172 458.162 37.4117C458.756 37.9401 459.054 38.6336 459.054 39.4923V68.7202C460.837 65.4836 463.347 62.8746 466.584 60.8931C469.82 58.9115 473.354 57.9207 477.185 57.9207ZM476.689 105.181C480.124 105.181 483.196 104.256 485.904 102.407C488.678 100.557 490.824 98.0471 492.344 94.8767C493.929 91.6401 494.722 88.0733 494.722 84.1763C494.722 80.2132 493.929 76.6794 492.344 73.575C490.824 70.4045 488.678 67.9276 485.904 66.1442C483.196 64.3608 480.124 63.4691 476.689 63.4691C473.189 63.4691 470.051 64.3608 467.277 66.1442C464.503 67.8615 462.356 70.3054 460.837 73.4759C459.318 76.6464 458.558 80.2132 458.558 84.1763C458.558 88.1394 459.318 91.7392 460.837 94.9757C462.422 98.1462 464.569 100.656 467.277 102.506C470.051 104.289 473.189 105.181 476.689 105.181Z"/><path fill="#000" d="M550.459 58.218C551.318 58.218 552.011 58.5152 552.539 59.1097C553.134 59.6381 553.431 60.3316 553.431 61.1903V104.883C553.431 110.102 552.407 114.56 550.36 118.259C548.312 121.958 545.472 124.765 541.839 126.681C538.206 128.596 534.111 129.554 529.553 129.554C526.779 129.554 524.17 129.257 521.726 128.662C519.349 128.068 517.367 127.275 515.782 126.284C514.395 125.426 513.701 124.468 513.701 123.411C513.701 123.279 513.767 122.949 513.899 122.42C514.097 121.76 514.428 121.264 514.89 120.934C515.352 120.604 515.848 120.439 516.376 120.439C516.772 120.439 517.169 120.538 517.565 120.736C521.792 123.048 525.822 124.204 529.653 124.204C535.135 124.204 539.461 122.486 542.632 119.052C545.868 115.617 547.487 110.927 547.487 104.983V101.515C545.835 104.289 543.457 106.535 540.353 108.252C537.249 109.903 533.88 110.729 530.247 110.729C524.501 110.729 520.141 109.012 517.169 105.577C514.196 102.142 512.71 97.4857 512.71 91.6071V61.1903C512.71 60.3316 512.975 59.6381 513.503 59.1097C514.097 58.5152 514.824 58.218 515.683 58.218C516.541 58.218 517.235 58.5152 517.763 59.1097C518.358 59.6381 518.655 60.3316 518.655 61.1903V90.7154C518.655 95.4711 519.679 99.0709 521.726 101.515C523.84 103.959 527.11 105.181 531.535 105.181C534.243 105.181 536.819 104.52 539.263 103.199C541.773 101.812 543.755 100.029 545.208 97.849C546.727 95.6032 547.487 93.2254 547.487 90.7154V61.1903C547.487 60.3316 547.751 59.6381 548.279 59.1097C548.874 58.5152 549.6 58.218 550.459 58.218Z"/><g clip-path="url(#clip0_521_347)"><path fill="#000" fill-rule="evenodd" d="M687.603 171.234C707.079 171.234 725.033 164.716 739.402 153.741L726.651 140.991C715.649 148.744 702.229 153.298 687.745 153.298C673.159 153.298 659.651 148.679 648.605 140.825L635.739 153.691C650.118 164.696 668.097 171.234 687.603 171.234ZM619.635 137.555L632.505 124.685C624.709 113.664 620.128 100.207 620.128 85.6805C620.128 71.197 624.682 57.7772 632.435 46.7744L619.685 34.0244C608.71 48.3927 602.191 66.3465 602.191 85.8228C602.191 105.269 608.69 123.198 619.635 137.555ZM773.015 85.8228C773.015 105.299 766.496 123.253 755.521 137.621L742.819 124.92C750.717 113.855 755.363 100.31 755.363 85.6805C755.363 71.094 750.744 57.5862 742.89 46.5399L755.471 33.9587C766.476 48.338 773.015 66.3168 773.015 85.8228ZM739.336 17.8547C724.978 6.91014 707.05 0.411133 687.603 0.411133C668.127 0.411133 650.173 6.92999 635.805 17.9048L648.506 30.6064C659.571 22.7091 673.116 18.0629 687.745 18.0629C702.272 18.0629 715.729 22.6439 726.75 30.44L739.336 17.8547Z" clip-rule="evenodd"/><path fill="#000" d="M708.956 85.8226C708.956 97.6155 699.396 107.176 687.603 107.176C675.81 107.176 666.25 97.6155 666.25 85.8226C666.25 74.0298 675.81 64.4697 687.603 64.4697C699.396 64.4697 708.956 74.0298 708.956 85.8226Z"/><path fill="#000" fill-rule="evenodd" d="M680.281 32.8677C656.607 36.0868 637.868 54.8263 634.648 78.5004H652.581C655.503 64.6913 666.432 53.8376 680.281 51.0264V32.8677ZM722.216 78.5004C719.315 64.7861 708.515 53.9868 694.801 51.0854V32.8677C718.475 36.0868 737.215 54.8263 740.434 78.5004H722.216ZM694.801 120.72C708.61 117.799 719.464 106.87 722.275 93.0204H740.434C737.215 116.694 718.475 135.434 694.801 138.653V120.72ZM652.522 93.0204C655.353 106.965 666.337 117.949 680.281 120.779V138.653C656.607 135.434 637.868 116.694 634.648 93.0204H652.522Z" clip-rule="evenodd"/></g><defs><clipPath id="clip0_521_347"><rect width="635.748" height="170.823" fill="#fff" transform="translate(137.553 0.411133)"/></clipPath></defs></svg>