<svg xmlns="http://www.w3.org/2000/svg" width="775" height="172" fill="none" viewBox="0 0 775 172"><path fill="#fff" d="M35.4367 56.0418C39.9942 56.0418 44.1225 57.2307 47.8214 59.6086C51.5203 61.9204 54.4265 65.1569 56.5402 69.3182C58.7199 73.4795 59.8097 78.2022 59.8097 83.4863C59.8097 88.7704 58.7529 93.5261 56.6393 97.7534C54.5256 101.915 51.6193 105.184 47.9204 107.562C44.2876 109.874 40.2584 111.03 35.833 111.03C32.6625 111.03 29.6571 110.402 26.8169 109.147C24.0428 107.826 21.7309 106.241 19.8815 104.392V123.811C19.8815 125.528 19.3201 126.948 18.1972 128.071C17.0743 129.26 15.6542 129.855 13.9368 129.855C12.2195 129.855 10.7994 129.293 9.67651 128.17C8.55363 127.047 7.99219 125.594 7.99219 123.811V63.0763C7.99219 61.359 8.55363 59.9389 9.67651 58.816C10.7994 57.627 12.2195 57.0326 13.9368 57.0326C15.6542 57.0326 17.0743 57.627 18.1972 58.816C19.3201 59.9389 19.8815 61.359 19.8815 63.0763V63.4726C21.4667 61.4911 23.6795 59.7737 26.5197 58.3206C29.3599 56.8014 32.3322 56.0418 35.4367 56.0418ZM33.9505 100.131C38.1778 100.131 41.6455 98.5461 44.3536 95.3756C47.0618 92.2051 48.4158 88.242 48.4158 83.4863C48.4158 78.7306 47.0618 74.8005 44.3536 71.6961C41.7116 68.5256 38.2439 66.9403 33.9505 66.9403C29.6571 66.9403 26.1564 68.5256 23.4483 71.6961C20.7402 74.8005 19.3861 78.7306 19.3861 83.4863C19.3861 88.242 20.7402 92.2051 23.4483 95.3756C26.1564 98.5461 29.6571 100.131 33.9505 100.131Z"/><path fill="#fff" d="M120.648 83.5854C120.648 88.8695 119.459 93.6252 117.081 97.8525C114.703 102.014 111.434 105.25 107.273 107.562C103.177 109.874 98.6528 111.03 93.6989 111.03C88.679 111.03 84.1214 109.874 80.0262 107.562C75.931 105.25 72.6945 102.014 70.3166 97.8525C67.9388 93.6252 66.7498 88.8695 66.7498 83.5854C66.7498 78.3012 67.9388 73.5785 70.3166 69.4173C72.6945 65.19 75.931 61.9204 80.0262 59.6086C84.1214 57.2307 88.679 56.0418 93.6989 56.0418C98.6528 56.0418 103.177 57.2307 107.273 59.6086C111.434 61.9204 114.703 65.19 117.081 69.4173C119.459 73.5785 120.648 78.3012 120.648 83.5854ZM108.759 83.5854C108.759 80.3488 108.065 77.4756 106.678 74.9656C105.357 72.3896 103.541 70.408 101.229 69.021C98.9831 67.6339 96.4731 66.9403 93.6989 66.9403C90.9247 66.9403 88.3818 67.6339 86.0699 69.021C83.8242 70.408 82.0078 72.3896 80.6207 74.9656C79.2996 77.4756 78.6391 80.3488 78.6391 83.5854C78.6391 86.8219 79.2996 89.6952 80.6207 92.2051C82.0078 94.7151 83.8242 96.6636 86.0699 98.0507C88.3818 99.4378 90.9247 100.131 93.6989 100.131C96.4731 100.131 98.9831 99.4378 101.229 98.0507C103.541 96.6636 105.357 94.7151 106.678 92.2051C108.065 89.6952 108.759 86.8219 108.759 83.5854Z"/><path fill="#fff" d="M191.613 57.0326C193.198 57.0326 194.519 57.627 195.576 58.816C196.699 59.9389 197.261 61.392 197.261 63.1754C197.261 63.7698 197.128 64.5294 196.864 65.4542L181.705 106.274C181.309 107.463 180.582 108.421 179.526 109.147C178.535 109.808 177.445 110.138 176.256 110.138L175.463 110.039C173.218 109.907 171.533 108.652 170.41 106.274L161.989 81.901L153.964 106.274C152.841 108.652 151.156 109.907 148.911 110.039L148.118 110.138C146.929 110.138 145.806 109.808 144.749 109.147C143.759 108.421 143.065 107.463 142.669 106.274L127.51 65.4542C127.246 64.7276 127.114 63.968 127.114 63.1754C127.114 61.5241 127.642 60.104 128.699 58.915C129.822 57.6601 131.275 57.0326 133.058 57.0326C134.379 57.0326 135.502 57.3628 136.427 58.0233C137.418 58.6178 138.111 59.5425 138.508 60.7975L149.208 89.8272L157.035 68.6247C158.092 66.1807 159.908 64.9588 162.484 64.9588C163.871 64.9588 164.928 65.256 165.655 65.8505C166.447 66.4449 167.108 67.3697 167.636 68.6247L175.265 89.3319L185.867 60.7975C186.263 59.5425 186.956 58.6178 187.947 58.0233C188.938 57.3628 190.16 57.0326 191.613 57.0326Z"/><path fill="#fff" d="M254.188 82.2974C254.122 83.8826 253.495 85.1706 252.306 86.1614C251.117 87.1522 249.73 87.6475 248.145 87.6475H215.449C216.242 91.5446 218.058 94.616 220.898 96.8618C223.738 99.0415 226.942 100.131 230.509 100.131C233.217 100.131 235.331 99.9001 236.85 99.4378C238.369 98.9094 239.558 98.381 240.417 97.8525C241.341 97.2581 241.969 96.8617 242.299 96.6636C243.488 96.0691 244.611 95.7719 245.668 95.7719C247.055 95.7719 248.244 96.2673 249.234 97.2581C250.225 98.2488 250.721 99.4048 250.721 100.726C250.721 102.509 249.796 104.127 247.946 105.581C246.097 107.1 243.62 108.388 240.516 109.445C237.411 110.501 234.274 111.03 231.103 111.03C225.555 111.03 220.7 109.874 216.539 107.562C212.444 105.25 209.273 102.08 207.027 98.0507C204.782 93.9555 203.659 89.3649 203.659 84.2789C203.659 78.5985 204.848 73.6116 207.226 69.3182C209.603 65.0248 212.741 61.7553 216.638 59.5095C220.535 57.1977 224.696 56.0418 229.122 56.0418C233.481 56.0418 237.576 57.2307 241.407 59.6086C245.304 61.9865 248.409 65.19 250.721 69.2191C253.032 73.2483 254.188 77.6077 254.188 82.2974ZM229.122 66.9403C221.46 66.9403 216.935 70.5401 215.548 77.7398H241.506V77.0462C241.242 74.2721 239.888 71.8942 237.444 69.9127C235 67.9311 232.226 66.9403 229.122 66.9403Z"/><path fill="#fff" d="M291.647 56.0418C293.629 56.0418 295.28 56.6032 296.601 57.7261C297.988 58.849 298.682 60.17 298.682 61.6892C298.682 63.7368 298.153 65.289 297.097 66.3459C296.04 67.3366 294.785 67.832 293.332 67.832C292.341 67.832 291.218 67.6008 289.963 67.1385C289.765 67.0724 289.303 66.9403 288.576 66.7422C287.915 66.544 287.189 66.4449 286.396 66.4449C284.679 66.4449 283.028 66.9734 281.442 68.0302C279.857 69.087 278.536 70.7053 277.479 72.885C276.488 74.9986 275.993 77.5416 275.993 80.514V103.995C275.993 105.713 275.432 107.166 274.309 108.355C273.186 109.478 271.766 110.039 270.048 110.039C268.331 110.039 266.911 109.478 265.788 108.355C264.665 107.166 264.104 105.713 264.104 103.995V63.0763C264.104 61.359 264.665 59.9389 265.788 58.816C266.911 57.627 268.331 57.0326 270.048 57.0326C271.766 57.0326 273.186 57.627 274.309 58.816C275.432 59.9389 275.993 61.359 275.993 63.0763V64.3643C277.512 61.6562 279.692 59.6086 282.532 58.2215C285.372 56.7684 288.411 56.0418 291.647 56.0418Z"/><path fill="#fff" d="M352.395 82.2974C352.329 83.8826 351.702 85.1706 350.513 86.1614C349.324 87.1522 347.937 87.6475 346.351 87.6475H313.656C314.448 91.5446 316.265 94.616 319.105 96.8618C321.945 99.0415 325.149 100.131 328.716 100.131C331.424 100.131 333.537 99.9001 335.056 99.4378C336.576 98.9094 337.765 98.381 338.623 97.8525C339.548 97.2581 340.175 96.8617 340.506 96.6636C341.695 96.0691 342.818 95.7719 343.874 95.7719C345.261 95.7719 346.45 96.2673 347.441 97.2581C348.432 98.2488 348.927 99.4048 348.927 100.726C348.927 102.509 348.003 104.127 346.153 105.581C344.304 107.1 341.827 108.388 338.722 109.445C335.618 110.501 332.48 111.03 329.31 111.03C323.762 111.03 318.907 109.874 314.746 107.562C310.65 105.25 307.48 102.08 305.234 98.0507C302.988 93.9555 301.865 89.3649 301.865 84.2789C301.865 78.5985 303.054 73.6116 305.432 69.3182C307.81 65.0248 310.948 61.7553 314.845 59.5095C318.742 57.1977 322.903 56.0418 327.328 56.0418C331.688 56.0418 335.783 57.2307 339.614 59.6086C343.511 61.9865 346.616 65.19 348.927 69.2191C351.239 73.2483 352.395 77.6077 352.395 82.2974ZM327.328 66.9403C319.666 66.9403 315.142 70.5401 313.755 77.7398H339.713V77.0462C339.449 74.2721 338.095 71.8942 335.651 69.9127C333.207 67.9311 330.433 66.9403 327.328 66.9403Z"/><path fill="#fff" d="M405.211 36.7217C406.928 36.7217 408.349 37.2831 409.471 38.406C410.594 39.5289 411.156 40.982 411.156 42.7654V103.995C411.156 105.713 410.594 107.166 409.471 108.355C408.349 109.478 406.928 110.039 405.211 110.039C403.494 110.039 402.074 109.478 400.951 108.355C399.894 107.232 399.333 105.812 399.266 104.094C397.615 106.01 395.369 107.661 392.529 109.048C389.755 110.369 386.816 111.03 383.711 111.03C379.154 111.03 375.026 109.874 371.327 107.562C367.628 105.184 364.688 101.915 362.509 97.7534C360.395 93.5922 359.338 88.8695 359.338 83.5854C359.338 78.3012 360.395 73.5785 362.509 69.4173C364.622 65.19 367.496 61.9204 371.128 59.6086C374.827 57.2307 378.89 56.0418 383.315 56.0418C386.485 56.0418 389.458 56.6363 392.232 57.8252C395.006 58.9481 397.351 60.4012 399.266 62.1846V42.7654C399.266 41.0481 399.828 39.628 400.951 38.5051C402.074 37.3161 403.494 36.7217 405.211 36.7217ZM385.197 100.131C389.491 100.131 392.992 98.5791 395.7 95.4747C398.408 92.3042 399.762 88.3411 399.762 83.5854C399.762 78.8296 398.408 74.8665 395.7 71.6961C392.992 68.5256 389.491 66.9403 385.197 66.9403C380.97 66.9403 377.502 68.5256 374.794 71.6961C372.086 74.8665 370.732 78.8296 370.732 83.5854C370.732 88.3411 372.053 92.3042 374.695 95.4747C377.403 98.5791 380.904 100.131 385.197 100.131Z"/><path fill="#fff" d="M476.595 58.2215C480.954 58.2215 484.918 59.3444 488.484 61.5901C492.051 63.8359 494.825 66.9734 496.807 71.0025C498.854 74.9656 499.878 79.4571 499.878 84.4771C499.878 89.4309 498.854 93.9555 496.807 98.0507C494.825 102.08 492.051 105.25 488.484 107.562C484.984 109.874 481.053 111.03 476.694 111.03C472.929 111.03 469.428 110.105 466.192 108.256C463.021 106.34 460.445 103.83 458.464 100.726V107.265C458.464 108.124 458.167 108.85 457.572 109.445C457.044 110.039 456.35 110.336 455.491 110.336C454.633 110.336 453.906 110.039 453.312 109.445C452.783 108.85 452.519 108.124 452.519 107.265V39.7931C452.519 38.9344 452.783 38.2409 453.312 37.7125C453.906 37.118 454.633 36.8208 455.491 36.8208C456.35 36.8208 457.044 37.118 457.572 37.7125C458.167 38.2409 458.464 38.9344 458.464 39.7931V69.021C460.247 65.7844 462.757 63.1754 465.994 61.1938C469.23 59.2123 472.764 58.2215 476.595 58.2215ZM476.1 105.482C479.534 105.482 482.606 104.557 485.314 102.707C488.088 100.858 490.235 98.3479 491.754 95.1774C493.339 91.9409 494.132 88.3741 494.132 84.4771C494.132 80.514 493.339 76.9802 491.754 73.8758C490.235 70.7053 488.088 68.2283 485.314 66.4449C482.606 64.6616 479.534 63.7699 476.1 63.7699C472.599 63.7699 469.461 64.6616 466.687 66.4449C463.913 68.1623 461.766 70.6062 460.247 73.7767C458.728 76.9472 457.968 80.514 457.968 84.4771C457.968 88.4402 458.728 92.04 460.247 95.2765C461.832 98.447 463.979 100.957 466.687 102.806C469.461 104.59 472.599 105.482 476.1 105.482Z"/><path fill="#fff" d="M549.869 58.5187C550.728 58.5187 551.421 58.816 551.95 59.4104C552.544 59.9389 552.841 60.6324 552.841 61.4911V105.184C552.841 110.402 551.818 114.861 549.77 118.56C547.722 122.259 544.882 125.066 541.249 126.981C537.616 128.897 533.521 129.855 528.964 129.855C526.189 129.855 523.58 129.557 521.137 128.963C518.759 128.368 516.777 127.576 515.192 126.585C513.805 125.726 513.111 124.769 513.111 123.712C513.111 123.58 513.177 123.249 513.309 122.721C513.508 122.06 513.838 121.565 514.3 121.235C514.763 120.905 515.258 120.739 515.786 120.739C516.183 120.739 516.579 120.839 516.975 121.037C521.203 123.348 525.232 124.504 529.063 124.504C534.545 124.504 538.871 122.787 542.042 119.352C545.278 115.918 546.897 111.228 546.897 105.283V101.816C545.245 104.59 542.868 106.836 539.763 108.553C536.659 110.204 533.29 111.03 529.657 111.03C523.911 111.03 519.551 109.313 516.579 105.878C513.607 102.443 512.12 97.7865 512.12 91.9079V61.4911C512.12 60.6324 512.385 59.9389 512.913 59.4104C513.508 58.816 514.234 58.5187 515.093 58.5187C515.951 58.5187 516.645 58.816 517.173 59.4104C517.768 59.9389 518.065 60.6324 518.065 61.4911V91.0162C518.065 95.7719 519.089 99.3717 521.137 101.816C523.25 104.26 526.52 105.482 530.945 105.482C533.653 105.482 536.229 104.821 538.673 103.5C541.183 102.113 543.165 100.329 544.618 98.1498C546.137 95.904 546.897 93.5261 546.897 91.0162V61.4911C546.897 60.6324 547.161 59.9389 547.689 59.4104C548.284 58.816 549.01 58.5187 549.869 58.5187Z"/><g clip-path="url(#clip0_521_220)"><path fill="#9B9B9B" fill-rule="evenodd" d="M687.013 171.535C706.49 171.535 724.443 165.016 738.812 154.042L726.062 141.291C715.059 149.045 701.639 153.599 687.156 153.599C672.569 153.599 659.061 148.98 648.015 141.125L635.149 153.991C649.528 164.997 667.507 171.535 687.013 171.535ZM619.045 137.856L631.915 124.986C624.119 113.965 619.538 100.508 619.538 85.9812C619.538 71.4978 624.092 58.0779 631.845 47.0752L619.095 34.3252C608.12 48.6935 601.602 66.6473 601.602 86.1236C601.602 105.57 608.101 123.499 619.045 137.856ZM772.425 86.1236C772.425 105.6 765.906 123.554 754.931 137.922L742.23 125.22C750.127 114.156 754.773 100.611 754.773 85.9812C754.773 71.3947 750.155 57.887 742.3 46.8407L754.881 34.2595C765.886 48.6388 772.425 66.6176 772.425 86.1236ZM738.746 18.1555C724.389 7.21092 706.46 0.711914 687.013 0.711914C667.537 0.711914 649.583 7.23077 635.215 18.2056L647.917 30.9072C658.981 23.0099 672.526 18.3637 687.156 18.3637C701.682 18.3637 715.139 22.9446 726.161 30.7408L738.746 18.1555Z" clip-rule="evenodd"/><path fill="#fff" d="M708.366 86.1234C708.366 97.9163 698.806 107.476 687.013 107.476C675.22 107.476 665.66 97.9163 665.66 86.1234C665.66 74.3305 675.22 64.7705 687.013 64.7705C698.806 64.7705 708.366 74.3305 708.366 86.1234Z"/><path fill="#7B7B7B" fill-rule="evenodd" d="M679.691 33.168C656.017 36.3871 637.278 55.1266 634.059 78.8007H651.992C654.913 64.9916 665.842 54.1379 679.691 51.3267V33.168ZM721.626 78.8007C718.725 65.0864 707.926 54.2871 694.211 51.3857V33.168C717.885 36.3871 736.625 55.1266 739.844 78.8007H721.626ZM694.211 121.02C708.02 118.099 718.874 107.17 721.685 93.3206H739.844C736.625 116.995 717.885 135.734 694.211 138.953V121.02ZM651.933 93.3206C654.763 107.265 665.747 118.249 679.691 121.079V138.953C656.017 135.734 637.278 116.995 634.059 93.3206H651.933Z" clip-rule="evenodd"/></g><defs><clipPath id="clip0_521_220"><rect width="635.748" height="170.823" fill="#fff" transform="translate(136.963 0.711914)"/></clipPath></defs></svg>