<svg width="775" height="171" viewBox="0 0 775 171" fill="none" xmlns="http://www.w3.org/2000/svg">
<path d="M36.0265 55.4407C40.5841 55.4407 44.7123 56.6297 48.4112 59.0075C52.1101 61.3193 55.0164 64.5559 57.13 68.7171C59.3097 72.8784 60.3996 77.6011 60.3996 82.8852C60.3996 88.1693 59.3428 92.9251 57.2291 97.1524C55.1155 101.314 52.2092 104.583 48.5103 106.961C44.8774 109.273 40.8483 110.429 36.4228 110.429C33.2523 110.429 30.247 109.801 27.4068 108.546C24.6326 107.225 22.3208 105.64 20.4713 103.791V123.21C20.4713 124.927 19.9099 126.347 18.787 127.47C17.6641 128.659 16.244 129.254 14.5267 129.254C12.8093 129.254 11.3892 128.692 10.2663 127.569C9.14347 126.446 8.58203 124.993 8.58203 123.21V62.4752C8.58203 60.7579 9.14347 59.3378 10.2663 58.2149C11.3892 57.026 12.8093 56.4315 14.5267 56.4315C16.244 56.4315 17.6641 57.026 18.787 58.2149C19.9099 59.3378 20.4713 60.7579 20.4713 62.4752V62.8715C22.0566 60.89 24.2693 59.1726 27.1095 57.7195C29.9498 56.2003 32.9221 55.4407 36.0265 55.4407ZM34.5404 99.5302C38.7677 99.5302 42.2354 97.945 44.9435 94.7745C47.6516 91.604 49.0057 87.6409 49.0057 82.8852C49.0057 78.1295 47.6516 74.1994 44.9435 71.095C42.3014 67.9245 38.8337 66.3393 34.5404 66.3393C30.247 66.3393 26.7463 67.9245 24.0381 71.095C21.33 74.1994 19.976 78.1295 19.976 82.8852C19.976 87.6409 21.33 91.604 24.0381 94.7745C26.7463 97.945 30.247 99.5302 34.5404 99.5302Z" fill="black"/>
<path d="M121.238 82.9843C121.238 88.2684 120.049 93.0242 117.671 97.2515C115.293 101.413 112.024 104.649 107.862 106.961C103.767 109.273 99.2426 110.429 94.2888 110.429C89.2688 110.429 84.7113 109.273 80.6161 106.961C76.5209 104.649 73.2843 101.413 70.9065 97.2515C68.5286 93.0242 67.3397 88.2684 67.3397 82.9843C67.3397 77.7002 68.5286 72.9775 70.9065 68.8162C73.2843 64.5889 76.5209 61.3193 80.6161 59.0075C84.7113 56.6297 89.2688 55.4407 94.2888 55.4407C99.2426 55.4407 103.767 56.6297 107.862 59.0075C112.024 61.3193 115.293 64.5889 117.671 68.8162C120.049 72.9775 121.238 77.7002 121.238 82.9843ZM109.349 82.9843C109.349 79.7478 108.655 76.8745 107.268 74.3645C105.947 71.7885 104.13 69.807 101.819 68.4199C99.5729 67.0328 97.0629 66.3393 94.2888 66.3393C91.5146 66.3393 88.9716 67.0328 86.6598 68.4199C84.414 69.807 82.5976 71.7885 81.2105 74.3645C79.8895 76.8745 79.229 79.7478 79.229 82.9843C79.229 86.2208 79.8895 89.0941 81.2105 91.604C82.5976 94.114 84.414 96.0625 86.6598 97.4496C88.9716 98.8367 91.5146 99.5302 94.2888 99.5302C97.0629 99.5302 99.5729 98.8367 101.819 97.4496C104.13 96.0625 105.947 94.114 107.268 91.604C108.655 89.0941 109.349 86.2208 109.349 82.9843Z" fill="black"/>
<path d="M192.203 56.4315C193.788 56.4315 195.109 57.026 196.166 58.2149C197.289 59.3378 197.85 60.7909 197.85 62.5743C197.85 63.1688 197.718 63.9284 197.454 64.8531L182.295 105.673C181.899 106.862 181.172 107.82 180.115 108.546C179.125 109.207 178.035 109.537 176.846 109.537L176.053 109.438C173.808 109.306 172.123 108.051 171 105.673L162.579 81.3L154.553 105.673C153.431 108.051 151.746 109.306 149.5 109.438L148.708 109.537C147.519 109.537 146.396 109.207 145.339 108.546C144.348 107.82 143.655 106.862 143.259 105.673L128.1 64.8531C127.836 64.1265 127.703 63.3669 127.703 62.5743C127.703 60.923 128.232 59.5029 129.289 58.314C130.412 57.059 131.865 56.4315 133.648 56.4315C134.969 56.4315 136.092 56.7618 137.017 57.4223C138.008 58.0167 138.701 58.9415 139.097 60.1965L149.798 89.2262L157.625 68.0236C158.682 65.5797 160.498 64.3577 163.074 64.3577C164.461 64.3577 165.518 64.6549 166.245 65.2494C167.037 65.8439 167.698 66.7686 168.226 68.0236L175.855 88.7308L186.456 60.1965C186.853 58.9415 187.546 58.0167 188.537 57.4223C189.528 56.7618 190.75 56.4315 192.203 56.4315Z" fill="black"/>
<path d="M254.778 81.6963C254.712 83.2815 254.085 84.5695 252.896 85.5603C251.707 86.5511 250.32 87.0465 248.734 87.0465H216.039C216.831 90.9435 218.648 94.0149 221.488 96.2607C224.328 98.4404 227.532 99.5302 231.099 99.5302C233.807 99.5302 235.92 99.2991 237.44 98.8367C238.959 98.3083 240.148 97.7799 241.006 97.2515C241.931 96.657 242.559 96.2607 242.889 96.0625C244.078 95.4681 245.201 95.1708 246.257 95.1708C247.645 95.1708 248.833 95.6662 249.824 96.657C250.815 97.6478 251.31 98.8037 251.31 100.125C251.31 101.908 250.386 103.526 248.536 104.979C246.687 106.499 244.21 107.787 241.105 108.844C238.001 109.9 234.864 110.429 231.693 110.429C226.145 110.429 221.29 109.273 217.129 106.961C213.033 104.649 209.863 101.479 207.617 97.4496C205.371 93.3544 204.249 88.7638 204.249 83.6778C204.249 77.9974 205.438 73.0105 207.815 68.7171C210.193 64.4238 213.331 61.1542 217.228 58.9084C221.125 56.5966 225.286 55.4407 229.712 55.4407C234.071 55.4407 238.166 56.6297 241.997 59.0075C245.894 61.3854 248.999 64.5889 251.31 68.618C253.622 72.6472 254.778 77.0066 254.778 81.6963ZM229.712 66.3393C222.05 66.3393 217.525 69.9391 216.138 77.1387H242.096V76.4452C241.832 73.671 240.478 71.2931 238.034 69.3116C235.59 67.33 232.816 66.3393 229.712 66.3393Z" fill="black"/>
<path d="M292.237 55.4407C294.219 55.4407 295.87 56.0022 297.191 57.125C298.578 58.2479 299.272 59.569 299.272 61.0881C299.272 63.1357 298.743 64.688 297.686 65.7448C296.63 66.7356 295.375 67.231 293.922 67.231C292.931 67.231 291.808 66.9998 290.553 66.5374C290.355 66.4714 289.892 66.3393 289.166 66.1411C288.505 65.9429 287.779 65.8439 286.986 65.8439C285.269 65.8439 283.617 66.3723 282.032 67.4291C280.447 68.4859 279.126 70.1042 278.069 72.2839C277.078 74.3976 276.583 76.9406 276.583 79.9129V103.394C276.583 105.112 276.022 106.565 274.899 107.754C273.776 108.877 272.356 109.438 270.638 109.438C268.921 109.438 267.501 108.877 266.378 107.754C265.255 106.565 264.694 105.112 264.694 103.394V62.4752C264.694 60.7579 265.255 59.3378 266.378 58.2149C267.501 57.026 268.921 56.4315 270.638 56.4315C272.356 56.4315 273.776 57.026 274.899 58.2149C276.022 59.3378 276.583 60.7579 276.583 62.4752V63.7632C278.102 61.0551 280.282 59.0075 283.122 57.6204C285.962 56.1673 289.001 55.4407 292.237 55.4407Z" fill="black"/>
<path d="M352.985 81.6963C352.919 83.2815 352.291 84.5695 351.102 85.5603C349.913 86.5511 348.526 87.0465 346.941 87.0465H314.246C315.038 90.9435 316.855 94.0149 319.695 96.2607C322.535 98.4404 325.739 99.5302 329.305 99.5302C332.013 99.5302 334.127 99.2991 335.646 98.8367C337.166 98.3083 338.354 97.7799 339.213 97.2515C340.138 96.657 340.765 96.2607 341.096 96.0625C342.285 95.4681 343.407 95.1708 344.464 95.1708C345.851 95.1708 347.04 95.6662 348.031 96.657C349.022 97.6478 349.517 98.8037 349.517 100.125C349.517 101.908 348.592 103.526 346.743 104.979C344.894 106.499 342.417 107.787 339.312 108.844C336.208 109.9 333.07 110.429 329.9 110.429C324.351 110.429 319.497 109.273 315.335 106.961C311.24 104.649 308.07 101.479 305.824 97.4496C303.578 93.3544 302.455 88.7638 302.455 83.6778C302.455 77.9974 303.644 73.0105 306.022 68.7171C308.4 64.4238 311.537 61.1542 315.435 58.9084C319.332 56.5966 323.493 55.4407 327.918 55.4407C332.278 55.4407 336.373 56.6297 340.204 59.0075C344.101 61.3854 347.205 64.5889 349.517 68.618C351.829 72.6472 352.985 77.0066 352.985 81.6963ZM327.918 66.3393C320.256 66.3393 315.732 69.9391 314.345 77.1387H340.303V76.4452C340.039 73.671 338.685 71.2931 336.241 69.3116C333.797 67.33 331.023 66.3393 327.918 66.3393Z" fill="black"/>
<path d="M405.801 36.1206C407.518 36.1206 408.938 36.682 410.061 37.8049C411.184 38.9278 411.746 40.3809 411.746 42.1643V103.394C411.746 105.112 411.184 106.565 410.061 107.754C408.938 108.877 407.518 109.438 405.801 109.438C404.084 109.438 402.664 108.877 401.541 107.754C400.484 106.631 399.922 105.211 399.856 103.493C398.205 105.409 395.959 107.06 393.119 108.447C390.345 109.768 387.406 110.429 384.301 110.429C379.744 110.429 375.615 109.273 371.916 106.961C368.218 104.583 365.278 101.314 363.099 97.1524C360.985 92.9911 359.928 88.2684 359.928 82.9843C359.928 77.7002 360.985 72.9775 363.099 68.8162C365.212 64.5889 368.085 61.3193 371.718 59.0075C375.417 56.6297 379.479 55.4407 383.905 55.4407C387.075 55.4407 390.048 56.0352 392.822 57.2241C395.596 58.347 397.941 59.8001 399.856 61.5835V42.1643C399.856 40.447 400.418 39.0269 401.541 37.904C402.664 36.7151 404.084 36.1206 405.801 36.1206ZM385.787 99.5302C390.081 99.5302 393.581 97.978 396.29 94.8736C398.998 91.7031 400.352 87.74 400.352 82.9843C400.352 78.2286 398.998 74.2655 396.29 71.095C393.581 67.9245 390.081 66.3393 385.787 66.3393C381.56 66.3393 378.092 67.9245 375.384 71.095C372.676 74.2655 371.322 78.2286 371.322 82.9843C371.322 87.74 372.643 91.7031 375.285 94.8736C377.993 97.978 381.494 99.5302 385.787 99.5302Z" fill="black"/>
<path d="M477.185 57.6204C481.544 57.6204 485.507 58.7433 489.074 60.9891C492.641 63.2348 495.415 66.3723 497.397 70.4014C499.444 74.3645 500.468 78.8561 500.468 83.876C500.468 88.8299 499.444 93.3544 497.397 97.4496C495.415 101.479 492.641 104.649 489.074 106.961C485.573 109.273 481.643 110.429 477.284 110.429C473.519 110.429 470.018 109.504 466.782 107.655C463.611 105.739 461.035 103.229 459.054 100.125V106.664C459.054 107.522 458.756 108.249 458.162 108.844C457.634 109.438 456.94 109.735 456.081 109.735C455.223 109.735 454.496 109.438 453.902 108.844C453.373 108.249 453.109 107.522 453.109 106.664V39.192C453.109 38.3333 453.373 37.6398 453.902 37.1114C454.496 36.5169 455.223 36.2197 456.081 36.2197C456.94 36.2197 457.634 36.5169 458.162 37.1114C458.756 37.6398 459.054 38.3333 459.054 39.192V68.4199C460.837 65.1834 463.347 62.5743 466.584 60.5928C469.82 58.6112 473.354 57.6204 477.185 57.6204ZM476.689 104.88C480.124 104.88 483.196 103.956 485.904 102.106C488.678 100.257 490.824 97.7468 492.344 94.5764C493.929 91.3398 494.722 87.773 494.722 83.876C494.722 79.9129 493.929 76.3791 492.344 73.2747C490.824 70.1042 488.678 67.6273 485.904 65.8439C483.196 64.0605 480.124 63.1688 476.689 63.1688C473.189 63.1688 470.051 64.0605 467.277 65.8439C464.503 67.5612 462.356 70.0051 460.837 73.1756C459.318 76.3461 458.558 79.9129 458.558 83.876C458.558 87.8391 459.318 91.4389 460.837 94.6754C462.422 97.8459 464.569 100.356 467.277 102.205C470.051 103.989 473.189 104.88 476.689 104.88Z" fill="black"/>
<path d="M550.459 57.9177C551.318 57.9177 552.011 58.2149 552.539 58.8094C553.134 59.3378 553.431 60.0313 553.431 60.89V104.583C553.431 109.801 552.407 114.26 550.36 117.959C548.312 121.658 545.472 124.465 541.839 126.38C538.206 128.296 534.111 129.254 529.553 129.254C526.779 129.254 524.17 128.956 521.726 128.362C519.349 127.767 517.367 126.975 515.782 125.984C514.395 125.125 513.701 124.168 513.701 123.111C513.701 122.979 513.767 122.648 513.899 122.12C514.097 121.459 514.428 120.964 514.89 120.634C515.352 120.303 515.848 120.138 516.376 120.138C516.772 120.138 517.169 120.237 517.565 120.436C521.792 122.747 525.822 123.903 529.653 123.903C535.135 123.903 539.461 122.186 542.632 118.751C545.868 115.317 547.487 110.627 547.487 104.682V101.215C545.835 103.989 543.457 106.234 540.353 107.952C537.249 109.603 533.88 110.429 530.247 110.429C524.501 110.429 520.141 108.711 517.169 105.277C514.196 101.842 512.71 97.1854 512.71 91.3068V60.89C512.71 60.0313 512.975 59.3378 513.503 58.8094C514.097 58.2149 514.824 57.9177 515.683 57.9177C516.541 57.9177 517.235 58.2149 517.763 58.8094C518.358 59.3378 518.655 60.0313 518.655 60.89V90.4151C518.655 95.1708 519.679 98.7707 521.726 101.215C523.84 103.658 527.11 104.88 531.535 104.88C534.243 104.88 536.819 104.22 539.263 102.899C541.773 101.512 543.755 99.7284 545.208 97.5487C546.727 95.3029 547.487 92.9251 547.487 90.4151V60.89C547.487 60.0313 547.751 59.3378 548.279 58.8094C548.874 58.2149 549.6 57.9177 550.459 57.9177Z" fill="black"/>
<g clip-path="url(#clip0_521_354)">
<path fill-rule="evenodd" clip-rule="evenodd" d="M687.603 170.934C707.079 170.934 725.033 164.415 739.402 153.44L726.651 140.69C715.649 148.444 702.229 152.998 687.745 152.998C673.159 152.998 659.651 148.379 648.605 140.524L635.739 153.39C650.118 164.395 668.097 170.934 687.603 170.934ZM619.635 137.255L632.505 124.385C624.709 113.364 620.128 99.907 620.128 85.3802C620.128 70.8967 624.682 57.4769 632.435 46.4741L619.685 33.7241C608.71 48.0924 602.191 66.0462 602.191 85.5225C602.191 104.969 608.69 122.898 619.635 137.255ZM773.015 85.5225C773.015 104.999 766.496 122.953 755.521 137.321L742.819 124.619C750.717 113.555 755.363 100.01 755.363 85.3802C755.363 70.7937 750.744 57.2859 742.89 46.2396L755.471 33.6584C766.476 48.0377 773.015 66.0165 773.015 85.5225ZM739.336 17.5544C724.978 6.60984 707.05 0.11084 687.603 0.11084C668.127 0.11084 650.173 6.6297 635.805 17.6045L648.506 30.3061C659.571 22.4088 673.116 17.7626 687.745 17.7626C702.272 17.7626 715.729 22.3436 726.75 30.1397L739.336 17.5544Z" fill="#01E0CB"/>
<path d="M708.956 85.5224C708.956 97.3152 699.396 106.875 687.603 106.875C675.81 106.875 666.25 97.3152 666.25 85.5224C666.25 73.7295 675.81 64.1694 687.603 64.1694C699.396 64.1694 708.956 73.7295 708.956 85.5224Z" fill="black"/>
<path fill-rule="evenodd" clip-rule="evenodd" d="M680.281 32.5674C656.607 35.7865 637.868 54.5261 634.648 78.2001H652.581C655.503 64.391 666.432 53.5373 680.281 50.7261V32.5674ZM722.216 78.2001C719.315 64.4858 708.515 53.6865 694.801 50.7851V32.5674C718.475 35.7865 737.215 54.526 740.434 78.2001H722.216ZM694.801 120.42C708.61 117.498 719.464 106.569 722.275 92.7201H740.434C737.215 116.394 718.475 135.134 694.801 138.353V120.42ZM652.522 92.7201C655.353 106.664 666.337 117.648 680.281 120.479V138.353C656.607 135.134 637.868 116.394 634.648 92.7201H652.522Z" fill="#0080FF"/>
</g>
<defs>
<clipPath id="clip0_521_354">
<rect width="635.748" height="170.823" fill="white" transform="translate(137.553 0.11084)"/>
</clipPath>
</defs>
</svg>
