<svg width="775" height="172" viewBox="0 0 775 172" fill="none" xmlns="http://www.w3.org/2000/svg">
<path d="M36.0265 56.0418C40.5841 56.0418 44.7123 57.2307 48.4112 59.6086C52.1101 61.9204 55.0164 65.1569 57.13 69.3182C59.3097 73.4795 60.3996 78.2022 60.3996 83.4863C60.3996 88.7704 59.3428 93.5261 57.2291 97.7534C55.1155 101.915 52.2092 105.184 48.5103 107.562C44.8774 109.874 40.8483 111.03 36.4228 111.03C33.2523 111.03 30.247 110.402 27.4068 109.147C24.6326 107.826 22.3208 106.241 20.4713 104.392V123.811C20.4713 125.528 19.9099 126.948 18.787 128.071C17.6641 129.26 16.244 129.855 14.5267 129.855C12.8093 129.855 11.3892 129.293 10.2663 128.17C9.14347 127.047 8.58203 125.594 8.58203 123.811V63.0763C8.58203 61.359 9.14347 59.9389 10.2663 58.816C11.3892 57.627 12.8093 57.0326 14.5267 57.0326C16.244 57.0326 17.6641 57.627 18.787 58.816C19.9099 59.9389 20.4713 61.359 20.4713 63.0763V63.4726C22.0566 61.4911 24.2693 59.7737 27.1095 58.3206C29.9498 56.8014 32.9221 56.0418 36.0265 56.0418ZM34.5404 100.131C38.7677 100.131 42.2354 98.5461 44.9435 95.3756C47.6516 92.2051 49.0057 88.242 49.0057 83.4863C49.0057 78.7306 47.6516 74.8005 44.9435 71.6961C42.3014 68.5256 38.8337 66.9403 34.5404 66.9403C30.247 66.9403 26.7463 68.5256 24.0381 71.6961C21.33 74.8005 19.976 78.7306 19.976 83.4863C19.976 88.242 21.33 92.2051 24.0381 95.3756C26.7463 98.5461 30.247 100.131 34.5404 100.131Z" fill="black"/>
<path d="M121.238 83.5854C121.238 88.8695 120.049 93.6252 117.671 97.8525C115.293 102.014 112.024 105.25 107.862 107.562C103.767 109.874 99.2426 111.03 94.2888 111.03C89.2688 111.03 84.7113 109.874 80.6161 107.562C76.5209 105.25 73.2843 102.014 70.9065 97.8525C68.5286 93.6252 67.3397 88.8695 67.3397 83.5854C67.3397 78.3012 68.5286 73.5785 70.9065 69.4173C73.2843 65.19 76.5209 61.9204 80.6161 59.6086C84.7113 57.2307 89.2688 56.0418 94.2888 56.0418C99.2426 56.0418 103.767 57.2307 107.862 59.6086C112.024 61.9204 115.293 65.19 117.671 69.4173C120.049 73.5785 121.238 78.3012 121.238 83.5854ZM109.349 83.5854C109.349 80.3488 108.655 77.4756 107.268 74.9656C105.947 72.3896 104.13 70.4081 101.819 69.021C99.5729 67.6339 97.0629 66.9403 94.2888 66.9403C91.5146 66.9403 88.9716 67.6339 86.6598 69.021C84.414 70.4081 82.5976 72.3896 81.2105 74.9656C79.8895 77.4756 79.229 80.3488 79.229 83.5854C79.229 86.8219 79.8895 89.6952 81.2105 92.2051C82.5976 94.7151 84.414 96.6636 86.6598 98.0507C88.9716 99.4378 91.5146 100.131 94.2888 100.131C97.0629 100.131 99.5729 99.4378 101.819 98.0507C104.13 96.6636 105.947 94.7151 107.268 92.2051C108.655 89.6952 109.349 86.8219 109.349 83.5854Z" fill="black"/>
<path d="M192.203 57.0326C193.788 57.0326 195.109 57.627 196.166 58.816C197.289 59.9389 197.85 61.392 197.85 63.1754C197.85 63.7698 197.718 64.5294 197.454 65.4542L182.295 106.274C181.899 107.463 181.172 108.421 180.115 109.147C179.125 109.808 178.035 110.138 176.846 110.138L176.053 110.039C173.808 109.907 172.123 108.652 171 106.274L162.579 81.901L154.553 106.274C153.431 108.652 151.746 109.907 149.5 110.039L148.708 110.138C147.519 110.138 146.396 109.808 145.339 109.147C144.348 108.421 143.655 107.463 143.259 106.274L128.1 65.4542C127.836 64.7276 127.703 63.968 127.703 63.1754C127.703 61.5241 128.232 60.104 129.289 58.9151C130.412 57.6601 131.865 57.0326 133.648 57.0326C134.969 57.0326 136.092 57.3628 137.017 58.0233C138.008 58.6178 138.701 59.5425 139.097 60.7975L149.798 89.8272L157.625 68.6247C158.682 66.1807 160.498 64.9588 163.074 64.9588C164.461 64.9588 165.518 65.256 166.245 65.8505C167.037 66.4449 167.698 67.3697 168.226 68.6247L175.855 89.3319L186.456 60.7975C186.853 59.5425 187.546 58.6178 188.537 58.0233C189.528 57.3628 190.75 57.0326 192.203 57.0326Z" fill="black"/>
<path d="M254.778 82.2974C254.712 83.8826 254.085 85.1706 252.896 86.1614C251.707 87.1522 250.32 87.6475 248.734 87.6475H216.039C216.831 91.5446 218.648 94.616 221.488 96.8618C224.328 99.0415 227.532 100.131 231.099 100.131C233.807 100.131 235.92 99.9001 237.44 99.4378C238.959 98.9094 240.148 98.381 241.006 97.8525C241.931 97.2581 242.559 96.8618 242.889 96.6636C244.078 96.0691 245.201 95.7719 246.257 95.7719C247.645 95.7719 248.833 96.2673 249.824 97.2581C250.815 98.2488 251.31 99.4048 251.31 100.726C251.31 102.509 250.386 104.127 248.536 105.581C246.687 107.1 244.21 108.388 241.105 109.445C238.001 110.501 234.864 111.03 231.693 111.03C226.145 111.03 221.29 109.874 217.129 107.562C213.033 105.25 209.863 102.08 207.617 98.0507C205.371 93.9555 204.249 89.3649 204.249 84.2789C204.249 78.5985 205.438 73.6116 207.815 69.3182C210.193 65.0248 213.331 61.7553 217.228 59.5095C221.125 57.1977 225.286 56.0418 229.712 56.0418C234.071 56.0418 238.166 57.2307 241.997 59.6086C245.894 61.9865 248.999 65.19 251.31 69.2191C253.622 73.2483 254.778 77.6077 254.778 82.2974ZM229.712 66.9403C222.05 66.9403 217.525 70.5401 216.138 77.7398H242.096V77.0462C241.832 74.2721 240.478 71.8942 238.034 69.9127C235.59 67.9311 232.816 66.9403 229.712 66.9403Z" fill="black"/>
<path d="M292.237 56.0418C294.219 56.0418 295.87 56.6032 297.191 57.7261C298.578 58.849 299.272 60.17 299.272 61.6892C299.272 63.7368 298.743 65.289 297.686 66.3459C296.63 67.3366 295.375 67.832 293.922 67.832C292.931 67.832 291.808 67.6008 290.553 67.1385C290.355 67.0724 289.892 66.9403 289.166 66.7422C288.505 66.544 287.779 66.4449 286.986 66.4449C285.269 66.4449 283.617 66.9734 282.032 68.0302C280.447 69.087 279.126 70.7053 278.069 72.885C277.078 74.9986 276.583 77.5416 276.583 80.514V103.995C276.583 105.713 276.022 107.166 274.899 108.355C273.776 109.478 272.356 110.039 270.638 110.039C268.921 110.039 267.501 109.478 266.378 108.355C265.255 107.166 264.694 105.713 264.694 103.995V63.0763C264.694 61.359 265.255 59.9389 266.378 58.816C267.501 57.627 268.921 57.0326 270.638 57.0326C272.356 57.0326 273.776 57.627 274.899 58.816C276.022 59.9389 276.583 61.359 276.583 63.0763V64.3643C278.102 61.6562 280.282 59.6086 283.122 58.2215C285.962 56.7684 289.001 56.0418 292.237 56.0418Z" fill="black"/>
<path d="M352.985 82.2974C352.919 83.8826 352.291 85.1706 351.102 86.1614C349.913 87.1522 348.526 87.6475 346.941 87.6475H314.246C315.038 91.5446 316.855 94.616 319.695 96.8618C322.535 99.0415 325.739 100.131 329.305 100.131C332.013 100.131 334.127 99.9001 335.646 99.4378C337.166 98.9094 338.354 98.381 339.213 97.8525C340.138 97.2581 340.765 96.8618 341.096 96.6636C342.285 96.0691 343.407 95.7719 344.464 95.7719C345.851 95.7719 347.04 96.2673 348.031 97.2581C349.022 98.2488 349.517 99.4048 349.517 100.726C349.517 102.509 348.592 104.127 346.743 105.581C344.894 107.1 342.417 108.388 339.312 109.445C336.208 110.501 333.07 111.03 329.9 111.03C324.351 111.03 319.497 109.874 315.335 107.562C311.24 105.25 308.07 102.08 305.824 98.0507C303.578 93.9555 302.455 89.3649 302.455 84.2789C302.455 78.5985 303.644 73.6116 306.022 69.3182C308.4 65.0248 311.537 61.7553 315.435 59.5095C319.332 57.1977 323.493 56.0418 327.918 56.0418C332.278 56.0418 336.373 57.2307 340.204 59.6086C344.101 61.9865 347.205 65.19 349.517 69.2191C351.829 73.2483 352.985 77.6077 352.985 82.2974ZM327.918 66.9403C320.256 66.9403 315.732 70.5401 314.345 77.7398H340.303V77.0462C340.039 74.2721 338.685 71.8942 336.241 69.9127C333.797 67.9311 331.023 66.9403 327.918 66.9403Z" fill="black"/>
<path d="M405.801 36.7217C407.518 36.7217 408.938 37.2831 410.061 38.406C411.184 39.5289 411.746 40.982 411.746 42.7654V103.995C411.746 105.713 411.184 107.166 410.061 108.355C408.938 109.478 407.518 110.039 405.801 110.039C404.084 110.039 402.664 109.478 401.541 108.355C400.484 107.232 399.922 105.812 399.856 104.094C398.205 106.01 395.959 107.661 393.119 109.048C390.345 110.369 387.406 111.03 384.301 111.03C379.744 111.03 375.615 109.874 371.916 107.562C368.218 105.184 365.278 101.915 363.099 97.7534C360.985 93.5922 359.928 88.8695 359.928 83.5854C359.928 78.3012 360.985 73.5785 363.099 69.4173C365.212 65.19 368.085 61.9204 371.718 59.6086C375.417 57.2307 379.479 56.0418 383.905 56.0418C387.075 56.0418 390.048 56.6363 392.822 57.8252C395.596 58.9481 397.941 60.4012 399.856 62.1846V42.7654C399.856 41.0481 400.418 39.628 401.541 38.5051C402.664 37.3161 404.084 36.7217 405.801 36.7217ZM385.787 100.131C390.081 100.131 393.581 98.5791 396.29 95.4747C398.998 92.3042 400.352 88.3411 400.352 83.5854C400.352 78.8296 398.998 74.8665 396.29 71.6961C393.581 68.5256 390.081 66.9403 385.787 66.9403C381.56 66.9403 378.092 68.5256 375.384 71.6961C372.676 74.8665 371.322 78.8296 371.322 83.5854C371.322 88.3411 372.643 92.3042 375.285 95.4747C377.993 98.5791 381.494 100.131 385.787 100.131Z" fill="black"/>
<path d="M477.185 58.2215C481.544 58.2215 485.507 59.3444 489.074 61.5901C492.641 63.8359 495.415 66.9734 497.397 71.0025C499.444 74.9656 500.468 79.4571 500.468 84.4771C500.468 89.4309 499.444 93.9555 497.397 98.0507C495.415 102.08 492.641 105.25 489.074 107.562C485.573 109.874 481.643 111.03 477.284 111.03C473.519 111.03 470.018 110.105 466.782 108.256C463.611 106.34 461.035 103.83 459.054 100.726V107.265C459.054 108.124 458.756 108.85 458.162 109.445C457.634 110.039 456.94 110.336 456.081 110.336C455.223 110.336 454.496 110.039 453.902 109.445C453.373 108.85 453.109 108.124 453.109 107.265V39.7931C453.109 38.9344 453.373 38.2409 453.902 37.7125C454.496 37.118 455.223 36.8208 456.081 36.8208C456.94 36.8208 457.634 37.118 458.162 37.7125C458.756 38.2409 459.054 38.9344 459.054 39.7931V69.021C460.837 65.7844 463.347 63.1754 466.584 61.1938C469.82 59.2123 473.354 58.2215 477.185 58.2215ZM476.689 105.481C480.124 105.481 483.196 104.557 485.904 102.707C488.678 100.858 490.824 98.3479 492.344 95.1774C493.929 91.9409 494.722 88.3741 494.722 84.4771C494.722 80.514 493.929 76.9802 492.344 73.8758C490.824 70.7053 488.678 68.2283 485.904 66.4449C483.196 64.6616 480.124 63.7699 476.689 63.7699C473.189 63.7699 470.051 64.6616 467.277 66.4449C464.503 68.1623 462.356 70.6062 460.837 73.7767C459.318 76.9472 458.558 80.514 458.558 84.4771C458.558 88.4402 459.318 92.04 460.837 95.2765C462.422 98.447 464.569 100.957 467.277 102.806C470.051 104.59 473.189 105.481 476.689 105.481Z" fill="black"/>
<path d="M550.459 58.5187C551.318 58.5187 552.011 58.816 552.539 59.4104C553.134 59.9389 553.431 60.6324 553.431 61.4911V105.184C553.431 110.402 552.407 114.861 550.36 118.56C548.312 122.259 545.472 125.066 541.839 126.981C538.206 128.897 534.111 129.855 529.553 129.855C526.779 129.855 524.17 129.557 521.726 128.963C519.349 128.368 517.367 127.576 515.782 126.585C514.395 125.726 513.701 124.769 513.701 123.712C513.701 123.58 513.767 123.249 513.899 122.721C514.097 122.06 514.428 121.565 514.89 121.235C515.352 120.905 515.848 120.739 516.376 120.739C516.772 120.739 517.169 120.839 517.565 121.037C521.792 123.348 525.822 124.504 529.653 124.504C535.135 124.504 539.461 122.787 542.632 119.352C545.868 115.918 547.487 111.228 547.487 105.283V101.816C545.835 104.59 543.457 106.836 540.353 108.553C537.249 110.204 533.88 111.03 530.247 111.03C524.501 111.03 520.141 109.313 517.169 105.878C514.196 102.443 512.71 97.7865 512.71 91.9079V61.4911C512.71 60.6324 512.975 59.9389 513.503 59.4104C514.097 58.816 514.824 58.5187 515.683 58.5187C516.541 58.5187 517.235 58.816 517.763 59.4104C518.358 59.9389 518.655 60.6324 518.655 61.4911V91.0162C518.655 95.7719 519.679 99.3717 521.726 101.816C523.84 104.26 527.11 105.481 531.535 105.481C534.243 105.481 536.819 104.821 539.263 103.5C541.773 102.113 543.755 100.329 545.208 98.1498C546.727 95.904 547.487 93.5261 547.487 91.0162V61.4911C547.487 60.6324 547.751 59.9389 548.279 59.4104C548.874 58.816 549.6 58.5187 550.459 58.5187Z" fill="black"/>
<g clip-path="url(#clip0_521_340)">
<path fill-rule="evenodd" clip-rule="evenodd" d="M687.603 171.535C707.079 171.535 725.033 165.016 739.402 154.042L726.651 141.291C715.649 149.045 702.229 153.599 687.745 153.599C673.159 153.599 659.651 148.98 648.605 141.125L635.739 153.991C650.118 164.997 668.097 171.535 687.603 171.535ZM619.635 137.856L632.505 124.986C624.709 113.965 620.128 100.508 620.128 85.9812C620.128 71.4978 624.682 58.0779 632.435 47.0752L619.685 34.3252C608.71 48.6935 602.191 66.6473 602.191 86.1236C602.191 105.57 608.69 123.499 619.635 137.856ZM773.015 86.1236C773.015 105.6 766.496 123.554 755.521 137.922L742.819 125.22C750.717 114.156 755.363 100.611 755.363 85.9812C755.363 71.3947 750.744 57.887 742.89 46.8407L755.471 34.2595C766.476 48.6388 773.015 66.6176 773.015 86.1236ZM739.336 18.1555C724.978 7.21092 707.05 0.711914 687.603 0.711914C668.127 0.711914 650.173 7.23077 635.805 18.2056L648.506 30.9072C659.571 23.0099 673.116 18.3637 687.745 18.3637C702.272 18.3637 715.729 22.9446 726.75 30.7408L739.336 18.1555Z" fill="#9B9B9B"/>
<path d="M708.956 86.1234C708.956 97.9163 699.396 107.476 687.603 107.476C675.81 107.476 666.25 97.9163 666.25 86.1234C666.25 74.3305 675.81 64.7705 687.603 64.7705C699.396 64.7705 708.956 74.3305 708.956 86.1234Z" fill="black"/>
<path fill-rule="evenodd" clip-rule="evenodd" d="M680.281 33.168C656.607 36.3871 637.868 55.1266 634.648 78.8007H652.581C655.503 64.9916 666.432 54.1379 680.281 51.3267V33.168ZM722.216 78.8007C719.315 65.0864 708.515 54.2871 694.801 51.3857V33.168C718.475 36.3871 737.215 55.1266 740.434 78.8007H722.216ZM694.801 121.02C708.61 118.099 719.464 107.17 722.275 93.3206H740.434C737.215 116.995 718.475 135.734 694.801 138.953V121.02ZM652.522 93.3206C655.353 107.265 666.337 118.249 680.281 121.079V138.953C656.607 135.734 637.868 116.995 634.648 93.3206H652.522Z" fill="#7B7B7B"/>
</g>
<defs>
<clipPath id="clip0_521_340">
<rect width="635.748" height="170.823" fill="white" transform="translate(137.553 0.711914)"/>
</clipPath>
</defs>
</svg>
