<svg width="775" height="172" viewBox="0 0 775 172" fill="none" xmlns="http://www.w3.org/2000/svg">
<path d="M35.4367 55.7405C39.9942 55.7405 44.1225 56.9295 47.8214 59.3073C51.5203 61.6191 54.4265 64.8557 56.5402 69.0169C58.7199 73.1782 59.8097 77.9009 59.8097 83.185C59.8097 88.4692 58.7529 93.2249 56.6393 97.4522C54.5256 101.613 51.6193 104.883 47.9204 107.261C44.2876 109.573 40.2584 110.729 35.833 110.729C32.6625 110.729 29.6571 110.101 26.8169 108.846C24.0428 107.525 21.7309 105.94 19.8815 104.09V123.51C19.8815 125.227 19.3201 126.647 18.1972 127.77C17.0743 128.959 15.6542 129.553 13.9368 129.553C12.2195 129.553 10.7994 128.992 9.67651 127.869C8.55363 126.746 7.99219 125.293 7.99219 123.51V62.775C7.99219 61.0577 8.55363 59.6376 9.67651 58.5147C10.7994 57.3258 12.2195 56.7313 13.9368 56.7313C15.6542 56.7313 17.0743 57.3258 18.1972 58.5147C19.3201 59.6376 19.8815 61.0577 19.8815 62.775V63.1713C21.4667 61.1898 23.6795 59.4725 26.5197 58.0193C29.3599 56.5001 32.3322 55.7405 35.4367 55.7405ZM33.9505 99.8301C38.1778 99.8301 41.6455 98.2448 44.3536 95.0743C47.0618 91.9038 48.4158 87.9407 48.4158 83.185C48.4158 78.4293 47.0618 74.4992 44.3536 71.3948C41.7116 68.2243 38.2439 66.6391 33.9505 66.6391C29.6571 66.6391 26.1564 68.2243 23.4483 71.3948C20.7402 74.4992 19.3861 78.4293 19.3861 83.185C19.3861 87.9407 20.7402 91.9038 23.4483 95.0743C26.1564 98.2448 29.6571 99.8301 33.9505 99.8301Z" fill="white"/>
<path d="M120.648 83.2841C120.648 88.5682 119.459 93.324 117.081 97.5513C114.703 101.713 111.434 104.949 107.273 107.261C103.177 109.573 98.6528 110.729 93.6989 110.729C88.679 110.729 84.1214 109.573 80.0262 107.261C75.931 104.949 72.6945 101.713 70.3166 97.5513C67.9388 93.324 66.7498 88.5682 66.7498 83.2841C66.7498 78 67.9388 73.2773 70.3166 69.116C72.6945 64.8887 75.931 61.6191 80.0262 59.3073C84.1214 56.9295 88.679 55.7405 93.6989 55.7405C98.6528 55.7405 103.177 56.9295 107.273 59.3073C111.434 61.6191 114.703 64.8887 117.081 69.116C119.459 73.2773 120.648 78 120.648 83.2841ZM108.759 83.2841C108.759 80.0476 108.065 77.1743 106.678 74.6643C105.357 72.0883 103.541 70.1068 101.229 68.7197C98.9831 67.3326 96.4731 66.6391 93.6989 66.6391C90.9247 66.6391 88.3818 67.3326 86.0699 68.7197C83.8242 70.1068 82.0078 72.0883 80.6207 74.6643C79.2996 77.1743 78.6391 80.0476 78.6391 83.2841C78.6391 86.5206 79.2996 89.3939 80.6207 91.9038C82.0078 94.4138 83.8242 96.3623 86.0699 97.7494C88.3818 99.1365 90.9247 99.8301 93.6989 99.8301C96.4731 99.8301 98.9831 99.1365 101.229 97.7494C103.541 96.3623 105.357 94.4138 106.678 91.9038C108.065 89.3939 108.759 86.5206 108.759 83.2841Z" fill="white"/>
<path d="M191.613 56.7313C193.198 56.7313 194.519 57.3258 195.576 58.5147C196.699 59.6376 197.261 61.0907 197.261 62.8741C197.261 63.4686 197.128 64.2282 196.864 65.1529L181.705 105.973C181.309 107.162 180.582 108.12 179.526 108.846C178.535 109.507 177.445 109.837 176.256 109.837L175.463 109.738C173.218 109.606 171.533 108.351 170.41 105.973L161.989 81.5998L153.964 105.973C152.841 108.351 151.156 109.606 148.911 109.738L148.118 109.837C146.929 109.837 145.806 109.507 144.749 108.846C143.759 108.12 143.065 107.162 142.669 105.973L127.51 65.1529C127.246 64.4263 127.114 63.6667 127.114 62.8741C127.114 61.2228 127.642 59.8027 128.699 58.6138C129.822 57.3588 131.275 56.7313 133.058 56.7313C134.379 56.7313 135.502 57.0616 136.427 57.7221C137.418 58.3165 138.111 59.2413 138.508 60.4963L149.208 89.526L157.035 68.3234C158.092 65.8795 159.908 64.6575 162.484 64.6575C163.871 64.6575 164.928 64.9547 165.655 65.5492C166.447 66.1437 167.108 67.0684 167.636 68.3234L175.265 89.0306L185.867 60.4963C186.263 59.2413 186.956 58.3165 187.947 57.7221C188.938 57.0616 190.16 56.7313 191.613 56.7313Z" fill="white"/>
<path d="M254.188 81.9961C254.122 83.5813 253.495 84.8693 252.306 85.8601C251.117 86.8509 249.73 87.3463 248.145 87.3463H215.449C216.242 91.2433 218.058 94.3147 220.898 96.5605C223.738 98.7402 226.942 99.8301 230.509 99.8301C233.217 99.8301 235.331 99.5989 236.85 99.1365C238.369 98.6081 239.558 98.0797 240.417 97.5513C241.341 96.9568 241.969 96.5605 242.299 96.3623C243.488 95.7679 244.611 95.4706 245.668 95.4706C247.055 95.4706 248.244 95.966 249.234 96.9568C250.225 97.9476 250.721 99.1035 250.721 100.425C250.721 102.208 249.796 103.826 247.946 105.279C246.097 106.798 243.62 108.087 240.516 109.143C237.411 110.2 234.274 110.729 231.103 110.729C225.555 110.729 220.7 109.573 216.539 107.261C212.444 104.949 209.273 101.779 207.027 97.7494C204.782 93.6542 203.659 89.0636 203.659 83.9776C203.659 78.2972 204.848 73.3103 207.226 69.0169C209.603 64.7236 212.741 61.454 216.638 59.2082C220.535 56.8964 224.696 55.7405 229.122 55.7405C233.481 55.7405 237.576 56.9295 241.407 59.3073C245.304 61.6852 248.409 64.8887 250.721 68.9178C253.032 72.947 254.188 77.3064 254.188 81.9961ZM229.122 66.6391C221.46 66.6391 216.935 70.2389 215.548 77.4385H241.506V76.745C241.242 73.9708 239.888 71.5929 237.444 69.6114C235 67.6298 232.226 66.6391 229.122 66.6391Z" fill="white"/>
<path d="M291.647 55.7405C293.629 55.7405 295.28 56.302 296.601 57.4249C297.988 58.5477 298.682 59.8688 298.682 61.3879C298.682 63.4356 298.153 64.9878 297.097 66.0446C296.04 67.0354 294.785 67.5308 293.332 67.5308C292.341 67.5308 291.218 67.2996 289.963 66.8372C289.765 66.7712 289.303 66.6391 288.576 66.4409C287.915 66.2428 287.189 66.1437 286.396 66.1437C284.679 66.1437 283.028 66.6721 281.442 67.7289C279.857 68.7857 278.536 70.404 277.479 72.5837C276.488 74.6974 275.993 77.2404 275.993 80.2127V103.694C275.993 105.411 275.432 106.865 274.309 108.053C273.186 109.176 271.766 109.738 270.048 109.738C268.331 109.738 266.911 109.176 265.788 108.053C264.665 106.865 264.104 105.411 264.104 103.694V62.775C264.104 61.0577 264.665 59.6376 265.788 58.5147C266.911 57.3258 268.331 56.7313 270.048 56.7313C271.766 56.7313 273.186 57.3258 274.309 58.5147C275.432 59.6376 275.993 61.0577 275.993 62.775V64.063C277.512 61.3549 279.692 59.3073 282.532 57.9202C285.372 56.4671 288.411 55.7405 291.647 55.7405Z" fill="white"/>
<path d="M352.395 81.9961C352.329 83.5813 351.702 84.8693 350.513 85.8601C349.324 86.8509 347.937 87.3463 346.351 87.3463H313.656C314.448 91.2433 316.265 94.3147 319.105 96.5605C321.945 98.7402 325.149 99.8301 328.716 99.8301C331.424 99.8301 333.537 99.5989 335.056 99.1365C336.576 98.6081 337.765 98.0797 338.623 97.5513C339.548 96.9568 340.175 96.5605 340.506 96.3623C341.695 95.7679 342.818 95.4706 343.874 95.4706C345.261 95.4706 346.45 95.966 347.441 96.9568C348.432 97.9476 348.927 99.1035 348.927 100.425C348.927 102.208 348.003 103.826 346.153 105.279C344.304 106.798 341.827 108.087 338.722 109.143C335.618 110.2 332.48 110.729 329.31 110.729C323.762 110.729 318.907 109.573 314.746 107.261C310.65 104.949 307.48 101.779 305.234 97.7494C302.988 93.6542 301.865 89.0636 301.865 83.9776C301.865 78.2972 303.054 73.3103 305.432 69.0169C307.81 64.7236 310.948 61.454 314.845 59.2082C318.742 56.8964 322.903 55.7405 327.328 55.7405C331.688 55.7405 335.783 56.9295 339.614 59.3073C343.511 61.6852 346.616 64.8887 348.927 68.9178C351.239 72.947 352.395 77.3064 352.395 81.9961ZM327.328 66.6391C319.666 66.6391 315.142 70.2389 313.755 77.4385H339.713V76.745C339.449 73.9708 338.095 71.5929 335.651 69.6114C333.207 67.6298 330.433 66.6391 327.328 66.6391Z" fill="white"/>
<path d="M405.211 36.4204C406.928 36.4204 408.349 36.9818 409.471 38.1047C410.594 39.2276 411.156 40.6807 411.156 42.4641V103.694C411.156 105.411 410.594 106.865 409.471 108.053C408.349 109.176 406.928 109.738 405.211 109.738C403.494 109.738 402.074 109.176 400.951 108.053C399.894 106.931 399.333 105.51 399.266 103.793C397.615 105.709 395.369 107.36 392.529 108.747C389.755 110.068 386.816 110.729 383.711 110.729C379.154 110.729 375.026 109.573 371.327 107.261C367.628 104.883 364.688 101.613 362.509 97.4522C360.395 93.2909 359.338 88.5682 359.338 83.2841C359.338 78 360.395 73.2773 362.509 69.116C364.622 64.8887 367.496 61.6191 371.128 59.3073C374.827 56.9295 378.89 55.7405 383.315 55.7405C386.485 55.7405 389.458 56.335 392.232 57.5239C395.006 58.6468 397.351 60.0999 399.266 61.8833V42.4641C399.266 40.7468 399.828 39.3267 400.951 38.2038C402.074 37.0149 403.494 36.4204 405.211 36.4204ZM385.197 99.8301C389.491 99.8301 392.992 98.2778 395.7 95.1734C398.408 92.0029 399.762 88.0398 399.762 83.2841C399.762 78.5284 398.408 74.5653 395.7 71.3948C392.992 68.2243 389.491 66.6391 385.197 66.6391C380.97 66.6391 377.502 68.2243 374.794 71.3948C372.086 74.5653 370.732 78.5284 370.732 83.2841C370.732 88.0398 372.053 92.0029 374.695 95.1734C377.403 98.2778 380.904 99.8301 385.197 99.8301Z" fill="white"/>
<path d="M476.595 57.9202C480.954 57.9202 484.918 59.0431 488.484 61.2889C492.051 63.5346 494.825 66.6721 496.807 70.7012C498.854 74.6643 499.878 79.1559 499.878 84.1758C499.878 89.1297 498.854 93.6542 496.807 97.7494C494.825 101.779 492.051 104.949 488.484 107.261C484.984 109.573 481.053 110.729 476.694 110.729C472.929 110.729 469.428 109.804 466.192 107.954C463.021 106.039 460.445 103.529 458.464 100.425V106.964C458.464 107.822 458.167 108.549 457.572 109.143C457.044 109.738 456.35 110.035 455.491 110.035C454.633 110.035 453.906 109.738 453.312 109.143C452.783 108.549 452.519 107.822 452.519 106.964V39.4918C452.519 38.6331 452.783 37.9396 453.312 37.4112C453.906 36.8167 454.633 36.5195 455.491 36.5195C456.35 36.5195 457.044 36.8167 457.572 37.4112C458.167 37.9396 458.464 38.6331 458.464 39.4918V68.7197C460.247 65.4832 462.757 62.8741 465.994 60.8926C469.23 58.911 472.764 57.9202 476.595 57.9202ZM476.1 105.18C479.534 105.18 482.606 104.256 485.314 102.406C488.088 100.557 490.235 98.0467 491.754 94.8762C493.339 91.6396 494.132 88.0728 494.132 84.1758C494.132 80.2127 493.339 76.6789 491.754 73.5745C490.235 70.404 488.088 67.9271 485.314 66.1437C482.606 64.3603 479.534 63.4686 476.1 63.4686C472.599 63.4686 469.461 64.3603 466.687 66.1437C463.913 67.861 461.766 70.3049 460.247 73.4754C458.728 76.6459 457.968 80.2127 457.968 84.1758C457.968 88.1389 458.728 91.7387 460.247 94.9752C461.832 98.1457 463.979 100.656 466.687 102.505C469.461 104.289 472.599 105.18 476.1 105.18Z" fill="white"/>
<path d="M549.869 58.2175C550.728 58.2175 551.421 58.5147 551.95 59.1092C552.544 59.6376 552.841 60.3311 552.841 61.1898V104.883C552.841 110.101 551.818 114.56 549.77 118.258C547.722 121.957 544.882 124.765 541.249 126.68C537.616 128.596 533.521 129.553 528.964 129.553C526.189 129.553 523.58 129.256 521.137 128.662C518.759 128.067 516.777 127.275 515.192 126.284C513.805 125.425 513.111 124.467 513.111 123.41C513.111 123.278 513.177 122.948 513.309 122.42C513.508 121.759 513.838 121.264 514.3 120.934C514.763 120.603 515.258 120.438 515.786 120.438C516.183 120.438 516.579 120.537 516.975 120.735C521.203 123.047 525.232 124.203 529.063 124.203C534.545 124.203 538.871 122.486 542.042 119.051C545.278 115.616 546.897 110.927 546.897 104.982V101.514C545.245 104.289 542.868 106.534 539.763 108.252C536.659 109.903 533.29 110.729 529.657 110.729C523.911 110.729 519.551 109.011 516.579 105.577C513.607 102.142 512.12 97.4852 512.12 91.6066V61.1898C512.12 60.3311 512.385 59.6376 512.913 59.1092C513.508 58.5147 514.234 58.2175 515.093 58.2175C515.951 58.2175 516.645 58.5147 517.173 59.1092C517.768 59.6376 518.065 60.3311 518.065 61.1898V90.7149C518.065 95.4706 519.089 99.0705 521.137 101.514C523.25 103.958 526.52 105.18 530.945 105.18C533.653 105.18 536.229 104.52 538.673 103.199C541.183 101.812 543.165 100.028 544.618 97.8485C546.137 95.6027 546.897 93.2249 546.897 90.7149V61.1898C546.897 60.3311 547.161 59.6376 547.689 59.1092C548.284 58.5147 549.01 58.2175 549.869 58.2175Z" fill="white"/>
<g clip-path="url(#clip0_521_227)">
<path fill-rule="evenodd" clip-rule="evenodd" d="M687.013 171.234C706.49 171.234 724.443 164.715 738.812 153.74L726.062 140.99C715.059 148.744 701.639 153.298 687.156 153.298C672.569 153.298 659.061 148.679 648.015 140.824L635.149 153.69C649.528 164.695 667.507 171.234 687.013 171.234ZM619.045 137.555L631.915 124.685C624.119 113.664 619.538 100.207 619.538 85.68C619.538 71.1965 624.092 57.7767 631.845 46.774L619.095 34.0239C608.12 48.3922 601.602 66.346 601.602 85.8223C601.602 105.269 608.101 123.198 619.045 137.555ZM772.425 85.8223C772.425 105.299 765.906 123.252 754.931 137.621L742.23 124.919C750.127 113.855 754.773 100.31 754.773 85.68C754.773 71.0935 750.155 57.5857 742.3 46.5394L754.881 33.9582C765.886 48.3375 772.425 66.3163 772.425 85.8223ZM738.746 17.8542C724.389 6.90965 706.46 0.410645 687.013 0.410645C667.537 0.410645 649.583 6.9295 635.215 17.9043L647.917 30.6059C658.981 22.7086 672.526 18.0624 687.156 18.0624C701.682 18.0624 715.139 22.6434 726.161 30.4396L738.746 17.8542Z" fill="white"/>
<path d="M708.366 85.8222C708.366 97.615 698.806 107.175 687.013 107.175C675.22 107.175 665.66 97.615 665.66 85.8222C665.66 74.0293 675.22 64.4692 687.013 64.4692C698.806 64.4692 708.366 74.0293 708.366 85.8222Z" fill="white"/>
<path fill-rule="evenodd" clip-rule="evenodd" d="M679.691 32.8672C656.017 36.0863 637.278 54.8259 634.059 78.4999H651.992C654.913 64.6908 665.842 53.8371 679.691 51.0259V32.8672ZM721.626 78.4999C718.725 64.7856 707.926 53.9863 694.211 51.0849V32.8672C717.885 36.0863 736.625 54.8259 739.844 78.4999H721.626ZM694.211 120.72C708.02 117.798 718.874 106.869 721.685 93.0199H739.844C736.625 116.694 717.885 135.434 694.211 138.653V120.72ZM651.933 93.0199C654.763 106.964 665.747 117.948 679.691 120.779V138.653C656.017 135.434 637.278 116.694 634.059 93.0199H651.933Z" fill="white"/>
</g>
<defs>
<clipPath id="clip0_521_227">
<rect width="635.748" height="170.823" fill="white" transform="translate(136.963 0.410645)"/>
</clipPath>
</defs>
</svg>
