<svg width="288" height="249" viewBox="0 0 288 249" fill="none" xmlns="http://www.w3.org/2000/svg">
<path d="M33.3755 158.41C14.9552 158.41 0 143.19 0 124.442C0 105.695 14.9552 90.66 33.1932 90.66C51.4311 90.66 66.3863 105.88 66.3863 124.442C66.3863 143.004 51.7959 158.41 33.3755 158.41ZM205.542 0.078125C180.921 0.078125 179.827 21.2386 142.256 21.2386C104.321 21.2386 101.221 0.078125 78.7881 0.078125C60.3678 0.078125 45.595 15.2988 45.595 33.8606C45.595 52.4224 60.5501 67.643 78.7881 67.643C103.592 67.643 104.686 46.4826 142.256 46.4826C180.191 46.4826 183.292 67.643 205.725 67.643C224.145 67.643 238.918 52.4224 238.918 33.8606C238.918 15.2988 223.963 0.078125 205.542 0.078125ZM205.542 181.056C180.739 181.056 179.644 202.216 142.074 202.216C104.139 202.216 101.038 181.056 78.6058 181.056C60.1854 181.056 45.4126 196.276 45.4126 214.838C45.4126 233.4 60.3678 248.621 78.6058 248.621C103.409 248.621 104.504 227.46 142.074 227.46C180.009 227.46 183.109 248.621 205.542 248.621C223.963 248.621 238.735 233.4 238.735 214.838C238.735 196.276 223.963 181.056 205.542 181.056ZM254.785 90.66C229.799 90.66 230.711 112.934 199.341 112.934C170.343 112.934 169.978 90.845 142.074 90.845C124.748 90.845 110.522 106.994 110.522 124.628C110.522 142.261 124.93 158.41 143.715 158.41C168.701 158.41 167.79 136.136 199.159 136.136C228.157 136.136 228.522 158.225 256.426 158.225C273.752 158.225 287.978 142.076 287.978 124.442C288.16 106.808 273.752 90.66 254.785 90.66Z" fill="#1955FF"/>
</svg>
