<svg width="300" height="190" viewBox="0 0 300 190" fill="none" xmlns="http://www.w3.org/2000/svg">
  <rect width="300" height="190" fill="#FFFFFF" />
  <path
    d="M120.159 99.0032L135.441 96.4907C135.441 96.4907 129.647 90.1438 121.903 88.4657C114.159 86.7876 110.813 87.0688 110.813 87.0688C110.813 87.0688 105.094 83.4407 101.184 82.2501C97.2751 81.0595 93.6376 81.5282 93.6376 81.5282L93.6001 97.8407L120.159 99.0032ZM178.65 100.606L164.963 96.1251C164.963 96.1251 173.709 89.8251 178.481 88.5501C183.516 87.2095 189.066 87.7345 189.066 87.7345C189.066 87.7345 193.219 84.0876 198.019 82.2126C202.819 80.3376 206.428 80.272 206.428 80.272L206.419 96.7157C206.419 96.7157 201.666 102.256 201.572 102.125C201.497 101.984 178.65 100.606 178.65 100.606Z"
    fill="#A1D1DA" />
  <path
    d="M182.963 95.9376C182.963 95.9376 185.4 92.197 188.222 91.972C191.944 91.6813 193.238 92.6282 193.238 92.6282C193.238 92.6282 195.019 91.3251 196.669 91.372C199.041 91.4376 200.428 93.7438 200.428 93.7438C200.428 93.7438 201.553 90.472 202.866 90.5095C205.106 90.5751 205.434 96.1907 205.434 96.1907L197.812 99.1063L182.963 95.9376ZM94.4531 96.7438C94.4531 96.7438 96.4594 90.7251 97.8469 90.7907C99.2344 90.8563 100.284 93.5001 100.284 93.5001C100.284 93.5001 101.616 86.647 103.659 86.647C105.572 86.647 106.809 96.2095 106.809 96.2095L109.584 97.4001L112.809 96.6032C112.809 96.6032 114.328 92.5157 115.387 92.5813C116.381 92.647 117.038 94.6907 117.038 94.6907C117.038 94.6907 117.759 90.8001 119.278 90.8001C120.994 90.8001 122.053 96.4063 122.053 96.4063L107.213 101.469L94.4531 96.7438Z"
    fill="#518E2C" />
  <path
    d="M206.438 95.6377L206.447 144.378C206.447 148.269 203.288 151.428 199.397 151.428H100.669C96.7783 151.428 93.6189 148.269 93.6189 144.378L93.5908 96.3033L206.438 95.6377Z"
    fill="#7DB240" />
  <path
    d="M135.459 96.0688C135.459 96.0688 141.394 95.9376 151.238 95.9282C160.791 95.9188 165.928 95.8813 165.928 95.8813L197.597 151.438H101.578L135.459 96.0688Z"
    fill="#5E6367" />
  <path
    d="M107.259 151.437L137.306 96.0311L138.291 96.0029H139.444L110.831 151.447L109.144 151.475L107.259 151.437ZM164.522 95.8811L163.284 95.8623L161.897 95.8904L189.506 151.437H192.469L164.522 95.8811ZM132.778 147.565L136.847 147.659L139.603 134.937L135.816 134.89L132.778 147.565ZM160.378 135.219L164.053 135.153L166.819 147.612H162.141L160.378 135.219ZM159.478 129.969L163.125 129.875L160.828 119.722H157.781L159.478 129.969ZM142.744 119.497H139.603L137.175 130.025H140.541L142.744 119.497ZM142.416 107.9L145.125 107.947L143.681 115.053L140.541 115.1L142.416 107.9ZM144.244 100.69C144.15 100.925 143.166 104.9 143.166 104.9H145.828L146.531 100.69H144.244ZM144.844 98.5904H147.094L147.544 95.9373C147.544 95.9373 146.719 95.9279 146.428 95.9279C146.137 95.9279 145.472 95.9467 145.472 95.9467L144.844 98.5904ZM154.528 98.5811H157.012L156.469 95.9092L155.325 95.8904L154.219 95.9186L154.528 98.5811ZM155.128 100.934L157.312 100.887L158.184 104.947L155.616 104.994L155.128 100.934ZM156.178 107.956L158.709 107.872L160.144 115.278L157.003 115.325L156.178 107.956Z"
    fill="white" />
  <path
    d="M106.378 53.9467V110.215H111.731V52.9248L106.378 53.9467ZM187.959 112.512L188.334 53.5904L193.706 53.9654L193.425 112.512H187.959Z"
    fill="#9A9A9A" />
  <path
    d="M196.06 55.0249H103.106C102.075 55.0249 101.231 54.1812 101.231 53.1499C101.231 52.1187 102.075 51.2749 103.106 51.2749H196.05C197.081 51.2749 197.925 52.1187 197.925 53.1499C197.925 54.1812 197.091 55.0249 196.06 55.0249ZM103.219 73.3624C102.722 73.3624 102.245 73.1649 101.893 72.8132C101.541 72.4616 101.344 71.9847 101.344 71.4874C101.344 70.9901 101.541 70.5132 101.893 70.1616C102.245 69.8099 102.722 69.6124 103.219 69.6124L196.388 69.4999C196.885 69.4999 197.362 69.6974 197.714 70.0491C198.065 70.4007 198.263 70.8776 198.263 71.3749C198.263 71.8722 198.065 72.3491 197.714 72.7007C197.362 73.0524 196.885 73.2499 196.388 73.2499L103.219 73.3624Z"
    fill="#C8C8C8" />
  <path
    d="M172.105 68.9968L189.115 51.9858L191.436 54.3062L174.426 71.3171L172.105 68.9968ZM109.018 54.834L111.338 52.5137L128.317 69.4918L125.996 71.8112L109.018 54.834Z"
    fill="#C8C8C8" />
  <path
    d="M175.116 80.5719H124.584C123.679 80.5719 122.811 80.2123 122.171 79.5724C121.531 78.9324 121.172 78.0644 121.172 77.1594V46.1C121.172 45.1949 121.531 44.327 122.171 43.687C122.811 43.047 123.679 42.6875 124.584 42.6875H175.116C176.021 42.6875 176.889 43.047 177.529 43.687C178.169 44.327 178.528 45.1949 178.528 46.1V77.1594C178.528 78.0644 178.169 78.9324 177.529 79.5724C176.889 80.2123 176.021 80.5719 175.116 80.5719Z"
    fill="#DFE1E0" />
  <path d="M124.116 77.6186L124.388 45.1904L175.491 45.3686V77.5342L124.116 77.6186Z" fill="#1B9372" />
  <path
    d="M155.447 58.8971L155.597 50.8346H169.537V58.9721C169.537 58.9721 155.522 58.8221 155.447 58.8971ZM132.291 54.6689C132.291 57.9877 134.925 60.0971 137.869 60.0971C140.803 60.0971 143.222 57.9877 143.222 54.5939C143.222 51.2002 140.137 49.0908 137.869 49.0908C134.925 49.0908 132.291 51.1252 132.291 54.6689Z"
    fill="#85D59E" />
  <path
    d="M135.581 62.3564H140.325V67.2502C140.325 67.2502 145.903 65.2158 146.353 65.7408C146.803 66.2658 139.041 74.4033 138.141 74.4033C137.241 74.4033 128.944 66.4158 129.253 65.8158C129.553 65.2158 135.581 66.9502 135.581 66.9502V62.3564ZM160.453 62.6564H165.197V67.5502C165.197 67.5502 170.775 65.5158 171.225 66.0408C171.675 66.5658 163.912 74.7033 163.012 74.7033C162.112 74.7033 153.816 66.7158 154.125 66.1158C154.425 65.5158 160.453 67.2502 160.453 67.2502V62.6564Z"
    fill="#FEFFFE" />
</svg>