<svg width="285" height="175" viewBox="0 0 285 175" fill="none" xmlns="http://www.w3.org/2000/svg">
<rect width="285" height="175" fill="white"/>
<path d="M134.125 88.9402L142.25 87.6044C142.25 87.6044 139.169 84.2301 135.052 83.3379C130.935 82.4458 129.156 82.5953 129.156 82.5953C129.156 82.5953 126.116 80.6664 124.037 80.0334C121.959 79.4004 120.025 79.6496 120.025 79.6496L120.005 88.3221L134.125 88.9402ZM165.222 89.7925L157.945 87.41C157.945 87.41 162.595 84.0606 165.132 83.3828C167.809 82.67 170.759 82.9492 170.759 82.9492C170.759 82.9492 172.967 81.0103 175.519 80.0135C178.071 79.0166 179.99 78.9817 179.99 78.9817L179.985 87.724C179.985 87.724 177.458 90.6697 177.408 90.5999C177.368 90.5252 165.222 89.7925 165.222 89.7925Z" fill="#A1D1DA"/>
<path d="M167.515 87.3104C167.515 87.3104 168.81 85.3216 170.311 85.202C172.289 85.0475 172.977 85.5509 172.977 85.5509C172.977 85.5509 173.924 84.8581 174.801 84.883C176.062 84.9179 176.8 86.144 176.8 86.144C176.8 86.144 177.398 84.4046 178.096 84.4245C179.287 84.4594 179.462 87.4449 179.462 87.4449L175.41 88.995L167.515 87.3104ZM120.459 87.739C120.459 87.739 121.525 84.5391 122.263 84.574C123 84.6089 123.559 86.0145 123.559 86.0145C123.559 86.0145 124.266 82.371 125.353 82.371C126.37 82.371 127.028 87.4549 127.028 87.4549L128.503 88.0879L130.218 87.6642C130.218 87.6642 131.025 85.4911 131.588 85.526C132.117 85.5609 132.466 86.6474 132.466 86.6474C132.466 86.6474 132.849 84.579 133.657 84.579C134.569 84.579 135.132 87.5596 135.132 87.5596L127.242 90.251L120.459 87.739Z" fill="#518E2C"/>
<path d="M179.995 87.1509L180 113.064C180 115.132 178.32 116.812 176.252 116.812H123.763C121.695 116.812 120.015 115.132 120.015 113.064L120 87.5047L179.995 87.1509Z" fill="#7DB240"/>
<path d="M142.26 87.3801C142.26 87.3801 145.415 87.3103 150.648 87.3054C155.727 87.3004 158.458 87.2804 158.458 87.2804L175.295 116.817H124.247L142.26 87.3801Z" fill="#5E6367"/>
<path d="M127.267 116.817L143.241 87.3602L143.765 87.3452H144.378L129.166 116.822L128.269 116.837L127.267 116.817ZM157.711 87.2804L157.053 87.2705L156.315 87.2854L170.994 116.817H172.569L157.711 87.2804ZM140.834 114.758L142.997 114.808L144.463 108.045L142.449 108.02L140.834 114.758ZM155.508 108.194L157.461 108.159L158.932 114.783H156.445L155.508 108.194ZM155.029 105.403L156.968 105.353L155.747 99.9553H154.127L155.029 105.403ZM146.132 99.8357H144.463L143.172 105.433H144.961L146.132 99.8357ZM145.958 93.6702L147.398 93.6951L146.631 97.4732L144.961 97.4981L145.958 93.6702ZM146.93 89.8373C146.88 89.962 146.357 92.0753 146.357 92.0753H147.772L148.146 89.8373H146.93ZM147.249 88.7209H148.445L148.684 87.3104C148.684 87.3104 148.246 87.3054 148.091 87.3054C147.937 87.3054 147.583 87.3153 147.583 87.3153L147.249 88.7209ZM152.397 88.7159H153.718L153.429 87.2954L152.821 87.2854L152.233 87.3004L152.397 88.7159ZM152.716 89.9669L153.878 89.942L154.341 92.1002L152.976 92.1251L152.716 89.9669ZM153.275 93.7001L154.62 93.6553L155.383 97.5928L153.713 97.6177L153.275 93.7001Z" fill="white"/>
<path d="M126.798 64.986V94.9013H129.644V64.4428L126.798 64.986ZM170.171 96.1224L170.37 64.7966L173.226 64.996L173.077 96.1224H170.171Z" fill="#9A9A9A"/>
<path d="M174.477 65.5592H125.059C124.511 65.5592 124.062 65.1107 124.062 64.5624C124.062 64.0141 124.511 63.5655 125.059 63.5655H174.473C175.021 63.5655 175.469 64.0141 175.469 64.5624C175.469 65.1107 175.026 65.5592 174.477 65.5592ZM125.119 75.3084C124.854 75.3084 124.601 75.2033 124.414 75.0164C124.227 74.8294 124.122 74.5759 124.122 74.3115C124.122 74.0471 124.227 73.7936 124.414 73.6066C124.601 73.4197 124.854 73.3147 125.119 73.3147L174.652 73.2549C174.916 73.2549 175.17 73.3599 175.357 73.5468C175.544 73.7338 175.649 73.9873 175.649 74.2517C175.649 74.5161 175.544 74.7696 175.357 74.9566C175.17 75.1435 174.916 75.2485 174.652 75.2485L125.119 75.3084Z" fill="#C8C8C8"/>
<path d="M161.742 72.9872L170.786 63.9433L172.019 65.1769L162.976 74.2208L161.742 72.9872ZM128.202 65.4576L129.436 64.224L138.462 73.2504L137.228 74.4835L128.202 65.4576Z" fill="#C8C8C8"/>
<path d="M163.343 79.1412H136.478C135.997 79.1412 135.535 78.9501 135.195 78.6098C134.855 78.2696 134.664 77.8081 134.664 77.327V60.8143C134.664 60.3331 134.855 59.8716 135.195 59.5314C135.535 59.1911 135.997 59 136.478 59H163.343C163.824 59 164.285 59.1911 164.626 59.5314C164.966 59.8716 165.157 60.3331 165.157 60.8143V77.327C165.157 77.8081 164.966 78.2696 164.626 78.6098C164.285 78.9501 163.824 79.1412 163.343 79.1412Z" fill="#DFE1E0"/>
<path d="M136.229 77.5712L136.373 60.3308L163.542 60.4255V77.5263L136.229 77.5712Z" fill="#1B9372"/>
<path d="M152.886 67.6177L152.966 63.3313H160.377V67.6576C160.377 67.6576 152.926 67.5778 152.886 67.6177ZM140.575 65.3698C140.575 67.1342 141.975 68.2557 143.54 68.2557C145.101 68.2557 146.386 67.1342 146.386 65.33C146.386 63.5257 144.747 62.4042 143.54 62.4042C141.975 62.4042 140.575 63.4858 140.575 65.3698Z" fill="#85D59E"/>
<path d="M142.324 69.4569H144.846V72.0586C144.846 72.0586 147.812 70.9771 148.051 71.2562C148.29 71.5353 144.163 75.8616 143.685 75.8616C143.207 75.8616 138.795 71.6151 138.96 71.2961C139.119 70.9771 142.324 71.8992 142.324 71.8992V69.4569ZM155.547 69.6164H158.069V72.2181C158.069 72.2181 161.035 71.1366 161.274 71.4157C161.514 71.6948 157.387 76.0211 156.908 76.0211C156.43 76.0211 152.019 71.7745 152.183 71.4556C152.343 71.1366 155.547 72.0586 155.547 72.0586V69.6164Z" fill="#FEFFFE"/>
</svg>
