<svg width="285" height="175" viewBox="0 0 285 175" fill="none" xmlns="http://www.w3.org/2000/svg">
<rect width="285" height="175" fill="white"/>
<g clip-path="url(#clip0_603_943)">
<path d="M169.233 74.8709C177.951 96.1512 169.233 107.593 161.858 113.901C163.66 120.209 156.476 121.51 153.747 118.407C145.714 121.177 129.394 121.087 117.7 109.395C111.392 103.087 116.312 89.0534 133.02 79.6561C147.439 71.5455 161.858 67.0394 169.233 74.8709Z" fill="#FFDB1E"/>
<path d="M133.02 79.6557C145.362 71.5504 160.1 68.1567 166.125 73.4015C175.375 81.458 146.537 99.6835 135.723 103.987C124.008 108.65 130.316 119.307 124.008 119.307C118.601 119.307 119.502 112.098 114.666 105.339C111.81 101.347 118.889 88.9342 133.02 79.6557Z" fill="white"/>
<path d="M132.526 78.9025C130.174 80.4473 127.927 82.1455 125.798 83.986L124.784 84.8833C115.966 92.8532 111.087 101.885 113.934 105.864C114.201 106.237 114.455 106.619 114.697 107.01C115.332 108.035 115.878 109.104 116.401 110.312L116.782 111.228L118.133 114.8C119.609 118.626 121.036 120.209 124.008 120.209C126.721 120.209 127.664 118.922 128.333 115.607L128.643 113.985L128.833 113.058L128.949 112.561L129.064 112.126L129.187 111.725L129.326 111.329L129.487 110.91C130.502 108.354 132.33 106.431 135.539 105.04L136.057 104.825C142.292 102.344 152.2 96.4179 159.022 90.7974L159.967 90.0052C160.418 89.6203 160.863 89.229 161.303 88.8313L162.139 88.0593C168.646 81.9167 170.837 76.6086 166.967 72.9484L166.718 72.722C160.488 67.2993 145.633 70.2951 132.526 78.9025ZM165.534 74.0815C168.574 76.7295 166.787 81.1739 160.96 86.6935L160.141 87.4526C160 87.5803 159.857 87.7085 159.712 87.8371L158.818 88.6156C158.507 88.882 158.192 89.1456 157.876 89.4064C151.435 94.7134 142.141 100.323 136.053 102.879L135.39 103.15C131.395 104.741 129.062 107.096 127.812 110.244L127.55 110.939L127.405 111.377L127.274 111.83C127.253 111.908 127.232 111.988 127.212 112.071L127.087 112.605L126.883 113.589L126.568 115.243L126.43 115.89C125.968 117.895 125.446 118.406 124.008 118.406C122.085 118.406 121.135 117.445 119.974 114.557L118.615 110.966L118.381 110.374C117.727 108.767 117.05 107.385 116.229 106.061C115.967 105.636 115.69 105.221 115.4 104.815C113.841 102.637 115.821 97.7255 120.154 92.3646L120.876 91.4916C124.097 87.6949 128.447 83.7367 133.515 80.4092C146.02 72.1973 160.107 69.3567 165.534 74.0815Z" fill="#FFDB1E"/>
<path d="M159.217 74.7389C167.589 76.9917 158.559 85.0034 151.462 90.1239C144.735 94.9759 139.555 97.7116 137.182 98.8293C136.522 99.1409 134.267 94.7702 134.267 97.0268C134.267 97.7784 133.006 101.06 132.584 101.219C130.124 102.142 124.973 103.544 122.067 103.544C115.775 103.544 118.601 94.9759 127.499 87.1031C129.107 85.6811 130.163 85.9406 131.614 85.9406C130.646 84.5473 130.652 84.288 132.341 83.1542C139.851 78.1057 149.241 74.7352 153.228 74.1045C153.888 74.1297 154.706 74.7352 154.706 75.2382C155.445 74.9859 158.482 74.5389 159.217 74.7371V74.7389Z" fill="#FFE600"/>
<path d="M133.555 88.6498C135.33 87.3034 136.518 86.8293 137.338 84.097C138.358 84.3151 138.854 83.9528 139.663 82.8335C140.247 83.6734 142.65 83.9294 144.084 84.097C142.796 84.9098 142.18 85.6325 141.468 87.8926C138.829 86.7915 135.759 87.3484 133.555 88.6498Z" fill="white"/>
</g>
<defs>
<clipPath id="clip0_603_943">
<rect width="60" height="50.4202" fill="white" transform="translate(113 70)"/>
</clipPath>
</defs>
</svg>
