<svg width="285" height="175" viewBox="0 0 285 175" fill="none" xmlns="http://www.w3.org/2000/svg">
<rect width="285" height="175" fill="white"/>
<g clip-path="url(#clip0_603_943)">
<path d="M169.233 67.8709C177.951 89.1512 169.233 100.593 161.858 106.901C163.66 113.209 156.476 114.51 153.747 111.407C145.714 114.177 129.394 114.087 117.7 102.395C111.392 96.0866 116.312 82.0534 133.02 72.6561C147.439 64.5455 161.858 60.0394 169.233 67.8709Z" fill="#FFDB1E"/>
<path d="M133.02 72.6557C145.362 64.5504 160.1 61.1567 166.125 66.4015C175.375 74.458 146.537 92.6835 135.723 96.9874C124.008 101.65 130.316 112.307 124.008 112.307C118.601 112.307 119.502 105.098 114.666 98.339C111.81 94.3469 118.889 81.9342 133.02 72.6557Z" fill="white"/>
<path d="M132.526 71.9025C130.174 73.4473 127.927 75.1455 125.798 76.986L124.784 77.8833C115.966 85.8532 111.087 94.885 113.934 98.8637C114.201 99.2372 114.455 99.6194 114.697 100.01C115.332 101.035 115.878 102.104 116.401 103.312L116.782 104.228L118.133 107.8C119.609 111.626 121.036 113.209 124.008 113.209C126.721 113.209 127.664 111.922 128.333 108.607L128.643 106.985L128.833 106.058L128.949 105.561L129.064 105.126L129.187 104.725L129.326 104.329L129.487 103.91C130.502 101.354 132.33 99.4314 135.539 98.0402L136.057 97.825C142.292 95.3436 152.2 89.4179 159.022 83.7974L159.967 83.0052C160.418 82.6203 160.863 82.229 161.303 81.8313L162.139 81.0593C168.646 74.9167 170.837 69.6086 166.967 65.9484L166.718 65.722C160.488 60.2993 145.633 63.2951 132.526 71.9025ZM165.534 67.0815C168.574 69.7295 166.787 74.1739 160.96 79.6935L160.141 80.4526C160 80.5803 159.857 80.7085 159.712 80.8371L158.818 81.6156C158.507 81.882 158.192 82.1456 157.876 82.4064C151.435 87.7134 142.141 93.3233 136.053 95.8791L135.39 96.1504C131.395 97.7407 129.062 100.096 127.812 103.244L127.55 103.939L127.405 104.377L127.274 104.83C127.253 104.908 127.232 104.988 127.212 105.071L127.087 105.605L126.883 106.589L126.568 108.243L126.43 108.89C125.968 110.895 125.446 111.406 124.008 111.406C122.085 111.406 121.135 110.445 119.974 107.557L118.615 103.966L118.381 103.374C117.727 101.767 117.05 100.385 116.229 99.0607C115.967 98.6364 115.69 98.221 115.4 97.8152C113.841 95.6366 115.821 90.7255 120.154 85.3646L120.876 84.4916C124.097 80.6949 128.447 76.7367 133.515 73.4092C146.02 65.1973 160.107 62.3567 165.534 67.0815Z" fill="#FFDB1E"/>
<path d="M159.217 67.7389C167.589 69.9917 158.559 78.0034 151.462 83.1239C144.735 87.9759 139.555 90.7116 137.182 91.8293C136.522 92.1409 134.267 87.7702 134.267 90.0268C134.267 90.7784 133.006 94.0604 132.584 94.2191C130.124 95.1418 124.973 96.544 122.067 96.544C115.775 96.544 118.601 87.9759 127.499 80.1031C129.107 78.6811 130.163 78.9406 131.614 78.9406C130.646 77.5473 130.652 77.288 132.341 76.1542C139.851 71.1057 149.241 67.7352 153.228 67.1045C153.888 67.1297 154.706 67.7352 154.706 68.2382C155.445 67.9859 158.482 67.5389 159.217 67.7371V67.7389Z" fill="#FFE600"/>
<path d="M133.555 81.6498C135.33 80.3034 136.518 79.8293 137.338 77.097C138.358 77.3151 138.854 76.9528 139.663 75.8335C140.247 76.6734 142.65 76.9294 144.084 77.097C142.796 77.9098 142.18 78.6325 141.468 80.8926C138.829 79.7915 135.759 80.3484 133.555 81.6498Z" fill="white"/>
</g>
<defs>
<clipPath id="clip0_603_943">
<rect width="60" height="50.4202" fill="white" transform="translate(113 63)"/>
</clipPath>
</defs>
</svg>
