<svg width="300" height="190" viewBox="0 0 300 190" fill="none" xmlns="http://www.w3.org/2000/svg">
<rect width="300" height="190" rx="4" fill="#FFFFFF"/>
<g clip-path="url(#clip0_603_943)">
<path d="M202.466 54.7413C219.902 97.302 202.466 120.185 187.715 132.801C191.32 145.418 176.952 148.02 171.494 141.813C155.428 147.353 122.787 147.173 99.4 123.789C86.7833 111.173 96.6241 83.1064 130.04 64.3118C158.878 48.0905 187.715 39.0783 202.466 54.7413Z" fill="#FFDB1E"/>
<path d="M130.04 64.3119C154.725 48.1014 184.201 41.3138 196.251 51.8035C214.751 67.9165 157.075 104.367 135.447 112.975C112.016 122.301 124.633 143.615 112.016 143.615C101.202 143.615 103.005 129.197 93.333 115.678C87.6201 107.694 101.779 82.8689 130.04 64.3119Z" fill="white"/>
<path d="M129.051 62.8049C124.347 65.8947 119.853 69.2911 115.596 72.9721L113.567 74.7666C95.9317 90.7064 86.1731 108.77 91.8673 116.727C92.4013 117.474 92.9103 118.239 93.3934 119.02C94.6633 121.07 95.7557 123.209 96.8015 125.625L97.5634 127.456L100.265 134.6C103.218 142.252 106.071 145.417 112.016 145.417C117.442 145.417 119.328 142.845 120.665 136.213L121.285 132.97L121.666 131.116L121.897 130.122L122.128 129.252L122.374 128.451L122.651 127.659L122.973 126.819C125.004 121.709 128.66 117.863 135.077 115.08L136.113 114.65C148.583 109.687 168.4 97.8357 182.043 86.5948L183.933 85.0103C184.835 84.2406 185.726 83.4579 186.605 82.6625L188.277 81.1186C201.292 68.8334 205.674 58.2171 197.934 50.8969L197.435 50.444C184.976 39.5986 155.266 45.5902 129.051 62.8049ZM195.068 53.163C201.148 58.459 197.573 67.3479 185.92 78.3871L184.281 79.9053C183.999 80.1607 183.713 80.417 183.424 80.6742L181.636 82.2312C181.013 82.764 180.384 83.2913 179.751 83.8129C166.869 94.4268 148.281 105.647 136.106 110.758L134.78 111.301C126.789 114.481 122.124 119.193 119.623 125.488L119.099 126.879L118.809 127.754L118.548 128.659C118.506 128.816 118.464 128.977 118.423 129.143L118.173 130.21L117.766 132.177L117.135 135.486L116.86 136.78C115.936 140.789 114.891 141.813 112.016 141.813C108.17 141.813 106.269 139.889 103.948 134.114L101.229 126.932L100.762 125.749C99.4532 122.535 98.0988 119.771 96.4579 117.121C95.9327 116.273 95.3795 115.442 94.7991 114.63C91.681 110.273 95.6418 100.451 104.307 89.7293L105.752 87.9833C112.194 80.3899 120.894 72.4735 131.029 65.8185C156.039 49.3946 184.213 43.7134 195.068 53.163Z" fill="#FFDB1E"/>
<path d="M182.435 54.4779C199.179 58.9835 181.119 75.0068 166.924 85.2477C153.471 94.9518 143.111 100.423 138.363 102.659C137.044 103.282 132.535 94.5405 132.535 99.0535C132.535 100.557 130.011 107.121 129.168 107.438C124.247 109.284 113.945 112.088 108.134 112.088C95.5502 112.088 101.202 94.9518 118.999 79.2062C122.214 76.3621 124.327 76.8813 127.228 76.8813C125.293 74.0946 125.304 73.5759 128.681 71.3084C143.702 61.2113 162.482 54.4704 170.456 53.209C171.776 53.2594 173.412 54.4704 173.412 55.4765C174.89 54.9718 180.964 54.0778 182.435 54.4742V54.4779Z" fill="#FFE600"/>
<path d="M131.111 82.2991C134.661 79.6063 137.037 78.6581 138.677 73.1936C140.717 73.6296 141.709 72.9051 143.327 70.6665C144.495 72.3462 149.3 72.8584 152.169 73.1936C149.592 74.8192 148.36 76.2645 146.936 80.7846C141.658 78.5825 135.519 79.6964 131.111 82.2991Z" fill="white"/>
</g>
<defs>
<clipPath id="clip0_603_943">
<rect width="120" height="100.84" fill="white" transform="translate(90 45)"/>
</clipPath>
</defs>
</svg>
