<svg xmlns="http://www.w3.org/2000/svg" width="488" height="310" fill="none" viewBox="0 0 488 310"><rect width="486" height="309" x=".5" y=".5" fill="#121212" stroke="#D4D4D4" rx="3.5"/><circle cx="6" cy="6" r="6" fill="#ED6559" transform="matrix(-1 0 0 1 474 11)"/><circle cx="6" cy="6" r="6" fill="#E1C04C" transform="matrix(-1 0 0 1 454 11)"/><circle cx="6" cy="6" r="6" fill="#72BE47" transform="matrix(-1 0 0 1 434 11)"/><path stroke="#606368" stroke-linecap="round" stroke-linejoin="round" stroke-width="1.2" d="M35 15.5H47M47 15.5L41.5 10M47 15.5L41.5 21"/><path stroke="#BABCBE" stroke-linecap="round" stroke-linejoin="round" stroke-width="1.2" d="M27 15.5H15M15 15.5L20.5 10M15 15.5L20.5 21"/><path fill="#606368" d="M63 13L65 11.0278L64.9853 11.0147L67 9V13H63Z"/><path stroke="#606368" stroke-width="1.2" d="M67 15.5C67 18.8137 64.3137 21.5 61 21.5C57.6863 21.5 55 18.8137 55 15.5C55 12.1863 57.6863 9.5 61 9.5C62.5296 9.5 63.9256 10.0724 64.9853 11.0147M64.9853 11.0147C64.9902 11.019 64.9951 11.0234 65 11.0278L63 13H67V9L64.9853 11.0147Z"/><rect width="245" height="24" x="122" y="4" fill="#000" fill-opacity=".63" rx="8"/><path fill="#fff" d="M155.822 18.7695V11H156.912V20H155.916L155.822 18.7695ZM151.557 16.9004V16.7773C151.557 16.293 151.615 15.8535 151.732 15.459C151.854 15.0605 152.023 14.7188 152.242 14.4336C152.465 14.1484 152.729 13.9297 153.033 13.7773C153.342 13.6211 153.686 13.543 154.064 13.543C154.463 13.543 154.811 13.6133 155.107 13.7539C155.408 13.8906 155.662 14.0918 155.869 14.3574C156.08 14.6191 156.246 14.9355 156.367 15.3066C156.488 15.6777 156.572 16.0977 156.619 16.5664V17.1055C156.576 17.5703 156.492 17.9883 156.367 18.3594C156.246 18.7305 156.08 19.0469 155.869 19.3086C155.662 19.5703 155.408 19.7715 155.107 19.9121C154.807 20.0488 154.455 20.1172 154.053 20.1172C153.682 20.1172 153.342 20.0371 153.033 19.877C152.729 19.7168 152.465 19.4922 152.242 19.2031C152.023 18.9141 151.854 18.5742 151.732 18.1836C151.615 17.7891 151.557 17.3613 151.557 16.9004ZM152.646 16.7773V16.9004C152.646 17.2168 152.678 17.5137 152.74 17.791C152.807 18.0684 152.908 18.3125 153.045 18.5234C153.182 18.7344 153.355 18.9004 153.566 19.0215C153.777 19.1387 154.029 19.1973 154.322 19.1973C154.682 19.1973 154.977 19.1211 155.207 18.9688C155.441 18.8164 155.629 18.6152 155.77 18.3652C155.91 18.1152 156.02 17.8438 156.098 17.5508V16.1387C156.051 15.9238 155.982 15.7168 155.893 15.5176C155.807 15.3145 155.693 15.1348 155.553 14.9785C155.416 14.8184 155.246 14.6914 155.043 14.5977C154.844 14.5039 154.607 14.457 154.334 14.457C154.037 14.457 153.781 14.5195 153.566 14.6445C153.355 14.7656 153.182 14.9336 153.045 15.1484C152.908 15.3594 152.807 15.6055 152.74 15.8867C152.678 16.1641 152.646 16.4609 152.646 16.7773ZM158.594 11H159.684V18.7695L159.59 20H158.594V11ZM163.967 16.7773V16.9004C163.967 17.3613 163.912 17.7891 163.803 18.1836C163.693 18.5742 163.533 18.9141 163.322 19.2031C163.111 19.4922 162.854 19.7168 162.549 19.877C162.244 20.0371 161.895 20.1172 161.5 20.1172C161.098 20.1172 160.744 20.0488 160.439 19.9121C160.139 19.7715 159.885 19.5703 159.678 19.3086C159.471 19.0469 159.305 18.7305 159.18 18.3594C159.059 17.9883 158.975 17.5703 158.928 17.1055V16.5664C158.975 16.0977 159.059 15.6777 159.18 15.3066C159.305 14.9355 159.471 14.6191 159.678 14.3574C159.885 14.0918 160.139 13.8906 160.439 13.7539C160.74 13.6133 161.09 13.543 161.488 13.543C161.887 13.543 162.24 13.6211 162.549 13.7773C162.857 13.9297 163.115 14.1484 163.322 14.4336C163.533 14.7188 163.693 15.0605 163.803 15.459C163.912 15.8535 163.967 16.293 163.967 16.7773ZM162.877 16.9004V16.7773C162.877 16.4609 162.848 16.1641 162.789 15.8867C162.73 15.6055 162.637 15.3594 162.508 15.1484C162.379 14.9336 162.209 14.7656 161.998 14.6445C161.787 14.5195 161.527 14.457 161.219 14.457C160.945 14.457 160.707 14.5039 160.504 14.5977C160.305 14.6914 160.135 14.8184 159.994 14.9785C159.854 15.1348 159.738 15.3145 159.648 15.5176C159.562 15.7168 159.498 15.9238 159.455 16.1387V17.5508C159.518 17.8242 159.619 18.0879 159.76 18.3418C159.904 18.5918 160.096 18.7969 160.334 18.957C160.576 19.1172 160.875 19.1973 161.23 19.1973C161.523 19.1973 161.773 19.1387 161.98 19.0215C162.191 18.9004 162.361 18.7344 162.49 18.5234C162.623 18.3125 162.721 18.0684 162.783 17.791C162.846 17.5137 162.877 17.2168 162.877 16.9004ZM167.594 15.9277V16.8184H164.734V15.9277H167.594ZM172.393 18.916V15.6523C172.393 15.4023 172.342 15.1855 172.24 15.002C172.143 14.8145 171.994 14.6699 171.795 14.5684C171.596 14.4668 171.35 14.416 171.057 14.416C170.783 14.416 170.543 14.4629 170.336 14.5566C170.133 14.6504 169.973 14.7734 169.855 14.9258C169.742 15.0781 169.686 15.2422 169.686 15.418H168.602C168.602 15.1914 168.66 14.9668 168.777 14.7441C168.895 14.5215 169.062 14.3203 169.281 14.1406C169.504 13.957 169.77 13.8125 170.078 13.707C170.391 13.5977 170.738 13.543 171.121 13.543C171.582 13.543 171.988 13.6211 172.34 13.7773C172.695 13.9336 172.973 14.1699 173.172 14.4863C173.375 14.7988 173.477 15.1914 173.477 15.6641V18.6172C173.477 18.8281 173.494 19.0527 173.529 19.291C173.568 19.5293 173.625 19.7344 173.699 19.9062V20H172.568C172.514 19.875 172.471 19.709 172.439 19.502C172.408 19.291 172.393 19.0957 172.393 18.916ZM172.58 16.1562L172.592 16.918H171.496C171.188 16.918 170.912 16.9434 170.67 16.9941C170.428 17.041 170.225 17.1133 170.061 17.2109C169.896 17.3086 169.771 17.4316 169.686 17.5801C169.6 17.7246 169.557 17.8945 169.557 18.0898C169.557 18.2891 169.602 18.4707 169.691 18.6348C169.781 18.7988 169.916 18.9297 170.096 19.0273C170.279 19.1211 170.504 19.168 170.77 19.168C171.102 19.168 171.395 19.0977 171.648 18.957C171.902 18.8164 172.104 18.6445 172.252 18.4414C172.404 18.2383 172.486 18.041 172.498 17.8496L172.961 18.3711C172.934 18.5352 172.859 18.7168 172.738 18.916C172.617 19.1152 172.455 19.3066 172.252 19.4902C172.053 19.6699 171.814 19.8203 171.537 19.9414C171.264 20.0586 170.955 20.1172 170.611 20.1172C170.182 20.1172 169.805 20.0332 169.48 19.8652C169.16 19.6973 168.91 19.4727 168.73 19.1914C168.555 18.9062 168.467 18.5879 168.467 18.2363C168.467 17.8965 168.533 17.5977 168.666 17.3398C168.799 17.0781 168.99 16.8613 169.24 16.6895C169.49 16.5137 169.791 16.3809 170.143 16.291C170.494 16.2012 170.887 16.1562 171.32 16.1562H172.58ZM179.178 18.7695V11H180.268V20H179.271L179.178 18.7695ZM174.912 16.9004V16.7773C174.912 16.293 174.971 15.8535 175.088 15.459C175.209 15.0605 175.379 14.7188 175.598 14.4336C175.82 14.1484 176.084 13.9297 176.389 13.7773C176.697 13.6211 177.041 13.543 177.42 13.543C177.818 13.543 178.166 13.6133 178.463 13.7539C178.764 13.8906 179.018 14.0918 179.225 14.3574C179.436 14.6191 179.602 14.9355 179.723 15.3066C179.844 15.6777 179.928 16.0977 179.975 16.5664V17.1055C179.932 17.5703 179.848 17.9883 179.723 18.3594C179.602 18.7305 179.436 19.0469 179.225 19.3086C179.018 19.5703 178.764 19.7715 178.463 19.9121C178.162 20.0488 177.811 20.1172 177.408 20.1172C177.037 20.1172 176.697 20.0371 176.389 19.877C176.084 19.7168 175.82 19.4922 175.598 19.2031C175.379 18.9141 175.209 18.5742 175.088 18.1836C174.971 17.7891 174.912 17.3613 174.912 16.9004ZM176.002 16.7773V16.9004C176.002 17.2168 176.033 17.5137 176.096 17.791C176.162 18.0684 176.264 18.3125 176.4 18.5234C176.537 18.7344 176.711 18.9004 176.922 19.0215C177.133 19.1387 177.385 19.1973 177.678 19.1973C178.037 19.1973 178.332 19.1211 178.562 18.9688C178.797 18.8164 178.984 18.6152 179.125 18.3652C179.266 18.1152 179.375 17.8438 179.453 17.5508V16.1387C179.406 15.9238 179.338 15.7168 179.248 15.5176C179.162 15.3145 179.049 15.1348 178.908 14.9785C178.771 14.8184 178.602 14.6914 178.398 14.5977C178.199 14.5039 177.963 14.457 177.689 14.457C177.393 14.457 177.137 14.5195 176.922 14.6445C176.711 14.7656 176.537 14.9336 176.4 15.1484C176.264 15.3594 176.162 15.6055 176.096 15.8867C176.033 16.1641 176.002 16.4609 176.002 16.7773ZM183.033 14.9199V20H181.943V13.6602H182.975L183.033 14.9199ZM182.811 16.5898L182.307 16.5723C182.311 16.1387 182.367 15.7383 182.477 15.3711C182.586 15 182.748 14.6777 182.963 14.4043C183.178 14.1309 183.445 13.9199 183.766 13.7715C184.086 13.6191 184.457 13.543 184.879 13.543C185.176 13.543 185.449 13.5859 185.699 13.6719C185.949 13.7539 186.166 13.8848 186.35 14.0645C186.533 14.2441 186.676 14.4746 186.777 14.7559C186.879 15.0371 186.93 15.377 186.93 15.7754V20H185.846V15.8281C185.846 15.4961 185.789 15.2305 185.676 15.0312C185.566 14.832 185.41 14.6875 185.207 14.5977C185.004 14.5039 184.766 14.457 184.492 14.457C184.172 14.457 183.904 14.5137 183.689 14.627C183.475 14.7402 183.303 14.8965 183.174 15.0957C183.045 15.2949 182.951 15.5234 182.893 15.7812C182.838 16.0352 182.811 16.3047 182.811 16.5898ZM186.918 15.9922L186.191 16.2148C186.195 15.8672 186.252 15.5332 186.361 15.2129C186.475 14.8926 186.637 14.6074 186.848 14.3574C187.062 14.1074 187.326 13.9102 187.639 13.7656C187.951 13.6172 188.309 13.543 188.711 13.543C189.051 13.543 189.352 13.5879 189.613 13.6777C189.879 13.7676 190.102 13.9062 190.281 14.0938C190.465 14.2773 190.604 14.5137 190.697 14.8027C190.791 15.0918 190.838 15.4355 190.838 15.834V20H189.748V15.8223C189.748 15.4668 189.691 15.1914 189.578 14.9961C189.469 14.7969 189.312 14.6582 189.109 14.5801C188.91 14.498 188.672 14.457 188.395 14.457C188.156 14.457 187.945 14.498 187.762 14.5801C187.578 14.6621 187.424 14.7754 187.299 14.9199C187.174 15.0605 187.078 15.2227 187.012 15.4062C186.949 15.5898 186.918 15.7852 186.918 15.9922ZM193.656 13.6602V20H192.566V13.6602H193.656ZM192.484 11.9785C192.484 11.8027 192.537 11.6543 192.643 11.5332C192.752 11.4121 192.912 11.3516 193.123 11.3516C193.33 11.3516 193.488 11.4121 193.598 11.5332C193.711 11.6543 193.768 11.8027 193.768 11.9785C193.768 12.1465 193.711 12.291 193.598 12.4121C193.488 12.5293 193.33 12.5879 193.123 12.5879C192.912 12.5879 192.752 12.5293 192.643 12.4121C192.537 12.291 192.484 12.1465 192.484 11.9785ZM196.48 15.0137V20H195.396V13.6602H196.422L196.48 15.0137ZM196.223 16.5898L195.771 16.5723C195.775 16.1387 195.84 15.7383 195.965 15.3711C196.09 15 196.266 14.6777 196.492 14.4043C196.719 14.1309 196.988 13.9199 197.301 13.7715C197.617 13.6191 197.967 13.543 198.35 13.543C198.662 13.543 198.943 13.5859 199.193 13.6719C199.443 13.7539 199.656 13.8867 199.832 14.0703C200.012 14.2539 200.148 14.4922 200.242 14.7852C200.336 15.0742 200.383 15.4277 200.383 15.8457V20H199.293V15.834C199.293 15.502 199.244 15.2363 199.146 15.0371C199.049 14.834 198.906 14.6875 198.719 14.5977C198.531 14.5039 198.301 14.457 198.027 14.457C197.758 14.457 197.512 14.5137 197.289 14.627C197.07 14.7402 196.881 14.8965 196.721 15.0957C196.564 15.2949 196.441 15.5234 196.352 15.7812C196.266 16.0352 196.223 16.3047 196.223 16.5898ZM204.285 15.9277V16.8184H201.426V15.9277H204.285ZM206.43 14.8789V22.4375H205.34V13.6602H206.336L206.43 14.8789ZM210.701 16.7773V16.9004C210.701 17.3613 210.646 17.7891 210.537 18.1836C210.428 18.5742 210.268 18.9141 210.057 19.2031C209.85 19.4922 209.594 19.7168 209.289 19.877C208.984 20.0371 208.635 20.1172 208.24 20.1172C207.838 20.1172 207.482 20.0508 207.174 19.918C206.865 19.7852 206.604 19.5918 206.389 19.3379C206.174 19.084 206.002 18.7793 205.873 18.4238C205.748 18.0684 205.662 17.668 205.615 17.2227V16.5664C205.662 16.0977 205.75 15.6777 205.879 15.3066C206.008 14.9355 206.178 14.6191 206.389 14.3574C206.604 14.0918 206.863 13.8906 207.168 13.7539C207.473 13.6133 207.824 13.543 208.223 13.543C208.621 13.543 208.975 13.6211 209.283 13.7773C209.592 13.9297 209.852 14.1484 210.062 14.4336C210.273 14.7188 210.432 15.0605 210.537 15.459C210.646 15.8535 210.701 16.293 210.701 16.7773ZM209.611 16.9004V16.7773C209.611 16.4609 209.578 16.1641 209.512 15.8867C209.445 15.6055 209.342 15.3594 209.201 15.1484C209.064 14.9336 208.889 14.7656 208.674 14.6445C208.459 14.5195 208.203 14.457 207.906 14.457C207.633 14.457 207.395 14.5039 207.191 14.5977C206.992 14.6914 206.822 14.8184 206.682 14.9785C206.541 15.1348 206.426 15.3145 206.336 15.5176C206.25 15.7168 206.186 15.9238 206.143 16.1387V17.6562C206.221 17.9297 206.33 18.1875 206.471 18.4297C206.611 18.668 206.799 18.8613 207.033 19.0098C207.268 19.1543 207.562 19.2266 207.918 19.2266C208.211 19.2266 208.463 19.166 208.674 19.0449C208.889 18.9199 209.064 18.75 209.201 18.5352C209.342 18.3203 209.445 18.0742 209.512 17.7969C209.578 17.5156 209.611 17.2168 209.611 16.9004ZM215.822 18.916V15.6523C215.822 15.4023 215.771 15.1855 215.67 15.002C215.572 14.8145 215.424 14.6699 215.225 14.5684C215.025 14.4668 214.779 14.416 214.486 14.416C214.213 14.416 213.973 14.4629 213.766 14.5566C213.562 14.6504 213.402 14.7734 213.285 14.9258C213.172 15.0781 213.115 15.2422 213.115 15.418H212.031C212.031 15.1914 212.09 14.9668 212.207 14.7441C212.324 14.5215 212.492 14.3203 212.711 14.1406C212.934 13.957 213.199 13.8125 213.508 13.707C213.82 13.5977 214.168 13.543 214.551 13.543C215.012 13.543 215.418 13.6211 215.77 13.7773C216.125 13.9336 216.402 14.1699 216.602 14.4863C216.805 14.7988 216.906 15.1914 216.906 15.6641V18.6172C216.906 18.8281 216.924 19.0527 216.959 19.291C216.998 19.5293 217.055 19.7344 217.129 19.9062V20H215.998C215.943 19.875 215.9 19.709 215.869 19.502C215.838 19.291 215.822 19.0957 215.822 18.916ZM216.01 16.1562L216.021 16.918H214.926C214.617 16.918 214.342 16.9434 214.1 16.9941C213.857 17.041 213.654 17.1133 213.49 17.2109C213.326 17.3086 213.201 17.4316 213.115 17.5801C213.029 17.7246 212.986 17.8945 212.986 18.0898C212.986 18.2891 213.031 18.4707 213.121 18.6348C213.211 18.7988 213.346 18.9297 213.525 19.0273C213.709 19.1211 213.934 19.168 214.199 19.168C214.531 19.168 214.824 19.0977 215.078 18.957C215.332 18.8164 215.533 18.6445 215.682 18.4414C215.834 18.2383 215.916 18.041 215.928 17.8496L216.391 18.3711C216.363 18.5352 216.289 18.7168 216.168 18.916C216.047 19.1152 215.885 19.3066 215.682 19.4902C215.482 19.6699 215.244 19.8203 214.967 19.9414C214.693 20.0586 214.385 20.1172 214.041 20.1172C213.611 20.1172 213.234 20.0332 212.91 19.8652C212.59 19.6973 212.34 19.4727 212.16 19.1914C211.984 18.9062 211.896 18.5879 211.896 18.2363C211.896 17.8965 211.963 17.5977 212.096 17.3398C212.229 17.0781 212.42 16.8613 212.67 16.6895C212.92 16.5137 213.221 16.3809 213.572 16.291C213.924 16.2012 214.316 16.1562 214.75 16.1562H216.01ZM219.695 15.0137V20H218.611V13.6602H219.637L219.695 15.0137ZM219.438 16.5898L218.986 16.5723C218.99 16.1387 219.055 15.7383 219.18 15.3711C219.305 15 219.48 14.6777 219.707 14.4043C219.934 14.1309 220.203 13.9199 220.516 13.7715C220.832 13.6191 221.182 13.543 221.564 13.543C221.877 13.543 222.158 13.5859 222.408 13.6719C222.658 13.7539 222.871 13.8867 223.047 14.0703C223.227 14.2539 223.363 14.4922 223.457 14.7852C223.551 15.0742 223.598 15.4277 223.598 15.8457V20H222.508V15.834C222.508 15.502 222.459 15.2363 222.361 15.0371C222.264 14.834 222.121 14.6875 221.934 14.5977C221.746 14.5039 221.516 14.457 221.242 14.457C220.973 14.457 220.727 14.5137 220.504 14.627C220.285 14.7402 220.096 14.8965 219.936 15.0957C219.779 15.2949 219.656 15.5234 219.566 15.7812C219.48 16.0352 219.438 16.3047 219.438 16.5898ZM227.875 20.1172C227.434 20.1172 227.033 20.043 226.674 19.8945C226.318 19.7422 226.012 19.5293 225.754 19.2559C225.5 18.9824 225.305 18.6582 225.168 18.2832C225.031 17.9082 224.963 17.498 224.963 17.0527V16.8066C224.963 16.291 225.039 15.832 225.191 15.4297C225.344 15.0234 225.551 14.6797 225.812 14.3984C226.074 14.1172 226.371 13.9043 226.703 13.7598C227.035 13.6152 227.379 13.543 227.734 13.543C228.188 13.543 228.578 13.6211 228.906 13.7773C229.238 13.9336 229.51 14.1523 229.721 14.4336C229.932 14.7109 230.088 15.0391 230.189 15.418C230.291 15.793 230.342 16.2031 230.342 16.6484V17.1348H225.607V16.25H229.258V16.168C229.242 15.8867 229.184 15.6133 229.082 15.3477C228.984 15.082 228.828 14.8633 228.613 14.6914C228.398 14.5195 228.105 14.4336 227.734 14.4336C227.488 14.4336 227.262 14.4863 227.055 14.5918C226.848 14.6934 226.67 14.8457 226.521 15.0488C226.373 15.252 226.258 15.5 226.176 15.793C226.094 16.0859 226.053 16.4238 226.053 16.8066V17.0527C226.053 17.3535 226.094 17.6367 226.176 17.9023C226.262 18.1641 226.385 18.3945 226.545 18.5938C226.709 18.793 226.906 18.9492 227.137 19.0625C227.371 19.1758 227.637 19.2324 227.934 19.2324C228.316 19.2324 228.641 19.1543 228.906 18.998C229.172 18.8418 229.404 18.6328 229.604 18.3711L230.26 18.8926C230.123 19.0996 229.949 19.2969 229.738 19.4844C229.527 19.6719 229.268 19.8242 228.959 19.9414C228.654 20.0586 228.293 20.1172 227.875 20.1172ZM232.785 11V20H231.695V11H232.785ZM234.543 19.4258C234.543 19.2422 234.6 19.0879 234.713 18.9629C234.83 18.834 234.998 18.7695 235.217 18.7695C235.436 18.7695 235.602 18.834 235.715 18.9629C235.832 19.0879 235.891 19.2422 235.891 19.4258C235.891 19.6055 235.832 19.7578 235.715 19.8828C235.602 20.0078 235.436 20.0703 235.217 20.0703C234.998 20.0703 234.83 20.0078 234.713 19.8828C234.6 19.7578 234.543 19.6055 234.543 19.4258ZM238.773 15.0137V20H237.689V13.6602H238.715L238.773 15.0137ZM238.516 16.5898L238.064 16.5723C238.068 16.1387 238.133 15.7383 238.258 15.3711C238.383 15 238.559 14.6777 238.785 14.4043C239.012 14.1309 239.281 13.9199 239.594 13.7715C239.91 13.6191 240.26 13.543 240.643 13.543C240.955 13.543 241.236 13.5859 241.486 13.6719C241.736 13.7539 241.949 13.8867 242.125 14.0703C242.305 14.2539 242.441 14.4922 242.535 14.7852C242.629 15.0742 242.676 15.4277 242.676 15.8457V20H241.586V15.834C241.586 15.502 241.537 15.2363 241.439 15.0371C241.342 14.834 241.199 14.6875 241.012 14.5977C240.824 14.5039 240.594 14.457 240.32 14.457C240.051 14.457 239.805 14.5137 239.582 14.627C239.363 14.7402 239.174 14.8965 239.014 15.0957C238.857 15.2949 238.734 15.5234 238.645 15.7812C238.559 16.0352 238.516 16.3047 238.516 16.5898ZM246.953 20.1172C246.512 20.1172 246.111 20.043 245.752 19.8945C245.396 19.7422 245.09 19.5293 244.832 19.2559C244.578 18.9824 244.383 18.6582 244.246 18.2832C244.109 17.9082 244.041 17.498 244.041 17.0527V16.8066C244.041 16.291 244.117 15.832 244.27 15.4297C244.422 15.0234 244.629 14.6797 244.891 14.3984C245.152 14.1172 245.449 13.9043 245.781 13.7598C246.113 13.6152 246.457 13.543 246.812 13.543C247.266 13.543 247.656 13.6211 247.984 13.7773C248.316 13.9336 248.588 14.1523 248.799 14.4336C249.01 14.7109 249.166 15.0391 249.268 15.418C249.369 15.793 249.42 16.2031 249.42 16.6484V17.1348H244.686V16.25H248.336V16.168C248.32 15.8867 248.262 15.6133 248.16 15.3477C248.062 15.082 247.906 14.8633 247.691 14.6914C247.477 14.5195 247.184 14.4336 246.812 14.4336C246.566 14.4336 246.34 14.4863 246.133 14.5918C245.926 14.6934 245.748 14.8457 245.6 15.0488C245.451 15.252 245.336 15.5 245.254 15.793C245.172 16.0859 245.131 16.4238 245.131 16.8066V17.0527C245.131 17.3535 245.172 17.6367 245.254 17.9023C245.34 18.1641 245.463 18.3945 245.623 18.5938C245.787 18.793 245.984 18.9492 246.215 19.0625C246.449 19.1758 246.715 19.2324 247.012 19.2324C247.395 19.2324 247.719 19.1543 247.984 18.998C248.25 18.8418 248.482 18.6328 248.682 18.3711L249.338 18.8926C249.201 19.0996 249.027 19.2969 248.816 19.4844C248.605 19.6719 248.346 19.8242 248.037 19.9414C247.732 20.0586 247.371 20.1172 246.953 20.1172ZM253.34 13.6602V14.4922H249.912V13.6602H253.34ZM251.072 12.1191H252.156V18.4297C252.156 18.6445 252.189 18.8066 252.256 18.916C252.322 19.0254 252.408 19.0977 252.514 19.1328C252.619 19.168 252.732 19.1855 252.854 19.1855C252.943 19.1855 253.037 19.1777 253.135 19.1621C253.236 19.1426 253.312 19.127 253.363 19.1152L253.369 20C253.283 20.0273 253.17 20.0527 253.029 20.0762C252.893 20.1035 252.727 20.1172 252.531 20.1172C252.266 20.1172 252.021 20.0645 251.799 19.959C251.576 19.8535 251.398 19.6777 251.266 19.4316C251.137 19.1816 251.072 18.8457 251.072 18.4238V12.1191ZM259.334 19.1094V20H254.723V19.1094H259.334ZM259.164 14.4277L254.969 20H254.307V19.2031L258.473 13.6602H259.164V14.4277ZM258.684 13.6602V14.5566H254.354V13.6602H258.684ZM260.184 16.9004V16.7656C260.184 16.3086 260.25 15.8848 260.383 15.4941C260.516 15.0996 260.707 14.7578 260.957 14.4688C261.207 14.1758 261.51 13.9492 261.865 13.7891C262.221 13.625 262.619 13.543 263.061 13.543C263.506 13.543 263.906 13.625 264.262 13.7891C264.621 13.9492 264.926 14.1758 265.176 14.4688C265.43 14.7578 265.623 15.0996 265.756 15.4941C265.889 15.8848 265.955 16.3086 265.955 16.7656V16.9004C265.955 17.3574 265.889 17.7812 265.756 18.1719C265.623 18.5625 265.43 18.9043 265.176 19.1973C264.926 19.4863 264.623 19.7129 264.268 19.877C263.916 20.0371 263.518 20.1172 263.072 20.1172C262.627 20.1172 262.227 20.0371 261.871 19.877C261.516 19.7129 261.211 19.4863 260.957 19.1973C260.707 18.9043 260.516 18.5625 260.383 18.1719C260.25 17.7812 260.184 17.3574 260.184 16.9004ZM261.268 16.7656V16.9004C261.268 17.2168 261.305 17.5156 261.379 17.7969C261.453 18.0742 261.564 18.3203 261.713 18.5352C261.865 18.75 262.055 18.9199 262.281 19.0449C262.508 19.166 262.771 19.2266 263.072 19.2266C263.369 19.2266 263.629 19.166 263.852 19.0449C264.078 18.9199 264.266 18.75 264.414 18.5352C264.562 18.3203 264.674 18.0742 264.748 17.7969C264.826 17.5156 264.865 17.2168 264.865 16.9004V16.7656C264.865 16.4531 264.826 16.1582 264.748 15.8809C264.674 15.5996 264.561 15.3516 264.408 15.1367C264.26 14.918 264.072 14.7461 263.846 14.6211C263.623 14.4961 263.361 14.4336 263.061 14.4336C262.764 14.4336 262.502 14.4961 262.275 14.6211C262.053 14.7461 261.865 14.918 261.713 15.1367C261.564 15.3516 261.453 15.5996 261.379 15.8809C261.305 16.1582 261.268 16.4531 261.268 16.7656ZM267.332 19.4258C267.332 19.2422 267.389 19.0879 267.502 18.9629C267.619 18.834 267.787 18.7695 268.006 18.7695C268.225 18.7695 268.391 18.834 268.504 18.9629C268.621 19.0879 268.68 19.2422 268.68 19.4258C268.68 19.6055 268.621 19.7578 268.504 19.8828C268.391 20.0078 268.225 20.0703 268.006 20.0703C267.787 20.0703 267.619 20.0078 267.502 19.8828C267.389 19.7578 267.332 19.6055 267.332 19.4258ZM271.656 13.6602V20H270.566V13.6602H271.656ZM270.484 11.9785C270.484 11.8027 270.537 11.6543 270.643 11.5332C270.752 11.4121 270.912 11.3516 271.123 11.3516C271.33 11.3516 271.488 11.4121 271.598 11.5332C271.711 11.6543 271.768 11.8027 271.768 11.9785C271.768 12.1465 271.711 12.291 271.598 12.4121C271.488 12.5293 271.33 12.5879 271.123 12.5879C270.912 12.5879 270.752 12.5293 270.643 12.4121C270.537 12.291 270.484 12.1465 270.484 11.9785ZM273.109 16.9004V16.7656C273.109 16.3086 273.176 15.8848 273.309 15.4941C273.441 15.0996 273.633 14.7578 273.883 14.4688C274.133 14.1758 274.436 13.9492 274.791 13.7891C275.146 13.625 275.545 13.543 275.986 13.543C276.432 13.543 276.832 13.625 277.188 13.7891C277.547 13.9492 277.852 14.1758 278.102 14.4688C278.355 14.7578 278.549 15.0996 278.682 15.4941C278.814 15.8848 278.881 16.3086 278.881 16.7656V16.9004C278.881 17.3574 278.814 17.7812 278.682 18.1719C278.549 18.5625 278.355 18.9043 278.102 19.1973C277.852 19.4863 277.549 19.7129 277.193 19.877C276.842 20.0371 276.443 20.1172 275.998 20.1172C275.553 20.1172 275.152 20.0371 274.797 19.877C274.441 19.7129 274.137 19.4863 273.883 19.1973C273.633 18.9043 273.441 18.5625 273.309 18.1719C273.176 17.7812 273.109 17.3574 273.109 16.9004ZM274.193 16.7656V16.9004C274.193 17.2168 274.23 17.5156 274.305 17.7969C274.379 18.0742 274.49 18.3203 274.639 18.5352C274.791 18.75 274.98 18.9199 275.207 19.0449C275.434 19.166 275.697 19.2266 275.998 19.2266C276.295 19.2266 276.555 19.166 276.777 19.0449C277.004 18.9199 277.191 18.75 277.34 18.5352C277.488 18.3203 277.6 18.0742 277.674 17.7969C277.752 17.5156 277.791 17.2168 277.791 16.9004V16.7656C277.791 16.4531 277.752 16.1582 277.674 15.8809C277.6 15.5996 277.486 15.3516 277.334 15.1367C277.186 14.918 276.998 14.7461 276.771 14.6211C276.549 14.4961 276.287 14.4336 275.986 14.4336C275.689 14.4336 275.428 14.4961 275.201 14.6211C274.979 14.7461 274.791 14.918 274.639 15.1367C274.49 15.3516 274.379 15.5996 274.305 15.8809C274.23 16.1582 274.193 16.4531 274.193 16.7656Z"/><path stroke="#BABCBE" d="M134.988 14V12C134.988 12 134.988 10 136.976 10C138.964 10 138.964 12 138.964 12V14"/><rect width="7.952" height="7" x="133" y="14" fill="#BABCBE" rx="1"/><path stroke="#D4D4D4" d="M2 31.5L487 32"/><rect width="109" height="7" x="29" y="69" fill="#606368" rx="3.5"/><rect width="109" height="7" x="29" y="78" fill="#606368" rx="3.5"/><rect width="84" height="7" x="29" y="87" fill="#606368" rx="3.5"/><path fill="#fff" d="M32.2988 62H30.5176L30.5293 61.0801H32.2988C32.9082 61.0801 33.416 60.9531 33.8223 60.6992C34.2285 60.4414 34.5332 60.082 34.7363 59.6211C34.9434 59.1562 35.0469 58.6133 35.0469 57.9922V57.4707C35.0469 56.9824 34.9883 56.5488 34.8711 56.1699C34.7539 55.7871 34.582 55.4648 34.3555 55.2031C34.1289 54.9375 33.8516 54.7363 33.5234 54.5996C33.1992 54.4629 32.8262 54.3945 32.4043 54.3945H30.4824V53.4688H32.4043C32.9629 53.4688 33.4727 53.5625 33.9336 53.75C34.3945 53.9336 34.791 54.2012 35.123 54.5527C35.459 54.9004 35.7168 55.3223 35.8965 55.8184C36.0762 56.3105 36.166 56.8652 36.166 57.4824V57.9922C36.166 58.6094 36.0762 59.166 35.8965 59.6621C35.7168 60.1543 35.457 60.5742 35.1172 60.9219C34.7812 61.2695 34.375 61.5371 33.8984 61.7246C33.4258 61.9082 32.8926 62 32.2988 62ZM31.1211 53.4688V62H29.9902V53.4688H31.1211ZM40.9062 58.0098H38.7441L38.7324 57.1016H40.6953C41.0195 57.1016 41.3027 57.0469 41.5449 56.9375C41.7871 56.8281 41.9746 56.6719 42.1074 56.4688C42.2441 56.2617 42.3125 56.0156 42.3125 55.7305C42.3125 55.418 42.252 55.1641 42.1309 54.9688C42.0137 54.7695 41.832 54.625 41.5859 54.5352C41.3438 54.4414 41.0352 54.3945 40.6602 54.3945H38.9961V62H37.8652V53.4688H40.6602C41.0977 53.4688 41.4883 53.5137 41.832 53.6035C42.1758 53.6895 42.4668 53.8262 42.7051 54.0137C42.9473 54.1973 43.1309 54.4316 43.2559 54.7168C43.3809 55.002 43.4434 55.3438 43.4434 55.7422C43.4434 56.0938 43.3535 56.4121 43.1738 56.6973C42.9941 56.9785 42.7441 57.209 42.4238 57.3887C42.1074 57.5684 41.7363 57.6836 41.3105 57.7344L40.9062 58.0098ZM40.8535 62H38.2988L38.9375 61.0801H40.8535C41.2129 61.0801 41.5176 61.0176 41.7676 60.8926C42.0215 60.7676 42.2148 60.5918 42.3477 60.3652C42.4805 60.1348 42.5469 59.8633 42.5469 59.5508C42.5469 59.2344 42.4902 58.9609 42.377 58.7305C42.2637 58.5 42.0859 58.3223 41.8438 58.1973C41.6016 58.0723 41.2891 58.0098 40.9062 58.0098H39.2949L39.3066 57.1016H41.5098L41.75 57.4297C42.1602 57.4648 42.5078 57.582 42.793 57.7812C43.0781 57.9766 43.2949 58.2266 43.4434 58.5312C43.5957 58.8359 43.6719 59.1719 43.6719 59.5391C43.6719 60.0703 43.5547 60.5195 43.3203 60.8867C43.0898 61.25 42.7637 61.5273 42.3418 61.7188C41.9199 61.9062 41.4238 62 40.8535 62ZM51.4766 54.2246L48.6523 62H47.498L50.75 53.4688H51.4941L51.4766 54.2246ZM53.8438 62L51.0137 54.2246L50.9961 53.4688H51.7402L55.0039 62H53.8438ZM53.6973 58.8418V59.7676H48.9043V58.8418H53.6973ZM59.9785 60.7695V53H61.0684V62H60.0723L59.9785 60.7695ZM55.7129 58.9004V58.7773C55.7129 58.293 55.7715 57.8535 55.8887 57.459C56.0098 57.0605 56.1797 56.7188 56.3984 56.4336C56.6211 56.1484 56.8848 55.9297 57.1895 55.7773C57.498 55.6211 57.8418 55.543 58.2207 55.543C58.6191 55.543 58.9668 55.6133 59.2637 55.7539C59.5645 55.8906 59.8184 56.0918 60.0254 56.3574C60.2363 56.6191 60.4023 56.9355 60.5234 57.3066C60.6445 57.6777 60.7285 58.0977 60.7754 58.5664V59.1055C60.7324 59.5703 60.6484 59.9883 60.5234 60.3594C60.4023 60.7305 60.2363 61.0469 60.0254 61.3086C59.8184 61.5703 59.5645 61.7715 59.2637 61.9121C58.9629 62.0488 58.6113 62.1172 58.209 62.1172C57.8379 62.1172 57.498 62.0371 57.1895 61.877C56.8848 61.7168 56.6211 61.4922 56.3984 61.2031C56.1797 60.9141 56.0098 60.5742 55.8887 60.1836C55.7715 59.7891 55.7129 59.3613 55.7129 58.9004ZM56.8027 58.7773V58.9004C56.8027 59.2168 56.834 59.5137 56.8965 59.791C56.9629 60.0684 57.0645 60.3125 57.2012 60.5234C57.3379 60.7344 57.5117 60.9004 57.7227 61.0215C57.9336 61.1387 58.1855 61.1973 58.4785 61.1973C58.8379 61.1973 59.1328 61.1211 59.3633 60.9688C59.5977 60.8164 59.7852 60.6152 59.9258 60.3652C60.0664 60.1152 60.1758 59.8438 60.2539 59.5508V58.1387C60.207 57.9238 60.1387 57.7168 60.0488 57.5176C59.9629 57.3145 59.8496 57.1348 59.709 56.9785C59.5723 56.8184 59.4023 56.6914 59.1992 56.5977C59 56.5039 58.7637 56.457 58.4902 56.457C58.1934 56.457 57.9375 56.5195 57.7227 56.6445C57.5117 56.7656 57.3379 56.9336 57.2012 57.1484C57.0645 57.3594 56.9629 57.6055 56.8965 57.8867C56.834 58.1641 56.8027 58.4609 56.8027 58.7773ZM63.834 56.9199V62H62.7441V55.6602H63.7754L63.834 56.9199ZM63.6113 58.5898L63.1074 58.5723C63.1113 58.1387 63.168 57.7383 63.2773 57.3711C63.3867 57 63.5488 56.6777 63.7637 56.4043C63.9785 56.1309 64.2461 55.9199 64.5664 55.7715C64.8867 55.6191 65.2578 55.543 65.6797 55.543C65.9766 55.543 66.25 55.5859 66.5 55.6719C66.75 55.7539 66.9668 55.8848 67.1504 56.0645C67.334 56.2441 67.4766 56.4746 67.5781 56.7559C67.6797 57.0371 67.7305 57.377 67.7305 57.7754V62H66.6465V57.8281C66.6465 57.4961 66.5898 57.2305 66.4766 57.0312C66.3672 56.832 66.2109 56.6875 66.0078 56.5977C65.8047 56.5039 65.5664 56.457 65.293 56.457C64.9727 56.457 64.7051 56.5137 64.4902 56.627C64.2754 56.7402 64.1035 56.8965 63.9746 57.0957C63.8457 57.2949 63.752 57.5234 63.6934 57.7812C63.6387 58.0352 63.6113 58.3047 63.6113 58.5898ZM67.7188 57.9922L66.9922 58.2148C66.9961 57.8672 67.0527 57.5332 67.1621 57.2129C67.2754 56.8926 67.4375 56.6074 67.6484 56.3574C67.8633 56.1074 68.127 55.9102 68.4395 55.7656C68.752 55.6172 69.1094 55.543 69.5117 55.543C69.8516 55.543 70.1523 55.5879 70.4141 55.6777C70.6797 55.7676 70.9023 55.9062 71.082 56.0938C71.2656 56.2773 71.4043 56.5137 71.498 56.8027C71.5918 57.0918 71.6387 57.4355 71.6387 57.834V62H70.5488V57.8223C70.5488 57.4668 70.4922 57.1914 70.3789 56.9961C70.2695 56.7969 70.1133 56.6582 69.9102 56.5801C69.7109 56.498 69.4727 56.457 69.1953 56.457C68.957 56.457 68.7461 56.498 68.5625 56.5801C68.3789 56.6621 68.2246 56.7754 68.0996 56.9199C67.9746 57.0605 67.8789 57.2227 67.8125 57.4062C67.75 57.5898 67.7188 57.7852 67.7188 57.9922ZM74.457 55.6602V62H73.3672V55.6602H74.457ZM73.2852 53.9785C73.2852 53.8027 73.3379 53.6543 73.4434 53.5332C73.5527 53.4121 73.7129 53.3516 73.9238 53.3516C74.1309 53.3516 74.2891 53.4121 74.3984 53.5332C74.5117 53.6543 74.5684 53.8027 74.5684 53.9785C74.5684 54.1465 74.5117 54.291 74.3984 54.4121C74.2891 54.5293 74.1309 54.5879 73.9238 54.5879C73.7129 54.5879 73.5527 54.5293 73.4434 54.4121C73.3379 54.291 73.2852 54.1465 73.2852 53.9785ZM77.2812 57.0137V62H76.1973V55.6602H77.2227L77.2812 57.0137ZM77.0234 58.5898L76.5723 58.5723C76.5762 58.1387 76.6406 57.7383 76.7656 57.3711C76.8906 57 77.0664 56.6777 77.293 56.4043C77.5195 56.1309 77.7891 55.9199 78.1016 55.7715C78.418 55.6191 78.7676 55.543 79.1504 55.543C79.4629 55.543 79.7441 55.5859 79.9941 55.6719C80.2441 55.7539 80.457 55.8867 80.6328 56.0703C80.8125 56.2539 80.9492 56.4922 81.043 56.7852C81.1367 57.0742 81.1836 57.4277 81.1836 57.8457V62H80.0938V57.834C80.0938 57.502 80.0449 57.2363 79.9473 57.0371C79.8496 56.834 79.707 56.6875 79.5195 56.5977C79.332 56.5039 79.1016 56.457 78.8281 56.457C78.5586 56.457 78.3125 56.5137 78.0898 56.627C77.8711 56.7402 77.6816 56.8965 77.5215 57.0957C77.3652 57.2949 77.2422 57.5234 77.1523 57.7812C77.0664 58.0352 77.0234 58.3047 77.0234 58.5898ZM89.1172 58.6543H86.8379V57.7344H89.1172C89.5586 57.7344 89.916 57.6641 90.1895 57.5234C90.4629 57.3828 90.6621 57.1875 90.7871 56.9375C90.916 56.6875 90.9805 56.4023 90.9805 56.082C90.9805 55.7891 90.916 55.5137 90.7871 55.2559C90.6621 54.998 90.4629 54.791 90.1895 54.6348C89.916 54.4746 89.5586 54.3945 89.1172 54.3945H87.1016V62H85.9707V53.4688H89.1172C89.7617 53.4688 90.3066 53.5801 90.752 53.8027C91.1973 54.0254 91.5352 54.334 91.7656 54.7285C91.9961 55.1191 92.1113 55.5664 92.1113 56.0703C92.1113 56.6172 91.9961 57.084 91.7656 57.4707C91.5352 57.8574 91.1973 58.1523 90.752 58.3555C90.3066 58.5547 89.7617 58.6543 89.1172 58.6543ZM97.0449 60.916V57.6523C97.0449 57.4023 96.9941 57.1855 96.8926 57.002C96.7949 56.8145 96.6465 56.6699 96.4473 56.5684C96.248 56.4668 96.002 56.416 95.709 56.416C95.4355 56.416 95.1953 56.4629 94.9883 56.5566C94.7852 56.6504 94.625 56.7734 94.5078 56.9258C94.3945 57.0781 94.3379 57.2422 94.3379 57.418H93.2539C93.2539 57.1914 93.3125 56.9668 93.4297 56.7441C93.5469 56.5215 93.7148 56.3203 93.9336 56.1406C94.1562 55.957 94.4219 55.8125 94.7305 55.707C95.043 55.5977 95.3906 55.543 95.7734 55.543C96.2344 55.543 96.6406 55.6211 96.9922 55.7773C97.3477 55.9336 97.625 56.1699 97.8242 56.4863C98.0273 56.7988 98.1289 57.1914 98.1289 57.6641V60.6172C98.1289 60.8281 98.1465 61.0527 98.1816 61.291C98.2207 61.5293 98.2773 61.7344 98.3516 61.9062V62H97.2207C97.166 61.875 97.123 61.709 97.0918 61.502C97.0605 61.291 97.0449 61.0957 97.0449 60.916ZM97.2324 58.1562L97.2441 58.918H96.1484C95.8398 58.918 95.5645 58.9434 95.3223 58.9941C95.0801 59.041 94.877 59.1133 94.7129 59.2109C94.5488 59.3086 94.4238 59.4316 94.3379 59.5801C94.252 59.7246 94.209 59.8945 94.209 60.0898C94.209 60.2891 94.2539 60.4707 94.3438 60.6348C94.4336 60.7988 94.5684 60.9297 94.748 61.0273C94.9316 61.1211 95.1562 61.168 95.4219 61.168C95.7539 61.168 96.0469 61.0977 96.3008 60.957C96.5547 60.8164 96.7559 60.6445 96.9043 60.4414C97.0566 60.2383 97.1387 60.041 97.1504 59.8496L97.6133 60.3711C97.5859 60.5352 97.5117 60.7168 97.3906 60.916C97.2695 61.1152 97.1074 61.3066 96.9043 61.4902C96.7051 61.6699 96.4668 61.8203 96.1895 61.9414C95.916 62.0586 95.6074 62.1172 95.2637 62.1172C94.834 62.1172 94.457 62.0332 94.1328 61.8652C93.8125 61.6973 93.5625 61.4727 93.3828 61.1914C93.207 60.9062 93.1191 60.5879 93.1191 60.2363C93.1191 59.8965 93.1855 59.5977 93.3184 59.3398C93.4512 59.0781 93.6426 58.8613 93.8926 58.6895C94.1426 58.5137 94.4434 58.3809 94.7949 58.291C95.1465 58.2012 95.5391 58.1562 95.9727 58.1562H97.2324ZM100.918 57.0137V62H99.834V55.6602H100.859L100.918 57.0137ZM100.66 58.5898L100.209 58.5723C100.213 58.1387 100.277 57.7383 100.402 57.3711C100.527 57 100.703 56.6777 100.93 56.4043C101.156 56.1309 101.426 55.9199 101.738 55.7715C102.055 55.6191 102.404 55.543 102.787 55.543C103.1 55.543 103.381 55.5859 103.631 55.6719C103.881 55.7539 104.094 55.8867 104.27 56.0703C104.449 56.2539 104.586 56.4922 104.68 56.7852C104.773 57.0742 104.82 57.4277 104.82 57.8457V62H103.73V57.834C103.73 57.502 103.682 57.2363 103.584 57.0371C103.486 56.834 103.344 56.6875 103.156 56.5977C102.969 56.5039 102.738 56.457 102.465 56.457C102.195 56.457 101.949 56.5137 101.727 56.627C101.508 56.7402 101.318 56.8965 101.158 57.0957C101.002 57.2949 100.879 57.5234 100.789 57.7812C100.703 58.0352 100.66 58.3047 100.66 58.5898ZM109.098 62.1172C108.656 62.1172 108.256 62.043 107.896 61.8945C107.541 61.7422 107.234 61.5293 106.977 61.2559C106.723 60.9824 106.527 60.6582 106.391 60.2832C106.254 59.9082 106.186 59.498 106.186 59.0527V58.8066C106.186 58.291 106.262 57.832 106.414 57.4297C106.566 57.0234 106.773 56.6797 107.035 56.3984C107.297 56.1172 107.594 55.9043 107.926 55.7598C108.258 55.6152 108.602 55.543 108.957 55.543C109.41 55.543 109.801 55.6211 110.129 55.7773C110.461 55.9336 110.732 56.1523 110.943 56.4336C111.154 56.7109 111.311 57.0391 111.412 57.418C111.514 57.793 111.564 58.2031 111.564 58.6484V59.1348H106.83V58.25H110.48V58.168C110.465 57.8867 110.406 57.6133 110.305 57.3477C110.207 57.082 110.051 56.8633 109.836 56.6914C109.621 56.5195 109.328 56.4336 108.957 56.4336C108.711 56.4336 108.484 56.4863 108.277 56.5918C108.07 56.6934 107.893 56.8457 107.744 57.0488C107.596 57.252 107.48 57.5 107.398 57.793C107.316 58.0859 107.275 58.4238 107.275 58.8066V59.0527C107.275 59.3535 107.316 59.6367 107.398 59.9023C107.484 60.1641 107.607 60.3945 107.768 60.5938C107.932 60.793 108.129 60.9492 108.359 61.0625C108.594 61.1758 108.859 61.2324 109.156 61.2324C109.539 61.2324 109.863 61.1543 110.129 60.998C110.395 60.8418 110.627 60.6328 110.826 60.3711L111.482 60.8926C111.346 61.0996 111.172 61.2969 110.961 61.4844C110.75 61.6719 110.49 61.8242 110.182 61.9414C109.877 62.0586 109.516 62.1172 109.098 62.1172ZM114.008 53V62H112.918V53H114.008Z"/><path fill="#fff" d="M43.1484 155.225L40.3242 163H39.1699L42.4219 154.469H43.166L43.1484 155.225ZM45.5156 163L42.6855 155.225L42.668 154.469H43.4121L46.6758 163H45.5156ZM45.3691 159.842V160.768H40.5762V159.842H45.3691ZM50.1914 162.227C50.4492 162.227 50.6875 162.174 50.9062 162.068C51.125 161.963 51.3047 161.818 51.4453 161.635C51.5859 161.447 51.666 161.234 51.6855 160.996H52.7168C52.6973 161.371 52.5703 161.721 52.3359 162.045C52.1055 162.365 51.8027 162.625 51.4277 162.824C51.0527 163.02 50.6406 163.117 50.1914 163.117C49.7148 163.117 49.2988 163.033 48.9434 162.865C48.5918 162.697 48.2988 162.467 48.0645 162.174C47.834 161.881 47.6602 161.545 47.543 161.166C47.4297 160.783 47.373 160.379 47.373 159.953V159.707C47.373 159.281 47.4297 158.879 47.543 158.5C47.6602 158.117 47.834 157.779 48.0645 157.486C48.2988 157.193 48.5918 156.963 48.9434 156.795C49.2988 156.627 49.7148 156.543 50.1914 156.543C50.6875 156.543 51.1211 156.645 51.4922 156.848C51.8633 157.047 52.1543 157.32 52.3652 157.668C52.5801 158.012 52.6973 158.402 52.7168 158.84H51.6855C51.666 158.578 51.5918 158.342 51.4629 158.131C51.3379 157.92 51.166 157.752 50.9473 157.627C50.7324 157.498 50.4805 157.434 50.1914 157.434C49.8594 157.434 49.5801 157.5 49.3535 157.633C49.1309 157.762 48.9531 157.938 48.8203 158.16C48.6914 158.379 48.5977 158.623 48.5391 158.893C48.4844 159.158 48.457 159.43 48.457 159.707V159.953C48.457 160.23 48.4844 160.504 48.5391 160.773C48.5938 161.043 48.6855 161.287 48.8145 161.506C48.9473 161.725 49.125 161.9 49.3477 162.033C49.5742 162.162 49.8555 162.227 50.1914 162.227ZM56.4727 162.227C56.7305 162.227 56.9688 162.174 57.1875 162.068C57.4062 161.963 57.5859 161.818 57.7266 161.635C57.8672 161.447 57.9473 161.234 57.9668 160.996H58.998C58.9785 161.371 58.8516 161.721 58.6172 162.045C58.3867 162.365 58.084 162.625 57.709 162.824C57.334 163.02 56.9219 163.117 56.4727 163.117C55.9961 163.117 55.5801 163.033 55.2246 162.865C54.873 162.697 54.5801 162.467 54.3457 162.174C54.1152 161.881 53.9414 161.545 53.8242 161.166C53.7109 160.783 53.6543 160.379 53.6543 159.953V159.707C53.6543 159.281 53.7109 158.879 53.8242 158.5C53.9414 158.117 54.1152 157.779 54.3457 157.486C54.5801 157.193 54.873 156.963 55.2246 156.795C55.5801 156.627 55.9961 156.543 56.4727 156.543C56.9688 156.543 57.4023 156.645 57.7734 156.848C58.1445 157.047 58.4355 157.32 58.6465 157.668C58.8613 158.012 58.9785 158.402 58.998 158.84H57.9668C57.9473 158.578 57.873 158.342 57.7441 158.131C57.6191 157.92 57.4473 157.752 57.2285 157.627C57.0137 157.498 56.7617 157.434 56.4727 157.434C56.1406 157.434 55.8613 157.5 55.6348 157.633C55.4121 157.762 55.2344 157.938 55.1016 158.16C54.9727 158.379 54.8789 158.623 54.8203 158.893C54.7656 159.158 54.7383 159.43 54.7383 159.707V159.953C54.7383 160.23 54.7656 160.504 54.8203 160.773C54.875 161.043 54.9668 161.287 55.0957 161.506C55.2285 161.725 55.4062 161.9 55.6289 162.033C55.8555 162.162 56.1367 162.227 56.4727 162.227ZM59.9297 159.9V159.766C59.9297 159.309 59.9961 158.885 60.1289 158.494C60.2617 158.1 60.4531 157.758 60.7031 157.469C60.9531 157.176 61.2559 156.949 61.6113 156.789C61.9668 156.625 62.3652 156.543 62.8066 156.543C63.252 156.543 63.6523 156.625 64.0078 156.789C64.3672 156.949 64.6719 157.176 64.9219 157.469C65.1758 157.758 65.3691 158.1 65.502 158.494C65.6348 158.885 65.7012 159.309 65.7012 159.766V159.9C65.7012 160.357 65.6348 160.781 65.502 161.172C65.3691 161.562 65.1758 161.904 64.9219 162.197C64.6719 162.486 64.3691 162.713 64.0137 162.877C63.6621 163.037 63.2637 163.117 62.8184 163.117C62.373 163.117 61.9727 163.037 61.6172 162.877C61.2617 162.713 60.957 162.486 60.7031 162.197C60.4531 161.904 60.2617 161.562 60.1289 161.172C59.9961 160.781 59.9297 160.357 59.9297 159.9ZM61.0137 159.766V159.9C61.0137 160.217 61.0508 160.516 61.125 160.797C61.1992 161.074 61.3105 161.32 61.459 161.535C61.6113 161.75 61.8008 161.92 62.0273 162.045C62.2539 162.166 62.5176 162.227 62.8184 162.227C63.1152 162.227 63.375 162.166 63.5977 162.045C63.8242 161.92 64.0117 161.75 64.1602 161.535C64.3086 161.32 64.4199 161.074 64.4941 160.797C64.5723 160.516 64.6113 160.217 64.6113 159.9V159.766C64.6113 159.453 64.5723 159.158 64.4941 158.881C64.4199 158.6 64.3066 158.352 64.1543 158.137C64.0059 157.918 63.8184 157.746 63.5918 157.621C63.3691 157.496 63.1074 157.434 62.8066 157.434C62.5098 157.434 62.248 157.496 62.0215 157.621C61.7988 157.746 61.6113 157.918 61.459 158.137C61.3105 158.352 61.1992 158.6 61.125 158.881C61.0508 159.158 61.0137 159.453 61.0137 159.766ZM70.9395 161.535V156.66H72.0293V163H70.9922L70.9395 161.535ZM71.1445 160.199L71.5957 160.188C71.5957 160.609 71.5508 161 71.4609 161.359C71.375 161.715 71.2344 162.023 71.0391 162.285C70.8438 162.547 70.5879 162.752 70.2715 162.9C69.9551 163.045 69.5703 163.117 69.1172 163.117C68.8086 163.117 68.5254 163.072 68.2676 162.982C68.0137 162.893 67.7949 162.754 67.6113 162.566C67.4277 162.379 67.2852 162.135 67.1836 161.834C67.0859 161.533 67.0371 161.172 67.0371 160.75V156.66H68.1211V160.762C68.1211 161.047 68.1523 161.283 68.2148 161.471C68.2812 161.654 68.3691 161.801 68.4785 161.91C68.5918 162.016 68.7168 162.09 68.8535 162.133C68.9941 162.176 69.1387 162.197 69.2871 162.197C69.748 162.197 70.1133 162.109 70.3828 161.934C70.6523 161.754 70.8457 161.514 70.9629 161.213C71.084 160.908 71.1445 160.57 71.1445 160.199ZM74.7656 158.014V163H73.6816V156.66H74.707L74.7656 158.014ZM74.5078 159.59L74.0566 159.572C74.0605 159.139 74.125 158.738 74.25 158.371C74.375 158 74.5508 157.678 74.7773 157.404C75.0039 157.131 75.2734 156.92 75.5859 156.771C75.9023 156.619 76.252 156.543 76.6348 156.543C76.9473 156.543 77.2285 156.586 77.4785 156.672C77.7285 156.754 77.9414 156.887 78.1172 157.07C78.2969 157.254 78.4336 157.492 78.5273 157.785C78.6211 158.074 78.668 158.428 78.668 158.846V163H77.5781V158.834C77.5781 158.502 77.5293 158.236 77.4316 158.037C77.334 157.834 77.1914 157.688 77.0039 157.598C76.8164 157.504 76.5859 157.457 76.3125 157.457C76.043 157.457 75.7969 157.514 75.5742 157.627C75.3555 157.74 75.166 157.896 75.0059 158.096C74.8496 158.295 74.7266 158.523 74.6367 158.781C74.5508 159.035 74.5078 159.305 74.5078 159.59ZM82.9688 156.66V157.492H79.541V156.66H82.9688ZM80.7012 155.119H81.7852V161.43C81.7852 161.645 81.8184 161.807 81.8848 161.916C81.9512 162.025 82.0371 162.098 82.1426 162.133C82.248 162.168 82.3613 162.186 82.4824 162.186C82.5723 162.186 82.666 162.178 82.7637 162.162C82.8652 162.143 82.9414 162.127 82.9922 162.115L82.998 163C82.9121 163.027 82.7988 163.053 82.6582 163.076C82.5215 163.104 82.3555 163.117 82.1602 163.117C81.8945 163.117 81.6504 163.064 81.4277 162.959C81.2051 162.854 81.0273 162.678 80.8945 162.432C80.7656 162.182 80.7012 161.846 80.7012 161.424V155.119ZM87.9316 161.318C87.9316 161.162 87.8965 161.018 87.8262 160.885C87.7598 160.748 87.6211 160.625 87.4102 160.516C87.2031 160.402 86.8906 160.305 86.4727 160.223C86.1211 160.148 85.8027 160.061 85.5176 159.959C85.2363 159.857 84.9961 159.734 84.7969 159.59C84.6016 159.445 84.4512 159.275 84.3457 159.08C84.2402 158.885 84.1875 158.656 84.1875 158.395C84.1875 158.145 84.2422 157.908 84.3516 157.686C84.4648 157.463 84.623 157.266 84.8262 157.094C85.0332 156.922 85.2812 156.787 85.5703 156.689C85.8594 156.592 86.1816 156.543 86.5371 156.543C87.0449 156.543 87.4785 156.633 87.8379 156.812C88.1973 156.992 88.4727 157.232 88.6641 157.533C88.8555 157.83 88.9512 158.16 88.9512 158.523H87.8672C87.8672 158.348 87.8145 158.178 87.709 158.014C87.6074 157.846 87.457 157.707 87.2578 157.598C87.0625 157.488 86.8223 157.434 86.5371 157.434C86.2363 157.434 85.9922 157.48 85.8047 157.574C85.6211 157.664 85.4863 157.779 85.4004 157.92C85.3184 158.061 85.2773 158.209 85.2773 158.365C85.2773 158.482 85.2969 158.588 85.3359 158.682C85.3789 158.771 85.4531 158.855 85.5586 158.934C85.6641 159.008 85.8125 159.078 86.0039 159.145C86.1953 159.211 86.4395 159.277 86.7363 159.344C87.2559 159.461 87.6836 159.602 88.0195 159.766C88.3555 159.93 88.6055 160.131 88.7695 160.369C88.9336 160.607 89.0156 160.896 89.0156 161.236C89.0156 161.514 88.957 161.768 88.8398 161.998C88.7266 162.229 88.5605 162.428 88.3418 162.596C88.127 162.76 87.8691 162.889 87.5684 162.982C87.2715 163.072 86.9375 163.117 86.5664 163.117C86.0078 163.117 85.5352 163.018 85.1484 162.818C84.7617 162.619 84.4688 162.361 84.2695 162.045C84.0703 161.729 83.9707 161.395 83.9707 161.043H85.0605C85.0762 161.34 85.1621 161.576 85.3184 161.752C85.4746 161.924 85.666 162.047 85.8926 162.121C86.1191 162.191 86.3438 162.227 86.5664 162.227C86.8633 162.227 87.1113 162.188 87.3105 162.109C87.5137 162.031 87.668 161.924 87.7734 161.787C87.8789 161.65 87.9316 161.494 87.9316 161.318Z"/><rect width="285" height="148" x="28.5" y="141.5" stroke="#606368" rx="7.5"/><rect width="285" height="148" x="28.5" y="141.5" stroke="#606368" rx="7.5"/><rect width="285" height="75" x="172.5" y="51.5" stroke="#606368" rx="7.5"/><rect width="56" height="13" x="188" y="79" fill="#606368" fill-opacity=".39" rx="2"/><path fill="#858585" d="M192.094 72.1914H192.844C192.805 72.5508 192.702 72.8724 192.535 73.1562C192.368 73.4401 192.133 73.6654 191.828 73.832C191.523 73.9961 191.143 74.0781 190.688 74.0781C190.354 74.0781 190.051 74.0156 189.777 73.8906C189.507 73.7656 189.273 73.5885 189.078 73.3594C188.883 73.1276 188.732 72.8503 188.625 72.5273C188.521 72.2018 188.469 71.8398 188.469 71.4414V70.875C188.469 70.4766 188.521 70.1159 188.625 69.793C188.732 69.4674 188.884 69.1888 189.082 68.957C189.283 68.7253 189.523 68.5469 189.805 68.4219C190.086 68.2969 190.402 68.2344 190.754 68.2344C191.184 68.2344 191.547 68.3151 191.844 68.4766C192.141 68.638 192.371 68.862 192.535 69.1484C192.702 69.4323 192.805 69.7617 192.844 70.1367H192.094C192.057 69.8711 191.99 69.6432 191.891 69.4531C191.792 69.2604 191.651 69.112 191.469 69.0078C191.286 68.9036 191.048 68.8516 190.754 68.8516C190.501 68.8516 190.279 68.8997 190.086 68.9961C189.896 69.0924 189.736 69.2292 189.605 69.4062C189.478 69.5833 189.382 69.7956 189.316 70.043C189.251 70.2904 189.219 70.5651 189.219 70.8672V71.4414C189.219 71.7201 189.247 71.9818 189.305 72.2266C189.365 72.4714 189.454 72.6862 189.574 72.8711C189.694 73.056 189.846 73.2018 190.031 73.3086C190.216 73.4128 190.435 73.4648 190.688 73.4648C191.008 73.4648 191.263 73.4141 191.453 73.3125C191.643 73.2109 191.786 73.0651 191.883 72.875C191.982 72.6849 192.052 72.457 192.094 72.1914ZM193.57 71.9336V71.8438C193.57 71.5391 193.615 71.2565 193.703 70.9961C193.792 70.7331 193.919 70.5052 194.086 70.3125C194.253 70.1172 194.454 69.9661 194.691 69.8594C194.928 69.75 195.194 69.6953 195.488 69.6953C195.785 69.6953 196.052 69.75 196.289 69.8594C196.529 69.9661 196.732 70.1172 196.898 70.3125C197.068 70.5052 197.197 70.7331 197.285 70.9961C197.374 71.2565 197.418 71.5391 197.418 71.8438V71.9336C197.418 72.2383 197.374 72.5208 197.285 72.7812C197.197 73.0417 197.068 73.2695 196.898 73.4648C196.732 73.6576 196.53 73.8086 196.293 73.918C196.059 74.0247 195.793 74.0781 195.496 74.0781C195.199 74.0781 194.932 74.0247 194.695 73.918C194.458 73.8086 194.255 73.6576 194.086 73.4648C193.919 73.2695 193.792 73.0417 193.703 72.7812C193.615 72.5208 193.57 72.2383 193.57 71.9336ZM194.293 71.8438V71.9336C194.293 72.1445 194.318 72.3438 194.367 72.5312C194.417 72.7161 194.491 72.8802 194.59 73.0234C194.691 73.1667 194.818 73.2799 194.969 73.3633C195.12 73.444 195.296 73.4844 195.496 73.4844C195.694 73.4844 195.867 73.444 196.016 73.3633C196.167 73.2799 196.292 73.1667 196.391 73.0234C196.49 72.8802 196.564 72.7161 196.613 72.5312C196.665 72.3438 196.691 72.1445 196.691 71.9336V71.8438C196.691 71.6354 196.665 71.4388 196.613 71.2539C196.564 71.0664 196.488 70.901 196.387 70.7578C196.288 70.612 196.163 70.4974 196.012 70.4141C195.863 70.3307 195.689 70.2891 195.488 70.2891C195.29 70.2891 195.116 70.3307 194.965 70.4141C194.816 70.4974 194.691 70.612 194.59 70.7578C194.491 70.901 194.417 71.0664 194.367 71.2539C194.318 71.4388 194.293 71.6354 194.293 71.8438ZM199.043 70.6133V74H198.316V69.7734H199.004L199.043 70.6133ZM198.895 71.7266L198.559 71.7148C198.561 71.4258 198.599 71.1589 198.672 70.9141C198.745 70.6667 198.853 70.4518 198.996 70.2695C199.139 70.0872 199.318 69.9466 199.531 69.8477C199.745 69.7461 199.992 69.6953 200.273 69.6953C200.471 69.6953 200.654 69.724 200.82 69.7812C200.987 69.8359 201.132 69.9232 201.254 70.043C201.376 70.1628 201.471 70.3164 201.539 70.5039C201.607 70.6914 201.641 70.918 201.641 71.1836V74H200.918V71.2188C200.918 70.9974 200.88 70.8203 200.805 70.6875C200.732 70.5547 200.628 70.4583 200.492 70.3984C200.357 70.3359 200.198 70.3047 200.016 70.3047C199.802 70.3047 199.624 70.3424 199.48 70.418C199.337 70.4935 199.223 70.5977 199.137 70.7305C199.051 70.8633 198.988 71.0156 198.949 71.1875C198.913 71.3568 198.895 71.5365 198.895 71.7266ZM201.633 71.3281L201.148 71.4766C201.151 71.2448 201.189 71.0221 201.262 70.8086C201.337 70.5951 201.445 70.4049 201.586 70.2383C201.729 70.0716 201.905 69.9401 202.113 69.8438C202.322 69.7448 202.56 69.6953 202.828 69.6953C203.055 69.6953 203.255 69.7253 203.43 69.7852C203.607 69.8451 203.755 69.9375 203.875 70.0625C203.997 70.1849 204.09 70.3424 204.152 70.5352C204.215 70.7279 204.246 70.957 204.246 71.2227V74H203.52V71.2148C203.52 70.9779 203.482 70.7943 203.406 70.6641C203.333 70.5312 203.229 70.4388 203.094 70.3867C202.961 70.332 202.802 70.3047 202.617 70.3047C202.458 70.3047 202.318 70.332 202.195 70.3867C202.073 70.4414 201.97 70.5169 201.887 70.6133C201.803 70.707 201.74 70.8151 201.695 70.9375C201.654 71.0599 201.633 71.1901 201.633 71.3281ZM206.062 70.5859V75.625H205.336V69.7734H206L206.062 70.5859ZM208.91 71.8516V71.9336C208.91 72.2409 208.874 72.526 208.801 72.7891C208.728 73.0495 208.621 73.276 208.48 73.4688C208.342 73.6615 208.172 73.8112 207.969 73.918C207.766 74.0247 207.533 74.0781 207.27 74.0781C207.001 74.0781 206.764 74.0339 206.559 73.9453C206.353 73.8568 206.178 73.7279 206.035 73.5586C205.892 73.3893 205.777 73.1862 205.691 72.9492C205.608 72.7122 205.551 72.4453 205.52 72.1484V71.7109C205.551 71.3984 205.609 71.1185 205.695 70.8711C205.781 70.6237 205.895 70.4128 206.035 70.2383C206.178 70.0612 206.352 69.9271 206.555 69.8359C206.758 69.7422 206.992 69.6953 207.258 69.6953C207.523 69.6953 207.759 69.7474 207.965 69.8516C208.171 69.9531 208.344 70.099 208.484 70.2891C208.625 70.4792 208.73 70.707 208.801 70.9727C208.874 71.2357 208.91 71.5286 208.91 71.8516ZM208.184 71.9336V71.8516C208.184 71.6406 208.161 71.4427 208.117 71.2578C208.073 71.0703 208.004 70.9062 207.91 70.7656C207.819 70.6224 207.702 70.5104 207.559 70.4297C207.415 70.3464 207.245 70.3047 207.047 70.3047C206.865 70.3047 206.706 70.3359 206.57 70.3984C206.438 70.4609 206.324 70.5456 206.23 70.6523C206.137 70.7565 206.06 70.8763 206 71.0117C205.943 71.1445 205.9 71.2826 205.871 71.4258V72.4375C205.923 72.6198 205.996 72.7917 206.09 72.9531C206.184 73.112 206.309 73.2409 206.465 73.3398C206.621 73.4362 206.818 73.4844 207.055 73.4844C207.25 73.4844 207.418 73.444 207.559 73.3633C207.702 73.2799 207.819 73.1667 207.91 73.0234C208.004 72.8802 208.073 72.7161 208.117 72.5312C208.161 72.3438 208.184 72.1445 208.184 71.9336ZM212.324 73.2773V71.1016C212.324 70.9349 212.29 70.7904 212.223 70.668C212.158 70.543 212.059 70.4466 211.926 70.3789C211.793 70.3112 211.629 70.2773 211.434 70.2773C211.251 70.2773 211.091 70.3086 210.953 70.3711C210.818 70.4336 210.711 70.5156 210.633 70.6172C210.557 70.7188 210.52 70.8281 210.52 70.9453H209.797C209.797 70.7943 209.836 70.6445 209.914 70.4961C209.992 70.3477 210.104 70.2135 210.25 70.0938C210.398 69.9714 210.576 69.875 210.781 69.8047C210.99 69.7318 211.221 69.6953 211.477 69.6953C211.784 69.6953 212.055 69.7474 212.289 69.8516C212.526 69.9557 212.711 70.1133 212.844 70.3242C212.979 70.5326 213.047 70.7943 213.047 71.1094V73.0781C213.047 73.2188 213.059 73.3685 213.082 73.5273C213.108 73.6862 213.146 73.8229 213.195 73.9375V74H212.441C212.405 73.9167 212.376 73.806 212.355 73.668C212.335 73.5273 212.324 73.3971 212.324 73.2773ZM212.449 71.4375L212.457 71.9453H211.727C211.521 71.9453 211.337 71.9622 211.176 71.9961C211.014 72.0273 210.879 72.0755 210.77 72.1406C210.66 72.2057 210.577 72.2878 210.52 72.3867C210.462 72.4831 210.434 72.5964 210.434 72.7266C210.434 72.8594 210.464 72.9805 210.523 73.0898C210.583 73.1992 210.673 73.2865 210.793 73.3516C210.915 73.4141 211.065 73.4453 211.242 73.4453C211.464 73.4453 211.659 73.3984 211.828 73.3047C211.997 73.2109 212.132 73.0964 212.23 72.9609C212.332 72.8255 212.387 72.694 212.395 72.5664L212.703 72.9141C212.685 73.0234 212.635 73.1445 212.555 73.2773C212.474 73.4102 212.366 73.5378 212.23 73.6602C212.098 73.7799 211.939 73.8802 211.754 73.9609C211.572 74.0391 211.366 74.0781 211.137 74.0781C210.85 74.0781 210.599 74.0221 210.383 73.9102C210.169 73.7982 210.003 73.6484 209.883 73.4609C209.766 73.2708 209.707 73.0586 209.707 72.8242C209.707 72.5977 209.751 72.3984 209.84 72.2266C209.928 72.0521 210.056 71.9076 210.223 71.793C210.389 71.6758 210.59 71.5872 210.824 71.5273C211.059 71.4674 211.32 71.4375 211.609 71.4375H212.449ZM214.906 70.6758V74H214.184V69.7734H214.867L214.906 70.6758ZM214.734 71.7266L214.434 71.7148C214.436 71.4258 214.479 71.1589 214.562 70.9141C214.646 70.6667 214.763 70.4518 214.914 70.2695C215.065 70.0872 215.245 69.9466 215.453 69.8477C215.664 69.7461 215.897 69.6953 216.152 69.6953C216.361 69.6953 216.548 69.724 216.715 69.7812C216.882 69.8359 217.023 69.9245 217.141 70.0469C217.26 70.1693 217.352 70.3281 217.414 70.5234C217.477 70.7161 217.508 70.9518 217.508 71.2305V74H216.781V71.2227C216.781 71.0013 216.749 70.8242 216.684 70.6914C216.618 70.556 216.523 70.4583 216.398 70.3984C216.273 70.3359 216.12 70.3047 215.938 70.3047C215.758 70.3047 215.594 70.3424 215.445 70.418C215.299 70.4935 215.173 70.5977 215.066 70.7305C214.962 70.8633 214.88 71.0156 214.82 71.1875C214.763 71.3568 214.734 71.5365 214.734 71.7266ZM219.793 73.5625L220.969 69.7734H221.742L220.047 74.6523C220.008 74.7565 219.956 74.8685 219.891 74.9883C219.828 75.1107 219.747 75.2266 219.648 75.3359C219.549 75.4453 219.43 75.5339 219.289 75.6016C219.151 75.6719 218.986 75.707 218.793 75.707C218.736 75.707 218.663 75.6992 218.574 75.6836C218.486 75.668 218.423 75.6549 218.387 75.6445L218.383 75.0586C218.404 75.0612 218.436 75.0638 218.48 75.0664C218.527 75.0716 218.56 75.0742 218.578 75.0742C218.742 75.0742 218.882 75.0521 218.996 75.0078C219.111 74.9661 219.207 74.8945 219.285 74.793C219.366 74.694 219.435 74.5573 219.492 74.3828L219.793 73.5625ZM218.93 69.7734L220.027 73.0547L220.215 73.8164L219.695 74.082L218.141 69.7734H218.93Z"/><path fill="#858585" d="M252.758 71.7695H251.238V71.1562H252.758C253.052 71.1562 253.29 71.1094 253.473 71.0156C253.655 70.9219 253.788 70.7917 253.871 70.625C253.957 70.4583 254 70.2682 254 70.0547C254 69.8594 253.957 69.6758 253.871 69.5039C253.788 69.332 253.655 69.194 253.473 69.0898C253.29 68.9831 253.052 68.9297 252.758 68.9297H251.414V74H250.66V68.3125H252.758C253.188 68.3125 253.551 68.3867 253.848 68.5352C254.145 68.6836 254.37 68.8893 254.523 69.1523C254.677 69.4128 254.754 69.7109 254.754 70.0469C254.754 70.4115 254.677 70.7227 254.523 70.9805C254.37 71.2383 254.145 71.4349 253.848 71.5703C253.551 71.7031 253.188 71.7695 252.758 71.7695ZM256.383 68V74H255.656V68H256.383ZM260.035 73.2773V71.1016C260.035 70.9349 260.001 70.7904 259.934 70.668C259.868 70.543 259.77 70.4466 259.637 70.3789C259.504 70.3112 259.34 70.2773 259.145 70.2773C258.962 70.2773 258.802 70.3086 258.664 70.3711C258.529 70.4336 258.422 70.5156 258.344 70.6172C258.268 70.7188 258.23 70.8281 258.23 70.9453H257.508C257.508 70.7943 257.547 70.6445 257.625 70.4961C257.703 70.3477 257.815 70.2135 257.961 70.0938C258.109 69.9714 258.286 69.875 258.492 69.8047C258.701 69.7318 258.932 69.6953 259.188 69.6953C259.495 69.6953 259.766 69.7474 260 69.8516C260.237 69.9557 260.422 70.1133 260.555 70.3242C260.69 70.5326 260.758 70.7943 260.758 71.1094V73.0781C260.758 73.2188 260.77 73.3685 260.793 73.5273C260.819 73.6862 260.857 73.8229 260.906 73.9375V74H260.152C260.116 73.9167 260.087 73.806 260.066 73.668C260.046 73.5273 260.035 73.3971 260.035 73.2773ZM260.16 71.4375L260.168 71.9453H259.438C259.232 71.9453 259.048 71.9622 258.887 71.9961C258.725 72.0273 258.59 72.0755 258.48 72.1406C258.371 72.2057 258.288 72.2878 258.23 72.3867C258.173 72.4831 258.145 72.5964 258.145 72.7266C258.145 72.8594 258.174 72.9805 258.234 73.0898C258.294 73.1992 258.384 73.2865 258.504 73.3516C258.626 73.4141 258.776 73.4453 258.953 73.4453C259.174 73.4453 259.37 73.3984 259.539 73.3047C259.708 73.2109 259.842 73.0964 259.941 72.9609C260.043 72.8255 260.098 72.694 260.105 72.5664L260.414 72.9141C260.396 73.0234 260.346 73.1445 260.266 73.2773C260.185 73.4102 260.077 73.5378 259.941 73.6602C259.809 73.7799 259.65 73.8802 259.465 73.9609C259.283 74.0391 259.077 74.0781 258.848 74.0781C258.561 74.0781 258.31 74.0221 258.094 73.9102C257.88 73.7982 257.714 73.6484 257.594 73.4609C257.477 73.2708 257.418 73.0586 257.418 72.8242C257.418 72.5977 257.462 72.3984 257.551 72.2266C257.639 72.0521 257.767 71.9076 257.934 71.793C258.1 71.6758 258.301 71.5872 258.535 71.5273C258.77 71.4674 259.031 71.4375 259.32 71.4375H260.16ZM262.617 70.6758V74H261.895V69.7734H262.578L262.617 70.6758ZM262.445 71.7266L262.145 71.7148C262.147 71.4258 262.19 71.1589 262.273 70.9141C262.357 70.6667 262.474 70.4518 262.625 70.2695C262.776 70.0872 262.956 69.9466 263.164 69.8477C263.375 69.7461 263.608 69.6953 263.863 69.6953C264.072 69.6953 264.259 69.724 264.426 69.7812C264.592 69.8359 264.734 69.9245 264.852 70.0469C264.971 70.1693 265.062 70.3281 265.125 70.5234C265.188 70.7161 265.219 70.9518 265.219 71.2305V74H264.492V71.2227C264.492 71.0013 264.46 70.8242 264.395 70.6914C264.329 70.556 264.234 70.4583 264.109 70.3984C263.984 70.3359 263.831 70.3047 263.648 70.3047C263.469 70.3047 263.305 70.3424 263.156 70.418C263.01 70.4935 262.884 70.5977 262.777 70.7305C262.673 70.8633 262.591 71.0156 262.531 71.1875C262.474 71.3568 262.445 71.5365 262.445 71.7266Z"/><rect width="46" height="13" x="250" y="79" fill="#606368" fill-opacity=".39" rx="2"/><path stroke="#606368" stroke-width=".8" d="M288 84L290 87L292 84"/><path fill="#858585" d="M304.199 74H303.012L303.02 73.3867H304.199C304.605 73.3867 304.944 73.3021 305.215 73.1328C305.486 72.9609 305.689 72.7214 305.824 72.4141C305.962 72.1042 306.031 71.7422 306.031 71.3281V70.9805C306.031 70.6549 305.992 70.3659 305.914 70.1133C305.836 69.8581 305.721 69.6432 305.57 69.4688C305.419 69.2917 305.234 69.1576 305.016 69.0664C304.799 68.9753 304.551 68.9297 304.27 68.9297H302.988V68.3125H304.27C304.642 68.3125 304.982 68.375 305.289 68.5C305.596 68.6224 305.861 68.8008 306.082 69.0352C306.306 69.2669 306.478 69.5482 306.598 69.8789C306.717 70.207 306.777 70.5768 306.777 70.9883V71.3281C306.777 71.7396 306.717 72.1107 306.598 72.4414C306.478 72.7695 306.305 73.0495 306.078 73.2812C305.854 73.513 305.583 73.6914 305.266 73.8164C304.951 73.9388 304.595 74 304.199 74ZM303.414 68.3125V74H302.66V68.3125H303.414ZM309.555 74.0781C309.26 74.0781 308.993 74.0286 308.754 73.9297C308.517 73.8281 308.312 73.6862 308.141 73.5039C307.971 73.3216 307.841 73.1055 307.75 72.8555C307.659 72.6055 307.613 72.332 307.613 72.0352V71.8711C307.613 71.5273 307.664 71.2214 307.766 70.9531C307.867 70.6823 308.005 70.4531 308.18 70.2656C308.354 70.0781 308.552 69.9362 308.773 69.8398C308.995 69.7435 309.224 69.6953 309.461 69.6953C309.763 69.6953 310.023 69.7474 310.242 69.8516C310.464 69.9557 310.645 70.1016 310.785 70.2891C310.926 70.474 311.03 70.6927 311.098 70.9453C311.165 71.1953 311.199 71.4688 311.199 71.7656V72.0898H308.043V71.5H310.477V71.4453C310.466 71.2578 310.427 71.0755 310.359 70.8984C310.294 70.7214 310.19 70.5755 310.047 70.4609C309.904 70.3464 309.708 70.2891 309.461 70.2891C309.297 70.2891 309.146 70.3242 309.008 70.3945C308.87 70.4622 308.751 70.5638 308.652 70.6992C308.553 70.8346 308.477 71 308.422 71.1953C308.367 71.3906 308.34 71.6159 308.34 71.8711V72.0352C308.34 72.2357 308.367 72.4245 308.422 72.6016C308.479 72.776 308.561 72.9297 308.668 73.0625C308.777 73.1953 308.909 73.2995 309.062 73.375C309.219 73.4505 309.396 73.4883 309.594 73.4883C309.849 73.4883 310.065 73.4362 310.242 73.332C310.419 73.2279 310.574 73.0885 310.707 72.9141L311.145 73.2617C311.053 73.3997 310.938 73.5312 310.797 73.6562C310.656 73.7812 310.483 73.8828 310.277 73.9609C310.074 74.0391 309.833 74.0781 309.555 74.0781ZM314.504 72.8789C314.504 72.7747 314.48 72.6784 314.434 72.5898C314.389 72.4987 314.297 72.4167 314.156 72.3438C314.018 72.2682 313.81 72.2031 313.531 72.1484C313.297 72.099 313.085 72.0404 312.895 71.9727C312.707 71.9049 312.547 71.8229 312.414 71.7266C312.284 71.6302 312.184 71.5169 312.113 71.3867C312.043 71.2565 312.008 71.1042 312.008 70.9297C312.008 70.763 312.044 70.6055 312.117 70.457C312.193 70.3086 312.298 70.1771 312.434 70.0625C312.572 69.9479 312.737 69.8581 312.93 69.793C313.122 69.7279 313.337 69.6953 313.574 69.6953C313.913 69.6953 314.202 69.7552 314.441 69.875C314.681 69.9948 314.865 70.1549 314.992 70.3555C315.12 70.5534 315.184 70.7734 315.184 71.0156H314.461C314.461 70.8984 314.426 70.7852 314.355 70.6758C314.288 70.5638 314.188 70.4714 314.055 70.3984C313.924 70.3255 313.764 70.2891 313.574 70.2891C313.374 70.2891 313.211 70.3203 313.086 70.3828C312.964 70.4427 312.874 70.5195 312.816 70.6133C312.762 70.707 312.734 70.806 312.734 70.9102C312.734 70.9883 312.747 71.0586 312.773 71.1211C312.802 71.181 312.852 71.237 312.922 71.2891C312.992 71.3385 313.091 71.3854 313.219 71.4297C313.346 71.474 313.509 71.5182 313.707 71.5625C314.053 71.6406 314.339 71.7344 314.562 71.8438C314.786 71.9531 314.953 72.0872 315.062 72.2461C315.172 72.4049 315.227 72.5977 315.227 72.8242C315.227 73.0091 315.188 73.1784 315.109 73.332C315.034 73.4857 314.923 73.6185 314.777 73.7305C314.634 73.8398 314.462 73.9258 314.262 73.9883C314.064 74.0482 313.841 74.0781 313.594 74.0781C313.221 74.0781 312.906 74.0117 312.648 73.8789C312.391 73.7461 312.195 73.5742 312.062 73.3633C311.93 73.1523 311.863 72.9297 311.863 72.6953H312.59C312.6 72.8932 312.658 73.0508 312.762 73.168C312.866 73.2826 312.993 73.3646 313.145 73.4141C313.296 73.4609 313.445 73.4844 313.594 73.4844C313.792 73.4844 313.957 73.4583 314.09 73.4062C314.225 73.3542 314.328 73.2826 314.398 73.1914C314.469 73.1003 314.504 72.9961 314.504 72.8789ZM317.867 73.4844C318.039 73.4844 318.198 73.4492 318.344 73.3789C318.49 73.3086 318.609 73.2122 318.703 73.0898C318.797 72.9648 318.85 72.8229 318.863 72.6641H319.551C319.538 72.9141 319.453 73.1471 319.297 73.3633C319.143 73.5768 318.941 73.75 318.691 73.8828C318.441 74.013 318.167 74.0781 317.867 74.0781C317.549 74.0781 317.272 74.0221 317.035 73.9102C316.801 73.7982 316.605 73.6445 316.449 73.4492C316.296 73.2539 316.18 73.0299 316.102 72.7773C316.026 72.5221 315.988 72.2526 315.988 71.9688V71.8047C315.988 71.5208 316.026 71.2526 316.102 71C316.18 70.7448 316.296 70.5195 316.449 70.3242C316.605 70.1289 316.801 69.9753 317.035 69.8633C317.272 69.7513 317.549 69.6953 317.867 69.6953C318.198 69.6953 318.487 69.763 318.734 69.8984C318.982 70.0312 319.176 70.2135 319.316 70.4453C319.46 70.6745 319.538 70.9349 319.551 71.2266H318.863C318.85 71.0521 318.801 70.8945 318.715 70.7539C318.632 70.6133 318.517 70.5013 318.371 70.418C318.228 70.332 318.06 70.2891 317.867 70.2891C317.646 70.2891 317.46 70.3333 317.309 70.4219C317.16 70.5078 317.042 70.625 316.953 70.7734C316.867 70.9193 316.805 71.082 316.766 71.2617C316.729 71.4388 316.711 71.6198 316.711 71.8047V71.9688C316.711 72.1536 316.729 72.3359 316.766 72.5156C316.802 72.6953 316.863 72.8581 316.949 73.0039C317.038 73.1497 317.156 73.2669 317.305 73.3555C317.456 73.4414 317.643 73.4844 317.867 73.4844ZM321.086 70.4375V74H320.363V69.7734H321.066L321.086 70.4375ZM322.406 69.75L322.402 70.4219C322.342 70.4089 322.285 70.401 322.23 70.3984C322.178 70.3932 322.118 70.3906 322.051 70.3906C321.884 70.3906 321.737 70.4167 321.609 70.4688C321.482 70.5208 321.374 70.5938 321.285 70.6875C321.197 70.7812 321.126 70.8932 321.074 71.0234C321.025 71.151 320.992 71.2917 320.977 71.4453L320.773 71.5625C320.773 71.3073 320.798 71.0677 320.848 70.8438C320.9 70.6198 320.979 70.4219 321.086 70.25C321.193 70.0755 321.328 69.9401 321.492 69.8438C321.659 69.7448 321.857 69.6953 322.086 69.6953C322.138 69.6953 322.198 69.7018 322.266 69.7148C322.333 69.7253 322.38 69.737 322.406 69.75ZM323.859 69.7734V74H323.133V69.7734H323.859ZM323.078 68.6523C323.078 68.5352 323.113 68.4362 323.184 68.3555C323.257 68.2747 323.363 68.2344 323.504 68.2344C323.642 68.2344 323.747 68.2747 323.82 68.3555C323.896 68.4362 323.934 68.5352 323.934 68.6523C323.934 68.7643 323.896 68.8607 323.82 68.9414C323.747 69.0195 323.642 69.0586 323.504 69.0586C323.363 69.0586 323.257 69.0195 323.184 68.9414C323.113 68.8607 323.078 68.7643 323.078 68.6523ZM325.742 70.5859V75.625H325.016V69.7734H325.68L325.742 70.5859ZM328.59 71.8516V71.9336C328.59 72.2409 328.553 72.526 328.48 72.7891C328.408 73.0495 328.301 73.276 328.16 73.4688C328.022 73.6615 327.852 73.8112 327.648 73.918C327.445 74.0247 327.212 74.0781 326.949 74.0781C326.681 74.0781 326.444 74.0339 326.238 73.9453C326.033 73.8568 325.858 73.7279 325.715 73.5586C325.572 73.3893 325.457 73.1862 325.371 72.9492C325.288 72.7122 325.23 72.4453 325.199 72.1484V71.7109C325.23 71.3984 325.289 71.1185 325.375 70.8711C325.461 70.6237 325.574 70.4128 325.715 70.2383C325.858 70.0612 326.031 69.9271 326.234 69.8359C326.438 69.7422 326.672 69.6953 326.938 69.6953C327.203 69.6953 327.439 69.7474 327.645 69.8516C327.85 69.9531 328.023 70.099 328.164 70.2891C328.305 70.4792 328.41 70.707 328.48 70.9727C328.553 71.2357 328.59 71.5286 328.59 71.8516ZM327.863 71.9336V71.8516C327.863 71.6406 327.841 71.4427 327.797 71.2578C327.753 71.0703 327.684 70.9062 327.59 70.7656C327.499 70.6224 327.382 70.5104 327.238 70.4297C327.095 70.3464 326.924 70.3047 326.727 70.3047C326.544 70.3047 326.385 70.3359 326.25 70.3984C326.117 70.4609 326.004 70.5456 325.91 70.6523C325.816 70.7565 325.74 70.8763 325.68 71.0117C325.622 71.1445 325.579 71.2826 325.551 71.4258V72.4375C325.603 72.6198 325.676 72.7917 325.77 72.9531C325.863 73.112 325.988 73.2409 326.145 73.3398C326.301 73.4362 326.497 73.4844 326.734 73.4844C326.93 73.4844 327.098 73.444 327.238 73.3633C327.382 73.2799 327.499 73.1667 327.59 73.0234C327.684 72.8802 327.753 72.7161 327.797 72.5312C327.841 72.3438 327.863 72.1445 327.863 71.9336ZM331.281 69.7734V70.3281H328.996V69.7734H331.281ZM329.77 68.7461H330.492V72.9531C330.492 73.0964 330.514 73.2044 330.559 73.2773C330.603 73.3503 330.66 73.3984 330.73 73.4219C330.801 73.4453 330.876 73.457 330.957 73.457C331.017 73.457 331.079 73.4518 331.145 73.4414C331.212 73.4284 331.263 73.418 331.297 73.4102L331.301 74C331.243 74.0182 331.168 74.0352 331.074 74.0508C330.983 74.069 330.872 74.0781 330.742 74.0781C330.565 74.0781 330.402 74.043 330.254 73.9727C330.105 73.9023 329.987 73.7852 329.898 73.6211C329.812 73.4544 329.77 73.2305 329.77 72.9492V68.7461ZM332.914 69.7734V74H332.188V69.7734H332.914ZM332.133 68.6523C332.133 68.5352 332.168 68.4362 332.238 68.3555C332.311 68.2747 332.418 68.2344 332.559 68.2344C332.697 68.2344 332.802 68.2747 332.875 68.3555C332.951 68.4362 332.988 68.5352 332.988 68.6523C332.988 68.7643 332.951 68.8607 332.875 68.9414C332.802 69.0195 332.697 69.0586 332.559 69.0586C332.418 69.0586 332.311 69.0195 332.238 68.9414C332.168 68.8607 332.133 68.7643 332.133 68.6523ZM333.883 71.9336V71.8438C333.883 71.5391 333.927 71.2565 334.016 70.9961C334.104 70.7331 334.232 70.5052 334.398 70.3125C334.565 70.1172 334.767 69.9661 335.004 69.8594C335.241 69.75 335.507 69.6953 335.801 69.6953C336.098 69.6953 336.365 69.75 336.602 69.8594C336.841 69.9661 337.044 70.1172 337.211 70.3125C337.38 70.5052 337.509 70.7331 337.598 70.9961C337.686 71.2565 337.73 71.5391 337.73 71.8438V71.9336C337.73 72.2383 337.686 72.5208 337.598 72.7812C337.509 73.0417 337.38 73.2695 337.211 73.4648C337.044 73.6576 336.842 73.8086 336.605 73.918C336.371 74.0247 336.105 74.0781 335.809 74.0781C335.512 74.0781 335.245 74.0247 335.008 73.918C334.771 73.8086 334.568 73.6576 334.398 73.4648C334.232 73.2695 334.104 73.0417 334.016 72.7812C333.927 72.5208 333.883 72.2383 333.883 71.9336ZM334.605 71.8438V71.9336C334.605 72.1445 334.63 72.3438 334.68 72.5312C334.729 72.7161 334.803 72.8802 334.902 73.0234C335.004 73.1667 335.13 73.2799 335.281 73.3633C335.432 73.444 335.608 73.4844 335.809 73.4844C336.007 73.4844 336.18 73.444 336.328 73.3633C336.479 73.2799 336.604 73.1667 336.703 73.0234C336.802 72.8802 336.876 72.7161 336.926 72.5312C336.978 72.3438 337.004 72.1445 337.004 71.9336V71.8438C337.004 71.6354 336.978 71.4388 336.926 71.2539C336.876 71.0664 336.801 70.901 336.699 70.7578C336.6 70.612 336.475 70.4974 336.324 70.4141C336.176 70.3307 336.001 70.2891 335.801 70.2891C335.603 70.2891 335.428 70.3307 335.277 70.4141C335.129 70.4974 335.004 70.612 334.902 70.7578C334.803 70.901 334.729 71.0664 334.68 71.2539C334.63 71.4388 334.605 71.6354 334.605 71.8438ZM339.359 70.6758V74H338.637V69.7734H339.32L339.359 70.6758ZM339.188 71.7266L338.887 71.7148C338.889 71.4258 338.932 71.1589 339.016 70.9141C339.099 70.6667 339.216 70.4518 339.367 70.2695C339.518 70.0872 339.698 69.9466 339.906 69.8477C340.117 69.7461 340.35 69.6953 340.605 69.6953C340.814 69.6953 341.001 69.724 341.168 69.7812C341.335 69.8359 341.477 69.9245 341.594 70.0469C341.714 70.1693 341.805 70.3281 341.867 70.5234C341.93 70.7161 341.961 70.9518 341.961 71.2305V74H341.234V71.2227C341.234 71.0013 341.202 70.8242 341.137 70.6914C341.072 70.556 340.977 70.4583 340.852 70.3984C340.727 70.3359 340.573 70.3047 340.391 70.3047C340.211 70.3047 340.047 70.3424 339.898 70.418C339.753 70.4935 339.626 70.5977 339.52 70.7305C339.415 70.8633 339.333 71.0156 339.273 71.1875C339.216 71.3568 339.188 71.5365 339.188 71.7266Z"/><rect width="95" height="13" x="302" y="79" fill="#606368" fill-opacity=".39" rx="2"/><path fill="#858585" d="M405.688 71.3398H404.246L404.238 70.7344H405.547C405.763 70.7344 405.952 70.6979 406.113 70.625C406.275 70.5521 406.4 70.4479 406.488 70.3125C406.579 70.1745 406.625 70.0104 406.625 69.8203C406.625 69.612 406.585 69.4427 406.504 69.3125C406.426 69.1797 406.305 69.0833 406.141 69.0234C405.979 68.9609 405.773 68.9297 405.523 68.9297H404.414V74H403.66V68.3125H405.523C405.815 68.3125 406.076 68.3424 406.305 68.4023C406.534 68.4596 406.728 68.5508 406.887 68.6758C407.048 68.7982 407.171 68.9544 407.254 69.1445C407.337 69.3346 407.379 69.5625 407.379 69.8281C407.379 70.0625 407.319 70.2747 407.199 70.4648C407.079 70.6523 406.913 70.806 406.699 70.9258C406.488 71.0456 406.241 71.1224 405.957 71.1562L405.688 71.3398ZM405.652 74H403.949L404.375 73.3867H405.652C405.892 73.3867 406.095 73.3451 406.262 73.2617C406.431 73.1784 406.56 73.0612 406.648 72.9102C406.737 72.7565 406.781 72.5755 406.781 72.3672C406.781 72.1562 406.743 71.974 406.668 71.8203C406.592 71.6667 406.474 71.5482 406.312 71.4648C406.151 71.3815 405.943 71.3398 405.688 71.3398H404.613L404.621 70.7344H406.09L406.25 70.9531C406.523 70.9766 406.755 71.0547 406.945 71.1875C407.135 71.3177 407.28 71.4844 407.379 71.6875C407.48 71.8906 407.531 72.1146 407.531 72.3594C407.531 72.7135 407.453 73.013 407.297 73.2578C407.143 73.5 406.926 73.6849 406.645 73.8125C406.363 73.9375 406.033 74 405.652 74ZM409.32 69.7734V74H408.594V69.7734H409.32ZM408.539 68.6523C408.539 68.5352 408.574 68.4362 408.645 68.3555C408.717 68.2747 408.824 68.2344 408.965 68.2344C409.103 68.2344 409.208 68.2747 409.281 68.3555C409.357 68.4362 409.395 68.5352 409.395 68.6523C409.395 68.7643 409.357 68.8607 409.281 68.9414C409.208 69.0195 409.103 69.0586 408.965 69.0586C408.824 69.0586 408.717 69.0195 408.645 68.9414C408.574 68.8607 408.539 68.7643 408.539 68.6523ZM411.266 68V74H410.539V68H411.266ZM413.211 68V74H412.484V68H413.211ZM415.156 69.7734V74H414.43V69.7734H415.156ZM414.375 68.6523C414.375 68.5352 414.41 68.4362 414.48 68.3555C414.553 68.2747 414.66 68.2344 414.801 68.2344C414.939 68.2344 415.044 68.2747 415.117 68.3555C415.193 68.4362 415.23 68.5352 415.23 68.6523C415.23 68.7643 415.193 68.8607 415.117 68.9414C415.044 69.0195 414.939 69.0586 414.801 69.0586C414.66 69.0586 414.553 69.0195 414.48 68.9414C414.41 68.8607 414.375 68.7643 414.375 68.6523ZM417.039 70.6758V74H416.316V69.7734H417L417.039 70.6758ZM416.867 71.7266L416.566 71.7148C416.569 71.4258 416.612 71.1589 416.695 70.9141C416.779 70.6667 416.896 70.4518 417.047 70.2695C417.198 70.0872 417.378 69.9466 417.586 69.8477C417.797 69.7461 418.03 69.6953 418.285 69.6953C418.493 69.6953 418.681 69.724 418.848 69.7812C419.014 69.8359 419.156 69.9245 419.273 70.0469C419.393 70.1693 419.484 70.3281 419.547 70.5234C419.609 70.7161 419.641 70.9518 419.641 71.2305V74H418.914V71.2227C418.914 71.0013 418.882 70.8242 418.816 70.6914C418.751 70.556 418.656 70.4583 418.531 70.3984C418.406 70.3359 418.253 70.3047 418.07 70.3047C417.891 70.3047 417.727 70.3424 417.578 70.418C417.432 70.4935 417.306 70.5977 417.199 70.7305C417.095 70.8633 417.013 71.0156 416.953 71.1875C416.896 71.3568 416.867 71.5365 416.867 71.7266ZM423.477 69.7734H424.133V73.9102C424.133 74.2826 424.057 74.6003 423.906 74.8633C423.755 75.1263 423.544 75.3255 423.273 75.4609C423.005 75.599 422.695 75.668 422.344 75.668C422.198 75.668 422.026 75.6445 421.828 75.5977C421.633 75.5534 421.44 75.4766 421.25 75.3672C421.062 75.2604 420.905 75.1159 420.777 74.9336L421.156 74.5039C421.333 74.7174 421.518 74.8659 421.711 74.9492C421.906 75.0326 422.099 75.0742 422.289 75.0742C422.518 75.0742 422.716 75.0312 422.883 74.9453C423.049 74.8594 423.178 74.7318 423.27 74.5625C423.363 74.3958 423.41 74.1901 423.41 73.9453V70.7031L423.477 69.7734ZM420.566 71.9336V71.8516C420.566 71.5286 420.604 71.2357 420.68 70.9727C420.758 70.707 420.868 70.4792 421.012 70.2891C421.158 70.099 421.333 69.9531 421.539 69.8516C421.745 69.7474 421.977 69.6953 422.234 69.6953C422.5 69.6953 422.732 69.7422 422.93 69.8359C423.13 69.9271 423.299 70.0612 423.438 70.2383C423.578 70.4128 423.689 70.6237 423.77 70.8711C423.85 71.1185 423.906 71.3984 423.938 71.7109V72.0703C423.909 72.3802 423.853 72.6589 423.77 72.9062C423.689 73.1536 423.578 73.3646 423.438 73.5391C423.299 73.7135 423.13 73.8477 422.93 73.9414C422.729 74.0326 422.495 74.0781 422.227 74.0781C421.974 74.0781 421.745 74.0247 421.539 73.918C421.336 73.8112 421.161 73.6615 421.016 73.4688C420.87 73.276 420.758 73.0495 420.68 72.7891C420.604 72.526 420.566 72.2409 420.566 71.9336ZM421.289 71.8516V71.9336C421.289 72.1445 421.31 72.3424 421.352 72.5273C421.396 72.7122 421.462 72.875 421.551 73.0156C421.642 73.1562 421.758 73.2669 421.898 73.3477C422.039 73.4258 422.207 73.4648 422.402 73.4648C422.642 73.4648 422.84 73.4141 422.996 73.3125C423.152 73.2109 423.276 73.0768 423.367 72.9102C423.461 72.7435 423.534 72.5625 423.586 72.3672V71.4258C423.557 71.2826 423.513 71.1445 423.453 71.0117C423.396 70.8763 423.32 70.7565 423.227 70.6523C423.135 70.5456 423.022 70.4609 422.887 70.3984C422.751 70.3359 422.592 70.3047 422.41 70.3047C422.212 70.3047 422.042 70.3464 421.898 70.4297C421.758 70.5104 421.642 70.6224 421.551 70.7656C421.462 70.9062 421.396 71.0703 421.352 71.2578C421.31 71.4427 421.289 71.6406 421.289 71.8516ZM428.133 68.3125V74H427.379V68.3125H428.133ZM432.059 73.1797V68H432.785V74H432.121L432.059 73.1797ZM429.215 71.9336V71.8516C429.215 71.5286 429.254 71.2357 429.332 70.9727C429.413 70.707 429.526 70.4792 429.672 70.2891C429.82 70.099 429.996 69.9531 430.199 69.8516C430.405 69.7474 430.634 69.6953 430.887 69.6953C431.152 69.6953 431.384 69.7422 431.582 69.8359C431.783 69.9271 431.952 70.0612 432.09 70.2383C432.23 70.4128 432.341 70.6237 432.422 70.8711C432.503 71.1185 432.559 71.3984 432.59 71.7109V72.0703C432.561 72.3802 432.505 72.6589 432.422 72.9062C432.341 73.1536 432.23 73.3646 432.09 73.5391C431.952 73.7135 431.783 73.8477 431.582 73.9414C431.382 74.0326 431.147 74.0781 430.879 74.0781C430.632 74.0781 430.405 74.0247 430.199 73.918C429.996 73.8112 429.82 73.6615 429.672 73.4688C429.526 73.276 429.413 73.0495 429.332 72.7891C429.254 72.526 429.215 72.2409 429.215 71.9336ZM429.941 71.8516V71.9336C429.941 72.1445 429.962 72.3424 430.004 72.5273C430.048 72.7122 430.116 72.875 430.207 73.0156C430.298 73.1562 430.414 73.2669 430.555 73.3477C430.695 73.4258 430.863 73.4648 431.059 73.4648C431.298 73.4648 431.495 73.4141 431.648 73.3125C431.805 73.2109 431.93 73.0768 432.023 72.9102C432.117 72.7435 432.19 72.5625 432.242 72.3672V71.4258C432.211 71.2826 432.165 71.1445 432.105 71.0117C432.048 70.8763 431.973 70.7565 431.879 70.6523C431.788 70.5456 431.674 70.4609 431.539 70.3984C431.406 70.3359 431.249 70.3047 431.066 70.3047C430.868 70.3047 430.698 70.3464 430.555 70.4297C430.414 70.5104 430.298 70.6224 430.207 70.7656C430.116 70.9062 430.048 71.0703 430.004 71.2578C429.962 71.4427 429.941 71.6406 429.941 71.8516Z"/><rect width="38" height="13" x="403" y="79" fill="#606368" fill-opacity=".39" rx="2"/><rect width="40" height="13" x="401" y="102" fill="#0080FF" rx="6.5"/><path fill="#fff" d="M413.945 109.191H414.695C414.656 109.551 414.553 109.872 414.387 110.156C414.22 110.44 413.984 110.665 413.68 110.832C413.375 110.996 412.995 111.078 412.539 111.078C412.206 111.078 411.902 111.016 411.629 110.891C411.358 110.766 411.125 110.589 410.93 110.359C410.734 110.128 410.583 109.85 410.477 109.527C410.372 109.202 410.32 108.84 410.32 108.441V107.875C410.32 107.477 410.372 107.116 410.477 106.793C410.583 106.467 410.736 106.189 410.934 105.957C411.134 105.725 411.375 105.547 411.656 105.422C411.938 105.297 412.254 105.234 412.605 105.234C413.035 105.234 413.398 105.315 413.695 105.477C413.992 105.638 414.223 105.862 414.387 106.148C414.553 106.432 414.656 106.762 414.695 107.137H413.945C413.909 106.871 413.841 106.643 413.742 106.453C413.643 106.26 413.503 106.112 413.32 106.008C413.138 105.904 412.9 105.852 412.605 105.852C412.353 105.852 412.13 105.9 411.938 105.996C411.747 106.092 411.587 106.229 411.457 106.406C411.329 106.583 411.233 106.796 411.168 107.043C411.103 107.29 411.07 107.565 411.07 107.867V108.441C411.07 108.72 411.099 108.982 411.156 109.227C411.216 109.471 411.306 109.686 411.426 109.871C411.546 110.056 411.698 110.202 411.883 110.309C412.068 110.413 412.286 110.465 412.539 110.465C412.859 110.465 413.115 110.414 413.305 110.312C413.495 110.211 413.638 110.065 413.734 109.875C413.833 109.685 413.904 109.457 413.945 109.191ZM416.336 107.438V111H415.613V106.773H416.316L416.336 107.438ZM417.656 106.75L417.652 107.422C417.592 107.409 417.535 107.401 417.48 107.398C417.428 107.393 417.368 107.391 417.301 107.391C417.134 107.391 416.987 107.417 416.859 107.469C416.732 107.521 416.624 107.594 416.535 107.688C416.447 107.781 416.376 107.893 416.324 108.023C416.275 108.151 416.242 108.292 416.227 108.445L416.023 108.562C416.023 108.307 416.048 108.068 416.098 107.844C416.15 107.62 416.229 107.422 416.336 107.25C416.443 107.076 416.578 106.94 416.742 106.844C416.909 106.745 417.107 106.695 417.336 106.695C417.388 106.695 417.448 106.702 417.516 106.715C417.583 106.725 417.63 106.737 417.656 106.75ZM420 111.078C419.706 111.078 419.439 111.029 419.199 110.93C418.962 110.828 418.758 110.686 418.586 110.504C418.417 110.322 418.286 110.105 418.195 109.855C418.104 109.605 418.059 109.332 418.059 109.035V108.871C418.059 108.527 418.109 108.221 418.211 107.953C418.312 107.682 418.451 107.453 418.625 107.266C418.799 107.078 418.997 106.936 419.219 106.84C419.44 106.743 419.669 106.695 419.906 106.695C420.208 106.695 420.469 106.747 420.688 106.852C420.909 106.956 421.09 107.102 421.23 107.289C421.371 107.474 421.475 107.693 421.543 107.945C421.611 108.195 421.645 108.469 421.645 108.766V109.09H418.488V108.5H420.922V108.445C420.911 108.258 420.872 108.076 420.805 107.898C420.74 107.721 420.635 107.576 420.492 107.461C420.349 107.346 420.154 107.289 419.906 107.289C419.742 107.289 419.591 107.324 419.453 107.395C419.315 107.462 419.197 107.564 419.098 107.699C418.999 107.835 418.922 108 418.867 108.195C418.812 108.391 418.785 108.616 418.785 108.871V109.035C418.785 109.236 418.812 109.424 418.867 109.602C418.924 109.776 419.007 109.93 419.113 110.062C419.223 110.195 419.354 110.299 419.508 110.375C419.664 110.451 419.841 110.488 420.039 110.488C420.294 110.488 420.51 110.436 420.688 110.332C420.865 110.228 421.02 110.089 421.152 109.914L421.59 110.262C421.499 110.4 421.383 110.531 421.242 110.656C421.102 110.781 420.928 110.883 420.723 110.961C420.52 111.039 420.279 111.078 420 111.078ZM424.98 110.277V108.102C424.98 107.935 424.947 107.79 424.879 107.668C424.814 107.543 424.715 107.447 424.582 107.379C424.449 107.311 424.285 107.277 424.09 107.277C423.908 107.277 423.747 107.309 423.609 107.371C423.474 107.434 423.367 107.516 423.289 107.617C423.214 107.719 423.176 107.828 423.176 107.945H422.453C422.453 107.794 422.492 107.645 422.57 107.496C422.648 107.348 422.76 107.214 422.906 107.094C423.055 106.971 423.232 106.875 423.438 106.805C423.646 106.732 423.878 106.695 424.133 106.695C424.44 106.695 424.711 106.747 424.945 106.852C425.182 106.956 425.367 107.113 425.5 107.324C425.635 107.533 425.703 107.794 425.703 108.109V110.078C425.703 110.219 425.715 110.368 425.738 110.527C425.764 110.686 425.802 110.823 425.852 110.938V111H425.098C425.061 110.917 425.033 110.806 425.012 110.668C424.991 110.527 424.98 110.397 424.98 110.277ZM425.105 108.438L425.113 108.945H424.383C424.177 108.945 423.993 108.962 423.832 108.996C423.671 109.027 423.535 109.076 423.426 109.141C423.316 109.206 423.233 109.288 423.176 109.387C423.118 109.483 423.09 109.596 423.09 109.727C423.09 109.859 423.12 109.98 423.18 110.09C423.24 110.199 423.329 110.286 423.449 110.352C423.572 110.414 423.721 110.445 423.898 110.445C424.12 110.445 424.315 110.398 424.484 110.305C424.654 110.211 424.788 110.096 424.887 109.961C424.988 109.826 425.043 109.694 425.051 109.566L425.359 109.914C425.341 110.023 425.292 110.145 425.211 110.277C425.13 110.41 425.022 110.538 424.887 110.66C424.754 110.78 424.595 110.88 424.41 110.961C424.228 111.039 424.022 111.078 423.793 111.078C423.507 111.078 423.255 111.022 423.039 110.91C422.826 110.798 422.659 110.648 422.539 110.461C422.422 110.271 422.363 110.059 422.363 109.824C422.363 109.598 422.408 109.398 422.496 109.227C422.585 109.052 422.712 108.908 422.879 108.793C423.046 108.676 423.246 108.587 423.48 108.527C423.715 108.467 423.977 108.438 424.266 108.438H425.105ZM428.609 106.773V107.328H426.324V106.773H428.609ZM427.098 105.746H427.82V109.953C427.82 110.096 427.842 110.204 427.887 110.277C427.931 110.35 427.988 110.398 428.059 110.422C428.129 110.445 428.204 110.457 428.285 110.457C428.345 110.457 428.408 110.452 428.473 110.441C428.54 110.428 428.591 110.418 428.625 110.41L428.629 111C428.572 111.018 428.496 111.035 428.402 111.051C428.311 111.069 428.201 111.078 428.07 111.078C427.893 111.078 427.73 111.043 427.582 110.973C427.434 110.902 427.315 110.785 427.227 110.621C427.141 110.454 427.098 110.23 427.098 109.949V105.746ZM431.211 111.078C430.917 111.078 430.65 111.029 430.41 110.93C430.173 110.828 429.969 110.686 429.797 110.504C429.628 110.322 429.497 110.105 429.406 109.855C429.315 109.605 429.27 109.332 429.27 109.035V108.871C429.27 108.527 429.32 108.221 429.422 107.953C429.523 107.682 429.661 107.453 429.836 107.266C430.01 107.078 430.208 106.936 430.43 106.84C430.651 106.743 430.88 106.695 431.117 106.695C431.419 106.695 431.68 106.747 431.898 106.852C432.12 106.956 432.301 107.102 432.441 107.289C432.582 107.474 432.686 107.693 432.754 107.945C432.822 108.195 432.855 108.469 432.855 108.766V109.09H429.699V108.5H432.133V108.445C432.122 108.258 432.083 108.076 432.016 107.898C431.951 107.721 431.846 107.576 431.703 107.461C431.56 107.346 431.365 107.289 431.117 107.289C430.953 107.289 430.802 107.324 430.664 107.395C430.526 107.462 430.408 107.564 430.309 107.699C430.21 107.835 430.133 108 430.078 108.195C430.023 108.391 429.996 108.616 429.996 108.871V109.035C429.996 109.236 430.023 109.424 430.078 109.602C430.135 109.776 430.217 109.93 430.324 110.062C430.434 110.195 430.565 110.299 430.719 110.375C430.875 110.451 431.052 110.488 431.25 110.488C431.505 110.488 431.721 110.436 431.898 110.332C432.076 110.228 432.23 110.089 432.363 109.914L432.801 110.262C432.71 110.4 432.594 110.531 432.453 110.656C432.312 110.781 432.139 110.883 431.934 110.961C431.73 111.039 431.49 111.078 431.211 111.078Z"/><rect width="42" height="11" x="259" y="151" fill="#606368" fill-opacity=".4" rx="2"/><rect width="284" height="17" x="29" y="193" fill="#222223"/><path stroke="#606368" stroke-width=".8" d="M295 155L297 158L299 155"/><rect width="36" height="7" x="43" y="181" fill="#0080FF" rx="3.5"/><path fill="#D9D9D9" fill-opacity=".4" d="M104 184.5C104 182.567 105.567 181 107.5 181H136.5C138.433 181 140 182.567 140 184.5C140 186.433 138.433 188 136.5 188H107.5C105.567 188 104 186.433 104 184.5Z"/><rect width="79" height="7" x="159" y="181" fill="#D9D9D9" fill-opacity=".4" rx="3.5"/><path stroke="#01E0CB" stroke-width=".5" d="M266 189L276.5 183L287 185.5L292.5 181"/><path stroke="#fff" stroke-width=".2" d="M39 193H303.5"/><rect width="46" height="7" x="43" y="198" fill="#0080FF" rx="3.5"/><path fill="#D9D9D9" fill-opacity=".4" d="M104 201.5C104 199.567 105.567 198 107.5 198H136.5C138.433 198 140 199.567 140 201.5C140 203.433 138.433 205 136.5 205H107.5C105.567 205 104 203.433 104 201.5Z"/><rect width="79" height="7" x="159" y="198" fill="#D9D9D9" fill-opacity=".4" rx="3.5"/><path stroke="#FF3B7C" stroke-width=".5" d="M293.5 206L283 200L272.5 202.5L267 198"/><path stroke="#fff" stroke-width=".2" d="M39 210H303.5"/><rect width="36" height="7" x="43" y="214" fill="#0080FF" rx="3.5"/><path fill="#D9D9D9" fill-opacity=".4" d="M104 217.5C104 215.567 105.567 214 107.5 214H136.5C138.433 214 140 215.567 140 217.5C140 219.433 138.433 221 136.5 221H107.5C105.567 221 104 219.433 104 217.5Z"/><rect width="79" height="7" x="159" y="214" fill="#D9D9D9" fill-opacity=".4" rx="3.5"/><path stroke="#FF3B7C" stroke-width=".5" d="M267 214L277.5 220L288 217.5L293.5 222"/><path stroke="#D9D9D9" stroke-opacity=".4" stroke-width=".2" d="M39 226H303.5"/><rect width="49" height="7" x="43" y="230" fill="#0080FF" rx="3.5"/><path fill="#D9D9D9" fill-opacity=".4" d="M104 233.5C104 231.567 105.567 230 107.5 230H136.5C138.433 230 140 231.567 140 233.5C140 235.433 138.433 237 136.5 237H107.5C105.567 237 104 235.433 104 233.5Z"/><rect width="79" height="7" x="159" y="230" fill="#D9D9D9" fill-opacity=".4" rx="3.5"/><path stroke="#01E0CB" stroke-width=".5" d="M293.5 230L283 236L272.5 233.5L267 238"/><path stroke="#D9D9D9" stroke-opacity=".4" stroke-width=".2" d="M39 242H303.5"/><rect width="36" height="7" x="43" y="247" fill="#0080FF" rx="3.5"/><path fill="#D9D9D9" fill-opacity=".4" d="M104 250.5C104 248.567 105.567 247 107.5 247H136.5C138.433 247 140 248.567 140 250.5C140 252.433 138.433 254 136.5 254H107.5C105.567 254 104 252.433 104 250.5Z"/><rect width="79" height="7" x="159" y="247" fill="#D9D9D9" fill-opacity=".4" rx="3.5"/><path stroke="#01E0CB" stroke-width=".5" d="M266 255L280.5 254L287 251.5L292.5 247"/><path stroke="#D9D9D9" stroke-opacity=".4" stroke-width=".2" d="M39 260H303.5"/><rect width="36" height="7" x="43" y="264" fill="#0080FF" rx="3.5"/><path fill="#D9D9D9" fill-opacity=".4" d="M104 267.5C104 265.567 105.567 264 107.5 264H136.5C138.433 264 140 265.567 140 267.5C140 269.433 138.433 271 136.5 271H107.5C105.567 271 104 269.433 104 267.5Z"/><rect width="79" height="7" x="159" y="264" fill="#D9D9D9" fill-opacity=".4" rx="3.5"/><path stroke="#01E0CB" stroke-width=".5" d="M266 272L270 267.5L288.5 269L292.5 264"/><path stroke="#D9D9D9" stroke-opacity=".4" stroke-width=".2" d="M39 276H303.5"/><path stroke="#D9D9D9" stroke-opacity=".4" stroke-width=".2" d="M39 176H303.5"/><rect width="124" height="148" x="332.5" y="141.5" fill="#222223" stroke="#606368" rx="7.5"/><path fill="#D9D9D9" fill-opacity=".4" d="M389 240.5C389 238.567 390.567 237 392.5 237H421.5C423.433 237 425 238.567 425 240.5C425 242.433 423.433 244 421.5 244H392.5C390.567 244 389 242.433 389 240.5Z"/><rect width="46" height="7" x="389" y="223" fill="#0080FF" rx="3.5"/><path fill="#fff" stroke="#fff" stroke-width=".32" d="M364 229H358V235H364V229Z"/><path fill="#fff" stroke="#fff" stroke-width=".32" d="M358 217H352V223H358V217Z"/><path fill="#fff" stroke="#fff" stroke-width=".32" d="M370 217H364V223H370V217Z"/><path fill="#fff" stroke="#fff" stroke-width=".32" d="M358 235H352V241H358V235Z"/><path fill="#fff" stroke="#fff" stroke-width=".32" d="M370 235H364V241H370V235Z"/><path fill="#fff" stroke="#fff" stroke-width=".32" d="M358 241H352V247H358V241Z"/><path fill="#fff" stroke="#fff" stroke-width=".32" d="M370 241H364V247H370V241Z"/><path fill="#fff" stroke="#fff" stroke-width=".32" d="M352 217H346V223H352V217Z"/><path fill="#fff" stroke="#fff" stroke-width=".32" d="M376 217H370V223H376V217Z"/><path fill="#fff" stroke="#fff" stroke-width=".32" d="M352 229H346V235H352V229Z"/><path fill="#fff" stroke="#fff" stroke-width=".32" d="M376 229H370V235H376V229Z"/><path fill="#fff" stroke="#fff" stroke-width=".32" d="M352 241H346V247H352V241Z"/><path fill="#fff" stroke="#fff" stroke-width=".32" d="M376 241H370V247H376V241Z"/><rect width="102" height="7" x="346" y="257" fill="#606368" rx="3.5"/><rect width="102" height="7" x="346" y="269" fill="#606368" rx="3.5"/><path stroke="#FF3B7C" stroke-width="2" d="M445 194.189L405.377 171.547L365.755 180.981L345 164"/><path stroke="#626262" stroke-width=".2" d="M345 180.32H445"/><path stroke="#626262" stroke-width=".2" d="M345 196.64H445"/><path stroke="#D9D9D9" stroke-opacity=".4" stroke-width=".2" d="M345 164H445"/></svg>