<svg xmlns="http://www.w3.org/2000/svg" width="486" height="300" fill="none" viewBox="0 0 486 300"><path stroke="#61B0FA" stroke-opacity=".5" stroke-width="12" d="M74 195V178C74 161.431 87.4315 148 104 148H158"/><path stroke="#FF3B7C" stroke-opacity=".3" stroke-width="12" d="M65 76.5V101C65 117.569 78.4315 131 95 131H158"/><path stroke="#FFC107" stroke-opacity=".3" stroke-width="12" d="M404 78V107C404 123.569 390.569 137 374 137H318"/><path stroke="#4FE0BF" stroke-opacity=".5" stroke-width="12" d="M348 246H286C269.431 246 256 232.569 256 216V182"/><path fill="#1E1E1E" stroke="#D4D4D4" d="M136.5 86C136.5 84.067 138.067 82.5 140 82.5H322C323.933 82.5 325.5 84.067 325.5 86V195.284C325.5 197.217 323.933 198.784 322 198.784H140C138.067 198.784 136.5 197.217 136.5 195.284V93.9239V86Z"/><ellipse cx="143.819" cy="88.255" fill="#ED6559" rx="2.346" ry="2.346"/><ellipse cx="151.638" cy="88.255" fill="#E1C04C" rx="2.346" ry="2.346"/><ellipse cx="159.457" cy="88.255" fill="#72BE47" rx="2.346" ry="2.346"/><rect width="19.665" height="2.346" x="164.785" y="143.77" fill="#CF666F" rx="1.173"/><rect width="14.652" height="2.346" x="154.374" y="97.638" fill="#BB73D1" rx="1.173"/><rect width="23.135" height="2.346" x="170.954" y="97.638" fill="#E5C07B" rx="1.173"/><rect width="13.11" height="2.346" x="196.017" y="97.638" fill="#BB73D1" rx="1.173"/><rect width="81.743" height="2.346" x="211.055" y="97.638" fill="#7C9D67" rx="1.173"/><rect width="11.567" height="2.346" x="169.798" y="104.284" fill="#E5C07B" rx="1.173"/><rect width="11.567" height="2.346" x="188.691" y="104.284" fill="#CF666F" rx="1.173"/><rect width="25.448" height="2.346" x="201.801" y="104.284" fill="#55B4C0" rx="1.173"/><rect width="19.279" height="2.346" x="240.359" y="104.284" fill="#55B4C0" rx="1.173"/><rect width="4.241" height="2.346" x="182.907" y="104.284" fill="#55B4C0" rx="1.173"/><rect width="10.025" height="2.346" x="228.791" y="104.284" fill="#CF666F" rx="1.173"/><rect width="46.655" height="2.346" x="261.18" y="104.284" fill="#7C9D67" rx="1.173"/><rect width="13.881" height="2.346" x="154.374" y="104.284" fill="#BB73D1" rx="1.173"/><rect width="11.953" height="2.346" x="228.791" y="123.831" fill="#E5C07B" rx="1.173"/><rect width="71.332" height="2.346" x="154.374" y="123.831" fill="#BB73D1" rx="1.173"/><rect width="21.592" height="2.346" x="199.102" y="110.93" fill="#55B4C0" rx="1.173"/><rect width="4.241" height="2.346" x="179.437" y="110.93" fill="#55B4C0" rx="1.173"/><rect width="11.567" height="2.346" x="185.606" y="110.93" fill="#CF666F" rx="1.173"/><rect width="8.483" height="2.346" x="169.026" y="110.93" fill="#E5C07B" rx="1.173"/><rect width="30.846" height="2.346" x="222.622" y="110.93" fill="#7C9D67" rx="1.173"/><rect width="12.724" height="2.346" x="154.374" y="110.93" fill="#BB73D1" rx="1.173"/><rect width="11.567" height="2.346" x="169.236" y="159.188" fill="#E5C07B" rx="1.173"/><rect width="11.567" height="2.346" x="188.129" y="159.188" fill="#CF666F" rx="1.173"/><rect width="25.448" height="2.346" x="201.239" y="159.188" fill="#55B4C0" rx="1.173"/><rect width="19.279" height="2.346" x="239.797" y="159.188" fill="#55B4C0" rx="1.173"/><rect width="4.241" height="2.346" x="182.345" y="159.188" fill="#55B4C0" rx="1.173"/><rect width="10.025" height="2.346" x="228.229" y="159.188" fill="#CF666F" rx="1.173"/><rect width="46.655" height="2.346" x="260.618" y="159.188" fill="#7C9D67" rx="1.173"/><rect width="13.881" height="2.346" x="153.812" y="159.188" fill="#BB73D1" rx="1.173"/><rect width="21.592" height="2.346" x="198.54" y="165.833" fill="#55B4C0" rx="1.173"/><rect width="4.241" height="2.346" x="178.875" y="165.833" fill="#55B4C0" rx="1.173"/><rect width="11.567" height="2.346" x="185.044" y="165.833" fill="#CF666F" rx="1.173"/><rect width="8.483" height="2.346" x="168.464" y="165.833" fill="#E5C07B" rx="1.173"/><rect width="30.846" height="2.346" x="222.06" y="165.833" fill="#7C9D67" rx="1.173"/><rect width="12.724" height="2.346" x="153.812" y="165.833" fill="#BB73D1" rx="1.173"/><rect width="11.567" height="2.346" x="169.236" y="172.25" fill="#E5C07B" rx="1.173"/><rect width="11.567" height="2.346" x="188.129" y="172.25" fill="#CF666F" rx="1.173"/><rect width="25.448" height="2.346" x="201.239" y="172.25" fill="#55B4C0" rx="1.173"/><rect width="19.279" height="2.346" x="239.797" y="172.25" fill="#55B4C0" rx="1.173"/><rect width="4.241" height="2.346" x="182.345" y="172.25" fill="#55B4C0" rx="1.173"/><rect width="10.025" height="2.346" x="228.229" y="172.25" fill="#CF666F" rx="1.173"/><rect width="46.655" height="2.346" x="260.618" y="172.25" fill="#7C9D67" rx="1.173"/><rect width="13.881" height="2.346" x="153.812" y="172.25" fill="#BB73D1" rx="1.173"/><rect width="21.592" height="2.346" x="198.54" y="178.896" fill="#55B4C0" rx="1.173"/><rect width="4.241" height="2.346" x="178.875" y="178.896" fill="#55B4C0" rx="1.173"/><rect width="11.567" height="2.346" x="185.044" y="178.896" fill="#CF666F" rx="1.173"/><rect width="8.483" height="2.346" x="168.464" y="178.896" fill="#E5C07B" rx="1.173"/><rect width="30.846" height="2.346" x="222.06" y="178.896" fill="#7C9D67" rx="1.173"/><rect width="12.724" height="2.346" x="153.812" y="178.896" fill="#BB73D1" rx="1.173"/><rect width="19.279" height="2.346" x="159.773" y="137.123" fill="#BB73D1" rx="1.173"/><rect width="9.254" height="2.346" x="173.268" y="130.477" fill="#E5C07B" rx="1.173"/><rect width="4.241" height="2.346" x="184.835" y="130.477" fill="#55B4C0" rx="1.173"/><rect width="69.019" height="2.346" x="216.453" y="130.477" fill="#55B4C0" rx="1.173"/><rect width="7.712" height="2.346" x="206.428" y="130.477" fill="#CF666F" rx="1.173"/><rect width="35.088" height="2.346" x="287.785" y="130.477" fill="#7C9D67" rx="1.173"/><rect width="11.567" height="2.346" x="159.773" y="130.477" fill="#BB73D1" rx="1.173"/><rect width="12.724" height="2.346" x="191.39" y="130.477" fill="#BB73D1" rx="1.173"/><rect width="62.464" height="2.346" x="169.412" y="150.025" fill="#CF666F" rx="1.173"/><rect width="49" height="49" x="40.5" y="27.5" stroke="#D4D4D4" rx="5.5"/><path fill="#D4D4D4" d="M65.1212 39C59.2279 39 54.4545 41.3867 54.4545 44.3333C54.4545 47.28 59.2279 49.6667 65.1212 49.6667C71.0145 49.6667 75.7879 47.28 75.7879 44.3333C75.7879 41.3867 71.0145 39 65.1212 39ZM54.4545 47V51C54.4545 53.9467 59.2279 56.3333 65.1212 56.3333C71.0145 56.3333 75.7879 53.9467 75.7879 51V47C75.7879 49.9467 71.0145 52.3333 65.1212 52.3333C59.2279 52.3333 54.4545 49.9467 54.4545 47ZM54.4545 53.6667V57.6667C54.4545 60.6133 59.2279 63 65.1212 63C71.0145 63 75.7879 60.6133 75.7879 57.6667V53.6667C75.7879 56.6133 71.0145 59 65.1212 59C59.2279 59 54.4545 56.6133 54.4545 53.6667Z"/><rect width="49" height="49" x="48.5" y="195.5" stroke="#D4D4D4" rx="5.5"/><path fill="#D4D4D4" d="M73.4545 222.667C72.2169 222.667 71.0299 222.175 70.1547 221.3C69.2795 220.425 68.7879 219.238 68.7879 218C68.7879 216.762 69.2795 215.575 70.1547 214.7C71.0299 213.825 72.2169 213.333 73.4545 213.333C74.6922 213.333 75.8792 213.825 76.7544 214.7C77.6295 215.575 78.1212 216.762 78.1212 218C78.1212 219.238 77.6295 220.425 76.7544 221.3C75.8792 222.175 74.6922 222.667 73.4545 222.667ZM83.3612 219.293C83.4145 218.867 83.4545 218.44 83.4545 218C83.4545 217.56 83.4145 217.12 83.3612 216.667L86.1745 214.493C86.4279 214.293 86.4945 213.933 86.3345 213.64L83.6679 209.027C83.5079 208.733 83.1479 208.613 82.8545 208.733L79.5345 210.067C78.8412 209.547 78.1212 209.093 77.2812 208.76L76.7879 205.227C76.7608 205.069 76.679 204.927 76.557 204.825C76.4349 204.722 76.2806 204.666 76.1212 204.667H70.7879C70.4545 204.667 70.1745 204.907 70.1212 205.227L69.6279 208.76C68.7879 209.093 68.0679 209.547 67.3745 210.067L64.0545 208.733C63.7612 208.613 63.4012 208.733 63.2412 209.027L60.5745 213.64C60.4012 213.933 60.4812 214.293 60.7345 214.493L63.5479 216.667C63.4945 217.12 63.4545 217.56 63.4545 218C63.4545 218.44 63.4945 218.867 63.5479 219.293L60.7345 221.507C60.4812 221.707 60.4012 222.067 60.5745 222.36L63.2412 226.973C63.4012 227.267 63.7612 227.373 64.0545 227.267L67.3745 225.92C68.0679 226.453 68.7879 226.907 69.6279 227.24L70.1212 230.773C70.1745 231.093 70.4545 231.333 70.7879 231.333H76.1212C76.4545 231.333 76.7345 231.093 76.7879 230.773L77.2812 227.24C78.1212 226.893 78.8412 226.453 79.5345 225.92L82.8545 227.267C83.1479 227.373 83.5079 227.267 83.6679 226.973L86.3345 222.36C86.4945 222.067 86.4279 221.707 86.1745 221.507L83.3612 219.293Z"/><rect width="49" height="49" x="379.5" y="28.5" stroke="#D4D4D4" rx="5.5"/><path stroke="#D4D4D4" stroke-width="3" d="M394.455 46L387.455 53L394.455 59.5"/><path stroke="#D4D4D4" stroke-width="3" d="M414.455 46L421.455 53L414.455 59.5"/><path fill="#D4D4D4" d="M400.288 48.8335H398.621C398.179 48.8335 397.755 49.0091 397.443 49.3217C397.13 49.6342 396.955 50.0581 396.955 50.5002V57.1668H398.621V53.8335H400.288V57.1668H401.955V50.5002C401.955 50.0581 401.779 49.6342 401.466 49.3217C401.154 49.0091 400.73 48.8335 400.288 48.8335ZM400.288 52.1668H398.621V50.5002H400.288M406.121 48.8335H402.788V57.1668H404.455V53.8335H406.121C406.563 53.8335 406.987 53.6579 407.3 53.3453C407.612 53.0328 407.788 52.6089 407.788 52.1668V50.5002C407.788 50.0581 407.612 49.6342 407.3 49.3217C406.987 49.0091 406.563 48.8335 406.121 48.8335ZM406.121 52.1668H404.455V50.5002H406.121M411.121 50.5002V55.5002H411.955V57.1668H408.621V55.5002H409.455V50.5002H408.621V48.8335H411.955V50.5002H411.121Z"/><rect width="99" height="96" x="348.5" y="186.5" fill="#121212" stroke="#D4D4D4" rx="7.5"/><path stroke="#626262" stroke-width=".2" d="M359 213H434"/><path stroke="#626262" stroke-width=".2" d="M359 224H434"/><path stroke="#D9D9D9" stroke-opacity=".4" stroke-width=".2" d="M359 235H434"/><path stroke="#D9D9D9" stroke-opacity=".4" stroke-width=".2" d="M359 246H434"/><path stroke="#D9D9D9" stroke-opacity=".4" stroke-width=".2" d="M359 259H434"/><path stroke="#D9D9D9" stroke-opacity=".4" stroke-width=".2" d="M359 201H434"/><path stroke="#0080FF" stroke-width="2" d="M359 252.608L371.618 261L381.117 245.965L386.93 211L398.698 217.294L408.338 235.126L418.121 227.084L426.344 219.392L434 227.084"/><path stroke="#01E0CB" stroke-opacity=".6" stroke-width="2" d="M360 267L372.381 251.571L382.343 221.743L387.894 219L400.133 231.343L409.383 224.829L428.027 236.143L435 231.343"/><path stroke="#FF3B7C" stroke-width="2" d="M361 243L373.381 227.189L382.399 205.757L388.894 204L401.133 214.189L410.383 218.405L429.027 228.946L436 223.676"/></svg>