<svg width="488" height="310" viewBox="0 0 488 310" fill="none" xmlns="http://www.w3.org/2000/svg">
<rect x="0.5" y="0.5" width="486" height="309" rx="3.5" fill="#121212" stroke="#D4D4D4"/>
<circle cx="6" cy="6" r="6" transform="matrix(-1 0 0 1 474 11)" fill="#ED6559"/>
<circle cx="6" cy="6" r="6" transform="matrix(-1 0 0 1 454 11)" fill="#E1C04C"/>
<circle cx="6" cy="6" r="6" transform="matrix(-1 0 0 1 434 11)" fill="#72BE47"/>
<path d="M35 15.5H47M47 15.5L41.5 10M47 15.5L41.5 21" stroke="#606368" stroke-width="1.2" stroke-linecap="round" stroke-linejoin="round"/>
<path d="M27 15.5H15M15 15.5L20.5 10M15 15.5L20.5 21" stroke="#BABCBE" stroke-width="1.2" stroke-linecap="round" stroke-linejoin="round"/>
<path d="M63 13L65 11.0278L64.9853 11.0147L67 9V13H63Z" fill="#606368"/>
<path d="M67 15.5C67 18.8137 64.3137 21.5 61 21.5C57.6863 21.5 55 18.8137 55 15.5C55 12.1863 57.6863 9.5 61 9.5C62.5296 9.5 63.9256 10.0724 64.9853 11.0147M64.9853 11.0147C64.9902 11.019 64.9951 11.0234 65 11.0278L63 13H67V9L64.9853 11.0147Z" stroke="#606368" stroke-width="1.2"/>
<rect x="122" y="4" width="245" height="24" rx="8" fill="black" fill-opacity="0.63"/>
<path d="M153.004 11V20H151.914V11H153.004ZM158.482 18.916V15.6523C158.482 15.4023 158.432 15.1855 158.33 15.002C158.232 14.8145 158.084 14.6699 157.885 14.5684C157.686 14.4668 157.439 14.416 157.146 14.416C156.873 14.416 156.633 14.4629 156.426 14.5566C156.223 14.6504 156.062 14.7734 155.945 14.9258C155.832 15.0781 155.775 15.2422 155.775 15.418H154.691C154.691 15.1914 154.75 14.9668 154.867 14.7441C154.984 14.5215 155.152 14.3203 155.371 14.1406C155.594 13.957 155.859 13.8125 156.168 13.707C156.48 13.5977 156.828 13.543 157.211 13.543C157.672 13.543 158.078 13.6211 158.43 13.7773C158.785 13.9336 159.062 14.1699 159.262 14.4863C159.465 14.7988 159.566 15.1914 159.566 15.6641V18.6172C159.566 18.8281 159.584 19.0527 159.619 19.291C159.658 19.5293 159.715 19.7344 159.789 19.9062V20H158.658C158.604 19.875 158.561 19.709 158.529 19.502C158.498 19.291 158.482 19.0957 158.482 18.916ZM158.67 16.1562L158.682 16.918H157.586C157.277 16.918 157.002 16.9434 156.76 16.9941C156.518 17.041 156.314 17.1133 156.15 17.2109C155.986 17.3086 155.861 17.4316 155.775 17.5801C155.689 17.7246 155.646 17.8945 155.646 18.0898C155.646 18.2891 155.691 18.4707 155.781 18.6348C155.871 18.7988 156.006 18.9297 156.186 19.0273C156.369 19.1211 156.594 19.168 156.859 19.168C157.191 19.168 157.484 19.0977 157.738 18.957C157.992 18.8164 158.193 18.6445 158.342 18.4414C158.494 18.2383 158.576 18.041 158.588 17.8496L159.051 18.3711C159.023 18.5352 158.949 18.7168 158.828 18.916C158.707 19.1152 158.545 19.3066 158.342 19.4902C158.143 19.6699 157.904 19.8203 157.627 19.9414C157.354 20.0586 157.045 20.1172 156.701 20.1172C156.271 20.1172 155.895 20.0332 155.57 19.8652C155.25 19.6973 155 19.4727 154.82 19.1914C154.645 18.9062 154.557 18.5879 154.557 18.2363C154.557 17.8965 154.623 17.5977 154.756 17.3398C154.889 17.0781 155.08 16.8613 155.33 16.6895C155.58 16.5137 155.881 16.3809 156.232 16.291C156.584 16.2012 156.977 16.1562 157.41 16.1562H158.67ZM162.355 15.0137V20H161.271V13.6602H162.297L162.355 15.0137ZM162.098 16.5898L161.646 16.5723C161.65 16.1387 161.715 15.7383 161.84 15.3711C161.965 15 162.141 14.6777 162.367 14.4043C162.594 14.1309 162.863 13.9199 163.176 13.7715C163.492 13.6191 163.842 13.543 164.225 13.543C164.537 13.543 164.818 13.5859 165.068 13.6719C165.318 13.7539 165.531 13.8867 165.707 14.0703C165.887 14.2539 166.023 14.4922 166.117 14.7852C166.211 15.0742 166.258 15.4277 166.258 15.8457V20H165.168V15.834C165.168 15.502 165.119 15.2363 165.021 15.0371C164.924 14.834 164.781 14.6875 164.594 14.5977C164.406 14.5039 164.176 14.457 163.902 14.457C163.633 14.457 163.387 14.5137 163.164 14.627C162.945 14.7402 162.756 14.8965 162.596 15.0957C162.439 15.2949 162.316 15.5234 162.227 15.7812C162.141 16.0352 162.098 16.3047 162.098 16.5898ZM171.9 18.7695V11H172.99V20H171.994L171.9 18.7695ZM167.635 16.9004V16.7773C167.635 16.293 167.693 15.8535 167.811 15.459C167.932 15.0605 168.102 14.7188 168.32 14.4336C168.543 14.1484 168.807 13.9297 169.111 13.7773C169.42 13.6211 169.764 13.543 170.143 13.543C170.541 13.543 170.889 13.6133 171.186 13.7539C171.486 13.8906 171.74 14.0918 171.947 14.3574C172.158 14.6191 172.324 14.9355 172.445 15.3066C172.566 15.6777 172.65 16.0977 172.697 16.5664V17.1055C172.654 17.5703 172.57 17.9883 172.445 18.3594C172.324 18.7305 172.158 19.0469 171.947 19.3086C171.74 19.5703 171.486 19.7715 171.186 19.9121C170.885 20.0488 170.533 20.1172 170.131 20.1172C169.76 20.1172 169.42 20.0371 169.111 19.877C168.807 19.7168 168.543 19.4922 168.32 19.2031C168.102 18.9141 167.932 18.5742 167.811 18.1836C167.693 17.7891 167.635 17.3613 167.635 16.9004ZM168.725 16.7773V16.9004C168.725 17.2168 168.756 17.5137 168.818 17.791C168.885 18.0684 168.986 18.3125 169.123 18.5234C169.26 18.7344 169.434 18.9004 169.645 19.0215C169.855 19.1387 170.107 19.1973 170.4 19.1973C170.76 19.1973 171.055 19.1211 171.285 18.9688C171.52 18.8164 171.707 18.6152 171.848 18.3652C171.988 18.1152 172.098 17.8438 172.176 17.5508V16.1387C172.129 15.9238 172.061 15.7168 171.971 15.5176C171.885 15.3145 171.771 15.1348 171.631 14.9785C171.494 14.8184 171.324 14.6914 171.121 14.5977C170.922 14.5039 170.686 14.457 170.412 14.457C170.115 14.457 169.859 14.5195 169.645 14.6445C169.434 14.7656 169.26 14.9336 169.123 15.1484C168.986 15.3594 168.885 15.6055 168.818 15.8867C168.756 16.1641 168.725 16.4609 168.725 16.7773ZM175.855 13.6602V20H174.766V13.6602H175.855ZM174.684 11.9785C174.684 11.8027 174.736 11.6543 174.842 11.5332C174.951 11.4121 175.111 11.3516 175.322 11.3516C175.529 11.3516 175.688 11.4121 175.797 11.5332C175.91 11.6543 175.967 11.8027 175.967 11.9785C175.967 12.1465 175.91 12.291 175.797 12.4121C175.688 12.5293 175.529 12.5879 175.322 12.5879C175.111 12.5879 174.951 12.5293 174.842 12.4121C174.736 12.291 174.684 12.1465 174.684 11.9785ZM178.68 15.0137V20H177.596V13.6602H178.621L178.68 15.0137ZM178.422 16.5898L177.971 16.5723C177.975 16.1387 178.039 15.7383 178.164 15.3711C178.289 15 178.465 14.6777 178.691 14.4043C178.918 14.1309 179.188 13.9199 179.5 13.7715C179.816 13.6191 180.166 13.543 180.549 13.543C180.861 13.543 181.143 13.5859 181.393 13.6719C181.643 13.7539 181.855 13.8867 182.031 14.0703C182.211 14.2539 182.348 14.4922 182.441 14.7852C182.535 15.0742 182.582 15.4277 182.582 15.8457V20H181.492V15.834C181.492 15.502 181.443 15.2363 181.346 15.0371C181.248 14.834 181.105 14.6875 180.918 14.5977C180.73 14.5039 180.5 14.457 180.227 14.457C179.957 14.457 179.711 14.5137 179.488 14.627C179.27 14.7402 179.08 14.8965 178.92 15.0957C178.764 15.2949 178.641 15.5234 178.551 15.7812C178.465 16.0352 178.422 16.3047 178.422 16.5898ZM188.336 13.6602H189.32V19.8652C189.32 20.4238 189.207 20.9004 188.98 21.2949C188.754 21.6895 188.438 21.9883 188.031 22.1914C187.629 22.3984 187.164 22.502 186.637 22.502C186.418 22.502 186.16 22.4668 185.863 22.3965C185.57 22.3301 185.281 22.2148 184.996 22.0508C184.715 21.8906 184.479 21.6738 184.287 21.4004L184.855 20.7559C185.121 21.0762 185.398 21.2988 185.688 21.4238C185.98 21.5488 186.27 21.6113 186.555 21.6113C186.898 21.6113 187.195 21.5469 187.445 21.418C187.695 21.2891 187.889 21.0977 188.025 20.8438C188.166 20.5938 188.236 20.2852 188.236 19.918V15.0547L188.336 13.6602ZM183.971 16.9004V16.7773C183.971 16.293 184.027 15.8535 184.141 15.459C184.258 15.0605 184.424 14.7188 184.639 14.4336C184.857 14.1484 185.121 13.9297 185.43 13.7773C185.738 13.6211 186.086 13.543 186.473 13.543C186.871 13.543 187.219 13.6133 187.516 13.7539C187.816 13.8906 188.07 14.0918 188.277 14.3574C188.488 14.6191 188.654 14.9355 188.775 15.3066C188.896 15.6777 188.98 16.0977 189.027 16.5664V17.1055C188.984 17.5703 188.9 17.9883 188.775 18.3594C188.654 18.7305 188.488 19.0469 188.277 19.3086C188.07 19.5703 187.816 19.7715 187.516 19.9121C187.215 20.0488 186.863 20.1172 186.461 20.1172C186.082 20.1172 185.738 20.0371 185.43 19.877C185.125 19.7168 184.863 19.4922 184.645 19.2031C184.426 18.9141 184.258 18.5742 184.141 18.1836C184.027 17.7891 183.971 17.3613 183.971 16.9004ZM185.055 16.7773V16.9004C185.055 17.2168 185.086 17.5137 185.148 17.791C185.215 18.0684 185.314 18.3125 185.447 18.5234C185.584 18.7344 185.758 18.9004 185.969 19.0215C186.18 19.1387 186.432 19.1973 186.725 19.1973C187.084 19.1973 187.381 19.1211 187.615 18.9688C187.85 18.8164 188.035 18.6152 188.172 18.3652C188.312 18.1152 188.422 17.8438 188.5 17.5508V16.1387C188.457 15.9238 188.391 15.7168 188.301 15.5176C188.215 15.3145 188.102 15.1348 187.961 14.9785C187.824 14.8184 187.654 14.6914 187.451 14.5977C187.248 14.5039 187.01 14.457 186.736 14.457C186.439 14.457 186.184 14.5195 185.969 14.6445C185.758 14.7656 185.584 14.9336 185.447 15.1484C185.314 15.3594 185.215 15.6055 185.148 15.8867C185.086 16.1641 185.055 16.4609 185.055 16.7773ZM193.223 15.9277V16.8184H190.363V15.9277H193.223ZM195.367 14.8789V22.4375H194.277V13.6602H195.273L195.367 14.8789ZM199.639 16.7773V16.9004C199.639 17.3613 199.584 17.7891 199.475 18.1836C199.365 18.5742 199.205 18.9141 198.994 19.2031C198.787 19.4922 198.531 19.7168 198.227 19.877C197.922 20.0371 197.572 20.1172 197.178 20.1172C196.775 20.1172 196.42 20.0508 196.111 19.918C195.803 19.7852 195.541 19.5918 195.326 19.3379C195.111 19.084 194.939 18.7793 194.811 18.4238C194.686 18.0684 194.6 17.668 194.553 17.2227V16.5664C194.6 16.0977 194.688 15.6777 194.816 15.3066C194.945 14.9355 195.115 14.6191 195.326 14.3574C195.541 14.0918 195.801 13.8906 196.105 13.7539C196.41 13.6133 196.762 13.543 197.16 13.543C197.559 13.543 197.912 13.6211 198.221 13.7773C198.529 13.9297 198.789 14.1484 199 14.4336C199.211 14.7188 199.369 15.0605 199.475 15.459C199.584 15.8535 199.639 16.293 199.639 16.7773ZM198.549 16.9004V16.7773C198.549 16.4609 198.516 16.1641 198.449 15.8867C198.383 15.6055 198.279 15.3594 198.139 15.1484C198.002 14.9336 197.826 14.7656 197.611 14.6445C197.396 14.5195 197.141 14.457 196.844 14.457C196.57 14.457 196.332 14.5039 196.129 14.5977C195.93 14.6914 195.76 14.8184 195.619 14.9785C195.479 15.1348 195.363 15.3145 195.273 15.5176C195.188 15.7168 195.123 15.9238 195.08 16.1387V17.6562C195.158 17.9297 195.268 18.1875 195.408 18.4297C195.549 18.668 195.736 18.8613 195.971 19.0098C196.205 19.1543 196.5 19.2266 196.855 19.2266C197.148 19.2266 197.4 19.166 197.611 19.0449C197.826 18.9199 198.002 18.75 198.139 18.5352C198.279 18.3203 198.383 18.0742 198.449 17.7969C198.516 17.5156 198.549 17.2168 198.549 16.9004ZM204.76 18.916V15.6523C204.76 15.4023 204.709 15.1855 204.607 15.002C204.51 14.8145 204.361 14.6699 204.162 14.5684C203.963 14.4668 203.717 14.416 203.424 14.416C203.15 14.416 202.91 14.4629 202.703 14.5566C202.5 14.6504 202.34 14.7734 202.223 14.9258C202.109 15.0781 202.053 15.2422 202.053 15.418H200.969C200.969 15.1914 201.027 14.9668 201.145 14.7441C201.262 14.5215 201.43 14.3203 201.648 14.1406C201.871 13.957 202.137 13.8125 202.445 13.707C202.758 13.5977 203.105 13.543 203.488 13.543C203.949 13.543 204.355 13.6211 204.707 13.7773C205.062 13.9336 205.34 14.1699 205.539 14.4863C205.742 14.7988 205.844 15.1914 205.844 15.6641V18.6172C205.844 18.8281 205.861 19.0527 205.896 19.291C205.936 19.5293 205.992 19.7344 206.066 19.9062V20H204.936C204.881 19.875 204.838 19.709 204.807 19.502C204.775 19.291 204.76 19.0957 204.76 18.916ZM204.947 16.1562L204.959 16.918H203.863C203.555 16.918 203.279 16.9434 203.037 16.9941C202.795 17.041 202.592 17.1133 202.428 17.2109C202.264 17.3086 202.139 17.4316 202.053 17.5801C201.967 17.7246 201.924 17.8945 201.924 18.0898C201.924 18.2891 201.969 18.4707 202.059 18.6348C202.148 18.7988 202.283 18.9297 202.463 19.0273C202.646 19.1211 202.871 19.168 203.137 19.168C203.469 19.168 203.762 19.0977 204.016 18.957C204.27 18.8164 204.471 18.6445 204.619 18.4414C204.771 18.2383 204.854 18.041 204.865 17.8496L205.328 18.3711C205.301 18.5352 205.227 18.7168 205.105 18.916C204.984 19.1152 204.822 19.3066 204.619 19.4902C204.42 19.6699 204.182 19.8203 203.904 19.9414C203.631 20.0586 203.322 20.1172 202.979 20.1172C202.549 20.1172 202.172 20.0332 201.848 19.8652C201.527 19.6973 201.277 19.4727 201.098 19.1914C200.922 18.9062 200.834 18.5879 200.834 18.2363C200.834 17.8965 200.9 17.5977 201.033 17.3398C201.166 17.0781 201.357 16.8613 201.607 16.6895C201.857 16.5137 202.158 16.3809 202.51 16.291C202.861 16.2012 203.254 16.1562 203.688 16.1562H204.947ZM211.656 13.6602H212.641V19.8652C212.641 20.4238 212.527 20.9004 212.301 21.2949C212.074 21.6895 211.758 21.9883 211.352 22.1914C210.949 22.3984 210.484 22.502 209.957 22.502C209.738 22.502 209.48 22.4668 209.184 22.3965C208.891 22.3301 208.602 22.2148 208.316 22.0508C208.035 21.8906 207.799 21.6738 207.607 21.4004L208.176 20.7559C208.441 21.0762 208.719 21.2988 209.008 21.4238C209.301 21.5488 209.59 21.6113 209.875 21.6113C210.219 21.6113 210.516 21.5469 210.766 21.418C211.016 21.2891 211.209 21.0977 211.346 20.8438C211.486 20.5938 211.557 20.2852 211.557 19.918V15.0547L211.656 13.6602ZM207.291 16.9004V16.7773C207.291 16.293 207.348 15.8535 207.461 15.459C207.578 15.0605 207.744 14.7188 207.959 14.4336C208.178 14.1484 208.441 13.9297 208.75 13.7773C209.059 13.6211 209.406 13.543 209.793 13.543C210.191 13.543 210.539 13.6133 210.836 13.7539C211.137 13.8906 211.391 14.0918 211.598 14.3574C211.809 14.6191 211.975 14.9355 212.096 15.3066C212.217 15.6777 212.301 16.0977 212.348 16.5664V17.1055C212.305 17.5703 212.221 17.9883 212.096 18.3594C211.975 18.7305 211.809 19.0469 211.598 19.3086C211.391 19.5703 211.137 19.7715 210.836 19.9121C210.535 20.0488 210.184 20.1172 209.781 20.1172C209.402 20.1172 209.059 20.0371 208.75 19.877C208.445 19.7168 208.184 19.4922 207.965 19.2031C207.746 18.9141 207.578 18.5742 207.461 18.1836C207.348 17.7891 207.291 17.3613 207.291 16.9004ZM208.375 16.7773V16.9004C208.375 17.2168 208.406 17.5137 208.469 17.791C208.535 18.0684 208.635 18.3125 208.768 18.5234C208.904 18.7344 209.078 18.9004 209.289 19.0215C209.5 19.1387 209.752 19.1973 210.045 19.1973C210.404 19.1973 210.701 19.1211 210.936 18.9688C211.17 18.8164 211.355 18.6152 211.492 18.3652C211.633 18.1152 211.742 17.8438 211.82 17.5508V16.1387C211.777 15.9238 211.711 15.7168 211.621 15.5176C211.535 15.3145 211.422 15.1348 211.281 14.9785C211.145 14.8184 210.975 14.6914 210.771 14.5977C210.568 14.5039 210.33 14.457 210.057 14.457C209.76 14.457 209.504 14.5195 209.289 14.6445C209.078 14.7656 208.904 14.9336 208.768 15.1484C208.635 15.3594 208.535 15.6055 208.469 15.8867C208.406 16.1641 208.375 16.4609 208.375 16.7773ZM216.918 20.1172C216.477 20.1172 216.076 20.043 215.717 19.8945C215.361 19.7422 215.055 19.5293 214.797 19.2559C214.543 18.9824 214.348 18.6582 214.211 18.2832C214.074 17.9082 214.006 17.498 214.006 17.0527V16.8066C214.006 16.291 214.082 15.832 214.234 15.4297C214.387 15.0234 214.594 14.6797 214.855 14.3984C215.117 14.1172 215.414 13.9043 215.746 13.7598C216.078 13.6152 216.422 13.543 216.777 13.543C217.23 13.543 217.621 13.6211 217.949 13.7773C218.281 13.9336 218.553 14.1523 218.764 14.4336C218.975 14.7109 219.131 15.0391 219.232 15.418C219.334 15.793 219.385 16.2031 219.385 16.6484V17.1348H214.65V16.25H218.301V16.168C218.285 15.8867 218.227 15.6133 218.125 15.3477C218.027 15.082 217.871 14.8633 217.656 14.6914C217.441 14.5195 217.148 14.4336 216.777 14.4336C216.531 14.4336 216.305 14.4863 216.098 14.5918C215.891 14.6934 215.713 14.8457 215.564 15.0488C215.416 15.252 215.301 15.5 215.219 15.793C215.137 16.0859 215.096 16.4238 215.096 16.8066V17.0527C215.096 17.3535 215.137 17.6367 215.219 17.9023C215.305 18.1641 215.428 18.3945 215.588 18.5938C215.752 18.793 215.949 18.9492 216.18 19.0625C216.414 19.1758 216.68 19.2324 216.977 19.2324C217.359 19.2324 217.684 19.1543 217.949 18.998C218.215 18.8418 218.447 18.6328 218.646 18.3711L219.303 18.8926C219.166 19.0996 218.992 19.2969 218.781 19.4844C218.57 19.6719 218.311 19.8242 218.002 19.9414C217.697 20.0586 217.336 20.1172 216.918 20.1172ZM222.906 15.9277V16.8184H220.047V15.9277H222.906ZM225.051 15.0137V20H223.967V13.6602H224.992L225.051 15.0137ZM224.793 16.5898L224.342 16.5723C224.346 16.1387 224.41 15.7383 224.535 15.3711C224.66 15 224.836 14.6777 225.062 14.4043C225.289 14.1309 225.559 13.9199 225.871 13.7715C226.188 13.6191 226.537 13.543 226.92 13.543C227.232 13.543 227.514 13.5859 227.764 13.6719C228.014 13.7539 228.227 13.8867 228.402 14.0703C228.582 14.2539 228.719 14.4922 228.812 14.7852C228.906 15.0742 228.953 15.4277 228.953 15.8457V20H227.863V15.834C227.863 15.502 227.814 15.2363 227.717 15.0371C227.619 14.834 227.477 14.6875 227.289 14.5977C227.102 14.5039 226.871 14.457 226.598 14.457C226.328 14.457 226.082 14.5137 225.859 14.627C225.641 14.7402 225.451 14.8965 225.291 15.0957C225.135 15.2949 225.012 15.5234 224.922 15.7812C224.836 16.0352 224.793 16.3047 224.793 16.5898ZM233.23 20.1172C232.789 20.1172 232.389 20.043 232.029 19.8945C231.674 19.7422 231.367 19.5293 231.109 19.2559C230.855 18.9824 230.66 18.6582 230.523 18.2832C230.387 17.9082 230.318 17.498 230.318 17.0527V16.8066C230.318 16.291 230.395 15.832 230.547 15.4297C230.699 15.0234 230.906 14.6797 231.168 14.3984C231.43 14.1172 231.727 13.9043 232.059 13.7598C232.391 13.6152 232.734 13.543 233.09 13.543C233.543 13.543 233.934 13.6211 234.262 13.7773C234.594 13.9336 234.865 14.1523 235.076 14.4336C235.287 14.7109 235.443 15.0391 235.545 15.418C235.646 15.793 235.697 16.2031 235.697 16.6484V17.1348H230.963V16.25H234.613V16.168C234.598 15.8867 234.539 15.6133 234.438 15.3477C234.34 15.082 234.184 14.8633 233.969 14.6914C233.754 14.5195 233.461 14.4336 233.09 14.4336C232.844 14.4336 232.617 14.4863 232.41 14.5918C232.203 14.6934 232.025 14.8457 231.877 15.0488C231.729 15.252 231.613 15.5 231.531 15.793C231.449 16.0859 231.408 16.4238 231.408 16.8066V17.0527C231.408 17.3535 231.449 17.6367 231.531 17.9023C231.617 18.1641 231.74 18.3945 231.9 18.5938C232.064 18.793 232.262 18.9492 232.492 19.0625C232.727 19.1758 232.992 19.2324 233.289 19.2324C233.672 19.2324 233.996 19.1543 234.262 18.998C234.527 18.8418 234.76 18.6328 234.959 18.3711L235.615 18.8926C235.479 19.0996 235.305 19.2969 235.094 19.4844C234.883 19.6719 234.623 19.8242 234.314 19.9414C234.01 20.0586 233.648 20.1172 233.23 20.1172ZM239.617 13.6602V14.4922H236.189V13.6602H239.617ZM237.35 12.1191H238.434V18.4297C238.434 18.6445 238.467 18.8066 238.533 18.916C238.6 19.0254 238.686 19.0977 238.791 19.1328C238.896 19.168 239.01 19.1855 239.131 19.1855C239.221 19.1855 239.314 19.1777 239.412 19.1621C239.514 19.1426 239.59 19.127 239.641 19.1152L239.646 20C239.561 20.0273 239.447 20.0527 239.307 20.0762C239.17 20.1035 239.004 20.1172 238.809 20.1172C238.543 20.1172 238.299 20.0645 238.076 19.959C237.854 19.8535 237.676 19.6777 237.543 19.4316C237.414 19.1816 237.35 18.8457 237.35 18.4238V12.1191ZM245.611 19.1094V20H241V19.1094H245.611ZM245.441 14.4277L241.246 20H240.584V19.2031L244.75 13.6602H245.441V14.4277ZM244.961 13.6602V14.5566H240.631V13.6602H244.961ZM246.461 16.9004V16.7656C246.461 16.3086 246.527 15.8848 246.66 15.4941C246.793 15.0996 246.984 14.7578 247.234 14.4688C247.484 14.1758 247.787 13.9492 248.143 13.7891C248.498 13.625 248.896 13.543 249.338 13.543C249.783 13.543 250.184 13.625 250.539 13.7891C250.898 13.9492 251.203 14.1758 251.453 14.4688C251.707 14.7578 251.9 15.0996 252.033 15.4941C252.166 15.8848 252.232 16.3086 252.232 16.7656V16.9004C252.232 17.3574 252.166 17.7812 252.033 18.1719C251.9 18.5625 251.707 18.9043 251.453 19.1973C251.203 19.4863 250.9 19.7129 250.545 19.877C250.193 20.0371 249.795 20.1172 249.35 20.1172C248.904 20.1172 248.504 20.0371 248.148 19.877C247.793 19.7129 247.488 19.4863 247.234 19.1973C246.984 18.9043 246.793 18.5625 246.66 18.1719C246.527 17.7812 246.461 17.3574 246.461 16.9004ZM247.545 16.7656V16.9004C247.545 17.2168 247.582 17.5156 247.656 17.7969C247.73 18.0742 247.842 18.3203 247.99 18.5352C248.143 18.75 248.332 18.9199 248.559 19.0449C248.785 19.166 249.049 19.2266 249.35 19.2266C249.646 19.2266 249.906 19.166 250.129 19.0449C250.355 18.9199 250.543 18.75 250.691 18.5352C250.84 18.3203 250.951 18.0742 251.025 17.7969C251.104 17.5156 251.143 17.2168 251.143 16.9004V16.7656C251.143 16.4531 251.104 16.1582 251.025 15.8809C250.951 15.5996 250.838 15.3516 250.686 15.1367C250.537 14.918 250.35 14.7461 250.123 14.6211C249.9 14.4961 249.639 14.4336 249.338 14.4336C249.041 14.4336 248.779 14.4961 248.553 14.6211C248.33 14.7461 248.143 14.918 247.99 15.1367C247.842 15.3516 247.73 15.5996 247.656 15.8809C247.582 16.1582 247.545 16.4531 247.545 16.7656ZM253.609 19.4258C253.609 19.2422 253.666 19.0879 253.779 18.9629C253.896 18.834 254.064 18.7695 254.283 18.7695C254.502 18.7695 254.668 18.834 254.781 18.9629C254.898 19.0879 254.957 19.2422 254.957 19.4258C254.957 19.6055 254.898 19.7578 254.781 19.8828C254.668 20.0078 254.502 20.0703 254.283 20.0703C254.064 20.0703 253.896 20.0078 253.779 19.8828C253.666 19.7578 253.609 19.6055 253.609 19.4258ZM257.934 13.6602V20H256.844V13.6602H257.934ZM256.762 11.9785C256.762 11.8027 256.814 11.6543 256.92 11.5332C257.029 11.4121 257.189 11.3516 257.4 11.3516C257.607 11.3516 257.766 11.4121 257.875 11.5332C257.988 11.6543 258.045 11.8027 258.045 11.9785C258.045 12.1465 257.988 12.291 257.875 12.4121C257.766 12.5293 257.607 12.5879 257.4 12.5879C257.189 12.5879 257.029 12.5293 256.92 12.4121C256.814 12.291 256.762 12.1465 256.762 11.9785ZM259.387 16.9004V16.7656C259.387 16.3086 259.453 15.8848 259.586 15.4941C259.719 15.0996 259.91 14.7578 260.16 14.4688C260.41 14.1758 260.713 13.9492 261.068 13.7891C261.424 13.625 261.822 13.543 262.264 13.543C262.709 13.543 263.109 13.625 263.465 13.7891C263.824 13.9492 264.129 14.1758 264.379 14.4688C264.633 14.7578 264.826 15.0996 264.959 15.4941C265.092 15.8848 265.158 16.3086 265.158 16.7656V16.9004C265.158 17.3574 265.092 17.7812 264.959 18.1719C264.826 18.5625 264.633 18.9043 264.379 19.1973C264.129 19.4863 263.826 19.7129 263.471 19.877C263.119 20.0371 262.721 20.1172 262.275 20.1172C261.83 20.1172 261.43 20.0371 261.074 19.877C260.719 19.7129 260.414 19.4863 260.16 19.1973C259.91 18.9043 259.719 18.5625 259.586 18.1719C259.453 17.7812 259.387 17.3574 259.387 16.9004ZM260.471 16.7656V16.9004C260.471 17.2168 260.508 17.5156 260.582 17.7969C260.656 18.0742 260.768 18.3203 260.916 18.5352C261.068 18.75 261.258 18.9199 261.484 19.0449C261.711 19.166 261.975 19.2266 262.275 19.2266C262.572 19.2266 262.832 19.166 263.055 19.0449C263.281 18.9199 263.469 18.75 263.617 18.5352C263.766 18.3203 263.877 18.0742 263.951 17.7969C264.029 17.5156 264.068 17.2168 264.068 16.9004V16.7656C264.068 16.4531 264.029 16.1582 263.951 15.8809C263.877 15.5996 263.764 15.3516 263.611 15.1367C263.463 14.918 263.275 14.7461 263.049 14.6211C262.826 14.4961 262.564 14.4336 262.264 14.4336C261.967 14.4336 261.705 14.4961 261.479 14.6211C261.256 14.7461 261.068 14.918 260.916 15.1367C260.768 15.3516 260.656 15.5996 260.582 15.8809C260.508 16.1582 260.471 16.4531 260.471 16.7656Z" fill="white"/>
<path d="M134.988 14V12C134.988 12 134.988 10 136.976 10C138.964 10 138.964 12 138.964 12V14" stroke="#BABCBE"/>
<rect x="133" y="14" width="7.95242" height="7" rx="1" fill="#BABCBE"/>
<path d="M2 31.5L487 32" stroke="#D4D4D4"/>
<rect x="175" y="63" width="137" height="14" rx="7" fill="white"/>
<rect x="175" y="63" width="39" height="14" rx="7" fill="#0080FF"/>
<path d="M191.355 67.1818V73H190.418L187.676 69.0369H187.628V73H186.574V67.1818H187.517L190.256 71.1477H190.307V67.1818H191.355ZM194.39 73.0852C193.952 73.0852 193.575 72.9943 193.256 72.8125C192.94 72.6288 192.697 72.3693 192.526 72.0341C192.356 71.697 192.271 71.3002 192.271 70.8438C192.271 70.3949 192.356 70.0009 192.526 69.6619C192.699 69.321 192.939 69.0559 193.248 68.8665C193.557 68.6752 193.919 68.5795 194.336 68.5795C194.605 68.5795 194.859 68.6231 195.097 68.7102C195.338 68.7955 195.55 68.928 195.734 69.108C195.919 69.2879 196.065 69.517 196.171 69.7955C196.277 70.072 196.33 70.4015 196.33 70.7841V71.0994H192.754V70.4062H195.344C195.343 70.2093 195.3 70.0341 195.217 69.8807C195.133 69.7254 195.017 69.6032 194.867 69.5142C194.719 69.4252 194.547 69.3807 194.35 69.3807C194.14 69.3807 193.955 69.4318 193.796 69.5341C193.637 69.6345 193.513 69.767 193.424 69.9318C193.337 70.0947 193.292 70.2737 193.29 70.4688V71.0739C193.29 71.3277 193.337 71.5455 193.43 71.7273C193.522 71.9072 193.652 72.0455 193.819 72.142C193.986 72.2367 194.181 72.2841 194.404 72.2841C194.554 72.2841 194.689 72.2633 194.81 72.2216C194.932 72.178 195.037 72.1146 195.126 72.0312C195.215 71.9479 195.282 71.8447 195.327 71.7216L196.288 71.8295C196.227 72.0833 196.112 72.3049 195.941 72.4943C195.772 72.6818 195.557 72.8277 195.293 72.9318C195.03 73.0341 194.729 73.0852 194.39 73.0852ZM198.077 73L196.844 68.6364H197.893L198.66 71.7045H198.7L199.484 68.6364H200.521L201.305 71.6875H201.347L202.103 68.6364H203.154L201.918 73H200.847L200.029 70.0511H199.969L199.151 73H198.077Z" fill="white"/>
<path d="M224.761 73L223.17 67.1818H223.886L225.102 71.9205H225.159L226.398 67.1818H227.193L228.432 71.9205H228.489L229.705 67.1818H230.42L228.83 73H228.102L226.818 68.3636H226.773L225.489 73H224.761ZM232.631 73.0909C232.21 73.0909 231.848 72.9981 231.543 72.8125C231.24 72.625 231.006 72.3636 230.841 72.0284C230.678 71.6913 230.597 71.2992 230.597 70.8523C230.597 70.4053 230.678 70.0114 230.841 69.6705C231.006 69.3277 231.235 69.0606 231.528 68.8693C231.824 68.6761 232.169 68.5795 232.562 68.5795C232.79 68.5795 233.014 68.6174 233.236 68.6932C233.457 68.7689 233.659 68.892 233.841 69.0625C234.023 69.2311 234.168 69.4545 234.276 69.733C234.384 70.0114 234.438 70.3542 234.438 70.7614V71.0455H231.074V70.4659H233.756C233.756 70.2197 233.706 70 233.608 69.8068C233.511 69.6136 233.373 69.4612 233.193 69.3494C233.015 69.2377 232.805 69.1818 232.562 69.1818C232.295 69.1818 232.064 69.2481 231.869 69.3807C231.676 69.5114 231.527 69.6818 231.423 69.892C231.319 70.1023 231.267 70.3277 231.267 70.5682V70.9545C231.267 71.2841 231.324 71.5634 231.438 71.7926C231.553 72.0199 231.713 72.1932 231.918 72.3125C232.122 72.4299 232.36 72.4886 232.631 72.4886C232.807 72.4886 232.966 72.464 233.108 72.4148C233.252 72.3636 233.376 72.2879 233.48 72.1875C233.584 72.0852 233.665 71.9583 233.722 71.8068L234.369 71.9886C234.301 72.2083 234.187 72.4015 234.026 72.5682C233.865 72.733 233.666 72.8617 233.429 72.9545C233.192 73.0455 232.926 73.0909 232.631 73.0909ZM238.991 73.1023C238.715 73.1023 238.464 73.0502 238.239 72.946C238.013 72.84 237.834 72.6875 237.702 72.4886C237.569 72.2879 237.503 72.0455 237.503 71.7614C237.503 71.5114 237.552 71.3087 237.651 71.1534C237.749 70.9962 237.881 70.8731 238.045 70.7841C238.21 70.6951 238.392 70.6288 238.591 70.5852C238.792 70.5398 238.993 70.5038 239.196 70.4773C239.461 70.4432 239.676 70.4176 239.841 70.4006C240.008 70.3816 240.129 70.3504 240.205 70.3068C240.282 70.2633 240.321 70.1875 240.321 70.0795V70.0568C240.321 69.7765 240.244 69.5587 240.091 69.4034C239.939 69.2481 239.709 69.1705 239.401 69.1705C239.08 69.1705 238.83 69.2405 238.648 69.3807C238.466 69.5208 238.338 69.6705 238.264 69.8295L237.628 69.6023C237.741 69.3371 237.893 69.1307 238.082 68.983C238.274 68.8333 238.482 68.7292 238.707 68.6705C238.935 68.6098 239.158 68.5795 239.378 68.5795C239.518 68.5795 239.679 68.5966 239.861 68.6307C240.045 68.6629 240.222 68.7301 240.392 68.8324C240.564 68.9347 240.707 69.089 240.821 69.2955C240.935 69.5019 240.991 69.7784 240.991 70.125V73H240.321V72.4091H240.287C240.241 72.5038 240.166 72.6051 240.06 72.7131C239.954 72.821 239.813 72.9129 239.636 72.9886C239.46 73.0644 239.245 73.1023 238.991 73.1023ZM239.094 72.5C239.359 72.5 239.582 72.4479 239.764 72.3438C239.948 72.2396 240.086 72.1051 240.179 71.9403C240.274 71.7756 240.321 71.6023 240.321 71.4205V70.8068C240.293 70.8409 240.23 70.8722 240.134 70.9006C240.039 70.9271 239.929 70.9508 239.804 70.9716C239.681 70.9905 239.561 71.0076 239.443 71.0227C239.328 71.036 239.234 71.0473 239.162 71.0568C238.988 71.0795 238.825 71.1165 238.673 71.1676C238.524 71.2169 238.402 71.2917 238.31 71.392C238.219 71.4905 238.173 71.625 238.173 71.7955C238.173 72.0284 238.259 72.2045 238.432 72.3239C238.606 72.4413 238.827 72.5 239.094 72.5ZM242.215 73V68.6364H242.863V69.2955H242.908C242.988 69.0795 243.132 68.9044 243.34 68.7699C243.549 68.6354 243.783 68.5682 244.045 68.5682C244.094 68.5682 244.156 68.5691 244.229 68.571C244.303 68.5729 244.359 68.5758 244.397 68.5795V69.2614C244.374 69.2557 244.322 69.2472 244.241 69.2358C244.161 69.2225 244.077 69.2159 243.988 69.2159C243.776 69.2159 243.586 69.2604 243.42 69.3494C243.255 69.4366 243.124 69.5578 243.028 69.7131C242.933 69.8665 242.886 70.0417 242.886 70.2386V73H242.215ZM246.888 73.0909C246.468 73.0909 246.105 72.9981 245.8 72.8125C245.497 72.625 245.263 72.3636 245.099 72.0284C244.936 71.6913 244.854 71.2992 244.854 70.8523C244.854 70.4053 244.936 70.0114 245.099 69.6705C245.263 69.3277 245.493 69.0606 245.786 68.8693C246.082 68.6761 246.426 68.5795 246.82 68.5795C247.048 68.5795 247.272 68.6174 247.494 68.6932C247.715 68.7689 247.917 68.892 248.099 69.0625C248.281 69.2311 248.425 69.4545 248.533 69.733C248.641 70.0114 248.695 70.3542 248.695 70.7614V71.0455H245.332V70.4659H248.013C248.013 70.2197 247.964 70 247.866 69.8068C247.769 69.6136 247.631 69.4612 247.451 69.3494C247.273 69.2377 247.063 69.1818 246.82 69.1818C246.553 69.1818 246.322 69.2481 246.127 69.3807C245.934 69.5114 245.785 69.6818 245.681 69.892C245.577 70.1023 245.525 70.3277 245.525 70.5682V70.9545C245.525 71.2841 245.582 71.5634 245.695 71.7926C245.811 72.0199 245.971 72.1932 246.175 72.3125C246.38 72.4299 246.618 72.4886 246.888 72.4886C247.065 72.4886 247.224 72.464 247.366 72.4148C247.51 72.3636 247.634 72.2879 247.738 72.1875C247.842 72.0852 247.923 71.9583 247.979 71.8068L248.627 71.9886C248.559 72.2083 248.444 72.4015 248.283 72.5682C248.122 72.733 247.924 72.8617 247.687 72.9545C247.45 73.0455 247.184 73.0909 246.888 73.0909ZM253.738 73.0909C253.344 73.0909 252.998 72.9972 252.701 72.8097C252.406 72.6222 252.174 72.3598 252.008 72.0227C251.843 71.6856 251.761 71.2917 251.761 70.8409C251.761 70.3864 251.843 69.9896 252.008 69.6506C252.174 69.3116 252.406 69.0483 252.701 68.8608C252.998 68.6733 253.344 68.5795 253.738 68.5795C254.132 68.5795 254.477 68.6733 254.772 68.8608C255.069 69.0483 255.3 69.3116 255.465 69.6506C255.632 69.9896 255.715 70.3864 255.715 70.8409C255.715 71.2917 255.632 71.6856 255.465 72.0227C255.3 72.3598 255.069 72.6222 254.772 72.8097C254.477 72.9972 254.132 73.0909 253.738 73.0909ZM253.738 72.4886C254.037 72.4886 254.283 72.4119 254.477 72.2585C254.67 72.1051 254.813 71.9034 254.906 71.6534C254.998 71.4034 255.045 71.1326 255.045 70.8409C255.045 70.5492 254.998 70.2775 254.906 70.0256C254.813 69.7737 254.67 69.5701 254.477 69.4148C254.283 69.2595 254.037 69.1818 253.738 69.1818C253.439 69.1818 253.192 69.2595 252.999 69.4148C252.806 69.5701 252.663 69.7737 252.57 70.0256C252.478 70.2775 252.431 70.5492 252.431 70.8409C252.431 71.1326 252.478 71.4034 252.57 71.6534C252.663 71.9034 252.806 72.1051 252.999 72.2585C253.192 72.4119 253.439 72.4886 253.738 72.4886ZM259.489 71.2159V68.6364H260.159V73H259.489V72.2614H259.443C259.341 72.483 259.182 72.6714 258.966 72.8267C258.75 72.9801 258.477 73.0568 258.148 73.0568C257.875 73.0568 257.633 72.9972 257.42 72.8778C257.208 72.7566 257.042 72.5748 256.92 72.3324C256.799 72.0881 256.739 71.7803 256.739 71.4091V68.6364H257.409V71.3636C257.409 71.6818 257.498 71.9356 257.676 72.125C257.856 72.3144 258.085 72.4091 258.364 72.4091C258.53 72.4091 258.7 72.3665 258.872 72.2812C259.046 72.196 259.192 72.0653 259.31 71.8892C259.429 71.7131 259.489 71.4886 259.489 71.2159ZM263.285 68.6364V69.2045H261.023V68.6364H263.285ZM261.683 67.5909H262.353V71.75C262.353 71.9394 262.38 72.0814 262.435 72.1761C262.492 72.2689 262.564 72.3314 262.651 72.3636C262.74 72.3939 262.834 72.4091 262.933 72.4091C263.006 72.4091 263.067 72.4053 263.114 72.3977C263.162 72.3883 263.2 72.3807 263.228 72.375L263.364 72.9773C263.319 72.9943 263.255 73.0114 263.174 73.0284C263.093 73.0473 262.989 73.0568 262.864 73.0568C262.675 73.0568 262.489 73.0161 262.308 72.9347C262.128 72.8532 261.978 72.7292 261.859 72.5625C261.741 72.3958 261.683 72.1856 261.683 71.9318V67.5909ZM268.316 73.0909C267.922 73.0909 267.576 72.9972 267.279 72.8097C266.984 72.6222 266.753 72.3598 266.586 72.0227C266.421 71.6856 266.339 71.2917 266.339 70.8409C266.339 70.3864 266.421 69.9896 266.586 69.6506C266.753 69.3116 266.984 69.0483 267.279 68.8608C267.576 68.6733 267.922 68.5795 268.316 68.5795C268.71 68.5795 269.055 68.6733 269.35 68.8608C269.647 69.0483 269.879 69.3116 270.043 69.6506C270.21 69.9896 270.293 70.3864 270.293 70.8409C270.293 71.2917 270.21 71.6856 270.043 72.0227C269.879 72.3598 269.647 72.6222 269.35 72.8097C269.055 72.9972 268.71 73.0909 268.316 73.0909ZM268.316 72.4886C268.615 72.4886 268.862 72.4119 269.055 72.2585C269.248 72.1051 269.391 71.9034 269.484 71.6534C269.576 71.4034 269.623 71.1326 269.623 70.8409C269.623 70.5492 269.576 70.2775 269.484 70.0256C269.391 69.7737 269.248 69.5701 269.055 69.4148C268.862 69.2595 268.615 69.1818 268.316 69.1818C268.017 69.1818 267.771 69.2595 267.577 69.4148C267.384 69.5701 267.241 69.7737 267.148 70.0256C267.056 70.2775 267.009 70.5492 267.009 70.8409C267.009 71.1326 267.056 71.4034 267.148 71.6534C267.241 71.9034 267.384 72.1051 267.577 72.2585C267.771 72.4119 268.017 72.4886 268.316 72.4886ZM271.987 70.375V73H271.317V68.6364H271.964V69.3182H272.021C272.124 69.0966 272.279 68.9186 272.487 68.7841C272.696 68.6477 272.964 68.5795 273.294 68.5795C273.589 68.5795 273.848 68.6402 274.07 68.7614C274.291 68.8807 274.464 69.0625 274.587 69.3068C274.71 69.5492 274.771 69.8561 274.771 70.2273V73H274.101V70.2727C274.101 69.9299 274.012 69.6629 273.834 69.4716C273.656 69.2784 273.411 69.1818 273.101 69.1818C272.887 69.1818 272.696 69.2282 272.527 69.321C272.36 69.4138 272.229 69.5492 272.132 69.7273C272.036 69.9053 271.987 70.1212 271.987 70.375Z" fill="#858585"/>
<path d="M278.337 73V67.1818H279.008V69.3295H279.065C279.114 69.2538 279.182 69.1572 279.269 69.0398C279.358 68.9205 279.485 68.8144 279.65 68.7216C279.817 68.6269 280.042 68.5795 280.326 68.5795C280.693 68.5795 281.017 68.6714 281.298 68.8551C281.578 69.0388 281.797 69.2992 281.954 69.6364C282.111 69.9735 282.19 70.3712 282.19 70.8295C282.19 71.2917 282.111 71.6922 281.954 72.0312C281.797 72.3684 281.579 72.6297 281.3 72.8153C281.022 72.9991 280.701 73.0909 280.337 73.0909C280.057 73.0909 279.833 73.0445 279.664 72.9517C279.496 72.857 279.366 72.75 279.275 72.6307C279.184 72.5095 279.114 72.4091 279.065 72.3295H278.985V73H278.337ZM278.996 70.8182C278.996 71.1477 279.045 71.4384 279.141 71.6903C279.238 71.9403 279.379 72.1364 279.565 72.2784C279.75 72.4186 279.978 72.4886 280.246 72.4886C280.527 72.4886 280.761 72.4148 280.948 72.267C281.138 72.1174 281.28 71.9167 281.374 71.6648C281.471 71.411 281.519 71.1288 281.519 70.8182C281.519 70.5114 281.472 70.2348 281.377 69.9886C281.284 69.7405 281.143 69.5445 280.954 69.4006C280.766 69.2547 280.531 69.1818 280.246 69.1818C279.974 69.1818 279.745 69.2509 279.559 69.3892C279.373 69.5256 279.233 69.7169 279.138 69.9631C279.044 70.2074 278.996 70.4924 278.996 70.8182ZM285.045 73.0909C284.624 73.0909 284.262 72.9981 283.957 72.8125C283.654 72.625 283.42 72.3636 283.255 72.0284C283.092 71.6913 283.011 71.2992 283.011 70.8523C283.011 70.4053 283.092 70.0114 283.255 69.6705C283.42 69.3277 283.649 69.0606 283.942 68.8693C284.238 68.6761 284.583 68.5795 284.977 68.5795C285.204 68.5795 285.428 68.6174 285.65 68.6932C285.871 68.7689 286.073 68.892 286.255 69.0625C286.437 69.2311 286.582 69.4545 286.69 69.733C286.798 70.0114 286.852 70.3542 286.852 70.7614V71.0455H283.488V70.4659H286.17C286.17 70.2197 286.121 70 286.022 69.8068C285.925 69.6136 285.787 69.4612 285.607 69.3494C285.429 69.2377 285.219 69.1818 284.977 69.1818C284.71 69.1818 284.478 69.2481 284.283 69.3807C284.09 69.5114 283.942 69.6818 283.837 69.892C283.733 70.1023 283.681 70.3277 283.681 70.5682V70.9545C283.681 71.2841 283.738 71.5634 283.852 71.7926C283.967 72.0199 284.127 72.1932 284.332 72.3125C284.536 72.4299 284.774 72.4886 285.045 72.4886C285.221 72.4886 285.38 72.464 285.522 72.4148C285.666 72.3636 285.79 72.2879 285.894 72.1875C285.998 72.0852 286.079 71.9583 286.136 71.8068L286.783 71.9886C286.715 72.2083 286.601 72.4015 286.44 72.5682C286.279 72.733 286.08 72.8617 285.843 72.9545C285.606 73.0455 285.34 73.0909 285.045 73.0909ZM289.769 68.6364V69.2045H287.508V68.6364H289.769ZM288.167 67.5909H288.837V71.75C288.837 71.9394 288.865 72.0814 288.92 72.1761C288.977 72.2689 289.049 72.3314 289.136 72.3636C289.225 72.3939 289.318 72.4091 289.417 72.4091C289.491 72.4091 289.551 72.4053 289.599 72.3977C289.646 72.3883 289.684 72.3807 289.712 72.375L289.849 72.9773C289.803 72.9943 289.74 73.0114 289.658 73.0284C289.577 73.0473 289.474 73.0568 289.349 73.0568C289.159 73.0568 288.974 73.0161 288.792 72.9347C288.612 72.8532 288.462 72.7292 288.343 72.5625C288.226 72.3958 288.167 72.1856 288.167 71.9318V67.5909ZM292.062 73.1023C291.785 73.1023 291.534 73.0502 291.309 72.946C291.084 72.84 290.905 72.6875 290.772 72.4886C290.639 72.2879 290.573 72.0455 290.573 71.7614C290.573 71.5114 290.622 71.3087 290.721 71.1534C290.819 70.9962 290.951 70.8731 291.116 70.7841C291.281 70.6951 291.462 70.6288 291.661 70.5852C291.862 70.5398 292.064 70.5038 292.266 70.4773C292.531 70.4432 292.746 70.4176 292.911 70.4006C293.078 70.3816 293.199 70.3504 293.275 70.3068C293.353 70.2633 293.391 70.1875 293.391 70.0795V70.0568C293.391 69.7765 293.315 69.5587 293.161 69.4034C293.01 69.2481 292.78 69.1705 292.471 69.1705C292.151 69.1705 291.9 69.2405 291.718 69.3807C291.536 69.5208 291.408 69.6705 291.335 69.8295L290.698 69.6023C290.812 69.3371 290.963 69.1307 291.153 68.983C291.344 68.8333 291.552 68.7292 291.778 68.6705C292.005 68.6098 292.228 68.5795 292.448 68.5795C292.588 68.5795 292.749 68.5966 292.931 68.6307C293.115 68.6629 293.292 68.7301 293.462 68.8324C293.635 68.9347 293.778 69.089 293.891 69.2955C294.005 69.5019 294.062 69.7784 294.062 70.125V73H293.391V72.4091H293.357C293.312 72.5038 293.236 72.6051 293.13 72.7131C293.024 72.821 292.883 72.9129 292.707 72.9886C292.531 73.0644 292.316 73.1023 292.062 73.1023ZM292.164 72.5C292.429 72.5 292.653 72.4479 292.835 72.3438C293.018 72.2396 293.156 72.1051 293.249 71.9403C293.344 71.7756 293.391 71.6023 293.391 71.4205V70.8068C293.363 70.8409 293.3 70.8722 293.204 70.9006C293.109 70.9271 292.999 70.9508 292.874 70.9716C292.751 70.9905 292.631 71.0076 292.513 71.0227C292.398 71.036 292.304 71.0473 292.232 71.0568C292.058 71.0795 291.895 71.1165 291.744 71.1676C291.594 71.2169 291.473 71.2917 291.38 71.392C291.289 71.4905 291.244 71.625 291.244 71.7955C291.244 72.0284 291.33 72.2045 291.502 72.3239C291.676 72.4413 291.897 72.5 292.164 72.5Z" fill="#0080FF"/>
<path d="M58.3949 112L53.4688 94.5455H56.8693L60.0142 107.372H60.1761L63.5341 94.5455H66.6278L69.9943 107.381H70.1477L73.2926 94.5455H76.6932L71.767 112H68.6477L65.1534 99.7528H65.017L61.5142 112H58.3949ZM83.2088 112.256C81.8963 112.256 80.7628 111.983 79.8082 111.438C78.8594 110.886 78.1293 110.108 77.6179 109.102C77.1065 108.091 76.8509 106.901 76.8509 105.531C76.8509 104.185 77.1065 103.003 77.6179 101.986C78.1349 100.963 78.8565 100.168 79.7827 99.5994C80.7088 99.0256 81.7969 98.7386 83.0469 98.7386C83.8537 98.7386 84.6151 98.8693 85.331 99.1307C86.0526 99.3864 86.6889 99.7841 87.2401 100.324C87.7969 100.864 88.2344 101.551 88.5526 102.386C88.8707 103.216 89.0298 104.205 89.0298 105.352V106.298H78.2997V104.219H86.0724C86.0668 103.628 85.9389 103.102 85.6889 102.642C85.4389 102.176 85.0895 101.81 84.6406 101.543C84.1974 101.276 83.6804 101.142 83.0895 101.142C82.4588 101.142 81.9048 101.295 81.4276 101.602C80.9503 101.903 80.5781 102.301 80.3111 102.795C80.0497 103.284 79.9162 103.821 79.9105 104.406V106.222C79.9105 106.983 80.0497 107.636 80.3281 108.182C80.6065 108.722 80.9957 109.136 81.4957 109.426C81.9957 109.71 82.581 109.852 83.2514 109.852C83.7003 109.852 84.1065 109.79 84.4702 109.665C84.8338 109.534 85.1491 109.344 85.4162 109.094C85.6832 108.844 85.8849 108.534 86.0213 108.165L88.902 108.489C88.7202 109.25 88.3736 109.915 87.8622 110.483C87.3565 111.045 86.7088 111.483 85.919 111.795C85.1293 112.102 84.2259 112.256 83.2088 112.256ZM97.593 112V98.9091H100.678V112H97.593ZM99.1442 97.0511C98.6555 97.0511 98.2351 96.8892 97.8828 96.5653C97.5305 96.2358 97.3544 95.8409 97.3544 95.3807C97.3544 94.9148 97.5305 94.5199 97.8828 94.196C98.2351 93.8665 98.6555 93.7017 99.1442 93.7017C99.6385 93.7017 100.059 93.8665 100.406 94.196C100.758 94.5199 100.934 94.9148 100.934 95.3807C100.934 95.8409 100.758 96.2358 100.406 96.5653C100.059 96.8892 99.6385 97.0511 99.1442 97.0511ZM106.936 104.33V112H103.851V98.9091H106.8V101.134H106.953C107.254 100.401 107.734 99.8182 108.393 99.3864C109.058 98.9545 109.879 98.7386 110.857 98.7386C111.76 98.7386 112.547 98.9318 113.217 99.3182C113.893 99.7045 114.416 100.264 114.786 100.997C115.161 101.73 115.345 102.619 115.339 103.665V112H112.254V104.142C112.254 103.267 112.027 102.582 111.572 102.088C111.124 101.594 110.501 101.347 109.706 101.347C109.166 101.347 108.686 101.466 108.266 101.705C107.851 101.937 107.524 102.276 107.286 102.719C107.053 103.162 106.936 103.699 106.936 104.33ZM129.7 98.9091L125.038 112H121.629L116.967 98.9091H120.257L123.266 108.634H123.402L126.419 98.9091H129.7ZM137.185 112.256C135.873 112.256 134.739 111.983 133.785 111.438C132.836 110.886 132.106 110.108 131.594 109.102C131.083 108.091 130.827 106.901 130.827 105.531C130.827 104.185 131.083 103.003 131.594 101.986C132.112 100.963 132.833 100.168 133.759 99.5994C134.685 99.0256 135.773 98.7386 137.023 98.7386C137.83 98.7386 138.592 98.8693 139.308 99.1307C140.029 99.3864 140.665 99.7841 141.217 100.324C141.773 100.864 142.211 101.551 142.529 102.386C142.847 103.216 143.006 104.205 143.006 105.352V106.298H132.276V104.219H140.049C140.043 103.628 139.915 103.102 139.665 102.642C139.415 102.176 139.066 101.81 138.617 101.543C138.174 101.276 137.657 101.142 137.066 101.142C136.435 101.142 135.881 101.295 135.404 101.602C134.927 101.903 134.555 102.301 134.288 102.795C134.026 103.284 133.893 103.821 133.887 104.406V106.222C133.887 106.983 134.026 107.636 134.305 108.182C134.583 108.722 134.972 109.136 135.472 109.426C135.972 109.71 136.558 109.852 137.228 109.852C137.677 109.852 138.083 109.79 138.447 109.665C138.81 109.534 139.126 109.344 139.393 109.094C139.66 108.844 139.862 108.534 139.998 108.165L142.879 108.489C142.697 109.25 142.35 109.915 141.839 110.483C141.333 111.045 140.685 111.483 139.896 111.795C139.106 112.102 138.202 112.256 137.185 112.256ZM155.963 102.369L153.151 102.676C153.071 102.392 152.932 102.125 152.733 101.875C152.54 101.625 152.278 101.423 151.949 101.27C151.619 101.116 151.216 101.04 150.739 101.04C150.097 101.04 149.557 101.179 149.119 101.457C148.688 101.736 148.474 102.097 148.48 102.54C148.474 102.92 148.614 103.23 148.898 103.469C149.188 103.707 149.665 103.903 150.33 104.057L152.562 104.534C153.801 104.801 154.722 105.224 155.324 105.804C155.932 106.384 156.239 107.142 156.244 108.08C156.239 108.903 155.997 109.631 155.52 110.261C155.048 110.886 154.392 111.375 153.551 111.727C152.71 112.08 151.744 112.256 150.653 112.256C149.051 112.256 147.761 111.92 146.784 111.25C145.807 110.574 145.224 109.634 145.037 108.429L148.045 108.139C148.182 108.73 148.472 109.176 148.915 109.477C149.358 109.778 149.935 109.929 150.645 109.929C151.378 109.929 151.966 109.778 152.409 109.477C152.858 109.176 153.082 108.804 153.082 108.361C153.082 107.986 152.938 107.676 152.648 107.432C152.364 107.187 151.92 107 151.318 106.869L149.085 106.401C147.83 106.139 146.901 105.699 146.298 105.08C145.696 104.455 145.398 103.665 145.403 102.71C145.398 101.903 145.616 101.205 146.06 100.614C146.509 100.017 147.131 99.5568 147.926 99.233C148.727 98.9034 149.651 98.7386 150.696 98.7386C152.23 98.7386 153.438 99.0653 154.318 99.7188C155.205 100.372 155.753 101.256 155.963 102.369ZM165.325 98.9091V101.295H157.8V98.9091H165.325ZM159.658 95.7727H162.743V108.062C162.743 108.477 162.805 108.795 162.93 109.017C163.061 109.233 163.232 109.381 163.442 109.46C163.652 109.54 163.885 109.58 164.141 109.58C164.334 109.58 164.51 109.565 164.669 109.537C164.834 109.509 164.959 109.483 165.044 109.46L165.564 111.872C165.399 111.929 165.163 111.991 164.857 112.06C164.555 112.128 164.186 112.168 163.749 112.179C162.976 112.202 162.28 112.085 161.661 111.83C161.041 111.568 160.55 111.165 160.186 110.619C159.828 110.074 159.652 109.392 159.658 108.574V95.7727ZM173.859 112V98.9091H176.944V112H173.859ZM175.41 97.0511C174.921 97.0511 174.501 96.8892 174.148 96.5653C173.796 96.2358 173.62 95.8409 173.62 95.3807C173.62 94.9148 173.796 94.5199 174.148 94.196C174.501 93.8665 174.921 93.7017 175.41 93.7017C175.904 93.7017 176.325 93.8665 176.671 94.196C177.023 94.5199 177.2 94.9148 177.2 95.3807C177.2 95.8409 177.023 96.2358 176.671 96.5653C176.325 96.8892 175.904 97.0511 175.41 97.0511ZM183.202 104.33V112H180.116V98.9091H183.065V101.134H183.219C183.52 100.401 184 99.8182 184.659 99.3864C185.324 98.9545 186.145 98.7386 187.122 98.7386C188.026 98.7386 188.813 98.9318 189.483 99.3182C190.159 99.7045 190.682 100.264 191.051 100.997C191.426 101.73 191.611 102.619 191.605 103.665V112H188.52V104.142C188.52 103.267 188.293 102.582 187.838 102.088C187.389 101.594 186.767 101.347 185.972 101.347C185.432 101.347 184.952 101.466 184.531 101.705C184.116 101.937 183.79 102.276 183.551 102.719C183.318 103.162 183.202 103.699 183.202 104.33ZM207.232 98.9091V101.295H199.706V98.9091H207.232ZM201.564 95.7727H204.649V108.062C204.649 108.477 204.712 108.795 204.837 109.017C204.967 109.233 205.138 109.381 205.348 109.46C205.558 109.54 205.791 109.58 206.047 109.58C206.24 109.58 206.416 109.565 206.575 109.537C206.74 109.509 206.865 109.483 206.95 109.46L207.47 111.872C207.305 111.929 207.07 111.991 206.763 112.06C206.462 112.128 206.092 112.168 205.655 112.179C204.882 112.202 204.186 112.085 203.567 111.83C202.947 111.568 202.456 111.165 202.092 110.619C201.734 110.074 201.558 109.392 201.564 108.574V95.7727ZM213.178 104.33V112H210.093V94.5455H213.11V101.134H213.263C213.57 100.395 214.045 99.8125 214.687 99.3864C215.335 98.9545 216.158 98.7386 217.158 98.7386C218.067 98.7386 218.86 98.929 219.536 99.3097C220.212 99.6903 220.735 100.247 221.104 100.98C221.479 101.713 221.667 102.608 221.667 103.665V112H218.582V104.142C218.582 103.261 218.354 102.577 217.9 102.088C217.451 101.594 216.82 101.347 216.008 101.347C215.462 101.347 214.974 101.466 214.542 101.705C214.116 101.937 213.781 102.276 213.536 102.719C213.298 103.162 213.178 103.699 213.178 104.33ZM230.607 112.256C229.295 112.256 228.161 111.983 227.207 111.438C226.258 110.886 225.528 110.108 225.016 109.102C224.505 108.091 224.249 106.901 224.249 105.531C224.249 104.185 224.505 103.003 225.016 101.986C225.533 100.963 226.255 100.168 227.181 99.5994C228.107 99.0256 229.195 98.7386 230.445 98.7386C231.252 98.7386 232.013 98.8693 232.729 99.1307C233.451 99.3864 234.087 99.7841 234.638 100.324C235.195 100.864 235.633 101.551 235.951 102.386C236.269 103.216 236.428 104.205 236.428 105.352V106.298H225.698V104.219H233.471C233.465 103.628 233.337 103.102 233.087 102.642C232.837 102.176 232.488 101.81 232.039 101.543C231.596 101.276 231.079 101.142 230.488 101.142C229.857 101.142 229.303 101.295 228.826 101.602C228.349 101.903 227.977 102.301 227.71 102.795C227.448 103.284 227.315 103.821 227.309 104.406V106.222C227.309 106.983 227.448 107.636 227.727 108.182C228.005 108.722 228.394 109.136 228.894 109.426C229.394 109.71 229.979 109.852 230.65 109.852C231.099 109.852 231.505 109.79 231.869 109.665C232.232 109.534 232.548 109.344 232.815 109.094C233.082 108.844 233.283 108.534 233.42 108.165L236.3 108.489C236.119 109.25 235.772 109.915 235.261 110.483C234.755 111.045 234.107 111.483 233.317 111.795C232.528 112.102 231.624 112.256 230.607 112.256ZM247.693 112L243.994 98.9091H247.139L249.44 108.114H249.56L251.912 98.9091H255.023L257.375 108.062H257.503L259.77 98.9091H262.923L259.216 112H256.003L253.548 103.153H253.369L250.915 112H247.693ZM270.413 112.256C269.134 112.256 268.026 111.974 267.089 111.412C266.151 110.849 265.424 110.062 264.907 109.051C264.396 108.04 264.14 106.858 264.14 105.506C264.14 104.153 264.396 102.969 264.907 101.952C265.424 100.935 266.151 100.145 267.089 99.5824C268.026 99.0199 269.134 98.7386 270.413 98.7386C271.691 98.7386 272.799 99.0199 273.737 99.5824C274.674 100.145 275.398 100.935 275.91 101.952C276.427 102.969 276.685 104.153 276.685 105.506C276.685 106.858 276.427 108.04 275.91 109.051C275.398 110.062 274.674 110.849 273.737 111.412C272.799 111.974 271.691 112.256 270.413 112.256ZM270.43 109.784C271.123 109.784 271.702 109.594 272.168 109.213C272.634 108.827 272.981 108.31 273.208 107.662C273.441 107.014 273.558 106.293 273.558 105.497C273.558 104.696 273.441 103.972 273.208 103.324C272.981 102.67 272.634 102.151 272.168 101.764C271.702 101.378 271.123 101.185 270.43 101.185C269.719 101.185 269.129 101.378 268.657 101.764C268.191 102.151 267.842 102.67 267.609 103.324C267.381 103.972 267.268 104.696 267.268 105.497C267.268 106.293 267.381 107.014 267.609 107.662C267.842 108.31 268.191 108.827 268.657 109.213C269.129 109.594 269.719 109.784 270.43 109.784ZM279.304 112V98.9091H282.295V101.091H282.432C282.67 100.335 283.08 99.7528 283.659 99.3438C284.244 98.929 284.912 98.7216 285.662 98.7216C285.832 98.7216 286.023 98.7301 286.233 98.7472C286.449 98.7585 286.628 98.7784 286.77 98.8068V101.645C286.639 101.599 286.432 101.56 286.148 101.526C285.869 101.486 285.599 101.466 285.338 101.466C284.776 101.466 284.27 101.588 283.821 101.832C283.378 102.071 283.028 102.403 282.773 102.83C282.517 103.256 282.389 103.747 282.389 104.304V112H279.304ZM291.905 94.5455V112H288.82V94.5455H291.905ZM299.935 112.23C298.907 112.23 297.987 111.966 297.174 111.438C296.362 110.909 295.719 110.142 295.248 109.136C294.776 108.131 294.54 106.909 294.54 105.472C294.54 104.017 294.779 102.79 295.256 101.79C295.739 100.784 296.39 100.026 297.208 99.5142C298.026 98.9972 298.938 98.7386 299.944 98.7386C300.711 98.7386 301.342 98.8693 301.836 99.1307C302.33 99.3864 302.722 99.696 303.012 100.06C303.302 100.418 303.526 100.756 303.685 101.074H303.813V94.5455H306.907V112H303.873V109.938H303.685C303.526 110.256 303.296 110.594 302.995 110.952C302.694 111.304 302.296 111.605 301.802 111.855C301.308 112.105 300.685 112.23 299.935 112.23ZM300.796 109.699C301.45 109.699 302.006 109.523 302.467 109.17C302.927 108.812 303.276 108.315 303.515 107.679C303.754 107.043 303.873 106.301 303.873 105.455C303.873 104.608 303.754 103.872 303.515 103.247C303.282 102.622 302.935 102.136 302.475 101.79C302.021 101.443 301.461 101.27 300.796 101.27C300.109 101.27 299.535 101.449 299.075 101.807C298.614 102.165 298.268 102.659 298.035 103.29C297.802 103.92 297.685 104.642 297.685 105.455C297.685 106.273 297.802 107.003 298.035 107.645C298.273 108.281 298.623 108.784 299.083 109.153C299.549 109.517 300.12 109.699 300.796 109.699ZM312.811 94.5455V96.2841C312.811 96.7841 312.714 97.304 312.521 97.8438C312.334 98.3778 312.075 98.8892 311.746 99.3778C311.416 99.8608 311.041 100.276 310.621 100.622L309.189 99.6932C309.501 99.2216 309.774 98.7131 310.007 98.1676C310.24 97.6165 310.357 96.9943 310.357 96.3011V94.5455H312.811ZM323.963 102.369L321.151 102.676C321.071 102.392 320.932 102.125 320.733 101.875C320.54 101.625 320.278 101.423 319.949 101.27C319.619 101.116 319.216 101.04 318.739 101.04C318.097 101.04 317.557 101.179 317.119 101.457C316.688 101.736 316.474 102.097 316.48 102.54C316.474 102.92 316.614 103.23 316.898 103.469C317.188 103.707 317.665 103.903 318.33 104.057L320.562 104.534C321.801 104.801 322.722 105.224 323.324 105.804C323.932 106.384 324.239 107.142 324.244 108.08C324.239 108.903 323.997 109.631 323.52 110.261C323.048 110.886 322.392 111.375 321.551 111.727C320.71 112.08 319.744 112.256 318.653 112.256C317.051 112.256 315.761 111.92 314.784 111.25C313.807 110.574 313.224 109.634 313.037 108.429L316.045 108.139C316.182 108.73 316.472 109.176 316.915 109.477C317.358 109.778 317.935 109.929 318.645 109.929C319.378 109.929 319.966 109.778 320.409 109.477C320.858 109.176 321.082 108.804 321.082 108.361C321.082 107.986 320.938 107.676 320.648 107.432C320.364 107.187 319.92 107 319.318 106.869L317.085 106.401C315.83 106.139 314.901 105.699 314.298 105.08C313.696 104.455 313.398 103.665 313.403 102.71C313.398 101.903 313.616 101.205 314.06 100.614C314.509 100.017 315.131 99.5568 315.926 99.233C316.727 98.9034 317.651 98.7386 318.696 98.7386C320.23 98.7386 321.438 99.0653 322.318 99.7188C323.205 100.372 323.753 101.256 323.963 102.369ZM332.741 116.909V98.9091H335.776V101.074H335.955C336.114 100.756 336.338 100.418 336.628 100.06C336.918 99.696 337.31 99.3864 337.804 99.1307C338.298 98.8693 338.929 98.7386 339.696 98.7386C340.707 98.7386 341.619 98.9972 342.432 99.5142C343.25 100.026 343.898 100.784 344.375 101.79C344.858 102.79 345.099 104.017 345.099 105.472C345.099 106.909 344.864 108.131 344.392 109.136C343.92 110.142 343.278 110.909 342.466 111.438C341.653 111.966 340.733 112.23 339.705 112.23C338.955 112.23 338.332 112.105 337.838 111.855C337.344 111.605 336.946 111.304 336.645 110.952C336.349 110.594 336.119 110.256 335.955 109.938H335.827V116.909H332.741ZM335.767 105.455C335.767 106.301 335.886 107.043 336.125 107.679C336.369 108.315 336.719 108.812 337.173 109.17C337.634 109.523 338.19 109.699 338.844 109.699C339.526 109.699 340.097 109.517 340.557 109.153C341.017 108.784 341.364 108.281 341.597 107.645C341.835 107.003 341.955 106.273 341.955 105.455C341.955 104.642 341.838 103.92 341.605 103.29C341.372 102.659 341.026 102.165 340.565 101.807C340.105 101.449 339.531 101.27 338.844 101.27C338.185 101.27 337.625 101.443 337.165 101.79C336.705 102.136 336.355 102.622 336.116 103.247C335.884 103.872 335.767 104.608 335.767 105.455ZM353.452 112.256C352.173 112.256 351.065 111.974 350.128 111.412C349.19 110.849 348.463 110.062 347.946 109.051C347.435 108.04 347.179 106.858 347.179 105.506C347.179 104.153 347.435 102.969 347.946 101.952C348.463 100.935 349.19 100.145 350.128 99.5824C351.065 99.0199 352.173 98.7386 353.452 98.7386C354.73 98.7386 355.838 99.0199 356.776 99.5824C357.713 100.145 358.438 100.935 358.949 101.952C359.466 102.969 359.724 104.153 359.724 105.506C359.724 106.858 359.466 108.04 358.949 109.051C358.438 110.062 357.713 110.849 356.776 111.412C355.838 111.974 354.73 112.256 353.452 112.256ZM353.469 109.784C354.162 109.784 354.741 109.594 355.207 109.213C355.673 108.827 356.02 108.31 356.247 107.662C356.48 107.014 356.597 106.293 356.597 105.497C356.597 104.696 356.48 103.972 356.247 103.324C356.02 102.67 355.673 102.151 355.207 101.764C354.741 101.378 354.162 101.185 353.469 101.185C352.759 101.185 352.168 101.378 351.696 101.764C351.23 102.151 350.881 102.67 350.648 103.324C350.42 103.972 350.307 104.696 350.307 105.497C350.307 106.293 350.42 107.014 350.648 107.662C350.881 108.31 351.23 108.827 351.696 109.213C352.168 109.594 352.759 109.784 353.469 109.784ZM368.88 98.9091V101.295H361.354V98.9091H368.88ZM363.212 95.7727H366.298V108.062C366.298 108.477 366.36 108.795 366.485 109.017C366.616 109.233 366.786 109.381 366.996 109.46C367.207 109.54 367.44 109.58 367.695 109.58C367.888 109.58 368.065 109.565 368.224 109.537C368.388 109.509 368.513 109.483 368.599 109.46L369.119 111.872C368.954 111.929 368.718 111.991 368.411 112.06C368.11 112.128 367.741 112.168 367.303 112.179C366.531 112.202 365.835 112.085 365.215 111.83C364.596 111.568 364.104 111.165 363.741 110.619C363.383 110.074 363.207 109.392 363.212 108.574V95.7727ZM377.115 112.256C375.803 112.256 374.669 111.983 373.714 111.438C372.766 110.886 372.036 110.108 371.524 109.102C371.013 108.091 370.757 106.901 370.757 105.531C370.757 104.185 371.013 103.003 371.524 101.986C372.041 100.963 372.763 100.168 373.689 99.5994C374.615 99.0256 375.703 98.7386 376.953 98.7386C377.76 98.7386 378.521 98.8693 379.237 99.1307C379.959 99.3864 380.595 99.7841 381.146 100.324C381.703 100.864 382.141 101.551 382.459 102.386C382.777 103.216 382.936 104.205 382.936 105.352V106.298H372.206V104.219H379.979C379.973 103.628 379.845 103.102 379.595 102.642C379.345 102.176 378.996 101.81 378.547 101.543C378.104 101.276 377.587 101.142 376.996 101.142C376.365 101.142 375.811 101.295 375.334 101.602C374.857 101.903 374.484 102.301 374.217 102.795C373.956 103.284 373.822 103.821 373.817 104.406V106.222C373.817 106.983 373.956 107.636 374.234 108.182C374.513 108.722 374.902 109.136 375.402 109.426C375.902 109.71 376.487 109.852 377.158 109.852C377.607 109.852 378.013 109.79 378.376 109.665C378.74 109.534 379.055 109.344 379.322 109.094C379.589 108.844 379.791 108.534 379.928 108.165L382.808 108.489C382.626 109.25 382.28 109.915 381.768 110.483C381.263 111.045 380.615 111.483 379.825 111.795C379.036 112.102 378.132 112.256 377.115 112.256ZM388.631 104.33V112H385.546V98.9091H388.495V101.134H388.648C388.95 100.401 389.43 99.8182 390.089 99.3864C390.754 98.9545 391.575 98.7386 392.552 98.7386C393.455 98.7386 394.242 98.9318 394.913 99.3182C395.589 99.7045 396.112 100.264 396.481 100.997C396.856 101.73 397.04 102.619 397.035 103.665V112H393.95V104.142C393.95 103.267 393.722 102.582 393.268 102.088C392.819 101.594 392.197 101.347 391.401 101.347C390.862 101.347 390.381 101.466 389.961 101.705C389.546 101.937 389.219 102.276 388.981 102.719C388.748 103.162 388.631 103.699 388.631 104.33ZM406.708 98.9091V101.295H399.183V98.9091H406.708ZM401.04 95.7727H404.126V108.062C404.126 108.477 404.188 108.795 404.313 109.017C404.444 109.233 404.614 109.381 404.825 109.46C405.035 109.54 405.268 109.58 405.523 109.58C405.717 109.58 405.893 109.565 406.052 109.537C406.217 109.509 406.342 109.483 406.427 109.46L406.947 111.872C406.782 111.929 406.546 111.991 406.239 112.06C405.938 112.128 405.569 112.168 405.131 112.179C404.359 112.202 403.663 112.085 403.043 111.83C402.424 111.568 401.933 111.165 401.569 110.619C401.211 110.074 401.035 109.392 401.04 108.574V95.7727ZM409.288 112V98.9091H412.374V112H409.288ZM410.839 97.0511C410.351 97.0511 409.93 96.8892 409.578 96.5653C409.226 96.2358 409.05 95.8409 409.05 95.3807C409.05 94.9148 409.226 94.5199 409.578 94.196C409.93 93.8665 410.351 93.7017 410.839 93.7017C411.334 93.7017 411.754 93.8665 412.101 94.196C412.453 94.5199 412.629 94.9148 412.629 95.3807C412.629 95.8409 412.453 96.2358 412.101 96.5653C411.754 96.8892 411.334 97.0511 410.839 97.0511ZM419.313 112.264C418.484 112.264 417.737 112.116 417.072 111.821C416.413 111.52 415.89 111.077 415.504 110.491C415.123 109.906 414.933 109.185 414.933 108.327C414.933 107.588 415.069 106.977 415.342 106.494C415.614 106.011 415.987 105.625 416.458 105.335C416.93 105.045 417.461 104.827 418.052 104.679C418.648 104.526 419.265 104.415 419.901 104.347C420.668 104.267 421.29 104.196 421.768 104.134C422.245 104.065 422.592 103.963 422.808 103.827C423.029 103.685 423.14 103.466 423.14 103.17V103.119C423.14 102.477 422.95 101.98 422.569 101.628C422.188 101.276 421.64 101.099 420.924 101.099C420.168 101.099 419.569 101.264 419.126 101.594C418.688 101.923 418.393 102.312 418.239 102.761L415.359 102.352C415.586 101.557 415.961 100.892 416.484 100.358C417.006 99.8182 417.646 99.4148 418.401 99.1477C419.157 98.875 419.992 98.7386 420.907 98.7386C421.538 98.7386 422.165 98.8125 422.79 98.9602C423.415 99.108 423.987 99.3523 424.504 99.6932C425.021 100.028 425.435 100.486 425.748 101.065C426.066 101.645 426.225 102.369 426.225 103.239V112H423.259V110.202H423.157C422.969 110.565 422.705 110.906 422.364 111.224C422.029 111.537 421.606 111.79 421.094 111.983C420.589 112.17 419.995 112.264 419.313 112.264ZM420.114 109.997C420.734 109.997 421.271 109.875 421.725 109.631C422.18 109.381 422.529 109.051 422.773 108.642C423.023 108.233 423.148 107.787 423.148 107.304V105.761C423.052 105.841 422.887 105.915 422.654 105.983C422.427 106.051 422.171 106.111 421.887 106.162C421.603 106.213 421.322 106.259 421.043 106.298C420.765 106.338 420.523 106.372 420.319 106.401C419.859 106.463 419.447 106.565 419.083 106.707C418.719 106.849 418.433 107.048 418.222 107.304C418.012 107.554 417.907 107.878 417.907 108.276C417.907 108.844 418.114 109.273 418.529 109.562C418.944 109.852 419.472 109.997 420.114 109.997ZM432.413 94.5455V112H429.327V94.5455H432.413Z" fill="white"/>
<rect x="64" y="130" width="360" height="7" rx="3.5" fill="#606368"/>
<rect x="80" y="142" width="330" height="7" rx="3.5" fill="#606368"/>
<path d="M221.788 229.891V237H220.846V229.891H221.788ZM224.767 233.089V233.86H221.583V233.089H224.767ZM225.25 229.891V230.662H221.583V229.891H225.25ZM230.89 236.233V237H227.125V236.233H230.89ZM227.315 229.891V237H226.373V229.891H227.315ZM230.392 232.947V233.714H227.125V232.947H230.392ZM230.841 229.891V230.662H227.125V229.891H230.841ZM234.688 230.521L232.335 237H231.373L234.083 229.891H234.703L234.688 230.521ZM236.661 237L234.303 230.521L234.288 229.891H234.908L237.628 237H236.661ZM236.539 234.368V235.14H232.545V234.368H236.539ZM240.572 229.891V237H239.645V229.891H240.572ZM242.857 229.891V230.662H237.364V229.891H242.857ZM247.979 229.891H248.917V234.7C248.917 235.234 248.798 235.678 248.561 236.033C248.323 236.388 248.007 236.655 247.613 236.834C247.223 237.01 246.798 237.098 246.339 237.098C245.857 237.098 245.421 237.01 245.03 236.834C244.643 236.655 244.335 236.388 244.107 236.033C243.883 235.678 243.771 235.234 243.771 234.7V229.891H244.703V234.7C244.703 235.071 244.771 235.377 244.908 235.618C245.045 235.859 245.235 236.038 245.479 236.155C245.727 236.272 246.013 236.331 246.339 236.331C246.668 236.331 246.954 236.272 247.198 236.155C247.446 236.038 247.638 235.859 247.774 235.618C247.911 235.377 247.979 235.071 247.979 234.7V229.891ZM250.396 229.891H252.75C253.284 229.891 253.735 229.972 254.103 230.135C254.474 230.298 254.755 230.538 254.947 230.857C255.143 231.173 255.24 231.562 255.24 232.024C255.24 232.35 255.174 232.648 255.04 232.918C254.91 233.185 254.721 233.413 254.474 233.602C254.229 233.787 253.937 233.925 253.595 234.017L253.331 234.119H251.119L251.109 233.353H252.779C253.118 233.353 253.399 233.294 253.624 233.177C253.849 233.056 254.018 232.895 254.132 232.693C254.246 232.492 254.303 232.269 254.303 232.024C254.303 231.751 254.249 231.512 254.142 231.307C254.034 231.102 253.865 230.944 253.634 230.833C253.406 230.719 253.111 230.662 252.75 230.662H251.339V237H250.396V229.891ZM254.552 237L252.823 233.777L253.805 233.772L255.558 236.941V237H254.552ZM261.075 236.233V237H257.311V236.233H261.075ZM257.501 229.891V237H256.559V229.891H257.501ZM260.577 232.947V233.714H257.311V232.947H260.577ZM261.026 229.891V230.662H257.311V229.891H261.026ZM264.166 237H262.682L262.691 236.233H264.166C264.674 236.233 265.097 236.128 265.436 235.916C265.774 235.701 266.028 235.402 266.197 235.018C266.37 234.63 266.456 234.178 266.456 233.66V233.226C266.456 232.819 266.407 232.457 266.31 232.142C266.212 231.823 266.069 231.554 265.88 231.336C265.691 231.115 265.46 230.947 265.187 230.833C264.916 230.719 264.605 230.662 264.254 230.662H262.652V229.891H264.254C264.719 229.891 265.144 229.969 265.528 230.125C265.912 230.278 266.243 230.501 266.52 230.794C266.799 231.084 267.014 231.435 267.164 231.849C267.314 232.259 267.389 232.721 267.389 233.235V233.66C267.389 234.174 267.314 234.638 267.164 235.052C267.014 235.462 266.798 235.812 266.515 236.102C266.235 236.391 265.896 236.614 265.499 236.771C265.105 236.924 264.661 237 264.166 237ZM263.185 229.891V237H262.242V229.891H263.185Z" fill="white"/>
<path d="M166 171C166 167.686 168.686 165 172 165H228C231.314 165 234 167.686 234 171V179C234 182.314 231.314 185 228 185H172C168.686 185 166 182.314 166 179V171Z" fill="#0080FF"/>
<path d="M181.355 177.31V178H178.156V177.31H181.355ZM178.323 171.602V178H177.475V171.602H178.323ZM184.176 178.088C183.845 178.088 183.545 178.032 183.275 177.921C183.009 177.807 182.779 177.647 182.585 177.442C182.395 177.237 182.249 176.994 182.146 176.712C182.043 176.431 181.992 176.124 181.992 175.79V175.605C181.992 175.218 182.049 174.874 182.164 174.572C182.278 174.268 182.433 174.01 182.629 173.799C182.826 173.588 183.048 173.428 183.297 173.32C183.546 173.211 183.804 173.157 184.071 173.157C184.411 173.157 184.704 173.216 184.95 173.333C185.199 173.45 185.402 173.614 185.561 173.825C185.719 174.033 185.836 174.279 185.912 174.563C185.988 174.845 186.026 175.152 186.026 175.486V175.851H182.476V175.188H185.213V175.126C185.202 174.915 185.158 174.71 185.082 174.511C185.008 174.312 184.891 174.147 184.73 174.019C184.569 173.89 184.349 173.825 184.071 173.825C183.886 173.825 183.716 173.865 183.561 173.944C183.406 174.02 183.272 174.134 183.161 174.287C183.05 174.439 182.963 174.625 182.902 174.845C182.84 175.064 182.81 175.318 182.81 175.605V175.79C182.81 176.015 182.84 176.228 182.902 176.427C182.966 176.623 183.059 176.796 183.179 176.945C183.302 177.095 183.45 177.212 183.623 177.297C183.798 177.382 183.998 177.424 184.22 177.424C184.507 177.424 184.75 177.366 184.95 177.249C185.149 177.131 185.323 176.975 185.473 176.778L185.965 177.169C185.862 177.325 185.732 177.473 185.574 177.613C185.416 177.754 185.221 177.868 184.989 177.956C184.761 178.044 184.49 178.088 184.176 178.088ZM189.779 177.187V174.739C189.779 174.552 189.741 174.389 189.665 174.251C189.592 174.111 189.48 174.002 189.331 173.926C189.182 173.85 188.997 173.812 188.777 173.812C188.572 173.812 188.392 173.847 188.237 173.917C188.084 173.988 187.964 174.08 187.876 174.194C187.792 174.309 187.749 174.432 187.749 174.563H186.936C186.936 174.394 186.98 174.225 187.068 174.058C187.156 173.891 187.282 173.74 187.446 173.605C187.613 173.468 187.812 173.359 188.043 173.28C188.278 173.198 188.539 173.157 188.826 173.157C189.171 173.157 189.476 173.216 189.74 173.333C190.006 173.45 190.214 173.627 190.364 173.865C190.516 174.099 190.592 174.394 190.592 174.748V176.963C190.592 177.121 190.605 177.29 190.632 177.468C190.661 177.647 190.704 177.801 190.759 177.93V178H189.911C189.87 177.906 189.838 177.782 189.814 177.626C189.791 177.468 189.779 177.322 189.779 177.187ZM189.92 175.117L189.929 175.688H189.107C188.875 175.688 188.669 175.708 188.487 175.746C188.306 175.781 188.153 175.835 188.03 175.908C187.907 175.981 187.813 176.074 187.749 176.185C187.685 176.293 187.652 176.421 187.652 176.567C187.652 176.717 187.686 176.853 187.753 176.976C187.821 177.099 187.922 177.197 188.057 177.271C188.194 177.341 188.363 177.376 188.562 177.376C188.811 177.376 189.031 177.323 189.221 177.218C189.412 177.112 189.562 176.983 189.674 176.831C189.788 176.679 189.85 176.531 189.858 176.387L190.206 176.778C190.185 176.901 190.129 177.038 190.039 177.187C189.948 177.336 189.826 177.48 189.674 177.618C189.524 177.752 189.346 177.865 189.138 177.956C188.933 178.044 188.701 178.088 188.443 178.088C188.121 178.088 187.838 178.025 187.595 177.899C187.355 177.773 187.167 177.604 187.033 177.394C186.901 177.18 186.835 176.941 186.835 176.677C186.835 176.422 186.885 176.198 186.984 176.005C187.084 175.809 187.228 175.646 187.415 175.517C187.603 175.385 187.828 175.286 188.092 175.218C188.355 175.151 188.65 175.117 188.975 175.117H189.92ZM192.684 173.992V178H191.871V173.245H192.662L192.684 173.992ZM194.169 173.219L194.165 173.975C194.098 173.96 194.033 173.951 193.972 173.948C193.913 173.942 193.846 173.939 193.77 173.939C193.582 173.939 193.417 173.969 193.273 174.027C193.129 174.086 193.008 174.168 192.908 174.273C192.809 174.379 192.729 174.505 192.671 174.651C192.615 174.795 192.579 174.953 192.561 175.126L192.333 175.258C192.333 174.971 192.36 174.701 192.416 174.449C192.475 174.197 192.564 173.975 192.684 173.781C192.804 173.585 192.957 173.433 193.141 173.324C193.329 173.213 193.551 173.157 193.809 173.157C193.868 173.157 193.935 173.165 194.011 173.179C194.087 173.191 194.14 173.204 194.169 173.219ZM195.734 174.26V178H194.921V173.245H195.69L195.734 174.26ZM195.541 175.442L195.202 175.429C195.205 175.104 195.253 174.804 195.347 174.528C195.441 174.25 195.573 174.008 195.743 173.803C195.913 173.598 196.115 173.44 196.349 173.329C196.586 173.214 196.849 173.157 197.136 173.157C197.37 173.157 197.581 173.189 197.769 173.254C197.956 173.315 198.116 173.415 198.248 173.553C198.382 173.69 198.485 173.869 198.555 174.089C198.625 174.306 198.661 174.571 198.661 174.884V178H197.843V174.875C197.843 174.626 197.807 174.427 197.733 174.278C197.66 174.125 197.553 174.016 197.413 173.948C197.272 173.878 197.099 173.843 196.894 173.843C196.692 173.843 196.507 173.885 196.34 173.97C196.176 174.055 196.034 174.172 195.914 174.322C195.797 174.471 195.705 174.643 195.637 174.836C195.573 175.026 195.541 175.229 195.541 175.442ZM202.937 174.19V178H202.119V173.245H202.893L202.937 174.19ZM202.77 175.442L202.392 175.429C202.395 175.104 202.437 174.804 202.519 174.528C202.601 174.25 202.723 174.008 202.884 173.803C203.045 173.598 203.246 173.44 203.486 173.329C203.726 173.214 204.004 173.157 204.321 173.157C204.543 173.157 204.749 173.189 204.936 173.254C205.124 173.315 205.286 173.414 205.424 173.548C205.562 173.683 205.668 173.856 205.745 174.067C205.821 174.278 205.859 174.533 205.859 174.832V178H205.046V174.871C205.046 174.622 205.003 174.423 204.918 174.273C204.836 174.124 204.719 174.016 204.567 173.948C204.415 173.878 204.236 173.843 204.031 173.843C203.791 173.843 203.59 173.885 203.429 173.97C203.268 174.055 203.139 174.172 203.042 174.322C202.945 174.471 202.875 174.643 202.831 174.836C202.79 175.026 202.77 175.229 202.77 175.442ZM205.85 174.994L205.305 175.161C205.308 174.9 205.351 174.65 205.433 174.41C205.518 174.169 205.639 173.956 205.797 173.768C205.958 173.581 206.156 173.433 206.391 173.324C206.625 173.213 206.893 173.157 207.195 173.157C207.45 173.157 207.675 173.191 207.872 173.258C208.071 173.326 208.238 173.43 208.373 173.57C208.51 173.708 208.614 173.885 208.685 174.102C208.755 174.319 208.79 174.577 208.79 174.875V178H207.973V174.867C207.973 174.6 207.93 174.394 207.845 174.247C207.763 174.098 207.646 173.994 207.494 173.935C207.344 173.874 207.166 173.843 206.958 173.843C206.779 173.843 206.621 173.874 206.483 173.935C206.345 173.997 206.229 174.082 206.136 174.19C206.042 174.295 205.97 174.417 205.92 174.555C205.874 174.692 205.85 174.839 205.85 174.994ZM209.805 175.675V175.574C209.805 175.231 209.855 174.914 209.955 174.621C210.054 174.325 210.198 174.068 210.385 173.852C210.573 173.632 210.8 173.462 211.066 173.342C211.333 173.219 211.632 173.157 211.963 173.157C212.297 173.157 212.597 173.219 212.864 173.342C213.133 173.462 213.362 173.632 213.549 173.852C213.74 174.068 213.885 174.325 213.984 174.621C214.084 174.914 214.134 175.231 214.134 175.574V175.675C214.134 176.018 214.084 176.336 213.984 176.629C213.885 176.922 213.74 177.178 213.549 177.398C213.362 177.615 213.135 177.785 212.868 177.908C212.604 178.028 212.306 178.088 211.972 178.088C211.638 178.088 211.337 178.028 211.071 177.908C210.804 177.785 210.576 177.615 210.385 177.398C210.198 177.178 210.054 176.922 209.955 176.629C209.855 176.336 209.805 176.018 209.805 175.675ZM210.618 175.574V175.675C210.618 175.913 210.646 176.137 210.702 176.348C210.757 176.556 210.841 176.74 210.952 176.901C211.066 177.062 211.208 177.19 211.378 177.284C211.548 177.375 211.746 177.42 211.972 177.42C212.194 177.42 212.389 177.375 212.556 177.284C212.726 177.19 212.867 177.062 212.978 176.901C213.089 176.74 213.173 176.556 213.229 176.348C213.287 176.137 213.316 175.913 213.316 175.675V175.574C213.316 175.34 213.287 175.119 213.229 174.911C213.173 174.7 213.088 174.514 212.974 174.353C212.862 174.188 212.722 174.06 212.552 173.966C212.385 173.872 212.188 173.825 211.963 173.825C211.74 173.825 211.544 173.872 211.374 173.966C211.207 174.06 211.066 174.188 210.952 174.353C210.841 174.514 210.757 174.7 210.702 174.911C210.646 175.119 210.618 175.34 210.618 175.574ZM215.966 173.992V178H215.153V173.245H215.944L215.966 173.992ZM217.452 173.219L217.447 173.975C217.38 173.96 217.315 173.951 217.254 173.948C217.195 173.942 217.128 173.939 217.052 173.939C216.864 173.939 216.699 173.969 216.555 174.027C216.412 174.086 216.29 174.168 216.19 174.273C216.091 174.379 216.012 174.505 215.953 174.651C215.897 174.795 215.861 174.953 215.843 175.126L215.615 175.258C215.615 174.971 215.643 174.701 215.698 174.449C215.757 174.197 215.846 173.975 215.966 173.781C216.086 173.585 216.239 173.433 216.423 173.324C216.611 173.213 216.833 173.157 217.091 173.157C217.15 173.157 217.217 173.165 217.293 173.179C217.37 173.191 217.422 173.204 217.452 173.219ZM220.088 178.088C219.757 178.088 219.457 178.032 219.188 177.921C218.921 177.807 218.691 177.647 218.498 177.442C218.307 177.237 218.161 176.994 218.058 176.712C217.956 176.431 217.904 176.124 217.904 175.79V175.605C217.904 175.218 217.961 174.874 218.076 174.572C218.19 174.268 218.345 174.01 218.542 173.799C218.738 173.588 218.96 173.428 219.209 173.32C219.458 173.211 219.716 173.157 219.983 173.157C220.323 173.157 220.616 173.216 220.862 173.333C221.111 173.45 221.314 173.614 221.473 173.825C221.631 174.033 221.748 174.279 221.824 174.563C221.9 174.845 221.938 175.152 221.938 175.486V175.851H218.388V175.188H221.125V175.126C221.114 174.915 221.07 174.71 220.994 174.511C220.92 174.312 220.803 174.147 220.642 174.019C220.481 173.89 220.261 173.825 219.983 173.825C219.798 173.825 219.628 173.865 219.473 173.944C219.318 174.02 219.185 174.134 219.073 174.287C218.962 174.439 218.875 174.625 218.814 174.845C218.752 175.064 218.722 175.318 218.722 175.605V175.79C218.722 176.015 218.752 176.228 218.814 176.427C218.878 176.623 218.971 176.796 219.091 176.945C219.214 177.095 219.362 177.212 219.535 177.297C219.71 177.382 219.91 177.424 220.132 177.424C220.419 177.424 220.663 177.366 220.862 177.249C221.061 177.131 221.235 176.975 221.385 176.778L221.877 177.169C221.774 177.325 221.644 177.473 221.486 177.613C221.328 177.754 221.133 177.868 220.901 177.956C220.673 178.044 220.402 178.088 220.088 178.088Z" fill="white"/>
<path d="M254 171C254 167.686 256.686 165 260 165H316C319.314 165 322 167.686 322 171V179C322 182.314 319.314 185 316 185H260C256.686 185 254 182.314 254 179V171Z" fill="white"/>
<path d="M265.369 176.066L266.639 171.602H267.254L266.898 173.337L265.532 178H264.921L265.369 176.066ZM264.055 171.602L265.066 175.979L265.369 178H264.763L263.211 171.602H264.055ZM268.898 175.974L269.887 171.602H270.735L269.188 178H268.582L268.898 175.974ZM267.347 171.602L268.582 176.066L269.03 178H268.419L267.101 173.337L266.74 171.602H267.347ZM274.207 177.187V174.739C274.207 174.552 274.168 174.389 274.092 174.251C274.019 174.111 273.908 174.002 273.758 173.926C273.609 173.85 273.424 173.812 273.205 173.812C273 173.812 272.819 173.847 272.664 173.917C272.512 173.988 272.392 174.08 272.304 174.194C272.219 174.309 272.176 174.432 272.176 174.563H271.363C271.363 174.394 271.407 174.225 271.495 174.058C271.583 173.891 271.709 173.74 271.873 173.605C272.04 173.468 272.239 173.359 272.471 173.28C272.705 173.198 272.966 173.157 273.253 173.157C273.599 173.157 273.903 173.216 274.167 173.333C274.434 173.45 274.642 173.627 274.791 173.865C274.943 174.099 275.02 174.394 275.02 174.748V176.963C275.02 177.121 275.033 177.29 275.059 177.468C275.088 177.647 275.131 177.801 275.187 177.93V178H274.338C274.297 177.906 274.265 177.782 274.242 177.626C274.218 177.468 274.207 177.322 274.207 177.187ZM274.347 175.117L274.356 175.688H273.534C273.303 175.688 273.096 175.708 272.915 175.746C272.733 175.781 272.581 175.835 272.458 175.908C272.334 175.981 272.241 176.074 272.176 176.185C272.112 176.293 272.08 176.421 272.08 176.567C272.08 176.717 272.113 176.853 272.181 176.976C272.248 177.099 272.349 177.197 272.484 177.271C272.622 177.341 272.79 177.376 272.989 177.376C273.238 177.376 273.458 177.323 273.648 177.218C273.839 177.112 273.99 176.983 274.101 176.831C274.215 176.679 274.277 176.531 274.286 176.387L274.633 176.778C274.612 176.901 274.557 177.038 274.466 177.187C274.375 177.336 274.253 177.48 274.101 177.618C273.952 177.752 273.773 177.865 273.565 177.956C273.36 178.044 273.128 178.088 272.871 178.088C272.548 178.088 272.266 178.025 272.022 177.899C271.782 177.773 271.595 177.604 271.46 177.394C271.328 177.18 271.262 176.941 271.262 176.677C271.262 176.422 271.312 176.198 271.412 176.005C271.511 175.809 271.655 175.646 271.842 175.517C272.03 175.385 272.255 175.286 272.519 175.218C272.783 175.151 273.077 175.117 273.402 175.117H274.347ZM278.289 173.245V173.869H275.718V173.245H278.289ZM276.588 172.089H277.401V176.822C277.401 176.983 277.426 177.105 277.476 177.187C277.526 177.269 277.59 177.323 277.669 177.35C277.749 177.376 277.833 177.389 277.924 177.389C277.992 177.389 278.062 177.383 278.135 177.372C278.211 177.357 278.269 177.345 278.307 177.336L278.311 178C278.247 178.021 278.162 178.04 278.056 178.057C277.954 178.078 277.829 178.088 277.683 178.088C277.483 178.088 277.3 178.048 277.133 177.969C276.966 177.89 276.833 177.758 276.733 177.574C276.637 177.386 276.588 177.134 276.588 176.818V172.089ZM281.146 177.42C281.339 177.42 281.518 177.38 281.682 177.301C281.846 177.222 281.98 177.114 282.086 176.976C282.191 176.835 282.251 176.676 282.266 176.497H283.04C283.025 176.778 282.93 177.041 282.754 177.284C282.581 177.524 282.354 177.719 282.073 177.868C281.792 178.015 281.482 178.088 281.146 178.088C280.788 178.088 280.476 178.025 280.209 177.899C279.946 177.773 279.726 177.6 279.55 177.38C279.377 177.161 279.247 176.909 279.159 176.625C279.074 176.337 279.032 176.034 279.032 175.715V175.53C279.032 175.211 279.074 174.909 279.159 174.625C279.247 174.338 279.377 174.084 279.55 173.865C279.726 173.645 279.946 173.472 280.209 173.346C280.476 173.22 280.788 173.157 281.146 173.157C281.518 173.157 281.843 173.233 282.121 173.386C282.399 173.535 282.618 173.74 282.776 174.001C282.937 174.259 283.025 174.552 283.04 174.88H282.266C282.251 174.684 282.196 174.506 282.099 174.348C282.005 174.19 281.876 174.064 281.712 173.97C281.551 173.874 281.362 173.825 281.146 173.825C280.896 173.825 280.687 173.875 280.517 173.975C280.35 174.071 280.217 174.203 280.117 174.37C280.021 174.534 279.95 174.717 279.906 174.919C279.865 175.119 279.845 175.322 279.845 175.53V175.715C279.845 175.923 279.865 176.128 279.906 176.33C279.947 176.532 280.016 176.715 280.113 176.879C280.212 177.043 280.346 177.175 280.513 177.275C280.683 177.372 280.894 177.42 281.146 177.42ZM284.767 171.25V178H283.954V171.25H284.767ZM284.573 175.442L284.235 175.429C284.238 175.104 284.286 174.804 284.38 174.528C284.474 174.25 284.605 174.008 284.775 173.803C284.945 173.598 285.147 173.44 285.382 173.329C285.619 173.214 285.881 173.157 286.168 173.157C286.403 173.157 286.614 173.189 286.801 173.254C286.989 173.315 287.148 173.415 287.28 173.553C287.415 173.69 287.518 173.869 287.588 174.089C287.658 174.306 287.693 174.571 287.693 174.884V178H286.876V174.875C286.876 174.626 286.839 174.427 286.766 174.278C286.693 174.125 286.586 174.016 286.445 173.948C286.305 173.878 286.132 173.843 285.927 173.843C285.725 173.843 285.54 173.885 285.373 173.97C285.209 174.055 285.067 174.172 284.947 174.322C284.83 174.471 284.737 174.643 284.67 174.836C284.605 175.026 284.573 175.229 284.573 175.442ZM292.589 177.266L293.89 173.245H294.72L293.011 178H292.466L292.589 177.266ZM291.503 173.245L292.844 177.288L292.936 178H292.391L290.668 173.245H291.503ZM296.386 173.245V178H295.568V173.245H296.386ZM295.507 171.984C295.507 171.852 295.546 171.741 295.625 171.65C295.708 171.559 295.828 171.514 295.986 171.514C296.141 171.514 296.26 171.559 296.342 171.65C296.427 171.741 296.469 171.852 296.469 171.984C296.469 172.11 296.427 172.218 296.342 172.309C296.26 172.397 296.141 172.441 295.986 172.441C295.828 172.441 295.708 172.397 295.625 172.309C295.546 172.218 295.507 172.11 295.507 171.984ZM300.688 177.077V171.25H301.505V178H300.758L300.688 177.077ZM297.489 175.675V175.583C297.489 175.22 297.533 174.89 297.621 174.594C297.711 174.295 297.839 174.039 298.003 173.825C298.17 173.611 298.368 173.447 298.596 173.333C298.828 173.216 299.085 173.157 299.37 173.157C299.668 173.157 299.929 173.21 300.152 173.315C300.377 173.418 300.568 173.569 300.723 173.768C300.881 173.964 301.006 174.202 301.097 174.48C301.188 174.758 301.25 175.073 301.286 175.425V175.829C301.253 176.178 301.19 176.491 301.097 176.77C301.006 177.048 300.881 177.285 300.723 177.481C300.568 177.678 300.377 177.829 300.152 177.934C299.926 178.037 299.663 178.088 299.361 178.088C299.083 178.088 298.828 178.028 298.596 177.908C298.368 177.788 298.17 177.619 298.003 177.402C297.839 177.186 297.711 176.931 297.621 176.638C297.533 176.342 297.489 176.021 297.489 175.675ZM298.306 175.583V175.675C298.306 175.913 298.33 176.135 298.376 176.343C298.426 176.551 298.502 176.734 298.605 176.893C298.708 177.051 298.838 177.175 298.996 177.266C299.154 177.354 299.343 177.398 299.563 177.398C299.833 177.398 300.054 177.341 300.227 177.227C300.402 177.112 300.543 176.961 300.648 176.774C300.754 176.586 300.836 176.383 300.895 176.163V175.104C300.859 174.943 300.808 174.788 300.741 174.638C300.676 174.486 300.591 174.351 300.486 174.234C300.383 174.114 300.256 174.019 300.104 173.948C299.954 173.878 299.777 173.843 299.572 173.843C299.349 173.843 299.157 173.89 298.996 173.983C298.838 174.074 298.708 174.2 298.605 174.361C298.502 174.52 298.426 174.704 298.376 174.915C298.33 175.123 298.306 175.346 298.306 175.583ZM304.744 178.088C304.413 178.088 304.113 178.032 303.843 177.921C303.577 177.807 303.347 177.647 303.153 177.442C302.963 177.237 302.816 176.994 302.714 176.712C302.611 176.431 302.56 176.124 302.56 175.79V175.605C302.56 175.218 302.617 174.874 302.731 174.572C302.846 174.268 303.001 174.01 303.197 173.799C303.394 173.588 303.616 173.428 303.865 173.32C304.114 173.211 304.372 173.157 304.639 173.157C304.979 173.157 305.271 173.216 305.518 173.333C305.767 173.45 305.97 173.614 306.128 173.825C306.287 174.033 306.404 174.279 306.48 174.563C306.556 174.845 306.594 175.152 306.594 175.486V175.851H303.043V175.188H305.781V175.126C305.77 174.915 305.726 174.71 305.649 174.511C305.576 174.312 305.459 174.147 305.298 174.019C305.137 173.89 304.917 173.825 304.639 173.825C304.454 173.825 304.284 173.865 304.129 173.944C303.974 174.02 303.84 174.134 303.729 174.287C303.618 174.439 303.531 174.625 303.47 174.845C303.408 175.064 303.377 175.318 303.377 175.605V175.79C303.377 176.015 303.408 176.228 303.47 176.427C303.534 176.623 303.626 176.796 303.747 176.945C303.87 177.095 304.018 177.212 304.19 177.297C304.366 177.382 304.565 177.424 304.788 177.424C305.075 177.424 305.318 177.366 305.518 177.249C305.717 177.131 305.891 176.975 306.041 176.778L306.533 177.169C306.43 177.325 306.3 177.473 306.142 177.613C305.983 177.754 305.789 177.868 305.557 177.956C305.329 178.044 305.058 178.088 304.744 178.088ZM307.328 175.675V175.574C307.328 175.231 307.378 174.914 307.478 174.621C307.577 174.325 307.721 174.068 307.908 173.852C308.096 173.632 308.323 173.462 308.589 173.342C308.856 173.219 309.155 173.157 309.486 173.157C309.82 173.157 310.12 173.219 310.387 173.342C310.656 173.462 310.885 173.632 311.072 173.852C311.263 174.068 311.408 174.325 311.507 174.621C311.607 174.914 311.657 175.231 311.657 175.574V175.675C311.657 176.018 311.607 176.336 311.507 176.629C311.408 176.922 311.263 177.178 311.072 177.398C310.885 177.615 310.658 177.785 310.391 177.908C310.127 178.028 309.829 178.088 309.495 178.088C309.161 178.088 308.86 178.028 308.594 177.908C308.327 177.785 308.099 177.615 307.908 177.398C307.721 177.178 307.577 176.922 307.478 176.629C307.378 176.336 307.328 176.018 307.328 175.675ZM308.141 175.574V175.675C308.141 175.913 308.169 176.137 308.225 176.348C308.28 176.556 308.364 176.74 308.475 176.901C308.589 177.062 308.731 177.19 308.901 177.284C309.071 177.375 309.269 177.42 309.495 177.42C309.717 177.42 309.912 177.375 310.079 177.284C310.249 177.19 310.39 177.062 310.501 176.901C310.612 176.74 310.696 176.556 310.751 176.348C310.81 176.137 310.839 175.913 310.839 175.675V175.574C310.839 175.34 310.81 175.119 310.751 174.911C310.696 174.7 310.611 174.514 310.497 174.353C310.385 174.188 310.245 174.06 310.075 173.966C309.908 173.872 309.711 173.825 309.486 173.825C309.263 173.825 309.067 173.872 308.897 173.966C308.73 174.06 308.589 174.188 308.475 174.353C308.364 174.514 308.28 174.7 308.225 174.911C308.169 175.119 308.141 175.34 308.141 175.574Z" fill="#858585"/>
<path d="M280.667 273.88C280.773 274 280.773 274.253 280.667 274.4C279.693 275.333 277.88 275.413 277.333 275.413C276.813 275.413 275 275.333 274.053 274.4C273.92 274.253 273.92 274 274.053 273.88C274.2 273.747 274.427 273.747 274.56 273.88C275.173 274.493 276.44 274.667 277.333 274.667C278.253 274.667 279.547 274.493 280.133 273.88C280.28 273.747 280.507 273.747 280.667 273.88ZM275.667 270.72C275.667 269.96 275.04 269.333 274.28 269.333C273.52 269.333 272.893 269.96 272.893 270.72C272.893 271.48 273.52 272.12 274.28 272.107C275.04 272.107 275.667 271.48 275.667 270.72ZM280.387 269.333C279.627 269.333 279 270 279 270.733C279 271.467 279.627 272.12 280.387 272.12C281.147 272.12 281.773 271.48 281.773 270.733C281.773 270 281.147 269.333 280.387 269.333ZM290.667 269.333C290.667 276.667 284.667 282.667 277.333 282.667C270 282.667 264 276.667 264 269.333C264 262 270 256 277.333 256C284.667 256 290.667 262 290.667 269.333ZM286.227 269.333C286.227 268.253 285.333 267.387 284.293 267.387C283.76 267.387 283.28 267.6 282.933 267.933C281.6 266.973 279.773 266.36 277.733 266.28L278.627 262.107L281.52 262.733C281.547 263.467 282.16 264.053 282.907 264.053C283.667 264.053 284.293 263.427 284.293 262.667C284.293 261.907 283.667 261.28 282.907 261.28C282.36 261.28 281.88 261.6 281.667 262.067L278.427 261.373C278.333 261.333 278.24 261.373 278.173 261.427C278.093 261.48 278.053 261.56 278.04 261.653L277.053 266.293C274.987 266.36 273.12 266.973 271.76 267.947C271.413 267.613 270.933 267.413 270.413 267.413C269.333 267.413 268.467 268.28 268.467 269.333C268.467 270.147 268.947 270.813 269.613 271.12C269.587 271.333 269.573 271.493 269.573 271.707C269.573 274.667 273.053 277.133 277.333 277.133C281.64 277.133 285.133 274.707 285.133 271.707C285.133 271.52 285.12 271.333 285.08 271.12C285.747 270.813 286.227 270.133 286.227 269.333Z" fill="#687680"/>
<path d="M300.417 275V265.182H302.264V266.741H302.366C302.545 266.213 302.861 265.798 303.312 265.495C303.768 265.188 304.284 265.035 304.859 265.035C304.979 265.035 305.119 265.039 305.281 265.048C305.447 265.056 305.577 265.067 305.671 265.08V266.908C305.594 266.886 305.458 266.863 305.262 266.837C305.066 266.808 304.87 266.793 304.674 266.793C304.222 266.793 303.82 266.888 303.466 267.08C303.116 267.268 302.839 267.53 302.635 267.866C302.43 268.199 302.328 268.578 302.328 269.004V275H300.417ZM311.385 275.198C310.418 275.198 309.585 274.991 308.886 274.578C308.191 274.161 307.654 273.575 307.275 272.82C306.9 272.062 306.712 271.173 306.712 270.155C306.712 269.149 306.9 268.263 307.275 267.496C307.654 266.729 308.183 266.13 308.86 265.7C309.542 265.269 310.339 265.054 311.251 265.054C311.805 265.054 312.342 265.146 312.862 265.329C313.381 265.512 313.848 265.8 314.261 266.192C314.675 266.584 315.001 267.093 315.239 267.719C315.478 268.342 315.597 269.098 315.597 269.989V270.666H307.793V269.234H313.724C313.724 268.732 313.622 268.286 313.418 267.898C313.213 267.506 312.925 267.197 312.555 266.972C312.188 266.746 311.758 266.633 311.264 266.633C310.727 266.633 310.258 266.765 309.857 267.029C309.461 267.289 309.154 267.63 308.937 268.052C308.724 268.469 308.617 268.923 308.617 269.413V270.532C308.617 271.188 308.732 271.746 308.962 272.207C309.197 272.667 309.523 273.018 309.94 273.261C310.358 273.5 310.846 273.619 311.404 273.619C311.766 273.619 312.097 273.568 312.395 273.466C312.693 273.359 312.951 273.202 313.168 272.993C313.386 272.784 313.552 272.526 313.667 272.219L315.476 272.545C315.331 273.078 315.071 273.545 314.696 273.945C314.325 274.342 313.859 274.651 313.296 274.872C312.738 275.089 312.101 275.198 311.385 275.198ZM321.573 275.192C320.781 275.192 320.073 274.989 319.451 274.585C318.833 274.175 318.347 273.594 317.994 272.839C317.644 272.081 317.47 271.171 317.47 270.11C317.47 269.049 317.647 268.141 318 267.387C318.358 266.633 318.848 266.055 319.47 265.655C320.093 265.254 320.798 265.054 321.586 265.054C322.196 265.054 322.686 265.156 323.056 265.361C323.431 265.561 323.721 265.795 323.926 266.064C324.134 266.332 324.296 266.569 324.411 266.773H324.526V261.909H326.438V275H324.571V273.472H324.411C324.296 273.681 324.13 273.92 323.913 274.188C323.7 274.457 323.406 274.691 323.031 274.891C322.656 275.092 322.17 275.192 321.573 275.192ZM321.995 273.562C322.545 273.562 323.009 273.417 323.389 273.127C323.772 272.833 324.062 272.426 324.258 271.906C324.458 271.386 324.558 270.781 324.558 270.091C324.558 269.409 324.46 268.812 324.264 268.301C324.068 267.79 323.781 267.391 323.401 267.106C323.022 266.82 322.553 266.678 321.995 266.678C321.42 266.678 320.941 266.827 320.557 267.125C320.173 267.423 319.884 267.83 319.688 268.346C319.496 268.862 319.4 269.443 319.4 270.091C319.4 270.747 319.498 271.337 319.694 271.862C319.89 272.386 320.18 272.801 320.563 273.108C320.951 273.411 321.428 273.562 321.995 273.562ZM333.021 275.192C332.228 275.192 331.521 274.989 330.899 274.585C330.281 274.175 329.795 273.594 329.441 272.839C329.092 272.081 328.917 271.171 328.917 270.11C328.917 269.049 329.094 268.141 329.448 267.387C329.806 266.633 330.296 266.055 330.918 265.655C331.54 265.254 332.245 265.054 333.034 265.054C333.643 265.054 334.133 265.156 334.504 265.361C334.879 265.561 335.169 265.795 335.373 266.064C335.582 266.332 335.744 266.569 335.859 266.773H335.974V261.909H337.885V275H336.019V273.472H335.859C335.744 273.681 335.578 273.92 335.36 274.188C335.147 274.457 334.853 274.691 334.478 274.891C334.103 275.092 333.618 275.192 333.021 275.192ZM333.443 273.562C333.993 273.562 334.457 273.417 334.836 273.127C335.22 272.833 335.51 272.426 335.706 271.906C335.906 271.386 336.006 270.781 336.006 270.091C336.006 269.409 335.908 268.812 335.712 268.301C335.516 267.79 335.228 267.391 334.849 267.106C334.47 266.82 334.001 266.678 333.443 266.678C332.868 266.678 332.388 266.827 332.005 267.125C331.621 267.423 331.331 267.83 331.135 268.346C330.944 268.862 330.848 269.443 330.848 270.091C330.848 270.747 330.946 271.337 331.142 271.862C331.338 272.386 331.627 272.801 332.011 273.108C332.399 273.411 332.876 273.562 333.443 273.562ZM340.793 275V265.182H342.704V275H340.793ZM341.758 263.667C341.426 263.667 341.14 263.556 340.902 263.335C340.667 263.109 340.55 262.84 340.55 262.529C340.55 262.214 340.667 261.945 340.902 261.724C341.14 261.498 341.426 261.385 341.758 261.385C342.091 261.385 342.374 261.498 342.608 261.724C342.847 261.945 342.966 262.214 342.966 262.529C342.966 262.84 342.847 263.109 342.608 263.335C342.374 263.556 342.091 263.667 341.758 263.667ZM350.039 265.182V266.716H344.676V265.182H350.039ZM346.114 262.83H348.025V272.117C348.025 272.488 348.081 272.767 348.191 272.955C348.302 273.138 348.445 273.263 348.62 273.332C348.799 273.396 348.992 273.428 349.201 273.428C349.355 273.428 349.489 273.417 349.604 273.396C349.719 273.374 349.808 273.357 349.872 273.344L350.218 274.923C350.107 274.966 349.949 275.009 349.745 275.051C349.54 275.098 349.284 275.124 348.978 275.128C348.475 275.136 348.006 275.047 347.571 274.859C347.137 274.672 346.785 274.382 346.517 273.99C346.248 273.598 346.114 273.106 346.114 272.513V262.83Z" fill="#6B7280"/>
<path d="M150.333 273L157.253 269L150.333 265V273ZM165.747 262.56C165.92 263.187 166.04 264.027 166.12 265.093C166.213 266.16 166.253 267.08 166.253 267.88L166.333 269C166.333 271.92 166.12 274.067 165.747 275.44C165.413 276.64 164.64 277.413 163.44 277.747C162.813 277.92 161.667 278.04 159.907 278.12C158.173 278.213 156.587 278.253 155.12 278.253L153 278.333C147.413 278.333 143.933 278.12 142.56 277.747C141.36 277.413 140.587 276.64 140.253 275.44C140.08 274.813 139.96 273.973 139.88 272.907C139.787 271.84 139.747 270.92 139.747 270.12L139.667 269C139.667 266.08 139.88 263.933 140.253 262.56C140.587 261.36 141.36 260.587 142.56 260.253C143.187 260.08 144.333 259.96 146.093 259.88C147.827 259.787 149.413 259.747 150.88 259.747L153 259.667C158.587 259.667 162.067 259.88 163.44 260.253C164.64 260.587 165.413 261.36 165.747 262.56Z" fill="#66727F"/>
<path d="M174.21 263.152C173.911 262.648 174.048 262.396 174.623 262.396H176.161C176.465 262.396 176.735 262.599 176.969 263.003L178.841 266.264C178.894 266.352 179.049 266.627 179.307 267.09C179.565 267.547 179.714 267.992 179.755 268.426H179.791C179.832 267.992 179.981 267.547 180.239 267.09C180.497 266.627 180.652 266.352 180.705 266.264L182.577 263.003C182.811 262.599 183.081 262.396 183.385 262.396H184.923C185.498 262.396 185.635 262.648 185.337 263.152L181.056 270.386V274.517C181.056 274.839 180.851 275 180.441 275H179.105C178.695 275 178.49 274.839 178.49 274.517V270.386L174.21 263.152ZM182.833 270.386C182.833 268.892 183.217 267.72 183.985 266.87C184.758 266.021 185.907 265.596 187.43 265.596C188.954 265.596 190.099 266.021 190.867 266.87C191.64 267.72 192.027 268.892 192.027 270.386C192.027 271.88 191.64 273.052 190.867 273.901C190.099 274.751 188.954 275.176 187.43 275.176C185.907 275.176 184.758 274.751 183.985 273.901C183.217 273.052 182.833 271.88 182.833 270.386ZM185.435 270.386C185.435 271.499 185.605 272.29 185.945 272.759C186.29 273.222 186.786 273.453 187.43 273.453C188.075 273.453 188.567 273.222 188.907 272.759C189.252 272.29 189.425 271.499 189.425 270.386C189.425 269.272 189.252 268.484 188.907 268.021C188.567 267.553 188.075 267.318 187.43 267.318C186.786 267.318 186.29 267.553 185.945 268.021C185.605 268.484 185.435 269.272 185.435 270.386ZM192.108 271.168V266.299C192.108 265.947 192.283 265.771 192.635 265.771H194.041C194.393 265.771 194.569 265.947 194.569 266.299V270.535C194.569 271.812 194.656 272.618 194.832 272.952C195.008 273.286 195.377 273.453 195.94 273.453C196.537 273.453 196.991 273.216 197.302 272.741C197.612 272.261 197.768 271.268 197.768 269.762V266.299C197.768 265.947 197.944 265.771 198.295 265.771H199.701C200.053 265.771 200.229 265.947 200.229 266.299V274.473C200.229 274.824 200.053 275 199.701 275H198.313C197.961 275 197.785 274.824 197.785 274.473V273.963H197.75C197.481 274.426 197.138 274.745 196.722 274.921C196.306 275.091 195.814 275.176 195.245 275.176C194.349 275.176 193.602 274.889 193.004 274.314C192.406 273.74 192.108 272.691 192.108 271.168ZM200.582 264.646C200.143 264.646 199.923 264.456 199.923 264.075V262.968C199.923 262.587 200.143 262.396 200.582 262.396H209.617C210.057 262.396 210.276 262.587 210.276 262.968V264.075C210.276 264.456 210.057 264.646 209.617 264.646H206.383V274.517C206.383 274.839 206.236 275 205.943 275H204.256C203.963 275 203.816 274.839 203.816 274.517V264.646H200.582ZM207.176 271.168V266.299C207.176 265.947 207.351 265.771 207.703 265.771H209.109C209.461 265.771 209.637 265.947 209.637 266.299V270.535C209.637 271.812 209.724 272.618 209.9 272.952C210.076 273.286 210.445 273.453 211.008 273.453C211.605 273.453 212.059 273.216 212.37 272.741C212.68 272.261 212.836 271.268 212.836 269.762V266.299C212.836 265.947 213.012 265.771 213.363 265.771H214.769C215.121 265.771 215.297 265.947 215.297 266.299V274.473C215.297 274.824 215.121 275 214.769 275H213.381C213.029 275 212.853 274.824 212.853 274.473V273.963H212.818C212.549 274.426 212.206 274.745 211.79 274.921C211.374 275.091 210.882 275.176 210.313 275.176C209.417 275.176 208.67 274.889 208.072 274.314C207.474 273.74 207.176 272.691 207.176 271.168ZM216.415 275C216.063 275 215.887 274.824 215.887 274.473V262.555C215.887 262.203 216.063 262.027 216.415 262.027H217.821C218.172 262.027 218.348 262.203 218.348 262.555V266.105C218.348 266.34 218.337 266.574 218.313 266.809H218.348C218.653 266.305 218.993 265.977 219.368 265.824C219.743 265.672 220.194 265.596 220.721 265.596C222.098 265.596 223.065 266.073 223.622 267.028C224.184 267.978 224.465 269.097 224.465 270.386C224.465 271.675 224.184 272.797 223.622 273.752C223.065 274.701 222.098 275.176 220.721 275.176C220.194 275.176 219.743 275.1 219.368 274.947C218.993 274.795 218.653 274.467 218.348 273.963H218.313L218.278 274.473C218.254 274.824 218.096 275 217.803 275H216.415ZM218.348 270.781C218.348 271.572 218.504 272.217 218.814 272.715C219.13 273.207 219.508 273.453 219.948 273.453C220.739 273.453 221.254 273.178 221.495 272.627C221.741 272.07 221.864 271.323 221.864 270.386C221.864 269.448 221.741 268.704 221.495 268.153C221.254 267.597 220.739 267.318 219.948 267.318C219.508 267.318 219.13 267.567 218.814 268.065C218.504 268.558 218.348 269.199 218.348 269.99V270.781ZM224.072 270.386C224.072 268.903 224.441 267.734 225.179 266.879C225.923 266.023 226.972 265.596 228.326 265.596C229.896 265.596 231.062 266 231.824 266.809C232.585 267.617 232.966 268.918 232.966 270.711C232.966 271.062 232.802 271.238 232.474 271.238H226.673C226.767 272.211 227.007 272.823 227.394 273.075C227.781 273.327 228.229 273.453 228.739 273.453C229.225 273.453 229.597 273.389 229.855 273.26C230.113 273.131 230.329 272.955 230.505 272.732C230.704 272.475 230.951 272.434 231.244 272.609L232.122 273.146C232.468 273.356 232.518 273.608 232.272 273.901C231.914 274.329 231.496 274.648 231.015 274.859C230.535 275.07 229.776 275.176 228.739 275.176C227.057 275.176 225.859 274.748 225.144 273.893C224.429 273.037 224.072 271.868 224.072 270.386ZM226.682 269.48H230.505C230.505 268.848 230.347 268.332 230.031 267.934C229.714 267.529 229.21 267.327 228.519 267.327C227.968 267.327 227.532 267.521 227.209 267.907C226.887 268.288 226.711 268.812 226.682 269.48Z" fill="#6B7280"/>
</svg>
