<svg xmlns="http://www.w3.org/2000/svg" width="172" height="171" fill="none" viewBox="0 0 172 171"><path fill="#01E0CB" fill-rule="evenodd" d="M85.6636 170.884C105.14 170.884 123.094 164.366 137.462 153.391L124.712 140.641C113.709 148.394 100.289 152.948 85.806 152.948C71.2195 152.948 57.7117 148.329 46.6654 140.475L33.7996 153.34C48.1788 164.346 66.1576 170.884 85.6636 170.884ZM17.6955 137.205L30.5656 124.335C22.7694 113.314 18.1884 99.8572 18.1884 85.3304C18.1884 70.8469 22.7421 57.4271 30.4958 46.4243L17.7457 33.6743C6.77083 48.0426 0.251953 65.9964 0.251953 85.4727C0.251953 104.919 6.75096 122.848 17.6955 137.205ZM171.075 85.4727C171.075 104.949 164.556 122.903 153.582 137.271L140.88 124.569C148.777 113.505 153.424 99.9603 153.424 85.3304C153.424 70.7439 148.805 57.2361 140.95 46.1898L153.531 33.6086C164.537 47.9879 171.075 65.9667 171.075 85.4727ZM137.396 17.5046C123.039 6.56004 105.11 0.0610352 85.6636 0.0610352C66.1873 0.0610352 48.2336 6.5799 33.8653 17.5547L46.5669 30.2563C57.6314 22.359 71.1761 17.7128 85.806 17.7128C100.333 17.7128 113.79 22.2938 124.811 30.0899L137.396 17.5046Z" clip-rule="evenodd"/><path fill="#000" d="M107.016 85.4728C107.016 97.2657 97.4564 106.826 85.6635 106.826C73.8706 106.826 64.3105 97.2657 64.3105 85.4728C64.3105 73.6799 73.8706 64.1199 85.6635 64.1199C97.4564 64.1199 107.016 73.6799 107.016 85.4728Z"/><path fill="#0080FF" fill-rule="evenodd" d="M78.3418 32.5173C54.6677 35.7365 35.928 54.4762 32.709 78.1503H50.6419C53.5633 64.3412 64.4923 53.4875 78.3418 50.6763V32.5173ZM120.277 78.1503C117.375 64.4361 106.576 53.6368 92.8617 50.7354V32.5173C116.536 35.7364 135.276 54.4761 138.495 78.1503H120.277ZM92.8617 120.37C106.671 117.448 117.524 106.52 120.336 92.6703H138.495C135.275 116.344 116.536 135.084 92.8617 138.303V120.37ZM50.5829 92.6703C53.4135 106.615 64.3973 117.599 78.3418 120.429V138.303C54.6678 135.084 35.9282 116.344 32.709 92.6703H50.5829Z" clip-rule="evenodd"/></svg>