<svg xmlns="http://www.w3.org/2000/svg" width="287" height="177" fill="none" viewBox="0 0 287 177"><path fill="#fff" stroke="#ABABAB" stroke-width=".4" d="M1 1H286V176H1V1Z"/><path fill="#606368" fill-opacity=".07" stroke="#ABABAB" stroke-dasharray="6 6" stroke-width=".4" d="M53.4689 175.696C52.4911 175.291 51.709 174.509 51.3035 173.531L51.4883 173.455C51.3026 173.007 51.2 172.516 51.2 172V169.062H51V163.188H51.2V157.312H51V151.438H51.2V145.562H51V139.688H51.2V133.812H51V127.938H51.2V122.062H51V116.188H51.2V110.312H51V104.438H51.2V98.5625H51V92.6875H51.2V86.8125H51V80.9375H51.2V78C51.2 77.4844 51.3026 76.9932 51.4883 76.5455L51.3035 76.4688C51.709 75.4911 52.4911 74.709 53.4688 74.3035L53.5455 74.4883C53.9932 74.3026 54.4844 74.2 55 74.2H58.0394V74H64.1184V74.2H70.1973V74H76.2763V74.2H82.3552V74H88.4342V74.2H94.5131V74H100.592V74.2H106.671V74H112.75V74.2H118.829V74H124.908V74.2H130.987V74H137.066V74.2H143.145V74H149.224V74.2H155.303V74H161.382V74.2H167.46V74H173.539V74.2H179.618V74H185.697V74.2H191.776V74H197.855V74.2H203.934V74H210.013V74.2H216.092V74H222.171V74.2H228.25V74H234.329V74.2H240.408V74H246.487V74.2H252.566V74H258.645V74.2H264.724V74H270.803V74.2H276.882V74H282.961V74.2H285.8V76.8333H286V82.5H285.8V88.1667H286V93.8333H285.8V99.5H286V105.167H285.8V110.833H286V116.5H285.8V122.167H286V127.833H285.8V133.5H286V139.167H285.8V144.833H286V150.5H285.8V156.167H286V161.833H285.8V167.5H286V173.167H285.8V175.8H282.961V176H276.882V175.8H270.803V176H264.724V175.8H258.645V176H252.566V175.8H246.487V176H240.408V175.8H234.329V176H228.25V175.8H222.171V176H216.092V175.8H210.013V176H203.934V175.8H197.855V176H191.776V175.8H185.697V176H179.618V175.8H173.54V176H167.461V175.8H161.382V176H155.303V175.8H149.224V176H143.145V175.8H137.066V176H130.987V175.8H124.908V176H118.829V175.8H112.75V176H106.671V175.8H100.592V176H94.5132V175.8H88.4342V176H82.3553V175.8H76.2763V176H70.1974V175.8H64.1184V176H58.0395V175.8H55C54.4844 175.8 53.9932 175.697 53.5455 175.512L53.4689 175.696Z"/><path fill="#6B7280" fill-opacity=".5" d="M199.118 151.882V130.706H185L209.706 106L234.412 130.706H220.294V151.882H199.118ZM185 166V158.941H234.412V166H185Z"/><path fill="#6B7280" d="M216.989 48.6364V53H216.477L214.099 49.5739H214.057V53H213.528V48.6364H214.04L216.426 52.071H216.469V48.6364H216.989ZM219.307 53.0682C219.012 53.0682 218.753 52.9979 218.53 52.8572C218.308 52.7166 218.135 52.5199 218.01 52.267C217.886 52.0142 217.824 51.7187 217.824 51.3807C217.824 51.0398 217.886 50.7422 218.01 50.4879C218.135 50.2337 218.308 50.0362 218.53 49.8956C218.753 49.755 219.012 49.6847 219.307 49.6847C219.603 49.6847 219.861 49.755 220.083 49.8956C220.306 50.0362 220.479 50.2337 220.603 50.4879C220.728 50.7422 220.79 51.0398 220.79 51.3807C220.79 51.7187 220.728 52.0142 220.603 52.267C220.479 52.5199 220.306 52.7166 220.083 52.8572C219.861 52.9979 219.603 53.0682 219.307 53.0682ZM219.307 52.6165C219.532 52.6165 219.716 52.5589 219.861 52.4439C220.006 52.3288 220.113 52.1776 220.183 51.9901C220.253 51.8026 220.287 51.5994 220.287 51.3807C220.287 51.1619 220.253 50.9581 220.183 50.7692C220.113 50.5803 220.006 50.4276 219.861 50.3111C219.716 50.1946 219.532 50.1364 219.307 50.1364C219.083 50.1364 218.898 50.1946 218.753 50.3111C218.608 50.4276 218.501 50.5803 218.432 50.7692C218.362 50.9581 218.327 51.1619 218.327 51.3807C218.327 51.5994 218.362 51.8026 218.432 51.9901C218.501 52.1776 218.608 52.3288 218.753 52.4439C218.898 52.5589 219.083 52.6165 219.307 52.6165ZM224.703 49.7273V50.1534H222.939V49.7273H224.703ZM223.467 53V49.2756C223.467 49.0881 223.511 48.9318 223.599 48.8068C223.687 48.6818 223.801 48.5881 223.942 48.5256C224.083 48.4631 224.231 48.4318 224.387 48.4318C224.511 48.4318 224.612 48.4418 224.69 48.4616C224.768 48.4815 224.826 48.5 224.865 48.517L224.72 48.9517C224.694 48.9432 224.659 48.9325 224.613 48.9197C224.569 48.907 224.511 48.9006 224.439 48.9006C224.272 48.9006 224.152 48.9425 224.078 49.0263C224.006 49.1101 223.97 49.233 223.97 49.3949V53H223.467ZM225.407 53V49.7273H225.91V53H225.407ZM225.663 49.1818C225.565 49.1818 225.481 49.1484 225.41 49.0817C225.34 49.0149 225.305 48.9347 225.305 48.8409C225.305 48.7472 225.34 48.6669 225.41 48.6001C225.481 48.5334 225.565 48.5 225.663 48.5C225.761 48.5 225.845 48.5334 225.915 48.6001C225.986 48.6669 226.021 48.7472 226.021 48.8409C226.021 48.9347 225.986 49.0149 225.915 49.0817C225.845 49.1484 225.761 49.1818 225.663 49.1818ZM227.334 48.6364V53H226.831V48.6364H227.334ZM229.627 53.0682C229.312 53.0682 229.04 52.9986 228.811 52.8594C228.584 52.7188 228.409 52.5227 228.285 52.2713C228.163 52.0185 228.102 51.7244 228.102 51.3892C228.102 51.054 228.163 50.7585 228.285 50.5028C228.409 50.2457 228.58 50.0455 228.801 49.902C229.022 49.7571 229.281 49.6847 229.576 49.6847C229.747 49.6847 229.915 49.7131 230.081 49.7699C230.247 49.8267 230.399 49.919 230.535 50.0469C230.671 50.1733 230.78 50.3409 230.861 50.5497C230.942 50.7585 230.982 51.0156 230.982 51.321V51.5341H228.46V51.0994H230.471C230.471 50.9148 230.434 50.75 230.36 50.6051C230.288 50.4602 230.184 50.3459 230.049 50.2621C229.916 50.1783 229.758 50.1364 229.576 50.1364C229.376 50.1364 229.203 50.1861 229.056 50.2855C228.911 50.3835 228.8 50.5114 228.722 50.669C228.644 50.8267 228.605 50.9957 228.605 51.1761V51.4659C228.605 51.7131 228.647 51.9226 228.732 52.0945C228.819 52.2649 228.939 52.3949 229.093 52.4844C229.246 52.5724 229.424 52.6165 229.627 52.6165C229.759 52.6165 229.879 52.598 229.985 52.5611C230.093 52.5227 230.186 52.4659 230.264 52.3906C230.343 52.3139 230.403 52.2187 230.445 52.1051L230.931 52.2415C230.88 52.4062 230.794 52.5511 230.673 52.6761C230.553 52.7997 230.404 52.8963 230.226 52.9659C230.048 53.0341 229.849 53.0682 229.627 53.0682ZM234.764 53.0682C234.458 53.0682 234.193 52.9957 233.972 52.8509C233.75 52.706 233.58 52.5064 233.46 52.2521C233.341 51.9979 233.281 51.7074 233.281 51.3807C233.281 51.0483 233.343 50.755 233.465 50.5007C233.588 50.245 233.76 50.0455 233.98 49.902C234.202 49.7571 234.46 49.6847 234.756 49.6847C234.986 49.6847 235.193 49.7273 235.378 49.8125C235.563 49.8977 235.714 50.017 235.832 50.1705C235.95 50.3239 236.023 50.5028 236.051 50.7074H235.548C235.51 50.5582 235.425 50.4261 235.293 50.3111C235.162 50.1946 234.986 50.1364 234.764 50.1364C234.568 50.1364 234.396 50.1875 234.249 50.2898C234.102 50.3906 233.988 50.5334 233.906 50.718C233.825 50.9013 233.784 51.1165 233.784 51.3636C233.784 51.6165 233.824 51.8366 233.904 52.0241C233.985 52.2116 234.098 52.3572 234.244 52.4609C234.392 52.5646 234.566 52.6165 234.764 52.6165C234.895 52.6165 235.014 52.5938 235.12 52.5483C235.227 52.5028 235.317 52.4375 235.391 52.3523C235.465 52.267 235.517 52.1648 235.548 52.0455H236.051C236.023 52.2386 235.953 52.4126 235.84 52.5675C235.73 52.7209 235.583 52.843 235.399 52.9339C235.218 53.0234 235.006 53.0682 234.764 53.0682ZM237.289 51.0312V53H236.786V48.6364H237.289V50.2386H237.332C237.409 50.0696 237.524 49.9354 237.677 49.8359C237.832 49.7351 238.038 49.6847 238.295 49.6847C238.518 49.6847 238.713 49.7294 238.881 49.8189C239.048 49.907 239.178 50.0426 239.271 50.2259C239.365 50.4077 239.411 50.6392 239.411 50.9205V53H238.909V50.9545C238.909 50.6946 238.841 50.4936 238.706 50.3516C238.573 50.2081 238.387 50.1364 238.15 50.1364C237.985 50.1364 237.838 50.1712 237.707 50.2408C237.578 50.3104 237.475 50.4119 237.4 50.5455C237.326 50.679 237.289 50.8409 237.289 51.0312ZM241.661 53.0682C241.365 53.0682 241.106 52.9979 240.883 52.8572C240.662 52.7166 240.488 52.5199 240.363 52.267C240.24 52.0142 240.178 51.7187 240.178 51.3807C240.178 51.0398 240.24 50.7422 240.363 50.4879C240.488 50.2337 240.662 50.0362 240.883 49.8956C241.106 49.755 241.365 49.6847 241.661 49.6847C241.956 49.6847 242.215 49.755 242.436 49.8956C242.659 50.0362 242.833 50.2337 242.956 50.4879C243.081 50.7422 243.144 51.0398 243.144 51.3807C243.144 51.7187 243.081 52.0142 242.956 52.267C242.833 52.5199 242.659 52.7166 242.436 52.8572C242.215 52.9979 241.956 53.0682 241.661 53.0682ZM241.661 52.6165C241.885 52.6165 242.07 52.5589 242.215 52.4439C242.36 52.3288 242.467 52.1776 242.537 51.9901C242.606 51.8026 242.641 51.5994 242.641 51.3807C242.641 51.1619 242.606 50.9581 242.537 50.7692C242.467 50.5803 242.36 50.4276 242.215 50.3111C242.07 50.1946 241.885 50.1364 241.661 50.1364C241.436 50.1364 241.252 50.1946 241.107 50.3111C240.962 50.4276 240.855 50.5803 240.785 50.7692C240.716 50.9581 240.681 51.1619 240.681 51.3807C240.681 51.5994 240.716 51.8026 240.785 51.9901C240.855 52.1776 240.962 52.3288 241.107 52.4439C241.252 52.5589 241.436 52.6165 241.661 52.6165ZM246.23 50.4602L245.778 50.5881C245.749 50.5128 245.708 50.4396 245.652 50.3686C245.598 50.2962 245.524 50.2365 245.431 50.1896C245.337 50.1428 245.217 50.1193 245.07 50.1193C244.87 50.1193 244.703 50.1655 244.57 50.2578C244.438 50.3487 244.372 50.4645 244.372 50.6051C244.372 50.7301 244.417 50.8288 244.508 50.9013C244.599 50.9737 244.741 51.0341 244.934 51.0824L245.42 51.2017C245.713 51.2727 245.931 51.3814 246.074 51.5277C246.218 51.6726 246.289 51.8594 246.289 52.0881C246.289 52.2756 246.235 52.4432 246.127 52.5909C246.021 52.7386 245.872 52.8551 245.68 52.9403C245.488 53.0256 245.265 53.0682 245.011 53.0682C244.677 53.0682 244.401 52.9957 244.182 52.8509C243.963 52.706 243.825 52.4943 243.767 52.2159L244.244 52.0966C244.289 52.2727 244.375 52.4048 244.502 52.4929C244.629 52.581 244.796 52.625 245.002 52.625C245.237 52.625 245.423 52.5753 245.561 52.4759C245.7 52.375 245.769 52.2543 245.769 52.1136C245.769 52 245.73 51.9048 245.65 51.8281C245.57 51.75 245.448 51.6918 245.284 51.6534L244.738 51.5256C244.438 51.4545 244.218 51.3445 244.078 51.1953C243.938 51.0447 243.869 50.8565 243.869 50.6307C243.869 50.446 243.921 50.2827 244.024 50.1406C244.129 49.9986 244.272 49.8871 244.453 49.8061C244.634 49.7251 244.84 49.6847 245.07 49.6847C245.394 49.6847 245.649 49.7557 245.833 49.8977C246.019 50.0398 246.151 50.2273 246.23 50.4602ZM248.418 53.0682C248.103 53.0682 247.831 52.9986 247.602 52.8594C247.375 52.7188 247.2 52.5227 247.076 52.2713C246.954 52.0185 246.893 51.7244 246.893 51.3892C246.893 51.054 246.954 50.7585 247.076 50.5028C247.2 50.2457 247.371 50.0455 247.592 49.902C247.813 49.7571 248.072 49.6847 248.367 49.6847C248.538 49.6847 248.706 49.7131 248.872 49.7699C249.038 49.8267 249.19 49.919 249.326 50.0469C249.462 50.1733 249.571 50.3409 249.652 50.5497C249.733 50.7585 249.773 51.0156 249.773 51.321V51.5341H247.251V51.0994H249.262C249.262 50.9148 249.225 50.75 249.151 50.6051C249.079 50.4602 248.975 50.3459 248.84 50.2621C248.707 50.1783 248.549 50.1364 248.367 50.1364C248.167 50.1364 247.994 50.1861 247.847 50.2855C247.702 50.3835 247.591 50.5114 247.513 50.669C247.435 50.8267 247.396 50.9957 247.396 51.1761V51.4659C247.396 51.7131 247.438 51.9226 247.523 52.0945C247.61 52.2649 247.73 52.3949 247.884 52.4844C248.037 52.5724 248.215 52.6165 248.418 52.6165C248.55 52.6165 248.67 52.598 248.776 52.5611C248.884 52.5227 248.977 52.4659 249.055 52.3906C249.134 52.3139 249.194 52.2187 249.237 52.1051L249.722 52.2415C249.671 52.4062 249.585 52.5511 249.464 52.6761C249.344 52.7997 249.195 52.8963 249.017 52.9659C248.839 53.0341 248.64 53.0682 248.418 53.0682ZM251.041 51.0312V53H250.538V49.7273H251.024V50.2386H251.067C251.143 50.0724 251.26 49.9389 251.416 49.8381C251.572 49.7358 251.774 49.6847 252.021 49.6847C252.243 49.6847 252.437 49.7301 252.603 49.821C252.769 49.9105 252.898 50.0469 252.991 50.2301C253.083 50.4119 253.129 50.642 253.129 50.9205V53H252.626V50.9545C252.626 50.6974 252.56 50.4972 252.426 50.3537C252.293 50.2088 252.109 50.1364 251.876 50.1364C251.716 50.1364 251.572 50.1712 251.446 50.2408C251.321 50.3104 251.222 50.4119 251.15 50.5455C251.077 50.679 251.041 50.8409 251.041 51.0312Z"/><rect width="54" height="12" x="156" y="45" fill="#0080FF" rx="4"/><path fill="#fff" d="M164.881 48.6364H165.804V51.4702C165.804 51.7884 165.728 52.0668 165.576 52.3054C165.425 52.544 165.214 52.7301 164.943 52.8636C164.672 52.9957 164.356 53.0618 163.995 53.0618C163.633 53.0618 163.316 52.9957 163.045 52.8636C162.773 52.7301 162.562 52.544 162.412 52.3054C162.261 52.0668 162.186 51.7884 162.186 51.4702V48.6364H163.108V51.3913C163.108 51.5575 163.145 51.7053 163.217 51.8345C163.291 51.9638 163.395 52.0653 163.528 52.1392C163.662 52.2131 163.817 52.25 163.995 52.25C164.174 52.25 164.329 52.2131 164.461 52.1392C164.595 52.0653 164.698 51.9638 164.77 51.8345C164.844 51.7053 164.881 51.5575 164.881 51.3913V48.6364ZM166.563 53V48.6364H168.284C168.615 48.6364 168.897 48.6996 169.13 48.826C169.363 48.951 169.541 49.125 169.663 49.348C169.787 49.5696 169.848 49.8253 169.848 50.1151C169.848 50.4048 169.786 50.6605 169.661 50.8821C169.536 51.1037 169.355 51.2763 169.118 51.3999C168.882 51.5234 168.596 51.5852 168.261 51.5852H167.164V50.8459H168.112C168.289 50.8459 168.436 50.8153 168.551 50.7543C168.667 50.6918 168.754 50.6058 168.811 50.4964C168.869 50.3857 168.898 50.2585 168.898 50.1151C168.898 49.9702 168.869 49.8437 168.811 49.7358C168.754 49.6264 168.667 49.5419 168.551 49.4822C168.434 49.4212 168.287 49.3906 168.108 49.3906H167.485V53H166.563ZM170.448 53V48.6364H171.37V52.2393H173.241V53H170.448ZM177.692 50.8182C177.692 51.294 177.602 51.6989 177.421 52.0327C177.242 52.3665 176.998 52.6214 176.688 52.7976C176.38 52.9723 176.034 53.0597 175.649 53.0597C175.261 53.0597 174.913 52.9716 174.605 52.7955C174.296 52.6193 174.053 52.3643 173.874 52.0305C173.695 51.6967 173.605 51.2926 173.605 50.8182C173.605 50.3423 173.695 49.9375 173.874 49.6037C174.053 49.2699 174.296 49.0156 174.605 48.8409C174.913 48.6648 175.261 48.5767 175.649 48.5767C176.034 48.5767 176.38 48.6648 176.688 48.8409C176.998 49.0156 177.242 49.2699 177.421 49.6037C177.602 49.9375 177.692 50.3423 177.692 50.8182ZM176.757 50.8182C176.757 50.5099 176.71 50.25 176.618 50.0384C176.527 49.8267 176.399 49.6662 176.232 49.5568C176.066 49.4474 175.872 49.3928 175.649 49.3928C175.426 49.3928 175.231 49.4474 175.065 49.5568C174.899 49.6662 174.769 49.8267 174.677 50.0384C174.586 50.25 174.541 50.5099 174.541 50.8182C174.541 51.1264 174.586 51.3864 174.677 51.598C174.769 51.8097 174.899 51.9702 175.065 52.0795C175.231 52.1889 175.426 52.2436 175.649 52.2436C175.872 52.2436 176.066 52.1889 176.232 52.0795C176.399 51.9702 176.527 51.8097 176.618 51.598C176.71 51.3864 176.757 51.1264 176.757 50.8182ZM178.881 53H177.893L179.399 48.6364H180.588L182.092 53H181.104L180.011 49.6335H179.977L178.881 53ZM178.82 51.2848H181.155V52.005H178.82V51.2848ZM184.164 53H182.618V48.6364H184.177C184.616 48.6364 184.994 48.7237 185.311 48.8984C185.627 49.0717 185.871 49.321 186.042 49.6463C186.213 49.9716 186.299 50.3608 186.299 50.8139C186.299 51.2685 186.213 51.6591 186.042 51.9858C185.871 52.3125 185.626 52.5632 185.306 52.7379C184.988 52.9126 184.608 53 184.164 53ZM183.54 52.2095H184.126C184.399 52.2095 184.628 52.1612 184.814 52.0646C185.002 51.9666 185.142 51.8153 185.236 51.6108C185.331 51.4048 185.379 51.1392 185.379 50.8139C185.379 50.4915 185.331 50.228 185.236 50.0234C185.142 49.8189 185.002 49.6683 184.816 49.5717C184.63 49.4751 184.401 49.4268 184.128 49.4268H183.54V52.2095ZM188.371 53V48.6364H191.261V49.397H189.294V50.4368H191.069V51.1974H189.294V53H188.371ZM192.804 48.6364V53H191.881V48.6364H192.804ZM193.563 53V48.6364H194.485V52.2393H196.356V53H193.563ZM196.967 53V48.6364H199.907V49.397H197.89V50.4368H199.756V51.1974H197.89V52.2393H199.916V53H196.967ZM203.008 49.8913C202.991 49.7195 202.918 49.5859 202.789 49.4908C202.659 49.3956 202.484 49.348 202.262 49.348C202.112 49.348 201.985 49.3693 201.881 49.4119C201.777 49.4531 201.698 49.5107 201.642 49.5845C201.588 49.6584 201.561 49.7422 201.561 49.8359C201.559 49.9141 201.575 49.9822 201.61 50.0405C201.647 50.0987 201.698 50.1491 201.762 50.1918C201.826 50.233 201.9 50.2692 201.983 50.3004C202.067 50.3303 202.157 50.3558 202.252 50.3771L202.644 50.4709C202.834 50.5135 203.009 50.5703 203.168 50.6413C203.327 50.7124 203.465 50.7997 203.581 50.9034C203.698 51.0071 203.788 51.1293 203.852 51.2699C203.917 51.4105 203.951 51.5717 203.952 51.7536C203.951 52.0206 203.882 52.2521 203.748 52.4482C203.614 52.6428 203.421 52.794 203.168 52.902C202.917 53.0085 202.613 53.0618 202.258 53.0618C201.906 53.0618 201.599 53.0078 201.338 52.8999C201.078 52.7919 200.875 52.6321 200.728 52.4205C200.583 52.2074 200.507 51.9439 200.5 51.63H201.393C201.403 51.7763 201.445 51.8984 201.519 51.9964C201.594 52.093 201.694 52.1662 201.819 52.2159C201.946 52.2642 202.088 52.2884 202.248 52.2884C202.404 52.2884 202.539 52.2656 202.654 52.2202C202.771 52.1747 202.861 52.1115 202.925 52.0305C202.989 51.9496 203.021 51.8565 203.021 51.7514C203.021 51.6534 202.992 51.571 202.934 51.5043C202.877 51.4375 202.793 51.3807 202.682 51.3338C202.573 51.2869 202.439 51.2443 202.279 51.206L201.804 51.0866C201.436 50.9972 201.146 50.8572 200.933 50.6669C200.72 50.4766 200.614 50.2202 200.615 49.8977C200.614 49.6335 200.684 49.4027 200.826 49.2053C200.97 49.0078 201.167 48.8537 201.417 48.7429C201.667 48.6321 201.951 48.5767 202.269 48.5767C202.593 48.5767 202.875 48.6321 203.117 48.7429C203.36 48.8537 203.549 49.0078 203.684 49.2053C203.819 49.4027 203.888 49.6314 203.892 49.8913H203.008Z"/><path fill="#6B7280" d="M14.7684 31H14.2144L15.8167 26.6364H16.3622L17.9644 31H17.4105L16.1065 27.3267H16.0724L14.7684 31ZM14.973 29.2955H17.2059V29.7642H14.973V29.2955ZM21.7208 27.7273V28.1534H19.9566V27.7273H21.7208ZM20.485 31V27.2756C20.485 27.0881 20.5291 26.9318 20.6171 26.8068C20.7052 26.6818 20.8196 26.5881 20.9602 26.5256C21.1008 26.4631 21.2492 26.4318 21.4055 26.4318C21.5291 26.4318 21.6299 26.4418 21.7081 26.4616C21.7862 26.4815 21.8444 26.5 21.8828 26.517L21.7379 26.9517C21.7123 26.9432 21.6768 26.9325 21.6313 26.9197C21.5873 26.907 21.5291 26.9006 21.4566 26.9006C21.2904 26.9006 21.1704 26.9425 21.0965 27.0263C21.0241 27.1101 20.9879 27.233 20.9879 27.3949V31H20.485ZM22.4256 31V27.7273H22.9284V31H22.4256ZM22.6812 27.1818C22.5832 27.1818 22.4987 27.1484 22.4277 27.0817C22.3581 27.0149 22.3233 26.9347 22.3233 26.8409C22.3233 26.7472 22.3581 26.6669 22.4277 26.6001C22.4987 26.5334 22.5832 26.5 22.6812 26.5C22.7793 26.5 22.8631 26.5334 22.9327 26.6001C23.0037 26.6669 23.0392 26.7472 23.0392 26.8409C23.0392 26.9347 23.0037 27.0149 22.9327 27.0817C22.8631 27.1484 22.7793 27.1818 22.6812 27.1818ZM24.3522 26.6364V31H23.8494V26.6364H24.3522ZM26.6454 31.0682C26.33 31.0682 26.058 30.9986 25.8293 30.8594C25.6021 30.7188 25.4266 30.5227 25.303 30.2713C25.1809 30.0185 25.1198 29.7244 25.1198 29.3892C25.1198 29.054 25.1809 28.7585 25.303 28.5028C25.4266 28.2457 25.5985 28.0455 25.8187 27.902C26.0403 27.7571 26.2988 27.6847 26.5942 27.6847C26.7647 27.6847 26.933 27.7131 27.0992 27.7699C27.2654 27.8267 27.4167 27.919 27.553 28.0469C27.6894 28.1733 27.7981 28.3409 27.879 28.5497C27.96 28.7585 28.0005 29.0156 28.0005 29.321V29.5341H25.4778V29.0994H27.4891C27.4891 28.9148 27.4522 28.75 27.3783 28.6051C27.3059 28.4602 27.2022 28.3459 27.0672 28.2621C26.9337 28.1783 26.7761 28.1364 26.5942 28.1364C26.394 28.1364 26.2207 28.1861 26.0744 28.2855C25.9295 28.3835 25.818 28.5114 25.7398 28.669C25.6617 28.8267 25.6226 28.9957 25.6226 29.1761V29.4659C25.6226 29.7131 25.6653 29.9226 25.7505 30.0945C25.8371 30.2649 25.9572 30.3949 26.1106 30.4844C26.264 30.5724 26.4422 30.6165 26.6454 30.6165C26.7775 30.6165 26.8968 30.598 27.0033 30.5611C27.1113 30.5227 27.2043 30.4659 27.2824 30.3906C27.3606 30.3139 27.4209 30.2187 27.4636 30.1051L27.9494 30.2415C27.8982 30.4062 27.8123 30.5511 27.6915 30.6761C27.5708 30.7997 27.4217 30.8963 27.2441 30.9659C27.0665 31.0341 26.867 31.0682 26.6454 31.0682ZM32.5154 29.6619V27.7273H33.0182V31H32.5154V30.446H32.4813C32.4046 30.6122 32.2853 30.7536 32.1234 30.87C31.9614 30.9851 31.7569 31.0426 31.5097 31.0426C31.3052 31.0426 31.1234 30.9979 30.9643 30.9084C30.8052 30.8175 30.6802 30.6811 30.5893 30.4993C30.4984 30.3161 30.4529 30.0852 30.4529 29.8068V27.7273H30.9557V29.7727C30.9557 30.0114 31.0225 30.2017 31.156 30.3438C31.291 30.4858 31.4628 30.5568 31.6717 30.5568C31.7967 30.5568 31.9238 30.5249 32.053 30.4609C32.1837 30.397 32.2931 30.299 32.3812 30.1669C32.4707 30.0348 32.5154 29.8665 32.5154 29.6619ZM33.9392 32.2273V27.7273H34.425V28.2472H34.4847C34.5216 28.1903 34.5728 28.1179 34.6381 28.0298C34.7049 27.9403 34.8 27.8608 34.9236 27.7912C35.0486 27.7202 35.2176 27.6847 35.4307 27.6847C35.7063 27.6847 35.9492 27.7536 36.1594 27.8913C36.3696 28.0291 36.5337 28.2244 36.6516 28.4773C36.7695 28.7301 36.8284 29.0284 36.8284 29.3722C36.8284 29.7188 36.7695 30.0192 36.6516 30.2734C36.5337 30.5263 36.3703 30.7223 36.1615 30.8615C35.9527 30.9993 35.712 31.0682 35.4392 31.0682C35.229 31.0682 35.0607 31.0334 34.9343 30.9638C34.8078 30.8928 34.7105 30.8125 34.6424 30.723C34.5742 30.6321 34.5216 30.5568 34.4847 30.4972H34.4421V32.2273H33.9392ZM34.4335 29.3636C34.4335 29.6108 34.4698 29.8288 34.5422 30.0178C34.6147 30.2053 34.7205 30.3523 34.8597 30.4588C34.9989 30.5639 35.1693 30.6165 35.371 30.6165C35.5813 30.6165 35.7567 30.5611 35.8973 30.4503C36.0394 30.3381 36.1459 30.1875 36.2169 29.9986C36.2894 29.8082 36.3256 29.5966 36.3256 29.3636C36.3256 29.1335 36.2901 28.9261 36.2191 28.7415C36.1495 28.5554 36.0436 28.4084 35.9016 28.3004C35.761 28.1911 35.5841 28.1364 35.371 28.1364C35.1665 28.1364 34.9946 28.1882 34.8554 28.2919C34.7162 28.3942 34.6111 28.5376 34.5401 28.7223C34.4691 28.9055 34.4335 29.1193 34.4335 29.3636ZM38.0983 26.6364V31H37.5955V26.6364H38.0983ZM40.3489 31.0682C40.0534 31.0682 39.7942 30.9979 39.5712 30.8572C39.3496 30.7166 39.1763 30.5199 39.0513 30.267C38.9277 30.0142 38.8659 29.7187 38.8659 29.3807C38.8659 29.0398 38.9277 28.7422 39.0513 28.4879C39.1763 28.2337 39.3496 28.0362 39.5712 27.8956C39.7942 27.755 40.0534 27.6847 40.3489 27.6847C40.6443 27.6847 40.9028 27.755 41.1244 27.8956C41.3474 28.0362 41.5207 28.2337 41.6443 28.4879C41.7693 28.7422 41.8318 29.0398 41.8318 29.3807C41.8318 29.7187 41.7693 30.0142 41.6443 30.267C41.5207 30.5199 41.3474 30.7166 41.1244 30.8572C40.9028 30.9979 40.6443 31.0682 40.3489 31.0682ZM40.3489 30.6165C40.5733 30.6165 40.7579 30.5589 40.9028 30.4439C41.0477 30.3288 41.155 30.1776 41.2246 29.9901C41.2942 29.8026 41.329 29.5994 41.329 29.3807C41.329 29.1619 41.2942 28.9581 41.2246 28.7692C41.155 28.5803 41.0477 28.4276 40.9028 28.3111C40.7579 28.1946 40.5733 28.1364 40.3489 28.1364C40.1244 28.1364 39.9398 28.1946 39.7949 28.3111C39.65 28.4276 39.5427 28.5803 39.4731 28.7692C39.4035 28.9581 39.3687 29.1619 39.3687 29.3807C39.3687 29.5994 39.4035 29.8026 39.4731 29.9901C39.5427 30.1776 39.65 30.3288 39.7949 30.4439C39.9398 30.5589 40.1244 30.6165 40.3489 30.6165ZM43.5625 31.0767C43.3551 31.0767 43.1669 31.0376 42.9978 30.9595C42.8288 30.88 42.6946 30.7656 42.5951 30.6165C42.4957 30.4659 42.446 30.2841 42.446 30.071C42.446 29.8835 42.4829 29.7315 42.5568 29.6151C42.6306 29.4972 42.7294 29.4048 42.8529 29.3381C42.9765 29.2713 43.1129 29.2216 43.262 29.1889C43.4126 29.1548 43.5639 29.1278 43.7159 29.108C43.9147 29.0824 44.0759 29.0632 44.1995 29.0504C44.3245 29.0362 44.4154 29.0128 44.4723 28.9801C44.5305 28.9474 44.5596 28.8906 44.5596 28.8097V28.7926C44.5596 28.5824 44.5021 28.419 44.387 28.3026C44.2734 28.1861 44.1008 28.1278 43.8693 28.1278C43.6292 28.1278 43.441 28.1804 43.3046 28.2855C43.1683 28.3906 43.0724 28.5028 43.017 28.6222L42.5397 28.4517C42.625 28.2528 42.7386 28.098 42.8806 27.9872C43.0241 27.875 43.1804 27.7969 43.3494 27.7528C43.5198 27.7074 43.6875 27.6847 43.8522 27.6847C43.9573 27.6847 44.0781 27.6974 44.2144 27.723C44.3522 27.7472 44.485 27.7976 44.6129 27.8743C44.7421 27.951 44.8494 28.0668 44.9346 28.2216C45.0198 28.3764 45.0625 28.5838 45.0625 28.8438V31H44.5596V30.5568H44.534C44.5 30.6278 44.4431 30.7038 44.3636 30.7848C44.284 30.8658 44.1782 30.9347 44.0461 30.9915C43.914 31.0483 43.7528 31.0767 43.5625 31.0767ZM43.6392 30.625C43.838 30.625 44.0056 30.5859 44.142 30.5078C44.2798 30.4297 44.3835 30.3288 44.4531 30.2053C44.5241 30.0817 44.5596 29.9517 44.5596 29.8153V29.3551C44.5383 29.3807 44.4914 29.4041 44.419 29.4254C44.348 29.4453 44.2656 29.4631 44.1718 29.4787C44.0795 29.4929 43.9893 29.5057 43.9012 29.517C43.8146 29.527 43.7443 29.5355 43.6903 29.5426C43.5596 29.5597 43.4375 29.5874 43.3238 29.6257C43.2116 29.6626 43.1207 29.7187 43.0511 29.794C42.9829 29.8679 42.9488 29.9687 42.9488 30.0966C42.9488 30.2713 43.0134 30.4034 43.1427 30.4929C43.2734 30.581 43.4389 30.625 43.6392 30.625ZM47.216 31.0682C46.9433 31.0682 46.7025 30.9993 46.4937 30.8615C46.2849 30.7223 46.1216 30.5263 46.0037 30.2734C45.8858 30.0192 45.8268 29.7188 45.8268 29.3722C45.8268 29.0284 45.8858 28.7301 46.0037 28.4773C46.1216 28.2244 46.2856 28.0291 46.4959 27.8913C46.7061 27.7536 46.949 27.6847 47.2246 27.6847C47.4376 27.6847 47.606 27.7202 47.7295 27.7912C47.8545 27.8608 47.9497 27.9403 48.015 28.0298C48.0818 28.1179 48.1337 28.1903 48.1706 28.2472H48.2132V26.6364H48.716V31H48.2302V30.4972H48.1706C48.1337 30.5568 48.0811 30.6321 48.0129 30.723C47.9447 30.8125 47.8474 30.8928 47.721 30.9638C47.5946 31.0334 47.4263 31.0682 47.216 31.0682ZM47.2842 30.6165C47.4859 30.6165 47.6564 30.5639 47.7956 30.4588C47.9348 30.3523 48.0406 30.2053 48.1131 30.0178C48.1855 29.8288 48.2217 29.6108 48.2217 29.3636C48.2217 29.1193 48.1862 28.9055 48.1152 28.7223C48.0442 28.5376 47.9391 28.3942 47.7998 28.2919C47.6606 28.1882 47.4888 28.1364 47.2842 28.1364C47.0712 28.1364 46.8936 28.1911 46.7516 28.3004C46.6109 28.4084 46.5051 28.5554 46.4341 28.7415C46.3645 28.9261 46.3297 29.1335 46.3297 29.3636C46.3297 29.5966 46.3652 29.8082 46.4362 29.9986C46.5087 30.1875 46.6152 30.3381 46.7558 30.4503C46.8979 30.5611 47.074 30.6165 47.2842 30.6165ZM51.3943 32.2273V27.7273H51.8801V28.2472H51.9398C51.9767 28.1903 52.0278 28.1179 52.0932 28.0298C52.1599 27.9403 52.2551 27.8608 52.3787 27.7912C52.5037 27.7202 52.6727 27.6847 52.8858 27.6847C53.1614 27.6847 53.4043 27.7536 53.6145 27.8913C53.8247 28.0291 53.9888 28.2244 54.1067 28.4773C54.2246 28.7301 54.2835 29.0284 54.2835 29.3722C54.2835 29.7188 54.2246 30.0192 54.1067 30.2734C53.9888 30.5263 53.8254 30.7223 53.6166 30.8615C53.4078 30.9993 53.167 31.0682 52.8943 31.0682C52.6841 31.0682 52.5158 31.0334 52.3893 30.9638C52.2629 30.8928 52.1656 30.8125 52.0974 30.723C52.0293 30.6321 51.9767 30.5568 51.9398 30.4972H51.8972V32.2273H51.3943ZM51.8886 29.3636C51.8886 29.6108 51.9248 29.8288 51.9973 30.0178C52.0697 30.2053 52.1756 30.3523 52.3148 30.4588C52.454 30.5639 52.6244 30.6165 52.8261 30.6165C53.0364 30.6165 53.2118 30.5611 53.3524 30.4503C53.4945 30.3381 53.601 30.1875 53.672 29.9986C53.7445 29.8082 53.7807 29.5966 53.7807 29.3636C53.7807 29.1335 53.7452 28.9261 53.6741 28.7415C53.6045 28.5554 53.4987 28.4084 53.3567 28.3004C53.216 28.1911 53.0392 28.1364 52.8261 28.1364C52.6216 28.1364 52.4497 28.1882 52.3105 28.2919C52.1713 28.3942 52.0662 28.5376 51.9952 28.7223C51.9241 28.9055 51.8886 29.1193 51.8886 29.3636ZM56.3801 31.0682C56.0847 31.0682 55.8254 30.9979 55.6024 30.8572C55.3808 30.7166 55.2075 30.5199 55.0825 30.267C54.9589 30.0142 54.8972 29.7187 54.8972 29.3807C54.8972 29.0398 54.9589 28.7422 55.0825 28.4879C55.2075 28.2337 55.3808 28.0362 55.6024 27.8956C55.8254 27.755 56.0847 27.6847 56.3801 27.6847C56.6756 27.6847 56.9341 27.755 57.1557 27.8956C57.3787 28.0362 57.552 28.2337 57.6756 28.4879C57.8006 28.7422 57.8631 29.0398 57.8631 29.3807C57.8631 29.7187 57.8006 30.0142 57.6756 30.267C57.552 30.5199 57.3787 30.7166 57.1557 30.8572C56.9341 30.9979 56.6756 31.0682 56.3801 31.0682ZM56.3801 30.6165C56.6045 30.6165 56.7892 30.5589 56.9341 30.4439C57.079 30.3288 57.1862 30.1776 57.2558 29.9901C57.3254 29.8026 57.3602 29.5994 57.3602 29.3807C57.3602 29.1619 57.3254 28.9581 57.2558 28.7692C57.1862 28.5803 57.079 28.4276 56.9341 28.3111C56.7892 28.1946 56.6045 28.1364 56.3801 28.1364C56.1557 28.1364 55.971 28.1946 55.8261 28.3111C55.6812 28.4276 55.574 28.5803 55.5044 28.7692C55.4348 28.9581 55.4 29.1619 55.4 29.3807C55.4 29.5994 55.4348 29.8026 55.5044 29.9901C55.574 30.1776 55.6812 30.3288 55.8261 30.4439C55.971 30.5589 56.1557 30.6165 56.3801 30.6165ZM58.6306 31V27.7273H59.1164V28.2216H59.1505C59.2102 28.0597 59.3181 27.9283 59.4744 27.8274C59.6306 27.7266 59.8068 27.6761 60.0028 27.6761C60.0397 27.6761 60.0859 27.6768 60.1413 27.6783C60.1967 27.6797 60.2386 27.6818 60.267 27.6847V28.196C60.25 28.1918 60.2109 28.1854 60.1498 28.1768C60.0902 28.1669 60.0269 28.1619 59.9602 28.1619C59.8011 28.1619 59.659 28.1953 59.534 28.2621C59.4105 28.3274 59.3125 28.4183 59.24 28.5348C59.169 28.6499 59.1335 28.7812 59.1335 28.929V31H58.6306ZM62.4914 27.7273V28.1534H60.7954V27.7273H62.4914ZM61.2897 26.9432H61.7926V30.0625C61.7926 30.2045 61.8132 30.3111 61.8544 30.3821C61.897 30.4517 61.9509 30.4986 62.0163 30.5227C62.0831 30.5455 62.1534 30.5568 62.2272 30.5568C62.2826 30.5568 62.3281 30.554 62.3636 30.5483C62.3991 30.5412 62.4275 30.5355 62.4488 30.5312L62.5511 30.983C62.517 30.9957 62.4694 31.0085 62.4083 31.0213C62.3473 31.0355 62.2698 31.0426 62.1761 31.0426C62.034 31.0426 61.8948 31.0121 61.7585 30.951C61.6235 30.8899 61.5113 30.7969 61.4218 30.6719C61.3338 30.5469 61.2897 30.3892 61.2897 30.1989V26.9432ZM64.2109 31.0767C64.0035 31.0767 63.8153 31.0376 63.6463 30.9595C63.4772 30.88 63.343 30.7656 63.2436 30.6165C63.1441 30.4659 63.0944 30.2841 63.0944 30.071C63.0944 29.8835 63.1313 29.7315 63.2052 29.6151C63.2791 29.4972 63.3778 29.4048 63.5014 29.3381C63.625 29.2713 63.7613 29.2216 63.9105 29.1889C64.061 29.1548 64.2123 29.1278 64.3643 29.108C64.5632 29.0824 64.7244 29.0632 64.848 29.0504C64.973 29.0362 65.0639 29.0128 65.1207 28.9801C65.1789 28.9474 65.2081 28.8906 65.2081 28.8097V28.7926C65.2081 28.5824 65.1505 28.419 65.0355 28.3026C64.9218 28.1861 64.7492 28.1278 64.5177 28.1278C64.2777 28.1278 64.0894 28.1804 63.9531 28.2855C63.8167 28.3906 63.7208 28.5028 63.6654 28.6222L63.1882 28.4517C63.2734 28.2528 63.387 28.098 63.5291 27.9872C63.6725 27.875 63.8288 27.7969 63.9978 27.7528C64.1683 27.7074 64.3359 27.6847 64.5007 27.6847C64.6058 27.6847 64.7265 27.6974 64.8629 27.723C65.0007 27.7472 65.1335 27.7976 65.2613 27.8743C65.3906 27.951 65.4978 28.0668 65.5831 28.2216C65.6683 28.3764 65.7109 28.5838 65.7109 28.8438V31H65.2081V30.5568H65.1825C65.1484 30.6278 65.0916 30.7038 65.012 30.7848C64.9325 30.8658 64.8267 30.9347 64.6946 30.9915C64.5625 31.0483 64.4012 31.0767 64.2109 31.0767ZM64.2876 30.625C64.4865 30.625 64.6541 30.5859 64.7904 30.5078C64.9282 30.4297 65.0319 30.3288 65.1015 30.2053C65.1725 30.0817 65.2081 29.9517 65.2081 29.8153V29.3551C65.1867 29.3807 65.1399 29.4041 65.0674 29.4254C64.9964 29.4453 64.914 29.4631 64.8203 29.4787C64.7279 29.4929 64.6377 29.5057 64.5497 29.517C64.463 29.527 64.3927 29.5355 64.3387 29.5426C64.2081 29.5597 64.0859 29.5874 63.9723 29.6257C63.86 29.6626 63.7691 29.7187 63.6995 29.794C63.6313 29.8679 63.5973 29.9687 63.5973 30.0966C63.5973 30.2713 63.6619 30.4034 63.7911 30.4929C63.9218 30.581 64.0873 30.625 64.2876 30.625ZM67.1315 26.6364V31H66.6287V26.6364H67.1315ZM68.8025 30.4034L68.7684 30.6335C68.7443 30.7955 68.7073 30.9688 68.6576 31.1534C68.6093 31.3381 68.5589 31.5121 68.5063 31.6754C68.4538 31.8388 68.4105 31.9688 68.3764 32.0653H67.9929C68.0113 31.9744 68.0355 31.8544 68.0653 31.7053C68.0951 31.5561 68.125 31.3892 68.1548 31.2045C68.186 31.0213 68.2116 30.8338 68.2315 30.642L68.2571 30.4034H68.8025ZM72.8449 27.7273V28.1534H71.1489V27.7273H72.8449ZM71.6432 26.9432H72.1461V30.0625C72.1461 30.2045 72.1667 30.3111 72.2079 30.3821C72.2505 30.4517 72.3045 30.4986 72.3698 30.5227C72.4366 30.5455 72.5069 30.5568 72.5807 30.5568C72.6361 30.5568 72.6816 30.554 72.7171 30.5483C72.7526 30.5412 72.781 30.5355 72.8023 30.5312L72.9046 30.983C72.8705 30.9957 72.8229 31.0085 72.7619 31.0213C72.7008 31.0355 72.6234 31.0426 72.5296 31.0426C72.3876 31.0426 72.2484 31.0121 72.112 30.951C71.9771 30.8899 71.8648 30.7969 71.7753 30.6719C71.6873 30.5469 71.6432 30.3892 71.6432 30.1989V26.9432ZM74.8957 31.0682C74.6003 31.0682 74.341 30.9979 74.118 30.8572C73.8964 30.7166 73.7231 30.5199 73.5981 30.267C73.4746 30.0142 73.4128 29.7187 73.4128 29.3807C73.4128 29.0398 73.4746 28.7422 73.5981 28.4879C73.7231 28.2337 73.8964 28.0362 74.118 27.8956C74.341 27.755 74.6003 27.6847 74.8957 27.6847C75.1912 27.6847 75.4497 27.755 75.6713 27.8956C75.8943 28.0362 76.0676 28.2337 76.1912 28.4879C76.3162 28.7422 76.3787 29.0398 76.3787 29.3807C76.3787 29.7187 76.3162 30.0142 76.1912 30.267C76.0676 30.5199 75.8943 30.7166 75.6713 30.8572C75.4497 30.9979 75.1912 31.0682 74.8957 31.0682ZM74.8957 30.6165C75.1202 30.6165 75.3048 30.5589 75.4497 30.4439C75.5946 30.3288 75.7018 30.1776 75.7714 29.9901C75.841 29.8026 75.8758 29.5994 75.8758 29.3807C75.8758 29.1619 75.841 28.9581 75.7714 28.7692C75.7018 28.5803 75.5946 28.4276 75.4497 28.3111C75.3048 28.1946 75.1202 28.1364 74.8957 28.1364C74.6713 28.1364 74.4866 28.1946 74.3418 28.3111C74.1969 28.4276 74.0896 28.5803 74.02 28.7692C73.9504 28.9581 73.9156 29.1619 73.9156 29.3807C73.9156 29.5994 73.9504 29.8026 74.02 29.9901C74.0896 30.1776 74.1969 30.3288 74.3418 30.4439C74.4866 30.5589 74.6713 30.6165 74.8957 30.6165ZM78.8338 32.2273V27.7273H79.3196V28.2472H79.3792C79.4161 28.1903 79.4673 28.1179 79.5326 28.0298C79.5994 27.9403 79.6946 27.8608 79.8181 27.7912C79.9431 27.7202 80.1122 27.6847 80.3252 27.6847C80.6008 27.6847 80.8437 27.7536 81.0539 27.8913C81.2642 28.0291 81.4282 28.2244 81.5461 28.4773C81.664 28.7301 81.723 29.0284 81.723 29.3722C81.723 29.7188 81.664 30.0192 81.5461 30.2734C81.4282 30.5263 81.2649 30.7223 81.0561 30.8615C80.8473 30.9993 80.6065 31.0682 80.3338 31.0682C80.1235 31.0682 79.9552 31.0334 79.8288 30.9638C79.7024 30.8928 79.6051 30.8125 79.5369 30.723C79.4687 30.6321 79.4161 30.5568 79.3792 30.4972H79.3366V32.2273H78.8338ZM79.3281 29.3636C79.3281 29.6108 79.3643 29.8288 79.4367 30.0178C79.5092 30.2053 79.615 30.3523 79.7542 30.4588C79.8934 30.5639 80.0639 30.6165 80.2656 30.6165C80.4758 30.6165 80.6512 30.5611 80.7919 30.4503C80.9339 30.3381 81.0404 30.1875 81.1115 29.9986C81.1839 29.8082 81.2201 29.5966 81.2201 29.3636C81.2201 29.1335 81.1846 28.9261 81.1136 28.7415C81.044 28.5554 80.9382 28.4084 80.7961 28.3004C80.6555 28.1911 80.4786 28.1364 80.2656 28.1364C80.061 28.1364 79.8892 28.1882 79.75 28.2919C79.6108 28.3942 79.5056 28.5376 79.4346 28.7223C79.3636 28.9055 79.3281 29.1193 79.3281 29.3636ZM82.49 31V27.7273H82.9758V28.2216H83.0099C83.0696 28.0597 83.1775 27.9283 83.3338 27.8274C83.49 27.7266 83.6661 27.6761 83.8622 27.6761C83.8991 27.6761 83.9453 27.6768 84.0007 27.6783C84.0561 27.6797 84.098 27.6818 84.1264 27.6847V28.196C84.1093 28.1918 84.0703 28.1854 84.0092 28.1768C83.9495 28.1669 83.8863 28.1619 83.8196 28.1619C83.6605 28.1619 83.5184 28.1953 83.3934 28.2621C83.2698 28.3274 83.1718 28.4183 83.0994 28.5348C83.0284 28.6499 82.9929 28.7812 82.9929 28.929V31H82.49ZM85.9524 31.0682C85.6569 31.0682 85.3977 30.9979 85.1747 30.8572C84.9531 30.7166 84.7798 30.5199 84.6548 30.267C84.5312 30.0142 84.4694 29.7187 84.4694 29.3807C84.4694 29.0398 84.5312 28.7422 84.6548 28.4879C84.7798 28.2337 84.9531 28.0362 85.1747 27.8956C85.3977 27.755 85.6569 27.6847 85.9524 27.6847C86.2478 27.6847 86.5063 27.755 86.7279 27.8956C86.951 28.0362 87.1242 28.2337 87.2478 28.4879C87.3728 28.7422 87.4353 29.0398 87.4353 29.3807C87.4353 29.7187 87.3728 30.0142 87.2478 30.267C87.1242 30.5199 86.951 30.7166 86.7279 30.8572C86.5063 30.9979 86.2478 31.0682 85.9524 31.0682ZM85.9524 30.6165C86.1768 30.6165 86.3615 30.5589 86.5063 30.4439C86.6512 30.3288 86.7585 30.1776 86.8281 29.9901C86.8977 29.8026 86.9325 29.5994 86.9325 29.3807C86.9325 29.1619 86.8977 28.9581 86.8281 28.7692C86.7585 28.5803 86.6512 28.4276 86.5063 28.3111C86.3615 28.1946 86.1768 28.1364 85.9524 28.1364C85.7279 28.1364 85.5433 28.1946 85.3984 28.3111C85.2535 28.4276 85.1463 28.5803 85.0767 28.7692C85.0071 28.9581 84.9723 29.1619 84.9723 29.3807C84.9723 29.5994 85.0071 29.8026 85.0767 29.9901C85.1463 30.1776 85.2535 30.3288 85.3984 30.4439C85.5433 30.5589 85.7279 30.6165 85.9524 30.6165ZM89.5324 31.0682C89.2256 31.0682 88.9614 30.9957 88.7398 30.8509C88.5182 30.706 88.3478 30.5064 88.2285 30.2521C88.1092 29.9979 88.0495 29.7074 88.0495 29.3807C88.0495 29.0483 88.1106 28.755 88.2327 28.5007C88.3563 28.245 88.5282 28.0455 88.7484 27.902C88.9699 27.7571 89.2285 27.6847 89.5239 27.6847C89.754 27.6847 89.9614 27.7273 90.1461 27.8125C90.3307 27.8977 90.482 28.017 90.5999 28.1705C90.7178 28.3239 90.791 28.5028 90.8194 28.7074H90.3165C90.2782 28.5582 90.193 28.4261 90.0609 28.3111C89.9302 28.1946 89.754 28.1364 89.5324 28.1364C89.3364 28.1364 89.1646 28.1875 89.0168 28.2898C88.8705 28.3906 88.7562 28.5334 88.6738 28.718C88.5928 28.9013 88.5523 29.1165 88.5523 29.3636C88.5523 29.6165 88.5921 29.8366 88.6717 30.0241C88.7526 30.2116 88.8663 30.3572 89.0126 30.4609C89.1603 30.5646 89.3336 30.6165 89.5324 30.6165C89.6631 30.6165 89.7817 30.5938 89.8883 30.5483C89.9948 30.5028 90.085 30.4375 90.1589 30.3523C90.2327 30.267 90.2853 30.1648 90.3165 30.0455H90.8194C90.791 30.2386 90.7207 30.4126 90.6084 30.5675C90.4976 30.7209 90.3506 30.843 90.1674 30.9339C89.9856 31.0234 89.7739 31.0682 89.5324 31.0682ZM92.9266 31.0682C92.6113 31.0682 92.3393 30.9986 92.1106 30.8594C91.8833 30.7188 91.7079 30.5227 91.5843 30.2713C91.4621 30.0185 91.4011 29.7244 91.4011 29.3892C91.4011 29.054 91.4621 28.7585 91.5843 28.5028C91.7079 28.2457 91.8797 28.0455 92.0999 27.902C92.3215 27.7571 92.58 27.6847 92.8755 27.6847C93.0459 27.6847 93.2143 27.7131 93.3805 27.7699C93.5467 27.8267 93.6979 27.919 93.8343 28.0469C93.9707 28.1733 94.0793 28.3409 94.1603 28.5497C94.2413 28.7585 94.2817 29.0156 94.2817 29.321V29.5341H91.759V29.0994H93.7704C93.7704 28.9148 93.7334 28.75 93.6596 28.6051C93.5871 28.4602 93.4834 28.3459 93.3485 28.2621C93.215 28.1783 93.0573 28.1364 92.8755 28.1364C92.6752 28.1364 92.5019 28.1861 92.3556 28.2855C92.2107 28.3835 92.0992 28.5114 92.0211 28.669C91.943 28.8267 91.9039 28.9957 91.9039 29.1761V29.4659C91.9039 29.7131 91.9465 29.9226 92.0317 30.0945C92.1184 30.2649 92.2384 30.3949 92.3918 30.4844C92.5452 30.5724 92.7235 30.6165 92.9266 30.6165C93.0587 30.6165 93.178 30.598 93.2846 30.5611C93.3925 30.5227 93.4856 30.4659 93.5637 30.3906C93.6418 30.3139 93.7022 30.2187 93.7448 30.1051L94.2306 30.2415C94.1795 30.4062 94.0935 30.5511 93.9728 30.6761C93.8521 30.7997 93.7029 30.8963 93.5253 30.9659C93.3478 31.0341 93.1482 31.0682 92.9266 31.0682ZM97.3648 28.4602L96.9131 28.5881C96.8847 28.5128 96.8428 28.4396 96.7874 28.3686C96.7334 28.2962 96.6596 28.2365 96.5658 28.1896C96.4721 28.1428 96.3521 28.1193 96.2057 28.1193C96.0055 28.1193 95.8386 28.1655 95.705 28.2578C95.5729 28.3487 95.5069 28.4645 95.5069 28.6051C95.5069 28.7301 95.5523 28.8288 95.6432 28.9013C95.7342 28.9737 95.8762 29.0341 96.0694 29.0824L96.5552 29.2017C96.8478 29.2727 97.0658 29.3814 97.2093 29.5277C97.3528 29.6726 97.4245 29.8594 97.4245 30.0881C97.4245 30.2756 97.3705 30.4432 97.2626 30.5909C97.156 30.7386 97.0069 30.8551 96.8151 30.9403C96.6234 31.0256 96.4003 31.0682 96.1461 31.0682C95.8123 31.0682 95.536 30.9957 95.3172 30.8509C95.0985 30.706 94.96 30.4943 94.9018 30.2159L95.379 30.0966C95.4245 30.2727 95.5104 30.4048 95.6369 30.4929C95.7647 30.581 95.9316 30.625 96.1376 30.625C96.3719 30.625 96.558 30.5753 96.6958 30.4759C96.835 30.375 96.9046 30.2543 96.9046 30.1136C96.9046 30 96.8648 29.9048 96.7853 29.8281C96.7057 29.75 96.5836 29.6918 96.4188 29.6534L95.8734 29.5256C95.5736 29.4545 95.3535 29.3445 95.2128 29.1953C95.0736 29.0447 95.004 28.8565 95.004 28.6307C95.004 28.446 95.0559 28.2827 95.1596 28.1406C95.2647 27.9986 95.4074 27.8871 95.5878 27.8061C95.7697 27.7251 95.9756 27.6847 96.2057 27.6847C96.5296 27.6847 96.7839 27.7557 96.9685 27.8977C97.1546 28.0398 97.2867 28.2273 97.3648 28.4602ZM100.5 28.4602L100.048 28.5881C100.019 28.5128 99.9776 28.4396 99.9222 28.3686C99.8682 28.2962 99.7943 28.2365 99.7006 28.1896C99.6068 28.1428 99.4868 28.1193 99.3405 28.1193C99.1402 28.1193 98.9733 28.1655 98.8398 28.2578C98.7077 28.3487 98.6416 28.4645 98.6416 28.6051C98.6416 28.7301 98.6871 28.8288 98.778 28.9013C98.8689 28.9737 99.011 29.0341 99.2041 29.0824L99.6899 29.2017C99.9826 29.2727 100.201 29.3814 100.344 29.5277C100.488 29.6726 100.559 29.8594 100.559 30.0881C100.559 30.2756 100.505 30.4432 100.397 30.5909C100.291 30.7386 100.142 30.8551 99.9499 30.9403C99.7581 31.0256 99.5351 31.0682 99.2809 31.0682C98.947 31.0682 98.6708 30.9957 98.452 30.8509C98.2333 30.706 98.0948 30.4943 98.0365 30.2159L98.5138 30.0966C98.5593 30.2727 98.6452 30.4048 98.7716 30.4929C98.8995 30.581 99.0664 30.625 99.2723 30.625C99.5067 30.625 99.6928 30.5753 99.8306 30.4759C99.9698 30.375 100.039 30.2543 100.039 30.1136C100.039 30 99.9996 29.9048 99.9201 29.8281C99.8405 29.75 99.7184 29.6918 99.5536 29.6534L99.0081 29.5256C98.7084 29.4545 98.4882 29.3445 98.3476 29.1953C98.2084 29.0447 98.1388 28.8565 98.1388 28.6307C98.1388 28.446 98.1907 28.2827 98.2943 28.1406C98.3995 27.9986 98.5422 27.8871 98.7226 27.8061C98.9044 27.7251 99.1104 27.6847 99.3405 27.6847C99.6644 27.6847 99.9186 27.7557 100.103 27.8977C100.289 28.0398 100.421 28.2273 100.5 28.4602ZM102.066 30.4034L102.032 30.6335C102.008 30.7955 101.971 30.9688 101.921 31.1534C101.873 31.3381 101.823 31.5121 101.77 31.6754C101.717 31.8388 101.674 31.9688 101.64 32.0653H101.257C101.275 31.9744 101.299 31.8544 101.329 31.7053C101.359 31.5561 101.389 31.3892 101.418 31.2045C101.45 31.0213 101.475 30.8338 101.495 30.642L101.521 30.4034H102.066ZM104.685 31V27.7273H105.171V28.2216H105.205C105.265 28.0597 105.373 27.9283 105.529 27.8274C105.685 27.7266 105.861 27.6761 106.057 27.6761C106.094 27.6761 106.141 27.6768 106.196 27.6783C106.251 27.6797 106.293 27.6818 106.322 27.6847V28.196C106.305 28.1918 106.266 28.1854 106.205 28.1768C106.145 28.1669 106.082 28.1619 106.015 28.1619C105.856 28.1619 105.714 28.1953 105.589 28.2621C105.465 28.3274 105.367 28.4183 105.295 28.5348C105.224 28.6499 105.188 28.7812 105.188 28.929V31H104.685ZM108.19 31.0682C107.875 31.0682 107.603 30.9986 107.374 30.8594C107.147 30.7188 106.972 30.5227 106.848 30.2713C106.726 30.0185 106.665 29.7244 106.665 29.3892C106.665 29.054 106.726 28.7585 106.848 28.5028C106.972 28.2457 107.143 28.0455 107.364 27.902C107.585 27.7571 107.844 27.6847 108.139 27.6847C108.31 27.6847 108.478 27.7131 108.644 27.7699C108.81 27.8267 108.962 27.919 109.098 28.0469C109.234 28.1733 109.343 28.3409 109.424 28.5497C109.505 28.7585 109.545 29.0156 109.545 29.321V29.5341H107.023V29.0994H109.034C109.034 28.9148 108.997 28.75 108.923 28.6051C108.851 28.4602 108.747 28.3459 108.612 28.2621C108.479 28.1783 108.321 28.1364 108.139 28.1364C107.939 28.1364 107.766 28.1861 107.619 28.2855C107.474 28.3835 107.363 28.5114 107.285 28.669C107.207 28.8267 107.168 28.9957 107.168 29.1761V29.4659C107.168 29.7131 107.21 29.9226 107.295 30.0945C107.382 30.2649 107.502 30.3949 107.655 30.4844C107.809 30.5724 107.987 30.6165 108.19 30.6165C108.322 30.6165 108.442 30.598 108.548 30.5611C108.656 30.5227 108.749 30.4659 108.827 30.3906C108.905 30.3139 108.966 30.2187 109.008 30.1051L109.494 30.2415C109.443 30.4062 109.357 30.5511 109.236 30.6761C109.116 30.7997 108.967 30.8963 108.789 30.9659C108.611 31.0341 108.412 31.0682 108.19 31.0682ZM110.813 29.0312V31H110.31V27.7273H110.796V28.2386H110.839C110.915 28.0724 111.032 27.9389 111.188 27.8381C111.344 27.7358 111.546 27.6847 111.793 27.6847C112.015 27.6847 112.209 27.7301 112.375 27.821C112.541 27.9105 112.67 28.0469 112.763 28.2301C112.855 28.4119 112.901 28.642 112.901 28.9205V31H112.398V28.9545C112.398 28.6974 112.332 28.4972 112.198 28.3537C112.065 28.2088 111.881 28.1364 111.648 28.1364C111.488 28.1364 111.344 28.1712 111.218 28.2408C111.093 28.3104 110.994 28.4119 110.922 28.5455C110.849 28.679 110.813 28.8409 110.813 29.0312ZM114.783 31.0767C114.576 31.0767 114.388 31.0376 114.219 30.9595C114.049 30.88 113.915 30.7656 113.816 30.6165C113.716 30.4659 113.667 30.2841 113.667 30.071C113.667 29.8835 113.704 29.7315 113.777 29.6151C113.851 29.4972 113.95 29.4048 114.074 29.3381C114.197 29.2713 114.334 29.2216 114.483 29.1889C114.633 29.1548 114.785 29.1278 114.937 29.108C115.135 29.0824 115.297 29.0632 115.42 29.0504C115.545 29.0362 115.636 29.0128 115.693 28.9801C115.751 28.9474 115.78 28.8906 115.78 28.8097V28.7926C115.78 28.5824 115.723 28.419 115.608 28.3026C115.494 28.1861 115.322 28.1278 115.09 28.1278C114.85 28.1278 114.662 28.1804 114.525 28.2855C114.389 28.3906 114.293 28.5028 114.238 28.6222L113.76 28.4517C113.846 28.2528 113.959 28.098 114.101 27.9872C114.245 27.875 114.401 27.7969 114.57 27.7528C114.741 27.7074 114.908 27.6847 115.073 27.6847C115.178 27.6847 115.299 27.6974 115.435 27.723C115.573 27.7472 115.706 27.7976 115.834 27.8743C115.963 27.951 116.07 28.0668 116.155 28.2216C116.241 28.3764 116.283 28.5838 116.283 28.8438V31H115.78V30.5568H115.755C115.721 30.6278 115.664 30.7038 115.584 30.7848C115.505 30.8658 115.399 30.9347 115.267 30.9915C115.135 31.0483 114.973 31.0767 114.783 31.0767ZM114.86 30.625C115.059 30.625 115.226 30.5859 115.363 30.5078C115.5 30.4297 115.604 30.3288 115.674 30.2053C115.745 30.0817 115.78 29.9517 115.78 29.8153V29.3551C115.759 29.3807 115.712 29.4041 115.64 29.4254C115.569 29.4453 115.486 29.4631 115.393 29.4787C115.3 29.4929 115.21 29.5057 115.122 29.517C115.035 29.527 114.965 29.5355 114.911 29.5426C114.78 29.5597 114.658 29.5874 114.545 29.6257C114.432 29.6626 114.341 29.7187 114.272 29.794C114.204 29.8679 114.17 29.9687 114.17 30.0966C114.17 30.2713 114.234 30.4034 114.363 30.4929C114.494 30.581 114.66 30.625 114.86 30.625ZM117.201 31V27.7273H117.687V28.2386H117.729C117.798 28.0639 117.908 27.9283 118.06 27.8317C118.212 27.7337 118.394 27.6847 118.607 27.6847C118.823 27.6847 119.003 27.7337 119.146 27.8317C119.291 27.9283 119.404 28.0639 119.485 28.2386H119.519C119.603 28.0696 119.729 27.9354 119.896 27.8359C120.064 27.7351 120.265 27.6847 120.499 27.6847C120.792 27.6847 121.031 27.7763 121.217 27.9595C121.403 28.1413 121.496 28.4247 121.496 28.8097V31H120.994V28.8097C120.994 28.5682 120.928 28.3956 120.795 28.2919C120.663 28.1882 120.508 28.1364 120.329 28.1364C120.099 28.1364 119.92 28.206 119.794 28.3452C119.668 28.483 119.604 28.6577 119.604 28.8693V31H119.093V28.7585C119.093 28.5724 119.033 28.4226 118.912 28.3089C118.791 28.1939 118.636 28.1364 118.445 28.1364C118.315 28.1364 118.192 28.1712 118.079 28.2408C117.967 28.3104 117.876 28.407 117.806 28.5305C117.738 28.6527 117.704 28.794 117.704 28.9545V31H117.201ZM123.788 31.0682C123.473 31.0682 123.201 30.9986 122.972 30.8594C122.745 30.7188 122.569 30.5227 122.446 30.2713C122.323 30.0185 122.262 29.7244 122.262 29.3892C122.262 29.054 122.323 28.7585 122.446 28.5028C122.569 28.2457 122.741 28.0455 122.961 27.902C123.183 27.7571 123.441 27.6847 123.737 27.6847C123.907 27.6847 124.076 27.7131 124.242 27.7699C124.408 27.8267 124.559 27.919 124.696 28.0469C124.832 28.1733 124.941 28.3409 125.022 28.5497C125.103 28.7585 125.143 29.0156 125.143 29.321V29.5341H122.62V29.0994H124.632C124.632 28.9148 124.595 28.75 124.521 28.6051C124.448 28.4602 124.345 28.3459 124.21 28.2621C124.076 28.1783 123.919 28.1364 123.737 28.1364C123.537 28.1364 123.363 28.1861 123.217 28.2855C123.072 28.3835 122.961 28.5114 122.882 28.669C122.804 28.8267 122.765 28.9957 122.765 29.1761V29.4659C122.765 29.7131 122.808 29.9226 122.893 30.0945C122.98 30.2649 123.1 30.3949 123.253 30.4844C123.407 30.5724 123.585 30.6165 123.788 30.6165C123.92 30.6165 124.039 30.598 124.146 30.5611C124.254 30.5227 124.347 30.4659 124.425 30.3906C124.503 30.3139 124.564 30.2187 124.606 30.1051L125.092 30.2415C125.041 30.4062 124.955 30.5511 124.834 30.6761C124.713 30.7997 124.564 30.8963 124.387 30.9659C124.209 31.0341 124.01 31.0682 123.788 31.0682ZM128.559 31.0767C128.351 31.0767 128.163 31.0376 127.994 30.9595C127.825 30.88 127.691 30.7656 127.591 30.6165C127.492 30.4659 127.442 30.2841 127.442 30.071C127.442 29.8835 127.479 29.7315 127.553 29.6151C127.627 29.4972 127.725 29.4048 127.849 29.3381C127.973 29.2713 128.109 29.2216 128.258 29.1889C128.409 29.1548 128.56 29.1278 128.712 29.108C128.911 29.0824 129.072 29.0632 129.196 29.0504C129.321 29.0362 129.412 29.0128 129.468 28.9801C129.527 28.9474 129.556 28.8906 129.556 28.8097V28.7926C129.556 28.5824 129.498 28.419 129.383 28.3026C129.269 28.1861 129.097 28.1278 128.865 28.1278C128.625 28.1278 128.437 28.1804 128.301 28.2855C128.164 28.3906 128.068 28.5028 128.013 28.6222L127.536 28.4517C127.621 28.2528 127.735 28.098 127.877 27.9872C128.02 27.875 128.176 27.7969 128.345 27.7528C128.516 27.7074 128.684 27.6847 128.848 27.6847C128.953 27.6847 129.074 27.6974 129.211 27.723C129.348 27.7472 129.481 27.7976 129.609 27.8743C129.738 27.951 129.845 28.0668 129.931 28.2216C130.016 28.3764 130.059 28.5838 130.059 28.8438V31H129.556V30.5568H129.53C129.496 30.6278 129.439 30.7038 129.36 30.7848C129.28 30.8658 129.174 30.9347 129.042 30.9915C128.91 31.0483 128.749 31.0767 128.559 31.0767ZM128.635 30.625C128.834 30.625 129.002 30.5859 129.138 30.5078C129.276 30.4297 129.38 30.3288 129.449 30.2053C129.52 30.0817 129.556 29.9517 129.556 29.8153V29.3551C129.534 29.3807 129.488 29.4041 129.415 29.4254C129.344 29.4453 129.262 29.4631 129.168 29.4787C129.076 29.4929 128.985 29.5057 128.897 29.517C128.811 29.527 128.74 29.5355 128.686 29.5426C128.556 29.5597 128.434 29.5874 128.32 29.6257C128.208 29.6626 128.117 29.7187 128.047 29.794C127.979 29.8679 127.945 29.9687 127.945 30.0966C127.945 30.2713 128.01 30.4034 128.139 30.4929C128.269 30.581 128.435 30.625 128.635 30.625ZM131.479 29.0312V31H130.976V27.7273H131.462V28.2386H131.505C131.581 28.0724 131.698 27.9389 131.854 27.8381C132.01 27.7358 132.212 27.6847 132.459 27.6847C132.681 27.6847 132.875 27.7301 133.041 27.821C133.207 27.9105 133.336 28.0469 133.429 28.2301C133.521 28.4119 133.567 28.642 133.567 28.9205V31H133.064V28.9545C133.064 28.6974 132.998 28.4972 132.864 28.3537C132.731 28.2088 132.547 28.1364 132.314 28.1364C132.154 28.1364 132.01 28.1712 131.884 28.2408C131.759 28.3104 131.66 28.4119 131.588 28.5455C131.515 28.679 131.479 28.8409 131.479 29.0312ZM135.722 31.0682C135.449 31.0682 135.208 30.9993 135 30.8615C134.791 30.7223 134.627 30.5263 134.51 30.2734C134.392 30.0192 134.333 29.7188 134.333 29.3722C134.333 29.0284 134.392 28.7301 134.51 28.4773C134.627 28.2244 134.792 28.0291 135.002 27.8913C135.212 27.7536 135.455 27.6847 135.73 27.6847C135.943 27.6847 136.112 27.7202 136.235 27.7912C136.36 27.8608 136.456 27.9403 136.521 28.0298C136.588 28.1179 136.64 28.1903 136.676 28.2472H136.719V26.6364H137.222V31H136.736V30.4972H136.676C136.64 30.5568 136.587 30.6321 136.519 30.723C136.451 30.8125 136.353 30.8928 136.227 30.9638C136.1 31.0334 135.932 31.0682 135.722 31.0682ZM135.79 30.6165C135.992 30.6165 136.162 30.5639 136.301 30.4588C136.441 30.3523 136.546 30.2053 136.619 30.0178C136.691 29.8288 136.728 29.6108 136.728 29.3636C136.728 29.1193 136.692 28.9055 136.621 28.7223C136.55 28.5376 136.445 28.3942 136.306 28.2919C136.167 28.1882 135.995 28.1364 135.79 28.1364C135.577 28.1364 135.399 28.1911 135.257 28.3004C135.117 28.4084 135.011 28.5554 134.94 28.7415C134.87 28.9261 134.836 29.1335 134.836 29.3636C134.836 29.5966 134.871 29.8082 134.942 29.9986C135.015 30.1875 135.121 30.3381 135.262 30.4503C135.404 30.5611 135.58 30.6165 135.79 30.6165ZM142.218 28.4602L141.767 28.5881C141.738 28.5128 141.696 28.4396 141.641 28.3686C141.587 28.2962 141.513 28.2365 141.419 28.1896C141.326 28.1428 141.206 28.1193 141.059 28.1193C140.859 28.1193 140.692 28.1655 140.559 28.2578C140.426 28.3487 140.36 28.4645 140.36 28.6051C140.36 28.7301 140.406 28.8288 140.497 28.9013C140.588 28.9737 140.73 29.0341 140.923 29.0824L141.409 29.2017C141.701 29.2727 141.919 29.3814 142.063 29.5277C142.206 29.6726 142.278 29.8594 142.278 30.0881C142.278 30.2756 142.224 30.4432 142.116 30.5909C142.01 30.7386 141.86 30.8551 141.669 30.9403C141.477 31.0256 141.254 31.0682 141 31.0682C140.666 31.0682 140.39 30.9957 140.171 30.8509C139.952 30.706 139.814 30.4943 139.755 30.2159L140.233 30.0966C140.278 30.2727 140.364 30.4048 140.49 30.4929C140.618 30.581 140.785 30.625 140.991 30.625C141.225 30.625 141.412 30.5753 141.549 30.4759C141.689 30.375 141.758 30.2543 141.758 30.1136C141.758 30 141.718 29.9048 141.639 29.8281C141.559 29.75 141.437 29.6918 141.272 29.6534L140.727 29.5256C140.427 29.4545 140.207 29.3445 140.066 29.1953C139.927 29.0447 139.858 28.8565 139.858 28.6307C139.858 28.446 139.909 28.2827 140.013 28.1406C140.118 27.9986 140.261 27.8871 140.441 27.8061C140.623 27.7251 140.829 27.6847 141.059 27.6847C141.383 27.6847 141.637 27.7557 141.822 27.8977C142.008 28.0398 142.14 28.2273 142.218 28.4602ZM144.458 27.7273V28.1534H142.762V27.7273H144.458ZM143.257 26.9432H143.759V30.0625C143.759 30.2045 143.78 30.3111 143.821 30.3821C143.864 30.4517 143.918 30.4986 143.983 30.5227C144.05 30.5455 144.12 30.5568 144.194 30.5568C144.249 30.5568 144.295 30.554 144.33 30.5483C144.366 30.5412 144.394 30.5355 144.416 30.5312L144.518 30.983C144.484 30.9957 144.436 31.0085 144.375 31.0213C144.314 31.0355 144.237 31.0426 144.143 31.0426C144.001 31.0426 143.862 31.0121 143.725 30.951C143.59 30.8899 143.478 30.7969 143.389 30.6719C143.301 30.5469 143.257 30.3892 143.257 30.1989V26.9432ZM146.509 31.0682C146.214 31.0682 145.954 30.9979 145.731 30.8572C145.51 30.7166 145.336 30.5199 145.211 30.267C145.088 30.0142 145.026 29.7187 145.026 29.3807C145.026 29.0398 145.088 28.7422 145.211 28.4879C145.336 28.2337 145.51 28.0362 145.731 27.8956C145.954 27.755 146.214 27.6847 146.509 27.6847C146.804 27.6847 147.063 27.755 147.285 27.8956C147.508 28.0362 147.681 28.2337 147.804 28.4879C147.929 28.7422 147.992 29.0398 147.992 29.3807C147.992 29.7187 147.929 30.0142 147.804 30.267C147.681 30.5199 147.508 30.7166 147.285 30.8572C147.063 30.9979 146.804 31.0682 146.509 31.0682ZM146.509 30.6165C146.733 30.6165 146.918 30.5589 147.063 30.4439C147.208 30.3288 147.315 30.1776 147.385 29.9901C147.454 29.8026 147.489 29.5994 147.489 29.3807C147.489 29.1619 147.454 28.9581 147.385 28.7692C147.315 28.5803 147.208 28.4276 147.063 28.3111C146.918 28.1946 146.733 28.1364 146.509 28.1364C146.285 28.1364 146.1 28.1946 145.955 28.3111C145.81 28.4276 145.703 28.5803 145.633 28.7692C145.564 28.9581 145.529 29.1619 145.529 29.3807C145.529 29.5994 145.564 29.8026 145.633 29.9901C145.703 30.1776 145.81 30.3288 145.955 30.4439C146.1 30.5589 146.285 30.6165 146.509 30.6165ZM148.76 31V27.7273H149.245V28.2216H149.279C149.339 28.0597 149.447 27.9283 149.603 27.8274C149.76 27.7266 149.936 27.6761 150.132 27.6761C150.169 27.6761 150.215 27.6768 150.27 27.6783C150.326 27.6797 150.367 27.6818 150.396 27.6847V28.196C150.379 28.1918 150.34 28.1854 150.279 28.1768C150.219 28.1669 150.156 28.1619 150.089 28.1619C149.93 28.1619 149.788 28.1953 149.663 28.2621C149.539 28.3274 149.441 28.4183 149.369 28.5348C149.298 28.6499 149.262 28.7812 149.262 28.929V31H148.76ZM152.265 31.0682C151.949 31.0682 151.677 30.9986 151.448 30.8594C151.221 30.7188 151.046 30.5227 150.922 30.2713C150.8 30.0185 150.739 29.7244 150.739 29.3892C150.739 29.054 150.8 28.7585 150.922 28.5028C151.046 28.2457 151.218 28.0455 151.438 27.902C151.659 27.7571 151.918 27.6847 152.213 27.6847C152.384 27.6847 152.552 27.7131 152.718 27.7699C152.885 27.8267 153.036 27.919 153.172 28.0469C153.309 28.1733 153.417 28.3409 153.498 28.5497C153.579 28.7585 153.62 29.0156 153.62 29.321V29.5341H151.097V29.0994H153.108C153.108 28.9148 153.071 28.75 152.997 28.6051C152.925 28.4602 152.821 28.3459 152.686 28.2621C152.553 28.1783 152.395 28.1364 152.213 28.1364C152.013 28.1364 151.84 28.1861 151.693 28.2855C151.549 28.3835 151.437 28.5114 151.359 28.669C151.281 28.8267 151.242 28.9957 151.242 29.1761V29.4659C151.242 29.7131 151.284 29.9226 151.37 30.0945C151.456 30.2649 151.576 30.3949 151.73 30.4844C151.883 30.5724 152.061 30.6165 152.265 30.6165C152.397 30.6165 152.516 30.598 152.622 30.5611C152.73 30.5227 152.823 30.4659 152.902 30.3906C152.98 30.3139 153.04 30.2187 153.083 30.1051L153.568 30.2415C153.517 30.4062 153.431 30.5511 153.311 30.6761C153.19 30.7997 153.041 30.8963 152.863 30.9659C152.686 31.0341 152.486 31.0682 152.265 31.0682ZM157.529 27.7273V28.1534H155.765V27.7273H157.529ZM156.294 31V27.2756C156.294 27.0881 156.338 26.9318 156.426 26.8068C156.514 26.6818 156.628 26.5881 156.769 26.5256C156.909 26.4631 157.058 26.4318 157.214 26.4318C157.338 26.4318 157.439 26.4418 157.517 26.4616C157.595 26.4815 157.653 26.5 157.691 26.517L157.546 26.9517C157.521 26.9432 157.485 26.9325 157.44 26.9197C157.396 26.907 157.338 26.9006 157.265 26.9006C157.099 26.9006 156.979 26.9425 156.905 27.0263C156.833 27.1101 156.796 27.233 156.796 27.3949V31H156.294ZM158.234 31V27.7273H158.737V31H158.234ZM158.49 27.1818C158.392 27.1818 158.307 27.1484 158.236 27.0817C158.167 27.0149 158.132 26.9347 158.132 26.8409C158.132 26.7472 158.167 26.6669 158.236 26.6001C158.307 26.5334 158.392 26.5 158.49 26.5C158.588 26.5 158.672 26.5334 158.741 26.6001C158.812 26.6669 158.848 26.7472 158.848 26.8409C158.848 26.9347 158.812 27.0149 158.741 27.0817C158.672 27.1484 158.588 27.1818 158.49 27.1818ZM160.161 26.6364V31H159.658V26.6364H160.161ZM162.454 31.0682C162.139 31.0682 161.867 30.9986 161.638 30.8594C161.411 30.7188 161.235 30.5227 161.112 30.2713C160.989 30.0185 160.928 29.7244 160.928 29.3892C160.928 29.054 160.989 28.7585 161.112 28.5028C161.235 28.2457 161.407 28.0455 161.627 27.902C161.849 27.7571 162.107 27.6847 162.403 27.6847C162.573 27.6847 162.742 27.7131 162.908 27.7699C163.074 27.8267 163.225 27.919 163.362 28.0469C163.498 28.1733 163.607 28.3409 163.688 28.5497C163.769 28.7585 163.809 29.0156 163.809 29.321V29.5341H161.286V29.0994H163.298C163.298 28.9148 163.261 28.75 163.187 28.6051C163.114 28.4602 163.011 28.3459 162.876 28.2621C162.742 28.1783 162.585 28.1364 162.403 28.1364C162.203 28.1364 162.029 28.1861 161.883 28.2855C161.738 28.3835 161.627 28.5114 161.548 28.669C161.47 28.8267 161.431 28.9957 161.431 29.1761V29.4659C161.431 29.7131 161.474 29.9226 161.559 30.0945C161.646 30.2649 161.766 30.3949 161.919 30.4844C162.073 30.5724 162.251 30.6165 162.454 30.6165C162.586 30.6165 162.705 30.598 162.812 30.5611C162.92 30.5227 163.013 30.4659 163.091 30.3906C163.169 30.3139 163.23 30.2187 163.272 30.1051L163.758 30.2415C163.707 30.4062 163.621 30.5511 163.5 30.6761C163.379 30.7997 163.23 30.8963 163.053 30.9659C162.875 31.0341 162.676 31.0682 162.454 31.0682ZM166.892 28.4602L166.44 28.5881C166.412 28.5128 166.37 28.4396 166.315 28.3686C166.261 28.2962 166.187 28.2365 166.093 28.1896C165.999 28.1428 165.879 28.1193 165.733 28.1193C165.533 28.1193 165.366 28.1655 165.232 28.2578C165.1 28.3487 165.034 28.4645 165.034 28.6051C165.034 28.7301 165.08 28.8288 165.171 28.9013C165.261 28.9737 165.404 29.0341 165.597 29.0824L166.083 29.2017C166.375 29.2727 166.593 29.3814 166.737 29.5277C166.88 29.6726 166.952 29.8594 166.952 30.0881C166.952 30.2756 166.898 30.4432 166.79 30.5909C166.683 30.7386 166.534 30.8551 166.342 30.9403C166.151 31.0256 165.928 31.0682 165.673 31.0682C165.34 31.0682 165.063 30.9957 164.845 30.8509C164.626 30.706 164.487 30.4943 164.429 30.2159L164.906 30.0966C164.952 30.2727 165.038 30.4048 165.164 30.4929C165.292 30.581 165.459 30.625 165.665 30.625C165.899 30.625 166.085 30.5753 166.223 30.4759C166.362 30.375 166.432 30.2543 166.432 30.1136C166.432 30 166.392 29.9048 166.313 29.8281C166.233 29.75 166.111 29.6918 165.946 29.6534L165.401 29.5256C165.101 29.4545 164.881 29.3445 164.74 29.1953C164.601 29.0447 164.531 28.8565 164.531 28.6307C164.531 28.446 164.583 28.2827 164.687 28.1406C164.792 27.9986 164.935 27.8871 165.115 27.8061C165.297 27.7251 165.503 27.6847 165.733 27.6847C166.057 27.6847 166.311 27.7557 166.496 27.8977C166.682 28.0398 166.814 28.2273 166.892 28.4602ZM169.396 31V27.7273H169.899V31H169.396ZM169.652 27.1818C169.554 27.1818 169.469 27.1484 169.398 27.0817C169.329 27.0149 169.294 26.9347 169.294 26.8409C169.294 26.7472 169.329 26.6669 169.398 26.6001C169.469 26.5334 169.554 26.5 169.652 26.5C169.75 26.5 169.834 26.5334 169.903 26.6001C169.974 26.6669 170.01 26.7472 170.01 26.8409C170.01 26.9347 169.974 27.0149 169.903 27.0817C169.834 27.1484 169.75 27.1818 169.652 27.1818ZM171.323 29.0312V31H170.82V27.7273H171.306V28.2386H171.348C171.425 28.0724 171.542 27.9389 171.698 27.8381C171.854 27.7358 172.056 27.6847 172.303 27.6847C172.525 27.6847 172.719 27.7301 172.885 27.821C173.051 27.9105 173.18 28.0469 173.273 28.2301C173.365 28.4119 173.411 28.642 173.411 28.9205V31H172.908V28.9545C172.908 28.6974 172.841 28.4972 172.708 28.3537C172.574 28.2088 172.391 28.1364 172.158 28.1364C171.998 28.1364 171.854 28.1712 171.728 28.2408C171.603 28.3104 171.504 28.4119 171.432 28.5455C171.359 28.679 171.323 28.8409 171.323 29.0312ZM176.017 32.2273V27.7273H176.503V28.2472H176.563C176.6 28.1903 176.651 28.1179 176.716 28.0298C176.783 27.9403 176.878 27.8608 177.002 27.7912C177.127 27.7202 177.296 27.6847 177.509 27.6847C177.784 27.6847 178.027 27.7536 178.238 27.8913C178.448 28.0291 178.612 28.2244 178.73 28.4773C178.848 28.7301 178.907 29.0284 178.907 29.3722C178.907 29.7188 178.848 30.0192 178.73 30.2734C178.612 30.5263 178.448 30.7223 178.24 30.8615C178.031 30.9993 177.79 31.0682 177.517 31.0682C177.307 31.0682 177.139 31.0334 177.012 30.9638C176.886 30.8928 176.789 30.8125 176.72 30.723C176.652 30.6321 176.6 30.5568 176.563 30.4972H176.52V32.2273H176.017ZM176.512 29.3636C176.512 29.6108 176.548 29.8288 176.62 30.0178C176.693 30.2053 176.799 30.3523 176.938 30.4588C177.077 30.5639 177.247 30.6165 177.449 30.6165C177.659 30.6165 177.835 30.5611 177.975 30.4503C178.117 30.3381 178.224 30.1875 178.295 29.9986C178.367 29.8082 178.404 29.5966 178.404 29.3636C178.404 29.1335 178.368 28.9261 178.297 28.7415C178.228 28.5554 178.122 28.4084 177.98 28.3004C177.839 28.1911 177.662 28.1364 177.449 28.1364C177.245 28.1364 177.073 28.1882 176.934 28.2919C176.794 28.3942 176.689 28.5376 176.618 28.7223C176.547 28.9055 176.512 29.1193 176.512 29.3636ZM179.674 31V27.7273H180.159V28.2216H180.193C180.253 28.0597 180.361 27.9283 180.517 27.8274C180.674 27.7266 180.85 27.6761 181.046 27.6761C181.083 27.6761 181.129 27.6768 181.184 27.6783C181.24 27.6797 181.282 27.6818 181.31 27.6847V28.196C181.293 28.1918 181.254 28.1854 181.193 28.1768C181.133 28.1669 181.07 28.1619 181.003 28.1619C180.844 28.1619 180.702 28.1953 180.577 28.2621C180.453 28.3274 180.355 28.4183 180.283 28.5348C180.212 28.6499 180.176 28.7812 180.176 28.929V31H179.674ZM183.179 31.0682C182.863 31.0682 182.591 30.9986 182.363 30.8594C182.135 30.7188 181.96 30.5227 181.836 30.2713C181.714 30.0185 181.653 29.7244 181.653 29.3892C181.653 29.054 181.714 28.7585 181.836 28.5028C181.96 28.2457 182.132 28.0455 182.352 27.902C182.573 27.7571 182.832 27.6847 183.127 27.6847C183.298 27.6847 183.466 27.7131 183.632 27.7699C183.799 27.8267 183.95 27.919 184.086 28.0469C184.223 28.1733 184.331 28.3409 184.412 28.5497C184.493 28.7585 184.534 29.0156 184.534 29.321V29.5341H182.011V29.0994H184.022C184.022 28.9148 183.985 28.75 183.912 28.6051C183.839 28.4602 183.735 28.3459 183.6 28.2621C183.467 28.1783 183.309 28.1364 183.127 28.1364C182.927 28.1364 182.754 28.1861 182.608 28.2855C182.463 28.3835 182.351 28.5114 182.273 28.669C182.195 28.8267 182.156 28.9957 182.156 29.1761V29.4659C182.156 29.7131 182.198 29.9226 182.284 30.0945C182.37 30.2649 182.49 30.3949 182.644 30.4844C182.797 30.5724 182.975 30.6165 183.179 30.6165C183.311 30.6165 183.43 30.598 183.537 30.5611C183.644 30.5227 183.738 30.4659 183.816 30.3906C183.894 30.3139 183.954 30.2187 183.997 30.1051L184.483 30.2415C184.431 30.4062 184.345 30.5511 184.225 30.6761C184.104 30.7997 183.955 30.8963 183.777 30.9659C183.6 31.0341 183.4 31.0682 183.179 31.0682ZM187.617 28.4602L187.165 28.5881C187.137 28.5128 187.095 28.4396 187.039 28.3686C186.985 28.2962 186.912 28.2365 186.818 28.1896C186.724 28.1428 186.604 28.1193 186.458 28.1193C186.257 28.1193 186.091 28.1655 185.957 28.2578C185.825 28.3487 185.759 28.4645 185.759 28.6051C185.759 28.7301 185.804 28.8288 185.895 28.9013C185.986 28.9737 186.128 29.0341 186.321 29.0824L186.807 29.2017C187.1 29.2727 187.318 29.3814 187.461 29.5277C187.605 29.6726 187.676 29.8594 187.676 30.0881C187.676 30.2756 187.622 30.4432 187.515 30.5909C187.408 30.7386 187.259 30.8551 187.067 30.9403C186.875 31.0256 186.652 31.0682 186.398 31.0682C186.064 31.0682 185.788 30.9957 185.569 30.8509C185.35 30.706 185.212 30.4943 185.154 30.2159L185.631 30.0966C185.676 30.2727 185.762 30.4048 185.889 30.4929C186.017 30.581 186.184 30.625 186.39 30.625C186.624 30.625 186.81 30.5753 186.948 30.4759C187.087 30.375 187.157 30.2543 187.157 30.1136C187.157 30 187.117 29.9048 187.037 29.8281C186.958 29.75 186.836 29.6918 186.671 29.6534L186.125 29.5256C185.826 29.4545 185.605 29.3445 185.465 29.1953C185.326 29.0447 185.256 28.8565 185.256 28.6307C185.256 28.446 185.308 28.2827 185.412 28.1406C185.517 27.9986 185.659 27.8871 185.84 27.8061C186.022 27.7251 186.228 27.6847 186.458 27.6847C186.782 27.6847 187.036 27.7557 187.22 27.8977C187.407 28.0398 187.539 28.2273 187.617 28.4602ZM189.806 31.0682C189.49 31.0682 189.218 30.9986 188.989 30.8594C188.762 30.7188 188.587 30.5227 188.463 30.2713C188.341 30.0185 188.28 29.7244 188.28 29.3892C188.28 29.054 188.341 28.7585 188.463 28.5028C188.587 28.2457 188.759 28.0455 188.979 27.902C189.2 27.7571 189.459 27.6847 189.754 27.6847C189.925 27.6847 190.093 27.7131 190.259 27.7699C190.426 27.8267 190.577 27.919 190.713 28.0469C190.85 28.1733 190.958 28.3409 191.039 28.5497C191.12 28.7585 191.161 29.0156 191.161 29.321V29.5341H188.638V29.0994H190.649C190.649 28.9148 190.612 28.75 190.538 28.6051C190.466 28.4602 190.362 28.3459 190.227 28.2621C190.094 28.1783 189.936 28.1364 189.754 28.1364C189.554 28.1364 189.381 28.1861 189.235 28.2855C189.09 28.3835 188.978 28.5114 188.9 28.669C188.822 28.8267 188.783 28.9957 188.783 29.1761V29.4659C188.783 29.7131 188.825 29.9226 188.911 30.0945C188.997 30.2649 189.117 30.3949 189.271 30.4844C189.424 30.5724 189.602 30.6165 189.806 30.6165C189.938 30.6165 190.057 30.598 190.163 30.5611C190.271 30.5227 190.364 30.4659 190.443 30.3906C190.521 30.3139 190.581 30.2187 190.624 30.1051L191.11 30.2415C191.058 30.4062 190.972 30.5511 190.852 30.6761C190.731 30.7997 190.582 30.8963 190.404 30.9659C190.227 31.0341 190.027 31.0682 189.806 31.0682ZM193.349 27.7273V28.1534H191.653V27.7273H193.349ZM192.147 26.9432H192.65V30.0625C192.65 30.2045 192.671 30.3111 192.712 30.3821C192.754 30.4517 192.808 30.4986 192.874 30.5227C192.94 30.5455 193.011 30.5568 193.085 30.5568C193.14 30.5568 193.186 30.554 193.221 30.5483C193.257 30.5412 193.285 30.5355 193.306 30.5312L193.409 30.983C193.374 30.9957 193.327 31.0085 193.266 31.0213C193.205 31.0355 193.127 31.0426 193.034 31.0426C192.891 31.0426 192.752 31.0121 192.616 30.951C192.481 30.8899 192.369 30.7969 192.279 30.6719C192.191 30.5469 192.147 30.3892 192.147 30.1989V26.9432ZM196.296 26.6364V31H195.793V26.6364H196.296ZM198.546 31.0682C198.251 31.0682 197.991 30.9979 197.768 30.8572C197.547 30.7166 197.374 30.5199 197.249 30.267C197.125 30.0142 197.063 29.7187 197.063 29.3807C197.063 29.0398 197.125 28.7422 197.249 28.4879C197.374 28.2337 197.547 28.0362 197.768 27.8956C197.991 27.755 198.251 27.6847 198.546 27.6847C198.842 27.6847 199.1 27.755 199.322 27.8956C199.545 28.0362 199.718 28.2337 199.842 28.4879C199.967 28.7422 200.029 29.0398 200.029 29.3807C200.029 29.7187 199.967 30.0142 199.842 30.267C199.718 30.5199 199.545 30.7166 199.322 30.8572C199.1 30.9979 198.842 31.0682 198.546 31.0682ZM198.546 30.6165C198.771 30.6165 198.955 30.5589 199.1 30.4439C199.245 30.3288 199.352 30.1776 199.422 29.9901C199.491 29.8026 199.526 29.5994 199.526 29.3807C199.526 29.1619 199.491 28.9581 199.422 28.7692C199.352 28.5803 199.245 28.4276 199.1 28.3111C198.955 28.1946 198.771 28.1364 198.546 28.1364C198.322 28.1364 198.137 28.1946 197.992 28.3111C197.847 28.4276 197.74 28.5803 197.67 28.7692C197.601 28.9581 197.566 29.1619 197.566 29.3807C197.566 29.5994 197.601 29.8026 197.67 29.9901C197.74 30.1776 197.847 30.3288 197.992 30.4439C198.137 30.5589 198.322 30.6165 198.546 30.6165ZM202.126 31.0682C201.819 31.0682 201.555 30.9957 201.334 30.8509C201.112 30.706 200.942 30.5064 200.822 30.2521C200.703 29.9979 200.643 29.7074 200.643 29.3807C200.643 29.0483 200.704 28.755 200.826 28.5007C200.95 28.245 201.122 28.0455 201.342 27.902C201.564 27.7571 201.822 27.6847 202.118 27.6847C202.348 27.6847 202.555 27.7273 202.74 27.8125C202.924 27.8977 203.076 28.017 203.194 28.1705C203.312 28.3239 203.385 28.5028 203.413 28.7074H202.91C202.872 28.5582 202.787 28.4261 202.655 28.3111C202.524 28.1946 202.348 28.1364 202.126 28.1364C201.93 28.1364 201.758 28.1875 201.611 28.2898C201.464 28.3906 201.35 28.5334 201.268 28.718C201.187 28.9013 201.146 29.1165 201.146 29.3636C201.146 29.6165 201.186 29.8366 201.265 30.0241C201.346 30.2116 201.46 30.3572 201.606 30.4609C201.754 30.5646 201.927 30.6165 202.126 30.6165C202.257 30.6165 202.375 30.5938 202.482 30.5483C202.589 30.5028 202.679 30.4375 202.753 30.3523C202.826 30.267 202.879 30.1648 202.91 30.0455H203.413C203.385 30.2386 203.314 30.4126 203.202 30.5675C203.091 30.7209 202.944 30.843 202.761 30.9339C202.579 31.0234 202.368 31.0682 202.126 31.0682ZM205.111 31.0767C204.904 31.0767 204.716 31.0376 204.547 30.9595C204.378 30.88 204.243 30.7656 204.144 30.6165C204.045 30.4659 203.995 30.2841 203.995 30.071C203.995 29.8835 204.032 29.7315 204.106 29.6151C204.179 29.4972 204.278 29.4048 204.402 29.3381C204.525 29.2713 204.662 29.2216 204.811 29.1889C204.961 29.1548 205.113 29.1278 205.265 29.108C205.464 29.0824 205.625 29.0632 205.748 29.0504C205.873 29.0362 205.964 29.0128 206.021 28.9801C206.079 28.9474 206.108 28.8906 206.108 28.8097V28.7926C206.108 28.5824 206.051 28.419 205.936 28.3026C205.822 28.1861 205.65 28.1278 205.418 28.1278C205.178 28.1278 204.99 28.1804 204.853 28.2855C204.717 28.3906 204.621 28.5028 204.566 28.6222L204.089 28.4517C204.174 28.2528 204.287 28.098 204.429 27.9872C204.573 27.875 204.729 27.7969 204.898 27.7528C205.069 27.7074 205.236 27.6847 205.401 27.6847C205.506 27.6847 205.627 27.6974 205.763 27.723C205.901 27.7472 206.034 27.7976 206.162 27.8743C206.291 27.951 206.398 28.0668 206.483 28.2216C206.569 28.3764 206.611 28.5838 206.611 28.8438V31H206.108V30.5568H206.083C206.049 30.6278 205.992 30.7038 205.912 30.7848C205.833 30.8658 205.727 30.9347 205.595 30.9915C205.463 31.0483 205.302 31.0767 205.111 31.0767ZM205.188 30.625C205.387 30.625 205.554 30.5859 205.691 30.5078C205.829 30.4297 205.932 30.3288 206.002 30.2053C206.073 30.0817 206.108 29.9517 206.108 29.8153V29.3551C206.087 29.3807 206.04 29.4041 205.968 29.4254C205.897 29.4453 205.814 29.4631 205.721 29.4787C205.628 29.4929 205.538 29.5057 205.45 29.517C205.363 29.527 205.293 29.5355 205.239 29.5426C205.108 29.5597 204.986 29.5874 204.873 29.6257C204.76 29.6626 204.67 29.7187 204.6 29.794C204.532 29.8679 204.498 29.9687 204.498 30.0966C204.498 30.2713 204.562 30.4034 204.692 30.4929C204.822 30.581 204.988 30.625 205.188 30.625ZM208.952 27.7273V28.1534H207.256V27.7273H208.952ZM207.751 26.9432H208.254V30.0625C208.254 30.2045 208.274 30.3111 208.315 30.3821C208.358 30.4517 208.412 30.4986 208.477 30.5227C208.544 30.5455 208.614 30.5568 208.688 30.5568C208.744 30.5568 208.789 30.554 208.825 30.5483C208.86 30.5412 208.888 30.5355 208.91 30.5312L209.012 30.983C208.978 30.9957 208.93 31.0085 208.869 31.0213C208.808 31.0355 208.731 31.0426 208.637 31.0426C208.495 31.0426 208.356 31.0121 208.219 30.951C208.084 30.8899 207.972 30.7969 207.883 30.6719C207.795 30.5469 207.751 30.3892 207.751 30.1989V26.9432ZM209.709 31V27.7273H210.212V31H209.709ZM209.964 27.1818C209.866 27.1818 209.782 27.1484 209.711 27.0817C209.641 27.0149 209.606 26.9347 209.606 26.8409C209.606 26.7472 209.641 26.6669 209.711 26.6001C209.782 26.5334 209.866 26.5 209.964 26.5C210.062 26.5 210.146 26.5334 210.216 26.6001C210.287 26.6669 210.322 26.7472 210.322 26.8409C210.322 26.9347 210.287 27.0149 210.216 27.0817C210.146 27.1484 210.062 27.1818 209.964 27.1818ZM212.462 31.0682C212.167 31.0682 211.907 30.9979 211.684 30.8572C211.463 30.7166 211.29 30.5199 211.165 30.267C211.041 30.0142 210.979 29.7187 210.979 29.3807C210.979 29.0398 211.041 28.7422 211.165 28.4879C211.29 28.2337 211.463 28.0362 211.684 27.8956C211.907 27.755 212.167 27.6847 212.462 27.6847C212.758 27.6847 213.016 27.755 213.238 27.8956C213.461 28.0362 213.634 28.2337 213.758 28.4879C213.883 28.7422 213.945 29.0398 213.945 29.3807C213.945 29.7187 213.883 30.0142 213.758 30.267C213.634 30.5199 213.461 30.7166 213.238 30.8572C213.016 30.9979 212.758 31.0682 212.462 31.0682ZM212.462 30.6165C212.687 30.6165 212.871 30.5589 213.016 30.4439C213.161 30.3288 213.268 30.1776 213.338 29.9901C213.407 29.8026 213.442 29.5994 213.442 29.3807C213.442 29.1619 213.407 28.9581 213.338 28.7692C213.268 28.5803 213.161 28.4276 213.016 28.3111C212.871 28.1946 212.687 28.1364 212.462 28.1364C212.238 28.1364 212.053 28.1946 211.908 28.3111C211.763 28.4276 211.656 28.5803 211.586 28.7692C211.517 28.9581 211.482 29.1619 211.482 29.3807C211.482 29.5994 211.517 29.8026 211.586 29.9901C211.656 30.1776 211.763 30.3288 211.908 30.4439C212.053 30.5589 212.238 30.6165 212.462 30.6165ZM215.216 29.0312V31H214.713V27.7273H215.198V28.2386H215.241C215.318 28.0724 215.434 27.9389 215.591 27.8381C215.747 27.7358 215.948 27.6847 216.196 27.6847C216.417 27.6847 216.611 27.7301 216.777 27.821C216.943 27.9105 217.073 28.0469 217.165 28.2301C217.257 28.4119 217.304 28.642 217.304 28.9205V31H216.801V28.9545C216.801 28.6974 216.734 28.4972 216.6 28.3537C216.467 28.2088 216.284 28.1364 216.051 28.1364C215.89 28.1364 215.747 28.1712 215.62 28.2408C215.495 28.3104 215.397 28.4119 215.324 28.5455C215.252 28.679 215.216 28.8409 215.216 29.0312ZM220.541 28.4602L220.089 28.5881C220.061 28.5128 220.019 28.4396 219.963 28.3686C219.909 28.2962 219.835 28.2365 219.742 28.1896C219.648 28.1428 219.528 28.1193 219.382 28.1193C219.181 28.1193 219.014 28.1655 218.881 28.2578C218.749 28.3487 218.683 28.4645 218.683 28.6051C218.683 28.7301 218.728 28.8288 218.819 28.9013C218.91 28.9737 219.052 29.0341 219.245 29.0824L219.731 29.2017C220.024 29.2727 220.242 29.3814 220.385 29.5277C220.529 29.6726 220.6 29.8594 220.6 30.0881C220.6 30.2756 220.546 30.4432 220.438 30.5909C220.332 30.7386 220.183 30.8551 219.991 30.9403C219.799 31.0256 219.576 31.0682 219.322 31.0682C218.988 31.0682 218.712 30.9957 218.493 30.8509C218.274 30.706 218.136 30.4943 218.078 30.2159L218.555 30.0966C218.6 30.2727 218.686 30.4048 218.813 30.4929C218.94 30.581 219.107 30.625 219.313 30.625C219.548 30.625 219.734 30.5753 219.872 30.4759C220.011 30.375 220.08 30.2543 220.08 30.1136C220.08 30 220.041 29.9048 219.961 29.8281C219.882 29.75 219.759 29.6918 219.595 29.6534L219.049 29.5256C218.749 29.4545 218.529 29.3445 218.389 29.1953C218.249 29.0447 218.18 28.8565 218.18 28.6307C218.18 28.446 218.232 28.2827 218.335 28.1406C218.44 27.9986 218.583 27.8871 218.764 27.8061C218.945 27.7251 219.151 27.6847 219.382 27.6847C219.705 27.6847 219.96 27.7557 220.144 27.8977C220.33 28.0398 220.462 28.2273 220.541 28.4602ZM223.045 31V27.7273H223.548V31H223.045ZM223.3 27.1818C223.202 27.1818 223.118 27.1484 223.047 27.0817C222.977 27.0149 222.942 26.9347 222.942 26.8409C222.942 26.7472 222.977 26.6669 223.047 26.6001C223.118 26.5334 223.202 26.5 223.3 26.5C223.398 26.5 223.482 26.5334 223.552 26.6001C223.623 26.6669 223.658 26.7472 223.658 26.8409C223.658 26.9347 223.623 27.0149 223.552 27.0817C223.482 27.1484 223.398 27.1818 223.3 27.1818ZM224.971 29.0312V31H224.469V27.7273H224.954V28.2386H224.997C225.074 28.0724 225.19 27.9389 225.346 27.8381C225.503 27.7358 225.704 27.6847 225.951 27.6847C226.173 27.6847 226.367 27.7301 226.533 27.821C226.699 27.9105 226.829 28.0469 226.921 28.2301C227.013 28.4119 227.059 28.642 227.059 28.9205V31H226.557V28.9545C226.557 28.6974 226.49 28.4972 226.356 28.3537C226.223 28.2088 226.04 28.1364 225.807 28.1364C225.646 28.1364 225.503 28.1712 225.376 28.2408C225.251 28.3104 225.152 28.4119 225.08 28.5455C225.008 28.679 224.971 28.8409 224.971 29.0312ZM232.717 28C232.67 27.8565 232.608 27.728 232.532 27.6143C232.456 27.4993 232.366 27.4013 232.261 27.3203C232.157 27.2393 232.039 27.1776 231.907 27.1349C231.775 27.0923 231.63 27.071 231.473 27.071C231.214 27.071 230.979 27.1378 230.767 27.2713C230.556 27.4048 230.387 27.6016 230.262 27.8615C230.137 28.1214 230.075 28.4403 230.075 28.8182C230.075 29.196 230.138 29.5149 230.265 29.7749C230.391 30.0348 230.562 30.2315 230.778 30.3651C230.994 30.4986 231.237 30.5653 231.507 30.5653C231.757 30.5653 231.977 30.5121 232.167 30.4055C232.359 30.2976 232.508 30.1456 232.615 29.9496C232.723 29.7521 232.777 29.5199 232.777 29.2528L232.939 29.2869H231.626V28.8182H233.288V29.2869C233.288 29.6463 233.211 29.9588 233.058 30.2244C232.906 30.4901 232.696 30.696 232.427 30.8423C232.16 30.9872 231.853 31.0597 231.507 31.0597C231.12 31.0597 230.781 30.9688 230.488 30.7869C230.197 30.6051 229.97 30.3466 229.806 30.0114C229.644 29.6761 229.564 29.2784 229.564 28.8182C229.564 28.473 229.61 28.1626 229.702 27.8871C229.796 27.6101 229.928 27.3743 230.098 27.1797C230.269 26.9851 230.47 26.8359 230.703 26.7322C230.936 26.6286 231.193 26.5767 231.473 26.5767C231.703 26.5767 231.917 26.6115 232.116 26.6811C232.316 26.7493 232.495 26.8466 232.651 26.973C232.809 27.098 232.94 27.2479 233.045 27.4226C233.15 27.5959 233.223 27.7884 233.262 28H232.717ZM235.454 31.0682C235.159 31.0682 234.9 30.9979 234.677 30.8572C234.455 30.7166 234.282 30.5199 234.157 30.267C234.033 30.0142 233.971 29.7187 233.971 29.3807C233.971 29.0398 234.033 28.7422 234.157 28.4879C234.282 28.2337 234.455 28.0362 234.677 27.8956C234.9 27.755 235.159 27.6847 235.454 27.6847C235.75 27.6847 236.008 27.755 236.23 27.8956C236.453 28.0362 236.626 28.2337 236.75 28.4879C236.875 28.7422 236.937 29.0398 236.937 29.3807C236.937 29.7187 236.875 30.0142 236.75 30.267C236.626 30.5199 236.453 30.7166 236.23 30.8572C236.008 30.9979 235.75 31.0682 235.454 31.0682ZM235.454 30.6165C235.679 30.6165 235.863 30.5589 236.008 30.4439C236.153 30.3288 236.26 30.1776 236.33 29.9901C236.4 29.8026 236.434 29.5994 236.434 29.3807C236.434 29.1619 236.4 28.9581 236.33 28.7692C236.26 28.5803 236.153 28.4276 236.008 28.3111C235.863 28.1946 235.679 28.1364 235.454 28.1364C235.23 28.1364 235.045 28.1946 234.9 28.3111C234.755 28.4276 234.648 28.5803 234.579 28.7692C234.509 28.9581 234.474 29.1619 234.474 29.3807C234.474 29.5994 234.509 29.8026 234.579 29.9901C234.648 30.1776 234.755 30.3288 234.9 30.4439C235.045 30.5589 235.23 30.6165 235.454 30.6165ZM239.034 31.0682C238.739 31.0682 238.48 30.9979 238.257 30.8572C238.035 30.7166 237.862 30.5199 237.737 30.267C237.613 30.0142 237.551 29.7187 237.551 29.3807C237.551 29.0398 237.613 28.7422 237.737 28.4879C237.862 28.2337 238.035 28.0362 238.257 27.8956C238.48 27.755 238.739 27.6847 239.034 27.6847C239.33 27.6847 239.588 27.755 239.81 27.8956C240.033 28.0362 240.206 28.2337 240.33 28.4879C240.455 28.7422 240.517 29.0398 240.517 29.3807C240.517 29.7187 240.455 30.0142 240.33 30.267C240.206 30.5199 240.033 30.7166 239.81 30.8572C239.588 30.9979 239.33 31.0682 239.034 31.0682ZM239.034 30.6165C239.259 30.6165 239.443 30.5589 239.588 30.4439C239.733 30.3288 239.841 30.1776 239.91 29.9901C239.98 29.8026 240.015 29.5994 240.015 29.3807C240.015 29.1619 239.98 28.9581 239.91 28.7692C239.841 28.5803 239.733 28.4276 239.588 28.3111C239.443 28.1946 239.259 28.1364 239.034 28.1364C238.81 28.1364 238.625 28.1946 238.48 28.3111C238.336 28.4276 238.228 28.5803 238.159 28.7692C238.089 28.9581 238.054 29.1619 238.054 29.3807C238.054 29.5994 238.089 29.8026 238.159 29.9901C238.228 30.1776 238.336 30.3288 238.48 30.4439C238.625 30.5589 238.81 30.6165 239.034 30.6165ZM242.606 32.2955C242.363 32.2955 242.154 32.2642 241.98 32.2017C241.805 32.1406 241.659 32.0597 241.543 31.9588C241.428 31.8594 241.336 31.7528 241.268 31.6392L241.668 31.358C241.714 31.4176 241.771 31.4858 241.841 31.5625C241.911 31.6406 242.006 31.7081 242.127 31.7649C242.249 31.8232 242.409 31.8523 242.606 31.8523C242.87 31.8523 243.088 31.7884 243.26 31.6605C243.432 31.5327 243.518 31.3324 243.518 31.0597V30.3949H243.475C243.438 30.4545 243.386 30.5284 243.318 30.6165C243.251 30.7031 243.154 30.7805 243.028 30.8487C242.903 30.9155 242.734 30.9489 242.521 30.9489C242.257 30.9489 242.019 30.8864 241.809 30.7614C241.6 30.6364 241.435 30.4545 241.313 30.2159C241.192 29.9773 241.132 29.6875 241.132 29.3466C241.132 29.0114 241.19 28.7195 241.308 28.4709C241.426 28.2209 241.59 28.0277 241.801 27.8913C242.011 27.7536 242.254 27.6847 242.529 27.6847C242.742 27.6847 242.911 27.7202 243.036 27.7912C243.163 27.8608 243.259 27.9403 243.326 28.0298C243.394 28.1179 243.447 28.1903 243.484 28.2472H243.535V27.7273H244.021V31.0938C244.021 31.375 243.957 31.6037 243.829 31.7798C243.703 31.9574 243.532 32.0874 243.318 32.1697C243.105 32.2536 242.867 32.2955 242.606 32.2955ZM242.589 30.4972C242.791 30.4972 242.961 30.451 243.1 30.3587C243.239 30.2663 243.345 30.1335 243.418 29.9602C243.49 29.7869 243.526 29.5795 243.526 29.3381C243.526 29.1023 243.491 28.8942 243.42 28.7138C243.349 28.5334 243.244 28.392 243.105 28.2898C242.965 28.1875 242.793 28.1364 242.589 28.1364C242.376 28.1364 242.198 28.1903 242.056 28.2983C241.916 28.4062 241.81 28.5511 241.739 28.733C241.669 28.9148 241.634 29.1165 241.634 29.3381C241.634 29.5653 241.67 29.7663 241.741 29.9411C241.813 30.1143 241.92 30.2507 242.061 30.3501C242.203 30.4482 242.379 30.4972 242.589 30.4972ZM245.444 26.6364V31H244.941V26.6364H245.444ZM247.737 31.0682C247.422 31.0682 247.15 30.9986 246.921 30.8594C246.694 30.7188 246.518 30.5227 246.395 30.2713C246.273 30.0185 246.212 29.7244 246.212 29.3892C246.212 29.054 246.273 28.7585 246.395 28.5028C246.518 28.2457 246.69 28.0455 246.91 27.902C247.132 27.7571 247.391 27.6847 247.686 27.6847C247.856 27.6847 248.025 27.7131 248.191 27.7699C248.357 27.8267 248.508 27.919 248.645 28.0469C248.781 28.1733 248.89 28.3409 248.971 28.5497C249.052 28.7585 249.092 29.0156 249.092 29.321V29.5341H246.57V29.0994H248.581C248.581 28.9148 248.544 28.75 248.47 28.6051C248.398 28.4602 248.294 28.3459 248.159 28.2621C248.026 28.1783 247.868 28.1364 247.686 28.1364C247.486 28.1364 247.312 28.1861 247.166 28.2855C247.021 28.3835 246.91 28.5114 246.832 28.669C246.754 28.8267 246.714 28.9957 246.714 29.1761V29.4659C246.714 29.7131 246.757 29.9226 246.842 30.0945C246.929 30.2649 247.049 30.3949 247.202 30.4844C247.356 30.5724 247.534 30.6165 247.737 30.6165C247.869 30.6165 247.989 30.598 248.095 30.5611C248.203 30.5227 248.296 30.4659 248.374 30.3906C248.452 30.3139 248.513 30.2187 248.555 30.1051L249.041 30.2415C248.99 30.4062 248.904 30.5511 248.783 30.6761C248.663 30.7997 248.513 30.8963 248.336 30.9659C248.158 31.0341 247.959 31.0682 247.737 31.0682ZM252.959 31H251.613V26.6364H253.019C253.442 26.6364 253.805 26.7237 254.106 26.8984C254.407 27.0717 254.638 27.321 254.798 27.6463C254.959 27.9702 255.039 28.358 255.039 28.8097C255.039 29.2642 254.958 29.6555 254.796 29.9837C254.634 30.3104 254.398 30.5618 254.089 30.7379C253.779 30.9126 253.403 31 252.959 31ZM252.141 30.5312H252.925C253.286 30.5312 253.585 30.4616 253.822 30.3224C254.06 30.1832 254.236 29.9851 254.353 29.728C254.469 29.4709 254.528 29.1648 254.528 28.8097C254.528 28.4574 254.47 28.1541 254.355 27.8999C254.24 27.6442 254.068 27.4482 253.839 27.3118C253.611 27.174 253.326 27.1051 252.985 27.1051H252.141V30.5312ZM255.857 31V27.7273H256.343V28.2216H256.377C256.437 28.0597 256.545 27.9283 256.701 27.8274C256.857 27.7266 257.033 27.6761 257.229 27.6761C257.266 27.6761 257.312 27.6768 257.368 27.6783C257.423 27.6797 257.465 27.6818 257.494 27.6847V28.196C257.477 28.1918 257.437 28.1854 257.376 28.1768C257.317 28.1669 257.254 28.1619 257.187 28.1619C257.028 28.1619 256.886 28.1953 256.761 28.2621C256.637 28.3274 256.539 28.4183 256.467 28.5348C256.396 28.6499 256.36 28.7812 256.36 28.929V31H255.857ZM258.09 31V27.7273H258.592V31H258.09ZM258.345 27.1818C258.247 27.1818 258.163 27.1484 258.092 27.0817C258.022 27.0149 257.987 26.9347 257.987 26.8409C257.987 26.7472 258.022 26.6669 258.092 26.6001C258.163 26.5334 258.247 26.5 258.345 26.5C258.443 26.5 258.527 26.5334 258.597 26.6001C258.668 26.6669 258.703 26.7472 258.703 26.8409C258.703 26.9347 258.668 27.0149 258.597 27.0817C258.527 27.1484 258.443 27.1818 258.345 27.1818ZM262.19 27.7273L260.979 31H260.468L259.258 27.7273H259.803L260.707 30.3352H260.741L261.644 27.7273H262.19ZM264.108 31.0682C263.793 31.0682 263.521 30.9986 263.292 30.8594C263.065 30.7188 262.89 30.5227 262.766 30.2713C262.644 30.0185 262.583 29.7244 262.583 29.3892C262.583 29.054 262.644 28.7585 262.766 28.5028C262.89 28.2457 263.061 28.0455 263.282 27.902C263.503 27.7571 263.762 27.6847 264.057 27.6847C264.228 27.6847 264.396 27.7131 264.562 27.7699C264.728 27.8267 264.88 27.919 265.016 28.0469C265.152 28.1733 265.261 28.3409 265.342 28.5497C265.423 28.7585 265.463 29.0156 265.463 29.321V29.5341H262.941V29.0994H264.952C264.952 28.9148 264.915 28.75 264.841 28.6051C264.769 28.4602 264.665 28.3459 264.53 28.2621C264.397 28.1783 264.239 28.1364 264.057 28.1364C263.857 28.1364 263.684 28.1861 263.537 28.2855C263.392 28.3835 263.281 28.5114 263.203 28.669C263.125 28.8267 263.086 28.9957 263.086 29.1761V29.4659C263.086 29.7131 263.128 29.9226 263.213 30.0945C263.3 30.2649 263.42 30.3949 263.573 30.4844C263.727 30.5724 263.905 30.6165 264.108 30.6165C264.24 30.6165 264.36 30.598 264.466 30.5611C264.574 30.5227 264.667 30.4659 264.745 30.3906C264.823 30.3139 264.884 30.2187 264.926 30.1051L265.412 30.2415C265.361 30.4062 265.275 30.5511 265.154 30.6761C265.034 30.7997 264.885 30.8963 264.707 30.9659C264.529 31.0341 264.33 31.0682 264.108 31.0682ZM266.595 31.0341C266.49 31.0341 266.399 30.9964 266.324 30.9212C266.249 30.8459 266.211 30.7557 266.211 30.6506C266.211 30.5455 266.249 30.4553 266.324 30.38C266.399 30.3047 266.49 30.267 266.595 30.267C266.7 30.267 266.79 30.3047 266.865 30.38C266.941 30.4553 266.978 30.5455 266.978 30.6506C266.978 30.7202 266.961 30.7841 266.925 30.8423C266.891 30.9006 266.845 30.9474 266.787 30.983C266.73 31.017 266.666 31.0341 266.595 31.0341Z"/><path fill="#374151" d="M14.7396 20V12.7273H19.1004V13.5085H15.6203V15.9659H18.7737V16.7472H15.6203V20H14.7396ZM20.4951 20V14.5455H21.3331V20H20.4951ZM20.9212 13.6364C20.7579 13.6364 20.617 13.5807 20.4986 13.4695C20.3826 13.3582 20.3246 13.2244 20.3246 13.0682C20.3246 12.9119 20.3826 12.7782 20.4986 12.6669C20.617 12.5556 20.7579 12.5 20.9212 12.5C21.0846 12.5 21.2242 12.5556 21.3402 12.6669C21.4586 12.7782 21.5178 12.9119 21.5178 13.0682C21.5178 13.2244 21.4586 13.3582 21.3402 13.4695C21.2242 13.5807 21.0846 13.6364 20.9212 13.6364ZM23.7062 12.7273V20H22.8681V12.7273H23.7062ZM27.5281 20.1136C27.0025 20.1136 26.5492 19.9976 26.168 19.7656C25.7892 19.5312 25.4968 19.2045 25.2909 18.7855C25.0873 18.3641 24.9855 17.8741 24.9855 17.3153C24.9855 16.7566 25.0873 16.2642 25.2909 15.8381C25.4968 15.4096 25.7833 15.0758 26.1503 14.8366C26.5196 14.5952 26.9504 14.4744 27.4429 14.4744C27.727 14.4744 28.0075 14.5218 28.2845 14.6165C28.5615 14.7112 28.8136 14.8651 29.0409 15.0781C29.2682 15.2888 29.4493 15.5682 29.5842 15.9162C29.7191 16.2642 29.7866 16.6927 29.7866 17.2017V17.5568H25.5821V16.8324H28.9343C28.9343 16.5246 28.8728 16.25 28.7497 16.0085C28.629 15.767 28.4561 15.5765 28.2312 15.4368C28.0087 15.2971 27.7459 15.2273 27.4429 15.2273C27.1091 15.2273 26.8202 15.3101 26.5764 15.4759C26.3349 15.6392 26.1491 15.8523 26.0189 16.1151C25.8887 16.3778 25.8236 16.6596 25.8236 16.9602V17.4432C25.8236 17.8551 25.8946 18.2043 26.0366 18.4908C26.181 18.7749 26.3811 18.9915 26.6368 19.1406C26.8924 19.2874 27.1896 19.3608 27.5281 19.3608C27.7483 19.3608 27.9471 19.33 28.1247 19.2685C28.3046 19.2045 28.4597 19.1098 28.5899 18.9844C28.7201 18.8565 28.8207 18.6979 28.8917 18.5085L29.7014 18.7358C29.6162 19.0104 29.4729 19.2519 29.2717 19.4602C29.0705 19.6662 28.8219 19.8272 28.526 19.9432C28.23 20.0568 27.8974 20.1136 27.5281 20.1136ZM38.7603 12.7273H39.641V17.5426C39.641 18.0398 39.5238 18.4837 39.2895 18.8743C39.0575 19.2625 38.7296 19.5691 38.3058 19.794C37.882 20.0166 37.3849 20.1278 36.8143 20.1278C36.2438 20.1278 35.7466 20.0166 35.3228 19.794C34.8991 19.5691 34.57 19.2625 34.3356 18.8743C34.1036 18.4837 33.9876 18.0398 33.9876 17.5426V12.7273H34.8683V17.4716C34.8683 17.8267 34.9464 18.1428 35.1027 18.4197C35.2589 18.6944 35.4815 18.911 35.7703 19.0696C36.0615 19.2259 36.4095 19.304 36.8143 19.304C37.2191 19.304 37.5672 19.2259 37.8584 19.0696C38.1495 18.911 38.3721 18.6944 38.526 18.4197C38.6822 18.1428 38.7603 17.8267 38.7603 17.4716V12.7273ZM41.2861 22.0455V14.5455H42.0957V15.4119H42.1952C42.2567 15.3172 42.342 15.1965 42.4509 15.0497C42.5621 14.9006 42.7207 14.768 42.9267 14.652C43.135 14.5336 43.4168 14.4744 43.7719 14.4744C44.2312 14.4744 44.636 14.5893 44.9864 14.8189C45.3368 15.0485 45.6102 15.3741 45.8067 15.7955C46.0032 16.2169 46.1014 16.714 46.1014 17.2869C46.1014 17.8646 46.0032 18.3653 45.8067 18.7891C45.6102 19.2105 45.3379 19.5372 44.9899 19.7692C44.6419 19.9988 44.2406 20.1136 43.7861 20.1136C43.4357 20.1136 43.1552 20.0556 42.9445 19.9396C42.7338 19.8213 42.5716 19.6875 42.458 19.5384C42.3443 19.3868 42.2567 19.2614 42.1952 19.1619H42.1242V22.0455H41.2861ZM42.11 17.2727C42.11 17.6847 42.1703 18.0481 42.2911 18.3629C42.4118 18.6754 42.5882 18.9205 42.8202 19.098C43.0522 19.2732 43.3363 19.3608 43.6725 19.3608C44.0228 19.3608 44.3152 19.2685 44.5496 19.0838C44.7863 18.8968 44.9639 18.6458 45.0823 18.331C45.203 18.0137 45.2634 17.661 45.2634 17.2727C45.2634 16.8892 45.2042 16.5436 45.0858 16.2358C44.9698 15.9257 44.7934 15.6806 44.5567 15.5007C44.3223 15.3184 44.0276 15.2273 43.6725 15.2273C43.3315 15.2273 43.0451 15.3137 42.8131 15.4865C42.5811 15.657 42.4059 15.8961 42.2875 16.2038C42.1691 16.5092 42.11 16.8655 42.11 17.2727ZM48.2179 12.7273V20H47.3798V12.7273H48.2179ZM51.9688 20.1136C51.4764 20.1136 51.0443 19.9964 50.6726 19.7621C50.3033 19.5277 50.0145 19.1998 49.8062 18.7784C49.6002 18.357 49.4972 17.8646 49.4972 17.3011C49.4972 16.733 49.6002 16.237 49.8062 15.8132C50.0145 15.3894 50.3033 15.0604 50.6726 14.826C51.0443 14.5916 51.4764 14.4744 51.9688 14.4744C52.4612 14.4744 52.8921 14.5916 53.2614 14.826C53.6331 15.0604 53.9219 15.3894 54.1279 15.8132C54.3362 16.237 54.4404 16.733 54.4404 17.3011C54.4404 17.8646 54.3362 18.357 54.1279 18.7784C53.9219 19.1998 53.6331 19.5277 53.2614 19.7621C52.8921 19.9964 52.4612 20.1136 51.9688 20.1136ZM51.9688 19.3608C52.3428 19.3608 52.6506 19.2649 52.8921 19.0732C53.1336 18.8814 53.3123 18.6293 53.4283 18.3168C53.5443 18.0043 53.6023 17.6657 53.6023 17.3011C53.6023 16.9366 53.5443 16.5968 53.4283 16.282C53.3123 15.9671 53.1336 15.7126 52.8921 15.5185C52.6506 15.3243 52.3428 15.2273 51.9688 15.2273C51.5947 15.2273 51.287 15.3243 51.0455 15.5185C50.804 15.7126 50.6253 15.9671 50.5093 16.282C50.3933 16.5968 50.3353 16.9366 50.3353 17.3011C50.3353 17.6657 50.3933 18.0043 50.5093 18.3168C50.6253 18.6293 50.804 18.8814 51.0455 19.0732C51.287 19.2649 51.5947 19.3608 51.9688 19.3608ZM57.3248 20.1278C56.9792 20.1278 56.6655 20.0627 56.3837 19.9325C56.102 19.8 55.8783 19.6094 55.7126 19.3608C55.5469 19.1098 55.464 18.8068 55.464 18.4517C55.464 18.1392 55.5256 17.8859 55.6487 17.6918C55.7718 17.4953 55.9363 17.3414 56.1423 17.2301C56.3482 17.1188 56.5755 17.036 56.8241 16.9815C57.075 16.9247 57.3272 16.8797 57.5805 16.8466C57.9119 16.804 58.1806 16.772 58.3866 16.7507C58.5949 16.727 58.7464 16.688 58.8411 16.6335C58.9382 16.5791 58.9867 16.4844 58.9867 16.3494V16.321C58.9867 15.9706 58.8908 15.6984 58.6991 15.5043C58.5097 15.3101 58.222 15.2131 57.8362 15.2131C57.4361 15.2131 57.1224 15.3007 56.8951 15.4759C56.6678 15.651 56.508 15.8381 56.4157 16.0369L55.6203 15.7528C55.7623 15.4214 55.9517 15.1634 56.1884 14.9787C56.4275 14.7917 56.688 14.6615 56.9697 14.5881C57.2538 14.5123 57.5331 14.4744 57.8078 14.4744C57.9829 14.4744 58.1842 14.4957 58.4114 14.5384C58.6411 14.5786 58.8624 14.6626 59.0755 14.7905C59.2909 14.9183 59.4697 15.1113 59.6117 15.3693C59.7538 15.6274 59.8248 15.973 59.8248 16.4062V20H58.9867V19.2614H58.9441C58.8873 19.3797 58.7926 19.5064 58.66 19.6413C58.5274 19.7763 58.3511 19.8911 58.1309 19.9858C57.9107 20.0805 57.642 20.1278 57.3248 20.1278ZM57.4526 19.375C57.7841 19.375 58.0634 19.3099 58.2907 19.1797C58.5203 19.0495 58.6932 18.8814 58.8092 18.6754C58.9275 18.4695 58.9867 18.2528 58.9867 18.0256V17.2585C58.9512 17.3011 58.8731 17.3402 58.7524 17.3757C58.634 17.4089 58.4967 17.4384 58.3404 17.4645C58.1865 17.4882 58.0362 17.5095 57.8894 17.5284C57.745 17.545 57.6278 17.5592 57.5379 17.571C57.3201 17.5994 57.1165 17.6456 56.9271 17.7095C56.74 17.7711 56.5885 17.8646 56.4725 17.9901C56.3589 18.1132 56.3021 18.2812 56.3021 18.4943C56.3021 18.7855 56.4098 19.0057 56.6252 19.1548C56.843 19.3016 57.1188 19.375 57.4526 19.375ZM63.4141 20.1136C62.9596 20.1136 62.5583 19.9988 62.2103 19.7692C61.8623 19.5372 61.59 19.2105 61.3935 18.7891C61.197 18.3653 61.0988 17.8646 61.0988 17.2869C61.0988 16.714 61.197 16.2169 61.3935 15.7955C61.59 15.3741 61.8634 15.0485 62.2138 14.8189C62.5642 14.5893 62.969 14.4744 63.4283 14.4744C63.7834 14.4744 64.064 14.5336 64.2699 14.652C64.4783 14.768 64.6369 14.9006 64.7458 15.0497C64.8571 15.1965 64.9435 15.3172 65.005 15.4119H65.076V12.7273H65.9141V20H65.1044V19.1619H65.005C64.9435 19.2614 64.8559 19.3868 64.7422 19.5384C64.6286 19.6875 64.4664 19.8213 64.2557 19.9396C64.045 20.0556 63.7645 20.1136 63.4141 20.1136ZM63.5277 19.3608C63.8639 19.3608 64.148 19.2732 64.38 19.098C64.612 18.9205 64.7884 18.6754 64.9091 18.3629C65.0299 18.0481 65.0902 17.6847 65.0902 17.2727C65.0902 16.8655 65.0311 16.5092 64.9127 16.2038C64.7943 15.8961 64.6191 15.657 64.3871 15.4865C64.1551 15.3137 63.8687 15.2273 63.5277 15.2273C63.1726 15.2273 62.8767 15.3184 62.64 15.5007C62.4056 15.6806 62.2292 15.9257 62.1108 16.2358C61.9948 16.5436 61.9368 16.8892 61.9368 17.2727C61.9368 17.661 61.996 18.0137 62.1144 18.331C62.2351 18.6458 62.4127 18.8968 62.6471 19.0838C62.8838 19.2685 63.1774 19.3608 63.5277 19.3608ZM70.4915 20V12.7273H72.9489C73.5195 12.7273 73.9858 12.8303 74.3481 13.0362C74.7126 13.2398 74.9825 13.5156 75.1577 13.8636C75.3329 14.2116 75.4205 14.5999 75.4205 15.0284C75.4205 15.4569 75.3329 15.8464 75.1577 16.1967C74.9849 16.5471 74.7174 16.8265 74.3552 17.0348C73.9929 17.2408 73.5289 17.3438 72.9631 17.3438H71.2017V16.5625H72.9347C73.3253 16.5625 73.639 16.495 73.8758 16.3601C74.1125 16.2251 74.2841 16.0429 74.3907 15.8132C74.4996 15.5812 74.554 15.3196 74.554 15.0284C74.554 14.7372 74.4996 14.4768 74.3907 14.2472C74.2841 14.0175 74.1113 13.8376 73.8722 13.7074C73.6331 13.5748 73.3159 13.5085 72.9205 13.5085H71.3722V20H70.4915ZM78.8829 20.1136C78.3904 20.1136 77.9584 19.9964 77.5867 19.7621C77.2174 19.5277 76.9285 19.1998 76.7202 18.7784C76.5142 18.357 76.4113 17.8646 76.4113 17.3011C76.4113 16.733 76.5142 16.237 76.7202 15.8132C76.9285 15.3894 77.2174 15.0604 77.5867 14.826C77.9584 14.5916 78.3904 14.4744 78.8829 14.4744C79.3753 14.4744 79.8062 14.5916 80.1755 14.826C80.5472 15.0604 80.836 15.3894 81.0419 15.8132C81.2503 16.237 81.3544 16.733 81.3544 17.3011C81.3544 17.8646 81.2503 18.357 81.0419 18.7784C80.836 19.1998 80.5472 19.5277 80.1755 19.7621C79.8062 19.9964 79.3753 20.1136 78.8829 20.1136ZM78.8829 19.3608C79.2569 19.3608 79.5647 19.2649 79.8062 19.0732C80.0476 18.8814 80.2264 18.6293 80.3424 18.3168C80.4584 18.0043 80.5164 17.6657 80.5164 17.3011C80.5164 16.9366 80.4584 16.5968 80.3424 16.282C80.2264 15.9671 80.0476 15.7126 79.8062 15.5185C79.5647 15.3243 79.2569 15.2273 78.8829 15.2273C78.5088 15.2273 78.201 15.3243 77.9596 15.5185C77.7181 15.7126 77.5393 15.9671 77.4233 16.282C77.3073 16.5968 77.2493 16.9366 77.2493 17.3011C77.2493 17.6657 77.3073 18.0043 77.4233 18.3168C77.5393 18.6293 77.7181 18.8814 77.9596 19.0732C78.201 19.2649 78.5088 19.3608 78.8829 19.3608ZM82.6337 20V14.5455H83.4434V15.3693H83.5002C83.5997 15.0994 83.7796 14.8804 84.04 14.7124C84.3004 14.5443 84.594 14.4602 84.9207 14.4602C84.9822 14.4602 85.0592 14.4614 85.1515 14.4638C85.2438 14.4661 85.3137 14.4697 85.361 14.4744V15.3267C85.3326 15.3196 85.2675 15.3089 85.1657 15.2947C85.0663 15.2782 84.9609 15.2699 84.8497 15.2699C84.5845 15.2699 84.3478 15.3255 84.1394 15.4368C83.9335 15.5457 83.7701 15.6972 83.6494 15.8913C83.531 16.0831 83.4718 16.3021 83.4718 16.5483V20H82.6337ZM89.0684 14.5455V15.2557H86.2417V14.5455H89.0684ZM87.0656 13.2386H87.9036V18.4375C87.9036 18.6742 87.938 18.8518 88.0066 18.9702C88.0776 19.0862 88.1676 19.1643 88.2765 19.2045C88.3878 19.2424 88.505 19.2614 88.6281 19.2614C88.7204 19.2614 88.7962 19.2566 88.8553 19.2472C88.9145 19.2353 88.9619 19.2259 88.9974 19.2188L89.1678 19.9716C89.111 19.9929 89.0317 20.0142 88.9299 20.0355C88.8281 20.0592 88.6991 20.071 88.5428 20.071C88.3061 20.071 88.0741 20.0201 87.8468 19.9183C87.6219 19.8165 87.4349 19.6615 87.2857 19.4531C87.139 19.2448 87.0656 18.982 87.0656 18.6648V13.2386ZM91.9342 20.1278C91.5885 20.1278 91.2748 20.0627 90.9931 19.9325C90.7114 19.8 90.4877 19.6094 90.322 19.3608C90.1562 19.1098 90.0734 18.8068 90.0734 18.4517C90.0734 18.1392 90.1349 17.8859 90.258 17.6918C90.3811 17.4953 90.5457 17.3414 90.7516 17.2301C90.9576 17.1188 91.1849 17.036 91.4335 16.9815C91.6844 16.9247 91.9365 16.8797 92.1899 16.8466C92.5213 16.804 92.79 16.772 92.996 16.7507C93.2043 16.727 93.3558 16.688 93.4505 16.6335C93.5476 16.5791 93.5961 16.4844 93.5961 16.3494V16.321C93.5961 15.9706 93.5002 15.6984 93.3085 15.5043C93.1191 15.3101 92.8314 15.2131 92.4455 15.2131C92.0454 15.2131 91.7318 15.3007 91.5045 15.4759C91.2772 15.651 91.1174 15.8381 91.0251 16.0369L90.2296 15.7528C90.3717 15.4214 90.5611 15.1634 90.7978 14.9787C91.0369 14.7917 91.2973 14.6615 91.5791 14.5881C91.8631 14.5123 92.1425 14.4744 92.4171 14.4744C92.5923 14.4744 92.7935 14.4957 93.0208 14.5384C93.2505 14.5786 93.4718 14.6626 93.6849 14.7905C93.9003 14.9183 94.0791 15.1113 94.2211 15.3693C94.3631 15.6274 94.4342 15.973 94.4342 16.4062V20H93.5961V19.2614H93.5535C93.4967 19.3797 93.402 19.5064 93.2694 19.6413C93.1368 19.7763 92.9604 19.8911 92.7403 19.9858C92.5201 20.0805 92.2514 20.1278 91.9342 20.1278ZM92.062 19.375C92.3935 19.375 92.6728 19.3099 92.9001 19.1797C93.1297 19.0495 93.3025 18.8814 93.4185 18.6754C93.5369 18.4695 93.5961 18.2528 93.5961 18.0256V17.2585C93.5606 17.3011 93.4825 17.3402 93.3617 17.3757C93.2434 17.4089 93.106 17.4384 92.9498 17.4645C92.7959 17.4882 92.6456 17.5095 92.4988 17.5284C92.3544 17.545 92.2372 17.5592 92.1472 17.571C91.9294 17.5994 91.7258 17.6456 91.5364 17.7095C91.3494 17.7711 91.1979 17.8646 91.0819 17.9901C90.9683 18.1132 90.9114 18.2812 90.9114 18.4943C90.9114 18.7855 91.0192 19.0057 91.2346 19.1548C91.4524 19.3016 91.7282 19.375 92.062 19.375ZM96.8019 12.7273V20H95.9638V12.7273H96.8019Z"/></svg>