<svg xmlns="http://www.w3.org/2000/svg" width="100" height="100" fill="none" viewBox="0 0 100 100"><path fill="#0078D4" fill-rule="evenodd" d="M75.0667 6.00002H24.9333L0 50.4445L24.9333 94.8889H75.0667L100 50.4445L75.0667 6.00002ZM75.3222 70.4C75.3222 74.1222 72.2 77.3222 68.5667 77.3222H31.6889C28.0556 77.3222 24.9333 74.1334 24.9333 70.4V30.7445C24.9333 27.0222 28.0556 23.8222 31.6889 23.8222H64.9333L75.3222 34.4667V70.4ZM46.2333 57.6222C46.2333 57.0889 45.9778 56.8222 45.9778 56.5556C45.9778 56.2889 45.7222 56.0222 45.4556 55.7556C45.1889 55.4889 45.2 55.4889 44.9333 55.4889H44.1556C43.6333 55.4889 43.3778 55.4889 43.1111 55.7556C42.8444 56.0222 42.5889 56.2889 42.3333 56.8222C42.0778 57.3556 42.0778 57.8889 42.0778 58.4222V63.4778C42.0778 64.2778 42.3333 64.8111 42.6 65.0778C42.8556 65.6111 43.1222 65.8778 43.3778 65.8778C43.6333 66.1445 43.9 66.1445 44.4222 66.1445C44.6778 66.1445 44.9444 66.1445 45.2 65.8778C45.4778 65.8556 45.7 65.6334 45.7222 65.3445C45.9778 65.0778 45.9778 64.8111 46.2444 64.5445C46.2444 64.2778 46.5 64.0111 46.5 63.4778C46.5 63.2111 46.5 62.6778 46.7556 62.1445V58.6889C46.2333 58.4222 46.2333 58.1556 46.2333 57.6222ZM57.9222 36.8556C57.9222 36.3222 57.6667 36.0556 57.6667 35.7889C57.6667 35.5222 57.4111 35.2556 57.1444 34.9889C56.8778 34.7222 56.8889 34.7222 56.6222 34.7222H55.8444C55.3222 34.7222 55.0667 34.7222 54.8 34.9889C54.5333 35.2556 54.2778 35.5222 54.0222 36.0556C53.7667 36.5889 53.7667 37.1222 53.7667 37.6556V42.7111C53.7667 43.5111 54.0222 44.0445 54.2889 44.3111C54.5444 44.8445 54.8111 45.1111 55.0667 45.1111C55.3222 45.3778 55.5889 45.3778 56.1111 45.3778C56.3667 45.3778 56.6333 45.3778 56.8889 45.1111C57.1667 45.0889 57.3889 44.8667 57.4111 44.5778C57.6667 44.3111 57.6667 44.0445 57.9333 43.7778C57.9333 43.5111 58.1889 43.2445 58.1889 42.7111C58.1889 42.4445 58.1889 41.9111 58.4444 41.3778V37.9222C58.1889 37.9222 58.1889 37.3889 57.9222 36.8556ZM63.1111 27.5445H31.6889C29.8667 27.5445 28.5667 28.8778 28.5667 30.7334V70.4C28.5667 72.2667 29.8667 73.5889 31.6889 73.5889H68.5667C70.3 73.5445 71.6778 72.1334 71.6778 70.4V36.3334H63.3667V27.5556H63.1111V27.5445ZM39.9889 35.5334V35L40.2444 34.7334L43.3667 32.6H46.2222V45.3778H48.8222L49.0778 45.6445C49.3333 45.9111 49.0778 45.9111 49.0778 45.9111V47.2445C49.0778 47.2445 49.0778 47.5111 48.8222 47.5111H40.2444L39.9889 47.2445V45.6445C39.9889 45.6445 39.9889 45.3778 40.2444 45.3778H43.3667V35.5334L41.0333 36.8667C40.7778 36.8667 40.7778 37.1334 40.5111 37.1334H40.2556C40.2556 37.1334 40.2556 36.8667 40 36.8667V35.5334H39.9889ZM49.0778 64.0111C48.8222 65.0778 48.5556 65.8778 48.0333 66.4111C47.5111 67.2111 46.9889 67.7445 46.4778 68.0111C45.7 68.2778 44.9222 68.5445 43.8778 68.5445C42.8333 68.5445 42.0556 68.2778 41.2778 68.0111C40.5222 67.7778 39.9444 67.1778 39.7222 66.4111C39.4667 65.6111 38.9444 64.8111 38.9444 64.0111C38.6889 62.9445 38.6889 61.8778 38.6889 60.8222C38.6889 59.4889 38.6889 58.4222 38.9444 57.6334C39.2 56.5667 39.4667 55.7667 39.9889 55.2334C40.5111 54.7 41.0333 53.9 41.5444 53.6334C42.3222 53.3667 43.1 53.1 44.1444 53.1C45.1889 53.1 45.9667 53.3667 46.7444 53.6334C47.5 53.8667 48.0778 54.4667 48.3 55.2334C48.5556 56.0334 49.0778 56.8334 49.0778 57.6334C49.3333 58.7 49.3333 59.7667 49.3333 60.8222C49.3333 62.1556 49.3333 63.2222 49.0778 64.0111ZM60.7667 67.7334V68C60.7667 68 60.7667 68.2667 60.5111 68.2667H51.9333L51.6778 68V66.4C51.6778 66.4 51.6778 66.1334 51.9333 66.1334H55.0556V56.2889L52.7222 57.6222C52.4667 57.6222 52.4667 57.8889 52.2 57.8889H51.9444C51.9444 57.8889 51.9444 57.6222 51.6889 57.6222V55.7556L51.9444 55.4889L55.0667 53.3556H57.9222V66.1334H60.5222L60.7778 66.4V67.7334H60.7667ZM61.0222 43.2445C60.7667 44.3111 60.5 45.1111 59.9778 45.6445C59.4556 46.4445 58.9333 46.9778 58.4222 47.2445C57.6444 47.5111 56.8667 47.7778 55.8222 47.7778C54.7778 47.7778 54 47.5111 53.2222 47.2445C52.4667 47.0111 51.8889 46.4111 51.6667 45.6445C51.4111 45.1111 50.8889 44.0445 50.8889 43.2445C50.8889 42.4445 50.6333 41.1111 50.6333 40.0556C50.6333 38.7222 50.6333 37.6556 50.8889 36.8667C51.1444 35.8 51.4111 35 51.9333 34.4667C52.4556 33.6667 52.9778 33.1334 53.4889 32.8667C54.2667 32.6 55.0444 32.3334 56.0889 32.3334C57.1333 32.3334 57.9111 32.6 58.6889 32.8667C59.4444 33.1 60.0222 33.7 60.2444 34.4667C60.5 35.2667 61.0222 36.0667 61.0222 36.8667C61.2778 37.9334 61.2778 39 61.2778 40.0556C61.2778 41.3889 61.0222 42.4556 61.0222 43.2445Z" clip-rule="evenodd"/></svg>