<svg width="100" height="100" viewBox="0 0 100 100" fill="none" xmlns="http://www.w3.org/2000/svg">
<g clip-path="url(#clip0_1692_4864)" filter="url(#filter0_d_1692_4864)">
<path d="M50 0C44.0905 0 38.2389 1.16396 32.7792 3.42542C27.3196 5.68688 22.3588 9.00156 18.1802 13.1802C9.74106 21.6193 5 33.0653 5 45C5 56.9347 9.74106 68.3807 18.1802 76.8198C22.3588 80.9984 27.3196 84.3131 32.7792 86.5746C38.2389 88.836 44.0905 90 50 90C61.9347 90 73.3807 85.2589 81.8198 76.8198C90.2589 68.3807 95 56.9347 95 45C95 39.0905 93.836 33.2389 91.5746 27.7792C89.3131 22.3196 85.9984 17.3588 81.8198 13.1802C77.6412 9.00156 72.6804 5.68688 67.2208 3.42542C61.7611 1.16396 55.9095 0 50 0ZM50 9C59.5478 9 68.7045 12.7928 75.4558 19.5442C82.2072 26.2955 86 35.4522 86 45C86 54.5478 82.2072 63.7045 75.4558 70.4558C68.7045 77.2072 59.5478 81 50 81C40.4522 81 31.2955 77.2072 24.5442 70.4558C17.7928 63.7045 14 54.5478 14 45C14 35.4522 17.7928 26.2955 24.5442 19.5442C31.2955 12.7928 40.4522 9 50 9ZM50 18C42.8392 18 35.9716 20.8446 30.9081 25.9081C25.8446 30.9716 23 37.8392 23 45C23 52.1608 25.8446 59.0284 30.9081 64.0919C35.9716 69.1554 42.8392 72 50 72C57.1608 72 64.0284 69.1554 69.0919 64.0919C74.1554 59.0284 77 52.1608 77 45C77 37.8392 74.1554 30.9716 69.0919 25.9081C64.0284 20.8446 57.1608 18 50 18ZM50 27C54.7739 27 59.3523 28.8964 62.7279 32.2721C66.1036 35.6477 68 40.2261 68 45C68 49.7739 66.1036 54.3523 62.7279 57.7279C59.3523 61.1036 54.7739 63 50 63C45.2261 63 40.6477 61.1036 37.2721 57.7279C33.8964 54.3523 32 49.7739 32 45C32 40.2261 33.8964 35.6477 37.2721 32.2721C40.6477 28.8964 45.2261 27 50 27ZM50 36C47.6131 36 45.3239 36.9482 43.636 38.636C41.9482 40.3239 41 42.6131 41 45C41 47.3869 41.9482 49.6761 43.636 51.364C45.3239 53.0518 47.6131 54 50 54C52.3869 54 54.6761 53.0518 56.364 51.364C58.0518 49.6761 59 47.3869 59 45C59 42.6131 58.0518 40.3239 56.364 38.636C54.6761 36.9482 52.3869 36 50 36Z" fill="#595959"/>
</g>
<path fill-rule="evenodd" clip-rule="evenodd" d="M78.905 99.996C82.5318 99.996 85.8752 98.7752 88.5507 96.7195L86.1765 94.3313C84.1275 95.7835 81.6285 96.6365 78.9315 96.6365C76.2153 96.6365 73.6999 95.7713 71.6429 94.3002L69.2471 96.7099C71.9248 98.7714 75.2727 99.996 78.905 99.996ZM66.2483 93.6878L68.6449 91.2771C67.1931 89.2129 66.3401 86.6923 66.3401 83.9714C66.3401 81.2586 67.188 78.745 68.6319 76.6841L66.2576 74.2959C64.2139 76.9872 63 80.35 63 83.998C63 87.6404 64.2102 90.9986 66.2483 93.6878ZM94.81 83.998C94.81 87.646 93.5961 91.0089 91.5525 93.7001L89.1872 91.321C90.6578 89.2486 91.5231 86.7116 91.5231 83.9714C91.5231 81.2393 90.663 78.7092 89.2002 76.6402L91.543 74.2836C93.5925 76.9769 94.81 80.3445 94.81 83.998ZM88.5384 71.2673C85.8649 69.2173 82.5263 68 78.905 68C75.2782 68 71.935 69.221 69.2593 71.2767L71.6246 73.6557C73.685 72.1765 76.2072 71.3063 78.9315 71.3063C81.6367 71.3063 84.1426 72.1643 86.1949 73.6246L88.5384 71.2673Z" fill="#0080FF"/>
<path d="M82.8812 83.9985C82.8812 86.2074 81.101 87.9981 78.905 87.9981C76.709 87.9981 74.9287 86.2074 74.9287 83.9985C74.9287 81.7897 76.709 79.999 78.905 79.999C81.101 79.999 82.8812 81.7897 82.8812 83.9985Z" fill="#0080FF"/>
<path fill-rule="evenodd" clip-rule="evenodd" d="M77.542 74.0791C73.1335 74.6821 69.6439 78.1921 69.0444 82.6264H72.3838C72.9278 80.0399 74.963 78.0069 77.542 77.4804V74.0791ZM85.351 82.6264C84.8106 80.0577 82.7997 78.0349 80.2458 77.4914V74.0791C84.6544 74.6821 88.1441 78.1921 88.7435 82.6264H85.351ZM80.2458 90.5344C82.8174 89.9871 84.8384 87.9402 85.362 85.3461H88.7435C88.1439 89.7803 84.6544 93.2904 80.2458 93.8933V90.5344ZM72.3728 85.3461C72.8999 87.958 74.9453 90.0153 77.542 90.5454V93.8933C73.1335 93.2904 69.6439 89.7803 69.0444 85.3461H72.3728Z" fill="#0080FF"/>
<defs>
<filter id="filter0_d_1692_4864" x="1" y="0" width="98" height="98" filterUnits="userSpaceOnUse" color-interpolation-filters="sRGB">
<feFlood flood-opacity="0" result="BackgroundImageFix"/>
<feColorMatrix in="SourceAlpha" type="matrix" values="0 0 0 0 0 0 0 0 0 0 0 0 0 0 0 0 0 0 127 0" result="hardAlpha"/>
<feOffset dy="4"/>
<feGaussianBlur stdDeviation="2"/>
<feComposite in2="hardAlpha" operator="out"/>
<feColorMatrix type="matrix" values="0 0 0 0 0 0 0 0 0 0 0 0 0 0 0 0 0 0 0.25 0"/>
<feBlend mode="normal" in2="BackgroundImageFix" result="effect1_dropShadow_1692_4864"/>
<feBlend mode="normal" in="SourceGraphic" in2="effect1_dropShadow_1692_4864" result="shape"/>
</filter>
<clipPath id="clip0_1692_4864">
<rect width="90" height="90" fill="white" transform="translate(5)"/>
</clipPath>
</defs>
</svg>
