<svg width="100" height="100" viewBox="0 0 100 100" fill="none" xmlns="http://www.w3.org/2000/svg">
<g clip-path="url(#clip0_1692_4857)">
<path d="M50.3333 66.6667C52.5435 66.6667 54.6631 65.7887 56.2259 64.2259C57.7887 62.6631 58.6667 60.5435 58.6667 58.3333C58.6667 56.1232 57.7887 54.0036 56.2259 52.4408C54.6631 50.878 52.5435 50 50.3333 50C48.1232 50 46.0036 50.878 44.4408 52.4408C42.878 54.0036 42 56.1232 42 58.3333C42 60.5435 42.878 62.6631 44.4408 64.2259C46.0036 65.7887 48.1232 66.6667 50.3333 66.6667ZM75.3333 29.1667C77.5435 29.1667 79.6631 30.0446 81.2259 31.6074C82.7887 33.1702 83.6667 35.2899 83.6667 37.5V79.1667C83.6667 81.3768 82.7887 83.4964 81.2259 85.0592C79.6631 86.622 77.5435 87.5 75.3333 87.5H25.3333C23.1232 87.5 21.0036 86.622 19.4408 85.0592C17.878 83.4964 17 81.3768 17 79.1667V37.5C17 35.2899 17.878 33.1702 19.4408 31.6074C21.0036 30.0446 23.1232 29.1667 25.3333 29.1667H29.5V20.8333C29.5 15.308 31.6949 10.0089 35.6019 6.10194C39.509 2.19493 44.808 0 50.3333 0C53.0692 0 55.7783 0.53887 58.3059 1.58584C60.8335 2.63282 63.1302 4.16739 65.0647 6.10194C66.9993 8.0365 68.5339 10.3331 69.5808 12.8608C70.6278 15.3884 71.1667 18.0975 71.1667 20.8333V29.1667H75.3333ZM50.3333 8.33333C47.0181 8.33333 43.8387 9.65029 41.4945 11.9945C39.1503 14.3387 37.8333 17.5181 37.8333 20.8333V29.1667H62.8333V20.8333C62.8333 17.5181 61.5164 14.3387 59.1722 11.9945C56.828 9.65029 53.6485 8.33333 50.3333 8.33333Z" fill="#595959"/>
<path fill-rule="evenodd" clip-rule="evenodd" d="M83.907 100C87.5343 100 90.878 98.779 93.5539 96.7231L91.1794 94.3346C89.1302 95.787 86.6308 96.6401 83.9335 96.6401C81.2169 96.6401 78.7013 95.7748 76.644 94.3035L74.2479 96.7135C76.9259 98.7752 80.2742 100 83.907 100ZM71.2487 93.691L73.6456 91.28C72.1936 89.2155 71.3405 86.6947 71.3405 83.9734C71.3405 81.2602 72.1886 78.7463 73.6326 76.6852L71.258 74.2967C69.2141 76.9883 68 80.3516 68 84C68 87.6429 69.2104 91.0015 71.2487 93.691ZM99.814 84C99.814 87.6485 98.5999 91.0118 96.5561 93.7033L94.1905 91.3239C95.6612 89.2513 96.5267 86.714 96.5267 83.9734C96.5267 81.2409 95.6664 78.7105 94.2035 76.6412L96.5466 74.2844C98.5963 76.9781 99.814 80.346 99.814 84ZM93.5416 71.2677C90.8678 69.2174 87.5287 68 83.907 68C80.2798 68 76.9361 69.2212 74.2601 71.2771L76.6257 73.6564C78.6863 72.177 81.2089 71.3067 83.9335 71.3067C86.639 71.3067 89.1452 72.1648 91.1978 73.6253L93.5416 71.2677Z" fill="#0080FF"/>
<path d="M87.8836 84.001C87.8836 86.2101 86.1032 88.001 83.9069 88.001C81.7106 88.001 79.9302 86.2101 79.9302 84.001C79.9302 81.7918 81.7106 80.001 83.9069 80.001C86.1032 80.001 87.8836 81.7918 87.8836 84.001Z" fill="#0080FF"/>
<path fill-rule="evenodd" clip-rule="evenodd" d="M82.544 74.0801C78.135 74.6831 74.6449 78.1936 74.0454 82.6284H77.3852C77.9293 80.0416 79.9647 78.0084 82.544 77.4818V74.0801ZM90.354 82.6284C89.8135 80.0594 87.8024 78.0364 85.2482 77.4928V74.0801C89.6573 74.6831 93.1474 78.1936 93.7469 82.6284H90.354ZM85.2482 90.5374C87.82 89.99 89.8413 87.9429 90.365 85.3484H93.7469C93.1472 89.7832 89.6573 93.2937 85.2482 93.8967V90.5374ZM77.3742 85.3484C77.9014 87.9607 79.947 90.0183 82.544 90.5484V93.8967C78.135 93.2937 74.645 89.7832 74.0454 85.3484H77.3742Z" fill="#0080FF"/>
</g>
<defs>
<clipPath id="clip0_1692_4857">
<rect width="100" height="100" fill="white"/>
</clipPath>
</defs>
</svg>
