<svg width="100" height="100" viewBox="0 0 100 100" fill="none" xmlns="http://www.w3.org/2000/svg">
<path d="M50 4.16699L12.5 20.8337V45.8337C12.5 68.9587 28.5 90.5837 50 95.8337C71.5 90.5837 87.5 68.9587 87.5 45.8337V20.8337L50 4.16699ZM50 49.9587H79.1667C76.9583 67.1253 65.5 82.417 50 87.2087V50.0003H20.8333V26.2503L50 13.292V49.9587Z" fill="#D4D4D4"/>
<path fill-rule="evenodd" clip-rule="evenodd" d="M79.8838 100C84.4178 100 88.5975 98.4737 91.9424 95.9038L88.9742 92.9183C86.4127 94.7337 83.2885 95.8001 79.9169 95.8001C76.5212 95.8001 73.3766 94.7185 70.805 92.8794L67.8099 95.8919C71.1573 98.4691 75.3428 100 79.8838 100ZM64.0608 92.1137L67.057 89.1001C65.242 86.5194 64.1756 83.3683 64.1756 79.9667C64.1756 76.5753 65.2357 73.4329 67.0407 70.8564L64.0725 67.8709C61.5176 71.2354 60 75.4395 60 80C60 84.5536 61.513 88.7519 64.0608 92.1137ZM99.7675 80C99.7675 84.5606 98.2498 88.7647 95.6951 92.1292L92.7381 89.1549C94.5765 86.5641 95.6583 83.3925 95.6583 79.9667C95.6583 76.5511 94.583 73.3881 92.7544 70.8015L95.6832 67.8555C98.2454 71.2226 99.7675 75.4325 99.7675 80ZM91.927 64.0846C88.5847 61.5218 84.4109 60 79.8838 60C75.3497 60 71.1701 61.5265 67.8252 64.0963L70.7821 67.0705C73.3579 65.2213 76.5111 64.1333 79.9169 64.1333C83.2988 64.1333 86.4316 65.206 88.9972 67.0316L91.927 64.0846Z" fill="#0080FF"/>
<path d="M84.8544 80.001C84.8544 82.7624 82.6289 85.0011 79.8836 85.0011C77.1382 85.0011 74.9126 82.7624 74.9126 80.001C74.9126 77.2396 77.1382 75.001 79.8836 75.001C82.6289 75.001 84.8544 77.2396 84.8544 80.001Z" fill="#0080FF"/>
<path fill-rule="evenodd" clip-rule="evenodd" d="M78.1799 67.5996C72.6686 68.3534 68.306 72.7415 67.5566 78.2851H71.7314C72.4115 75.0515 74.9558 72.51 78.1799 71.8517V67.5996ZM87.9424 78.2851C87.2668 75.0737 84.7528 72.545 81.5601 71.8656V67.5996C87.0715 68.3534 91.4342 72.7415 92.1835 78.2851H87.9424ZM81.5601 88.1713C84.7749 87.487 87.3015 84.9281 87.9561 81.6851H92.1835C91.4339 87.2285 87.0715 91.6167 81.5601 92.3704V88.1713ZM71.7177 81.6851C72.3766 84.9504 74.9337 87.5224 78.1799 88.1851V92.3704C72.6686 91.6167 68.3061 87.2285 67.5566 81.6851H71.7177Z" fill="#0080FF"/>
</svg>
