<svg width="100" height="100" viewBox="0 0 100 100" fill="none" xmlns="http://www.w3.org/2000/svg">
<g clip-path="url(#clip0_1692_4841)">
<g clip-path="url(#clip1_1692_4841)">
<path d="M62.1667 0C70.25 0 77.125 2.91667 82.7917 8.54167C88.4167 14.2083 91.3333 21.0833 91.3333 29.1667C91.3333 35.6667 89.25 41.5 85.4167 46.6667C81.5 51.7917 76.5 55.2917 70.375 57.0833L70.5 55.75V54.1667C70.5 45.0417 67.2917 37.2083 60.7083 30.625C54.125 24.0417 46.2917 20.8333 37.1667 20.8333H35.625L34.25 20.9583C36.0417 14.8333 39.5417 9.83333 44.6667 5.91667C49.8333 2.08333 55.6667 0 62.1667 0ZM37.1667 25C44.9022 25 52.3208 28.0729 57.7906 33.5427C63.2604 39.0125 66.3333 46.4312 66.3333 54.1667C66.3333 61.9022 63.2604 69.3208 57.7906 74.7906C52.3208 80.2604 44.9022 83.3333 37.1667 83.3333C29.4312 83.3333 22.0125 80.2604 16.5427 74.7906C11.0729 69.3208 8 61.9022 8 54.1667C8 46.4312 11.0729 39.0125 16.5427 33.5427C22.0125 28.0729 29.4312 25 37.1667 25ZM37.1667 33.3333C31.6413 33.3333 26.3423 35.5283 22.4353 39.4353C18.5283 43.3423 16.3333 48.6413 16.3333 54.1667C16.3333 59.692 18.5283 64.9911 22.4353 68.8981C26.3423 72.8051 31.6413 75 37.1667 75C39.9025 75 42.6116 74.4611 45.1392 73.4142C47.6669 72.3672 49.9635 70.8326 51.8981 68.8981C53.8326 66.9635 55.3672 64.6669 56.4142 62.1392C57.4611 59.6116 58 56.9025 58 54.1667C58 51.4308 57.4611 48.7217 56.4142 46.1941C55.3672 43.6665 53.8326 41.3698 51.8981 39.4353C49.9635 37.5007 47.6669 35.9662 45.1392 34.9192C42.6116 33.8722 39.9025 33.3333 37.1667 33.3333Z" fill="#D4D4D4"/>
</g>
<path fill-rule="evenodd" clip-rule="evenodd" d="M74.905 99.996C78.5318 99.996 81.8752 98.7752 84.5507 96.7195L82.1765 94.3313C80.1275 95.7835 77.6285 96.6365 74.9315 96.6365C72.2153 96.6365 69.6999 95.7713 67.6429 94.3002L65.2471 96.7099C67.9248 98.7714 71.2727 99.996 74.905 99.996ZM62.2483 93.6878L64.6449 91.2771C63.1931 89.2129 62.3401 86.6923 62.3401 83.9714C62.3401 81.2586 63.188 78.745 64.6319 76.6841L62.2576 74.2959C60.2139 76.9872 59 80.35 59 83.998C59 87.6404 60.2102 90.9986 62.2483 93.6878ZM90.81 83.998C90.81 87.646 89.5961 91.0089 87.5525 93.7001L85.1872 91.321C86.6578 89.2486 87.5231 86.7116 87.5231 83.9714C87.5231 81.2393 86.663 78.7092 85.2002 76.6402L87.543 74.2836C89.5925 76.9769 90.81 80.3445 90.81 83.998ZM84.5384 71.2673C81.8649 69.2173 78.5263 68 74.905 68C71.2782 68 67.935 69.221 65.2593 71.2767L67.6246 73.6557C69.685 72.1765 72.2072 71.3063 74.9315 71.3063C77.6367 71.3063 80.1426 72.1643 82.1949 73.6246L84.5384 71.2673Z" fill="#0080FF"/>
<path d="M78.8812 83.9985C78.8812 86.2074 77.101 87.9981 74.905 87.9981C72.709 87.9981 70.9287 86.2074 70.9287 83.9985C70.9287 81.7897 72.709 79.999 74.905 79.999C77.101 79.999 78.8812 81.7897 78.8812 83.9985Z" fill="#0080FF"/>
<path fill-rule="evenodd" clip-rule="evenodd" d="M73.542 74.0791C69.1335 74.6821 65.6439 78.1921 65.0444 82.6264H68.3838C68.9278 80.0399 70.963 78.0069 73.542 77.4804V74.0791ZM81.351 82.6264C80.8106 80.0577 78.7997 78.0349 76.2458 77.4914V74.0791C80.6544 74.6821 84.1441 78.1921 84.7435 82.6264H81.351ZM76.2458 90.5344C78.8174 89.9871 80.8384 87.9402 81.362 85.3461H84.7435C84.1439 89.7803 80.6544 93.2904 76.2458 93.8933V90.5344ZM68.3728 85.3461C68.8999 87.958 70.9453 90.0153 73.542 90.5454V93.8933C69.1335 93.2904 65.6439 89.7803 65.0444 85.3461H68.3728Z" fill="#0080FF"/>
</g>
<defs>
<clipPath id="clip0_1692_4841">
<rect width="100" height="100" fill="white"/>
</clipPath>
<clipPath id="clip1_1692_4841">
<rect width="100" height="100" fill="white"/>
</clipPath>
</defs>
</svg>
