<svg width="100" height="100" viewBox="0 0 100 100" fill="none" xmlns="http://www.w3.org/2000/svg">
<path d="M54.167 58.3335H45.8337V37.5002H54.167M54.167 75.0002H45.8337V66.6668H54.167M4.16699 87.5002H95.8337L50.0003 8.3335L4.16699 87.5002Z" fill="#595959"/>
<path fill-rule="evenodd" clip-rule="evenodd" d="M79.8838 100C84.4178 100 88.5975 98.4737 91.9424 95.9038L88.9742 92.9183C86.4127 94.7337 83.2885 95.8001 79.9169 95.8001C76.5212 95.8001 73.3766 94.7185 70.805 92.8794L67.8099 95.8919C71.1573 98.4691 75.3428 100 79.8838 100ZM64.0608 92.1137L67.057 89.1001C65.242 86.5194 64.1756 83.3683 64.1756 79.9667C64.1756 76.5753 65.2357 73.4329 67.0407 70.8564L64.0725 67.8709C61.5176 71.2354 60 75.4395 60 80C60 84.5536 61.513 88.7519 64.0608 92.1137ZM99.7675 80C99.7675 84.5606 98.2498 88.7647 95.6951 92.1292L92.7381 89.1549C94.5765 86.5641 95.6583 83.3925 95.6583 79.9667C95.6583 76.5511 94.583 73.3881 92.7544 70.8015L95.6832 67.8555C98.2454 71.2226 99.7675 75.4325 99.7675 80ZM91.927 64.0846C88.5847 61.5218 84.4109 60 79.8838 60C75.3497 60 71.1701 61.5265 67.8252 64.0963L70.7821 67.0705C73.3579 65.2213 76.5111 64.1333 79.9169 64.1333C83.2988 64.1333 86.4316 65.206 88.9972 67.0316L91.927 64.0846Z" fill="#01E0CB"/>
<path d="M84.8549 80.0005C84.8549 82.7619 82.6294 85.0006 79.884 85.0006C77.1387 85.0006 74.9131 82.7619 74.9131 80.0005C74.9131 77.2391 77.1387 75.0005 79.884 75.0005C82.6294 75.0005 84.8549 77.2391 84.8549 80.0005Z" fill="black"/>
<path fill-rule="evenodd" clip-rule="evenodd" d="M78.1799 67.6001C72.6686 68.3539 68.306 72.742 67.5566 78.2855H71.7314C72.4115 75.052 74.9558 72.5105 78.1799 71.8522V67.6001ZM87.9424 78.2855C87.2668 75.0742 84.7528 72.5455 81.5601 71.8661V67.6001C87.0715 68.3539 91.4342 72.742 92.1835 78.2855H87.9424ZM81.5601 88.1717C84.7749 87.4875 87.3015 84.9286 87.9561 81.6856H92.1835C91.4339 87.229 87.0715 91.6172 81.5601 92.3709V88.1717ZM71.7177 81.6856C72.3766 84.9509 74.9337 87.5229 78.1799 88.1856V92.3709C72.6686 91.6172 68.3061 87.229 67.5566 81.6856H71.7177Z" fill="#0080FF"/>
</svg>
