<svg width="100" height="100" viewBox="0 0 100 100" fill="none" xmlns="http://www.w3.org/2000/svg">
<g clip-path="url(#clip0_1696_4905)" filter="url(#filter0_d_1696_4905)">
<path d="M53.2625 56.5125L43.7375 47.1L43.85 46.9875C50.2031 39.9266 54.9496 31.5722 57.7625 22.5H68.75V15H42.5V7.5H35V15H8.75V22.5H50.6375C48.125 29.7 44.15 36.5625 38.75 42.5625C35.2625 38.7 32.375 34.4625 30.0875 30H22.5875C25.325 36.1125 29.075 41.8875 33.7625 47.1L14.675 65.925L20 71.25L38.75 52.5L50.4125 64.1625L53.2625 56.5125ZM74.375 37.5H66.875L50 82.5H57.5L61.7 71.25H79.5125L83.75 82.5H91.25L74.375 37.5ZM64.55 63.75L70.625 47.5125L76.7 63.75H64.55Z" fill="#595959"/>
</g>
<path fill-rule="evenodd" clip-rule="evenodd" d="M78.905 99.996C82.5318 99.996 85.8752 98.7752 88.5507 96.7195L86.1765 94.3313C84.1275 95.7835 81.6285 96.6365 78.9315 96.6365C76.2153 96.6365 73.6999 95.7713 71.6429 94.3002L69.2471 96.7099C71.9248 98.7714 75.2727 99.996 78.905 99.996ZM66.2483 93.6878L68.6449 91.2771C67.1931 89.2129 66.3401 86.6923 66.3401 83.9714C66.3401 81.2586 67.188 78.745 68.6319 76.6841L66.2576 74.2959C64.2139 76.9872 63 80.35 63 83.998C63 87.6404 64.2102 90.9986 66.2483 93.6878ZM94.81 83.998C94.81 87.646 93.5961 91.0089 91.5525 93.7001L89.1872 91.321C90.6578 89.2486 91.5231 86.7116 91.5231 83.9714C91.5231 81.2393 90.663 78.7092 89.2002 76.6402L91.543 74.2836C93.5925 76.9769 94.81 80.3445 94.81 83.998ZM88.5384 71.2673C85.8649 69.2173 82.5263 68 78.905 68C75.2782 68 71.935 69.221 69.2593 71.2767L71.6246 73.6557C73.685 72.1765 76.2072 71.3063 78.9315 71.3063C81.6367 71.3063 84.1426 72.1643 86.1949 73.6246L88.5384 71.2673Z" fill="#0080FF"/>
<path d="M82.8812 83.9985C82.8812 86.2074 81.101 87.9981 78.905 87.9981C76.709 87.9981 74.9287 86.2074 74.9287 83.9985C74.9287 81.7897 76.709 79.999 78.905 79.999C81.101 79.999 82.8812 81.7897 82.8812 83.9985Z" fill="#0080FF"/>
<path fill-rule="evenodd" clip-rule="evenodd" d="M77.542 74.0791C73.1335 74.6821 69.6439 78.1921 69.0444 82.6264H72.3838C72.9278 80.0399 74.963 78.0069 77.542 77.4804V74.0791ZM85.351 82.6264C84.8106 80.0577 82.7997 78.0349 80.2458 77.4914V74.0791C84.6544 74.6821 88.1441 78.1921 88.7435 82.6264H85.351ZM80.2458 90.5344C82.8174 89.9871 84.8384 87.9402 85.362 85.3461H88.7435C88.1439 89.7803 84.6544 93.2904 80.2458 93.8933V90.5344ZM72.3728 85.3461C72.8999 87.958 74.9453 90.0153 77.542 90.5454V93.8933C73.1335 93.2904 69.6439 89.7803 69.0444 85.3461H72.3728Z" fill="#0080FF"/>
<defs>
<filter id="filter0_d_1696_4905" x="1" y="0" width="98" height="98" filterUnits="userSpaceOnUse" color-interpolation-filters="sRGB">
<feFlood flood-opacity="0" result="BackgroundImageFix"/>
<feColorMatrix in="SourceAlpha" type="matrix" values="0 0 0 0 0 0 0 0 0 0 0 0 0 0 0 0 0 0 127 0" result="hardAlpha"/>
<feOffset dy="4"/>
<feGaussianBlur stdDeviation="2"/>
<feComposite in2="hardAlpha" operator="out"/>
<feColorMatrix type="matrix" values="0 0 0 0 0 0 0 0 0 0 0 0 0 0 0 0 0 0 0.25 0"/>
<feBlend mode="normal" in2="BackgroundImageFix" result="effect1_dropShadow_1696_4905"/>
<feBlend mode="normal" in="SourceGraphic" in2="effect1_dropShadow_1696_4905" result="shape"/>
</filter>
<clipPath id="clip0_1696_4905">
<rect width="90" height="90" fill="white" transform="translate(5)"/>
</clipPath>
</defs>
</svg>
