<svg width="100" height="100" viewBox="0 0 100 100" fill="none" xmlns="http://www.w3.org/2000/svg">
<g clip-path="url(#clip0_1692_4828)">
<path d="M7.02834 29.667H92.9717C94.643 29.667 96 31.1462 96 32.967V67.0337C96 68.8503 94.643 70.3253 92.9717 70.3253H7.02834C6.22517 70.3253 5.4549 69.9785 4.88698 69.3612C4.31906 68.7439 4 67.9067 4 67.0337V32.967C3.9995 32.5344 4.07746 32.1059 4.22942 31.706C4.38138 31.3062 4.60437 30.9428 4.88562 30.6367C5.16688 30.3306 5.50089 30.0878 5.86856 29.9221C6.23622 29.7564 6.63033 29.667 7.02834 29.667ZM16.6385 61.3545V48.3462L23.8835 56.2212L31.2933 48.167V61.1753H35.3375V37.5503L23.8758 50.0087L12.5867 37.7337V61.3587H16.6308L16.6385 61.3545ZM48.9918 53.667L43.3415 47.5295L40.4818 50.6378L51.012 62.0837L61.5345 50.6378L58.6748 47.5295L53.0283 53.667V37.0003H48.988V53.667H48.9918ZM87.4823 57.7795L79.1448 48.717L87.6548 39.467L84.7952 36.3587L76.2852 45.6087L67.7752 36.3587L64.9117 39.467L73.4217 48.717L65.0803 57.7878L67.94 60.8962L76.2852 51.8253L84.6265 60.8878L87.4823 57.7795Z" fill="#D4D4D4"/>
</g>
<defs>
<clipPath id="clip0_1692_4828">
<rect width="92" height="100" fill="white" transform="translate(4)"/>
</clipPath>
</defs>
</svg>
