<svg width="88" height="102" viewBox="0 0 88 102" fill="none" xmlns="http://www.w3.org/2000/svg">
<path d="M37.5 68.9167L68.2083 45L75 50.2917L37.5 79.4583L0 50.2917L6.75 45.0417L37.5 68.9167ZM37.5 58.3333L0 29.1667L37.5 0L75 29.1667L37.5 58.3333ZM37.5 10.5417L13.5833 29.1667L37.5 47.7917L61.4167 29.1667L37.5 10.5417ZM37.5 89.4583L68.2083 65.5417L75 70.8333L37.5 100L0 70.8333L6.75 65.5833L37.5 89.4583Z" fill="#595959"/>
<path fill-rule="evenodd" clip-rule="evenodd" d="M67.7173 102C72.2513 102 76.431 100.474 79.7759 97.9038L76.8077 94.9183C74.2462 96.7337 71.122 97.8001 67.7504 97.8001C64.3547 97.8001 61.2101 96.7185 58.6385 94.8794L55.6434 97.8919C58.9908 100.469 63.1763 102 67.7173 102ZM51.8943 94.1137L54.8905 91.1001C53.0755 88.5194 52.0091 85.3683 52.0091 81.9667C52.0091 78.5753 53.0692 75.4329 54.8742 72.8564L51.906 69.8709C49.3511 73.2354 47.8335 77.4395 47.8335 82C47.8335 86.5536 49.3465 90.7519 51.8943 94.1137ZM87.601 82C87.601 86.5606 86.0833 90.7647 83.5286 94.1292L80.5716 91.1549C82.41 88.5641 83.4918 85.3925 83.4918 81.9667C83.4918 78.5511 82.4165 75.3881 80.5879 72.8015L83.5167 69.8555C86.0789 73.2226 87.601 77.4325 87.601 82ZM79.7605 66.0846C76.4182 63.5218 72.2444 62 67.7173 62C63.1832 62 59.0036 63.5265 55.6587 66.0963L58.6156 69.0705C61.1914 67.2213 64.3446 66.1333 67.7504 66.1333C71.1323 66.1333 74.2651 67.206 76.8307 69.0316L79.7605 66.0846Z" fill="#01E0CB"/>
<path d="M72.6879 82.0007C72.6879 84.7621 70.4624 87.0008 67.7171 87.0008C64.9717 87.0008 62.7461 84.7621 62.7461 82.0007C62.7461 79.2392 64.9717 77.0007 67.7171 77.0007C70.4624 77.0007 72.6879 79.2392 72.6879 82.0007Z" fill="black"/>
<path fill-rule="evenodd" clip-rule="evenodd" d="M66.0134 69.6001C60.5021 70.3539 56.1395 74.742 55.3901 80.2855H59.5649C60.245 77.052 62.7893 74.5105 66.0134 73.8522V69.6001ZM75.7759 80.2855C75.1003 77.0742 72.5863 74.5455 69.3936 73.8661V69.6001C74.905 70.3539 79.2676 74.742 80.017 80.2855H75.7759ZM69.3936 90.1717C72.6084 89.4875 75.135 86.9286 75.7896 83.6856H80.017C79.2674 89.229 74.905 93.6172 69.3936 94.3709V90.1717ZM59.5512 83.6856C60.2101 86.9509 62.7671 89.5229 66.0134 90.1856V94.3709C60.5021 93.6172 56.1396 89.229 55.3901 83.6856H59.5512Z" fill="#0080FF"/>
</svg>
