<svg width="100" height="100" viewBox="0 0 100 100" fill="none" xmlns="http://www.w3.org/2000/svg">
<path d="M53.3838 76.3127C53.3838 63.7604 63.5592 53.5854 76.1111 53.5854C88.6629 53.5854 98.8383 63.7604 98.8383 76.3127C98.8383 88.8645 88.6629 99.04 76.1111 99.04C63.5592 99.04 53.3838 88.8645 53.3838 76.3127Z" fill="#858585"/>
<path d="M53.3838 24.091C53.3838 11.5391 63.5592 1.36377 76.1111 1.36377C88.6629 1.36377 98.8383 11.5391 98.8383 24.091V44.5456C98.8383 45.8006 97.8206 46.8183 96.5656 46.8183H55.6565C54.4015 46.8183 53.3838 45.8006 53.3838 44.5456V24.091Z" fill="#CCCCCC"/>
<path d="M46.3637 76.3127C46.3637 88.8645 36.1884 99.04 23.6365 99.04C11.0845 99.04 0.90918 88.8645 0.90918 76.3127L0.909184 55.8582C0.909184 54.6027 1.92672 53.5854 3.18191 53.5854H44.091C45.3462 53.5854 46.3637 54.6027 46.3637 55.8582V76.3127Z" fill="#4D4D4D"/>
</svg>
