<?xml version="1.0" encoding="UTF-8"?><svg id="Layer_1" xmlns="http://www.w3.org/2000/svg" viewBox="0 0 50 50"><defs><style>.cls-1{fill:#1f5b95;}.cls-2{fill:#1a476f;}.cls-3{fill:#2d72b5;}.cls-4{fill:#5291cc;}</style></defs><path class="cls-4" d="m30.97,48.11h.56l9.17-4.59.15-.22V6.69l-.15-.22L31.53,1.89h-.57v46.22"/><path class="cls-1" d="m19.03,48.11h-.57l-9.17-4.59-.19-.32-.09-36.33.28-.4L18.46,1.89h.58v46.22"/><path class="cls-3" d="m18.48,1.89h13.05v46.22h-13.05V1.89Z"/><path class="cls-2" d="m45.51,23.96l-.31-.07-4.43-.41-.07.03-9.18-.37h-13.05l-9.18.37v-7h0s0-.02,0-.02l9.18-2.13h13.05l9.18,2.13,3.38,1.79v-1.15l1.43-.16-.15-.29-4.52-3.23-.14.04-9.18-2.85h-13.05l-9.18,2.85v-7.03l-4.8,5.63v4.91l.04-.03,1.39.15v1.18l-1.43.76v4.89h.04s1.39.02,1.39.02v2.05l-1.2.02-.23-.02v4.89l1.43.77v1.19l-1.37.15-.06-.04v4.91l4.8,5.63v-7.03l9.18,2.85h13.05l9.21-2.85.12.05,4.46-3.18.2-.32-1.43-.16v-1.17l-.19-.07-3.05,1.64-.11.23-9.21,2.12h0s-13.05,0-13.05,0h0s-9.18-2.13-9.18-2.13v-7.03l9.18.37h0s13.05,0,13.05,0l9.18-.37.21.1,4.29-.37.3-.15-1.43-.02v-2.05l1.43-.02"/><path class="cls-3" d="m40.71,36.49v7.03l4.8-5.63v-4.88l-4.77,3.46h-.03"/><path class="cls-3" d="m40.71,33.52h.03s4.77-2.57,4.77-2.57v-4.91l-4.8.44v7.04"/><path class="cls-3" d="m40.73,16.5h-.03s0,7.01,0,7.01l4.8.45v-4.91l-4.77-2.55"/><path class="cls-3" d="m40.73,13.53l4.77,3.45v-4.88l-4.8-5.63v7.03h.03v.03"/></svg>