<?xml version="1.0" encoding="UTF-8"?><svg id="Layer_1" xmlns="http://www.w3.org/2000/svg" viewBox="0 0 50 50"><defs><style>.cls-1{fill:#205b95;}.cls-2{fill:#2d72b5;}.cls-3{fill:#5291cc;}</style></defs><g id="Layer_1-2"><g><polygon class="cls-1" points="25 37.21 42.59 41.47 42.59 8.43 25 12.69 25 37.21"/><polygon class="cls-3" points="42.59 8.43 45.97 10.12 45.97 39.79 42.59 41.47 42.59 8.43"/><polygon class="cls-3" points="25 37.21 7.41 41.47 7.41 8.43 25 12.69 25 37.21"/><polygon class="cls-1" points="7.41 8.43 4.03 10.12 4.03 39.79 7.41 41.47 7.41 8.43"/><polygon class="cls-3" points="29.5 48.11 36.19 44.77 36.19 5.23 29.5 1.89 27.41 23.87 29.5 48.11"/><polygon class="cls-1" points="20.5 48.11 13.82 44.77 13.82 5.23 20.5 1.89 22.6 23.79 20.5 48.11"/><rect class="cls-2" x="20.5" y="1.89" width="9.01" height="46.22"/></g></g></svg>