<?xml version="1.0" encoding="UTF-8"?><svg id="Layer_1" xmlns="http://www.w3.org/2000/svg" viewBox="0 0 50 50"><defs><style>.cls-1{fill:#f7d48e;}.cls-2{fill:#d6a441;}.cls-3{fill:#846929;}.cls-4{fill:#624a1e;}</style></defs><path class="cls-2" d="m44.15,16.88h-.62s-18.52-5.49-18.52-5.49v-.25s-.01-9.24-.01-9.24l19.14,9.57v5.42"/><path class="cls-3" d="m25,11.69V1.89S5.86,11.46,5.86,11.46v27.08s0,0,0,0h0s19.14,9.57,19.14,9.57l.06-.09-.02-9.11-.04-.05-1.2-.85-14.81-4.41.07-17.13,15.93-4.79"/><path class="cls-2" d="m27.86,31.1l-19.56,2.75v-17.71s19.57,2.76,19.57,2.76v12.21"/><path class="cls-3" d="m17.95,29.98l7.05.9v-11.77s-7.05.9-7.05.9v9.97m-7.1-.9l4.58.58v-9.33s-4.58.58-4.58.58v8.16"/><path class="cls-4" d="m8.3,16.14l16.7-5.01,19.14,5.75-16.27,2.02-19.58-2.76"/><path class="cls-2" d="m44.14,28.42l-19.14,2.42v-11.72s19.14,2.44,19.14,2.44v6.87m0,4.71l-.41.02-18.66,5.65-.06.07v9.24s19.14-9.57,19.14-9.57v-5.42"/><path class="cls-1" d="m8.3,33.85l16.7,5.01,19.14-5.74-16.27-2.02-19.56,2.75"/></svg>