<?xml version="1.0" encoding="UTF-8"?><svg id="Layer_1" xmlns="http://www.w3.org/2000/svg" xmlns:xlink="http://www.w3.org/1999/xlink" viewBox="0 0 50 50"><defs><style>.cls-1{fill:#0078d4;fill-rule:evenodd;}</style><symbol id="A" viewBox="0 0 90 80"><path class="cls-1" d="m67.56,80H22.44L0,40,22.44,0h45.12l22.44,40-22.44,40Zm.23-57.96c0-3.35-2.81-6.23-6.08-6.23H28.52c-3.27,0-6.08,2.87-6.08,6.23v35.69c0,3.35,2.81,6.23,6.08,6.23h29.92l9.35-9.58V22.04h0Zm-26.18,11.5c0,.48-.23.72-.23.96s-.23.48-.47.72-.23.24-.47.24h-.7c-.47,0-.7,0-.94-.24s-.47-.48-.7-.96-.23-.96-.23-1.44v-4.55c0-.72.23-1.2.47-1.44.23-.48.47-.72.7-.72.23-.24.47-.24.94-.24.23,0,.47,0,.7.24.25.02.45.22.47.48.23.24.23.48.47.72,0,.24.23.48.23.96,0,.24,0,.72.23,1.2v3.11c-.47.24-.47.48-.47.96h0Zm10.52,18.69c0,.48-.23.72-.23.96s-.23.48-.47.72-.23.24-.47.24h-.7c-.47,0-.7,0-.94-.24s-.47-.48-.7-.96-.23-.96-.23-1.44v-4.55c0-.72.23-1.2.47-1.44.23-.48.47-.72.7-.72.23-.24.47-.24.94-.24.23,0,.47,0,.7.24.25.02.45.22.47.48.23.24.23.48.47.72,0,.24.23.48.23.96,0,.24,0,.72.23,1.2v3.11c-.23,0-.23.48-.47.96h0Zm4.67,8.38h-28.28c-1.64,0-2.81-1.2-2.81-2.87V22.04c0-1.68,1.17-2.87,2.81-2.87h33.19c1.56.04,2.8,1.31,2.8,2.87v30.66h-7.48v7.9h-.23Zm-20.81-7.19v.48l.23.24,2.81,1.92h2.57v-11.5h2.34l.23-.24c.23-.24,0-.24,0-.24v-1.2s0-.24-.23-.24h-7.72l-.23.24v1.44s0,.24.23.24h2.81v8.86l-2.1-1.2c-.23,0-.23-.24-.47-.24h-.23s0,.24-.23.24v1.2h0Zm8.18-25.63c-.23-.96-.47-1.68-.94-2.16-.47-.72-.94-1.2-1.4-1.44-.7-.24-1.4-.48-2.34-.48s-1.64.24-2.34.48c-.68.21-1.2.75-1.4,1.44-.23.72-.7,1.44-.7,2.16-.23.96-.23,1.92-.23,2.87,0,1.2,0,2.16.23,2.87.23.96.47,1.68.94,2.16s.94,1.2,1.4,1.44c.7.24,1.4.48,2.34.48s1.64-.24,2.34-.48c.68-.21,1.2-.75,1.4-1.44.23-.72.7-1.44.7-2.16.23-.96.23-1.92.23-2.87,0-1.2,0-2.16-.23-2.87h0Zm10.52-3.35v-.24s0-.24-.23-.24h-7.72l-.23.24v1.44s0,.24.23.24h2.81v8.86l-2.1-1.2c-.23,0-.23-.24-.47-.24h-.23s0,.24-.23.24v1.68l.23.24,2.81,1.92h2.57v-11.5h2.34l.23-.24v-1.2h0Zm.23,22.04c-.23-.96-.47-1.68-.94-2.16-.47-.72-.94-1.2-1.4-1.44-.7-.24-1.4-.48-2.34-.48s-1.64.24-2.34.48c-.68.21-1.2.75-1.4,1.44-.23.48-.7,1.44-.7,2.16s-.23,1.92-.23,2.87c0,1.2,0,2.16.23,2.87.23.96.47,1.68.94,2.16.47.72.94,1.2,1.4,1.44.7.24,1.4.48,2.34.48s1.64-.24,2.34-.48c.68-.21,1.2-.75,1.4-1.44.23-.72.7-1.44.7-2.16.23-.96.23-1.92.23-2.87,0-1.2-.23-2.16-.23-2.87Z"/></symbol></defs><use width="90" height="80" transform="translate(1.06 46.28) scale(.53 -.53)" xlink:href="#A"/></svg>