<svg width="76" height="76" viewBox="0 0 76 76" fill="none" xmlns="http://www.w3.org/2000/svg">
<path d="M58 18H18V58H58V18Z" fill="white"/>
<path d="M26.2054 49.03C24.7104 48.02 23.6754 46.545 23.1104 44.595L26.5804 43.165C26.8954 44.365 27.4453 45.295 28.2303 45.955C29.0103 46.615 29.9604 46.94 31.0704 46.94C32.2054 46.94 33.1803 46.595 33.9953 45.905C34.8103 45.215 35.2204 44.335 35.2204 43.27C35.2204 42.18 34.7903 41.29 33.9303 40.6C33.0703 39.91 31.9903 39.565 30.7003 39.565H28.6954V36.13H30.4953C31.6053 36.13 32.5404 35.83 33.3004 35.23C34.0604 34.63 34.4404 33.81 34.4404 32.765C34.4404 31.835 34.1003 31.095 33.4203 30.54C32.7403 29.985 31.8804 29.705 30.8354 29.705C29.8154 29.705 29.0053 29.975 28.4053 30.52C27.8057 31.0664 27.355 31.7564 27.0954 32.525L23.6604 31.095C24.1154 29.805 24.9504 28.665 26.1754 27.68C27.4004 26.695 28.9654 26.2 30.8654 26.2C32.2704 26.2 33.5353 26.47 34.6553 27.015C35.7753 27.56 36.6553 28.315 37.2903 29.275C37.9253 30.24 38.2404 31.32 38.2404 32.52C38.2404 33.745 37.9453 34.78 37.3553 35.63C36.7653 36.48 36.0403 37.13 35.1803 37.585V37.79C36.2908 38.2478 37.2554 38.9998 37.9704 39.965C38.6954 40.94 39.0603 42.105 39.0603 43.465C39.0603 44.825 38.7153 46.04 38.0253 47.105C37.3353 48.17 36.3803 49.01 35.1703 49.62C33.9553 50.23 32.5903 50.54 31.0753 50.54C29.3203 50.545 27.7004 50.04 26.2054 49.03ZM47.5204 31.81L43.7104 34.565L41.8053 31.675L48.6404 26.745H51.2603V50H47.5204V31.81Z" fill="#4285F4"/>
<path d="M58 58H18V76H58V58Z" fill="#34A853"/>
<path d="M58 0H6C2.685 0 0 2.685 0 6V58H18V18H58V0Z" fill="#4285F4"/>
<path d="M0 58V70C0 73.315 2.685 76 6 76H18V58H0Z" fill="#188038"/>
<path d="M76 18H58V58H76V18Z" fill="#FBBC04"/>
<path d="M76 18V6C76 2.685 73.315 0 70 0H58V18H76Z" fill="#1967D2"/>
<path d="M58 76L76 58H58V76Z" fill="#EA4335"/>
</svg>
