<svg width="88" height="78" viewBox="0 0 88 78" fill="none" xmlns="http://www.w3.org/2000/svg">
<path d="M43.9996 25L30.2496 1.19995C28.8996 1.99995 27.7496 3.09995 26.9496 4.49995L1.54959 48.5C0.764304 49.8698 0.350655 51.421 0.349609 53H27.8496L43.9996 25Z" fill="#00AC47"/>
<path d="M73.9004 76.8C75.2504 76 76.4004 74.9 77.2004 73.5L78.8004 70.75L86.4504 57.5C87.2504 56.1 87.6504 54.55 87.6504 53H60.1484L66.0004 64.5L73.9004 76.8Z" fill="#EA4335"/>
<path d="M44 25L57.75 1.2C56.4 0.400001 54.85 0 53.25 0H34.75C33.15 0 31.6 0.450001 30.25 1.2L44 25Z" fill="#00832D"/>
<path d="M60.1496 53H27.8496L14.0996 76.8C15.4496 77.6 16.9996 78 18.5996 78H69.3996C70.9996 78 72.5496 77.55 73.8996 76.8L60.1496 53Z" fill="#2684FC"/>
<path d="M73.75 26.5L61.05 4.49995C60.25 3.09995 59.1 1.99995 57.75 1.19995L44 25L60.15 53H87.6C87.6 51.45 87.2 49.9 86.4 48.5L73.75 26.5Z" fill="#FFBA00"/>
<path d="M6.94962 66.85L10.7996 73.5C11.5996 74.9 12.7496 76 14.0996 76.8L27.8496 53H0.349609C0.349609 54.55 0.749591 56.1 1.54959 57.5L6.94962 66.85Z" fill="#0066DA"/>
</svg>
