<?xml version="1.0" encoding="UTF-8"?><svg id="Layer_1" xmlns="http://www.w3.org/2000/svg" viewBox="0 0 50 50"><defs><style>.cls-1{fill:#f9c73f;}.cls-2{fill:#f1ba62;}.cls-3{fill:#eba837;}.cls-4{fill:#f3800c;}.cls-5{fill:#ffbf4a;}.cls-6{fill:#fadd68;}.cls-7{fill:#ffa412;}.cls-7,.cls-8{fill-rule:evenodd;}.cls-8{fill:#ffa20e;}</style></defs><path class="cls-5" d="m8.13,39.22l.28-.39,13.26-25.16.03-.27L15.86,2.42c-.49-.92-1.87-.69-2.03.34l-5.69,36.46Z"/><path id="a" class="cls-7" d="m8.3,38.92l.21-.41,13.12-24.9L15.8,2.59c-.48-.91-1.72-.68-1.87.34l-5.63,36Z"/><path id="a-2" d="m8.3,38.92l.21-.41,13.12-24.9L15.8,2.59c-.48-.91-1.72-.68-1.87.34l-5.63,36Z"/><path class="cls-2" d="m25.97,21.71l4.35-4.46-4.35-8.31c-.41-.79-1.57-.79-1.98,0l-2.33,4.44v.38l4.3,7.96h0Z"/><path id="c" class="cls-8" d="m25.89,21.52l4.23-4.33-4.23-8.06c-.4-.76-1.38-.85-1.78-.08l-2.34,4.5-.07.23,4.18,7.73Z"/><path id="c-2" d="m25.89,21.52l4.23-4.33-4.23-8.06c-.4-.76-1.38-.85-1.78-.08l-2.34,4.5-.07.23,4.18,7.73Z"/><path class="cls-4" d="m8.13,39.22l.13-.13.46-.19,16.97-16.91.22-.59-4.23-8.07-13.54,25.87Z"/><path class="cls-6" d="m26.51,47.75l15.36-8.56-4.39-27.01c-.14-.85-1.17-1.18-1.78-.57l-27.57,27.62,15.27,8.53c.97.54,2.14.54,3.11,0"/><path class="cls-1" d="m41.73,39.11l-4.35-26.8c-.14-.84-1-1.19-1.6-.58l-27.47,27.45,15.1,8.44c.96.53,2.12.53,3.08,0l15.24-8.5h0Z"/><path class="cls-3" d="m26.51,47.5c-.97.54-2.14.54-3.11,0l-15.15-8.4-.12.13,15.27,8.53c.97.54,2.14.54,3.11,0l15.36-8.56-.04-.23-15.32,8.54h0Z"/></svg>