<?xml version="1.0" encoding="UTF-8"?><svg id="Layer_1" xmlns="http://www.w3.org/2000/svg" viewBox="0 0 50 50"><defs><style>.cls-1{fill:#1b1f23;fill-rule:evenodd;}</style></defs><path class="cls-1" d="m25,3.7C12.93,3.7,3.16,13.47,3.16,25.54c0,9.66,6.25,17.83,14.93,20.72,1.09.19,1.5-.46,1.5-1.04,0-.52-.03-2.24-.03-4.07-5.49,1.01-6.91-1.34-7.34-2.57-.25-.63-1.31-2.57-2.24-3.08-.76-.41-1.86-1.42-.03-1.45,1.72-.03,2.95,1.58,3.36,2.24,1.97,3.3,5.1,2.38,6.36,1.8.19-1.42.76-2.38,1.39-2.92-4.86-.55-9.94-2.43-9.94-10.78,0-2.38.85-4.34,2.24-5.87-.22-.55-.98-2.78.22-5.79,0,0,1.83-.57,6.01,2.24,1.75-.49,3.6-.74,5.46-.74s3.71.25,5.46.74c4.18-2.84,6.01-2.24,6.01-2.24,1.2,3,.44,5.24.22,5.79,1.39,1.53,2.24,3.47,2.24,5.87,0,8.38-5.1,10.24-9.96,10.78.79.68,1.47,1.99,1.47,4.04,0,2.92-.03,5.27-.03,6.01,0,.57.41,1.26,1.5,1.04,8.63-2.89,14.88-11.08,14.88-20.72,0-12.07-9.77-21.84-21.84-21.84Z"/></svg>