<?xml version="1.0" encoding="UTF-8"?><svg id="Layer_1" xmlns="http://www.w3.org/2000/svg" viewBox="0 0 50 50"><defs><style>.cls-1{fill:#4282f1;}.cls-1,.cls-2,.cls-3{fill-rule:evenodd;}.cls-2{fill:#abc8f7;}.cls-3{fill:#669af3;}</style></defs><g id="Shape"><path class="cls-3" d="m35.54,11.11l-10.55-6.27c-1.55-.97-2.67-2.5-3.12-4.27,0,0,.4-.8.95-.5s8.75,5.15,13.12,7.75c1.57.92.6,5,.6,5,0-.71-.38-1.36-1-1.7Z"/><path class="cls-2" d="m38.71,26.7c.03.33-.12.65-.4.82l-2.5,1.7V9.36c0-.67.42-1.4-.15-1.75l2.3,1.7c.56.34.9.96.87,1.62l-.12,15.77Z"/><path class="cls-3" d="m24.99,28.98c-.18,0-.35-.05-.5-.15l-8.65-5.15v2.25l9.15,5.45.72-1.42s-.55-.97-.72-.97Z"/><path class="cls-3" d="m25.49,33.48c-.3.2-.7.2-1,0l-8.65-5.15v1.65c0,.35.18.68.47.87l8.2,5c.29.17.66.17.95,0,.23-.41.39-.85.5-1.3l-.47-.97v-.1Z"/><path class="cls-2" d="m24.99,26.8l9.15-5.45v-1.07c0-.35-.18-.67-.47-.85l-8.2-5c-.29-.17-.66-.17-.95,0l-8.2,5c-.29.19-.47.5-.47.85v1.07l9.15,5.45Z"/><path class="cls-3" d="m24.99,24.56l-8.67-5.12c-.29.19-.47.5-.47.85v1.07l9.15,5.45.7-1.4-.7-.85Z"/><path class="cls-1" d="m24.99,28.98v2.5l9.15-5.45v-2.25l-8.65,5.05c-.16.08-.33.13-.5.15Z"/><path class="cls-1" d="m25.49,33.48c-.15.1-.32.15-.5.15v2.25c.18,0,.36-.05.52-.12l8.2-5c.31-.18.49-.52.47-.87v-1.65l-8.7,5.25Z"/><path class="cls-1" d="m33.67,19.43l-8.67,5.12v2.25l9.15-5.45v-1.07c0-.35-.18-.67-.47-.85Z"/><path class="cls-3" d="m14.45,38.8l10.37,6.17c1.65.98,2.82,2.61,3.2,4.5.04.24-.12.48-.36.52-.12.02-.24,0-.34-.07l-13.62-8.07c-1.32-.8-.17-4.7-.17-4.7,0,.67.35,1.3.92,1.65Z"/><path class="cls-2" d="m11.28,39.3v-16.39c.01-.34.19-.64.47-.82l2.5-1.47v19.77c0,.67,0,1.72.52,2.07l-2.65-1.65c-.51-.33-.83-.89-.85-1.5Z"/><path class="cls-3" d="m20.4,8.64c-.57-.33-1.28-.33-1.85,0l-10.5,6.35c-1.57.93-3.45,1.16-5.2.65-.28-.16-.37-.51-.22-.78.05-.09.13-.16.22-.22.45-.22,15.79-9.35,15.79-9.35.57-.35,1.85,3.47,1.85,3.47l-.1-.12Z"/><path class="cls-2" d="m20.37,5.19l13.29,7.87c.29.15.48.45.5.77v2.95L17.5,6.89c-.57-.33-1.28-.33-1.85,0l2.95-1.72c.56-.34,1.26-.34,1.82,0l-.05.02Z"/><path class="cls-3" d="m29.54,41.2c.57.34,1.28.34,1.85,0l10.5-6.22c1.58-.93,3.49-1.16,5.25-.62.26.12.37.44.25.7-.05.11-.14.2-.25.25l-15.82,9.37c-.55.35-1.85-3.5-1.85-3.5l.07.02Z"/><path class="cls-2" d="m16.27,36.85c-.23-.22-.38-.51-.42-.82v-2.9l16.64,9.82c.56.35,1.27.35,1.82,0l-2.95,1.75c-.57.35-1.28.35-1.85,0l-13.24-7.85Z"/><path class="cls-3" d="m10.65,19.51c-.57.34-.92.96-.92,1.62v12.49c0,1.89-.79,3.7-2.17,5-.19.17-.47.15-.64-.04-.07-.08-.11-.18-.11-.29v-18.89c0-.7,3.85,0,3.85,0v.1Z"/><path class="cls-2" d="m19.42,11.29c.28-.17.62-.17.9,0l2.5,1.47-15.19,8.9c-.58.35-.93.98-.92,1.65v-3.47c0-.67.36-1.28.95-1.6l11.77-6.95Z"/><path class="cls-3" d="m40.41,28.58v-12.49c0-1.88.76-3.68,2.1-5,0,0,.82-.27.77.52-.05.8,0,18.42,0,18.42-.77.92-4.02,0-4.02,0,.59-.27,1.02-.81,1.15-1.45Z"/><path class="cls-2" d="m42.49,31.5l-11.84,7.12c-.28.18-.64.18-.92,0l-2.5-1.42,15.27-9.17c.58-.35.93-.98.92-1.65v3.6c-.05.57-.92,1.52-.92,1.52Z"/></g></svg>