<?xml version="1.0" encoding="UTF-8"?><svg id="Layer_1" xmlns="http://www.w3.org/2000/svg" xmlns:xlink="http://www.w3.org/1999/xlink" viewBox="0 0 50 50"><defs><style>.cls-1{mask:url(#mask);}.cls-2{fill:#fff;}.cls-3{fill:#4283f2;}.cls-4{isolation:isolate;opacity:.07;}</style><mask id="mask" x="1.29" y="1.47" width="47.42" height="47.42" maskUnits="userSpaceOnUse"><g id="mask0"><rect class="cls-2" x="1.29" y="1.47" width="47.42" height="47.42"/></g></mask></defs><g class="cls-1"><path class="cls-3" d="m48.14,22.82l-9.74-16.94c-.37-.65-.9-1.19-1.54-1.57-.64-.38-1.37-.59-2.12-.6H15.26c-.75.01-1.48.22-2.12.6-.64.38-1.17.93-1.54,1.58L1.86,22.77c-.37.64-.57,1.38-.57,2.12s.19,1.47.57,2.12l9.74,17.04c.36.66.89,1.21,1.53,1.61.64.4,1.37.62,2.12.65h19.49c.75-.03,1.48-.25,2.12-.64.64-.39,1.17-.95,1.53-1.61l9.74-16.94c.37-.66.57-1.4.57-2.15s-.2-1.5-.57-2.15h0Z"/></g><path class="cls-4" d="m45.2,32.24l-6.8,11.82c-.37.66-.89,1.21-1.54,1.61-.64.39-1.38.61-2.12.64h-1.37l-16.39-16.39,2.18-3.89-2.21-2.2,2.6-2.59,13.4-1.23,12.24,12.23Z"/><g><path class="cls-2" d="m32.56,19.9h-15.13c-.29,0-.53.24-.53.54v3.03c0,.29.24.53.53.53h15.13c.29,0,.54-.24.54-.53v-3.03c0-.3-.25-.54-.54-.54Zm-2.24,2.99c-.51,0-.93-.42-.93-.93s.42-.93.93-.93.93.42.93.93-.42.93-.93.93Z"/><path class="cls-2" d="m32.56,25.99h-15.13c-.29,0-.53.24-.53.54v3.03c0,.29.24.53.53.53h15.13c.29,0,.54-.24.54-.53v-3.03c0-.3-.25-.54-.54-.54Zm-2.24,2.99c-.51,0-.93-.42-.93-.93s.42-.93.93-.93.93.42.93.93-.42.93-.93.93Z"/></g></svg>