<?xml version="1.0" encoding="UTF-8"?><svg id="Layer_1" xmlns="http://www.w3.org/2000/svg" xmlns:xlink="http://www.w3.org/1999/xlink" viewBox="0 0 50 50"><defs><style>.cls-1{fill:url(#linear-gradient);}.cls-2{fill:url(#linear-gradient-2);}</style><linearGradient id="linear-gradient" x1="-34.44" y1="171.85" x2="-34.08" y2="172.89" gradientTransform="translate(1094.44 -6433.83) scale(31.4 37.5)" gradientUnits="userSpaceOnUse"><stop offset="0" stop-color="#fd454d"/><stop offset="1" stop-color="#ff7441"/></linearGradient><linearGradient id="linear-gradient-2" x1="-34.45" y1="180.81" x2="-33.94" y2="181.55" gradientTransform="translate(1148.7 -4924.28) scale(32.54 27.27)" xlink:href="#linear-gradient"/></defs><path class="cls-1" d="m2.44,17.03l7.07-8.44c.52-.62,1.44-.7,2.06-.19.07.06.13.12.19.19l21.56,25.98c.45.55.45,1.35,0,1.9l-7.47,8.96c-.51.62-1.43.71-2.06.19-.07-.06-.14-.12-.19-.19L2.43,19.87c-.68-.83-.68-2.02,0-2.85Z"/><path class="cls-2" d="m16.5,4.04h19.53c.65,0,1.27.29,1.68.79l9.86,11.93c.67.82.68,2,0,2.82l-9.4,11.49c-.51.62-1.42.72-2.04.21-.08-.06-.15-.13-.21-.21L15.49,6.21c-.46-.56-.39-1.39.17-1.86.24-.2.53-.31.84-.31h0Z"/></svg>