<?xml version="1.0" encoding="UTF-8"?><svg id="Layer_1" xmlns="http://www.w3.org/2000/svg" viewBox="0 0 50 50"><defs><style>.cls-1{fill:#ff7a59;}.cls-2{fill:#fff;fill-rule:evenodd;}</style></defs><circle class="cls-1" cx="25" cy="25" r="22.5"/><path class="cls-2" d="m29.91,29.96c-1.68,0-3.04-1.35-3.04-3.01s1.36-3.01,3.04-3.01,3.04,1.35,3.04,3.01-1.36,3.01-3.04,3.01m.91-8.81v-2.68c.73-.33,1.2-1.06,1.2-1.86v-.06c0-1.13-.94-2.06-2.08-2.06h-.06c-1.14,0-2.08.93-2.08,2.06v.06c0,.8.47,1.53,1.2,1.86v2.68c-1.03.15-1.99.58-2.81,1.22l-7.43-5.72c.05-.19.08-.38.08-.58,0-1.28-1.05-2.33-2.35-2.33s-2.35,1.04-2.35,2.32,1.05,2.32,2.34,2.33c.41,0,.8-.11,1.16-.31l7.31,5.63c-1.35,2.01-1.31,4.64.09,6.6l-2.22,2.2c-1.01-.32-2.08.24-2.39,1.25s.24,2.08,1.25,2.39c.19.06.39.09.59.09,1.07,0,1.93-.86,1.93-1.91,0-.19-.03-.37-.09-.55l2.2-2.18c1.03.78,2.3,1.21,3.59,1.21,3.28,0,5.94-2.63,5.94-5.87,0-2.94-2.18-5.36-5.02-5.8"/></svg>