<?xml version="1.0" encoding="UTF-8"?><svg id="Layer_1" xmlns="http://www.w3.org/2000/svg" xmlns:xlink="http://www.w3.org/1999/xlink" viewBox="0 0 50 50"><defs><style>.cls-1{fill:url(#linear-gradient);}.cls-2{fill:url(#linear-gradient-2);}.cls-3{fill:url(#radial-gradient);}</style><linearGradient id="linear-gradient" x1="-7735.55" y1="9732.22" x2="-7683.99" y2="9762.69" gradientTransform="translate(318.75 433.88) scale(.04 -.04)" gradientUnits="userSpaceOnUse"><stop offset="0" stop-color="#8f9ba8"/><stop offset="1" stop-color="#ececed"/></linearGradient><linearGradient id="linear-gradient-2" x1="-7733.52" y1="10741.49" x2="-7692.03" y2="10741.49" gradientTransform="translate(318.75 433.88) scale(.04 -.04)" gradientUnits="userSpaceOnUse"><stop offset="0" stop-color="#929eaa"/><stop offset="1" stop-color="#dbdde0"/></linearGradient><radialGradient id="radial-gradient" cx="-18706.03" cy="12479.28" fx="-18706.03" fy="12479.28" r="55.09" gradientTransform="translate(-547.74 -1047.27) rotate(-171.46) scale(.04 -.08) skewX(.19)" gradientUnits="userSpaceOnUse"><stop offset="0" stop-color="#ed352c"/><stop offset="1" stop-color="#a81d22"/></radialGradient></defs><path class="cls-1" d="m31,23.34l-10.01,3.27-8.71,3.84-2.44.64c-.62.59-1.27,1.19-1.98,1.79-.77.67-1.49,1.27-2.04,1.71-.61.48-1.52,1.39-1.98,1.97-.69.86-1.23,1.78-1.47,2.48-.42,1.27-.21,2.56.59,3.75,1.03,1.51,3.08,3.06,5.47,4.11,1.22.54,3.27,1.23,4.81,1.61,2.57.65,7.53,1.35,10.26,1.46.55.02,1.29.02,1.32,0,.06-.04.48-.85.98-1.85,1.68-3.43,2.89-6.65,3.55-9.39.39-1.66.7-3.88.91-6.51.05-.73.08-3.19.03-4.03-.07-1.36-.19-2.47-.38-3.55-.03-.16-.04-.3-.02-.31.03-.02.12-.05,1.35-.41l-.25-.59h0s0,0,0,0h0Zm-2.29,1.34c.09,0,.33,2.32.39,3.79.02.31,0,.51,0,.51-.06,0-1.28-.72-2.15-1.26-.76-.48-2.19-1.43-2.42-1.61-.08-.05-.07-.06.55-.27,1.05-.36,3.55-1.16,3.63-1.16Zm-5.1,1.68c.07,0,.24.1.66.36,1.56.98,3.68,2.16,4.59,2.55.28.12.31.08-.33.51-1.38.94-3.1,1.86-5.2,2.79-.37.17-.68.3-.69.3-.02,0,.03-.19.09-.42.51-1.88.79-3.79.81-5.32q0-.76.08-.78s0,0,0,0h0Zm-1.05.4s.02,1.74-.05,2.2c-.14,1.11-.35,2.13-.7,3.29-.08.28-.16.51-.17.53-.03.04-1.07-.98-1.41-1.37-.59-.68-1.05-1.36-1.39-2.03-.17-.34-.45-1.01-.42-1.03.12-.08,4.11-1.63,4.14-1.6h0Zm-4.95,1.95s.02,0,.02,0c.02.02.07.14.11.27.24.66.79,1.63,1.26,2.25.51.68,1.19,1.41,1.75,1.88.18.15.35.3.37.32.05.05.06.04-1.17.51-1.43.54-2.99,1.09-4.78,1.66-.43.14-.85.28-1.28.42-.07.02-.05-.02.15-.33.89-1.39,2.23-4.1,2.99-6.02.13-.33.26-.67.28-.74.03-.11.07-.14.17-.2.05-.02.11-.03.13-.03h0Zm-1.51.63s-.36.82-.74,1.57c-.73,1.43-1.54,2.84-2.61,4.55-.18.3-.36.57-.38.6-.04.05-.05.04-.17-.2-.26-.51-.47-1.16-.58-1.76-.11-.59-.09-1.62.04-2.26.1-.47.09-.46.32-.58.97-.49,4.1-1.96,4.13-1.93h0Zm13.06.53v.32c0,1.69-.18,4-.45,5.69-.05.3-.08.54-.09.54,0,0-.22-.06-.48-.14-1.14-.36-2.37-.88-3.48-1.49-.73-.4-1.8-1.06-1.77-1.09,0,0,.33-.17.7-.37,1.48-.77,2.91-1.6,4.14-2.43.46-.31,1.16-.81,1.31-.95l.12-.09h0Zm-18.77,2.24s.02.06-.02.33c-.03.2-.07.56-.08.81-.06,1.11.12,1.92.67,3.04.15.31.27.57.26.58-.05.05-5.06,1.51-6.64,1.95-.47.13-.88.24-.91.25-.05.02-.06,0-.04-.12.17-1.11,1.02-2.57,2.2-3.79.79-.82,1.42-1.29,2.49-1.91.77-.44,1.96-1.1,2.05-1.13,0,0,0,0,.02,0h0Zm11.81,2.11s.19.09.41.22c1.62.94,3.88,1.81,5.8,2.26l.17.04-.24.14c-1.01.56-4.31,1.94-7.7,3.2-.49.18-.98.36-1.07.4-.09.04-.17.06-.17.05s.14-.27.31-.6c.95-1.77,1.9-3.93,2.38-5.43.06-.14.1-.27.11-.28h0Zm-1.2.39s-.05.17-.13.35c-.66,1.6-1.52,3.34-2.63,5.29-.28.5-.51.9-.52.9s-.23-.14-.51-.3c-1.6-.98-3.03-2.19-3.96-3.37l-.14-.17.69-.19c2.47-.67,4.56-1.4,6.65-2.29.3-.12.54-.22.55-.22Zm7.48,2.61s0,0,0,0c0,.17-.38,1.73-.7,2.86-.26.95-.49,1.69-.91,3-.18.58-.34,1.05-.35,1.05s-.05,0-.1-.02c-2.25-.41-4.26-.98-6.15-1.73-.53-.21-1.29-.55-1.33-.59-.02-.02.44-.23,1.01-.48,3.44-1.51,7.02-3.22,8.24-3.95.14-.09.26-.14.28-.14h0Zm-17.26.59s-.95,1.4-2.29,3.28c-.47.66-1.01,1.43-1.22,1.72-.2.29-.51.74-.69,1.01l-.32.49-.34-.29c-.4-.33-1.1-1.04-1.41-1.44-.65-.81-1.09-1.66-1.26-2.44-.08-.36-.08-.55,0-.57.11-.03,2.13-.51,4.03-.95,1.05-.24,2.27-.53,2.71-.64.44-.11.79-.19.8-.19h0Zm.97.37l.24.27c1.09,1.22,2.2,2.12,3.55,2.91.24.14.42.26.41.27-.05.04-4.68,1.68-6.82,2.42-1.2.42-2.19.76-2.2.76s-.08-.05-.15-.1l-.14-.1.22-.32c.71-1.03,1.6-2.16,3.55-4.5l1.34-1.61h0Zm6.04,4.32s.34.11.75.27c.98.37,1.76.61,2.81.87,1.29.33,3.15.64,4.25.73.17.02.26.03.23.05-.05.03-1.17.4-1.98.66-1.3.41-5.28,1.58-8.51,2.51-.6.17-1.11.32-1.14.33-.08.02-.33-.05-.33-.08,0-.02.18-.25.4-.51,1.09-1.3,2.17-2.75,3.07-4.13.25-.38.46-.69.46-.7h0Zm-1.33.04s-.53.87-1.47,2.35c-.4.63-.85,1.34-1.01,1.59-.15.24-.38.62-.51.83l-.22.39-.11-.03c-.27-.08-2.19-.75-2.69-.95-.63-.25-1.28-.55-1.76-.81-.61-.33-1.36-.81-1.3-.82.02,0,1.05-.29,2.3-.63,3.32-.9,5.15-1.42,6.36-1.8.22-.07.41-.12.42-.11h0Zm9.42,2.21h0c.03.08-1.2,3.48-1.64,4.56-.1.24-.14.3-.19.3-.13,0-1.91-.26-2.99-.42-1.88-.29-5.05-.84-5.84-1.02l-.18-.04,1.13-.26c2.42-.54,3.59-.84,4.77-1.2,1.49-.45,2.97-1.02,4.46-1.72.23-.11.43-.19.48-.2h0Z"/><path class="cls-2" d="m20.68,0c-.17-.02-2.85.95-4.59,1.65-2.34.95-4.16,1.86-5.28,2.65-.42.3-.94.82-1.02,1.02-.03.08-.05.17-.05.26l1.01.96,2.41.77,5.74,1.03,6.57,1.13.07-.57s-.04,0-.06,0l-.86-.14-.17-.31c-.89-1.57-1.88-3.53-2.45-4.84-.45-1.02-.87-2.2-1.11-3.05-.13-.51-.14-.54-.23-.55h0s0,0,0,0h0Zm-.12.39h0s.04.22.07.47c.13,1.06.36,2.08.73,3.19.28.83.28.79-.05.69-.77-.21-4.23-.81-6.74-1.16-.4-.05-.74-.11-.74-.11-.03-.03,1.81-.99,2.62-1.37,1.04-.48,3.88-1.67,4.09-1.7Zm-7.3,3.39l.3.1c1.6.55,5.64,1.32,7.86,1.5.25.02.46.05.47.05,0,0-.2.12-.48.25-1.07.54-2.26,1.2-3.07,1.7-.24.15-.46.27-.49.27s-.19-.03-.36-.05l-.3-.05-.76-.74c-1.33-1.29-2.38-2.29-2.78-2.67l-.39-.36Zm-.3.23l1.07,1.33c.58.73,1.17,1.45,1.3,1.61.13.16.23.29.23.3-.03.02-1.54-.27-2.35-.45-.82-.19-1.17-.28-1.67-.44l-.42-.14v-.11c0-.51.65-1.26,1.74-2.04l.1-.07h0Zm9.07,1.82s.07.07.16.27c.26.57,1.06,2.1,1.26,2.39.06.1.17.11-.9-.07-2.57-.42-3.39-.55-3.39-.57,0,0,.08-.06.17-.11.79-.44,1.6-1,2.31-1.6.17-.14.33-.28.36-.3,0-.02.02-.02.03-.02h0Z"/><path class="cls-3" d="m9.85,5.22s-.17.27,0,.66c.1.24.39.54.71.84,0,0,3.37,3.28,3.78,3.75,1.86,2.15,2.67,4.27,2.75,7.19.05,1.88-.31,3.53-1.2,5.44-1.57,3.44-4.9,7.23-10.02,11.44l.75-.25c.48-.36,1.14-.75,2.69-1.6,3.56-1.95,7.58-3.75,12.5-5.59,7.08-2.66,18.73-5.78,25.36-6.8l.69-.11-.11-.17c-.61-.94-1.02-1.52-1.52-2.14-1.45-1.8-3.22-3.26-5.37-4.47-2.97-1.66-6.8-2.95-11.66-3.91-.92-.18-2.93-.53-4.56-.78-3.47-.54-5.71-.91-8.17-1.33-.89-.15-2.21-.38-3.09-.57-.45-.1-1.32-.3-2.01-.54-.54-.21-1.33-.42-1.5-1.07h0Zm1.95,1.89s.13.04.29.09c.29.1.66.21,1.1.33.33.09.67.18,1,.26.45.11.83.22.84.22.05.05.82,2.5,1.07,3.44.1.36.17.66.17.66,0,0-.09-.12-.19-.3-.89-1.56-2.29-3.14-3.91-4.41-.21-.15-.37-.29-.37-.3h0Zm3.72,1.03s.2.02.41.07c1.29.29,3.6.73,5.07.98.25.04.45.08.45.1s-.09.07-.2.13c-.25.13-1.26.73-1.59.95-.84.56-1.6,1.17-2.14,1.71-.22.22-.41.4-.41.4,0,0-.05-.13-.08-.29-.27-1.05-.84-2.61-1.35-3.71-.08-.17-.15-.33-.15-.35,0,.02,0,0,0,0h0Zm6.55,1.25s.12.27.27.84c.28,1.1.41,2.32.36,3.47-.02.32-.03.61-.05.65l-.02.08-.39-.13c-.81-.26-2.13-.64-3.25-.96-.64-.17-1.17-.33-1.17-.35,0-.05.94-.98,1.34-1.34.76-.67,2.84-2.28,2.91-2.26h0Zm.52.08s3.13.51,4.55.79c1.05.2,2.58.52,2.67.56.05.02-.11.11-.62.33-2,.9-3.48,1.71-4.96,2.69-.39.26-.71.47-.72.47s-.02-.22-.02-.48c0-1.44-.29-2.89-.82-4.12-.05-.12-.1-.23-.09-.24Zm8.05,1.59s-.08.64-.17,1c-.27,1.13-1.01,2.8-1.91,4.37-.16.28-.3.51-.32.51-.01,0-.22-.11-.45-.24-.88-.51-1.88-1-2.97-1.45-.3-.13-.57-.23-.58-.25-.05-.05,2.38-1.66,3.67-2.43,1.02-.62,2.69-1.54,2.72-1.51h0Zm.58.09c.07,0,1.45.38,2.16.59,1.78.53,3.82,1.28,5.15,1.88l.55.25-.39.09c-3.25.75-6.04,1.61-8.73,2.7-.22.09-.42.17-.43.17s.06-.17.16-.39c.81-1.72,1.33-3.51,1.46-5.04,0-.14.03-.26.05-.26h0Zm-13.71,3.15s1.07.23,1.64.39c.86.24,2.69.86,2.69.9,0,0-.2.18-.45.39-.99.82-1.95,1.7-3.09,2.8-.34.33-.63.59-.64.59s-.02-.05-.02-.11c.17-1.27.14-2.91-.11-4.56-.02-.21-.05-.39-.04-.4Zm22.11.02s-.48.8-.8,1.25c-.45.65-1.12,1.51-2.63,3.41-.79,1-1.69,2.13-1.98,2.51-.3.38-.55.7-.56.7s-.11-.14-.21-.3c-.85-1.27-1.86-2.38-3.07-3.38-.23-.19-.48-.39-.56-.45-.08-.06-.15-.12-.15-.13,0-.02,1.29-.58,2.26-.97,1.71-.7,4.04-1.53,5.79-2.07.92-.29,1.89-.57,1.91-.55h0Zm.58.15s.21.08.43.21c1.84,1.05,3.64,2.41,5.06,3.8.4.39,1.39,1.42,1.38,1.43,0,0-.35.03-.76.06-3.19.24-7.27.92-11.19,1.86-.26.06-.5.11-.51.11s.28-.3.65-.65c2.3-2.22,3.35-3.62,4.59-6.12.17-.37.33-.69.34-.71t0,0h0Zm-16.86,1.73c.11.02,1.09.48,1.83.86.68.34,1.7.89,1.76.93,0,0-.36.2-.8.42-1.42.71-2.64,1.38-3.91,2.16-.36.22-.67.4-.67.4-.03,0-.02-.03.18-.4.68-1.24,1.23-2.72,1.54-4.17.03-.11.06-.19.08-.19h0Zm-.98.18s-.23.95-.39,1.46c-.31.96-.83,2.16-1.34,3.07-.12.21-.3.52-.4.7l-.19.3-.42-.41c-.49-.48-.89-.77-1.41-1.04-.2-.11-.36-.2-.36-.21,0-.06,1.29-1.23,2.29-2.08.71-.61,2.21-1.82,2.23-1.79h0Zm6.02,2.47l.37.24c.85.55,1.85,1.29,2.61,1.93.43.36,1.26,1.11,1.43,1.29l.09.1-.61.17c-3.47.96-6.15,1.82-9.27,2.97-.35.13-.64.23-.67.23-.05,0-.08.04.7-.68,2-1.84,3.77-3.87,5.09-5.84l.26-.41h0Zm-1.58.39s-1.02,1.48-1.64,2.3c-.74.98-2.06,2.63-2.97,3.71-.38.45-.7.82-.72.83-.02,0-.03-.11-.03-.28,0-.92-.23-1.89-.64-2.72-.17-.35-.2-.43-.17-.47.14-.13,2.35-1.39,3.74-2.13.94-.5,2.41-1.24,2.43-1.23h0Zm-9.57,2.35s.2.09.39.2c.48.26.92.56,1.3.88.02.02-.18.17-.44.36-.72.51-1.81,1.34-2.44,1.85-.67.53-.69.54-.61.43.5-.76.75-1.2,1.01-1.75.23-.49.47-1.07.64-1.58.06-.22.14-.39.15-.39h0Zm2.55,2s.08.06.29.36c.43.64.76,1.51.85,2.2v.15s-1.02.4-1.02.4c-1.85.72-3.56,1.43-4.72,1.96-.33.15-.89.42-1.26.61-.37.19-.67.33-.67.33s.23-.18.52-.39c2.26-1.64,4.22-3.44,5.69-5.24.16-.19.3-.36.32-.37h.02s0,0,0,0Zm-1.17.29s-.83,1.01-1.42,1.6c-1.46,1.49-2.91,2.66-4.7,3.79-.23.14-.43.27-.45.29-.05.03.02-.05.8-.9.5-.54.88-.99,1.31-1.55.29-.37.34-.42.76-.72,1.11-.8,3.68-2.54,3.71-2.51Z"/></svg>