<?xml version="1.0" encoding="UTF-8"?><svg id="Layer_1" xmlns="http://www.w3.org/2000/svg" viewBox="0 0 50 50"><defs><style>.cls-1{fill-rule:evenodd;}</style></defs><path class="cls-1" d="m11.49,11.04c1.34,1.09,1.84,1,4.35.84l23.67-1.42c.5,0,.08-.5-.08-.58l-3.93-2.84c-.75-.58-1.76-1.25-3.68-1.09l-22.92,1.67c-.84.08-1,.5-.67.84l3.26,2.59Zm1.42,5.52v24.91c0,1.34.67,1.84,2.17,1.76l26.02-1.51c1.51-.08,1.67-1,1.67-2.09V14.88c0-1.09-.42-1.67-1.34-1.59l-27.19,1.59c-1,.08-1.34.59-1.34,1.67h0Zm25.68,1.34c.17.75,0,1.51-.75,1.59l-1.25.25v18.39c-1.09.58-2.09.92-2.93.92-1.34,0-1.67-.42-2.68-1.67l-8.2-12.87v12.45l2.59.59s0,1.5-2.09,1.5l-5.77.33c-.17-.33,0-1.17.59-1.34l1.51-.42v-16.47l-2.09-.17c-.17-.75.25-1.84,1.42-1.92l6.19-.42,8.53,13.04v-11.54l-2.18-.25c-.17-.92.5-1.59,1.34-1.67l5.77-.34ZM6.97,5.36l23.84-1.76c2.93-.25,3.68-.08,5.52,1.25l7.61,5.35c1.26.92,1.67,1.17,1.67,2.17v29.34c0,1.84-.67,2.93-3.01,3.09l-27.69,1.67c-1.76.08-2.59-.17-3.52-1.34l-5.61-7.27c-1-1.34-1.42-2.34-1.42-3.51V8.28c0-1.5.67-2.76,2.59-2.92Z"/></svg>