<?xml version="1.0" encoding="UTF-8"?><svg id="Layer_1" xmlns="http://www.w3.org/2000/svg" viewBox="0 0 50 50"><defs><style>.cls-1{fill:none;}</style></defs><g id="Layer_2"><path class="cls-1" d="m0,0h50v50H0V0Z"/></g><path d="m24.17,26.33c-1.59,5.67-2.9,10.43-3,11.07-.26,1.74-2.83,1.46-2.68-.31.06-.53,1.12-4.45,2.43-9.11-1.84.86-3.35,1.41-4.29,1.53-1.27.21-2.33-.52-2.23-1.62.08-.74.76-1.28,1.5-1.2.15.02.29.06.43.12.8-.11,2.85-.96,5.55-2.36,1.35-4.8,2.75-9.72,3.45-12.16.56-1.65,3-.95,2.59.74-.83,2.9-1.79,6.28-2.73,9.59,1.16-.67,2.4-1.42,3.63-2.22,6.74-4.36,11.33-8.52,12.26-11.18.33-1,.09-1.45-.4-1.83-1.18-.92-4.81-1.03-11.46,1.4-9.97,3.64-20.5,10.7-21.5,14.38.46.04.96,0,1.31.36.56.5.6,1.36.09,1.92-.13.14-.28.25-.45.33-1.51.54-4.2-.61-3.62-3.05.67-3.14,4.96-6.59,8.44-8.94,4.63-3.08,9.6-5.61,14.81-7.54,4.76-1.74,11.05-3.32,14.04-1,1.4,1.09,1.9,2.67,1.43,4.42-.61,2.28-3.31,6.3-12.69,12.48-2.34,1.54-4.74,2.97-6.92,4.16Z"/><rect x="7.88" y="43.02" width="35.6" height="2.48"/><ellipse cx="31.9" cy="36.95" rx="1.84" ry="1.66" transform="translate(-12.01 58.28) rotate(-75.1)"/></svg>