<svg width="44" height="44" viewBox="0 0 44 44" fill="none" xmlns="http://www.w3.org/2000/svg">
<path fill-rule="evenodd" clip-rule="evenodd" d="M21.6103 0.499993C25.5402 0.499993 29.4803 0.439994 33.4103 0.519993C36.9502 0.589992 39.8303 1.99003 41.6903 5.13999C42.6603 6.77997 42.9903 8.59001 43.0003 10.46C43.0203 18.1899 43.0503 25.9201 42.9803 33.66C42.9503 37.26 41.4802 40.18 38.2503 42.03C36.6303 42.96 34.8503 43.27 33.0203 43.28C25.2904 43.3 17.5602 43.32 9.82028 43.26C6.67031 43.23 3.98025 42.06 2.05028 39.44C1.02029 38.03 0.480273 36.44 0.330275 34.71C0.260276 33.95 0.230275 33.18 0.230275 32.42C0.230275 24.9901 0.180276 17.5599 0.260275 10.12C0.300275 6.29004 1.93032 3.27997 5.47028 1.50999C7.02026 0.73 8.7003 0.509991 10.4203 0.509991C14.1502 0.499991 17.8903 0.509991 21.6203 0.509991C21.6203 0.509991 21.6203 0.509993 21.6203 0.519993L21.6103 0.499993Z" fill="#151515"/>
<path d="M24.0521 11.043C24.1131 11.05 24.1731 11.059 24.2231 11.069C25.9601 11.298 27.5541 12.151 28.7061 13.467C31.2151 16.335 31.0741 20.648 28.3831 23.347C27.0311 24.701 25.1941 25.463 23.2781 25.463C23.2091 25.463 23.1431 25.459 23.0761 25.454C23.0381 25.452 23.0001 25.449 22.9621 25.448H18.2051V33.611H14.0001V11H23.2951L23.3121 11.002C23.5521 11.002 23.7931 11.014 24.0341 11.039L24.0521 11.043ZM25.3011 14.71H18.2051V21.818H25.3011V14.707V14.71Z" fill="white"/>
<path d="M35.2041 34.2111H30.0001V29.0001H35.2041V34.2111Z" fill="#D9D9D9"/>
</svg>
