<svg width="191" height="183" viewBox="0 0 191 183" fill="none" xmlns="http://www.w3.org/2000/svg">
<path d="M174.5 0H97C88.1634 0 81 7.16345 81 16V87.5V90.2159C81 92.3827 80.5599 94.527 79.7063 96.5186L78.9441 98.2972C78.3182 99.7576 77.4782 101.117 76.4519 102.33L74.5094 104.625C73.1822 106.194 71.5654 107.492 69.7472 108.449L66.4985 110.159C64.2007 111.368 61.6431 112 59.0465 112H16C7.16344 112 0 119.163 0 128V167C0 175.837 7.16344 183 16 183H56.5C65.3366 183 72.5 175.837 72.5 167V130.5V129.019C72.5 126.705 73.0389 124.422 74.074 122.352C75.014 120.472 76.341 118.812 77.9679 117.481L81 115L82.7757 113.478C83.9195 112.498 85.196 111.684 86.5675 111.06L86.8449 110.934C88.9242 109.989 91.1817 109.5 93.4657 109.5H174.5C183.337 109.5 190.5 102.337 190.5 93.5V16C190.5 7.16344 183.337 0 174.5 0Z" fill="#FF6600"/>
</svg>
