<?xml version="1.0" encoding="UTF-8"?><svg id="Layer_1" xmlns="http://www.w3.org/2000/svg" xmlns:xlink="http://www.w3.org/1999/xlink" viewBox="0 0 50 50"><defs><style>.cls-1{fill:url(#linear-gradient);}.cls-1,.cls-2{fill-rule:evenodd;}.cls-2{fill:#fff;}</style><linearGradient id="linear-gradient" x1="25" y1="38.09" x2="25" y2="13.36" gradientTransform="translate(0 50.72) scale(1 -1)" gradientUnits="userSpaceOnUse"><stop offset="0" stop-color="#00b1eb"/><stop offset=".21" stop-color="#009ad9"/><stop offset=".52" stop-color="#007fc4"/><stop offset=".79" stop-color="#006eb8"/><stop offset="1" stop-color="#0069b4"/></linearGradient></defs><g id="Layer_1-2"><polyline class="cls-1" points="0 37.37 25.27 37.37 50 12.63 0 12.63 0 37.37"/><path class="cls-2" d="m29.67,17.28h-4.92s0,11.7,0,11.7l-4.3-11.7h-4.26l-3.67,9.79c-.39-2.47-2.94-3.32-4.95-3.96-1.33-.43-2.73-1.05-2.72-1.74.01-.57.75-1.1,2.23-1.02.99.05,1.86.13,3.6.97l1.71-2.98c-1.59-.81-3.78-1.32-5.58-1.32h-.01c-2.09,0-3.84.68-4.92,1.8-.75.78-1.16,1.77-1.18,2.87-.03,1.51.53,2.58,1.69,3.44.98.72,2.24,1.19,3.35,1.53,1.37.42,2.48.79,2.47,1.58-.01.29-.12.55-.32.77-.34.35-.86.48-1.59.5-1.39.03-2.43-.19-4.08-1.16l-1.52,3.02c1.64.93,3.59,1.48,5.57,1.48h.26c1.73-.03,3.12-.53,4.24-1.42.06-.05.12-.1.18-.15l-.49,1.32h4.47l.75-2.28c.79.27,1.68.42,2.63.42s1.79-.14,2.57-.39l.72,2.26h7.29v-4.72h1.59c3.84,0,6.12-1.96,6.12-5.24,0-3.65-2.21-5.33-6.91-5.33h0Zm-11.37,10.01c-.57,0-1.11-.1-1.58-.28l1.56-4.92h.03l1.53,4.94c-.46.16-.99.26-1.55.26h0Zm11.66-2.83h-1.08v-3.97h1.08c1.45,0,2.6.48,2.6,1.96s-1.15,2.01-2.6,2.01"/></g></svg>