<?xml version="1.0" encoding="UTF-8"?><svg id="Layer_1" xmlns="http://www.w3.org/2000/svg" viewBox="0 0 50 50"><defs><style>.cls-1,.cls-2{fill:#fff;}.cls-3{fill:#52bc93;}.cls-3,.cls-2{fill-rule:evenodd;}</style></defs><g id="eaa5b143-4b71-4e3c-99a7-b287de4c90a0"><path class="cls-3" d="m47.5,25c0,12.43-10.07,22.5-22.5,22.5S2.5,37.43,2.5,25,12.57,2.5,25,2.5h0c12.43,0,22.5,10.07,22.5,22.5Z"/><rect class="cls-1" x="22.36" y="20.81" width="13.82" height="2.4" rx=".45" ry=".45"/><rect class="cls-1" x="13.81" y="26.8" width="13.82" height="2.4" rx=".45" ry=".45"/><path class="cls-2" d="m15.47,22.45c.23.06.47-.07.54-.31,1.48-4.65,6.26-7.4,11.02-6.35.23.05.46-.09.52-.32l.39-1.46c.06-.24-.08-.48-.32-.55,0,0-.01,0-.02,0-6.02-1.36-12.07,2.14-13.9,8.04-.07.24.06.48.3.55,0,0,0,0,.01,0l1.46.39Z"/><path class="cls-2" d="m34.53,27.55c-.23-.06-.47.07-.54.31-1.48,4.65-6.26,7.4-11.02,6.35-.23-.05-.46.09-.52.32l-.39,1.46c-.06.24.08.48.32.55,0,0,.01,0,.02,0,6.02,1.36,12.07-2.14,13.9-8.04.07-.24-.06-.48-.3-.55,0,0,0,0-.01,0l-1.46-.39Z"/><circle class="cls-1" cx="31.83" cy="16.86" r="1.31"/><circle class="cls-1" cx="18.17" cy="33.14" r="1.31"/></g></svg>