<?xml version="1.0" encoding="UTF-8"?><svg id="Layer_1" xmlns="http://www.w3.org/2000/svg" viewBox="0 0 50 50"><defs><style>.cls-1{fill:#fff;}.cls-2{fill:#95bf47;}.cls-3{fill:#5e8e3e;}</style></defs><path class="cls-2" d="m39.92,10.86c-.03-.2-.2-.35-.4-.37-.16-.03-3.65-.27-3.65-.27l-2.66-2.66c-.24-.27-.77-.19-.97-.13-.03,0-.53.16-1.36.43-.8-2.32-2.22-4.45-4.73-4.45h-.21c-.72-.93-1.6-1.36-2.34-1.36-5.83.03-8.61,7.29-9.48,11.01l-4.07,1.25c-1.25.4-1.3.43-1.46,1.62l-3.44,26.49,25.75,4.82,13.95-3.01s-4.9-33.11-4.92-33.36h0Zm-10.47-2.56c-.65.21-1.39.43-2.18.67v-.48c.02-1.2-.16-2.39-.53-3.53,1.3.2,2.18,1.66,2.71,3.34h0Zm-4.28-3.03c.43,1.26.62,2.58.58,3.9v.24l-4.5,1.39c.88-3.29,2.51-4.91,3.92-5.53h0Zm-1.73-1.62c.27,0,.53.09.74.24-1.88.87-3.86,3.08-4.71,7.5l-3.56,1.09c1-3.35,3.35-8.84,7.53-8.84h0Z"/><path class="cls-3" d="m39.52,10.48c-.16-.03-3.65-.27-3.65-.27l-2.66-2.66c-.1-.1-.23-.16-.37-.16l-1.94,39.83,13.95-3.01-4.93-33.33c-.03-.2-.19-.37-.4-.4h0Z"/><path class="cls-1" d="m26.16,18.2l-1.73,5.11c-1.05-.51-2.19-.78-3.35-.8-2.72,0-2.85,1.7-2.85,2.13,0,2.33,6.1,3.22,6.1,8.71,0,4.31-2.74,7.08-6.42,7.08-4.42,0-6.68-2.74-6.68-2.74l1.18-3.92s2.32,2,4.29,2c.96.04,1.77-.71,1.81-1.68,0-.03,0-.05,0-.08,0-3.06-5.01-3.2-5.01-8.2,0-4.21,3.03-8.31,9.13-8.31,2.4.04,3.54.7,3.54.7h0Z"/></svg>