<?xml version="1.0" encoding="UTF-8"?><svg id="Layer_1" xmlns="http://www.w3.org/2000/svg" viewBox="0 0 50 50"><defs><style>.cls-1{fill:#ebb12e;}.cls-2{fill:#2eb57d;}.cls-3{fill:#df1e5a;}.cls-4{fill:#36c4ef;}</style></defs><path class="cls-3" d="m12.66,30.62c0,2.46-2.01,4.47-4.47,4.47s-4.47-2.01-4.47-4.47,2.01-4.47,4.47-4.47h4.47v4.47Z"/><path class="cls-3" d="m14.91,30.62c0-2.46,2.01-4.47,4.47-4.47s4.47,2.01,4.47,4.47v11.2c0,2.46-2.01,4.47-4.47,4.47s-4.47-2.01-4.47-4.47v-11.2Z"/><path class="cls-4" d="m19.38,12.66c-2.46,0-4.47-2.01-4.47-4.47s2.01-4.47,4.47-4.47,4.47,2.01,4.47,4.47v4.47h-4.47Z"/><path class="cls-4" d="m19.38,14.91c2.46,0,4.47,2.01,4.47,4.47s-2.01,4.47-4.47,4.47h-11.2c-2.46,0-4.47-2.01-4.47-4.47s2.01-4.47,4.47-4.47h11.2Z"/><path class="cls-2" d="m37.34,19.38c0-2.46,2.01-4.47,4.47-4.47s4.47,2.01,4.47,4.47-2.01,4.47-4.47,4.47h-4.47v-4.47Z"/><path class="cls-2" d="m35.09,19.38c0,2.46-2.01,4.47-4.47,4.47s-4.47-2.01-4.47-4.47v-11.2c0-2.46,2.01-4.47,4.47-4.47s4.47,2.01,4.47,4.47v11.2Z"/><path class="cls-1" d="m30.62,37.34c2.46,0,4.47,2.01,4.47,4.47s-2.01,4.47-4.47,4.47-4.47-2.01-4.47-4.47v-4.47h4.47Z"/><path class="cls-1" d="m30.62,35.09c-2.46,0-4.47-2.01-4.47-4.47s2.01-4.47,4.47-4.47h11.2c2.46,0,4.47,2.01,4.47,4.47s-2.01,4.47-4.47,4.47h-11.2Z"/></svg>