<?xml version="1.0" encoding="UTF-8"?><svg id="Layer_1" xmlns="http://www.w3.org/2000/svg" viewBox="0 0 50 50"><defs><style>.cls-1{fill:#ce272d;}</style></defs><path class="cls-1" d="m25,41.57c-9.15,0-16.57-7.42-16.57-16.57S15.85,8.43,25,8.43s16.57,7.42,16.57,16.57-7.42,16.57-16.57,16.57h0Zm0-39.07c-12.43,0-22.5,10.07-22.5,22.5s10.07,22.5,22.5,22.5,22.5-10.07,22.5-22.5S37.43,2.5,25,2.5h0Z"/><path class="cls-1" d="m25.93,19.4c0-2.58,2.09-4.68,4.68-4.68s4.68,2.09,4.68,4.68-2.09,4.68-4.68,4.68-4.68-2.09-4.68-4.68m0,11.21c0-2.58,2.09-4.68,4.68-4.68s4.68,2.09,4.68,4.68-2.09,4.68-4.68,4.68-4.68-2.09-4.68-4.68m-11.21,0c0-2.58,2.09-4.68,4.68-4.68s4.68,2.09,4.68,4.68-2.09,4.68-4.68,4.68-4.68-2.09-4.68-4.68m0-11.21c0-2.58,2.09-4.68,4.68-4.68s4.68,2.09,4.68,4.68-2.09,4.68-4.68,4.68-4.68-2.09-4.68-4.68"/></svg>