<?xml version="1.0" encoding="UTF-8"?><svg id="Layer_1" xmlns="http://www.w3.org/2000/svg" viewBox="0 0 50 50"><path d="m44.27,20.92c1.02-3.06.67-6.42-.96-9.21-2.46-4.28-7.39-6.47-12.21-5.44-2.14-2.42-5.23-3.79-8.46-3.77-4.93-.01-9.3,3.16-10.82,7.85-3.17.65-5.9,2.63-7.5,5.44-2.47,4.26-1.91,9.64,1.4,13.29-1.02,3.06-.67,6.42.96,9.21,2.46,4.28,7.39,6.47,12.21,5.44,2.14,2.42,5.23,3.79,8.46,3.77,4.93.01,9.3-3.16,10.82-7.86,3.17-.65,5.9-2.63,7.5-5.44,2.47-4.26,1.91-9.63-1.4-13.29h0Zm-16.91,23.64c-1.97,0-3.88-.69-5.4-1.95.07-.04.19-.1.27-.15l8.96-5.18c.46-.26.74-.75.74-1.28v-12.63l3.79,2.19s.07.06.07.1v10.46c0,4.65-3.77,8.42-8.43,8.43h0Zm-18.12-7.74c-.99-1.71-1.34-3.71-1.01-5.65.07.04.18.11.27.16l8.96,5.18c.45.27,1.02.27,1.47,0l10.94-6.32v4.37s-.02.09-.05.12l-9.06,5.23c-4.03,2.32-9.19.94-11.52-3.09h0Zm-2.36-19.56c.98-1.71,2.54-3.02,4.39-3.7,0,.08,0,.21,0,.31v10.35c0,.53.28,1.01.74,1.27l10.94,6.32-3.79,2.19s-.09.03-.13.01l-9.06-5.23c-4.03-2.33-5.41-7.48-3.09-11.52h0Zm31.12,7.24l-10.94-6.32,3.79-2.19s.09-.03.13-.01l9.06,5.23c4.03,2.33,5.42,7.49,3.09,11.52-.99,1.71-2.54,3.02-4.39,3.7v-10.66c0-.53-.28-1.01-.73-1.27h0Zm3.77-5.67c-.07-.04-.18-.11-.27-.16l-8.96-5.18c-.45-.27-1.02-.27-1.47,0l-10.94,6.32v-4.37s.02-.09.05-.12l9.06-5.23c4.03-2.33,9.19-.94,11.52,3.09.98,1.7,1.34,3.7,1.01,5.64h0Zm-23.7,7.8l-3.79-2.19s-.07-.06-.07-.1v-10.46c0-4.66,3.78-8.43,8.44-8.43,1.97,0,3.88.69,5.39,1.95-.07.04-.19.1-.27.15l-8.96,5.18c-.46.26-.74.75-.74,1.27v12.63s0,0,0,0Zm2.06-4.44l4.87-2.81,4.87,2.81v5.63l-4.87,2.81-4.87-2.81v-5.63Z"/></svg>