<svg width="301" height="191" viewBox="0 0 301 191" fill="none" xmlns="http://www.w3.org/2000/svg">
  <rect width="300" height="190" fill="#DCCEE1" />
  <path d="M15 19C15 16.7909 16.7909 15 19 15H300V190H19C16.7909 190 15 188.209 15 186V19Z" fill="white"
    stroke="#ABABAB" stroke-width="0.4" />
  <path
    d="M67.4689 189.696C66.4911 189.291 65.709 188.509 65.3035 187.531L65.4883 187.455C65.3026 187.007 65.2 186.516 65.2 186V183.062H65V177.188H65.2V171.312H65V165.438H65.2V159.562H65V153.688H65.2V147.812H65V141.938H65.2V136.062H65V130.188H65.2V124.312H65V118.438H65.2V112.562H65V106.688H65.2V100.812H65V94.9375H65.2V92C65.2 91.4844 65.3026 90.9932 65.4883 90.5455L65.3035 90.4688C65.709 89.4911 66.4911 88.709 67.4688 88.3035L67.5455 88.4883C67.9932 88.3026 68.4844 88.2 69 88.2H72.0394V88H78.1184V88.2H84.1973V88H90.2763V88.2H96.3552V88H102.434V88.2H108.513V88H114.592V88.2H120.671V88H126.75V88.2H132.829V88H138.908V88.2H144.987V88H151.066V88.2H157.145V88H163.224V88.2H169.303V88H175.382V88.2H181.46V88H187.539V88.2H193.618V88H199.697V88.2H205.776V88H211.855V88.2H217.934V88H224.013V88.2H230.092V88H236.171V88.2H242.25V88H248.329V88.2H254.408V88H260.487V88.2H266.566V88H272.645V88.2H278.724V88H284.803V88.2H290.882V88H296.961V88.2H299.8V90.8333H300V96.5H299.8V102.167H300V107.833H299.8V113.5H300V119.167H299.8V124.833H300V130.5H299.8V136.167H300V141.833H299.8V147.5H300V153.167H299.8V158.833H300V164.5H299.8V170.167H300V175.833H299.8V181.5H300V187.167H299.8V189.8H296.961V190H290.882V189.8H284.803V190H278.724V189.8H272.645V190H266.566V189.8H260.487V190H254.408V189.8H248.329V190H242.25V189.8H236.171V190H230.092V189.8H224.013V190H217.934V189.8H211.855V190H205.776V189.8H199.697V190H193.618V189.8H187.54V190H181.461V189.8H175.382V190H169.303V189.8H163.224V190H157.145V189.8H151.066V190H144.987V189.8H138.908V190H132.829V189.8H126.75V190H120.671V189.8H114.592V190H108.513V189.8H102.434V190H96.3553V189.8H90.2763V190H84.1974V189.8H78.1184V190H72.0395V189.8H69C68.4844 189.8 67.9932 189.697 67.5455 189.512L67.4689 189.696Z"
    fill="#606368" fill-opacity="0.07" stroke="#ABABAB" stroke-width="0.4" stroke-dasharray="6 6" />
  <path
    d="M213.118 165.882V144.706H199L223.706 120L248.412 144.706H234.294V165.882H213.118ZM199 180V172.941H248.412V180H199Z"
    fill="#6B7280" fill-opacity="0.5" />
  <path
    d="M230.989 62.6364V67H230.477L228.099 63.5739H228.057V67H227.528V62.6364H228.04L230.426 66.071H230.469V62.6364H230.989ZM233.307 67.0682C233.012 67.0682 232.753 66.9979 232.53 66.8572C232.308 66.7166 232.135 66.5199 232.01 66.267C231.886 66.0142 231.824 65.7187 231.824 65.3807C231.824 65.0398 231.886 64.7422 232.01 64.4879C232.135 64.2337 232.308 64.0362 232.53 63.8956C232.753 63.755 233.012 63.6847 233.307 63.6847C233.603 63.6847 233.861 63.755 234.083 63.8956C234.306 64.0362 234.479 64.2337 234.603 64.4879C234.728 64.7422 234.79 65.0398 234.79 65.3807C234.79 65.7187 234.728 66.0142 234.603 66.267C234.479 66.5199 234.306 66.7166 234.083 66.8572C233.861 66.9979 233.603 67.0682 233.307 67.0682ZM233.307 66.6165C233.532 66.6165 233.716 66.5589 233.861 66.4439C234.006 66.3288 234.113 66.1776 234.183 65.9901C234.253 65.8026 234.287 65.5994 234.287 65.3807C234.287 65.1619 234.253 64.9581 234.183 64.7692C234.113 64.5803 234.006 64.4276 233.861 64.3111C233.716 64.1946 233.532 64.1364 233.307 64.1364C233.083 64.1364 232.898 64.1946 232.753 64.3111C232.608 64.4276 232.501 64.5803 232.432 64.7692C232.362 64.9581 232.327 65.1619 232.327 65.3807C232.327 65.5994 232.362 65.8026 232.432 65.9901C232.501 66.1776 232.608 66.3288 232.753 66.4439C232.898 66.5589 233.083 66.6165 233.307 66.6165ZM238.703 63.7273V64.1534H236.939V63.7273H238.703ZM237.467 67V63.2756C237.467 63.0881 237.511 62.9318 237.599 62.8068C237.687 62.6818 237.801 62.5881 237.942 62.5256C238.083 62.4631 238.231 62.4318 238.387 62.4318C238.511 62.4318 238.612 62.4418 238.69 62.4616C238.768 62.4815 238.826 62.5 238.865 62.517L238.72 62.9517C238.694 62.9432 238.659 62.9325 238.613 62.9197C238.569 62.907 238.511 62.9006 238.439 62.9006C238.272 62.9006 238.152 62.9425 238.078 63.0263C238.006 63.1101 237.97 63.233 237.97 63.3949V67H237.467ZM239.407 67V63.7273H239.91V67H239.407ZM239.663 63.1818C239.565 63.1818 239.481 63.1484 239.41 63.0817C239.34 63.0149 239.305 62.9347 239.305 62.8409C239.305 62.7472 239.34 62.6669 239.41 62.6001C239.481 62.5334 239.565 62.5 239.663 62.5C239.761 62.5 239.845 62.5334 239.915 62.6001C239.986 62.6669 240.021 62.7472 240.021 62.8409C240.021 62.9347 239.986 63.0149 239.915 63.0817C239.845 63.1484 239.761 63.1818 239.663 63.1818ZM241.334 62.6364V67H240.831V62.6364H241.334ZM243.627 67.0682C243.312 67.0682 243.04 66.9986 242.811 66.8594C242.584 66.7188 242.409 66.5227 242.285 66.2713C242.163 66.0185 242.102 65.7244 242.102 65.3892C242.102 65.054 242.163 64.7585 242.285 64.5028C242.409 64.2457 242.58 64.0455 242.801 63.902C243.022 63.7571 243.281 63.6847 243.576 63.6847C243.747 63.6847 243.915 63.7131 244.081 63.7699C244.247 63.8267 244.399 63.919 244.535 64.0469C244.671 64.1733 244.78 64.3409 244.861 64.5497C244.942 64.7585 244.982 65.0156 244.982 65.321V65.5341H242.46V65.0994H244.471C244.471 64.9148 244.434 64.75 244.36 64.6051C244.288 64.4602 244.184 64.3459 244.049 64.2621C243.916 64.1783 243.758 64.1364 243.576 64.1364C243.376 64.1364 243.203 64.1861 243.056 64.2855C242.911 64.3835 242.8 64.5114 242.722 64.669C242.644 64.8267 242.605 64.9957 242.605 65.1761V65.4659C242.605 65.7131 242.647 65.9226 242.732 66.0945C242.819 66.2649 242.939 66.3949 243.093 66.4844C243.246 66.5724 243.424 66.6165 243.627 66.6165C243.759 66.6165 243.879 66.598 243.985 66.5611C244.093 66.5227 244.186 66.4659 244.264 66.3906C244.343 66.3139 244.403 66.2187 244.445 66.1051L244.931 66.2415C244.88 66.4062 244.794 66.5511 244.673 66.6761C244.553 66.7997 244.404 66.8963 244.226 66.9659C244.048 67.0341 243.849 67.0682 243.627 67.0682ZM248.764 67.0682C248.458 67.0682 248.193 66.9957 247.972 66.8509C247.75 66.706 247.58 66.5064 247.46 66.2521C247.341 65.9979 247.281 65.7074 247.281 65.3807C247.281 65.0483 247.343 64.755 247.465 64.5007C247.588 64.245 247.76 64.0455 247.98 63.902C248.202 63.7571 248.46 63.6847 248.756 63.6847C248.986 63.6847 249.193 63.7273 249.378 63.8125C249.563 63.8977 249.714 64.017 249.832 64.1705C249.95 64.3239 250.023 64.5028 250.051 64.7074H249.548C249.51 64.5582 249.425 64.4261 249.293 64.3111C249.162 64.1946 248.986 64.1364 248.764 64.1364C248.568 64.1364 248.396 64.1875 248.249 64.2898C248.102 64.3906 247.988 64.5334 247.906 64.718C247.825 64.9013 247.784 65.1165 247.784 65.3636C247.784 65.6165 247.824 65.8366 247.904 66.0241C247.985 66.2116 248.098 66.3572 248.244 66.4609C248.392 66.5646 248.566 66.6165 248.764 66.6165C248.895 66.6165 249.014 66.5938 249.12 66.5483C249.227 66.5028 249.317 66.4375 249.391 66.3523C249.465 66.267 249.517 66.1648 249.548 66.0455H250.051C250.023 66.2386 249.953 66.4126 249.84 66.5675C249.73 66.7209 249.583 66.843 249.399 66.9339C249.218 67.0234 249.006 67.0682 248.764 67.0682ZM251.289 65.0312V67H250.786V62.6364H251.289V64.2386H251.332C251.409 64.0696 251.524 63.9354 251.677 63.8359C251.832 63.7351 252.038 63.6847 252.295 63.6847C252.518 63.6847 252.713 63.7294 252.881 63.8189C253.048 63.907 253.178 64.0426 253.271 64.2259C253.365 64.4077 253.411 64.6392 253.411 64.9205V67H252.909V64.9545C252.909 64.6946 252.841 64.4936 252.706 64.3516C252.573 64.2081 252.387 64.1364 252.15 64.1364C251.985 64.1364 251.838 64.1712 251.707 64.2408C251.578 64.3104 251.475 64.4119 251.4 64.5455C251.326 64.679 251.289 64.8409 251.289 65.0312ZM255.661 67.0682C255.365 67.0682 255.106 66.9979 254.883 66.8572C254.662 66.7166 254.488 66.5199 254.363 66.267C254.24 66.0142 254.178 65.7187 254.178 65.3807C254.178 65.0398 254.24 64.7422 254.363 64.4879C254.488 64.2337 254.662 64.0362 254.883 63.8956C255.106 63.755 255.365 63.6847 255.661 63.6847C255.956 63.6847 256.215 63.755 256.436 63.8956C256.659 64.0362 256.833 64.2337 256.956 64.4879C257.081 64.7422 257.144 65.0398 257.144 65.3807C257.144 65.7187 257.081 66.0142 256.956 66.267C256.833 66.5199 256.659 66.7166 256.436 66.8572C256.215 66.9979 255.956 67.0682 255.661 67.0682ZM255.661 66.6165C255.885 66.6165 256.07 66.5589 256.215 66.4439C256.36 66.3288 256.467 66.1776 256.537 65.9901C256.606 65.8026 256.641 65.5994 256.641 65.3807C256.641 65.1619 256.606 64.9581 256.537 64.7692C256.467 64.5803 256.36 64.4276 256.215 64.3111C256.07 64.1946 255.885 64.1364 255.661 64.1364C255.436 64.1364 255.252 64.1946 255.107 64.3111C254.962 64.4276 254.855 64.5803 254.785 64.7692C254.716 64.9581 254.681 65.1619 254.681 65.3807C254.681 65.5994 254.716 65.8026 254.785 65.9901C254.855 66.1776 254.962 66.3288 255.107 66.4439C255.252 66.5589 255.436 66.6165 255.661 66.6165ZM260.23 64.4602L259.778 64.5881C259.749 64.5128 259.708 64.4396 259.652 64.3686C259.598 64.2962 259.524 64.2365 259.431 64.1896C259.337 64.1428 259.217 64.1193 259.07 64.1193C258.87 64.1193 258.703 64.1655 258.57 64.2578C258.438 64.3487 258.372 64.4645 258.372 64.6051C258.372 64.7301 258.417 64.8288 258.508 64.9013C258.599 64.9737 258.741 65.0341 258.934 65.0824L259.42 65.2017C259.713 65.2727 259.931 65.3814 260.074 65.5277C260.218 65.6726 260.289 65.8594 260.289 66.0881C260.289 66.2756 260.235 66.4432 260.127 66.5909C260.021 66.7386 259.872 66.8551 259.68 66.9403C259.488 67.0256 259.265 67.0682 259.011 67.0682C258.677 67.0682 258.401 66.9957 258.182 66.8509C257.963 66.706 257.825 66.4943 257.767 66.2159L258.244 66.0966C258.289 66.2727 258.375 66.4048 258.502 66.4929C258.629 66.581 258.796 66.625 259.002 66.625C259.237 66.625 259.423 66.5753 259.561 66.4759C259.7 66.375 259.769 66.2543 259.769 66.1136C259.769 66 259.73 65.9048 259.65 65.8281C259.57 65.75 259.448 65.6918 259.284 65.6534L258.738 65.5256C258.438 65.4545 258.218 65.3445 258.078 65.1953C257.938 65.0447 257.869 64.8565 257.869 64.6307C257.869 64.446 257.921 64.2827 258.024 64.1406C258.129 63.9986 258.272 63.8871 258.453 63.8061C258.634 63.7251 258.84 63.6847 259.07 63.6847C259.394 63.6847 259.649 63.7557 259.833 63.8977C260.019 64.0398 260.151 64.2273 260.23 64.4602ZM262.418 67.0682C262.103 67.0682 261.831 66.9986 261.602 66.8594C261.375 66.7188 261.2 66.5227 261.076 66.2713C260.954 66.0185 260.893 65.7244 260.893 65.3892C260.893 65.054 260.954 64.7585 261.076 64.5028C261.2 64.2457 261.371 64.0455 261.592 63.902C261.813 63.7571 262.072 63.6847 262.367 63.6847C262.538 63.6847 262.706 63.7131 262.872 63.7699C263.038 63.8267 263.19 63.919 263.326 64.0469C263.462 64.1733 263.571 64.3409 263.652 64.5497C263.733 64.7585 263.773 65.0156 263.773 65.321V65.5341H261.251V65.0994H263.262C263.262 64.9148 263.225 64.75 263.151 64.6051C263.079 64.4602 262.975 64.3459 262.84 64.2621C262.707 64.1783 262.549 64.1364 262.367 64.1364C262.167 64.1364 261.994 64.1861 261.847 64.2855C261.702 64.3835 261.591 64.5114 261.513 64.669C261.435 64.8267 261.396 64.9957 261.396 65.1761V65.4659C261.396 65.7131 261.438 65.9226 261.523 66.0945C261.61 66.2649 261.73 66.3949 261.884 66.4844C262.037 66.5724 262.215 66.6165 262.418 66.6165C262.55 66.6165 262.67 66.598 262.776 66.5611C262.884 66.5227 262.977 66.4659 263.055 66.3906C263.134 66.3139 263.194 66.2187 263.237 66.1051L263.722 66.2415C263.671 66.4062 263.585 66.5511 263.464 66.6761C263.344 66.7997 263.195 66.8963 263.017 66.9659C262.839 67.0341 262.64 67.0682 262.418 67.0682ZM265.041 65.0312V67H264.538V63.7273H265.024V64.2386H265.067C265.143 64.0724 265.26 63.9389 265.416 63.8381C265.572 63.7358 265.774 63.6847 266.021 63.6847C266.243 63.6847 266.437 63.7301 266.603 63.821C266.769 63.9105 266.898 64.0469 266.991 64.2301C267.083 64.4119 267.129 64.642 267.129 64.9205V67H266.626V64.9545C266.626 64.6974 266.56 64.4972 266.426 64.3537C266.293 64.2088 266.109 64.1364 265.876 64.1364C265.716 64.1364 265.572 64.1712 265.446 64.2408C265.321 64.3104 265.222 64.4119 265.15 64.5455C265.077 64.679 265.041 64.8409 265.041 65.0312Z"
    fill="#6B7280" />
  <rect x="170" y="59" width="54" height="12" rx="4" fill="#0080FF" />
  <path
    d="M178.881 62.6364H179.804V65.4702C179.804 65.7884 179.728 66.0668 179.576 66.3054C179.425 66.544 179.214 66.7301 178.943 66.8636C178.672 66.9957 178.356 67.0618 177.995 67.0618C177.633 67.0618 177.316 66.9957 177.045 66.8636C176.773 66.7301 176.562 66.544 176.412 66.3054C176.261 66.0668 176.186 65.7884 176.186 65.4702V62.6364H177.108V65.3913C177.108 65.5575 177.145 65.7053 177.217 65.8345C177.291 65.9638 177.395 66.0653 177.528 66.1392C177.662 66.2131 177.817 66.25 177.995 66.25C178.174 66.25 178.329 66.2131 178.461 66.1392C178.595 66.0653 178.698 65.9638 178.77 65.8345C178.844 65.7053 178.881 65.5575 178.881 65.3913V62.6364ZM180.563 67V62.6364H182.284C182.615 62.6364 182.897 62.6996 183.13 62.826C183.363 62.951 183.541 63.125 183.663 63.348C183.787 63.5696 183.848 63.8253 183.848 64.1151C183.848 64.4048 183.786 64.6605 183.661 64.8821C183.536 65.1037 183.355 65.2763 183.118 65.3999C182.882 65.5234 182.596 65.5852 182.261 65.5852H181.164V64.8459H182.112C182.289 64.8459 182.436 64.8153 182.551 64.7543C182.667 64.6918 182.754 64.6058 182.811 64.4964C182.869 64.3857 182.898 64.2585 182.898 64.1151C182.898 63.9702 182.869 63.8437 182.811 63.7358C182.754 63.6264 182.667 63.5419 182.551 63.4822C182.434 63.4212 182.287 63.3906 182.108 63.3906H181.485V67H180.563ZM184.448 67V62.6364H185.37V66.2393H187.241V67H184.448ZM191.692 64.8182C191.692 65.294 191.602 65.6989 191.421 66.0327C191.242 66.3665 190.998 66.6214 190.688 66.7976C190.38 66.9723 190.034 67.0597 189.649 67.0597C189.261 67.0597 188.913 66.9716 188.605 66.7955C188.296 66.6193 188.053 66.3643 187.874 66.0305C187.695 65.6967 187.605 65.2926 187.605 64.8182C187.605 64.3423 187.695 63.9375 187.874 63.6037C188.053 63.2699 188.296 63.0156 188.605 62.8409C188.913 62.6648 189.261 62.5767 189.649 62.5767C190.034 62.5767 190.38 62.6648 190.688 62.8409C190.998 63.0156 191.242 63.2699 191.421 63.6037C191.602 63.9375 191.692 64.3423 191.692 64.8182ZM190.757 64.8182C190.757 64.5099 190.71 64.25 190.618 64.0384C190.527 63.8267 190.399 63.6662 190.232 63.5568C190.066 63.4474 189.872 63.3928 189.649 63.3928C189.426 63.3928 189.231 63.4474 189.065 63.5568C188.899 63.6662 188.769 63.8267 188.677 64.0384C188.586 64.25 188.541 64.5099 188.541 64.8182C188.541 65.1264 188.586 65.3864 188.677 65.598C188.769 65.8097 188.899 65.9702 189.065 66.0795C189.231 66.1889 189.426 66.2436 189.649 66.2436C189.872 66.2436 190.066 66.1889 190.232 66.0795C190.399 65.9702 190.527 65.8097 190.618 65.598C190.71 65.3864 190.757 65.1264 190.757 64.8182ZM192.881 67H191.893L193.399 62.6364H194.588L196.092 67H195.104L194.011 63.6335H193.977L192.881 67ZM192.82 65.2848H195.155V66.005H192.82V65.2848ZM198.164 67H196.618V62.6364H198.177C198.616 62.6364 198.994 62.7237 199.311 62.8984C199.627 63.0717 199.871 63.321 200.042 63.6463C200.213 63.9716 200.299 64.3608 200.299 64.8139C200.299 65.2685 200.213 65.6591 200.042 65.9858C199.871 66.3125 199.626 66.5632 199.306 66.7379C198.988 66.9126 198.608 67 198.164 67ZM197.54 66.2095H198.126C198.399 66.2095 198.628 66.1612 198.814 66.0646C199.002 65.9666 199.142 65.8153 199.236 65.6108C199.331 65.4048 199.379 65.1392 199.379 64.8139C199.379 64.4915 199.331 64.228 199.236 64.0234C199.142 63.8189 199.002 63.6683 198.816 63.5717C198.63 63.4751 198.401 63.4268 198.128 63.4268H197.54V66.2095ZM202.371 67V62.6364H205.261V63.397H203.294V64.4368H205.069V65.1974H203.294V67H202.371ZM206.804 62.6364V67H205.881V62.6364H206.804ZM207.563 67V62.6364H208.485V66.2393H210.356V67H207.563ZM210.967 67V62.6364H213.907V63.397H211.89V64.4368H213.756V65.1974H211.89V66.2393H213.916V67H210.967ZM217.008 63.8913C216.991 63.7195 216.918 63.5859 216.789 63.4908C216.659 63.3956 216.484 63.348 216.262 63.348C216.112 63.348 215.985 63.3693 215.881 63.4119C215.777 63.4531 215.698 63.5107 215.642 63.5845C215.588 63.6584 215.561 63.7422 215.561 63.8359C215.559 63.9141 215.575 63.9822 215.61 64.0405C215.647 64.0987 215.698 64.1491 215.762 64.1918C215.826 64.233 215.9 64.2692 215.983 64.3004C216.067 64.3303 216.157 64.3558 216.252 64.3771L216.644 64.4709C216.834 64.5135 217.009 64.5703 217.168 64.6413C217.327 64.7124 217.465 64.7997 217.581 64.9034C217.698 65.0071 217.788 65.1293 217.852 65.2699C217.917 65.4105 217.951 65.5717 217.952 65.7536C217.951 66.0206 217.882 66.2521 217.748 66.4482C217.614 66.6428 217.421 66.794 217.168 66.902C216.917 67.0085 216.613 67.0618 216.258 67.0618C215.906 67.0618 215.599 67.0078 215.338 66.8999C215.078 66.7919 214.875 66.6321 214.728 66.4205C214.583 66.2074 214.507 65.9439 214.5 65.63H215.393C215.403 65.7763 215.445 65.8984 215.519 65.9964C215.594 66.093 215.694 66.1662 215.819 66.2159C215.946 66.2642 216.088 66.2884 216.248 66.2884C216.404 66.2884 216.539 66.2656 216.654 66.2202C216.771 66.1747 216.861 66.1115 216.925 66.0305C216.989 65.9496 217.021 65.8565 217.021 65.7514C217.021 65.6534 216.992 65.571 216.934 65.5043C216.877 65.4375 216.793 65.3807 216.682 65.3338C216.573 65.2869 216.439 65.2443 216.279 65.206L215.804 65.0866C215.436 64.9972 215.146 64.8572 214.933 64.6669C214.72 64.4766 214.614 64.2202 214.615 63.8977C214.614 63.6335 214.684 63.4027 214.826 63.2053C214.97 63.0078 215.167 62.8537 215.417 62.7429C215.667 62.6321 215.951 62.5767 216.269 62.5767C216.593 62.5767 216.875 62.6321 217.117 62.7429C217.36 62.8537 217.549 63.0078 217.684 63.2053C217.819 63.4027 217.888 63.6314 217.892 63.8913H217.008Z"
    fill="white" />
  <path
    d="M28.7684 45H28.2144L29.8167 40.6364H30.3622L31.9644 45H31.4105L30.1065 41.3267H30.0724L28.7684 45ZM28.973 43.2955H31.2059V43.7642H28.973V43.2955ZM35.7208 41.7273V42.1534H33.9566V41.7273H35.7208ZM34.485 45V41.2756C34.485 41.0881 34.5291 40.9318 34.6171 40.8068C34.7052 40.6818 34.8196 40.5881 34.9602 40.5256C35.1008 40.4631 35.2492 40.4318 35.4055 40.4318C35.5291 40.4318 35.6299 40.4418 35.7081 40.4616C35.7862 40.4815 35.8444 40.5 35.8828 40.517L35.7379 40.9517C35.7123 40.9432 35.6768 40.9325 35.6313 40.9197C35.5873 40.907 35.5291 40.9006 35.4566 40.9006C35.2904 40.9006 35.1704 40.9425 35.0965 41.0263C35.0241 41.1101 34.9879 41.233 34.9879 41.3949V45H34.485ZM36.4256 45V41.7273H36.9284V45H36.4256ZM36.6812 41.1818C36.5832 41.1818 36.4987 41.1484 36.4277 41.0817C36.3581 41.0149 36.3233 40.9347 36.3233 40.8409C36.3233 40.7472 36.3581 40.6669 36.4277 40.6001C36.4987 40.5334 36.5832 40.5 36.6812 40.5C36.7793 40.5 36.8631 40.5334 36.9327 40.6001C37.0037 40.6669 37.0392 40.7472 37.0392 40.8409C37.0392 40.9347 37.0037 41.0149 36.9327 41.0817C36.8631 41.1484 36.7793 41.1818 36.6812 41.1818ZM38.3522 40.6364V45H37.8494V40.6364H38.3522ZM40.6454 45.0682C40.33 45.0682 40.058 44.9986 39.8293 44.8594C39.6021 44.7188 39.4266 44.5227 39.303 44.2713C39.1809 44.0185 39.1198 43.7244 39.1198 43.3892C39.1198 43.054 39.1809 42.7585 39.303 42.5028C39.4266 42.2457 39.5985 42.0455 39.8187 41.902C40.0403 41.7571 40.2988 41.6847 40.5942 41.6847C40.7647 41.6847 40.933 41.7131 41.0992 41.7699C41.2654 41.8267 41.4167 41.919 41.553 42.0469C41.6894 42.1733 41.7981 42.3409 41.879 42.5497C41.96 42.7585 42.0005 43.0156 42.0005 43.321V43.5341H39.4778V43.0994H41.4891C41.4891 42.9148 41.4522 42.75 41.3783 42.6051C41.3059 42.4602 41.2022 42.3459 41.0672 42.2621C40.9337 42.1783 40.7761 42.1364 40.5942 42.1364C40.394 42.1364 40.2207 42.1861 40.0744 42.2855C39.9295 42.3835 39.818 42.5114 39.7398 42.669C39.6617 42.8267 39.6226 42.9957 39.6226 43.1761V43.4659C39.6226 43.7131 39.6653 43.9226 39.7505 44.0945C39.8371 44.2649 39.9572 44.3949 40.1106 44.4844C40.264 44.5724 40.4422 44.6165 40.6454 44.6165C40.7775 44.6165 40.8968 44.598 41.0033 44.5611C41.1113 44.5227 41.2043 44.4659 41.2824 44.3906C41.3606 44.3139 41.4209 44.2187 41.4636 44.1051L41.9494 44.2415C41.8982 44.4062 41.8123 44.5511 41.6915 44.6761C41.5708 44.7997 41.4217 44.8963 41.2441 44.9659C41.0665 45.0341 40.867 45.0682 40.6454 45.0682ZM46.5154 43.6619V41.7273H47.0182V45H46.5154V44.446H46.4813C46.4046 44.6122 46.2853 44.7536 46.1234 44.87C45.9614 44.9851 45.7569 45.0426 45.5097 45.0426C45.3052 45.0426 45.1234 44.9979 44.9643 44.9084C44.8052 44.8175 44.6802 44.6811 44.5893 44.4993C44.4984 44.3161 44.4529 44.0852 44.4529 43.8068V41.7273H44.9557V43.7727C44.9557 44.0114 45.0225 44.2017 45.156 44.3438C45.291 44.4858 45.4628 44.5568 45.6717 44.5568C45.7967 44.5568 45.9238 44.5249 46.053 44.4609C46.1837 44.397 46.2931 44.299 46.3812 44.1669C46.4707 44.0348 46.5154 43.8665 46.5154 43.6619ZM47.9392 46.2273V41.7273H48.425V42.2472H48.4847C48.5216 42.1903 48.5728 42.1179 48.6381 42.0298C48.7049 41.9403 48.8 41.8608 48.9236 41.7912C49.0486 41.7202 49.2176 41.6847 49.4307 41.6847C49.7063 41.6847 49.9492 41.7536 50.1594 41.8913C50.3696 42.0291 50.5337 42.2244 50.6516 42.4773C50.7695 42.7301 50.8284 43.0284 50.8284 43.3722C50.8284 43.7188 50.7695 44.0192 50.6516 44.2734C50.5337 44.5263 50.3703 44.7223 50.1615 44.8615C49.9527 44.9993 49.712 45.0682 49.4392 45.0682C49.229 45.0682 49.0607 45.0334 48.9343 44.9638C48.8078 44.8928 48.7105 44.8125 48.6424 44.723C48.5742 44.6321 48.5216 44.5568 48.4847 44.4972H48.4421V46.2273H47.9392ZM48.4335 43.3636C48.4335 43.6108 48.4698 43.8288 48.5422 44.0178C48.6147 44.2053 48.7205 44.3523 48.8597 44.4588C48.9989 44.5639 49.1693 44.6165 49.371 44.6165C49.5813 44.6165 49.7567 44.5611 49.8973 44.4503C50.0394 44.3381 50.1459 44.1875 50.2169 43.9986C50.2894 43.8082 50.3256 43.5966 50.3256 43.3636C50.3256 43.1335 50.2901 42.9261 50.2191 42.7415C50.1495 42.5554 50.0436 42.4084 49.9016 42.3004C49.761 42.1911 49.5841 42.1364 49.371 42.1364C49.1665 42.1364 48.9946 42.1882 48.8554 42.2919C48.7162 42.3942 48.6111 42.5376 48.5401 42.7223C48.4691 42.9055 48.4335 43.1193 48.4335 43.3636ZM52.0983 40.6364V45H51.5955V40.6364H52.0983ZM54.3489 45.0682C54.0534 45.0682 53.7942 44.9979 53.5712 44.8572C53.3496 44.7166 53.1763 44.5199 53.0513 44.267C52.9277 44.0142 52.8659 43.7187 52.8659 43.3807C52.8659 43.0398 52.9277 42.7422 53.0513 42.4879C53.1763 42.2337 53.3496 42.0362 53.5712 41.8956C53.7942 41.755 54.0534 41.6847 54.3489 41.6847C54.6443 41.6847 54.9028 41.755 55.1244 41.8956C55.3474 42.0362 55.5207 42.2337 55.6443 42.4879C55.7693 42.7422 55.8318 43.0398 55.8318 43.3807C55.8318 43.7187 55.7693 44.0142 55.6443 44.267C55.5207 44.5199 55.3474 44.7166 55.1244 44.8572C54.9028 44.9979 54.6443 45.0682 54.3489 45.0682ZM54.3489 44.6165C54.5733 44.6165 54.7579 44.5589 54.9028 44.4439C55.0477 44.3288 55.155 44.1776 55.2246 43.9901C55.2942 43.8026 55.329 43.5994 55.329 43.3807C55.329 43.1619 55.2942 42.9581 55.2246 42.7692C55.155 42.5803 55.0477 42.4276 54.9028 42.3111C54.7579 42.1946 54.5733 42.1364 54.3489 42.1364C54.1244 42.1364 53.9398 42.1946 53.7949 42.3111C53.65 42.4276 53.5427 42.5803 53.4731 42.7692C53.4035 42.9581 53.3687 43.1619 53.3687 43.3807C53.3687 43.5994 53.4035 43.8026 53.4731 43.9901C53.5427 44.1776 53.65 44.3288 53.7949 44.4439C53.9398 44.5589 54.1244 44.6165 54.3489 44.6165ZM57.5625 45.0767C57.3551 45.0767 57.1669 45.0376 56.9978 44.9595C56.8288 44.88 56.6946 44.7656 56.5951 44.6165C56.4957 44.4659 56.446 44.2841 56.446 44.071C56.446 43.8835 56.4829 43.7315 56.5568 43.6151C56.6306 43.4972 56.7294 43.4048 56.8529 43.3381C56.9765 43.2713 57.1129 43.2216 57.262 43.1889C57.4126 43.1548 57.5639 43.1278 57.7159 43.108C57.9147 43.0824 58.0759 43.0632 58.1995 43.0504C58.3245 43.0362 58.4154 43.0128 58.4723 42.9801C58.5305 42.9474 58.5596 42.8906 58.5596 42.8097V42.7926C58.5596 42.5824 58.5021 42.419 58.387 42.3026C58.2734 42.1861 58.1008 42.1278 57.8693 42.1278C57.6292 42.1278 57.441 42.1804 57.3046 42.2855C57.1683 42.3906 57.0724 42.5028 57.017 42.6222L56.5397 42.4517C56.625 42.2528 56.7386 42.098 56.8806 41.9872C57.0241 41.875 57.1804 41.7969 57.3494 41.7528C57.5198 41.7074 57.6875 41.6847 57.8522 41.6847C57.9573 41.6847 58.0781 41.6974 58.2144 41.723C58.3522 41.7472 58.485 41.7976 58.6129 41.8743C58.7421 41.951 58.8494 42.0668 58.9346 42.2216C59.0198 42.3764 59.0625 42.5838 59.0625 42.8438V45H58.5596V44.5568H58.534C58.5 44.6278 58.4431 44.7038 58.3636 44.7848C58.284 44.8658 58.1782 44.9347 58.0461 44.9915C57.914 45.0483 57.7528 45.0767 57.5625 45.0767ZM57.6392 44.625C57.838 44.625 58.0056 44.5859 58.142 44.5078C58.2798 44.4297 58.3835 44.3288 58.4531 44.2053C58.5241 44.0817 58.5596 43.9517 58.5596 43.8153V43.3551C58.5383 43.3807 58.4914 43.4041 58.419 43.4254C58.348 43.4453 58.2656 43.4631 58.1718 43.4787C58.0795 43.4929 57.9893 43.5057 57.9012 43.517C57.8146 43.527 57.7443 43.5355 57.6903 43.5426C57.5596 43.5597 57.4375 43.5874 57.3238 43.6257C57.2116 43.6626 57.1207 43.7187 57.0511 43.794C56.9829 43.8679 56.9488 43.9687 56.9488 44.0966C56.9488 44.2713 57.0134 44.4034 57.1427 44.4929C57.2734 44.581 57.4389 44.625 57.6392 44.625ZM61.216 45.0682C60.9433 45.0682 60.7025 44.9993 60.4937 44.8615C60.2849 44.7223 60.1216 44.5263 60.0037 44.2734C59.8858 44.0192 59.8268 43.7188 59.8268 43.3722C59.8268 43.0284 59.8858 42.7301 60.0037 42.4773C60.1216 42.2244 60.2856 42.0291 60.4959 41.8913C60.7061 41.7536 60.949 41.6847 61.2246 41.6847C61.4376 41.6847 61.606 41.7202 61.7295 41.7912C61.8545 41.8608 61.9497 41.9403 62.015 42.0298C62.0818 42.1179 62.1337 42.1903 62.1706 42.2472H62.2132V40.6364H62.716V45H62.2302V44.4972H62.1706C62.1337 44.5568 62.0811 44.6321 62.0129 44.723C61.9447 44.8125 61.8474 44.8928 61.721 44.9638C61.5946 45.0334 61.4263 45.0682 61.216 45.0682ZM61.2842 44.6165C61.4859 44.6165 61.6564 44.5639 61.7956 44.4588C61.9348 44.3523 62.0406 44.2053 62.1131 44.0178C62.1855 43.8288 62.2217 43.6108 62.2217 43.3636C62.2217 43.1193 62.1862 42.9055 62.1152 42.7223C62.0442 42.5376 61.9391 42.3942 61.7998 42.2919C61.6606 42.1882 61.4888 42.1364 61.2842 42.1364C61.0712 42.1364 60.8936 42.1911 60.7516 42.3004C60.6109 42.4084 60.5051 42.5554 60.4341 42.7415C60.3645 42.9261 60.3297 43.1335 60.3297 43.3636C60.3297 43.5966 60.3652 43.8082 60.4362 43.9986C60.5087 44.1875 60.6152 44.3381 60.7558 44.4503C60.8979 44.5611 61.074 44.6165 61.2842 44.6165ZM65.3943 46.2273V41.7273H65.8801V42.2472H65.9398C65.9767 42.1903 66.0278 42.1179 66.0932 42.0298C66.1599 41.9403 66.2551 41.8608 66.3787 41.7912C66.5037 41.7202 66.6727 41.6847 66.8858 41.6847C67.1614 41.6847 67.4043 41.7536 67.6145 41.8913C67.8247 42.0291 67.9888 42.2244 68.1067 42.4773C68.2246 42.7301 68.2835 43.0284 68.2835 43.3722C68.2835 43.7188 68.2246 44.0192 68.1067 44.2734C67.9888 44.5263 67.8254 44.7223 67.6166 44.8615C67.4078 44.9993 67.167 45.0682 66.8943 45.0682C66.6841 45.0682 66.5158 45.0334 66.3893 44.9638C66.2629 44.8928 66.1656 44.8125 66.0974 44.723C66.0293 44.6321 65.9767 44.5568 65.9398 44.4972H65.8972V46.2273H65.3943ZM65.8886 43.3636C65.8886 43.6108 65.9248 43.8288 65.9973 44.0178C66.0697 44.2053 66.1756 44.3523 66.3148 44.4588C66.454 44.5639 66.6244 44.6165 66.8261 44.6165C67.0364 44.6165 67.2118 44.5611 67.3524 44.4503C67.4945 44.3381 67.601 44.1875 67.672 43.9986C67.7445 43.8082 67.7807 43.5966 67.7807 43.3636C67.7807 43.1335 67.7452 42.9261 67.6741 42.7415C67.6045 42.5554 67.4987 42.4084 67.3567 42.3004C67.216 42.1911 67.0392 42.1364 66.8261 42.1364C66.6216 42.1364 66.4497 42.1882 66.3105 42.2919C66.1713 42.3942 66.0662 42.5376 65.9952 42.7223C65.9241 42.9055 65.8886 43.1193 65.8886 43.3636ZM70.3801 45.0682C70.0847 45.0682 69.8254 44.9979 69.6024 44.8572C69.3808 44.7166 69.2075 44.5199 69.0825 44.267C68.9589 44.0142 68.8972 43.7187 68.8972 43.3807C68.8972 43.0398 68.9589 42.7422 69.0825 42.4879C69.2075 42.2337 69.3808 42.0362 69.6024 41.8956C69.8254 41.755 70.0847 41.6847 70.3801 41.6847C70.6756 41.6847 70.9341 41.755 71.1557 41.8956C71.3787 42.0362 71.552 42.2337 71.6756 42.4879C71.8006 42.7422 71.8631 43.0398 71.8631 43.3807C71.8631 43.7187 71.8006 44.0142 71.6756 44.267C71.552 44.5199 71.3787 44.7166 71.1557 44.8572C70.9341 44.9979 70.6756 45.0682 70.3801 45.0682ZM70.3801 44.6165C70.6045 44.6165 70.7892 44.5589 70.9341 44.4439C71.079 44.3288 71.1862 44.1776 71.2558 43.9901C71.3254 43.8026 71.3602 43.5994 71.3602 43.3807C71.3602 43.1619 71.3254 42.9581 71.2558 42.7692C71.1862 42.5803 71.079 42.4276 70.9341 42.3111C70.7892 42.1946 70.6045 42.1364 70.3801 42.1364C70.1557 42.1364 69.971 42.1946 69.8261 42.3111C69.6812 42.4276 69.574 42.5803 69.5044 42.7692C69.4348 42.9581 69.4 43.1619 69.4 43.3807C69.4 43.5994 69.4348 43.8026 69.5044 43.9901C69.574 44.1776 69.6812 44.3288 69.8261 44.4439C69.971 44.5589 70.1557 44.6165 70.3801 44.6165ZM72.6306 45V41.7273H73.1164V42.2216H73.1505C73.2102 42.0597 73.3181 41.9283 73.4744 41.8274C73.6306 41.7266 73.8068 41.6761 74.0028 41.6761C74.0397 41.6761 74.0859 41.6768 74.1413 41.6783C74.1967 41.6797 74.2386 41.6818 74.267 41.6847V42.196C74.25 42.1918 74.2109 42.1854 74.1498 42.1768C74.0902 42.1669 74.0269 42.1619 73.9602 42.1619C73.8011 42.1619 73.659 42.1953 73.534 42.2621C73.4105 42.3274 73.3125 42.4183 73.24 42.5348C73.169 42.6499 73.1335 42.7812 73.1335 42.929V45H72.6306ZM76.4914 41.7273V42.1534H74.7954V41.7273H76.4914ZM75.2897 40.9432H75.7926V44.0625C75.7926 44.2045 75.8132 44.3111 75.8544 44.3821C75.897 44.4517 75.9509 44.4986 76.0163 44.5227C76.0831 44.5455 76.1534 44.5568 76.2272 44.5568C76.2826 44.5568 76.3281 44.554 76.3636 44.5483C76.3991 44.5412 76.4275 44.5355 76.4488 44.5312L76.5511 44.983C76.517 44.9957 76.4694 45.0085 76.4083 45.0213C76.3473 45.0355 76.2698 45.0426 76.1761 45.0426C76.034 45.0426 75.8948 45.0121 75.7585 44.951C75.6235 44.8899 75.5113 44.7969 75.4218 44.6719C75.3338 44.5469 75.2897 44.3892 75.2897 44.1989V40.9432ZM78.2109 45.0767C78.0035 45.0767 77.8153 45.0376 77.6463 44.9595C77.4772 44.88 77.343 44.7656 77.2436 44.6165C77.1441 44.4659 77.0944 44.2841 77.0944 44.071C77.0944 43.8835 77.1313 43.7315 77.2052 43.6151C77.2791 43.4972 77.3778 43.4048 77.5014 43.3381C77.625 43.2713 77.7613 43.2216 77.9105 43.1889C78.061 43.1548 78.2123 43.1278 78.3643 43.108C78.5632 43.0824 78.7244 43.0632 78.848 43.0504C78.973 43.0362 79.0639 43.0128 79.1207 42.9801C79.1789 42.9474 79.2081 42.8906 79.2081 42.8097V42.7926C79.2081 42.5824 79.1505 42.419 79.0355 42.3026C78.9218 42.1861 78.7492 42.1278 78.5177 42.1278C78.2777 42.1278 78.0894 42.1804 77.9531 42.2855C77.8167 42.3906 77.7208 42.5028 77.6654 42.6222L77.1882 42.4517C77.2734 42.2528 77.387 42.098 77.5291 41.9872C77.6725 41.875 77.8288 41.7969 77.9978 41.7528C78.1683 41.7074 78.3359 41.6847 78.5007 41.6847C78.6058 41.6847 78.7265 41.6974 78.8629 41.723C79.0007 41.7472 79.1335 41.7976 79.2613 41.8743C79.3906 41.951 79.4978 42.0668 79.5831 42.2216C79.6683 42.3764 79.7109 42.5838 79.7109 42.8438V45H79.2081V44.5568H79.1825C79.1484 44.6278 79.0916 44.7038 79.012 44.7848C78.9325 44.8658 78.8267 44.9347 78.6946 44.9915C78.5625 45.0483 78.4012 45.0767 78.2109 45.0767ZM78.2876 44.625C78.4865 44.625 78.6541 44.5859 78.7904 44.5078C78.9282 44.4297 79.0319 44.3288 79.1015 44.2053C79.1725 44.0817 79.2081 43.9517 79.2081 43.8153V43.3551C79.1867 43.3807 79.1399 43.4041 79.0674 43.4254C78.9964 43.4453 78.914 43.4631 78.8203 43.4787C78.7279 43.4929 78.6377 43.5057 78.5497 43.517C78.463 43.527 78.3927 43.5355 78.3387 43.5426C78.2081 43.5597 78.0859 43.5874 77.9723 43.6257C77.86 43.6626 77.7691 43.7187 77.6995 43.794C77.6313 43.8679 77.5973 43.9687 77.5973 44.0966C77.5973 44.2713 77.6619 44.4034 77.7911 44.4929C77.9218 44.581 78.0873 44.625 78.2876 44.625ZM81.1315 40.6364V45H80.6287V40.6364H81.1315ZM82.8025 44.4034L82.7684 44.6335C82.7443 44.7955 82.7073 44.9688 82.6576 45.1534C82.6093 45.3381 82.5589 45.5121 82.5063 45.6754C82.4538 45.8388 82.4105 45.9688 82.3764 46.0653H81.9929C82.0113 45.9744 82.0355 45.8544 82.0653 45.7053C82.0951 45.5561 82.125 45.3892 82.1548 45.2045C82.186 45.0213 82.2116 44.8338 82.2315 44.642L82.2571 44.4034H82.8025ZM86.8449 41.7273V42.1534H85.1489V41.7273H86.8449ZM85.6432 40.9432H86.1461V44.0625C86.1461 44.2045 86.1667 44.3111 86.2079 44.3821C86.2505 44.4517 86.3045 44.4986 86.3698 44.5227C86.4366 44.5455 86.5069 44.5568 86.5807 44.5568C86.6361 44.5568 86.6816 44.554 86.7171 44.5483C86.7526 44.5412 86.781 44.5355 86.8023 44.5312L86.9046 44.983C86.8705 44.9957 86.8229 45.0085 86.7619 45.0213C86.7008 45.0355 86.6234 45.0426 86.5296 45.0426C86.3876 45.0426 86.2484 45.0121 86.112 44.951C85.9771 44.8899 85.8648 44.7969 85.7753 44.6719C85.6873 44.5469 85.6432 44.3892 85.6432 44.1989V40.9432ZM88.8957 45.0682C88.6003 45.0682 88.341 44.9979 88.118 44.8572C87.8964 44.7166 87.7231 44.5199 87.5981 44.267C87.4746 44.0142 87.4128 43.7187 87.4128 43.3807C87.4128 43.0398 87.4746 42.7422 87.5981 42.4879C87.7231 42.2337 87.8964 42.0362 88.118 41.8956C88.341 41.755 88.6003 41.6847 88.8957 41.6847C89.1912 41.6847 89.4497 41.755 89.6713 41.8956C89.8943 42.0362 90.0676 42.2337 90.1912 42.4879C90.3162 42.7422 90.3787 43.0398 90.3787 43.3807C90.3787 43.7187 90.3162 44.0142 90.1912 44.267C90.0676 44.5199 89.8943 44.7166 89.6713 44.8572C89.4497 44.9979 89.1912 45.0682 88.8957 45.0682ZM88.8957 44.6165C89.1202 44.6165 89.3048 44.5589 89.4497 44.4439C89.5946 44.3288 89.7018 44.1776 89.7714 43.9901C89.841 43.8026 89.8758 43.5994 89.8758 43.3807C89.8758 43.1619 89.841 42.9581 89.7714 42.7692C89.7018 42.5803 89.5946 42.4276 89.4497 42.3111C89.3048 42.1946 89.1202 42.1364 88.8957 42.1364C88.6713 42.1364 88.4866 42.1946 88.3418 42.3111C88.1969 42.4276 88.0896 42.5803 88.02 42.7692C87.9504 42.9581 87.9156 43.1619 87.9156 43.3807C87.9156 43.5994 87.9504 43.8026 88.02 43.9901C88.0896 44.1776 88.1969 44.3288 88.3418 44.4439C88.4866 44.5589 88.6713 44.6165 88.8957 44.6165ZM92.8338 46.2273V41.7273H93.3196V42.2472H93.3792C93.4161 42.1903 93.4673 42.1179 93.5326 42.0298C93.5994 41.9403 93.6946 41.8608 93.8181 41.7912C93.9431 41.7202 94.1122 41.6847 94.3252 41.6847C94.6008 41.6847 94.8437 41.7536 95.0539 41.8913C95.2642 42.0291 95.4282 42.2244 95.5461 42.4773C95.664 42.7301 95.723 43.0284 95.723 43.3722C95.723 43.7188 95.664 44.0192 95.5461 44.2734C95.4282 44.5263 95.2649 44.7223 95.0561 44.8615C94.8473 44.9993 94.6065 45.0682 94.3338 45.0682C94.1235 45.0682 93.9552 45.0334 93.8288 44.9638C93.7024 44.8928 93.6051 44.8125 93.5369 44.723C93.4687 44.6321 93.4161 44.5568 93.3792 44.4972H93.3366V46.2273H92.8338ZM93.3281 43.3636C93.3281 43.6108 93.3643 43.8288 93.4367 44.0178C93.5092 44.2053 93.615 44.3523 93.7542 44.4588C93.8934 44.5639 94.0639 44.6165 94.2656 44.6165C94.4758 44.6165 94.6512 44.5611 94.7919 44.4503C94.9339 44.3381 95.0404 44.1875 95.1115 43.9986C95.1839 43.8082 95.2201 43.5966 95.2201 43.3636C95.2201 43.1335 95.1846 42.9261 95.1136 42.7415C95.044 42.5554 94.9382 42.4084 94.7961 42.3004C94.6555 42.1911 94.4786 42.1364 94.2656 42.1364C94.061 42.1364 93.8892 42.1882 93.75 42.2919C93.6108 42.3942 93.5056 42.5376 93.4346 42.7223C93.3636 42.9055 93.3281 43.1193 93.3281 43.3636ZM96.49 45V41.7273H96.9758V42.2216H97.0099C97.0696 42.0597 97.1775 41.9283 97.3338 41.8274C97.49 41.7266 97.6661 41.6761 97.8622 41.6761C97.8991 41.6761 97.9453 41.6768 98.0007 41.6783C98.0561 41.6797 98.098 41.6818 98.1264 41.6847V42.196C98.1093 42.1918 98.0703 42.1854 98.0092 42.1768C97.9495 42.1669 97.8863 42.1619 97.8196 42.1619C97.6605 42.1619 97.5184 42.1953 97.3934 42.2621C97.2698 42.3274 97.1718 42.4183 97.0994 42.5348C97.0284 42.6499 96.9929 42.7812 96.9929 42.929V45H96.49ZM99.9524 45.0682C99.6569 45.0682 99.3977 44.9979 99.1747 44.8572C98.9531 44.7166 98.7798 44.5199 98.6548 44.267C98.5312 44.0142 98.4694 43.7187 98.4694 43.3807C98.4694 43.0398 98.5312 42.7422 98.6548 42.4879C98.7798 42.2337 98.9531 42.0362 99.1747 41.8956C99.3977 41.755 99.6569 41.6847 99.9524 41.6847C100.248 41.6847 100.506 41.755 100.728 41.8956C100.951 42.0362 101.124 42.2337 101.248 42.4879C101.373 42.7422 101.435 43.0398 101.435 43.3807C101.435 43.7187 101.373 44.0142 101.248 44.267C101.124 44.5199 100.951 44.7166 100.728 44.8572C100.506 44.9979 100.248 45.0682 99.9524 45.0682ZM99.9524 44.6165C100.177 44.6165 100.361 44.5589 100.506 44.4439C100.651 44.3288 100.758 44.1776 100.828 43.9901C100.898 43.8026 100.932 43.5994 100.932 43.3807C100.932 43.1619 100.898 42.9581 100.828 42.7692C100.758 42.5803 100.651 42.4276 100.506 42.3111C100.361 42.1946 100.177 42.1364 99.9524 42.1364C99.7279 42.1364 99.5433 42.1946 99.3984 42.3111C99.2535 42.4276 99.1463 42.5803 99.0767 42.7692C99.0071 42.9581 98.9723 43.1619 98.9723 43.3807C98.9723 43.5994 99.0071 43.8026 99.0767 43.9901C99.1463 44.1776 99.2535 44.3288 99.3984 44.4439C99.5433 44.5589 99.7279 44.6165 99.9524 44.6165ZM103.532 45.0682C103.226 45.0682 102.961 44.9957 102.74 44.8509C102.518 44.706 102.348 44.5064 102.228 44.2521C102.109 43.9979 102.049 43.7074 102.049 43.3807C102.049 43.0483 102.111 42.755 102.233 42.5007C102.356 42.245 102.528 42.0455 102.748 41.902C102.97 41.7571 103.228 41.6847 103.524 41.6847C103.754 41.6847 103.961 41.7273 104.146 41.8125C104.331 41.8977 104.482 42.017 104.6 42.1705C104.718 42.3239 104.791 42.5028 104.819 42.7074H104.317C104.278 42.5582 104.193 42.4261 104.061 42.3111C103.93 42.1946 103.754 42.1364 103.532 42.1364C103.336 42.1364 103.165 42.1875 103.017 42.2898C102.871 42.3906 102.756 42.5334 102.674 42.718C102.593 42.9013 102.552 43.1165 102.552 43.3636C102.552 43.6165 102.592 43.8366 102.672 44.0241C102.753 44.2116 102.866 44.3572 103.013 44.4609C103.16 44.5646 103.334 44.6165 103.532 44.6165C103.663 44.6165 103.782 44.5938 103.888 44.5483C103.995 44.5028 104.085 44.4375 104.159 44.3523C104.233 44.267 104.285 44.1648 104.317 44.0455H104.819C104.791 44.2386 104.721 44.4126 104.608 44.5675C104.498 44.7209 104.351 44.843 104.167 44.9339C103.986 45.0234 103.774 45.0682 103.532 45.0682ZM106.927 45.0682C106.611 45.0682 106.339 44.9986 106.111 44.8594C105.883 44.7188 105.708 44.5227 105.584 44.2713C105.462 44.0185 105.401 43.7244 105.401 43.3892C105.401 43.054 105.462 42.7585 105.584 42.5028C105.708 42.2457 105.88 42.0455 106.1 41.902C106.322 41.7571 106.58 41.6847 106.875 41.6847C107.046 41.6847 107.214 41.7131 107.38 41.7699C107.547 41.8267 107.698 41.919 107.834 42.0469C107.971 42.1733 108.079 42.3409 108.16 42.5497C108.241 42.7585 108.282 43.0156 108.282 43.321V43.5341H105.759V43.0994H107.77C107.77 42.9148 107.733 42.75 107.66 42.6051C107.587 42.4602 107.483 42.3459 107.348 42.2621C107.215 42.1783 107.057 42.1364 106.875 42.1364C106.675 42.1364 106.502 42.1861 106.356 42.2855C106.211 42.3835 106.099 42.5114 106.021 42.669C105.943 42.8267 105.904 42.9957 105.904 43.1761V43.4659C105.904 43.7131 105.947 43.9226 106.032 44.0945C106.118 44.2649 106.238 44.3949 106.392 44.4844C106.545 44.5724 106.723 44.6165 106.927 44.6165C107.059 44.6165 107.178 44.598 107.285 44.5611C107.393 44.5227 107.486 44.4659 107.564 44.3906C107.642 44.3139 107.702 44.2187 107.745 44.1051L108.231 44.2415C108.179 44.4062 108.094 44.5511 107.973 44.6761C107.852 44.7997 107.703 44.8963 107.525 44.9659C107.348 45.0341 107.148 45.0682 106.927 45.0682ZM111.365 42.4602L110.913 42.5881C110.885 42.5128 110.843 42.4396 110.787 42.3686C110.733 42.2962 110.66 42.2365 110.566 42.1896C110.472 42.1428 110.352 42.1193 110.206 42.1193C110.005 42.1193 109.839 42.1655 109.705 42.2578C109.573 42.3487 109.507 42.4645 109.507 42.6051C109.507 42.7301 109.552 42.8288 109.643 42.9013C109.734 42.9737 109.876 43.0341 110.069 43.0824L110.555 43.2017C110.848 43.2727 111.066 43.3814 111.209 43.5277C111.353 43.6726 111.424 43.8594 111.424 44.0881C111.424 44.2756 111.371 44.4432 111.263 44.5909C111.156 44.7386 111.007 44.8551 110.815 44.9403C110.623 45.0256 110.4 45.0682 110.146 45.0682C109.812 45.0682 109.536 44.9957 109.317 44.8509C109.098 44.706 108.96 44.4943 108.902 44.2159L109.379 44.0966C109.424 44.2727 109.51 44.4048 109.637 44.4929C109.765 44.581 109.932 44.625 110.138 44.625C110.372 44.625 110.558 44.5753 110.696 44.4759C110.835 44.375 110.905 44.2543 110.905 44.1136C110.905 44 110.865 43.9048 110.785 43.8281C110.706 43.75 110.584 43.6918 110.419 43.6534L109.873 43.5256C109.574 43.4545 109.353 43.3445 109.213 43.1953C109.074 43.0447 109.004 42.8565 109.004 42.6307C109.004 42.446 109.056 42.2827 109.16 42.1406C109.265 41.9986 109.407 41.8871 109.588 41.8061C109.77 41.7251 109.976 41.6847 110.206 41.6847C110.53 41.6847 110.784 41.7557 110.969 41.8977C111.155 42.0398 111.287 42.2273 111.365 42.4602ZM114.5 42.4602L114.048 42.5881C114.019 42.5128 113.978 42.4396 113.922 42.3686C113.868 42.2962 113.794 42.2365 113.701 42.1896C113.607 42.1428 113.487 42.1193 113.341 42.1193C113.14 42.1193 112.973 42.1655 112.84 42.2578C112.708 42.3487 112.642 42.4645 112.642 42.6051C112.642 42.7301 112.687 42.8288 112.778 42.9013C112.869 42.9737 113.011 43.0341 113.204 43.0824L113.69 43.2017C113.983 43.2727 114.201 43.3814 114.344 43.5277C114.488 43.6726 114.559 43.8594 114.559 44.0881C114.559 44.2756 114.505 44.4432 114.397 44.5909C114.291 44.7386 114.142 44.8551 113.95 44.9403C113.758 45.0256 113.535 45.0682 113.281 45.0682C112.947 45.0682 112.671 44.9957 112.452 44.8509C112.233 44.706 112.095 44.4943 112.037 44.2159L112.514 44.0966C112.559 44.2727 112.645 44.4048 112.772 44.4929C112.899 44.581 113.066 44.625 113.272 44.625C113.507 44.625 113.693 44.5753 113.831 44.4759C113.97 44.375 114.039 44.2543 114.039 44.1136C114.039 44 114 43.9048 113.92 43.8281C113.841 43.75 113.718 43.6918 113.554 43.6534L113.008 43.5256C112.708 43.4545 112.488 43.3445 112.348 43.1953C112.208 43.0447 112.139 42.8565 112.139 42.6307C112.139 42.446 112.191 42.2827 112.294 42.1406C112.399 41.9986 112.542 41.8871 112.723 41.8061C112.904 41.7251 113.11 41.6847 113.341 41.6847C113.664 41.6847 113.919 41.7557 114.103 41.8977C114.289 42.0398 114.421 42.2273 114.5 42.4602ZM116.066 44.4034L116.032 44.6335C116.008 44.7955 115.971 44.9688 115.921 45.1534C115.873 45.3381 115.823 45.5121 115.77 45.6754C115.717 45.8388 115.674 45.9688 115.64 46.0653H115.257C115.275 45.9744 115.299 45.8544 115.329 45.7053C115.359 45.5561 115.389 45.3892 115.418 45.2045C115.45 45.0213 115.475 44.8338 115.495 44.642L115.521 44.4034H116.066ZM118.685 45V41.7273H119.171V42.2216H119.205C119.265 42.0597 119.373 41.9283 119.529 41.8274C119.685 41.7266 119.861 41.6761 120.057 41.6761C120.094 41.6761 120.141 41.6768 120.196 41.6783C120.251 41.6797 120.293 41.6818 120.322 41.6847V42.196C120.305 42.1918 120.266 42.1854 120.205 42.1768C120.145 42.1669 120.082 42.1619 120.015 42.1619C119.856 42.1619 119.714 42.1953 119.589 42.2621C119.465 42.3274 119.367 42.4183 119.295 42.5348C119.224 42.6499 119.188 42.7812 119.188 42.929V45H118.685ZM122.19 45.0682C121.875 45.0682 121.603 44.9986 121.374 44.8594C121.147 44.7188 120.972 44.5227 120.848 44.2713C120.726 44.0185 120.665 43.7244 120.665 43.3892C120.665 43.054 120.726 42.7585 120.848 42.5028C120.972 42.2457 121.143 42.0455 121.364 41.902C121.585 41.7571 121.844 41.6847 122.139 41.6847C122.31 41.6847 122.478 41.7131 122.644 41.7699C122.81 41.8267 122.962 41.919 123.098 42.0469C123.234 42.1733 123.343 42.3409 123.424 42.5497C123.505 42.7585 123.545 43.0156 123.545 43.321V43.5341H121.023V43.0994H123.034C123.034 42.9148 122.997 42.75 122.923 42.6051C122.851 42.4602 122.747 42.3459 122.612 42.2621C122.479 42.1783 122.321 42.1364 122.139 42.1364C121.939 42.1364 121.766 42.1861 121.619 42.2855C121.474 42.3835 121.363 42.5114 121.285 42.669C121.207 42.8267 121.168 42.9957 121.168 43.1761V43.4659C121.168 43.7131 121.21 43.9226 121.295 44.0945C121.382 44.2649 121.502 44.3949 121.655 44.4844C121.809 44.5724 121.987 44.6165 122.19 44.6165C122.322 44.6165 122.442 44.598 122.548 44.5611C122.656 44.5227 122.749 44.4659 122.827 44.3906C122.905 44.3139 122.966 44.2187 123.008 44.1051L123.494 44.2415C123.443 44.4062 123.357 44.5511 123.236 44.6761C123.116 44.7997 122.967 44.8963 122.789 44.9659C122.611 45.0341 122.412 45.0682 122.19 45.0682ZM124.813 43.0312V45H124.31V41.7273H124.796V42.2386H124.839C124.915 42.0724 125.032 41.9389 125.188 41.8381C125.344 41.7358 125.546 41.6847 125.793 41.6847C126.015 41.6847 126.209 41.7301 126.375 41.821C126.541 41.9105 126.67 42.0469 126.763 42.2301C126.855 42.4119 126.901 42.642 126.901 42.9205V45H126.398V42.9545C126.398 42.6974 126.332 42.4972 126.198 42.3537C126.065 42.2088 125.881 42.1364 125.648 42.1364C125.488 42.1364 125.344 42.1712 125.218 42.2408C125.093 42.3104 124.994 42.4119 124.922 42.5455C124.849 42.679 124.813 42.8409 124.813 43.0312ZM128.783 45.0767C128.576 45.0767 128.388 45.0376 128.219 44.9595C128.049 44.88 127.915 44.7656 127.816 44.6165C127.716 44.4659 127.667 44.2841 127.667 44.071C127.667 43.8835 127.704 43.7315 127.777 43.6151C127.851 43.4972 127.95 43.4048 128.074 43.3381C128.197 43.2713 128.334 43.2216 128.483 43.1889C128.633 43.1548 128.785 43.1278 128.937 43.108C129.135 43.0824 129.297 43.0632 129.42 43.0504C129.545 43.0362 129.636 43.0128 129.693 42.9801C129.751 42.9474 129.78 42.8906 129.78 42.8097V42.7926C129.78 42.5824 129.723 42.419 129.608 42.3026C129.494 42.1861 129.322 42.1278 129.09 42.1278C128.85 42.1278 128.662 42.1804 128.525 42.2855C128.389 42.3906 128.293 42.5028 128.238 42.6222L127.76 42.4517C127.846 42.2528 127.959 42.098 128.101 41.9872C128.245 41.875 128.401 41.7969 128.57 41.7528C128.741 41.7074 128.908 41.6847 129.073 41.6847C129.178 41.6847 129.299 41.6974 129.435 41.723C129.573 41.7472 129.706 41.7976 129.834 41.8743C129.963 41.951 130.07 42.0668 130.155 42.2216C130.241 42.3764 130.283 42.5838 130.283 42.8438V45H129.78V44.5568H129.755C129.721 44.6278 129.664 44.7038 129.584 44.7848C129.505 44.8658 129.399 44.9347 129.267 44.9915C129.135 45.0483 128.973 45.0767 128.783 45.0767ZM128.86 44.625C129.059 44.625 129.226 44.5859 129.363 44.5078C129.5 44.4297 129.604 44.3288 129.674 44.2053C129.745 44.0817 129.78 43.9517 129.78 43.8153V43.3551C129.759 43.3807 129.712 43.4041 129.64 43.4254C129.569 43.4453 129.486 43.4631 129.393 43.4787C129.3 43.4929 129.21 43.5057 129.122 43.517C129.035 43.527 128.965 43.5355 128.911 43.5426C128.78 43.5597 128.658 43.5874 128.545 43.6257C128.432 43.6626 128.341 43.7187 128.272 43.794C128.204 43.8679 128.17 43.9687 128.17 44.0966C128.17 44.2713 128.234 44.4034 128.363 44.4929C128.494 44.581 128.66 44.625 128.86 44.625ZM131.201 45V41.7273H131.687V42.2386H131.729C131.798 42.0639 131.908 41.9283 132.06 41.8317C132.212 41.7337 132.394 41.6847 132.607 41.6847C132.823 41.6847 133.003 41.7337 133.146 41.8317C133.291 41.9283 133.404 42.0639 133.485 42.2386H133.519C133.603 42.0696 133.729 41.9354 133.896 41.8359C134.064 41.7351 134.265 41.6847 134.499 41.6847C134.792 41.6847 135.031 41.7763 135.217 41.9595C135.403 42.1413 135.496 42.4247 135.496 42.8097V45H134.994V42.8097C134.994 42.5682 134.928 42.3956 134.795 42.2919C134.663 42.1882 134.508 42.1364 134.329 42.1364C134.099 42.1364 133.92 42.206 133.794 42.3452C133.668 42.483 133.604 42.6577 133.604 42.8693V45H133.093V42.7585C133.093 42.5724 133.033 42.4226 132.912 42.3089C132.791 42.1939 132.636 42.1364 132.445 42.1364C132.315 42.1364 132.192 42.1712 132.079 42.2408C131.967 42.3104 131.876 42.407 131.806 42.5305C131.738 42.6527 131.704 42.794 131.704 42.9545V45H131.201ZM137.788 45.0682C137.473 45.0682 137.201 44.9986 136.972 44.8594C136.745 44.7188 136.569 44.5227 136.446 44.2713C136.323 44.0185 136.262 43.7244 136.262 43.3892C136.262 43.054 136.323 42.7585 136.446 42.5028C136.569 42.2457 136.741 42.0455 136.961 41.902C137.183 41.7571 137.441 41.6847 137.737 41.6847C137.907 41.6847 138.076 41.7131 138.242 41.7699C138.408 41.8267 138.559 41.919 138.696 42.0469C138.832 42.1733 138.941 42.3409 139.022 42.5497C139.103 42.7585 139.143 43.0156 139.143 43.321V43.5341H136.62V43.0994H138.632C138.632 42.9148 138.595 42.75 138.521 42.6051C138.448 42.4602 138.345 42.3459 138.21 42.2621C138.076 42.1783 137.919 42.1364 137.737 42.1364C137.537 42.1364 137.363 42.1861 137.217 42.2855C137.072 42.3835 136.961 42.5114 136.882 42.669C136.804 42.8267 136.765 42.9957 136.765 43.1761V43.4659C136.765 43.7131 136.808 43.9226 136.893 44.0945C136.98 44.2649 137.1 44.3949 137.253 44.4844C137.407 44.5724 137.585 44.6165 137.788 44.6165C137.92 44.6165 138.039 44.598 138.146 44.5611C138.254 44.5227 138.347 44.4659 138.425 44.3906C138.503 44.3139 138.564 44.2187 138.606 44.1051L139.092 44.2415C139.041 44.4062 138.955 44.5511 138.834 44.6761C138.713 44.7997 138.564 44.8963 138.387 44.9659C138.209 45.0341 138.01 45.0682 137.788 45.0682ZM142.559 45.0767C142.351 45.0767 142.163 45.0376 141.994 44.9595C141.825 44.88 141.691 44.7656 141.591 44.6165C141.492 44.4659 141.442 44.2841 141.442 44.071C141.442 43.8835 141.479 43.7315 141.553 43.6151C141.627 43.4972 141.725 43.4048 141.849 43.3381C141.973 43.2713 142.109 43.2216 142.258 43.1889C142.409 43.1548 142.56 43.1278 142.712 43.108C142.911 43.0824 143.072 43.0632 143.196 43.0504C143.321 43.0362 143.412 43.0128 143.468 42.9801C143.527 42.9474 143.556 42.8906 143.556 42.8097V42.7926C143.556 42.5824 143.498 42.419 143.383 42.3026C143.269 42.1861 143.097 42.1278 142.865 42.1278C142.625 42.1278 142.437 42.1804 142.301 42.2855C142.164 42.3906 142.068 42.5028 142.013 42.6222L141.536 42.4517C141.621 42.2528 141.735 42.098 141.877 41.9872C142.02 41.875 142.176 41.7969 142.345 41.7528C142.516 41.7074 142.684 41.6847 142.848 41.6847C142.953 41.6847 143.074 41.6974 143.211 41.723C143.348 41.7472 143.481 41.7976 143.609 41.8743C143.738 41.951 143.845 42.0668 143.931 42.2216C144.016 42.3764 144.059 42.5838 144.059 42.8438V45H143.556V44.5568H143.53C143.496 44.6278 143.439 44.7038 143.36 44.7848C143.28 44.8658 143.174 44.9347 143.042 44.9915C142.91 45.0483 142.749 45.0767 142.559 45.0767ZM142.635 44.625C142.834 44.625 143.002 44.5859 143.138 44.5078C143.276 44.4297 143.38 44.3288 143.449 44.2053C143.52 44.0817 143.556 43.9517 143.556 43.8153V43.3551C143.534 43.3807 143.488 43.4041 143.415 43.4254C143.344 43.4453 143.262 43.4631 143.168 43.4787C143.076 43.4929 142.985 43.5057 142.897 43.517C142.811 43.527 142.74 43.5355 142.686 43.5426C142.556 43.5597 142.434 43.5874 142.32 43.6257C142.208 43.6626 142.117 43.7187 142.047 43.794C141.979 43.8679 141.945 43.9687 141.945 44.0966C141.945 44.2713 142.01 44.4034 142.139 44.4929C142.269 44.581 142.435 44.625 142.635 44.625ZM145.479 43.0312V45H144.976V41.7273H145.462V42.2386H145.505C145.581 42.0724 145.698 41.9389 145.854 41.8381C146.01 41.7358 146.212 41.6847 146.459 41.6847C146.681 41.6847 146.875 41.7301 147.041 41.821C147.207 41.9105 147.336 42.0469 147.429 42.2301C147.521 42.4119 147.567 42.642 147.567 42.9205V45H147.064V42.9545C147.064 42.6974 146.998 42.4972 146.864 42.3537C146.731 42.2088 146.547 42.1364 146.314 42.1364C146.154 42.1364 146.01 42.1712 145.884 42.2408C145.759 42.3104 145.66 42.4119 145.588 42.5455C145.515 42.679 145.479 42.8409 145.479 43.0312ZM149.722 45.0682C149.449 45.0682 149.208 44.9993 149 44.8615C148.791 44.7223 148.627 44.5263 148.51 44.2734C148.392 44.0192 148.333 43.7188 148.333 43.3722C148.333 43.0284 148.392 42.7301 148.51 42.4773C148.627 42.2244 148.792 42.0291 149.002 41.8913C149.212 41.7536 149.455 41.6847 149.73 41.6847C149.943 41.6847 150.112 41.7202 150.235 41.7912C150.36 41.8608 150.456 41.9403 150.521 42.0298C150.588 42.1179 150.64 42.1903 150.676 42.2472H150.719V40.6364H151.222V45H150.736V44.4972H150.676C150.64 44.5568 150.587 44.6321 150.519 44.723C150.451 44.8125 150.353 44.8928 150.227 44.9638C150.1 45.0334 149.932 45.0682 149.722 45.0682ZM149.79 44.6165C149.992 44.6165 150.162 44.5639 150.301 44.4588C150.441 44.3523 150.546 44.2053 150.619 44.0178C150.691 43.8288 150.728 43.6108 150.728 43.3636C150.728 43.1193 150.692 42.9055 150.621 42.7223C150.55 42.5376 150.445 42.3942 150.306 42.2919C150.167 42.1882 149.995 42.1364 149.79 42.1364C149.577 42.1364 149.399 42.1911 149.257 42.3004C149.117 42.4084 149.011 42.5554 148.94 42.7415C148.87 42.9261 148.836 43.1335 148.836 43.3636C148.836 43.5966 148.871 43.8082 148.942 43.9986C149.015 44.1875 149.121 44.3381 149.262 44.4503C149.404 44.5611 149.58 44.6165 149.79 44.6165ZM156.218 42.4602L155.767 42.5881C155.738 42.5128 155.696 42.4396 155.641 42.3686C155.587 42.2962 155.513 42.2365 155.419 42.1896C155.326 42.1428 155.206 42.1193 155.059 42.1193C154.859 42.1193 154.692 42.1655 154.559 42.2578C154.426 42.3487 154.36 42.4645 154.36 42.6051C154.36 42.7301 154.406 42.8288 154.497 42.9013C154.588 42.9737 154.73 43.0341 154.923 43.0824L155.409 43.2017C155.701 43.2727 155.919 43.3814 156.063 43.5277C156.206 43.6726 156.278 43.8594 156.278 44.0881C156.278 44.2756 156.224 44.4432 156.116 44.5909C156.01 44.7386 155.86 44.8551 155.669 44.9403C155.477 45.0256 155.254 45.0682 155 45.0682C154.666 45.0682 154.39 44.9957 154.171 44.8509C153.952 44.706 153.814 44.4943 153.755 44.2159L154.233 44.0966C154.278 44.2727 154.364 44.4048 154.49 44.4929C154.618 44.581 154.785 44.625 154.991 44.625C155.225 44.625 155.412 44.5753 155.549 44.4759C155.689 44.375 155.758 44.2543 155.758 44.1136C155.758 44 155.718 43.9048 155.639 43.8281C155.559 43.75 155.437 43.6918 155.272 43.6534L154.727 43.5256C154.427 43.4545 154.207 43.3445 154.066 43.1953C153.927 43.0447 153.858 42.8565 153.858 42.6307C153.858 42.446 153.909 42.2827 154.013 42.1406C154.118 41.9986 154.261 41.8871 154.441 41.8061C154.623 41.7251 154.829 41.6847 155.059 41.6847C155.383 41.6847 155.637 41.7557 155.822 41.8977C156.008 42.0398 156.14 42.2273 156.218 42.4602ZM158.458 41.7273V42.1534H156.762V41.7273H158.458ZM157.257 40.9432H157.759V44.0625C157.759 44.2045 157.78 44.3111 157.821 44.3821C157.864 44.4517 157.918 44.4986 157.983 44.5227C158.05 44.5455 158.12 44.5568 158.194 44.5568C158.249 44.5568 158.295 44.554 158.33 44.5483C158.366 44.5412 158.394 44.5355 158.416 44.5312L158.518 44.983C158.484 44.9957 158.436 45.0085 158.375 45.0213C158.314 45.0355 158.237 45.0426 158.143 45.0426C158.001 45.0426 157.862 45.0121 157.725 44.951C157.59 44.8899 157.478 44.7969 157.389 44.6719C157.301 44.5469 157.257 44.3892 157.257 44.1989V40.9432ZM160.509 45.0682C160.214 45.0682 159.954 44.9979 159.731 44.8572C159.51 44.7166 159.336 44.5199 159.211 44.267C159.088 44.0142 159.026 43.7187 159.026 43.3807C159.026 43.0398 159.088 42.7422 159.211 42.4879C159.336 42.2337 159.51 42.0362 159.731 41.8956C159.954 41.755 160.214 41.6847 160.509 41.6847C160.804 41.6847 161.063 41.755 161.285 41.8956C161.508 42.0362 161.681 42.2337 161.804 42.4879C161.929 42.7422 161.992 43.0398 161.992 43.3807C161.992 43.7187 161.929 44.0142 161.804 44.267C161.681 44.5199 161.508 44.7166 161.285 44.8572C161.063 44.9979 160.804 45.0682 160.509 45.0682ZM160.509 44.6165C160.733 44.6165 160.918 44.5589 161.063 44.4439C161.208 44.3288 161.315 44.1776 161.385 43.9901C161.454 43.8026 161.489 43.5994 161.489 43.3807C161.489 43.1619 161.454 42.9581 161.385 42.7692C161.315 42.5803 161.208 42.4276 161.063 42.3111C160.918 42.1946 160.733 42.1364 160.509 42.1364C160.285 42.1364 160.1 42.1946 159.955 42.3111C159.81 42.4276 159.703 42.5803 159.633 42.7692C159.564 42.9581 159.529 43.1619 159.529 43.3807C159.529 43.5994 159.564 43.8026 159.633 43.9901C159.703 44.1776 159.81 44.3288 159.955 44.4439C160.1 44.5589 160.285 44.6165 160.509 44.6165ZM162.76 45V41.7273H163.245V42.2216H163.279C163.339 42.0597 163.447 41.9283 163.603 41.8274C163.76 41.7266 163.936 41.6761 164.132 41.6761C164.169 41.6761 164.215 41.6768 164.27 41.6783C164.326 41.6797 164.367 41.6818 164.396 41.6847V42.196C164.379 42.1918 164.34 42.1854 164.279 42.1768C164.219 42.1669 164.156 42.1619 164.089 42.1619C163.93 42.1619 163.788 42.1953 163.663 42.2621C163.539 42.3274 163.441 42.4183 163.369 42.5348C163.298 42.6499 163.262 42.7812 163.262 42.929V45H162.76ZM166.265 45.0682C165.949 45.0682 165.677 44.9986 165.448 44.8594C165.221 44.7188 165.046 44.5227 164.922 44.2713C164.8 44.0185 164.739 43.7244 164.739 43.3892C164.739 43.054 164.8 42.7585 164.922 42.5028C165.046 42.2457 165.218 42.0455 165.438 41.902C165.659 41.7571 165.918 41.6847 166.213 41.6847C166.384 41.6847 166.552 41.7131 166.718 41.7699C166.885 41.8267 167.036 41.919 167.172 42.0469C167.309 42.1733 167.417 42.3409 167.498 42.5497C167.579 42.7585 167.62 43.0156 167.62 43.321V43.5341H165.097V43.0994H167.108C167.108 42.9148 167.071 42.75 166.997 42.6051C166.925 42.4602 166.821 42.3459 166.686 42.2621C166.553 42.1783 166.395 42.1364 166.213 42.1364C166.013 42.1364 165.84 42.1861 165.693 42.2855C165.549 42.3835 165.437 42.5114 165.359 42.669C165.281 42.8267 165.242 42.9957 165.242 43.1761V43.4659C165.242 43.7131 165.284 43.9226 165.37 44.0945C165.456 44.2649 165.576 44.3949 165.73 44.4844C165.883 44.5724 166.061 44.6165 166.265 44.6165C166.397 44.6165 166.516 44.598 166.622 44.5611C166.73 44.5227 166.823 44.4659 166.902 44.3906C166.98 44.3139 167.04 44.2187 167.083 44.1051L167.568 44.2415C167.517 44.4062 167.431 44.5511 167.311 44.6761C167.19 44.7997 167.041 44.8963 166.863 44.9659C166.686 45.0341 166.486 45.0682 166.265 45.0682ZM171.529 41.7273V42.1534H169.765V41.7273H171.529ZM170.294 45V41.2756C170.294 41.0881 170.338 40.9318 170.426 40.8068C170.514 40.6818 170.628 40.5881 170.769 40.5256C170.909 40.4631 171.058 40.4318 171.214 40.4318C171.338 40.4318 171.439 40.4418 171.517 40.4616C171.595 40.4815 171.653 40.5 171.691 40.517L171.546 40.9517C171.521 40.9432 171.485 40.9325 171.44 40.9197C171.396 40.907 171.338 40.9006 171.265 40.9006C171.099 40.9006 170.979 40.9425 170.905 41.0263C170.833 41.1101 170.796 41.233 170.796 41.3949V45H170.294ZM172.234 45V41.7273H172.737V45H172.234ZM172.49 41.1818C172.392 41.1818 172.307 41.1484 172.236 41.0817C172.167 41.0149 172.132 40.9347 172.132 40.8409C172.132 40.7472 172.167 40.6669 172.236 40.6001C172.307 40.5334 172.392 40.5 172.49 40.5C172.588 40.5 172.672 40.5334 172.741 40.6001C172.812 40.6669 172.848 40.7472 172.848 40.8409C172.848 40.9347 172.812 41.0149 172.741 41.0817C172.672 41.1484 172.588 41.1818 172.49 41.1818ZM174.161 40.6364V45H173.658V40.6364H174.161ZM176.454 45.0682C176.139 45.0682 175.867 44.9986 175.638 44.8594C175.411 44.7188 175.235 44.5227 175.112 44.2713C174.989 44.0185 174.928 43.7244 174.928 43.3892C174.928 43.054 174.989 42.7585 175.112 42.5028C175.235 42.2457 175.407 42.0455 175.627 41.902C175.849 41.7571 176.107 41.6847 176.403 41.6847C176.573 41.6847 176.742 41.7131 176.908 41.7699C177.074 41.8267 177.225 41.919 177.362 42.0469C177.498 42.1733 177.607 42.3409 177.688 42.5497C177.769 42.7585 177.809 43.0156 177.809 43.321V43.5341H175.286V43.0994H177.298C177.298 42.9148 177.261 42.75 177.187 42.6051C177.114 42.4602 177.011 42.3459 176.876 42.2621C176.742 42.1783 176.585 42.1364 176.403 42.1364C176.203 42.1364 176.029 42.1861 175.883 42.2855C175.738 42.3835 175.627 42.5114 175.548 42.669C175.47 42.8267 175.431 42.9957 175.431 43.1761V43.4659C175.431 43.7131 175.474 43.9226 175.559 44.0945C175.646 44.2649 175.766 44.3949 175.919 44.4844C176.073 44.5724 176.251 44.6165 176.454 44.6165C176.586 44.6165 176.705 44.598 176.812 44.5611C176.92 44.5227 177.013 44.4659 177.091 44.3906C177.169 44.3139 177.23 44.2187 177.272 44.1051L177.758 44.2415C177.707 44.4062 177.621 44.5511 177.5 44.6761C177.379 44.7997 177.23 44.8963 177.053 44.9659C176.875 45.0341 176.676 45.0682 176.454 45.0682ZM180.892 42.4602L180.44 42.5881C180.412 42.5128 180.37 42.4396 180.315 42.3686C180.261 42.2962 180.187 42.2365 180.093 42.1896C179.999 42.1428 179.879 42.1193 179.733 42.1193C179.533 42.1193 179.366 42.1655 179.232 42.2578C179.1 42.3487 179.034 42.4645 179.034 42.6051C179.034 42.7301 179.08 42.8288 179.171 42.9013C179.261 42.9737 179.404 43.0341 179.597 43.0824L180.083 43.2017C180.375 43.2727 180.593 43.3814 180.737 43.5277C180.88 43.6726 180.952 43.8594 180.952 44.0881C180.952 44.2756 180.898 44.4432 180.79 44.5909C180.683 44.7386 180.534 44.8551 180.342 44.9403C180.151 45.0256 179.928 45.0682 179.673 45.0682C179.34 45.0682 179.063 44.9957 178.845 44.8509C178.626 44.706 178.487 44.4943 178.429 44.2159L178.906 44.0966C178.952 44.2727 179.038 44.4048 179.164 44.4929C179.292 44.581 179.459 44.625 179.665 44.625C179.899 44.625 180.085 44.5753 180.223 44.4759C180.362 44.375 180.432 44.2543 180.432 44.1136C180.432 44 180.392 43.9048 180.313 43.8281C180.233 43.75 180.111 43.6918 179.946 43.6534L179.401 43.5256C179.101 43.4545 178.881 43.3445 178.74 43.1953C178.601 43.0447 178.531 42.8565 178.531 42.6307C178.531 42.446 178.583 42.2827 178.687 42.1406C178.792 41.9986 178.935 41.8871 179.115 41.8061C179.297 41.7251 179.503 41.6847 179.733 41.6847C180.057 41.6847 180.311 41.7557 180.496 41.8977C180.682 42.0398 180.814 42.2273 180.892 42.4602ZM183.396 45V41.7273H183.899V45H183.396ZM183.652 41.1818C183.554 41.1818 183.469 41.1484 183.398 41.0817C183.329 41.0149 183.294 40.9347 183.294 40.8409C183.294 40.7472 183.329 40.6669 183.398 40.6001C183.469 40.5334 183.554 40.5 183.652 40.5C183.75 40.5 183.834 40.5334 183.903 40.6001C183.974 40.6669 184.01 40.7472 184.01 40.8409C184.01 40.9347 183.974 41.0149 183.903 41.0817C183.834 41.1484 183.75 41.1818 183.652 41.1818ZM185.323 43.0312V45H184.82V41.7273H185.306V42.2386H185.348C185.425 42.0724 185.542 41.9389 185.698 41.8381C185.854 41.7358 186.056 41.6847 186.303 41.6847C186.525 41.6847 186.719 41.7301 186.885 41.821C187.051 41.9105 187.18 42.0469 187.273 42.2301C187.365 42.4119 187.411 42.642 187.411 42.9205V45H186.908V42.9545C186.908 42.6974 186.841 42.4972 186.708 42.3537C186.574 42.2088 186.391 42.1364 186.158 42.1364C185.998 42.1364 185.854 42.1712 185.728 42.2408C185.603 42.3104 185.504 42.4119 185.432 42.5455C185.359 42.679 185.323 42.8409 185.323 43.0312ZM190.017 46.2273V41.7273H190.503V42.2472H190.563C190.6 42.1903 190.651 42.1179 190.716 42.0298C190.783 41.9403 190.878 41.8608 191.002 41.7912C191.127 41.7202 191.296 41.6847 191.509 41.6847C191.784 41.6847 192.027 41.7536 192.238 41.8913C192.448 42.0291 192.612 42.2244 192.73 42.4773C192.848 42.7301 192.907 43.0284 192.907 43.3722C192.907 43.7188 192.848 44.0192 192.73 44.2734C192.612 44.5263 192.448 44.7223 192.24 44.8615C192.031 44.9993 191.79 45.0682 191.517 45.0682C191.307 45.0682 191.139 45.0334 191.012 44.9638C190.886 44.8928 190.789 44.8125 190.72 44.723C190.652 44.6321 190.6 44.5568 190.563 44.4972H190.52V46.2273H190.017ZM190.512 43.3636C190.512 43.6108 190.548 43.8288 190.62 44.0178C190.693 44.2053 190.799 44.3523 190.938 44.4588C191.077 44.5639 191.247 44.6165 191.449 44.6165C191.659 44.6165 191.835 44.5611 191.975 44.4503C192.117 44.3381 192.224 44.1875 192.295 43.9986C192.367 43.8082 192.404 43.5966 192.404 43.3636C192.404 43.1335 192.368 42.9261 192.297 42.7415C192.228 42.5554 192.122 42.4084 191.98 42.3004C191.839 42.1911 191.662 42.1364 191.449 42.1364C191.245 42.1364 191.073 42.1882 190.934 42.2919C190.794 42.3942 190.689 42.5376 190.618 42.7223C190.547 42.9055 190.512 43.1193 190.512 43.3636ZM193.674 45V41.7273H194.159V42.2216H194.193C194.253 42.0597 194.361 41.9283 194.517 41.8274C194.674 41.7266 194.85 41.6761 195.046 41.6761C195.083 41.6761 195.129 41.6768 195.184 41.6783C195.24 41.6797 195.282 41.6818 195.31 41.6847V42.196C195.293 42.1918 195.254 42.1854 195.193 42.1768C195.133 42.1669 195.07 42.1619 195.003 42.1619C194.844 42.1619 194.702 42.1953 194.577 42.2621C194.453 42.3274 194.355 42.4183 194.283 42.5348C194.212 42.6499 194.176 42.7812 194.176 42.929V45H193.674ZM197.179 45.0682C196.863 45.0682 196.591 44.9986 196.363 44.8594C196.135 44.7188 195.96 44.5227 195.836 44.2713C195.714 44.0185 195.653 43.7244 195.653 43.3892C195.653 43.054 195.714 42.7585 195.836 42.5028C195.96 42.2457 196.132 42.0455 196.352 41.902C196.573 41.7571 196.832 41.6847 197.127 41.6847C197.298 41.6847 197.466 41.7131 197.632 41.7699C197.799 41.8267 197.95 41.919 198.086 42.0469C198.223 42.1733 198.331 42.3409 198.412 42.5497C198.493 42.7585 198.534 43.0156 198.534 43.321V43.5341H196.011V43.0994H198.022C198.022 42.9148 197.985 42.75 197.912 42.6051C197.839 42.4602 197.735 42.3459 197.6 42.2621C197.467 42.1783 197.309 42.1364 197.127 42.1364C196.927 42.1364 196.754 42.1861 196.608 42.2855C196.463 42.3835 196.351 42.5114 196.273 42.669C196.195 42.8267 196.156 42.9957 196.156 43.1761V43.4659C196.156 43.7131 196.198 43.9226 196.284 44.0945C196.37 44.2649 196.49 44.3949 196.644 44.4844C196.797 44.5724 196.975 44.6165 197.179 44.6165C197.311 44.6165 197.43 44.598 197.537 44.5611C197.644 44.5227 197.738 44.4659 197.816 44.3906C197.894 44.3139 197.954 44.2187 197.997 44.1051L198.483 44.2415C198.431 44.4062 198.345 44.5511 198.225 44.6761C198.104 44.7997 197.955 44.8963 197.777 44.9659C197.6 45.0341 197.4 45.0682 197.179 45.0682ZM201.617 42.4602L201.165 42.5881C201.137 42.5128 201.095 42.4396 201.039 42.3686C200.985 42.2962 200.912 42.2365 200.818 42.1896C200.724 42.1428 200.604 42.1193 200.458 42.1193C200.257 42.1193 200.091 42.1655 199.957 42.2578C199.825 42.3487 199.759 42.4645 199.759 42.6051C199.759 42.7301 199.804 42.8288 199.895 42.9013C199.986 42.9737 200.128 43.0341 200.321 43.0824L200.807 43.2017C201.1 43.2727 201.318 43.3814 201.461 43.5277C201.605 43.6726 201.676 43.8594 201.676 44.0881C201.676 44.2756 201.622 44.4432 201.515 44.5909C201.408 44.7386 201.259 44.8551 201.067 44.9403C200.875 45.0256 200.652 45.0682 200.398 45.0682C200.064 45.0682 199.788 44.9957 199.569 44.8509C199.35 44.706 199.212 44.4943 199.154 44.2159L199.631 44.0966C199.676 44.2727 199.762 44.4048 199.889 44.4929C200.017 44.581 200.184 44.625 200.39 44.625C200.624 44.625 200.81 44.5753 200.948 44.4759C201.087 44.375 201.157 44.2543 201.157 44.1136C201.157 44 201.117 43.9048 201.037 43.8281C200.958 43.75 200.836 43.6918 200.671 43.6534L200.125 43.5256C199.826 43.4545 199.605 43.3445 199.465 43.1953C199.326 43.0447 199.256 42.8565 199.256 42.6307C199.256 42.446 199.308 42.2827 199.412 42.1406C199.517 41.9986 199.659 41.8871 199.84 41.8061C200.022 41.7251 200.228 41.6847 200.458 41.6847C200.782 41.6847 201.036 41.7557 201.22 41.8977C201.407 42.0398 201.539 42.2273 201.617 42.4602ZM203.806 45.0682C203.49 45.0682 203.218 44.9986 202.989 44.8594C202.762 44.7188 202.587 44.5227 202.463 44.2713C202.341 44.0185 202.28 43.7244 202.28 43.3892C202.28 43.054 202.341 42.7585 202.463 42.5028C202.587 42.2457 202.759 42.0455 202.979 41.902C203.2 41.7571 203.459 41.6847 203.754 41.6847C203.925 41.6847 204.093 41.7131 204.259 41.7699C204.426 41.8267 204.577 41.919 204.713 42.0469C204.85 42.1733 204.958 42.3409 205.039 42.5497C205.12 42.7585 205.161 43.0156 205.161 43.321V43.5341H202.638V43.0994H204.649C204.649 42.9148 204.612 42.75 204.538 42.6051C204.466 42.4602 204.362 42.3459 204.227 42.2621C204.094 42.1783 203.936 42.1364 203.754 42.1364C203.554 42.1364 203.381 42.1861 203.235 42.2855C203.09 42.3835 202.978 42.5114 202.9 42.669C202.822 42.8267 202.783 42.9957 202.783 43.1761V43.4659C202.783 43.7131 202.825 43.9226 202.911 44.0945C202.997 44.2649 203.117 44.3949 203.271 44.4844C203.424 44.5724 203.602 44.6165 203.806 44.6165C203.938 44.6165 204.057 44.598 204.163 44.5611C204.271 44.5227 204.364 44.4659 204.443 44.3906C204.521 44.3139 204.581 44.2187 204.624 44.1051L205.11 44.2415C205.058 44.4062 204.972 44.5511 204.852 44.6761C204.731 44.7997 204.582 44.8963 204.404 44.9659C204.227 45.0341 204.027 45.0682 203.806 45.0682ZM207.349 41.7273V42.1534H205.653V41.7273H207.349ZM206.147 40.9432H206.65V44.0625C206.65 44.2045 206.671 44.3111 206.712 44.3821C206.754 44.4517 206.808 44.4986 206.874 44.5227C206.94 44.5455 207.011 44.5568 207.085 44.5568C207.14 44.5568 207.186 44.554 207.221 44.5483C207.257 44.5412 207.285 44.5355 207.306 44.5312L207.409 44.983C207.374 44.9957 207.327 45.0085 207.266 45.0213C207.205 45.0355 207.127 45.0426 207.034 45.0426C206.891 45.0426 206.752 45.0121 206.616 44.951C206.481 44.8899 206.369 44.7969 206.279 44.6719C206.191 44.5469 206.147 44.3892 206.147 44.1989V40.9432ZM210.296 40.6364V45H209.793V40.6364H210.296ZM212.546 45.0682C212.251 45.0682 211.991 44.9979 211.768 44.8572C211.547 44.7166 211.374 44.5199 211.249 44.267C211.125 44.0142 211.063 43.7187 211.063 43.3807C211.063 43.0398 211.125 42.7422 211.249 42.4879C211.374 42.2337 211.547 42.0362 211.768 41.8956C211.991 41.755 212.251 41.6847 212.546 41.6847C212.842 41.6847 213.1 41.755 213.322 41.8956C213.545 42.0362 213.718 42.2337 213.842 42.4879C213.967 42.7422 214.029 43.0398 214.029 43.3807C214.029 43.7187 213.967 44.0142 213.842 44.267C213.718 44.5199 213.545 44.7166 213.322 44.8572C213.1 44.9979 212.842 45.0682 212.546 45.0682ZM212.546 44.6165C212.771 44.6165 212.955 44.5589 213.1 44.4439C213.245 44.3288 213.352 44.1776 213.422 43.9901C213.491 43.8026 213.526 43.5994 213.526 43.3807C213.526 43.1619 213.491 42.9581 213.422 42.7692C213.352 42.5803 213.245 42.4276 213.1 42.3111C212.955 42.1946 212.771 42.1364 212.546 42.1364C212.322 42.1364 212.137 42.1946 211.992 42.3111C211.847 42.4276 211.74 42.5803 211.67 42.7692C211.601 42.9581 211.566 43.1619 211.566 43.3807C211.566 43.5994 211.601 43.8026 211.67 43.9901C211.74 44.1776 211.847 44.3288 211.992 44.4439C212.137 44.5589 212.322 44.6165 212.546 44.6165ZM216.126 45.0682C215.819 45.0682 215.555 44.9957 215.334 44.8509C215.112 44.706 214.942 44.5064 214.822 44.2521C214.703 43.9979 214.643 43.7074 214.643 43.3807C214.643 43.0483 214.704 42.755 214.826 42.5007C214.95 42.245 215.122 42.0455 215.342 41.902C215.564 41.7571 215.822 41.6847 216.118 41.6847C216.348 41.6847 216.555 41.7273 216.74 41.8125C216.924 41.8977 217.076 42.017 217.194 42.1705C217.312 42.3239 217.385 42.5028 217.413 42.7074H216.91C216.872 42.5582 216.787 42.4261 216.655 42.3111C216.524 42.1946 216.348 42.1364 216.126 42.1364C215.93 42.1364 215.758 42.1875 215.611 42.2898C215.464 42.3906 215.35 42.5334 215.268 42.718C215.187 42.9013 215.146 43.1165 215.146 43.3636C215.146 43.6165 215.186 43.8366 215.265 44.0241C215.346 44.2116 215.46 44.3572 215.606 44.4609C215.754 44.5646 215.927 44.6165 216.126 44.6165C216.257 44.6165 216.375 44.5938 216.482 44.5483C216.589 44.5028 216.679 44.4375 216.753 44.3523C216.826 44.267 216.879 44.1648 216.91 44.0455H217.413C217.385 44.2386 217.314 44.4126 217.202 44.5675C217.091 44.7209 216.944 44.843 216.761 44.9339C216.579 45.0234 216.368 45.0682 216.126 45.0682ZM219.111 45.0767C218.904 45.0767 218.716 45.0376 218.547 44.9595C218.378 44.88 218.243 44.7656 218.144 44.6165C218.045 44.4659 217.995 44.2841 217.995 44.071C217.995 43.8835 218.032 43.7315 218.106 43.6151C218.179 43.4972 218.278 43.4048 218.402 43.3381C218.525 43.2713 218.662 43.2216 218.811 43.1889C218.961 43.1548 219.113 43.1278 219.265 43.108C219.464 43.0824 219.625 43.0632 219.748 43.0504C219.873 43.0362 219.964 43.0128 220.021 42.9801C220.079 42.9474 220.108 42.8906 220.108 42.8097V42.7926C220.108 42.5824 220.051 42.419 219.936 42.3026C219.822 42.1861 219.65 42.1278 219.418 42.1278C219.178 42.1278 218.99 42.1804 218.853 42.2855C218.717 42.3906 218.621 42.5028 218.566 42.6222L218.089 42.4517C218.174 42.2528 218.287 42.098 218.429 41.9872C218.573 41.875 218.729 41.7969 218.898 41.7528C219.069 41.7074 219.236 41.6847 219.401 41.6847C219.506 41.6847 219.627 41.6974 219.763 41.723C219.901 41.7472 220.034 41.7976 220.162 41.8743C220.291 41.951 220.398 42.0668 220.483 42.2216C220.569 42.3764 220.611 42.5838 220.611 42.8438V45H220.108V44.5568H220.083C220.049 44.6278 219.992 44.7038 219.912 44.7848C219.833 44.8658 219.727 44.9347 219.595 44.9915C219.463 45.0483 219.302 45.0767 219.111 45.0767ZM219.188 44.625C219.387 44.625 219.554 44.5859 219.691 44.5078C219.829 44.4297 219.932 44.3288 220.002 44.2053C220.073 44.0817 220.108 43.9517 220.108 43.8153V43.3551C220.087 43.3807 220.04 43.4041 219.968 43.4254C219.897 43.4453 219.814 43.4631 219.721 43.4787C219.628 43.4929 219.538 43.5057 219.45 43.517C219.363 43.527 219.293 43.5355 219.239 43.5426C219.108 43.5597 218.986 43.5874 218.873 43.6257C218.76 43.6626 218.67 43.7187 218.6 43.794C218.532 43.8679 218.498 43.9687 218.498 44.0966C218.498 44.2713 218.562 44.4034 218.692 44.4929C218.822 44.581 218.988 44.625 219.188 44.625ZM222.952 41.7273V42.1534H221.256V41.7273H222.952ZM221.751 40.9432H222.254V44.0625C222.254 44.2045 222.274 44.3111 222.315 44.3821C222.358 44.4517 222.412 44.4986 222.477 44.5227C222.544 44.5455 222.614 44.5568 222.688 44.5568C222.744 44.5568 222.789 44.554 222.825 44.5483C222.86 44.5412 222.888 44.5355 222.91 44.5312L223.012 44.983C222.978 44.9957 222.93 45.0085 222.869 45.0213C222.808 45.0355 222.731 45.0426 222.637 45.0426C222.495 45.0426 222.356 45.0121 222.219 44.951C222.084 44.8899 221.972 44.7969 221.883 44.6719C221.795 44.5469 221.751 44.3892 221.751 44.1989V40.9432ZM223.709 45V41.7273H224.212V45H223.709ZM223.964 41.1818C223.866 41.1818 223.782 41.1484 223.711 41.0817C223.641 41.0149 223.606 40.9347 223.606 40.8409C223.606 40.7472 223.641 40.6669 223.711 40.6001C223.782 40.5334 223.866 40.5 223.964 40.5C224.062 40.5 224.146 40.5334 224.216 40.6001C224.287 40.6669 224.322 40.7472 224.322 40.8409C224.322 40.9347 224.287 41.0149 224.216 41.0817C224.146 41.1484 224.062 41.1818 223.964 41.1818ZM226.462 45.0682C226.167 45.0682 225.907 44.9979 225.684 44.8572C225.463 44.7166 225.29 44.5199 225.165 44.267C225.041 44.0142 224.979 43.7187 224.979 43.3807C224.979 43.0398 225.041 42.7422 225.165 42.4879C225.29 42.2337 225.463 42.0362 225.684 41.8956C225.907 41.755 226.167 41.6847 226.462 41.6847C226.758 41.6847 227.016 41.755 227.238 41.8956C227.461 42.0362 227.634 42.2337 227.758 42.4879C227.883 42.7422 227.945 43.0398 227.945 43.3807C227.945 43.7187 227.883 44.0142 227.758 44.267C227.634 44.5199 227.461 44.7166 227.238 44.8572C227.016 44.9979 226.758 45.0682 226.462 45.0682ZM226.462 44.6165C226.687 44.6165 226.871 44.5589 227.016 44.4439C227.161 44.3288 227.268 44.1776 227.338 43.9901C227.407 43.8026 227.442 43.5994 227.442 43.3807C227.442 43.1619 227.407 42.9581 227.338 42.7692C227.268 42.5803 227.161 42.4276 227.016 42.3111C226.871 42.1946 226.687 42.1364 226.462 42.1364C226.238 42.1364 226.053 42.1946 225.908 42.3111C225.763 42.4276 225.656 42.5803 225.586 42.7692C225.517 42.9581 225.482 43.1619 225.482 43.3807C225.482 43.5994 225.517 43.8026 225.586 43.9901C225.656 44.1776 225.763 44.3288 225.908 44.4439C226.053 44.5589 226.238 44.6165 226.462 44.6165ZM229.216 43.0312V45H228.713V41.7273H229.198V42.2386H229.241C229.318 42.0724 229.434 41.9389 229.591 41.8381C229.747 41.7358 229.948 41.6847 230.196 41.6847C230.417 41.6847 230.611 41.7301 230.777 41.821C230.943 41.9105 231.073 42.0469 231.165 42.2301C231.257 42.4119 231.304 42.642 231.304 42.9205V45H230.801V42.9545C230.801 42.6974 230.734 42.4972 230.6 42.3537C230.467 42.2088 230.284 42.1364 230.051 42.1364C229.89 42.1364 229.747 42.1712 229.62 42.2408C229.495 42.3104 229.397 42.4119 229.324 42.5455C229.252 42.679 229.216 42.8409 229.216 43.0312ZM234.541 42.4602L234.089 42.5881C234.061 42.5128 234.019 42.4396 233.963 42.3686C233.909 42.2962 233.835 42.2365 233.742 42.1896C233.648 42.1428 233.528 42.1193 233.382 42.1193C233.181 42.1193 233.014 42.1655 232.881 42.2578C232.749 42.3487 232.683 42.4645 232.683 42.6051C232.683 42.7301 232.728 42.8288 232.819 42.9013C232.91 42.9737 233.052 43.0341 233.245 43.0824L233.731 43.2017C234.024 43.2727 234.242 43.3814 234.385 43.5277C234.529 43.6726 234.6 43.8594 234.6 44.0881C234.6 44.2756 234.546 44.4432 234.438 44.5909C234.332 44.7386 234.183 44.8551 233.991 44.9403C233.799 45.0256 233.576 45.0682 233.322 45.0682C232.988 45.0682 232.712 44.9957 232.493 44.8509C232.274 44.706 232.136 44.4943 232.078 44.2159L232.555 44.0966C232.6 44.2727 232.686 44.4048 232.813 44.4929C232.94 44.581 233.107 44.625 233.313 44.625C233.548 44.625 233.734 44.5753 233.872 44.4759C234.011 44.375 234.08 44.2543 234.08 44.1136C234.08 44 234.041 43.9048 233.961 43.8281C233.882 43.75 233.759 43.6918 233.595 43.6534L233.049 43.5256C232.749 43.4545 232.529 43.3445 232.389 43.1953C232.249 43.0447 232.18 42.8565 232.18 42.6307C232.18 42.446 232.232 42.2827 232.335 42.1406C232.44 41.9986 232.583 41.8871 232.764 41.8061C232.945 41.7251 233.151 41.6847 233.382 41.6847C233.705 41.6847 233.96 41.7557 234.144 41.8977C234.33 42.0398 234.462 42.2273 234.541 42.4602ZM237.045 45V41.7273H237.548V45H237.045ZM237.3 41.1818C237.202 41.1818 237.118 41.1484 237.047 41.0817C236.977 41.0149 236.942 40.9347 236.942 40.8409C236.942 40.7472 236.977 40.6669 237.047 40.6001C237.118 40.5334 237.202 40.5 237.3 40.5C237.398 40.5 237.482 40.5334 237.552 40.6001C237.623 40.6669 237.658 40.7472 237.658 40.8409C237.658 40.9347 237.623 41.0149 237.552 41.0817C237.482 41.1484 237.398 41.1818 237.3 41.1818ZM238.971 43.0312V45H238.469V41.7273H238.954V42.2386H238.997C239.074 42.0724 239.19 41.9389 239.346 41.8381C239.503 41.7358 239.704 41.6847 239.951 41.6847C240.173 41.6847 240.367 41.7301 240.533 41.821C240.699 41.9105 240.829 42.0469 240.921 42.2301C241.013 42.4119 241.059 42.642 241.059 42.9205V45H240.557V42.9545C240.557 42.6974 240.49 42.4972 240.356 42.3537C240.223 42.2088 240.04 42.1364 239.807 42.1364C239.646 42.1364 239.503 42.1712 239.376 42.2408C239.251 42.3104 239.152 42.4119 239.08 42.5455C239.008 42.679 238.971 42.8409 238.971 43.0312ZM246.717 42C246.67 41.8565 246.608 41.728 246.532 41.6143C246.456 41.4993 246.366 41.4013 246.261 41.3203C246.157 41.2393 246.039 41.1776 245.907 41.1349C245.775 41.0923 245.63 41.071 245.473 41.071C245.214 41.071 244.979 41.1378 244.767 41.2713C244.556 41.4048 244.387 41.6016 244.262 41.8615C244.137 42.1214 244.075 42.4403 244.075 42.8182C244.075 43.196 244.138 43.5149 244.265 43.7749C244.391 44.0348 244.562 44.2315 244.778 44.3651C244.994 44.4986 245.237 44.5653 245.507 44.5653C245.757 44.5653 245.977 44.5121 246.167 44.4055C246.359 44.2976 246.508 44.1456 246.615 43.9496C246.723 43.7521 246.777 43.5199 246.777 43.2528L246.939 43.2869H245.626V42.8182H247.288V43.2869C247.288 43.6463 247.211 43.9588 247.058 44.2244C246.906 44.4901 246.696 44.696 246.427 44.8423C246.16 44.9872 245.853 45.0597 245.507 45.0597C245.12 45.0597 244.781 44.9688 244.488 44.7869C244.197 44.6051 243.97 44.3466 243.806 44.0114C243.644 43.6761 243.564 43.2784 243.564 42.8182C243.564 42.473 243.61 42.1626 243.702 41.8871C243.796 41.6101 243.928 41.3743 244.098 41.1797C244.269 40.9851 244.47 40.8359 244.703 40.7322C244.936 40.6286 245.193 40.5767 245.473 40.5767C245.703 40.5767 245.917 40.6115 246.116 40.6811C246.316 40.7493 246.495 40.8466 246.651 40.973C246.809 41.098 246.94 41.2479 247.045 41.4226C247.15 41.5959 247.223 41.7884 247.262 42H246.717ZM249.454 45.0682C249.159 45.0682 248.9 44.9979 248.677 44.8572C248.455 44.7166 248.282 44.5199 248.157 44.267C248.033 44.0142 247.971 43.7187 247.971 43.3807C247.971 43.0398 248.033 42.7422 248.157 42.4879C248.282 42.2337 248.455 42.0362 248.677 41.8956C248.9 41.755 249.159 41.6847 249.454 41.6847C249.75 41.6847 250.008 41.755 250.23 41.8956C250.453 42.0362 250.626 42.2337 250.75 42.4879C250.875 42.7422 250.937 43.0398 250.937 43.3807C250.937 43.7187 250.875 44.0142 250.75 44.267C250.626 44.5199 250.453 44.7166 250.23 44.8572C250.008 44.9979 249.75 45.0682 249.454 45.0682ZM249.454 44.6165C249.679 44.6165 249.863 44.5589 250.008 44.4439C250.153 44.3288 250.26 44.1776 250.33 43.9901C250.4 43.8026 250.434 43.5994 250.434 43.3807C250.434 43.1619 250.4 42.9581 250.33 42.7692C250.26 42.5803 250.153 42.4276 250.008 42.3111C249.863 42.1946 249.679 42.1364 249.454 42.1364C249.23 42.1364 249.045 42.1946 248.9 42.3111C248.755 42.4276 248.648 42.5803 248.579 42.7692C248.509 42.9581 248.474 43.1619 248.474 43.3807C248.474 43.5994 248.509 43.8026 248.579 43.9901C248.648 44.1776 248.755 44.3288 248.9 44.4439C249.045 44.5589 249.23 44.6165 249.454 44.6165ZM253.034 45.0682C252.739 45.0682 252.48 44.9979 252.257 44.8572C252.035 44.7166 251.862 44.5199 251.737 44.267C251.613 44.0142 251.551 43.7187 251.551 43.3807C251.551 43.0398 251.613 42.7422 251.737 42.4879C251.862 42.2337 252.035 42.0362 252.257 41.8956C252.48 41.755 252.739 41.6847 253.034 41.6847C253.33 41.6847 253.588 41.755 253.81 41.8956C254.033 42.0362 254.206 42.2337 254.33 42.4879C254.455 42.7422 254.517 43.0398 254.517 43.3807C254.517 43.7187 254.455 44.0142 254.33 44.267C254.206 44.5199 254.033 44.7166 253.81 44.8572C253.588 44.9979 253.33 45.0682 253.034 45.0682ZM253.034 44.6165C253.259 44.6165 253.443 44.5589 253.588 44.4439C253.733 44.3288 253.841 44.1776 253.91 43.9901C253.98 43.8026 254.015 43.5994 254.015 43.3807C254.015 43.1619 253.98 42.9581 253.91 42.7692C253.841 42.5803 253.733 42.4276 253.588 42.3111C253.443 42.1946 253.259 42.1364 253.034 42.1364C252.81 42.1364 252.625 42.1946 252.48 42.3111C252.336 42.4276 252.228 42.5803 252.159 42.7692C252.089 42.9581 252.054 43.1619 252.054 43.3807C252.054 43.5994 252.089 43.8026 252.159 43.9901C252.228 44.1776 252.336 44.3288 252.48 44.4439C252.625 44.5589 252.81 44.6165 253.034 44.6165ZM256.606 46.2955C256.363 46.2955 256.154 46.2642 255.98 46.2017C255.805 46.1406 255.659 46.0597 255.543 45.9588C255.428 45.8594 255.336 45.7528 255.268 45.6392L255.668 45.358C255.714 45.4176 255.771 45.4858 255.841 45.5625C255.911 45.6406 256.006 45.7081 256.127 45.7649C256.249 45.8232 256.409 45.8523 256.606 45.8523C256.87 45.8523 257.088 45.7884 257.26 45.6605C257.432 45.5327 257.518 45.3324 257.518 45.0597V44.3949H257.475C257.438 44.4545 257.386 44.5284 257.318 44.6165C257.251 44.7031 257.154 44.7805 257.028 44.8487C256.903 44.9155 256.734 44.9489 256.521 44.9489C256.257 44.9489 256.019 44.8864 255.809 44.7614C255.6 44.6364 255.435 44.4545 255.313 44.2159C255.192 43.9773 255.132 43.6875 255.132 43.3466C255.132 43.0114 255.19 42.7195 255.308 42.4709C255.426 42.2209 255.59 42.0277 255.801 41.8913C256.011 41.7536 256.254 41.6847 256.529 41.6847C256.742 41.6847 256.911 41.7202 257.036 41.7912C257.163 41.8608 257.259 41.9403 257.326 42.0298C257.394 42.1179 257.447 42.1903 257.484 42.2472H257.535V41.7273H258.021V45.0938C258.021 45.375 257.957 45.6037 257.829 45.7798C257.703 45.9574 257.532 46.0874 257.318 46.1697C257.105 46.2536 256.867 46.2955 256.606 46.2955ZM256.589 44.4972C256.791 44.4972 256.961 44.451 257.1 44.3587C257.239 44.2663 257.345 44.1335 257.418 43.9602C257.49 43.7869 257.526 43.5795 257.526 43.3381C257.526 43.1023 257.491 42.8942 257.42 42.7138C257.349 42.5334 257.244 42.392 257.105 42.2898C256.965 42.1875 256.793 42.1364 256.589 42.1364C256.376 42.1364 256.198 42.1903 256.056 42.2983C255.916 42.4062 255.81 42.5511 255.739 42.733C255.669 42.9148 255.634 43.1165 255.634 43.3381C255.634 43.5653 255.67 43.7663 255.741 43.9411C255.813 44.1143 255.92 44.2507 256.061 44.3501C256.203 44.4482 256.379 44.4972 256.589 44.4972ZM259.444 40.6364V45H258.941V40.6364H259.444ZM261.737 45.0682C261.422 45.0682 261.15 44.9986 260.921 44.8594C260.694 44.7188 260.518 44.5227 260.395 44.2713C260.273 44.0185 260.212 43.7244 260.212 43.3892C260.212 43.054 260.273 42.7585 260.395 42.5028C260.518 42.2457 260.69 42.0455 260.91 41.902C261.132 41.7571 261.391 41.6847 261.686 41.6847C261.856 41.6847 262.025 41.7131 262.191 41.7699C262.357 41.8267 262.508 41.919 262.645 42.0469C262.781 42.1733 262.89 42.3409 262.971 42.5497C263.052 42.7585 263.092 43.0156 263.092 43.321V43.5341H260.57V43.0994H262.581C262.581 42.9148 262.544 42.75 262.47 42.6051C262.398 42.4602 262.294 42.3459 262.159 42.2621C262.026 42.1783 261.868 42.1364 261.686 42.1364C261.486 42.1364 261.312 42.1861 261.166 42.2855C261.021 42.3835 260.91 42.5114 260.832 42.669C260.754 42.8267 260.714 42.9957 260.714 43.1761V43.4659C260.714 43.7131 260.757 43.9226 260.842 44.0945C260.929 44.2649 261.049 44.3949 261.202 44.4844C261.356 44.5724 261.534 44.6165 261.737 44.6165C261.869 44.6165 261.989 44.598 262.095 44.5611C262.203 44.5227 262.296 44.4659 262.374 44.3906C262.452 44.3139 262.513 44.2187 262.555 44.1051L263.041 44.2415C262.99 44.4062 262.904 44.5511 262.783 44.6761C262.663 44.7997 262.513 44.8963 262.336 44.9659C262.158 45.0341 261.959 45.0682 261.737 45.0682ZM266.959 45H265.613V40.6364H267.019C267.442 40.6364 267.805 40.7237 268.106 40.8984C268.407 41.0717 268.638 41.321 268.798 41.6463C268.959 41.9702 269.039 42.358 269.039 42.8097C269.039 43.2642 268.958 43.6555 268.796 43.9837C268.634 44.3104 268.398 44.5618 268.089 44.7379C267.779 44.9126 267.403 45 266.959 45ZM266.141 44.5312H266.925C267.286 44.5312 267.585 44.4616 267.822 44.3224C268.06 44.1832 268.236 43.9851 268.353 43.728C268.469 43.4709 268.528 43.1648 268.528 42.8097C268.528 42.4574 268.47 42.1541 268.355 41.8999C268.24 41.6442 268.068 41.4482 267.839 41.3118C267.611 41.174 267.326 41.1051 266.985 41.1051H266.141V44.5312ZM269.857 45V41.7273H270.343V42.2216H270.377C270.437 42.0597 270.545 41.9283 270.701 41.8274C270.857 41.7266 271.033 41.6761 271.229 41.6761C271.266 41.6761 271.312 41.6768 271.368 41.6783C271.423 41.6797 271.465 41.6818 271.494 41.6847V42.196C271.477 42.1918 271.437 42.1854 271.376 42.1768C271.317 42.1669 271.254 42.1619 271.187 42.1619C271.028 42.1619 270.886 42.1953 270.761 42.2621C270.637 42.3274 270.539 42.4183 270.467 42.5348C270.396 42.6499 270.36 42.7812 270.36 42.929V45H269.857ZM272.09 45V41.7273H272.592V45H272.09ZM272.345 41.1818C272.247 41.1818 272.163 41.1484 272.092 41.0817C272.022 41.0149 271.987 40.9347 271.987 40.8409C271.987 40.7472 272.022 40.6669 272.092 40.6001C272.163 40.5334 272.247 40.5 272.345 40.5C272.443 40.5 272.527 40.5334 272.597 40.6001C272.668 40.6669 272.703 40.7472 272.703 40.8409C272.703 40.9347 272.668 41.0149 272.597 41.0817C272.527 41.1484 272.443 41.1818 272.345 41.1818ZM276.19 41.7273L274.979 45H274.468L273.258 41.7273H273.803L274.707 44.3352H274.741L275.644 41.7273H276.19ZM278.108 45.0682C277.793 45.0682 277.521 44.9986 277.292 44.8594C277.065 44.7188 276.89 44.5227 276.766 44.2713C276.644 44.0185 276.583 43.7244 276.583 43.3892C276.583 43.054 276.644 42.7585 276.766 42.5028C276.89 42.2457 277.061 42.0455 277.282 41.902C277.503 41.7571 277.762 41.6847 278.057 41.6847C278.228 41.6847 278.396 41.7131 278.562 41.7699C278.728 41.8267 278.88 41.919 279.016 42.0469C279.152 42.1733 279.261 42.3409 279.342 42.5497C279.423 42.7585 279.463 43.0156 279.463 43.321V43.5341H276.941V43.0994H278.952C278.952 42.9148 278.915 42.75 278.841 42.6051C278.769 42.4602 278.665 42.3459 278.53 42.2621C278.397 42.1783 278.239 42.1364 278.057 42.1364C277.857 42.1364 277.684 42.1861 277.537 42.2855C277.392 42.3835 277.281 42.5114 277.203 42.669C277.125 42.8267 277.086 42.9957 277.086 43.1761V43.4659C277.086 43.7131 277.128 43.9226 277.213 44.0945C277.3 44.2649 277.42 44.3949 277.573 44.4844C277.727 44.5724 277.905 44.6165 278.108 44.6165C278.24 44.6165 278.36 44.598 278.466 44.5611C278.574 44.5227 278.667 44.4659 278.745 44.3906C278.823 44.3139 278.884 44.2187 278.926 44.1051L279.412 44.2415C279.361 44.4062 279.275 44.5511 279.154 44.6761C279.034 44.7997 278.885 44.8963 278.707 44.9659C278.529 45.0341 278.33 45.0682 278.108 45.0682ZM280.595 45.0341C280.49 45.0341 280.399 44.9964 280.324 44.9212C280.249 44.8459 280.211 44.7557 280.211 44.6506C280.211 44.5455 280.249 44.4553 280.324 44.38C280.399 44.3047 280.49 44.267 280.595 44.267C280.7 44.267 280.79 44.3047 280.865 44.38C280.941 44.4553 280.978 44.5455 280.978 44.6506C280.978 44.7202 280.961 44.7841 280.925 44.8423C280.891 44.9006 280.845 44.9474 280.787 44.983C280.73 45.017 280.666 45.0341 280.595 45.0341Z"
    fill="#6B7280" />
  <path
    d="M28.7396 34V26.7273H33.1004V27.5085H29.6203V29.9659H32.7737V30.7472H29.6203V34H28.7396ZM34.4951 34V28.5455H35.3331V34H34.4951ZM34.9212 27.6364C34.7579 27.6364 34.617 27.5807 34.4986 27.4695C34.3826 27.3582 34.3246 27.2244 34.3246 27.0682C34.3246 26.9119 34.3826 26.7782 34.4986 26.6669C34.617 26.5556 34.7579 26.5 34.9212 26.5C35.0846 26.5 35.2242 26.5556 35.3402 26.6669C35.4586 26.7782 35.5178 26.9119 35.5178 27.0682C35.5178 27.2244 35.4586 27.3582 35.3402 27.4695C35.2242 27.5807 35.0846 27.6364 34.9212 27.6364ZM37.7062 26.7273V34H36.8681V26.7273H37.7062ZM41.5281 34.1136C41.0025 34.1136 40.5492 33.9976 40.168 33.7656C39.7892 33.5312 39.4968 33.2045 39.2909 32.7855C39.0873 32.3641 38.9855 31.8741 38.9855 31.3153C38.9855 30.7566 39.0873 30.2642 39.2909 29.8381C39.4968 29.4096 39.7833 29.0758 40.1503 28.8366C40.5196 28.5952 40.9504 28.4744 41.4429 28.4744C41.727 28.4744 42.0075 28.5218 42.2845 28.6165C42.5615 28.7112 42.8136 28.8651 43.0409 29.0781C43.2682 29.2888 43.4493 29.5682 43.5842 29.9162C43.7191 30.2642 43.7866 30.6927 43.7866 31.2017V31.5568H39.5821V30.8324H42.9343C42.9343 30.5246 42.8728 30.25 42.7497 30.0085C42.629 29.767 42.4561 29.5765 42.2312 29.4368C42.0087 29.2971 41.7459 29.2273 41.4429 29.2273C41.1091 29.2273 40.8202 29.3101 40.5764 29.4759C40.3349 29.6392 40.1491 29.8523 40.0189 30.1151C39.8887 30.3778 39.8236 30.6596 39.8236 30.9602V31.4432C39.8236 31.8551 39.8946 32.2043 40.0366 32.4908C40.181 32.7749 40.3811 32.9915 40.6368 33.1406C40.8924 33.2874 41.1896 33.3608 41.5281 33.3608C41.7483 33.3608 41.9471 33.33 42.1247 33.2685C42.3046 33.2045 42.4597 33.1098 42.5899 32.9844C42.7201 32.8565 42.8207 32.6979 42.8917 32.5085L43.7014 32.7358C43.6162 33.0104 43.4729 33.2519 43.2717 33.4602C43.0705 33.6662 42.8219 33.8272 42.526 33.9432C42.23 34.0568 41.8974 34.1136 41.5281 34.1136ZM52.7603 26.7273H53.641V31.5426C53.641 32.0398 53.5238 32.4837 53.2895 32.8743C53.0575 33.2625 52.7296 33.5691 52.3058 33.794C51.882 34.0166 51.3849 34.1278 50.8143 34.1278C50.2438 34.1278 49.7466 34.0166 49.3228 33.794C48.8991 33.5691 48.57 33.2625 48.3356 32.8743C48.1036 32.4837 47.9876 32.0398 47.9876 31.5426V26.7273H48.8683V31.4716C48.8683 31.8267 48.9464 32.1428 49.1027 32.4197C49.2589 32.6944 49.4815 32.911 49.7703 33.0696C50.0615 33.2259 50.4095 33.304 50.8143 33.304C51.2191 33.304 51.5672 33.2259 51.8584 33.0696C52.1495 32.911 52.3721 32.6944 52.526 32.4197C52.6822 32.1428 52.7603 31.8267 52.7603 31.4716V26.7273ZM55.2861 36.0455V28.5455H56.0957V29.4119H56.1952C56.2567 29.3172 56.342 29.1965 56.4509 29.0497C56.5621 28.9006 56.7207 28.768 56.9267 28.652C57.135 28.5336 57.4168 28.4744 57.7719 28.4744C58.2312 28.4744 58.636 28.5893 58.9864 28.8189C59.3368 29.0485 59.6102 29.3741 59.8067 29.7955C60.0032 30.2169 60.1014 30.714 60.1014 31.2869C60.1014 31.8646 60.0032 32.3653 59.8067 32.7891C59.6102 33.2105 59.3379 33.5372 58.9899 33.7692C58.6419 33.9988 58.2406 34.1136 57.7861 34.1136C57.4357 34.1136 57.1552 34.0556 56.9445 33.9396C56.7338 33.8213 56.5716 33.6875 56.458 33.5384C56.3443 33.3868 56.2567 33.2614 56.1952 33.1619H56.1242V36.0455H55.2861ZM56.11 31.2727C56.11 31.6847 56.1703 32.0481 56.2911 32.3629C56.4118 32.6754 56.5882 32.9205 56.8202 33.098C57.0522 33.2732 57.3363 33.3608 57.6725 33.3608C58.0228 33.3608 58.3152 33.2685 58.5496 33.0838C58.7863 32.8968 58.9639 32.6458 59.0823 32.331C59.203 32.0137 59.2634 31.661 59.2634 31.2727C59.2634 30.8892 59.2042 30.5436 59.0858 30.2358C58.9698 29.9257 58.7934 29.6806 58.5567 29.5007C58.3223 29.3184 58.0276 29.2273 57.6725 29.2273C57.3315 29.2273 57.0451 29.3137 56.8131 29.4865C56.5811 29.657 56.4059 29.8961 56.2875 30.2038C56.1691 30.5092 56.11 30.8655 56.11 31.2727ZM62.2179 26.7273V34H61.3798V26.7273H62.2179ZM65.9688 34.1136C65.4764 34.1136 65.0443 33.9964 64.6726 33.7621C64.3033 33.5277 64.0145 33.1998 63.8062 32.7784C63.6002 32.357 63.4972 31.8646 63.4972 31.3011C63.4972 30.733 63.6002 30.237 63.8062 29.8132C64.0145 29.3894 64.3033 29.0604 64.6726 28.826C65.0443 28.5916 65.4764 28.4744 65.9688 28.4744C66.4612 28.4744 66.8921 28.5916 67.2614 28.826C67.6331 29.0604 67.9219 29.3894 68.1279 29.8132C68.3362 30.237 68.4404 30.733 68.4404 31.3011C68.4404 31.8646 68.3362 32.357 68.1279 32.7784C67.9219 33.1998 67.6331 33.5277 67.2614 33.7621C66.8921 33.9964 66.4612 34.1136 65.9688 34.1136ZM65.9688 33.3608C66.3428 33.3608 66.6506 33.2649 66.8921 33.0732C67.1336 32.8814 67.3123 32.6293 67.4283 32.3168C67.5443 32.0043 67.6023 31.6657 67.6023 31.3011C67.6023 30.9366 67.5443 30.5968 67.4283 30.282C67.3123 29.9671 67.1336 29.7126 66.8921 29.5185C66.6506 29.3243 66.3428 29.2273 65.9688 29.2273C65.5947 29.2273 65.287 29.3243 65.0455 29.5185C64.804 29.7126 64.6253 29.9671 64.5093 30.282C64.3933 30.5968 64.3353 30.9366 64.3353 31.3011C64.3353 31.6657 64.3933 32.0043 64.5093 32.3168C64.6253 32.6293 64.804 32.8814 65.0455 33.0732C65.287 33.2649 65.5947 33.3608 65.9688 33.3608ZM71.3248 34.1278C70.9792 34.1278 70.6655 34.0627 70.3837 33.9325C70.102 33.8 69.8783 33.6094 69.7126 33.3608C69.5469 33.1098 69.464 32.8068 69.464 32.4517C69.464 32.1392 69.5256 31.8859 69.6487 31.6918C69.7718 31.4953 69.9363 31.3414 70.1423 31.2301C70.3482 31.1188 70.5755 31.036 70.8241 30.9815C71.075 30.9247 71.3272 30.8797 71.5805 30.8466C71.9119 30.804 72.1806 30.772 72.3866 30.7507C72.5949 30.727 72.7464 30.688 72.8411 30.6335C72.9382 30.5791 72.9867 30.4844 72.9867 30.3494V30.321C72.9867 29.9706 72.8908 29.6984 72.6991 29.5043C72.5097 29.3101 72.222 29.2131 71.8362 29.2131C71.4361 29.2131 71.1224 29.3007 70.8951 29.4759C70.6678 29.651 70.508 29.8381 70.4157 30.0369L69.6203 29.7528C69.7623 29.4214 69.9517 29.1634 70.1884 28.9787C70.4275 28.7917 70.688 28.6615 70.9697 28.5881C71.2538 28.5123 71.5331 28.4744 71.8078 28.4744C71.9829 28.4744 72.1842 28.4957 72.4114 28.5384C72.6411 28.5786 72.8624 28.6626 73.0755 28.7905C73.2909 28.9183 73.4697 29.1113 73.6117 29.3693C73.7538 29.6274 73.8248 29.973 73.8248 30.4062V34H72.9867V33.2614H72.9441C72.8873 33.3797 72.7926 33.5064 72.66 33.6413C72.5274 33.7763 72.3511 33.8911 72.1309 33.9858C71.9107 34.0805 71.642 34.1278 71.3248 34.1278ZM71.4526 33.375C71.7841 33.375 72.0634 33.3099 72.2907 33.1797C72.5203 33.0495 72.6932 32.8814 72.8092 32.6754C72.9275 32.4695 72.9867 32.2528 72.9867 32.0256V31.2585C72.9512 31.3011 72.8731 31.3402 72.7524 31.3757C72.634 31.4089 72.4967 31.4384 72.3404 31.4645C72.1865 31.4882 72.0362 31.5095 71.8894 31.5284C71.745 31.545 71.6278 31.5592 71.5379 31.571C71.3201 31.5994 71.1165 31.6456 70.9271 31.7095C70.74 31.7711 70.5885 31.8646 70.4725 31.9901C70.3589 32.1132 70.3021 32.2812 70.3021 32.4943C70.3021 32.7855 70.4098 33.0057 70.6252 33.1548C70.843 33.3016 71.1188 33.375 71.4526 33.375ZM77.4141 34.1136C76.9596 34.1136 76.5583 33.9988 76.2103 33.7692C75.8623 33.5372 75.59 33.2105 75.3935 32.7891C75.197 32.3653 75.0988 31.8646 75.0988 31.2869C75.0988 30.714 75.197 30.2169 75.3935 29.7955C75.59 29.3741 75.8634 29.0485 76.2138 28.8189C76.5642 28.5893 76.969 28.4744 77.4283 28.4744C77.7834 28.4744 78.064 28.5336 78.2699 28.652C78.4783 28.768 78.6369 28.9006 78.7458 29.0497C78.8571 29.1965 78.9435 29.3172 79.005 29.4119H79.076V26.7273H79.9141V34H79.1044V33.1619H79.005C78.9435 33.2614 78.8559 33.3868 78.7422 33.5384C78.6286 33.6875 78.4664 33.8213 78.2557 33.9396C78.045 34.0556 77.7645 34.1136 77.4141 34.1136ZM77.5277 33.3608C77.8639 33.3608 78.148 33.2732 78.38 33.098C78.612 32.9205 78.7884 32.6754 78.9091 32.3629C79.0299 32.0481 79.0902 31.6847 79.0902 31.2727C79.0902 30.8655 79.0311 30.5092 78.9127 30.2038C78.7943 29.8961 78.6191 29.657 78.3871 29.4865C78.1551 29.3137 77.8687 29.2273 77.5277 29.2273C77.1726 29.2273 76.8767 29.3184 76.64 29.5007C76.4056 29.6806 76.2292 29.9257 76.1108 30.2358C75.9948 30.5436 75.9368 30.8892 75.9368 31.2727C75.9368 31.661 75.996 32.0137 76.1144 32.331C76.2351 32.6458 76.4127 32.8968 76.6471 33.0838C76.8838 33.2685 77.1774 33.3608 77.5277 33.3608ZM84.4915 34V26.7273H86.9489C87.5195 26.7273 87.9858 26.8303 88.3481 27.0362C88.7126 27.2398 88.9825 27.5156 89.1577 27.8636C89.3329 28.2116 89.4205 28.5999 89.4205 29.0284C89.4205 29.4569 89.3329 29.8464 89.1577 30.1967C88.9849 30.5471 88.7174 30.8265 88.3552 31.0348C87.9929 31.2408 87.5289 31.3438 86.9631 31.3438H85.2017V30.5625H86.9347C87.3253 30.5625 87.639 30.495 87.8758 30.3601C88.1125 30.2251 88.2841 30.0429 88.3907 29.8132C88.4996 29.5812 88.554 29.3196 88.554 29.0284C88.554 28.7372 88.4996 28.4768 88.3907 28.2472C88.2841 28.0175 88.1113 27.8376 87.8722 27.7074C87.6331 27.5748 87.3159 27.5085 86.9205 27.5085H85.3722V34H84.4915ZM92.8829 34.1136C92.3904 34.1136 91.9584 33.9964 91.5867 33.7621C91.2174 33.5277 90.9285 33.1998 90.7202 32.7784C90.5142 32.357 90.4113 31.8646 90.4113 31.3011C90.4113 30.733 90.5142 30.237 90.7202 29.8132C90.9285 29.3894 91.2174 29.0604 91.5867 28.826C91.9584 28.5916 92.3904 28.4744 92.8829 28.4744C93.3753 28.4744 93.8062 28.5916 94.1755 28.826C94.5472 29.0604 94.836 29.3894 95.0419 29.8132C95.2503 30.237 95.3544 30.733 95.3544 31.3011C95.3544 31.8646 95.2503 32.357 95.0419 32.7784C94.836 33.1998 94.5472 33.5277 94.1755 33.7621C93.8062 33.9964 93.3753 34.1136 92.8829 34.1136ZM92.8829 33.3608C93.2569 33.3608 93.5647 33.2649 93.8062 33.0732C94.0476 32.8814 94.2264 32.6293 94.3424 32.3168C94.4584 32.0043 94.5164 31.6657 94.5164 31.3011C94.5164 30.9366 94.4584 30.5968 94.3424 30.282C94.2264 29.9671 94.0476 29.7126 93.8062 29.5185C93.5647 29.3243 93.2569 29.2273 92.8829 29.2273C92.5088 29.2273 92.201 29.3243 91.9596 29.5185C91.7181 29.7126 91.5393 29.9671 91.4233 30.282C91.3073 30.5968 91.2493 30.9366 91.2493 31.3011C91.2493 31.6657 91.3073 32.0043 91.4233 32.3168C91.5393 32.6293 91.7181 32.8814 91.9596 33.0732C92.201 33.2649 92.5088 33.3608 92.8829 33.3608ZM96.6337 34V28.5455H97.4434V29.3693H97.5002C97.5997 29.0994 97.7796 28.8804 98.04 28.7124C98.3004 28.5443 98.594 28.4602 98.9207 28.4602C98.9822 28.4602 99.0592 28.4614 99.1515 28.4638C99.2438 28.4661 99.3137 28.4697 99.361 28.4744V29.3267C99.3326 29.3196 99.2675 29.3089 99.1657 29.2947C99.0663 29.2782 98.9609 29.2699 98.8497 29.2699C98.5845 29.2699 98.3478 29.3255 98.1394 29.4368C97.9335 29.5457 97.7701 29.6972 97.6494 29.8913C97.531 30.0831 97.4718 30.3021 97.4718 30.5483V34H96.6337ZM103.068 28.5455V29.2557H100.242V28.5455H103.068ZM101.066 27.2386H101.904V32.4375C101.904 32.6742 101.938 32.8518 102.007 32.9702C102.078 33.0862 102.168 33.1643 102.277 33.2045C102.388 33.2424 102.505 33.2614 102.628 33.2614C102.72 33.2614 102.796 33.2566 102.855 33.2472C102.915 33.2353 102.962 33.2259 102.997 33.2188L103.168 33.9716C103.111 33.9929 103.032 34.0142 102.93 34.0355C102.828 34.0592 102.699 34.071 102.543 34.071C102.306 34.071 102.074 34.0201 101.847 33.9183C101.622 33.8165 101.435 33.6615 101.286 33.4531C101.139 33.2448 101.066 32.982 101.066 32.6648V27.2386ZM105.934 34.1278C105.589 34.1278 105.275 34.0627 104.993 33.9325C104.711 33.8 104.488 33.6094 104.322 33.3608C104.156 33.1098 104.073 32.8068 104.073 32.4517C104.073 32.1392 104.135 31.8859 104.258 31.6918C104.381 31.4953 104.546 31.3414 104.752 31.2301C104.958 31.1188 105.185 31.036 105.433 30.9815C105.684 30.9247 105.937 30.8797 106.19 30.8466C106.521 30.804 106.79 30.772 106.996 30.7507C107.204 30.727 107.356 30.688 107.451 30.6335C107.548 30.5791 107.596 30.4844 107.596 30.3494V30.321C107.596 29.9706 107.5 29.6984 107.308 29.5043C107.119 29.3101 106.831 29.2131 106.446 29.2131C106.045 29.2131 105.732 29.3007 105.504 29.4759C105.277 29.651 105.117 29.8381 105.025 30.0369L104.23 29.7528C104.372 29.4214 104.561 29.1634 104.798 28.9787C105.037 28.7917 105.297 28.6615 105.579 28.5881C105.863 28.5123 106.143 28.4744 106.417 28.4744C106.592 28.4744 106.794 28.4957 107.021 28.5384C107.25 28.5786 107.472 28.6626 107.685 28.7905C107.9 28.9183 108.079 29.1113 108.221 29.3693C108.363 29.6274 108.434 29.973 108.434 30.4062V34H107.596V33.2614H107.553C107.497 33.3797 107.402 33.5064 107.269 33.6413C107.137 33.7763 106.96 33.8911 106.74 33.9858C106.52 34.0805 106.251 34.1278 105.934 34.1278ZM106.062 33.375C106.393 33.375 106.673 33.3099 106.9 33.1797C107.13 33.0495 107.303 32.8814 107.419 32.6754C107.537 32.4695 107.596 32.2528 107.596 32.0256V31.2585C107.561 31.3011 107.482 31.3402 107.362 31.3757C107.243 31.4089 107.106 31.4384 106.95 31.4645C106.796 31.4882 106.646 31.5095 106.499 31.5284C106.354 31.545 106.237 31.5592 106.147 31.571C105.929 31.5994 105.726 31.6456 105.536 31.7095C105.349 31.7711 105.198 31.8646 105.082 31.9901C104.968 32.1132 104.911 32.2812 104.911 32.4943C104.911 32.7855 105.019 33.0057 105.235 33.1548C105.452 33.3016 105.728 33.375 106.062 33.375ZM110.802 26.7273V34H109.964V26.7273H110.802Z"
    fill="#374151" />
</svg>