<svg xmlns="http://www.w3.org/2000/svg" width="600" height="600" fill="none" viewBox="0 0 600 600">
   <path fill="#01E0CB" fill-rule="evenodd" d="M300 600C368.409 600 431.47 577.103 481.937 538.555L437.154 493.772C398.508 521.006 351.372 537 300.5 537C249.266 537 201.822 520.777 163.023 493.189L117.833 538.379C168.338 577.033 231.487 600 300 600ZM61.2687 481.706L106.474 436.501C79.0902 397.79 63 350.524 63 299.5C63 248.628 78.9942 201.492 106.228 162.846L61.4451 118.063C22.8969 168.53 0 231.591 0 300C0 368.304 22.8271 431.277 61.2687 481.706ZM600 300C600 368.409 577.103 431.469 538.555 481.936L493.942 437.323C521.681 398.461 538 350.886 538 299.5C538 248.266 521.777 200.822 494.189 162.023L538.379 117.833C577.033 168.338 600 231.487 600 300ZM481.706 61.2687C431.277 22.8271 368.304 0 300 0C231.591 0 168.531 22.8968 118.063 61.4449L162.677 106.058C201.539 78.3193 249.114 62 300.5 62C351.524 62 398.79 78.0902 437.501 105.474L481.706 61.2687Z" clip-rule="evenodd"/>
   <circle cx="300" cy="300" r="75" fill="#000"/>
   <path fill="#0080FF" fill-rule="evenodd" d="M274.281 114C191.128 125.307 125.307 191.128 114 274.28H176.988C187.249 225.777 225.636 187.655 274.281 177.781V114ZM421.573 274.28C411.382 226.11 373.45 188.179 325.281 177.988V114C408.433 125.307 474.254 191.128 485.561 274.28H421.573ZM325.281 422.572C373.783 412.311 411.906 373.925 421.78 325.28H485.561C474.254 408.433 408.433 474.254 325.281 485.561V422.572ZM176.781 325.28C186.723 374.259 225.302 412.838 274.281 422.78V485.561C191.128 474.254 125.307 408.433 114 325.28H176.781Z" clip-rule="evenodd"/>
</svg>
