<svg xmlns="http://www.w3.org/2000/svg" width="1280" height="720" fill="none" viewBox="0 0 1280 720"><rect width="1280" height="720" fill="#111"/><path fill="#fff" d="M229.636 347H221.182C220.682 344.568 219.807 342.432 218.557 340.591C217.33 338.75 215.83 337.205 214.057 335.955C212.307 334.682 210.364 333.727 208.227 333.091C206.091 332.455 203.864 332.136 201.545 332.136C197.318 332.136 193.489 333.205 190.057 335.341C186.648 337.477 183.932 340.625 181.909 344.784C179.909 348.943 178.909 354.045 178.909 360.091C178.909 366.136 179.909 371.239 181.909 375.398C183.932 379.557 186.648 382.705 190.057 384.841C193.489 386.977 197.318 388.045 201.545 388.045C203.864 388.045 206.091 387.727 208.227 387.091C210.364 386.455 212.307 385.511 214.057 384.261C215.83 382.989 217.33 381.432 218.557 379.591C219.807 377.727 220.682 375.591 221.182 373.182H229.636C229 376.75 227.841 379.943 226.159 382.761C224.477 385.58 222.386 387.977 219.886 389.955C217.386 391.909 214.58 393.398 211.466 394.42C208.375 395.443 205.068 395.955 201.545 395.955C195.591 395.955 190.295 394.5 185.659 391.591C181.023 388.682 177.375 384.545 174.716 379.182C172.057 373.818 170.727 367.455 170.727 360.091C170.727 352.727 172.057 346.364 174.716 341C177.375 335.636 181.023 331.5 185.659 328.591C190.295 325.682 195.591 324.227 201.545 324.227C205.068 324.227 208.375 324.739 211.466 325.761C214.58 326.784 217.386 328.284 219.886 330.261C222.386 332.216 224.477 334.602 226.159 337.42C227.841 340.216 229 343.409 229.636 347ZM263.48 396.091C258.753 396.091 254.605 394.966 251.037 392.716C247.491 390.466 244.719 387.318 242.719 383.273C240.741 379.227 239.753 374.5 239.753 369.091C239.753 363.636 240.741 358.875 242.719 354.807C244.719 350.739 247.491 347.58 251.037 345.33C254.605 343.08 258.753 341.955 263.48 341.955C268.207 341.955 272.344 343.08 275.889 345.33C279.457 347.58 282.23 350.739 284.207 354.807C286.207 358.875 287.207 363.636 287.207 369.091C287.207 374.5 286.207 379.227 284.207 383.273C282.23 387.318 279.457 390.466 275.889 392.716C272.344 394.966 268.207 396.091 263.48 396.091ZM263.48 388.864C267.071 388.864 270.026 387.943 272.344 386.102C274.662 384.261 276.378 381.841 277.491 378.841C278.605 375.841 279.162 372.591 279.162 369.091C279.162 365.591 278.605 362.33 277.491 359.307C276.378 356.284 274.662 353.841 272.344 351.977C270.026 350.114 267.071 349.182 263.48 349.182C259.889 349.182 256.935 350.114 254.616 351.977C252.298 353.841 250.582 356.284 249.469 359.307C248.355 362.33 247.798 365.591 247.798 369.091C247.798 372.591 248.355 375.841 249.469 378.841C250.582 381.841 252.298 384.261 254.616 386.102C256.935 387.943 259.889 388.864 263.48 388.864ZM319.261 396.091C314.898 396.091 311.045 394.989 307.705 392.784C304.364 390.557 301.75 387.42 299.864 383.375C297.977 379.307 297.034 374.5 297.034 368.955C297.034 363.455 297.977 358.682 299.864 354.636C301.75 350.591 304.375 347.466 307.739 345.261C311.102 343.057 314.989 341.955 319.398 341.955C322.807 341.955 325.5 342.523 327.477 343.659C329.477 344.773 331 346.045 332.045 347.477C333.114 348.886 333.943 350.045 334.534 350.955H335.216V325.182H343.261V395H335.489V386.955H334.534C333.943 387.909 333.102 389.114 332.011 390.568C330.92 392 329.364 393.284 327.341 394.42C325.318 395.534 322.625 396.091 319.261 396.091ZM320.352 388.864C323.58 388.864 326.307 388.023 328.534 386.341C330.761 384.636 332.455 382.284 333.614 379.284C334.773 376.261 335.352 372.773 335.352 368.818C335.352 364.909 334.784 361.489 333.648 358.557C332.511 355.602 330.83 353.307 328.602 351.67C326.375 350.011 323.625 349.182 320.352 349.182C316.943 349.182 314.102 350.057 311.83 351.807C309.58 353.534 307.886 355.886 306.75 358.864C305.636 361.818 305.08 365.136 305.08 368.818C305.08 372.545 305.648 375.932 306.784 378.977C307.943 382 309.648 384.409 311.898 386.205C314.17 387.977 316.989 388.864 320.352 388.864ZM381.068 396.091C376.023 396.091 371.67 394.977 368.011 392.75C364.375 390.5 361.568 387.364 359.591 383.341C357.636 379.295 356.659 374.591 356.659 369.227C356.659 363.864 357.636 359.136 359.591 355.045C361.568 350.932 364.318 347.727 367.841 345.432C371.386 343.114 375.523 341.955 380.25 341.955C382.977 341.955 385.67 342.409 388.33 343.318C390.989 344.227 393.409 345.705 395.591 347.75C397.773 349.773 399.511 352.455 400.807 355.795C402.102 359.136 402.75 363.25 402.75 368.136V371.545H362.386V364.591H394.568C394.568 361.636 393.977 359 392.795 356.682C391.636 354.364 389.977 352.534 387.818 351.193C385.682 349.852 383.159 349.182 380.25 349.182C377.045 349.182 374.273 349.977 371.932 351.568C369.614 353.136 367.83 355.182 366.58 357.705C365.33 360.227 364.705 362.932 364.705 365.818V370.455C364.705 374.409 365.386 377.761 366.75 380.511C368.136 383.239 370.057 385.318 372.511 386.75C374.966 388.159 377.818 388.864 381.068 388.864C383.182 388.864 385.091 388.568 386.795 387.977C388.523 387.364 390.011 386.455 391.261 385.25C392.511 384.023 393.477 382.5 394.159 380.682L401.932 382.864C401.114 385.5 399.739 387.818 397.807 389.818C395.875 391.795 393.489 393.341 390.648 394.455C387.807 395.545 384.614 396.091 381.068 396.091ZM420.852 395.545C419.17 395.545 417.727 394.943 416.523 393.739C415.318 392.534 414.716 391.091 414.716 389.409C414.716 387.727 415.318 386.284 416.523 385.08C417.727 383.875 419.17 383.273 420.852 383.273C422.534 383.273 423.977 383.875 425.182 385.08C426.386 386.284 426.989 387.727 426.989 389.409C426.989 390.523 426.705 391.545 426.136 392.477C425.591 393.409 424.852 394.159 423.92 394.727C423.011 395.273 421.989 395.545 420.852 395.545ZM491.062 395H469.517V325.182H492.017C498.79 325.182 504.585 326.58 509.403 329.375C514.222 332.148 517.915 336.136 520.483 341.341C523.051 346.523 524.335 352.727 524.335 359.955C524.335 367.227 523.04 373.489 520.449 378.739C517.858 383.966 514.085 387.989 509.131 390.807C504.176 393.602 498.153 395 491.062 395ZM477.972 387.5H490.517C496.29 387.5 501.074 386.386 504.869 384.159C508.665 381.932 511.494 378.761 513.358 374.648C515.222 370.534 516.153 365.636 516.153 359.955C516.153 354.318 515.233 349.466 513.392 345.398C511.551 341.307 508.801 338.17 505.142 335.989C501.483 333.784 496.926 332.682 491.472 332.682H477.972V387.5ZM559.381 396.091C554.335 396.091 549.983 394.977 546.324 392.75C542.688 390.5 539.881 387.364 537.903 383.341C535.949 379.295 534.972 374.591 534.972 369.227C534.972 363.864 535.949 359.136 537.903 355.045C539.881 350.932 542.631 347.727 546.153 345.432C549.699 343.114 553.835 341.955 558.562 341.955C561.29 341.955 563.983 342.409 566.642 343.318C569.301 344.227 571.722 345.705 573.903 347.75C576.085 349.773 577.824 352.455 579.119 355.795C580.415 359.136 581.062 363.25 581.062 368.136V371.545H540.699V364.591H572.881C572.881 361.636 572.29 359 571.108 356.682C569.949 354.364 568.29 352.534 566.131 351.193C563.994 349.852 561.472 349.182 558.562 349.182C555.358 349.182 552.585 349.977 550.244 351.568C547.926 353.136 546.142 355.182 544.892 357.705C543.642 360.227 543.017 362.932 543.017 365.818V370.455C543.017 374.409 543.699 377.761 545.062 380.511C546.449 383.239 548.369 385.318 550.824 386.75C553.278 388.159 556.131 388.864 559.381 388.864C561.494 388.864 563.403 388.568 565.108 387.977C566.835 387.364 568.324 386.455 569.574 385.25C570.824 384.023 571.79 382.5 572.472 380.682L580.244 382.864C579.426 385.5 578.051 387.818 576.119 389.818C574.188 391.795 571.801 393.341 568.96 394.455C566.119 395.545 562.926 396.091 559.381 396.091ZM593.301 414.636V342.636H601.074V350.955H602.028C602.619 350.045 603.438 348.886 604.483 347.477C605.551 346.045 607.074 344.773 609.051 343.659C611.051 342.523 613.756 341.955 617.165 341.955C621.574 341.955 625.46 343.057 628.824 345.261C632.188 347.466 634.813 350.591 636.699 354.636C638.585 358.682 639.528 363.455 639.528 368.955C639.528 374.5 638.585 379.307 636.699 383.375C634.813 387.42 632.199 390.557 628.858 392.784C625.517 394.989 621.665 396.091 617.301 396.091C613.938 396.091 611.244 395.534 609.222 394.42C607.199 393.284 605.642 392 604.551 390.568C603.46 389.114 602.619 387.909 602.028 386.955H601.347V414.636H593.301ZM601.21 368.818C601.21 372.773 601.79 376.261 602.949 379.284C604.108 382.284 605.801 384.636 608.028 386.341C610.256 388.023 612.983 388.864 616.21 388.864C619.574 388.864 622.381 387.977 624.631 386.205C626.903 384.409 628.608 382 629.744 378.977C630.903 375.932 631.483 372.545 631.483 368.818C631.483 365.136 630.915 361.818 629.778 358.864C628.665 355.886 626.972 353.534 624.699 351.807C622.449 350.057 619.619 349.182 616.21 349.182C612.938 349.182 610.188 350.011 607.96 351.67C605.733 353.307 604.051 355.602 602.915 358.557C601.778 361.489 601.21 364.909 601.21 368.818ZM659.847 325.182V395H651.801V325.182H659.847ZM695.855 396.091C691.128 396.091 686.98 394.966 683.412 392.716C679.866 390.466 677.094 387.318 675.094 383.273C673.116 379.227 672.128 374.5 672.128 369.091C672.128 363.636 673.116 358.875 675.094 354.807C677.094 350.739 679.866 347.58 683.412 345.33C686.98 343.08 691.128 341.955 695.855 341.955C700.582 341.955 704.719 343.08 708.264 345.33C711.832 347.58 714.605 350.739 716.582 354.807C718.582 358.875 719.582 363.636 719.582 369.091C719.582 374.5 718.582 379.227 716.582 383.273C714.605 387.318 711.832 390.466 708.264 392.716C704.719 394.966 700.582 396.091 695.855 396.091ZM695.855 388.864C699.446 388.864 702.401 387.943 704.719 386.102C707.037 384.261 708.753 381.841 709.866 378.841C710.98 375.841 711.537 372.591 711.537 369.091C711.537 365.591 710.98 362.33 709.866 359.307C708.753 356.284 707.037 353.841 704.719 351.977C702.401 350.114 699.446 349.182 695.855 349.182C692.264 349.182 689.31 350.114 686.991 351.977C684.673 353.841 682.957 356.284 681.844 359.307C680.73 362.33 680.173 365.591 680.173 369.091C680.173 372.591 680.73 375.841 681.844 378.841C682.957 381.841 684.673 384.261 686.991 386.102C689.31 387.943 692.264 388.864 695.855 388.864ZM735.17 414.636C733.807 414.636 732.591 414.523 731.523 414.295C730.455 414.091 729.716 413.886 729.307 413.682L731.352 406.591C733.307 407.091 735.034 407.273 736.534 407.136C738.034 407 739.364 406.33 740.523 405.125C741.705 403.943 742.784 402.023 743.761 399.364L745.261 395.273L725.898 342.636H734.625L749.08 384.364H749.625L764.08 342.636H772.807L750.58 402.636C749.58 405.341 748.341 407.58 746.864 409.352C745.386 411.148 743.67 412.477 741.716 413.341C739.784 414.205 737.602 414.636 735.17 414.636ZM786.009 395.545C784.327 395.545 782.884 394.943 781.679 393.739C780.474 392.534 779.872 391.091 779.872 389.409C779.872 387.727 780.474 386.284 781.679 385.08C782.884 383.875 784.327 383.273 786.009 383.273C787.69 383.273 789.134 383.875 790.338 385.08C791.543 386.284 792.145 387.727 792.145 389.409C792.145 390.523 791.861 391.545 791.293 392.477C790.747 393.409 790.009 394.159 789.077 394.727C788.168 395.273 787.145 395.545 786.009 395.545ZM872.855 342.636C872.446 339.182 870.787 336.5 867.878 334.591C864.969 332.682 861.401 331.727 857.173 331.727C854.082 331.727 851.378 332.227 849.06 333.227C846.764 334.227 844.969 335.602 843.673 337.352C842.401 339.102 841.764 341.091 841.764 343.318C841.764 345.182 842.207 346.784 843.094 348.125C844.003 349.443 845.162 350.545 846.571 351.432C847.98 352.295 849.457 353.011 851.003 353.58C852.548 354.125 853.969 354.568 855.264 354.909L862.355 356.818C864.173 357.295 866.196 357.955 868.423 358.795C870.673 359.636 872.821 360.784 874.866 362.239C876.935 363.67 878.639 365.511 879.98 367.761C881.321 370.011 881.991 372.773 881.991 376.045C881.991 379.818 881.003 383.227 879.026 386.273C877.071 389.318 874.207 391.739 870.435 393.534C866.685 395.33 862.128 396.227 856.764 396.227C851.764 396.227 847.435 395.42 843.776 393.807C840.139 392.193 837.276 389.943 835.185 387.057C833.116 384.17 831.946 380.818 831.673 377H840.401C840.628 379.636 841.514 381.818 843.06 383.545C844.628 385.25 846.605 386.523 848.991 387.364C851.401 388.182 853.991 388.591 856.764 388.591C859.991 388.591 862.889 388.068 865.457 387.023C868.026 385.955 870.06 384.477 871.56 382.591C873.06 380.682 873.81 378.455 873.81 375.909C873.81 373.591 873.162 371.705 871.866 370.25C870.571 368.795 868.866 367.614 866.753 366.705C864.639 365.795 862.355 365 859.901 364.318L851.31 361.864C845.855 360.295 841.537 358.057 838.355 355.148C835.173 352.239 833.582 348.432 833.582 343.727C833.582 339.818 834.639 336.409 836.753 333.5C838.889 330.568 841.753 328.295 845.344 326.682C848.957 325.045 852.991 324.227 857.446 324.227C861.946 324.227 865.946 325.034 869.446 326.648C872.946 328.239 875.719 330.42 877.764 333.193C879.832 335.966 880.923 339.114 881.037 342.636H872.855ZM902.847 363.5V395H894.801V325.182H902.847V350.818H903.528C904.756 348.114 906.597 345.966 909.051 344.375C911.528 342.761 914.824 341.955 918.938 341.955C922.506 341.955 925.631 342.67 928.312 344.102C930.994 345.511 933.074 347.682 934.551 350.614C936.051 353.523 936.801 357.227 936.801 361.727V395H928.756V362.273C928.756 358.114 927.676 354.898 925.517 352.625C923.381 350.33 920.415 349.182 916.619 349.182C913.983 349.182 911.619 349.739 909.528 350.852C907.46 351.966 905.824 353.591 904.619 355.727C903.438 357.864 902.847 360.455 902.847 363.5ZM966.929 396.227C963.611 396.227 960.599 395.602 957.895 394.352C955.19 393.08 953.043 391.25 951.452 388.864C949.861 386.455 949.065 383.545 949.065 380.136C949.065 377.136 949.656 374.705 950.838 372.841C952.02 370.955 953.599 369.477 955.577 368.409C957.554 367.341 959.736 366.545 962.122 366.023C964.531 365.477 966.952 365.045 969.384 364.727C972.565 364.318 975.145 364.011 977.122 363.807C979.122 363.58 980.577 363.205 981.486 362.682C982.418 362.159 982.884 361.25 982.884 359.955V359.682C982.884 356.318 981.963 353.705 980.122 351.841C978.304 349.977 975.543 349.045 971.838 349.045C967.997 349.045 964.986 349.886 962.804 351.568C960.622 353.25 959.088 355.045 958.202 356.955L950.565 354.227C951.929 351.045 953.747 348.568 956.02 346.795C958.315 345 960.815 343.75 963.52 343.045C966.247 342.318 968.929 341.955 971.565 341.955C973.247 341.955 975.179 342.159 977.361 342.568C979.565 342.955 981.69 343.761 983.736 344.989C985.804 346.216 987.52 348.068 988.884 350.545C990.247 353.023 990.929 356.341 990.929 360.5V395H982.884V387.909H982.474C981.929 389.045 981.02 390.261 979.747 391.557C978.474 392.852 976.781 393.955 974.668 394.864C972.554 395.773 969.974 396.227 966.929 396.227ZM968.156 389C971.338 389 974.02 388.375 976.202 387.125C978.406 385.875 980.065 384.261 981.179 382.284C982.315 380.307 982.884 378.227 982.884 376.045V368.682C982.543 369.091 981.793 369.466 980.634 369.807C979.497 370.125 978.179 370.409 976.679 370.659C975.202 370.886 973.759 371.091 972.349 371.273C970.963 371.432 969.838 371.568 968.974 371.682C966.884 371.955 964.929 372.398 963.111 373.011C961.315 373.602 959.861 374.5 958.747 375.705C957.656 376.886 957.111 378.5 957.111 380.545C957.111 383.341 958.145 385.455 960.213 386.886C962.304 388.295 964.952 389 968.156 389ZM1005.61 395V342.636H1013.39V350.545H1013.93C1014.89 347.955 1016.61 345.852 1019.11 344.239C1021.61 342.625 1024.43 341.818 1027.57 341.818C1028.16 341.818 1028.9 341.83 1029.78 341.852C1030.67 341.875 1031.34 341.909 1031.8 341.955V350.136C1031.52 350.068 1030.9 349.966 1029.92 349.83C1028.97 349.67 1027.95 349.591 1026.89 349.591C1024.34 349.591 1022.07 350.125 1020.07 351.193C1018.09 352.239 1016.52 353.693 1015.36 355.557C1014.23 357.398 1013.66 359.5 1013.66 361.864V395H1005.61ZM1061.69 396.091C1056.65 396.091 1052.3 394.977 1048.64 392.75C1045 390.5 1042.19 387.364 1040.22 383.341C1038.26 379.295 1037.28 374.591 1037.28 369.227C1037.28 363.864 1038.26 359.136 1040.22 355.045C1042.19 350.932 1044.94 347.727 1048.47 345.432C1052.01 343.114 1056.15 341.955 1060.88 341.955C1063.6 341.955 1066.3 342.409 1068.95 343.318C1071.61 344.227 1074.03 345.705 1076.22 347.75C1078.4 349.773 1080.14 352.455 1081.43 355.795C1082.73 359.136 1083.38 363.25 1083.38 368.136V371.545H1043.01V364.591H1075.19C1075.19 361.636 1074.6 359 1073.42 356.682C1072.26 354.364 1070.6 352.534 1068.44 351.193C1066.31 349.852 1063.78 349.182 1060.88 349.182C1057.67 349.182 1054.9 349.977 1052.56 351.568C1050.24 353.136 1048.45 355.182 1047.2 357.705C1045.95 360.227 1045.33 362.932 1045.33 365.818V370.455C1045.33 374.409 1046.01 377.761 1047.38 380.511C1048.76 383.239 1050.68 385.318 1053.14 386.75C1055.59 388.159 1058.44 388.864 1061.69 388.864C1063.81 388.864 1065.72 388.568 1067.42 387.977C1069.15 387.364 1070.64 386.455 1071.89 385.25C1073.14 384.023 1074.1 382.5 1074.78 380.682L1082.56 382.864C1081.74 385.5 1080.36 387.818 1078.43 389.818C1076.5 391.795 1074.11 393.341 1071.27 394.455C1068.43 395.545 1065.24 396.091 1061.69 396.091ZM1101.48 395.545C1099.8 395.545 1098.35 394.943 1097.15 393.739C1095.94 392.534 1095.34 391.091 1095.34 389.409C1095.34 387.727 1095.94 386.284 1097.15 385.08C1098.35 383.875 1099.8 383.273 1101.48 383.273C1103.16 383.273 1104.6 383.875 1105.81 385.08C1107.01 386.284 1107.61 387.727 1107.61 389.409C1107.61 390.523 1107.33 391.545 1106.76 392.477C1106.22 393.409 1105.48 394.159 1104.55 394.727C1103.64 395.273 1102.61 395.545 1101.48 395.545Z"/></svg>