<svg xmlns="http://www.w3.org/2000/svg" width="1280" height="720" fill="none" viewBox="0 0 1280 720"><rect width="1280" height="720" fill="#111"/><path fill="#fff" d="M94.2102 349H86.9886C86.5616 346.923 85.8142 345.098 84.7465 343.526C83.6982 341.953 82.4169 340.633 80.9027 339.565C79.4079 338.478 77.7481 337.663 75.9233 337.119C74.0985 336.576 72.196 336.304 70.2159 336.304C66.6051 336.304 63.334 337.216 60.4027 339.041C57.4908 340.866 55.1709 343.555 53.4432 347.107C51.7348 350.66 50.8807 355.018 50.8807 360.182C50.8807 365.346 51.7348 369.704 53.4432 373.256C55.1709 376.809 57.4908 379.498 60.4027 381.322C63.334 383.147 66.6051 384.06 70.2159 384.06C72.196 384.06 74.0985 383.788 75.9233 383.244C77.7481 382.701 79.4079 381.895 80.9027 380.827C82.4169 379.74 83.6982 378.411 84.7465 376.838C85.8142 375.246 86.5616 373.421 86.9886 371.364H94.2102C93.6667 374.411 92.6766 377.139 91.2401 379.546C89.8035 381.953 88.0175 384.001 85.8821 385.69C83.7467 387.36 81.3492 388.631 78.6896 389.505C76.0495 390.379 73.2249 390.815 70.2159 390.815C65.1297 390.815 60.6065 389.573 56.6463 387.088C52.6861 384.603 49.5703 381.07 47.299 376.489C45.0277 371.907 43.892 366.472 43.892 360.182C43.892 353.892 45.0277 348.456 47.299 343.875C49.5703 339.294 52.6861 335.76 56.6463 333.276C60.6065 330.791 65.1297 329.548 70.2159 329.548C73.2249 329.548 76.0495 329.985 78.6896 330.859C81.3492 331.732 83.7467 333.013 85.8821 334.702C88.0175 336.372 89.8035 338.41 91.2401 340.817C92.6766 343.205 93.6667 345.933 94.2102 349ZM123.118 390.932C119.081 390.932 115.538 389.971 112.49 388.049C109.461 386.127 107.093 383.438 105.385 379.983C103.696 376.527 102.851 372.49 102.851 367.869C102.851 363.21 103.696 359.143 105.385 355.668C107.093 352.193 109.461 349.495 112.49 347.573C115.538 345.651 119.081 344.69 123.118 344.69C127.156 344.69 130.689 345.651 133.718 347.573C136.766 349.495 139.134 352.193 140.823 355.668C142.531 359.143 143.385 363.21 143.385 367.869C143.385 372.49 142.531 376.527 140.823 379.983C139.134 383.438 136.766 386.127 133.718 388.049C130.689 389.971 127.156 390.932 123.118 390.932ZM123.118 384.759C126.186 384.759 128.709 383.972 130.689 382.4C132.67 380.827 134.135 378.76 135.086 376.197C136.038 373.635 136.513 370.859 136.513 367.869C136.513 364.88 136.038 362.094 135.086 359.512C134.135 356.93 132.67 354.843 130.689 353.251C128.709 351.66 126.186 350.864 123.118 350.864C120.051 350.864 117.528 351.66 115.547 353.251C113.567 354.843 112.102 356.93 111.15 359.512C110.199 362.094 109.724 364.88 109.724 367.869C109.724 370.859 110.199 373.635 111.15 376.197C112.102 378.76 113.567 380.827 115.547 382.4C117.528 383.972 120.051 384.759 123.118 384.759ZM170.765 390.932C167.038 390.932 163.747 389.99 160.893 388.107C158.04 386.205 155.807 383.526 154.196 380.07C152.585 376.595 151.779 372.49 151.779 367.753C151.779 363.055 152.585 358.978 154.196 355.523C155.807 352.067 158.049 349.398 160.923 347.515C163.796 345.632 167.115 344.69 170.881 344.69C173.793 344.69 176.094 345.176 177.783 346.146C179.491 347.098 180.792 348.185 181.685 349.408C182.597 350.611 183.306 351.601 183.81 352.378H184.393V330.364H191.265V390H184.626V383.128H183.81C183.306 383.943 182.587 384.972 181.656 386.214C180.724 387.437 179.394 388.534 177.666 389.505C175.938 390.456 173.638 390.932 170.765 390.932ZM171.697 384.759C174.453 384.759 176.783 384.04 178.685 382.604C180.588 381.148 182.034 379.138 183.024 376.576C184.014 373.994 184.509 371.014 184.509 367.636C184.509 364.297 184.024 361.376 183.053 358.871C182.083 356.348 180.646 354.387 178.744 352.989C176.841 351.572 174.492 350.864 171.697 350.864C168.785 350.864 166.358 351.611 164.417 353.106C162.495 354.581 161.049 356.59 160.078 359.134C159.127 361.657 158.651 364.491 158.651 367.636C158.651 370.82 159.137 373.713 160.107 376.314C161.097 378.896 162.553 380.954 164.475 382.487C166.416 384.001 168.824 384.759 171.697 384.759ZM204.805 390V345.273H211.678V390H204.805ZM208.3 337.818C206.96 337.818 205.805 337.362 204.835 336.45C203.883 335.537 203.408 334.44 203.408 333.159C203.408 331.878 203.883 330.781 204.835 329.869C205.805 328.956 206.96 328.5 208.3 328.5C209.639 328.5 210.785 328.956 211.736 329.869C212.706 330.781 213.192 331.878 213.192 333.159C213.192 334.44 212.706 335.537 211.736 336.45C210.785 337.362 209.639 337.818 208.3 337.818ZM244.182 345.273V351.097H220.071V345.273H244.182ZM227.293 390V339.099C227.293 336.537 227.895 334.402 229.098 332.693C230.302 330.985 231.865 329.704 233.786 328.849C235.708 327.995 237.737 327.568 239.872 327.568C241.561 327.568 242.94 327.704 244.007 327.976C245.075 328.248 245.871 328.5 246.395 328.733L244.415 334.673C244.066 334.557 243.58 334.411 242.959 334.237C242.357 334.062 241.561 333.974 240.571 333.974C238.3 333.974 236.66 334.547 235.65 335.692C234.66 336.838 234.165 338.517 234.165 340.73V390H227.293ZM253.813 390V345.273H260.685V390H253.813ZM257.308 337.818C255.968 337.818 254.813 337.362 253.842 336.45C252.891 335.537 252.415 334.44 252.415 333.159C252.415 331.878 252.891 330.781 253.842 329.869C254.813 328.956 255.968 328.5 257.308 328.5C258.647 328.5 259.792 328.956 260.744 329.869C261.714 330.781 262.2 331.878 262.2 333.159C262.2 334.44 261.714 335.537 260.744 336.45C259.792 337.362 258.647 337.818 257.308 337.818ZM291.443 390.932C287.249 390.932 283.639 389.942 280.61 387.962C277.582 385.982 275.252 383.254 273.622 379.779C271.991 376.304 271.176 372.334 271.176 367.869C271.176 363.327 272.01 359.318 273.68 355.843C275.369 352.349 277.718 349.621 280.727 347.661C283.755 345.68 287.288 344.69 291.326 344.69C294.471 344.69 297.305 345.273 299.829 346.438C302.353 347.602 304.42 349.233 306.031 351.33C307.643 353.426 308.642 355.872 309.031 358.668H302.159C301.634 356.629 300.47 354.824 298.664 353.251C296.878 351.66 294.471 350.864 291.443 350.864C288.764 350.864 286.415 351.562 284.396 352.96C282.396 354.339 280.834 356.29 279.708 358.813C278.601 361.317 278.048 364.259 278.048 367.636C278.048 371.092 278.591 374.101 279.678 376.663C280.785 379.226 282.338 381.216 284.338 382.633C286.356 384.05 288.725 384.759 291.443 384.759C293.229 384.759 294.85 384.448 296.306 383.827C297.762 383.205 298.994 382.312 300.004 381.148C301.013 379.983 301.731 378.585 302.159 376.955H309.031C308.642 379.595 307.682 381.973 306.148 384.089C304.634 386.185 302.624 387.855 300.12 389.097C297.635 390.32 294.743 390.932 291.443 390.932ZM332.239 391.048C329.405 391.048 326.832 390.514 324.522 389.447C322.212 388.36 320.378 386.797 319.019 384.759C317.66 382.701 316.98 380.216 316.98 377.304C316.98 374.741 317.485 372.664 318.494 371.072C319.504 369.461 320.853 368.199 322.542 367.287C324.231 366.375 326.095 365.695 328.133 365.249C330.191 364.783 332.258 364.414 334.335 364.142C337.053 363.793 339.257 363.531 340.945 363.356C342.654 363.162 343.896 362.841 344.673 362.395C345.469 361.948 345.867 361.172 345.867 360.065V359.832C345.867 356.959 345.08 354.727 343.508 353.135C341.955 351.543 339.596 350.747 336.432 350.747C333.151 350.747 330.579 351.465 328.715 352.902C326.852 354.339 325.541 355.872 324.784 357.503L318.262 355.173C319.426 352.455 320.979 350.339 322.921 348.825C324.881 347.292 327.017 346.224 329.327 345.622C331.656 345.001 333.947 344.69 336.199 344.69C337.636 344.69 339.286 344.865 341.149 345.214C343.032 345.545 344.847 346.234 346.595 347.282C348.361 348.33 349.827 349.912 350.992 352.028C352.156 354.144 352.739 356.979 352.739 360.531V390H345.867V383.943H345.517C345.051 384.914 344.275 385.952 343.188 387.059C342.101 388.165 340.654 389.107 338.849 389.884C337.044 390.66 334.84 391.048 332.239 391.048ZM333.287 384.875C336.005 384.875 338.296 384.341 340.159 383.273C342.042 382.206 343.459 380.827 344.411 379.138C345.381 377.45 345.867 375.673 345.867 373.81V367.52C345.575 367.869 344.935 368.19 343.945 368.481C342.974 368.753 341.848 368.995 340.567 369.209C339.305 369.403 338.072 369.578 336.869 369.733C335.685 369.869 334.724 369.985 333.986 370.082C332.2 370.315 330.53 370.694 328.977 371.218C327.444 371.723 326.201 372.49 325.25 373.518C324.318 374.528 323.852 375.906 323.852 377.653C323.852 380.041 324.736 381.847 326.502 383.07C328.288 384.273 330.55 384.875 333.287 384.875ZM370.29 390.466C368.854 390.466 367.621 389.951 366.592 388.923C365.563 387.894 365.049 386.661 365.049 385.224C365.049 383.788 365.563 382.555 366.592 381.526C367.621 380.497 368.854 379.983 370.29 379.983C371.727 379.983 372.96 380.497 373.989 381.526C375.018 382.555 375.532 383.788 375.532 385.224C375.532 386.176 375.289 387.049 374.804 387.845C374.338 388.641 373.707 389.282 372.911 389.767C372.135 390.233 371.261 390.466 370.29 390.466ZM430.262 390H411.858V330.364H431.077C436.862 330.364 441.812 331.558 445.928 333.945C450.043 336.314 453.198 339.721 455.392 344.166C457.585 348.592 458.682 353.892 458.682 360.065C458.682 366.277 457.576 371.626 455.363 376.11C453.15 380.575 449.927 384.011 445.695 386.418C441.463 388.806 436.319 390 430.262 390ZM419.08 383.594H429.796C434.727 383.594 438.813 382.643 442.055 380.74C445.297 378.838 447.714 376.129 449.306 372.616C450.898 369.102 451.694 364.919 451.694 360.065C451.694 355.251 450.907 351.106 449.335 347.631C447.762 344.137 445.413 341.458 442.288 339.594C439.163 337.711 435.27 336.77 430.611 336.77H419.08V383.594ZM488.617 390.932C484.307 390.932 480.59 389.981 477.464 388.078C474.358 386.156 471.961 383.477 470.272 380.041C468.602 376.586 467.767 372.567 467.767 367.986C467.767 363.404 468.602 359.366 470.272 355.872C471.961 352.358 474.31 349.621 477.319 347.661C480.347 345.68 483.88 344.69 487.918 344.69C490.248 344.69 492.548 345.079 494.819 345.855C497.091 346.632 499.158 347.893 501.022 349.641C502.885 351.368 504.37 353.659 505.477 356.513C506.583 359.366 507.137 362.88 507.137 367.054V369.966H472.659V364.026H500.148C500.148 361.502 499.643 359.25 498.634 357.27C497.644 355.29 496.227 353.727 494.382 352.582C492.558 351.436 490.403 350.864 487.918 350.864C485.181 350.864 482.812 351.543 480.813 352.902C478.833 354.241 477.309 355.989 476.241 358.143C475.173 360.298 474.64 362.608 474.64 365.074V369.034C474.64 372.412 475.222 375.275 476.387 377.624C477.571 379.954 479.211 381.73 481.308 382.953C483.404 384.157 485.841 384.759 488.617 384.759C490.422 384.759 492.053 384.506 493.509 384.001C494.984 383.477 496.256 382.701 497.324 381.672C498.391 380.624 499.216 379.323 499.799 377.77L506.438 379.634C505.739 381.885 504.565 383.866 502.914 385.574C501.264 387.263 499.226 388.583 496.799 389.534C494.373 390.466 491.645 390.932 488.617 390.932ZM549.272 355.29L543.099 357.037C542.711 356.008 542.138 355.008 541.381 354.038C540.643 353.048 539.634 352.232 538.353 351.592C537.071 350.951 535.431 350.631 533.431 350.631C530.694 350.631 528.413 351.262 526.588 352.523C524.783 353.766 523.88 355.348 523.88 357.27C523.88 358.978 524.502 360.327 525.744 361.317C526.986 362.308 528.928 363.133 531.568 363.793L538.207 365.423C542.206 366.394 545.186 367.879 547.147 369.879C549.107 371.859 550.088 374.411 550.088 377.537C550.088 380.099 549.35 382.39 547.875 384.409C546.419 386.428 544.38 388.02 541.76 389.185C539.139 390.349 536.091 390.932 532.616 390.932C528.054 390.932 524.278 389.942 521.289 387.962C518.299 385.982 516.406 383.089 515.61 379.284L522.133 377.653C522.754 380.061 523.929 381.866 525.657 383.07C527.404 384.273 529.685 384.875 532.5 384.875C535.703 384.875 538.246 384.196 540.129 382.837C542.031 381.458 542.983 379.808 542.983 377.886C542.983 376.333 542.439 375.033 541.352 373.984C540.265 372.917 538.595 372.121 536.343 371.597L528.889 369.849C524.793 368.879 521.784 367.374 519.862 365.336C517.959 363.278 517.008 360.706 517.008 357.619C517.008 355.096 517.717 352.863 519.134 350.922C520.57 348.981 522.521 347.457 524.987 346.35C527.472 345.244 530.287 344.69 533.431 344.69C537.858 344.69 541.333 345.661 543.856 347.602C546.399 349.544 548.205 352.106 549.272 355.29ZM560.432 406.773V345.273H567.072V352.378H567.887C568.392 351.601 569.09 350.611 569.983 349.408C570.896 348.185 572.197 347.098 573.885 346.146C575.594 345.176 577.904 344.69 580.816 344.69C584.582 344.69 587.902 345.632 590.775 347.515C593.648 349.398 595.89 352.067 597.501 355.523C599.113 358.978 599.918 363.055 599.918 367.753C599.918 372.49 599.113 376.595 597.501 380.07C595.89 383.526 593.657 386.205 590.804 388.107C587.95 389.99 584.66 390.932 580.932 390.932C578.059 390.932 575.759 390.456 574.031 389.505C572.303 388.534 570.974 387.437 570.042 386.214C569.11 384.972 568.392 383.943 567.887 383.128H567.305V406.773H560.432ZM567.188 367.636C567.188 371.014 567.683 373.994 568.673 376.576C569.663 379.138 571.109 381.148 573.012 382.604C574.914 384.04 577.244 384.759 580.001 384.759C582.874 384.759 585.271 384.001 587.193 382.487C589.134 380.954 590.59 378.896 591.561 376.314C592.551 373.713 593.046 370.82 593.046 367.636C593.046 364.491 592.561 361.657 591.59 359.134C590.639 356.59 589.193 354.581 587.251 353.106C585.329 351.611 582.912 350.864 580.001 350.864C577.205 350.864 574.856 351.572 572.954 352.989C571.051 354.387 569.615 356.348 568.644 358.871C567.673 361.376 567.188 364.297 567.188 367.636ZM617.273 330.364V390H610.401V330.364H617.273ZM629.86 390V345.273H636.732V390H629.86ZM633.354 337.818C632.015 337.818 630.86 337.362 629.889 336.45C628.938 335.537 628.462 334.44 628.462 333.159C628.462 331.878 628.938 330.781 629.889 329.869C630.86 328.956 632.015 328.5 633.354 328.5C634.694 328.5 635.839 328.956 636.79 329.869C637.761 330.781 638.246 331.878 638.246 333.159C638.246 334.44 637.761 335.537 636.79 336.45C635.839 337.362 634.694 337.818 633.354 337.818ZM668.072 390.932C663.762 390.932 660.045 389.981 656.919 388.078C653.813 386.156 651.416 383.477 649.727 380.041C648.057 376.586 647.222 372.567 647.222 367.986C647.222 363.404 648.057 359.366 649.727 355.872C651.416 352.358 653.765 349.621 656.774 347.661C659.802 345.68 663.335 344.69 667.373 344.69C669.703 344.69 672.003 345.079 674.274 345.855C676.546 346.632 678.613 347.893 680.477 349.641C682.34 351.368 683.825 353.659 684.932 356.513C686.039 359.366 686.592 362.88 686.592 367.054V369.966H652.115V364.026H679.603C679.603 361.502 679.098 359.25 678.089 357.27C677.099 355.29 675.682 353.727 673.838 352.582C672.013 351.436 669.858 350.864 667.373 350.864C664.636 350.864 662.267 351.543 660.268 352.902C658.288 354.241 656.764 355.989 655.696 358.143C654.628 360.298 654.095 362.608 654.095 365.074V369.034C654.095 372.412 654.677 375.275 655.842 377.624C657.026 379.954 658.666 381.73 660.763 382.953C662.86 384.157 665.296 384.759 668.072 384.759C669.877 384.759 671.508 384.506 672.964 384.001C674.439 383.477 675.711 382.701 676.779 381.672C677.846 380.624 678.671 379.323 679.254 377.77L685.893 379.634C685.194 381.885 684.02 383.866 682.369 385.574C680.719 387.263 678.681 388.583 676.254 389.534C673.828 390.466 671.1 390.932 668.072 390.932ZM715.1 407.705C711.78 407.705 708.926 407.277 706.539 406.423C704.151 405.589 702.161 404.482 700.569 403.104C698.997 401.745 697.744 400.289 696.813 398.736L702.287 394.892C702.908 395.707 703.695 396.639 704.646 397.688C705.597 398.755 706.898 399.677 708.548 400.454C710.217 401.25 712.401 401.648 715.1 401.648C718.71 401.648 721.69 400.774 724.039 399.027C726.388 397.28 727.563 394.543 727.563 390.815V381.73H726.98C726.476 382.545 725.757 383.555 724.825 384.759C723.913 385.943 722.593 387.001 720.865 387.933C719.157 388.845 716.847 389.301 713.935 389.301C710.324 389.301 707.082 388.447 704.209 386.739C701.355 385.03 699.094 382.545 697.424 379.284C695.774 376.023 694.949 372.062 694.949 367.403C694.949 362.822 695.755 358.833 697.366 355.435C698.977 352.019 701.219 349.379 704.093 347.515C706.966 345.632 710.285 344.69 714.051 344.69C716.963 344.69 719.273 345.176 720.982 346.146C722.709 347.098 724.03 348.185 724.942 349.408C725.874 350.611 726.592 351.601 727.097 352.378H727.796V345.273H734.435V391.281C734.435 395.125 733.561 398.25 731.814 400.658C730.086 403.084 727.757 404.861 724.825 405.987C721.914 407.132 718.672 407.705 715.1 407.705ZM714.867 383.128C717.623 383.128 719.953 382.497 721.855 381.235C723.758 379.973 725.204 378.158 726.194 375.79C727.184 373.421 727.679 370.587 727.679 367.287C727.679 364.064 727.194 361.22 726.223 358.755C725.253 356.29 723.816 354.358 721.914 352.96C720.011 351.562 717.662 350.864 714.867 350.864C711.955 350.864 709.528 351.601 707.587 353.077C705.665 354.552 704.219 356.532 703.248 359.017C702.297 361.502 701.821 364.259 701.821 367.287C701.821 370.393 702.307 373.14 703.277 375.528C704.267 377.896 705.723 379.76 707.645 381.119C709.586 382.458 711.994 383.128 714.867 383.128ZM760.176 391.048C757.342 391.048 754.77 390.514 752.46 389.447C750.15 388.36 748.315 386.797 746.956 384.759C745.597 382.701 744.918 380.216 744.918 377.304C744.918 374.741 745.423 372.664 746.432 371.072C747.441 369.461 748.791 368.199 750.48 367.287C752.169 366.375 754.032 365.695 756.07 365.249C758.128 364.783 760.196 364.414 762.273 364.142C764.991 363.793 767.194 363.531 768.883 363.356C770.591 363.162 771.834 362.841 772.61 362.395C773.406 361.948 773.804 361.172 773.804 360.065V359.832C773.804 356.959 773.018 354.727 771.445 353.135C769.892 351.543 767.534 350.747 764.369 350.747C761.089 350.747 758.517 351.465 756.653 352.902C754.789 354.339 753.479 355.872 752.722 357.503L746.199 355.173C747.364 352.455 748.917 350.339 750.858 348.825C752.819 347.292 754.954 346.224 757.264 345.622C759.594 345.001 761.885 344.69 764.137 344.69C765.573 344.69 767.223 344.865 769.087 345.214C770.97 345.545 772.785 346.234 774.532 347.282C776.299 348.33 777.764 349.912 778.929 352.028C780.094 354.144 780.676 356.979 780.676 360.531V390H773.804V383.943H773.455C772.989 384.914 772.212 385.952 771.125 387.059C770.038 388.165 768.592 389.107 766.786 389.884C764.981 390.66 762.778 391.048 760.176 391.048ZM761.225 384.875C763.942 384.875 766.233 384.341 768.097 383.273C769.98 382.206 771.397 380.827 772.348 379.138C773.319 377.45 773.804 375.673 773.804 373.81V367.52C773.513 367.869 772.872 368.19 771.882 368.481C770.912 368.753 769.786 368.995 768.504 369.209C767.243 369.403 766.01 369.578 764.806 369.733C763.622 369.869 762.661 369.985 761.923 370.082C760.137 370.315 758.468 370.694 756.915 371.218C755.381 371.723 754.139 372.49 753.188 373.518C752.256 374.528 751.79 375.906 751.79 377.653C751.79 380.041 752.673 381.847 754.44 383.07C756.226 384.273 758.487 384.875 761.225 384.875ZM798.228 390.466C796.791 390.466 795.559 389.951 794.53 388.923C793.501 387.894 792.987 386.661 792.987 385.224C792.987 383.788 793.501 382.555 794.53 381.526C795.559 380.497 796.791 379.983 798.228 379.983C799.665 379.983 800.897 380.497 801.926 381.526C802.955 382.555 803.469 383.788 803.469 385.224C803.469 386.176 803.227 387.049 802.741 387.845C802.276 388.641 801.645 389.282 800.849 389.767C800.072 390.233 799.199 390.466 798.228 390.466ZM887.784 349H880.563C880.136 346.923 879.388 345.098 878.321 343.526C877.272 341.953 875.991 340.633 874.477 339.565C872.982 338.478 871.322 337.663 869.498 337.119C867.673 336.576 865.77 336.304 863.79 336.304C860.179 336.304 856.908 337.216 853.977 339.041C851.065 340.866 848.745 343.555 847.017 347.107C845.309 350.66 844.455 355.018 844.455 360.182C844.455 365.346 845.309 369.704 847.017 373.256C848.745 376.809 851.065 379.498 853.977 381.322C856.908 383.147 860.179 384.06 863.79 384.06C865.77 384.06 867.673 383.788 869.498 383.244C871.322 382.701 872.982 381.895 874.477 380.827C875.991 379.74 877.272 378.411 878.321 376.838C879.388 375.246 880.136 373.421 880.563 371.364H887.784C887.241 374.411 886.251 377.139 884.814 379.546C883.378 381.953 881.592 384.001 879.456 385.69C877.321 387.36 874.923 388.631 872.264 389.505C869.624 390.379 866.799 390.815 863.79 390.815C858.704 390.815 854.181 389.573 850.221 387.088C846.26 384.603 843.145 381.07 840.873 376.489C838.602 371.907 837.466 366.472 837.466 360.182C837.466 353.892 838.602 348.456 840.873 343.875C843.145 339.294 846.26 335.76 850.221 333.276C854.181 330.791 858.704 329.548 863.79 329.548C866.799 329.548 869.624 329.985 872.264 330.859C874.923 331.732 877.321 333.013 879.456 334.702C881.592 336.372 883.378 338.41 884.814 340.817C886.251 343.205 887.241 345.933 887.784 349ZM916.693 390.932C912.655 390.932 909.112 389.971 906.064 388.049C903.036 386.127 900.667 383.438 898.959 379.983C897.27 376.527 896.426 372.49 896.426 367.869C896.426 363.21 897.27 359.143 898.959 355.668C900.667 352.193 903.036 349.495 906.064 347.573C909.112 345.651 912.655 344.69 916.693 344.69C920.731 344.69 924.264 345.651 927.292 347.573C930.34 349.495 932.708 352.193 934.397 355.668C936.106 359.143 936.96 363.21 936.96 367.869C936.96 372.49 936.106 376.527 934.397 379.983C932.708 383.438 930.34 386.127 927.292 388.049C924.264 389.971 920.731 390.932 916.693 390.932ZM916.693 384.759C919.76 384.759 922.284 383.972 924.264 382.4C926.244 380.827 927.709 378.76 928.661 376.197C929.612 373.635 930.088 370.859 930.088 367.869C930.088 364.88 929.612 362.094 928.661 359.512C927.709 356.93 926.244 354.843 924.264 353.251C922.284 351.66 919.76 350.864 916.693 350.864C913.625 350.864 911.102 351.66 909.122 353.251C907.142 354.843 905.676 356.93 904.725 359.512C903.773 362.094 903.298 364.88 903.298 367.869C903.298 370.859 903.773 373.635 904.725 376.197C905.676 378.76 907.142 380.827 909.122 382.4C911.102 383.972 913.625 384.759 916.693 384.759ZM947.45 390V345.273H954.089V352.261H954.672C955.603 349.874 957.108 348.02 959.185 346.7C961.262 345.36 963.757 344.69 966.669 344.69C969.619 344.69 972.075 345.36 974.036 346.7C976.016 348.02 977.559 349.874 978.666 352.261H979.132C980.277 349.951 981.995 348.117 984.286 346.758C986.577 345.379 989.324 344.69 992.527 344.69C996.526 344.69 999.797 345.942 1002.34 348.447C1004.88 350.932 1006.15 354.804 1006.15 360.065V390H999.282V360.065C999.282 356.765 998.38 354.406 996.574 352.989C994.769 351.572 992.643 350.864 990.197 350.864C987.052 350.864 984.616 351.815 982.888 353.717C981.16 355.6 980.297 357.988 980.297 360.881V390H973.308V359.366C973.308 356.823 972.483 354.775 970.833 353.222C969.183 351.65 967.057 350.864 964.456 350.864C962.67 350.864 961 351.339 959.447 352.29C957.913 353.242 956.671 354.562 955.72 356.251C954.788 357.92 954.322 359.852 954.322 362.045V390H947.45ZM1018.72 406.773V345.273H1025.36V352.378H1026.17C1026.68 351.601 1027.38 350.611 1028.27 349.408C1029.18 348.185 1030.48 347.098 1032.17 346.146C1033.88 345.176 1036.19 344.69 1039.1 344.69C1042.87 344.69 1046.19 345.632 1049.06 347.515C1051.93 349.398 1054.18 352.067 1055.79 355.523C1057.4 358.978 1058.21 363.055 1058.21 367.753C1058.21 372.49 1057.4 376.595 1055.79 380.07C1054.18 383.526 1051.94 386.205 1049.09 388.107C1046.24 389.99 1042.95 390.932 1039.22 390.932C1036.35 390.932 1034.05 390.456 1032.32 389.505C1030.59 388.534 1029.26 387.437 1028.33 386.214C1027.4 384.972 1026.68 383.943 1026.17 383.128H1025.59V406.773H1018.72ZM1025.48 367.636C1025.48 371.014 1025.97 373.994 1026.96 376.576C1027.95 379.138 1029.4 381.148 1031.3 382.604C1033.2 384.04 1035.53 384.759 1038.29 384.759C1041.16 384.759 1043.56 384.001 1045.48 382.487C1047.42 380.954 1048.88 378.896 1049.85 376.314C1050.84 373.713 1051.33 370.82 1051.33 367.636C1051.33 364.491 1050.85 361.657 1049.88 359.134C1048.93 356.59 1047.48 354.581 1045.54 353.106C1043.62 351.611 1041.2 350.864 1038.29 350.864C1035.49 350.864 1033.14 351.572 1031.24 352.989C1029.34 354.387 1027.9 356.348 1026.93 358.871C1025.96 361.376 1025.48 364.297 1025.48 367.636ZM1081.85 391.048C1079.02 391.048 1076.44 390.514 1074.13 389.447C1071.82 388.36 1069.99 386.797 1068.63 384.759C1067.27 382.701 1066.59 380.216 1066.59 377.304C1066.59 374.741 1067.1 372.664 1068.11 371.072C1069.12 369.461 1070.46 368.199 1072.15 367.287C1073.84 366.375 1075.71 365.695 1077.74 365.249C1079.8 364.783 1081.87 364.414 1083.95 364.142C1086.66 363.793 1088.87 363.531 1090.56 363.356C1092.27 363.162 1093.51 362.841 1094.28 362.395C1095.08 361.948 1095.48 361.172 1095.48 360.065V359.832C1095.48 356.959 1094.69 354.727 1093.12 353.135C1091.57 351.543 1089.21 350.747 1086.04 350.747C1082.76 350.747 1080.19 351.465 1078.33 352.902C1076.46 354.339 1075.15 355.872 1074.4 357.503L1067.87 355.173C1069.04 352.455 1070.59 350.339 1072.53 348.825C1074.49 347.292 1076.63 346.224 1078.94 345.622C1081.27 345.001 1083.56 344.69 1085.81 344.69C1087.25 344.69 1088.9 344.865 1090.76 345.214C1092.64 345.545 1094.46 346.234 1096.21 347.282C1097.97 348.33 1099.44 349.912 1100.6 352.028C1101.77 354.144 1102.35 356.979 1102.35 360.531V390H1095.48V383.943H1095.13C1094.66 384.914 1093.89 385.952 1092.8 387.059C1091.71 388.165 1090.27 389.107 1088.46 389.884C1086.65 390.66 1084.45 391.048 1081.85 391.048ZM1082.9 384.875C1085.62 384.875 1087.91 384.341 1089.77 383.273C1091.65 382.206 1093.07 380.827 1094.02 379.138C1094.99 377.45 1095.48 375.673 1095.48 373.81V367.52C1095.19 367.869 1094.55 368.19 1093.56 368.481C1092.59 368.753 1091.46 368.995 1090.18 369.209C1088.92 369.403 1087.68 369.578 1086.48 369.733C1085.3 369.869 1084.33 369.985 1083.6 370.082C1081.81 370.315 1080.14 370.694 1078.59 371.218C1077.06 371.723 1075.81 372.49 1074.86 373.518C1073.93 374.528 1073.46 375.906 1073.46 377.653C1073.46 380.041 1074.35 381.847 1076.11 383.07C1077.9 384.273 1080.16 384.875 1082.9 384.875ZM1114.89 390V345.273H1121.53V352.028H1122C1122.81 349.815 1124.29 348.02 1126.42 346.641C1128.56 345.263 1130.97 344.574 1133.65 344.574C1134.15 344.574 1134.78 344.584 1135.54 344.603C1136.3 344.622 1136.87 344.652 1137.26 344.69V351.679C1137.02 351.621 1136.49 351.533 1135.66 351.417C1134.84 351.281 1133.98 351.213 1133.06 351.213C1130.89 351.213 1128.95 351.669 1127.24 352.582C1125.55 353.475 1124.21 354.717 1123.22 356.309C1122.25 357.881 1121.77 359.677 1121.77 361.696V390H1114.89ZM1167.66 345.273V351.097H1144.48V345.273H1167.66ZM1151.23 334.557H1158.11V377.188C1158.11 379.129 1158.39 380.585 1158.95 381.555C1159.53 382.507 1160.27 383.147 1161.16 383.477C1162.08 383.788 1163.04 383.943 1164.05 383.943C1164.8 383.943 1165.43 383.904 1165.91 383.827C1166.4 383.73 1166.78 383.652 1167.08 383.594L1168.47 389.767C1168.01 389.942 1167.36 390.116 1166.52 390.291C1165.69 390.485 1164.63 390.582 1163.35 390.582C1161.41 390.582 1159.5 390.165 1157.64 389.33C1155.8 388.496 1154.26 387.224 1153.04 385.516C1151.84 383.807 1151.23 381.652 1151.23 379.051V334.557ZM1196.27 390.932C1191.96 390.932 1188.24 389.981 1185.11 388.078C1182.01 386.156 1179.61 383.477 1177.92 380.041C1176.25 376.586 1175.42 372.567 1175.42 367.986C1175.42 363.404 1176.25 359.366 1177.92 355.872C1179.61 352.358 1181.96 349.621 1184.97 347.661C1188 345.68 1191.53 344.69 1195.57 344.69C1197.9 344.69 1200.2 345.079 1202.47 345.855C1204.74 346.632 1206.81 347.893 1208.67 349.641C1210.54 351.368 1212.02 353.659 1213.13 356.513C1214.23 359.366 1214.79 362.88 1214.79 367.054V369.966H1180.31V364.026H1207.8C1207.8 361.502 1207.29 359.25 1206.28 357.27C1205.29 355.29 1203.88 353.727 1202.03 352.582C1200.21 351.436 1198.05 350.864 1195.57 350.864C1192.83 350.864 1190.46 351.543 1188.46 352.902C1186.48 354.241 1184.96 355.989 1183.89 358.143C1182.82 360.298 1182.29 362.608 1182.29 365.074V369.034C1182.29 372.412 1182.87 375.275 1184.04 377.624C1185.22 379.954 1186.86 381.73 1188.96 382.953C1191.05 384.157 1193.49 384.759 1196.27 384.759C1198.07 384.759 1199.7 384.506 1201.16 384.001C1202.63 383.477 1203.91 382.701 1204.97 381.672C1206.04 380.624 1206.87 379.323 1207.45 377.77L1214.09 379.634C1213.39 381.885 1212.21 383.866 1210.56 385.574C1208.91 387.263 1206.88 388.583 1204.45 389.534C1202.02 390.466 1199.3 390.932 1196.27 390.932ZM1230.25 390.466C1228.81 390.466 1227.58 389.951 1226.55 388.923C1225.52 387.894 1225.01 386.661 1225.01 385.224C1225.01 383.788 1225.52 382.555 1226.55 381.526C1227.58 380.497 1228.81 379.983 1230.25 379.983C1231.69 379.983 1232.92 380.497 1233.95 381.526C1234.98 382.555 1235.49 383.788 1235.49 385.224C1235.49 386.176 1235.25 387.049 1234.76 387.845C1234.3 388.641 1233.67 389.282 1232.87 389.767C1232.09 390.233 1231.22 390.466 1230.25 390.466Z"/></svg>