<svg xmlns="http://www.w3.org/2000/svg" width="486" height="300" viewBox="0 0 486 300" fill="none">
  <path opacity="0.5"
    d="M102 129L317.043 129.263C336.356 129.287 352 144.95 352 164.263V204.629C352 224.029 367.779 239.728 387.179 239.629L412 239.502"
    stroke="#FF3B7C" stroke-width="12" />
  <path opacity="0.5"
    d="M102 164H291.221C306.685 164 319.221 151.464 319.221 136V136C319.221 120.536 331.757 108 347.221 108H412"
    stroke="#FFC107" stroke-width="12" />
  <path opacity="0.5" d="M152 81V81C152 64.9837 164.984 52 181 52H195.5H239" stroke="#0080FF" stroke-opacity="0.5"
    stroke-width="12" />
  <path opacity="0.5"
    d="M436.148 216.476L436.149 211.346C436.151 192.016 420.483 176.344 401.153 176.342L299.004 176.33C279.674 176.328 264.006 160.656 264.008 141.326L264.016 76.0001"
    stroke="#0080FF" stroke-opacity="0.5" stroke-width="12" />
  <path d="M279 247H411.5" stroke="#01E0CB" stroke-opacity="0.3" stroke-width="12" />
  <path opacity="0.5" d="M102 111H170C189.33 111 205 126.67 205 146V223C205 236.255 215.745 247 229 247V247"
    stroke="#01E0CB" stroke-opacity="0.5" stroke-width="12" />
  <rect x="239.5" y="26.5" width="49" height="49" rx="5.5" stroke="#D4D4D4" />
  <rect x="411.5" y="216.5" width="49" height="49" rx="5.5" stroke="#D4D4D4" />
  <rect x="229.5" y="224.5" width="49" height="49" rx="5.5" stroke="#D4D4D4" />
  <path
    d="M418 83.5H456C459.038 83.5 461.5 85.9624 461.5 89V127C461.5 130.038 459.038 132.5 456 132.5H418C414.962 132.5 412.5 130.038 412.5 127V89C412.5 85.9624 414.962 83.5 418 83.5Z"
    stroke="#D4D4D4" />
  <path
    d="M23.5 53C23.5 51.067 25.067 49.5 27 49.5H132.957C134.89 49.5 136.457 51.067 136.457 53V205C136.457 206.933 134.89 208.5 132.957 208.5H27C25.067 208.5 23.5 206.933 23.5 205V65.2667V53Z"
    fill="#1E1E1E" stroke="#D4D4D4" />
  <ellipse cx="32.3792" cy="56.7234" rx="2.81375" ry="2.89626" fill="#ED6559" />
  <ellipse cx="41.7583" cy="56.7234" rx="2.81375" ry="2.89626" fill="#E1C04C" />
  <ellipse cx="51.1375" cy="56.7234" rx="2.81375" ry="2.89626" fill="#72BE47" />
  <rect x="24.1511" y="63.9639" width="111.655" height="123.165" fill="#1E1E1E" />
  <rect x="61.558" y="50.1509" width="37.8697" height="13.8129" fill="#1E1E1E" />
  <rect x="39.1216" y="123.505" width="15.2321" height="2.78561" rx="1.39281" fill="#CF666F" />
  <rect x="31.0576" y="68.7217" width="11.3494" height="2.78561" rx="1.39281" fill="#BB73D1" />
  <rect x="43.9003" y="68.7217" width="17.9201" height="2.78561" rx="1.39281" fill="#E5C07B" />
  <rect x="63.3137" y="68.7217" width="10.1547" height="2.78561" rx="1.39281" fill="#BB73D1" />
  <rect x="75.1166" y="68.5684" width="42.9269" height="3.45324" rx="1.72662" fill="#7C9D67" />
  <rect x="43.0043" y="76.6147" width="8.96003" height="2.78561" rx="1.39281" fill="#E5C07B" />
  <rect x="57.639" y="76.6147" width="8.96003" height="2.78561" rx="1.39281" fill="#CF666F" />
  <rect x="67.7937" y="76.6147" width="19.7121" height="2.78561" rx="1.39281" fill="#55B4C0" />
  <rect x="97.6605" y="76.6147" width="14.9334" height="2.78561" rx="1.39281" fill="#55B4C0" />
  <rect x="53.159" y="76.6147" width="3.28535" height="2.78561" rx="1.39281" fill="#55B4C0" />
  <rect x="88.7004" y="76.6147" width="7.76536" height="2.78561" rx="1.39281" fill="#CF666F" />
  <rect x="113.525" y="76.626" width="18.8276" height="2.78561" rx="1.39281" fill="#7C9D67" />
  <rect x="31.0576" y="76.6147" width="10.752" height="2.78561" rx="1.39281" fill="#BB73D1" />
  <rect x="88.7004" y="99.8281" width="9.2587" height="2.78561" rx="1.39281" fill="#E5C07B" />
  <rect x="31.0576" y="99.8281" width="55.2535" height="2.78561" rx="1.39281" fill="#BB73D1" />
  <rect x="65.703" y="84.5068" width="16.7254" height="2.78561" rx="1.39281" fill="#55B4C0" />
  <rect x="50.471" y="84.5068" width="3.28535" height="2.78561" rx="1.39281" fill="#55B4C0" />
  <rect x="55.2496" y="84.5068" width="8.96003" height="2.78561" rx="1.39281" fill="#CF666F" />
  <rect x="42.4069" y="84.5068" width="6.57069" height="2.78561" rx="1.39281" fill="#E5C07B" />
  <rect x="83.9217" y="84.5068" width="23.8934" height="2.78561" rx="1.39281" fill="#7C9D67" />
  <rect x="31.0576" y="84.5068" width="9.85604" height="2.78561" rx="1.39281" fill="#BB73D1" />
  <rect x="35.2389" y="115.613" width="14.9334" height="2.78561" rx="1.39281" fill="#BB73D1" />
  <rect x="45.6923" y="107.721" width="7.16803" height="2.78561" rx="1.39281" fill="#E5C07B" />
  <rect x="54.6523" y="107.721" width="3.28535" height="2.78561" rx="1.39281" fill="#55B4C0" />
  <rect x="78.8821" y="107.705" width="22.5931" height="2.78561" rx="1.39281" fill="#55B4C0" />
  <rect x="101.273" y="99.6475" width="22.5931" height="2.78561" rx="1.39281" fill="#55B4C0" />
  <rect x="71.3777" y="107.721" width="5.97336" height="2.78561" rx="1.39281" fill="#CF666F" />
  <rect x="102.424" y="107.705" width="26.4748" height="2.30216" rx="1.15108" fill="#7C9D67" />
  <rect x="35.2389" y="107.721" width="8.96003" height="2.78561" rx="1.39281" fill="#BB73D1" />
  <rect x="59.7296" y="107.721" width="9.85604" height="2.78561" rx="1.39281" fill="#BB73D1" />
  <rect x="42.7056" y="130.934" width="48.3842" height="2.78561" rx="1.39281" fill="#CF666F" />
  <rect x="52.9281" y="115.763" width="78.2734" height="2.30216" rx="1.15108" fill="#CF666F" />
  <path
    d="M65.4141 54.3125V60H64.6602V54.3125H65.4141ZM67.7969 56.8711V57.4883H65.25V56.8711H67.7969ZM68.1836 54.3125V54.9297H65.25V54.3125H68.1836ZM68.6953 57.9336V57.8438C68.6953 57.5391 68.7396 57.2565 68.8281 56.9961C68.9167 56.7331 69.0443 56.5052 69.2109 56.3125C69.3776 56.1172 69.5794 55.9661 69.8164 55.8594C70.0534 55.75 70.319 55.6953 70.6133 55.6953C70.9102 55.6953 71.1771 55.75 71.4141 55.8594C71.6536 55.9661 71.8568 56.1172 72.0234 56.3125C72.1927 56.5052 72.3216 56.7331 72.4102 56.9961C72.4987 57.2565 72.543 57.5391 72.543 57.8438V57.9336C72.543 58.2383 72.4987 58.5208 72.4102 58.7812C72.3216 59.0417 72.1927 59.2695 72.0234 59.4648C71.8568 59.6576 71.6549 59.8086 71.418 59.918C71.1836 60.0247 70.918 60.0781 70.6211 60.0781C70.3242 60.0781 70.0573 60.0247 69.8203 59.918C69.5833 59.8086 69.3802 59.6576 69.2109 59.4648C69.0443 59.2695 68.9167 59.0417 68.8281 58.7812C68.7396 58.5208 68.6953 58.2383 68.6953 57.9336ZM69.418 57.8438V57.9336C69.418 58.1445 69.4427 58.3438 69.4922 58.5312C69.5417 58.7161 69.6159 58.8802 69.7148 59.0234C69.8164 59.1667 69.9427 59.2799 70.0938 59.3633C70.2448 59.444 70.4206 59.4844 70.6211 59.4844C70.819 59.4844 70.9922 59.444 71.1406 59.3633C71.2917 59.2799 71.4167 59.1667 71.5156 59.0234C71.6146 58.8802 71.6888 58.7161 71.7383 58.5312C71.7904 58.3438 71.8164 58.1445 71.8164 57.9336V57.8438C71.8164 57.6354 71.7904 57.4388 71.7383 57.2539C71.6888 57.0664 71.6133 56.901 71.5117 56.7578C71.4128 56.612 71.2878 56.4974 71.1367 56.4141C70.9883 56.3307 70.8138 56.2891 70.6133 56.2891C70.4154 56.2891 70.2409 56.3307 70.0898 56.4141C69.9414 56.4974 69.8164 56.612 69.7148 56.7578C69.6159 56.901 69.5417 57.0664 69.4922 57.2539C69.4427 57.4388 69.418 57.6354 69.418 57.8438ZM74.1719 56.4375V60H73.4492V55.7734H74.1523L74.1719 56.4375ZM75.4922 55.75L75.4883 56.4219C75.4284 56.4089 75.3711 56.401 75.3164 56.3984C75.2643 56.3932 75.2044 56.3906 75.1367 56.3906C74.9701 56.3906 74.8229 56.4167 74.6953 56.4688C74.5677 56.5208 74.4596 56.5938 74.3711 56.6875C74.2826 56.7812 74.2122 56.8932 74.1602 57.0234C74.1107 57.151 74.0781 57.2917 74.0625 57.4453L73.8594 57.5625C73.8594 57.3073 73.8841 57.0677 73.9336 56.8438C73.9857 56.6198 74.0651 56.4219 74.1719 56.25C74.2786 56.0755 74.4141 55.9401 74.5781 55.8438C74.7448 55.7448 74.9427 55.6953 75.1719 55.6953C75.224 55.6953 75.2839 55.7018 75.3516 55.7148C75.4193 55.7253 75.4661 55.737 75.4922 55.75ZM76.8789 56.6133V60H76.1523V55.7734H76.8398L76.8789 56.6133ZM76.7305 57.7266L76.3945 57.7148C76.3971 57.4258 76.4349 57.1589 76.5078 56.9141C76.5807 56.6667 76.6888 56.4518 76.832 56.2695C76.9753 56.0872 77.1536 55.9466 77.3672 55.8477C77.5807 55.7461 77.8281 55.6953 78.1094 55.6953C78.3073 55.6953 78.4896 55.724 78.6562 55.7812C78.8229 55.8359 78.9674 55.9232 79.0898 56.043C79.2122 56.1628 79.3073 56.3164 79.375 56.5039C79.4427 56.6914 79.4766 56.918 79.4766 57.1836V60H78.7539V57.2188C78.7539 56.9974 78.7161 56.8203 78.6406 56.6875C78.5677 56.5547 78.4635 56.4583 78.3281 56.3984C78.1927 56.3359 78.0339 56.3047 77.8516 56.3047C77.638 56.3047 77.4596 56.3424 77.3164 56.418C77.1732 56.4935 77.0586 56.5977 76.9727 56.7305C76.8867 56.8633 76.8242 57.0156 76.7852 57.1875C76.7487 57.3568 76.7305 57.5365 76.7305 57.7266ZM79.4688 57.3281L78.9844 57.4766C78.987 57.2448 79.0247 57.0221 79.0977 56.8086C79.1732 56.5951 79.2812 56.4049 79.4219 56.2383C79.5651 56.0716 79.7409 55.9401 79.9492 55.8438C80.1576 55.7448 80.3958 55.6953 80.6641 55.6953C80.8906 55.6953 81.0911 55.7253 81.2656 55.7852C81.4427 55.8451 81.5911 55.9375 81.7109 56.0625C81.8333 56.1849 81.9258 56.3424 81.9883 56.5352C82.0508 56.7279 82.082 56.957 82.082 57.2227V60H81.3555V57.2148C81.3555 56.9779 81.3177 56.7943 81.2422 56.6641C81.1693 56.5312 81.0651 56.4388 80.9297 56.3867C80.7969 56.332 80.638 56.3047 80.4531 56.3047C80.2943 56.3047 80.1536 56.332 80.0312 56.3867C79.9089 56.4414 79.806 56.5169 79.7227 56.6133C79.6393 56.707 79.5755 56.8151 79.5312 56.9375C79.4896 57.0599 79.4688 57.1901 79.4688 57.3281ZM83.1875 59.6172C83.1875 59.4948 83.2253 59.3919 83.3008 59.3086C83.3789 59.2227 83.4909 59.1797 83.6367 59.1797C83.7826 59.1797 83.8932 59.2227 83.9688 59.3086C84.0469 59.3919 84.0859 59.4948 84.0859 59.6172C84.0859 59.737 84.0469 59.8385 83.9688 59.9219C83.8932 60.0052 83.7826 60.0469 83.6367 60.0469C83.4909 60.0469 83.3789 60.0052 83.3008 59.9219C83.2253 59.8385 83.1875 59.737 83.1875 59.6172ZM87.0547 55.7734V56.3281H84.7695V55.7734H87.0547ZM85.543 54.7461H86.2656V58.9531C86.2656 59.0964 86.2878 59.2044 86.332 59.2773C86.3763 59.3503 86.4336 59.3984 86.5039 59.4219C86.5742 59.4453 86.6497 59.457 86.7305 59.457C86.7904 59.457 86.8529 59.4518 86.918 59.4414C86.9857 59.4284 87.0365 59.418 87.0703 59.4102L87.0742 60C87.0169 60.0182 86.9414 60.0352 86.8477 60.0508C86.7565 60.069 86.6458 60.0781 86.5156 60.0781C86.3385 60.0781 86.1758 60.043 86.0273 59.9727C85.8789 59.9023 85.7604 59.7852 85.6719 59.6211C85.5859 59.4544 85.543 59.2305 85.543 58.9492V54.7461ZM90.3633 58.8789C90.3633 58.7747 90.3398 58.6784 90.293 58.5898C90.2487 58.4987 90.1562 58.4167 90.0156 58.3438C89.8776 58.2682 89.6693 58.2031 89.3906 58.1484C89.1562 58.099 88.944 58.0404 88.7539 57.9727C88.5664 57.9049 88.4062 57.8229 88.2734 57.7266C88.1432 57.6302 88.043 57.5169 87.9727 57.3867C87.9023 57.2565 87.8672 57.1042 87.8672 56.9297C87.8672 56.763 87.9036 56.6055 87.9766 56.457C88.0521 56.3086 88.1576 56.1771 88.293 56.0625C88.431 55.9479 88.5964 55.8581 88.7891 55.793C88.9818 55.7279 89.1966 55.6953 89.4336 55.6953C89.7721 55.6953 90.0612 55.7552 90.3008 55.875C90.5404 55.9948 90.724 56.1549 90.8516 56.3555C90.9792 56.5534 91.043 56.7734 91.043 57.0156H90.3203C90.3203 56.8984 90.2852 56.7852 90.2148 56.6758C90.1471 56.5638 90.0469 56.4714 89.9141 56.3984C89.7839 56.3255 89.6237 56.2891 89.4336 56.2891C89.2331 56.2891 89.0703 56.3203 88.9453 56.3828C88.8229 56.4427 88.7331 56.5195 88.6758 56.6133C88.6211 56.707 88.5938 56.806 88.5938 56.9102C88.5938 56.9883 88.6068 57.0586 88.6328 57.1211C88.6615 57.181 88.7109 57.237 88.7812 57.2891C88.8516 57.3385 88.9505 57.3854 89.0781 57.4297C89.2057 57.474 89.3685 57.5182 89.5664 57.5625C89.9128 57.6406 90.1979 57.7344 90.4219 57.8438C90.6458 57.9531 90.8125 58.0872 90.9219 58.2461C91.0312 58.4049 91.0859 58.5977 91.0859 58.8242C91.0859 59.0091 91.0469 59.1784 90.9688 59.332C90.8932 59.4857 90.7826 59.6185 90.6367 59.7305C90.4935 59.8398 90.3216 59.9258 90.1211 59.9883C89.9232 60.0482 89.7005 60.0781 89.4531 60.0781C89.0807 60.0781 88.7656 60.0117 88.5078 59.8789C88.25 59.7461 88.0547 59.5742 87.9219 59.3633C87.7891 59.1523 87.7227 58.9297 87.7227 58.6953H88.4492C88.4596 58.8932 88.5169 59.0508 88.6211 59.168C88.7253 59.2826 88.8529 59.3646 89.0039 59.4141C89.1549 59.4609 89.3047 59.4844 89.4531 59.4844C89.651 59.4844 89.8164 59.4583 89.9492 59.4062C90.0846 59.3542 90.1875 59.2826 90.2578 59.1914C90.3281 59.1003 90.3633 58.9961 90.3633 58.8789ZM92.5234 55.7734L93.4492 57.3125L94.3867 55.7734H95.2344L93.8516 57.8594L95.2773 60H94.4414L93.4648 58.4141L92.4883 60H91.6484L93.0703 57.8594L91.6914 55.7734H92.5234Z"
    fill="white" />
  <path d="M24.151 63.9638L60.7967 63.9638V50.1509M98.5875 50.1509V63.9638H135.806" stroke="#D9D9D9"
    stroke-width="0.2" />
  <path
    d="M57 81.5H171.942C174.98 81.5 177.442 83.9624 177.442 87V235C177.442 238.038 174.98 240.5 171.942 240.5H57C53.9624 240.5 51.5 238.038 51.5 235V87C51.5 83.9624 53.9624 81.5 57 81.5Z"
    fill="#1E1E1E" stroke="#D4D4D4" />
  <path d="M66 106.446H162.529V123.636H66V106.446Z" fill="#606368" fill-opacity="0.39" />
  <path
    d="M77.6108 117.378H78.7358C78.6772 117.917 78.5229 118.399 78.2729 118.825C78.0229 119.251 77.6694 119.589 77.2124 119.839C76.7554 120.085 76.1851 120.208 75.5015 120.208C75.0015 120.208 74.5464 120.114 74.1362 119.927C73.73 119.739 73.3804 119.474 73.0874 119.13C72.7944 118.782 72.5679 118.366 72.4077 117.882C72.2515 117.394 72.1733 116.851 72.1733 116.253V115.403C72.1733 114.806 72.2515 114.265 72.4077 113.78C72.5679 113.292 72.7964 112.874 73.0933 112.526C73.394 112.179 73.7554 111.911 74.1772 111.724C74.5991 111.536 75.0737 111.442 75.6011 111.442C76.2456 111.442 76.7905 111.563 77.2358 111.806C77.6811 112.048 78.0268 112.384 78.2729 112.813C78.5229 113.239 78.6772 113.733 78.7358 114.296H77.6108C77.5561 113.897 77.4546 113.556 77.3061 113.271C77.1577 112.981 76.9468 112.759 76.6733 112.603C76.3999 112.446 76.0425 112.368 75.6011 112.368C75.2222 112.368 74.8882 112.44 74.5991 112.585C74.314 112.729 74.0737 112.935 73.8784 113.2C73.687 113.466 73.5425 113.784 73.4448 114.155C73.3472 114.526 73.2983 114.938 73.2983 115.392V116.253C73.2983 116.671 73.3413 117.063 73.4272 117.431C73.5171 117.798 73.6518 118.12 73.8315 118.397C74.0112 118.675 74.2397 118.894 74.5171 119.054C74.7944 119.21 75.1226 119.288 75.5015 119.288C75.9819 119.288 76.3647 119.212 76.6499 119.06C76.9351 118.907 77.1499 118.688 77.2944 118.403C77.4429 118.118 77.5483 117.776 77.6108 117.378ZM79.8257 116.991V116.856C79.8257 116.399 79.8921 115.976 80.0249 115.585C80.1577 115.19 80.3491 114.849 80.5991 114.56C80.8491 114.267 81.1518 114.04 81.5073 113.88C81.8628 113.716 82.2612 113.634 82.7026 113.634C83.1479 113.634 83.5483 113.716 83.9038 113.88C84.2632 114.04 84.5679 114.267 84.8179 114.56C85.0718 114.849 85.2651 115.19 85.3979 115.585C85.5308 115.976 85.5972 116.399 85.5972 116.856V116.991C85.5972 117.448 85.5308 117.872 85.3979 118.263C85.2651 118.653 85.0718 118.995 84.8179 119.288C84.5679 119.577 84.2651 119.804 83.9097 119.968C83.5581 120.128 83.1597 120.208 82.7143 120.208C82.269 120.208 81.8686 120.128 81.5132 119.968C81.1577 119.804 80.853 119.577 80.5991 119.288C80.3491 118.995 80.1577 118.653 80.0249 118.263C79.8921 117.872 79.8257 117.448 79.8257 116.991ZM80.9097 116.856V116.991C80.9097 117.308 80.9468 117.606 81.021 117.888C81.0952 118.165 81.2065 118.411 81.355 118.626C81.5073 118.841 81.6968 119.011 81.9233 119.136C82.1499 119.257 82.4136 119.317 82.7143 119.317C83.0112 119.317 83.271 119.257 83.4936 119.136C83.7202 119.011 83.9077 118.841 84.0561 118.626C84.2046 118.411 84.3159 118.165 84.3901 117.888C84.4683 117.606 84.5073 117.308 84.5073 116.991V116.856C84.5073 116.544 84.4683 116.249 84.3901 115.972C84.3159 115.69 84.2026 115.442 84.0503 115.228C83.9018 115.009 83.7143 114.837 83.4878 114.712C83.2651 114.587 83.0034 114.524 82.7026 114.524C82.4058 114.524 82.144 114.587 81.9175 114.712C81.6948 114.837 81.5073 115.009 81.355 115.228C81.2065 115.442 81.0952 115.69 81.021 115.972C80.9468 116.249 80.9097 116.544 80.9097 116.856ZM88.0347 115.011V120.091H86.9448V113.751H87.9761L88.0347 115.011ZM87.812 116.681L87.3081 116.663C87.312 116.229 87.3686 115.829 87.478 115.462C87.5874 115.091 87.7495 114.769 87.9643 114.495C88.1792 114.222 88.4468 114.011 88.7671 113.862C89.0874 113.71 89.4585 113.634 89.8804 113.634C90.1772 113.634 90.4507 113.677 90.7007 113.763C90.9507 113.845 91.1675 113.976 91.3511 114.155C91.5347 114.335 91.6772 114.565 91.7788 114.847C91.8804 115.128 91.9311 115.468 91.9311 115.866V120.091H90.8472V115.919C90.8472 115.587 90.7905 115.321 90.6772 115.122C90.5679 114.923 90.4116 114.778 90.2085 114.688C90.0054 114.595 89.7671 114.548 89.4936 114.548C89.1733 114.548 88.9058 114.604 88.6909 114.718C88.4761 114.831 88.3042 114.987 88.1753 115.187C88.0464 115.386 87.9526 115.614 87.894 115.872C87.8393 116.126 87.812 116.396 87.812 116.681ZM91.9194 116.083L91.1929 116.306C91.1968 115.958 91.2534 115.624 91.3628 115.304C91.4761 114.983 91.6382 114.698 91.8491 114.448C92.064 114.198 92.3276 114.001 92.6401 113.856C92.9526 113.708 93.3101 113.634 93.7124 113.634C94.0522 113.634 94.353 113.679 94.6147 113.769C94.8804 113.858 95.103 113.997 95.2827 114.185C95.4663 114.368 95.605 114.604 95.6987 114.894C95.7925 115.183 95.8393 115.526 95.8393 115.925V120.091H94.7495V115.913C94.7495 115.558 94.6929 115.282 94.5796 115.087C94.4702 114.888 94.314 114.749 94.1108 114.671C93.9116 114.589 93.6733 114.548 93.396 114.548C93.1577 114.548 92.9468 114.589 92.7632 114.671C92.5796 114.753 92.4253 114.866 92.3003 115.011C92.1753 115.151 92.0796 115.313 92.0132 115.497C91.9507 115.681 91.9194 115.876 91.9194 116.083ZM98.564 114.97V122.528H97.4741V113.751H98.4702L98.564 114.97ZM102.835 116.868V116.991C102.835 117.452 102.781 117.88 102.671 118.274C102.562 118.665 102.402 119.005 102.191 119.294C101.984 119.583 101.728 119.808 101.423 119.968C101.119 120.128 100.769 120.208 100.375 120.208C99.9722 120.208 99.6167 120.142 99.3081 120.009C98.9995 119.876 98.7378 119.683 98.5229 119.429C98.3081 119.175 98.1362 118.87 98.0073 118.515C97.8823 118.159 97.7964 117.759 97.7495 117.313V116.657C97.7964 116.188 97.8843 115.769 98.0132 115.397C98.1421 115.026 98.312 114.71 98.5229 114.448C98.7378 114.183 98.9976 113.981 99.3022 113.845C99.6069 113.704 99.9585 113.634 100.357 113.634C100.755 113.634 101.109 113.712 101.417 113.868C101.726 114.021 101.986 114.239 102.197 114.524C102.408 114.81 102.566 115.151 102.671 115.55C102.781 115.944 102.835 116.384 102.835 116.868ZM101.746 116.991V116.868C101.746 116.552 101.712 116.255 101.646 115.978C101.58 115.696 101.476 115.45 101.335 115.239C101.199 115.024 101.023 114.856 100.808 114.735C100.593 114.61 100.337 114.548 100.041 114.548C99.7671 114.548 99.5288 114.595 99.3257 114.688C99.1265 114.782 98.9565 114.909 98.8159 115.069C98.6753 115.226 98.5601 115.405 98.4702 115.608C98.3843 115.808 98.3198 116.015 98.2768 116.229V117.747C98.355 118.021 98.4643 118.278 98.605 118.521C98.7456 118.759 98.9331 118.952 99.1675 119.101C99.4018 119.245 99.6968 119.317 100.052 119.317C100.345 119.317 100.597 119.257 100.808 119.136C101.023 119.011 101.199 118.841 101.335 118.626C101.476 118.411 101.58 118.165 101.646 117.888C101.712 117.606 101.746 117.308 101.746 116.991ZM107.957 119.007V115.743C107.957 115.493 107.906 115.276 107.804 115.093C107.707 114.905 107.558 114.761 107.359 114.659C107.16 114.558 106.914 114.507 106.621 114.507C106.347 114.507 106.107 114.554 105.9 114.647C105.697 114.741 105.537 114.864 105.419 115.017C105.306 115.169 105.25 115.333 105.25 115.509H104.166C104.166 115.282 104.224 115.058 104.341 114.835C104.458 114.612 104.626 114.411 104.845 114.231C105.068 114.048 105.333 113.903 105.642 113.798C105.955 113.688 106.302 113.634 106.685 113.634C107.146 113.634 107.552 113.712 107.904 113.868C108.259 114.024 108.537 114.261 108.736 114.577C108.939 114.89 109.041 115.282 109.041 115.755V118.708C109.041 118.919 109.058 119.144 109.093 119.382C109.132 119.62 109.189 119.825 109.263 119.997V120.091H108.132C108.078 119.966 108.035 119.8 108.003 119.593C107.972 119.382 107.957 119.187 107.957 119.007ZM108.144 116.247L108.156 117.009H107.06C106.751 117.009 106.476 117.034 106.234 117.085C105.992 117.132 105.789 117.204 105.625 117.302C105.46 117.399 105.335 117.522 105.25 117.671C105.164 117.815 105.121 117.985 105.121 118.181C105.121 118.38 105.166 118.562 105.255 118.726C105.345 118.89 105.48 119.021 105.66 119.118C105.843 119.212 106.068 119.259 106.333 119.259C106.666 119.259 106.958 119.188 107.212 119.048C107.466 118.907 107.667 118.735 107.816 118.532C107.968 118.329 108.05 118.132 108.062 117.94L108.525 118.462C108.498 118.626 108.423 118.808 108.302 119.007C108.181 119.206 108.019 119.397 107.816 119.581C107.617 119.761 107.378 119.911 107.101 120.032C106.828 120.149 106.519 120.208 106.175 120.208C105.746 120.208 105.369 120.124 105.044 119.956C104.724 119.788 104.474 119.563 104.294 119.282C104.119 118.997 104.031 118.679 104.031 118.327C104.031 117.987 104.097 117.688 104.23 117.431C104.363 117.169 104.554 116.952 104.804 116.78C105.054 116.604 105.355 116.472 105.707 116.382C106.058 116.292 106.451 116.247 106.884 116.247H108.144ZM111.83 115.104V120.091H110.746V113.751H111.771L111.83 115.104ZM111.572 116.681L111.121 116.663C111.125 116.229 111.189 115.829 111.314 115.462C111.439 115.091 111.615 114.769 111.841 114.495C112.068 114.222 112.337 114.011 112.65 113.862C112.966 113.71 113.316 113.634 113.699 113.634C114.011 113.634 114.292 113.677 114.542 113.763C114.792 113.845 115.005 113.978 115.181 114.161C115.361 114.345 115.498 114.583 115.591 114.876C115.685 115.165 115.732 115.519 115.732 115.937V120.091H114.642V115.925C114.642 115.593 114.593 115.327 114.496 115.128C114.398 114.925 114.255 114.778 114.068 114.688C113.88 114.595 113.65 114.548 113.376 114.548C113.107 114.548 112.861 114.604 112.638 114.718C112.419 114.831 112.23 114.987 112.07 115.187C111.914 115.386 111.791 115.614 111.701 115.872C111.615 116.126 111.572 116.396 111.572 116.681ZM119.16 119.435L120.923 113.751H122.083L119.541 121.069C119.482 121.226 119.404 121.394 119.306 121.573C119.212 121.757 119.091 121.931 118.943 122.095C118.794 122.259 118.615 122.392 118.404 122.493C118.197 122.599 117.949 122.651 117.66 122.651C117.574 122.651 117.464 122.64 117.332 122.616C117.199 122.593 117.105 122.573 117.05 122.558L117.044 121.679C117.076 121.683 117.125 121.687 117.191 121.69C117.261 121.698 117.31 121.702 117.337 121.702C117.583 121.702 117.792 121.669 117.964 121.603C118.136 121.54 118.281 121.433 118.398 121.28C118.519 121.132 118.623 120.927 118.708 120.665L119.16 119.435ZM117.865 113.751L119.511 118.673L119.792 119.815L119.013 120.214L116.681 113.751H117.865Z"
    fill="#858585" />
  <path
    d="M75.5913 137.654H73.312V136.734H75.5913C76.0327 136.734 76.3901 136.664 76.6635 136.523C76.937 136.383 77.1362 136.188 77.2612 135.938C77.3901 135.688 77.4545 135.402 77.4545 135.082C77.4545 134.789 77.3901 134.514 77.2612 134.256C77.1362 133.998 76.937 133.791 76.6635 133.635C76.3901 133.475 76.0327 133.395 75.5913 133.395H73.5756V141H72.4448V132.469H75.5913C76.2358 132.469 76.7807 132.58 77.226 132.803C77.6713 133.025 78.0092 133.334 78.2397 133.729C78.4702 134.119 78.5854 134.566 78.5854 135.07C78.5854 135.617 78.4702 136.084 78.2397 136.471C78.0092 136.857 77.6713 137.152 77.226 137.355C76.7807 137.555 76.2358 137.654 75.5913 137.654ZM81.0288 132V141H79.9389V132H81.0288ZM86.5073 139.916V136.652C86.5073 136.402 86.4565 136.186 86.3549 136.002C86.2573 135.814 86.1088 135.67 85.9096 135.568C85.7104 135.467 85.4643 135.416 85.1713 135.416C84.8979 135.416 84.6577 135.463 84.4506 135.557C84.2475 135.65 84.0874 135.773 83.9702 135.926C83.8569 136.078 83.8002 136.242 83.8002 136.418H82.7163C82.7163 136.191 82.7749 135.967 82.892 135.744C83.0092 135.521 83.1772 135.32 83.396 135.141C83.6186 134.957 83.8842 134.812 84.1928 134.707C84.5053 134.598 84.853 134.543 85.2358 134.543C85.6967 134.543 86.103 134.621 86.4545 134.777C86.81 134.934 87.0874 135.17 87.2866 135.486C87.4897 135.799 87.5913 136.191 87.5913 136.664V139.617C87.5913 139.828 87.6088 140.053 87.644 140.291C87.6831 140.529 87.7397 140.734 87.8139 140.906V141H86.6831C86.6284 140.875 86.5854 140.709 86.5542 140.502C86.5229 140.291 86.5073 140.096 86.5073 139.916ZM86.6948 137.156L86.7065 137.918H85.6108C85.3022 137.918 85.0268 137.943 84.7846 137.994C84.5424 138.041 84.3393 138.113 84.1752 138.211C84.0112 138.309 83.8862 138.432 83.8002 138.58C83.7143 138.725 83.6713 138.895 83.6713 139.09C83.6713 139.289 83.7163 139.471 83.8061 139.635C83.896 139.799 84.0307 139.93 84.2104 140.027C84.394 140.121 84.6186 140.168 84.8842 140.168C85.2163 140.168 85.5092 140.098 85.7631 139.957C86.017 139.816 86.2182 139.645 86.3667 139.441C86.519 139.238 86.601 139.041 86.6127 138.85L87.0756 139.371C87.0483 139.535 86.9741 139.717 86.853 139.916C86.7319 140.115 86.5698 140.307 86.3667 140.49C86.1674 140.67 85.9292 140.82 85.6518 140.941C85.3784 141.059 85.0698 141.117 84.726 141.117C84.2963 141.117 83.9194 141.033 83.5952 140.865C83.2749 140.697 83.0249 140.473 82.8452 140.191C82.6694 139.906 82.5815 139.588 82.5815 139.236C82.5815 138.896 82.6479 138.598 82.7807 138.34C82.9135 138.078 83.1049 137.861 83.3549 137.689C83.6049 137.514 83.9057 137.381 84.2573 137.291C84.6088 137.201 85.0014 137.156 85.435 137.156H86.6948ZM90.3803 136.014V141H89.2963V134.66H90.3217L90.3803 136.014ZM90.1225 137.59L89.6713 137.572C89.6752 137.139 89.7397 136.738 89.8647 136.371C89.9897 136 90.1655 135.678 90.392 135.404C90.6186 135.131 90.8881 134.92 91.2006 134.771C91.517 134.619 91.8667 134.543 92.2495 134.543C92.562 134.543 92.8432 134.586 93.0932 134.672C93.3432 134.754 93.5561 134.887 93.7319 135.07C93.9116 135.254 94.0483 135.492 94.142 135.785C94.2358 136.074 94.2827 136.428 94.2827 136.846V141H93.1928V136.834C93.1928 136.502 93.144 136.236 93.0463 136.037C92.9487 135.834 92.8061 135.688 92.6186 135.598C92.4311 135.504 92.2006 135.457 91.9272 135.457C91.6577 135.457 91.4116 135.514 91.1889 135.627C90.9702 135.74 90.7807 135.896 90.6206 136.096C90.4643 136.295 90.3413 136.523 90.2514 136.781C90.1655 137.035 90.1225 137.305 90.1225 137.59Z"
    fill="#858585" />
  <path d="M66 127.604H162.529V144.794H66V127.604Z" fill="#606368" fill-opacity="0.39" />
  <path d="M150.628 134.215L153.273 138.182L155.917 134.215" stroke="#D4D4D4" stroke-width="0.8" />
  <path
    d="M74.7534 162H72.9721L72.9838 161.08H74.7534C75.3627 161.08 75.8706 160.953 76.2768 160.699C76.6831 160.441 76.9877 160.082 77.1909 159.621C77.3979 159.156 77.5014 158.613 77.5014 157.992V157.471C77.5014 156.982 77.4428 156.549 77.3256 156.17C77.2085 155.787 77.0366 155.465 76.81 155.203C76.5835 154.938 76.3061 154.736 75.978 154.6C75.6538 154.463 75.2807 154.395 74.8588 154.395H72.937V153.469H74.8588C75.4174 153.469 75.9272 153.562 76.3881 153.75C76.8491 153.934 77.2456 154.201 77.5776 154.553C77.9135 154.9 78.1713 155.322 78.351 155.818C78.5307 156.311 78.6206 156.865 78.6206 157.482V157.992C78.6206 158.609 78.5307 159.166 78.351 159.662C78.1713 160.154 77.9116 160.574 77.5717 160.922C77.2358 161.27 76.8295 161.537 76.353 161.725C75.8803 161.908 75.3471 162 74.7534 162ZM73.5756 153.469V162H72.4448V153.469H73.5756ZM82.7866 162.117C82.3452 162.117 81.9448 162.043 81.5854 161.895C81.2299 161.742 80.9233 161.529 80.6655 161.256C80.4116 160.982 80.2163 160.658 80.0795 160.283C79.9428 159.908 79.8745 159.498 79.8745 159.053V158.807C79.8745 158.291 79.9506 157.832 80.103 157.43C80.2553 157.023 80.4624 156.68 80.7241 156.398C80.9858 156.117 81.2827 155.904 81.6147 155.76C81.9467 155.615 82.2905 155.543 82.646 155.543C83.0991 155.543 83.4897 155.621 83.8178 155.777C84.1499 155.934 84.4213 156.152 84.6323 156.434C84.8432 156.711 84.9995 157.039 85.101 157.418C85.2026 157.793 85.2534 158.203 85.2534 158.648V159.135H80.519V158.25H84.1694V158.168C84.1538 157.887 84.0952 157.613 83.9936 157.348C83.896 157.082 83.7397 156.863 83.5249 156.691C83.31 156.52 83.017 156.434 82.646 156.434C82.3999 156.434 82.1733 156.486 81.9663 156.592C81.7592 156.693 81.5815 156.846 81.4331 157.049C81.2846 157.252 81.1694 157.5 81.0874 157.793C81.0053 158.086 80.9643 158.424 80.9643 158.807V159.053C80.9643 159.354 81.0053 159.637 81.0874 159.902C81.1733 160.164 81.2963 160.395 81.4565 160.594C81.6206 160.793 81.8178 160.949 82.0483 161.062C82.2827 161.176 82.5483 161.232 82.8452 161.232C83.228 161.232 83.5522 161.154 83.8178 160.998C84.0835 160.842 84.3159 160.633 84.5151 160.371L85.1713 160.893C85.0346 161.1 84.8608 161.297 84.6499 161.484C84.4389 161.672 84.1792 161.824 83.8706 161.941C83.5659 162.059 83.2045 162.117 82.7866 162.117ZM90.2104 160.318C90.2104 160.162 90.1752 160.018 90.1049 159.885C90.0385 159.748 89.8999 159.625 89.6889 159.516C89.4819 159.402 89.1694 159.305 88.7514 159.223C88.3999 159.148 88.0815 159.061 87.7963 158.959C87.5151 158.857 87.2749 158.734 87.0756 158.59C86.8803 158.445 86.7299 158.275 86.6245 158.08C86.519 157.885 86.4663 157.656 86.4663 157.395C86.4663 157.145 86.521 156.908 86.6303 156.686C86.7436 156.463 86.9018 156.266 87.1049 156.094C87.312 155.922 87.56 155.787 87.8491 155.689C88.1381 155.592 88.4604 155.543 88.8159 155.543C89.3237 155.543 89.7573 155.633 90.1167 155.812C90.476 155.992 90.7514 156.232 90.9428 156.533C91.1342 156.83 91.2299 157.16 91.2299 157.523H90.146C90.146 157.348 90.0932 157.178 89.9877 157.014C89.8862 156.846 89.7358 156.707 89.5366 156.598C89.3413 156.488 89.101 156.434 88.8159 156.434C88.5151 156.434 88.271 156.48 88.0835 156.574C87.8999 156.664 87.7651 156.779 87.6792 156.92C87.5971 157.061 87.5561 157.209 87.5561 157.365C87.5561 157.482 87.5756 157.588 87.6147 157.682C87.6577 157.771 87.7319 157.855 87.8374 157.934C87.9428 158.008 88.0913 158.078 88.2827 158.145C88.4741 158.211 88.7182 158.277 89.0151 158.344C89.5346 158.461 89.9624 158.602 90.2983 158.766C90.6342 158.93 90.8842 159.131 91.0483 159.369C91.2124 159.607 91.2944 159.896 91.2944 160.236C91.2944 160.514 91.2358 160.768 91.1186 160.998C91.0053 161.229 90.8393 161.428 90.6206 161.596C90.4057 161.76 90.1479 161.889 89.8471 161.982C89.5502 162.072 89.2163 162.117 88.8452 162.117C88.2866 162.117 87.8139 162.018 87.4272 161.818C87.0405 161.619 86.7475 161.361 86.5483 161.045C86.3491 160.729 86.2495 160.395 86.2495 160.043H87.3393C87.3549 160.34 87.4409 160.576 87.5971 160.752C87.7534 160.924 87.9448 161.047 88.1713 161.121C88.3979 161.191 88.6225 161.227 88.8452 161.227C89.142 161.227 89.3901 161.188 89.5893 161.109C89.7924 161.031 89.9467 160.924 90.0522 160.787C90.1577 160.65 90.2104 160.494 90.2104 160.318ZM95.2553 161.227C95.5131 161.227 95.7514 161.174 95.9702 161.068C96.1889 160.963 96.3686 160.818 96.5092 160.635C96.6499 160.447 96.7299 160.234 96.7495 159.996H97.7807C97.7612 160.371 97.6342 160.721 97.3999 161.045C97.1694 161.365 96.8667 161.625 96.4917 161.824C96.1167 162.02 95.7045 162.117 95.2553 162.117C94.7788 162.117 94.3627 162.033 94.0073 161.865C93.6557 161.697 93.3627 161.467 93.1284 161.174C92.8979 160.881 92.7241 160.545 92.6069 160.166C92.4936 159.783 92.437 159.379 92.437 158.953V158.707C92.437 158.281 92.4936 157.879 92.6069 157.5C92.7241 157.117 92.8979 156.779 93.1284 156.486C93.3627 156.193 93.6557 155.963 94.0073 155.795C94.3627 155.627 94.7788 155.543 95.2553 155.543C95.7514 155.543 96.185 155.645 96.5561 155.848C96.9272 156.047 97.2182 156.32 97.4292 156.668C97.644 157.012 97.7612 157.402 97.7807 157.84H96.7495C96.7299 157.578 96.6557 157.342 96.5268 157.131C96.4018 156.92 96.2299 156.752 96.0112 156.627C95.7963 156.498 95.5444 156.434 95.2553 156.434C94.9233 156.434 94.644 156.5 94.4174 156.633C94.1948 156.762 94.017 156.938 93.8842 157.16C93.7553 157.379 93.6616 157.623 93.603 157.893C93.5483 158.158 93.521 158.43 93.521 158.707V158.953C93.521 159.23 93.5483 159.504 93.603 159.773C93.6577 160.043 93.7495 160.287 93.8784 160.506C94.0112 160.725 94.1889 160.9 94.4116 161.033C94.6381 161.162 94.9194 161.227 95.2553 161.227ZM100.083 156.656V162H98.9995V155.66H100.054L100.083 156.656ZM102.064 155.625L102.058 156.633C101.968 156.613 101.882 156.602 101.8 156.598C101.722 156.59 101.632 156.586 101.531 156.586C101.281 156.586 101.06 156.625 100.869 156.703C100.677 156.781 100.515 156.891 100.382 157.031C100.249 157.172 100.144 157.34 100.066 157.535C99.9917 157.727 99.9428 157.938 99.9194 158.168L99.6147 158.344C99.6147 157.961 99.6518 157.602 99.726 157.266C99.8042 156.93 99.9233 156.633 100.083 156.375C100.244 156.113 100.447 155.91 100.693 155.766C100.943 155.617 101.24 155.543 101.583 155.543C101.662 155.543 101.751 155.553 101.853 155.572C101.955 155.588 102.025 155.605 102.064 155.625ZM104.244 155.66V162H103.154V155.66H104.244ZM103.072 153.979C103.072 153.803 103.124 153.654 103.23 153.533C103.339 153.412 103.499 153.352 103.71 153.352C103.917 153.352 104.076 153.412 104.185 153.533C104.298 153.654 104.355 153.803 104.355 153.979C104.355 154.146 104.298 154.291 104.185 154.412C104.076 154.529 103.917 154.588 103.71 154.588C103.499 154.588 103.339 154.529 103.23 154.412C103.124 154.291 103.072 154.146 103.072 153.979ZM107.068 156.879V164.438H105.978V155.66H106.974L107.068 156.879ZM111.339 158.777V158.9C111.339 159.361 111.285 159.789 111.175 160.184C111.066 160.574 110.906 160.914 110.695 161.203C110.488 161.492 110.232 161.717 109.927 161.877C109.623 162.037 109.273 162.117 108.878 162.117C108.476 162.117 108.121 162.051 107.812 161.918C107.503 161.785 107.242 161.592 107.027 161.338C106.812 161.084 106.64 160.779 106.511 160.424C106.386 160.068 106.3 159.668 106.253 159.223V158.566C106.3 158.098 106.388 157.678 106.517 157.307C106.646 156.936 106.816 156.619 107.027 156.357C107.242 156.092 107.501 155.891 107.806 155.754C108.111 155.613 108.462 155.543 108.861 155.543C109.259 155.543 109.613 155.621 109.921 155.777C110.23 155.93 110.49 156.148 110.701 156.434C110.912 156.719 111.07 157.061 111.175 157.459C111.285 157.854 111.339 158.293 111.339 158.777ZM110.249 158.9V158.777C110.249 158.461 110.216 158.164 110.15 157.887C110.083 157.605 109.98 157.359 109.839 157.148C109.703 156.934 109.527 156.766 109.312 156.645C109.097 156.52 108.841 156.457 108.544 156.457C108.271 156.457 108.033 156.504 107.83 156.598C107.63 156.691 107.46 156.818 107.32 156.979C107.179 157.135 107.064 157.314 106.974 157.518C106.888 157.717 106.824 157.924 106.781 158.139V159.656C106.859 159.93 106.968 160.188 107.109 160.43C107.249 160.668 107.437 160.861 107.671 161.01C107.906 161.154 108.201 161.227 108.556 161.227C108.849 161.227 109.101 161.166 109.312 161.045C109.527 160.92 109.703 160.75 109.839 160.535C109.98 160.32 110.083 160.074 110.15 159.797C110.216 159.516 110.249 159.217 110.249 158.9ZM115.376 155.66V156.492H111.949V155.66H115.376ZM113.109 154.119H114.193V160.43C114.193 160.645 114.226 160.807 114.292 160.916C114.359 161.025 114.445 161.098 114.55 161.133C114.656 161.168 114.769 161.186 114.89 161.186C114.98 161.186 115.074 161.178 115.171 161.162C115.273 161.143 115.349 161.127 115.4 161.115L115.406 162C115.32 162.027 115.206 162.053 115.066 162.076C114.929 162.104 114.763 162.117 114.568 162.117C114.302 162.117 114.058 162.064 113.835 161.959C113.613 161.854 113.435 161.678 113.302 161.432C113.173 161.182 113.109 160.846 113.109 160.424V154.119ZM117.826 155.66V162H116.736V155.66H117.826ZM116.654 153.979C116.654 153.803 116.706 153.654 116.812 153.533C116.921 153.412 117.081 153.352 117.292 153.352C117.499 153.352 117.658 153.412 117.767 153.533C117.88 153.654 117.937 153.803 117.937 153.979C117.937 154.146 117.88 154.291 117.767 154.412C117.658 154.529 117.499 154.588 117.292 154.588C117.081 154.588 116.921 154.529 116.812 154.412C116.706 154.291 116.654 154.146 116.654 153.979ZM119.279 158.9V158.766C119.279 158.309 119.345 157.885 119.478 157.494C119.611 157.1 119.802 156.758 120.052 156.469C120.302 156.176 120.605 155.949 120.96 155.789C121.316 155.625 121.714 155.543 122.156 155.543C122.601 155.543 123.001 155.625 123.357 155.789C123.716 155.949 124.021 156.176 124.271 156.469C124.525 156.758 124.718 157.1 124.851 157.494C124.984 157.885 125.05 158.309 125.05 158.766V158.9C125.05 159.357 124.984 159.781 124.851 160.172C124.718 160.562 124.525 160.904 124.271 161.197C124.021 161.486 123.718 161.713 123.363 161.877C123.011 162.037 122.613 162.117 122.167 162.117C121.722 162.117 121.322 162.037 120.966 161.877C120.611 161.713 120.306 161.486 120.052 161.197C119.802 160.904 119.611 160.562 119.478 160.172C119.345 159.781 119.279 159.357 119.279 158.9ZM120.363 158.766V158.9C120.363 159.217 120.4 159.516 120.474 159.797C120.548 160.074 120.66 160.32 120.808 160.535C120.96 160.75 121.15 160.92 121.376 161.045C121.603 161.166 121.867 161.227 122.167 161.227C122.464 161.227 122.724 161.166 122.947 161.045C123.173 160.92 123.361 160.75 123.509 160.535C123.658 160.32 123.769 160.074 123.843 159.797C123.921 159.516 123.96 159.217 123.96 158.9V158.766C123.96 158.453 123.921 158.158 123.843 157.881C123.769 157.6 123.656 157.352 123.503 157.137C123.355 156.918 123.167 156.746 122.941 156.621C122.718 156.496 122.456 156.434 122.156 156.434C121.859 156.434 121.597 156.496 121.371 156.621C121.148 156.746 120.96 156.918 120.808 157.137C120.66 157.352 120.548 157.6 120.474 157.881C120.4 158.158 120.363 158.453 120.363 158.766ZM127.494 157.014V162H126.41V155.66H127.435L127.494 157.014ZM127.236 158.59L126.785 158.572C126.789 158.139 126.853 157.738 126.978 157.371C127.103 157 127.279 156.678 127.505 156.404C127.732 156.131 128.001 155.92 128.314 155.771C128.63 155.619 128.98 155.543 129.363 155.543C129.675 155.543 129.956 155.586 130.206 155.672C130.456 155.754 130.669 155.887 130.845 156.07C131.025 156.254 131.162 156.492 131.255 156.785C131.349 157.074 131.396 157.428 131.396 157.846V162H130.306V157.834C130.306 157.502 130.257 157.236 130.16 157.037C130.062 156.834 129.919 156.688 129.732 156.598C129.544 156.504 129.314 156.457 129.04 156.457C128.771 156.457 128.525 156.514 128.302 156.627C128.083 156.74 127.894 156.896 127.734 157.096C127.578 157.295 127.455 157.523 127.365 157.781C127.279 158.035 127.236 158.305 127.236 158.59Z"
    fill="#858585" />
  <path d="M66 148.76H162.529V165.95H66V148.76Z" fill="#606368" fill-opacity="0.39" />
  <path
    d="M75.4858 180.01H73.3237L73.312 179.102H75.2749C75.5991 179.102 75.8823 179.047 76.1245 178.938C76.3667 178.828 76.5542 178.672 76.687 178.469C76.8237 178.262 76.892 178.016 76.892 177.73C76.892 177.418 76.8315 177.164 76.7104 176.969C76.5932 176.77 76.4116 176.625 76.1655 176.535C75.9233 176.441 75.6147 176.395 75.2397 176.395H73.5756V184H72.4448V175.469H75.2397C75.6772 175.469 76.0678 175.514 76.4116 175.604C76.7553 175.689 77.0463 175.826 77.2846 176.014C77.5268 176.197 77.7104 176.432 77.8354 176.717C77.9604 177.002 78.0229 177.344 78.0229 177.742C78.0229 178.094 77.9331 178.412 77.7534 178.697C77.5737 178.979 77.3237 179.209 77.0034 179.389C76.687 179.568 76.3159 179.684 75.8901 179.734L75.4858 180.01ZM75.4331 184H72.8784L73.517 183.08H75.4331C75.7924 183.08 76.0971 183.018 76.3471 182.893C76.601 182.768 76.7944 182.592 76.9272 182.365C77.06 182.135 77.1264 181.863 77.1264 181.551C77.1264 181.234 77.0698 180.961 76.9565 180.73C76.8432 180.5 76.6655 180.322 76.4233 180.197C76.1811 180.072 75.8686 180.01 75.4858 180.01H73.8745L73.8862 179.102H76.0893L76.3295 179.43C76.7397 179.465 77.0874 179.582 77.3725 179.781C77.6577 179.977 77.8745 180.227 78.0229 180.531C78.1752 180.836 78.2514 181.172 78.2514 181.539C78.2514 182.07 78.1342 182.52 77.8999 182.887C77.6694 183.25 77.3432 183.527 76.9213 183.719C76.4995 183.906 76.0034 184 75.4331 184ZM80.935 177.66V184H79.8452V177.66H80.935ZM79.7631 175.979C79.7631 175.803 79.8159 175.654 79.9213 175.533C80.0307 175.412 80.1909 175.352 80.4018 175.352C80.6088 175.352 80.767 175.412 80.8764 175.533C80.9897 175.654 81.0463 175.803 81.0463 175.979C81.0463 176.146 80.9897 176.291 80.8764 176.412C80.767 176.529 80.6088 176.588 80.4018 176.588C80.1909 176.588 80.0307 176.529 79.9213 176.412C79.8159 176.291 79.7631 176.146 79.7631 175.979ZM83.853 175V184H82.7631V175H83.853ZM86.771 175V184H85.6811V175H86.771ZM89.6889 177.66V184H88.5991V177.66H89.6889ZM88.517 175.979C88.517 175.803 88.5698 175.654 88.6752 175.533C88.7846 175.412 88.9448 175.352 89.1557 175.352C89.3627 175.352 89.521 175.412 89.6303 175.533C89.7436 175.654 89.8002 175.803 89.8002 175.979C89.8002 176.146 89.7436 176.291 89.6303 176.412C89.521 176.529 89.3627 176.588 89.1557 176.588C88.9448 176.588 88.7846 176.529 88.6752 176.412C88.5698 176.291 88.517 176.146 88.517 175.979ZM92.5131 179.014V184H91.4292V177.66H92.4545L92.5131 179.014ZM92.2553 180.59L91.8042 180.572C91.8081 180.139 91.8725 179.738 91.9975 179.371C92.1225 179 92.2983 178.678 92.5249 178.404C92.7514 178.131 93.021 177.92 93.3335 177.771C93.6499 177.619 93.9995 177.543 94.3823 177.543C94.6948 177.543 94.976 177.586 95.226 177.672C95.476 177.754 95.6889 177.887 95.8647 178.07C96.0444 178.254 96.1811 178.492 96.2749 178.785C96.3686 179.074 96.4155 179.428 96.4155 179.846V184H95.3256V179.834C95.3256 179.502 95.2768 179.236 95.1792 179.037C95.0815 178.834 94.9389 178.688 94.7514 178.598C94.5639 178.504 94.3335 178.457 94.06 178.457C93.7905 178.457 93.5444 178.514 93.3217 178.627C93.103 178.74 92.9135 178.896 92.7534 179.096C92.5971 179.295 92.4741 179.523 92.3842 179.781C92.2983 180.035 92.2553 180.305 92.2553 180.59ZM102.169 177.66H103.154V183.865C103.154 184.424 103.04 184.9 102.814 185.295C102.587 185.689 102.271 185.988 101.865 186.191C101.462 186.398 100.998 186.502 100.47 186.502C100.251 186.502 99.9936 186.467 99.6967 186.396C99.4038 186.33 99.1147 186.215 98.8295 186.051C98.5483 185.891 98.312 185.674 98.1206 185.4L98.6889 184.756C98.9545 185.076 99.2319 185.299 99.521 185.424C99.8139 185.549 100.103 185.611 100.388 185.611C100.732 185.611 101.029 185.547 101.279 185.418C101.529 185.289 101.722 185.098 101.859 184.844C101.999 184.594 102.07 184.285 102.07 183.918V179.055L102.169 177.66ZM97.8042 180.9V180.777C97.8042 180.293 97.8608 179.854 97.9741 179.459C98.0913 179.061 98.2573 178.719 98.4721 178.434C98.6909 178.148 98.9545 177.93 99.2631 177.777C99.5717 177.621 99.9194 177.543 100.306 177.543C100.705 177.543 101.052 177.613 101.349 177.754C101.65 177.891 101.904 178.092 102.111 178.357C102.322 178.619 102.488 178.936 102.609 179.307C102.73 179.678 102.814 180.098 102.861 180.566V181.105C102.818 181.57 102.734 181.988 102.609 182.359C102.488 182.73 102.322 183.047 102.111 183.309C101.904 183.57 101.65 183.771 101.349 183.912C101.048 184.049 100.697 184.117 100.294 184.117C99.9155 184.117 99.5717 184.037 99.2631 183.877C98.9585 183.717 98.6967 183.492 98.478 183.203C98.2592 182.914 98.0913 182.574 97.9741 182.184C97.8608 181.789 97.8042 181.361 97.8042 180.9ZM98.8881 180.777V180.9C98.8881 181.217 98.9194 181.514 98.9819 181.791C99.0483 182.068 99.1479 182.312 99.2807 182.523C99.4174 182.734 99.5913 182.9 99.8022 183.021C100.013 183.139 100.265 183.197 100.558 183.197C100.917 183.197 101.214 183.121 101.449 182.969C101.683 182.816 101.869 182.615 102.005 182.365C102.146 182.115 102.255 181.844 102.333 181.551V180.139C102.29 179.924 102.224 179.717 102.134 179.518C102.048 179.314 101.935 179.135 101.794 178.979C101.658 178.818 101.488 178.691 101.285 178.598C101.081 178.504 100.843 178.457 100.57 178.457C100.273 178.457 100.017 178.52 99.8022 178.645C99.5913 178.766 99.4174 178.934 99.2807 179.148C99.1479 179.359 99.0483 179.605 98.9819 179.887C98.9194 180.164 98.8881 180.461 98.8881 180.777ZM109.154 175.469V184H108.023V175.469H109.154ZM115.042 182.77V175H116.132V184H115.136L115.042 182.77ZM110.777 180.9V180.777C110.777 180.293 110.835 179.854 110.953 179.459C111.074 179.061 111.244 178.719 111.462 178.434C111.685 178.148 111.949 177.93 112.253 177.777C112.562 177.621 112.906 177.543 113.285 177.543C113.683 177.543 114.031 177.613 114.328 177.754C114.628 177.891 114.882 178.092 115.089 178.357C115.3 178.619 115.466 178.936 115.587 179.307C115.708 179.678 115.792 180.098 115.839 180.566V181.105C115.796 181.57 115.712 181.988 115.587 182.359C115.466 182.73 115.3 183.047 115.089 183.309C114.882 183.57 114.628 183.771 114.328 183.912C114.027 184.049 113.675 184.117 113.273 184.117C112.902 184.117 112.562 184.037 112.253 183.877C111.949 183.717 111.685 183.492 111.462 183.203C111.244 182.914 111.074 182.574 110.953 182.184C110.835 181.789 110.777 181.361 110.777 180.9ZM111.867 180.777V180.9C111.867 181.217 111.898 181.514 111.96 181.791C112.027 182.068 112.128 182.312 112.265 182.523C112.402 182.734 112.576 182.9 112.787 183.021C112.998 183.139 113.249 183.197 113.542 183.197C113.902 183.197 114.197 183.121 114.427 182.969C114.662 182.816 114.849 182.615 114.99 182.365C115.13 182.115 115.24 181.844 115.318 181.551V180.139C115.271 179.924 115.203 179.717 115.113 179.518C115.027 179.314 114.914 179.135 114.773 178.979C114.636 178.818 114.466 178.691 114.263 178.598C114.064 178.504 113.828 178.457 113.554 178.457C113.257 178.457 113.001 178.52 112.787 178.645C112.576 178.766 112.402 178.934 112.265 179.148C112.128 179.359 112.027 179.605 111.96 179.887C111.898 180.164 111.867 180.461 111.867 180.777Z"
    fill="#858585" />
  <path d="M66 169.917H162.529V187.108H66V169.917Z" fill="#606368" fill-opacity="0.39" />
  <path
    d="M109.636 203.686C109.636 200.372 112.323 197.686 115.636 197.686H156.529C159.843 197.686 162.529 200.372 162.529 203.686V208.876C162.529 212.19 159.843 214.876 156.529 214.876H115.636C112.323 214.876 109.636 212.19 109.636 208.876V203.686Z"
    fill="#0080FF" />
  <path
    d="M122.566 207.844C122.566 207.645 122.535 207.469 122.472 207.316C122.414 207.16 122.308 207.02 122.156 206.895C122.007 206.77 121.8 206.65 121.535 206.537C121.273 206.424 120.941 206.309 120.539 206.191C120.117 206.066 119.736 205.928 119.396 205.775C119.056 205.619 118.765 205.441 118.523 205.242C118.281 205.043 118.095 204.814 117.966 204.557C117.837 204.299 117.773 204.004 117.773 203.672C117.773 203.34 117.841 203.033 117.978 202.752C118.115 202.471 118.31 202.227 118.564 202.02C118.822 201.809 119.128 201.645 119.484 201.527C119.839 201.41 120.236 201.352 120.673 201.352C121.314 201.352 121.857 201.475 122.302 201.721C122.751 201.963 123.093 202.281 123.328 202.676C123.562 203.066 123.679 203.484 123.679 203.93H122.554C122.554 203.609 122.486 203.326 122.349 203.08C122.212 202.83 122.005 202.635 121.728 202.494C121.451 202.35 121.099 202.277 120.673 202.277C120.271 202.277 119.939 202.338 119.677 202.459C119.415 202.58 119.22 202.744 119.091 202.951C118.966 203.158 118.904 203.395 118.904 203.66C118.904 203.84 118.941 204.004 119.015 204.152C119.093 204.297 119.212 204.432 119.373 204.557C119.537 204.682 119.744 204.797 119.994 204.902C120.248 205.008 120.55 205.109 120.902 205.207C121.386 205.344 121.804 205.496 122.156 205.664C122.507 205.832 122.796 206.021 123.023 206.232C123.253 206.439 123.423 206.676 123.533 206.941C123.646 207.203 123.703 207.5 123.703 207.832C123.703 208.18 123.632 208.494 123.492 208.775C123.351 209.057 123.15 209.297 122.888 209.496C122.626 209.695 122.312 209.85 121.945 209.959C121.581 210.064 121.175 210.117 120.726 210.117C120.331 210.117 119.943 210.062 119.56 209.953C119.181 209.844 118.835 209.68 118.523 209.461C118.214 209.242 117.966 208.973 117.779 208.652C117.595 208.328 117.503 207.953 117.503 207.527H118.628C118.628 207.82 118.685 208.072 118.798 208.283C118.912 208.49 119.066 208.662 119.261 208.799C119.46 208.936 119.685 209.037 119.935 209.104C120.189 209.166 120.453 209.197 120.726 209.197C121.121 209.197 121.455 209.143 121.728 209.033C122.001 208.924 122.208 208.768 122.349 208.564C122.494 208.361 122.566 208.121 122.566 207.844ZM128.859 208.535V203.66H129.949V210H128.912L128.859 208.535ZM129.064 207.199L129.515 207.188C129.515 207.609 129.47 208 129.38 208.359C129.294 208.715 129.154 209.023 128.958 209.285C128.763 209.547 128.507 209.752 128.191 209.9C127.874 210.045 127.49 210.117 127.037 210.117C126.728 210.117 126.445 210.072 126.187 209.982C125.933 209.893 125.714 209.754 125.531 209.566C125.347 209.379 125.205 209.135 125.103 208.834C125.005 208.533 124.956 208.172 124.956 207.75V203.66H126.04V207.762C126.04 208.047 126.072 208.283 126.134 208.471C126.201 208.654 126.289 208.801 126.398 208.91C126.511 209.016 126.636 209.09 126.773 209.133C126.914 209.176 127.058 209.197 127.206 209.197C127.667 209.197 128.033 209.109 128.302 208.934C128.572 208.754 128.765 208.514 128.882 208.213C129.003 207.908 129.064 207.57 129.064 207.199ZM131.595 201H132.685V208.77L132.591 210H131.595V201ZM136.968 206.777V206.9C136.968 207.361 136.914 207.789 136.804 208.184C136.695 208.574 136.535 208.914 136.324 209.203C136.113 209.492 135.855 209.717 135.55 209.877C135.246 210.037 134.896 210.117 134.501 210.117C134.099 210.117 133.746 210.049 133.441 209.912C133.14 209.771 132.886 209.57 132.679 209.309C132.472 209.047 132.306 208.73 132.181 208.359C132.06 207.988 131.976 207.57 131.929 207.105V206.566C131.976 206.098 132.06 205.678 132.181 205.307C132.306 204.936 132.472 204.619 132.679 204.357C132.886 204.092 133.14 203.891 133.441 203.754C133.742 203.613 134.091 203.543 134.49 203.543C134.888 203.543 135.242 203.621 135.55 203.777C135.859 203.93 136.117 204.148 136.324 204.434C136.535 204.719 136.695 205.061 136.804 205.459C136.914 205.854 136.968 206.293 136.968 206.777ZM135.878 206.9V206.777C135.878 206.461 135.849 206.164 135.79 205.887C135.732 205.605 135.638 205.359 135.509 205.148C135.38 204.934 135.21 204.766 134.999 204.645C134.789 204.52 134.529 204.457 134.22 204.457C133.947 204.457 133.708 204.504 133.505 204.598C133.306 204.691 133.136 204.818 132.996 204.979C132.855 205.135 132.74 205.314 132.65 205.518C132.564 205.717 132.499 205.924 132.456 206.139V207.551C132.519 207.824 132.621 208.088 132.761 208.342C132.906 208.592 133.097 208.797 133.335 208.957C133.578 209.117 133.876 209.197 134.232 209.197C134.525 209.197 134.775 209.139 134.982 209.021C135.193 208.9 135.363 208.734 135.492 208.523C135.624 208.312 135.722 208.068 135.785 207.791C135.847 207.514 135.878 207.217 135.878 206.9ZM139.417 204.92V210H138.328V203.66H139.359L139.417 204.92ZM139.195 206.59L138.691 206.572C138.695 206.139 138.751 205.738 138.861 205.371C138.97 205 139.132 204.678 139.347 204.404C139.562 204.131 139.83 203.92 140.15 203.771C140.47 203.619 140.841 203.543 141.263 203.543C141.56 203.543 141.833 203.586 142.083 203.672C142.333 203.754 142.55 203.885 142.734 204.064C142.917 204.244 143.06 204.475 143.162 204.756C143.263 205.037 143.314 205.377 143.314 205.775V210H142.23V205.828C142.23 205.496 142.173 205.23 142.06 205.031C141.951 204.832 141.794 204.688 141.591 204.598C141.388 204.504 141.15 204.457 140.876 204.457C140.556 204.457 140.289 204.514 140.074 204.627C139.859 204.74 139.687 204.896 139.558 205.096C139.429 205.295 139.335 205.523 139.277 205.781C139.222 206.035 139.195 206.305 139.195 206.59ZM143.302 205.992L142.576 206.215C142.58 205.867 142.636 205.533 142.746 205.213C142.859 204.893 143.021 204.607 143.232 204.357C143.447 204.107 143.71 203.91 144.023 203.766C144.335 203.617 144.693 203.543 145.095 203.543C145.435 203.543 145.736 203.588 145.998 203.678C146.263 203.768 146.486 203.906 146.665 204.094C146.849 204.277 146.988 204.514 147.081 204.803C147.175 205.092 147.222 205.436 147.222 205.834V210H146.132V205.822C146.132 205.467 146.076 205.191 145.962 204.996C145.853 204.797 145.697 204.658 145.494 204.58C145.294 204.498 145.056 204.457 144.779 204.457C144.54 204.457 144.33 204.498 144.146 204.58C143.962 204.662 143.808 204.775 143.683 204.92C143.558 205.061 143.462 205.223 143.396 205.406C143.333 205.59 143.302 205.785 143.302 205.992ZM150.04 203.66V210H148.951V203.66H150.04ZM148.869 201.979C148.869 201.803 148.921 201.654 149.027 201.533C149.136 201.412 149.296 201.352 149.507 201.352C149.714 201.352 149.873 201.412 149.982 201.533C150.095 201.654 150.152 201.803 150.152 201.979C150.152 202.146 150.095 202.291 149.982 202.412C149.873 202.529 149.714 202.588 149.507 202.588C149.296 202.588 149.136 202.529 149.027 202.412C148.921 202.291 148.869 202.146 148.869 201.979ZM154.435 203.66V204.492H151.007V203.66H154.435ZM152.167 202.119H153.251V208.43C153.251 208.645 153.285 208.807 153.351 208.916C153.417 209.025 153.503 209.098 153.609 209.133C153.714 209.168 153.828 209.186 153.949 209.186C154.039 209.186 154.132 209.178 154.23 209.162C154.331 209.143 154.408 209.127 154.458 209.115L154.464 210C154.378 210.027 154.265 210.053 154.124 210.076C153.988 210.104 153.822 210.117 153.626 210.117C153.361 210.117 153.117 210.064 152.894 209.959C152.671 209.854 152.494 209.678 152.361 209.432C152.232 209.182 152.167 208.846 152.167 208.424V202.119Z"
    fill="white" />
  <path d="M254.455 44L247.455 51L254.455 57.5" stroke="#D4D4D4" stroke-width="3" />
  <path d="M274.455 44L281.455 51L274.455 57.5" stroke="#D4D4D4" stroke-width="3" />
  <path
    d="M260.288 46.8335H258.621C258.179 46.8335 257.755 47.0091 257.443 47.3217C257.13 47.6342 256.955 48.0581 256.955 48.5002V55.1668H258.621V51.8335H260.288V55.1668H261.955V48.5002C261.955 48.0581 261.779 47.6342 261.466 47.3217C261.154 47.0091 260.73 46.8335 260.288 46.8335ZM260.288 50.1668H258.621V48.5002H260.288M266.121 46.8335H262.788V55.1668H264.455V51.8335H266.121C266.563 51.8335 266.987 51.6579 267.3 51.3453C267.612 51.0328 267.788 50.6089 267.788 50.1668V48.5002C267.788 48.0581 267.612 47.6342 267.3 47.3217C266.987 47.0091 266.563 46.8335 266.121 46.8335ZM266.121 50.1668H264.455V48.5002H266.121M271.121 48.5002V53.5002H271.955V55.1668H268.621V53.5002H269.455V48.5002H268.621V46.8335H271.955V48.5002H271.121Z"
    fill="#D4D4D4" />
  <path
    d="M436.121 228C430.228 228 425.455 230.387 425.455 233.333C425.455 236.28 430.228 238.667 436.121 238.667C442.015 238.667 446.788 236.28 446.788 233.333C446.788 230.387 442.015 228 436.121 228ZM425.455 236V240C425.455 242.947 430.228 245.333 436.121 245.333C442.015 245.333 446.788 242.947 446.788 240V236C446.788 238.947 442.015 241.333 436.121 241.333C430.228 241.333 425.455 238.947 425.455 236ZM425.455 242.667V246.667C425.455 249.613 430.228 252 436.121 252C442.015 252 446.788 249.613 446.788 246.667V242.667C446.788 245.613 442.015 248 436.121 248C430.228 248 425.455 245.613 425.455 242.667Z"
    fill="#D4D4D4" />
  <path
    d="M449.121 94H425.121C423.655 94 422.455 95.2 422.455 96.6667V118C422.455 119.467 423.655 120.667 425.121 120.667H449.121C450.588 120.667 451.788 119.467 451.788 118V96.6667C451.788 95.2 450.588 94 449.121 94ZM449.121 100.667H425.121V96.6667H449.121V100.667Z"
    fill="#D4D4D4" />
  <path
    d="M254.455 251.667C253.217 251.667 252.03 251.175 251.155 250.3C250.28 249.425 249.788 248.238 249.788 247C249.788 245.762 250.28 244.575 251.155 243.7C252.03 242.825 253.217 242.333 254.455 242.333C255.692 242.333 256.879 242.825 257.754 243.7C258.63 244.575 259.121 245.762 259.121 247C259.121 248.238 258.63 249.425 257.754 250.3C256.879 251.175 255.692 251.667 254.455 251.667ZM264.361 248.293C264.415 247.867 264.455 247.44 264.455 247C264.455 246.56 264.415 246.12 264.361 245.667L267.175 243.493C267.428 243.293 267.495 242.933 267.335 242.64L264.668 238.027C264.508 237.733 264.148 237.613 263.855 237.733L260.535 239.067C259.841 238.547 259.121 238.093 258.281 237.76L257.788 234.227C257.761 234.069 257.679 233.927 257.557 233.825C257.435 233.722 257.281 233.666 257.121 233.667H251.788C251.455 233.667 251.175 233.907 251.121 234.227L250.628 237.76C249.788 238.093 249.068 238.547 248.375 239.067L245.055 237.733C244.761 237.613 244.401 237.733 244.241 238.027L241.575 242.64C241.401 242.933 241.481 243.293 241.735 243.493L244.548 245.667C244.495 246.12 244.455 246.56 244.455 247C244.455 247.44 244.495 247.867 244.548 248.293L241.735 250.507C241.481 250.707 241.401 251.067 241.575 251.36L244.241 255.973C244.401 256.267 244.761 256.373 245.055 256.267L248.375 254.92C249.068 255.453 249.788 255.907 250.628 256.24L251.121 259.773C251.175 260.093 251.455 260.333 251.788 260.333H257.121C257.455 260.333 257.735 260.093 257.788 259.773L258.281 256.24C259.121 255.893 259.841 255.453 260.535 254.92L263.855 256.267C264.148 256.373 264.508 256.267 264.668 255.973L267.335 251.36C267.495 251.067 267.428 250.707 267.175 250.507L264.361 248.293Z"
    fill="#D4D4D4" />
</svg>