<svg width="100" height="114" viewBox="0 0 100 114" fill="none" xmlns="http://www.w3.org/2000/svg">
<g clip-path="url(#clip0_664_920)">
<path d="M77.6885 23.7704C70.8211 26.1104 67.5142 30.3073 65.2614 36.8441C64.6801 38.5897 63.2266 40.5212 61.5915 41.8212L67.2237 47.9867L49.3456 35.21L0 0C0 0 3.56104 23.6219 4.7965 32.313C5.66858 38.4411 7.15843 41.1896 11.8822 43.9754L13.7718 45.0152L21.9113 49.3981L17.0785 46.8353L39.3893 59.2775L39.2442 59.6119L15.2252 48.2467C16.4971 52.7037 18.9679 61.2831 20.0217 65.0717C21.1482 69.1571 22.42 70.6427 26.3081 72.0918L33.4666 74.7658L37.8997 72.9828L32.2675 76.8085L4.10608 113.318C22.8197 95.5647 38.6626 89.2507 50.2542 84.088C65.0434 77.5513 73.9461 73.3544 79.7598 58.2746C83.9024 47.6896 87.136 34.1331 91.2428 28.896L100 17.4564C100 17.4564 81.8672 22.3591 77.6885 23.7704Z" fill="#3A1AB6"/>
</g>
<defs>
<clipPath id="clip0_664_920">
<rect width="100" height="114" fill="white"/>
</clipPath>
</defs>
</svg>
