<svg xmlns="http://www.w3.org/2000/svg" width="100" height="100" fill="none" viewBox="0 0 100 100"><path fill="#004CFF" d="M71.8476 49.7988L19.6296 84.4764C17.2104 86.0892 16 88.7096 16 91.3308V100L79.3072 58.468C82.1296 56.452 83.9444 53.2256 83.9444 49.7988C83.9444 46.3712 82.3316 43.1448 79.3072 41.1288L16 0V8.06399C16 10.8872 17.4116 13.5076 19.6296 14.9192L71.8476 49.7988Z"/><path fill="#004CFF" d="M40.3956 52.6211C41.7791 53.5093 43.3887 53.9815 45.0328 53.9815C46.6769 53.9815 48.2865 53.5093 49.67 52.6211L54.1052 49.5967L21.0404 27.2179C19.0244 25.8063 16 27.2179 16 29.8383V36.4915L33.1372 47.9839L40.3956 52.6211Z"/></svg>