<svg xmlns="http://www.w3.org/2000/svg" width="100" height="100" fill="none" viewBox="0 0 100 100"><path fill="#FFBC00" d="M44.7338 10.0887L8.04494 25.2887C6.00049 26.1332 6.02271 29.0221 8.08938 29.8443L44.9338 44.4443C48.1783 45.7332 51.7783 45.7332 55.0227 44.4443L91.8672 29.8443C93.9116 29.0221 93.9338 26.1332 91.9116 25.2887L55.2227 10.111C51.8672 8.73319 48.1116 8.73319 44.7783 10.111"/><path fill="#26B2F5" d="M53.2441 52.4222V88.9111C53.2441 90.6444 54.9997 91.8444 56.5997 91.2L97.6441 75.2667C98.5775 74.8889 99.1997 74 99.1997 72.9778V36.4889C99.1997 34.7555 97.4441 33.5556 95.8441 34.2L54.7997 50.1333C53.8664 50.5111 53.2441 51.4 53.2441 52.4222Z"/><path fill="#EA3049" d="M43.6452 54.3111L31.4674 60.2L30.223 60.8L4.51189 73.1333C2.88967 73.9111 0.800781 72.7333 0.800781 70.9111V36.6444C0.800781 36 1.13411 35.4222 1.57856 35C1.75634 34.8222 1.97856 34.6667 2.20078 34.5333C2.823 34.1555 3.68967 34.0667 4.44523 34.3555L43.4452 49.8C45.423 50.5778 45.5786 53.3555 43.6452 54.2889"/><path fill="#B02437" d="M43.6448 54.3111L31.467 60.2L1.57812 35C1.7559 34.8222 1.97812 34.6667 2.20035 34.5333C2.82257 34.1555 3.68924 34.0667 4.44479 34.3555L43.4448 49.8C45.4226 50.5778 45.5781 53.3555 43.6448 54.2889"/></svg>