<?xml version="1.0" encoding="UTF-8"?><svg id="Layer_1" xmlns="http://www.w3.org/2000/svg" viewBox="0 0 50 50"><defs><style>.cls-1{fill:#ea3049;}.cls-2{fill:#ffbc00;}.cls-3{fill:#b02437;}.cls-4{fill:#26b2f5;}</style></defs><path class="cls-2" d="m22.63,6.94L6.12,13.78c-.92.38-.91,1.68.02,2.05l16.58,6.57c1.46.58,3.08.58,4.54,0l16.58-6.57c.92-.37.93-1.67.02-2.05l-16.51-6.83c-1.51-.62-3.2-.62-4.7,0"/><path class="cls-4" d="m26.46,25.99v16.42c0,.78.79,1.32,1.51,1.03l18.47-7.17c.42-.17.7-.57.7-1.03v-16.42c0-.78-.79-1.32-1.51-1.03l-18.47,7.17c-.42.17-.7.57-.7,1.03"/><path class="cls-1" d="m22.14,26.84l-5.48,2.65-.56.27-11.57,5.55c-.73.35-1.67-.18-1.67-1v-15.42c0-.29.15-.55.35-.74.08-.08.18-.15.28-.21.28-.17.67-.21,1.01-.08l17.55,6.95c.89.35.96,1.6.09,2.02"/><path class="cls-3" d="m22.14,26.84l-5.48,2.65L3.21,18.15c.08-.08.18-.15.28-.21.28-.17.67-.21,1.01-.08l17.55,6.95c.89.35.96,1.6.09,2.02"/></svg>