<svg width="100" height="100" viewBox="0 0 100 100" fill="none" xmlns="http://www.w3.org/2000/svg">
<path fill-rule="evenodd" clip-rule="evenodd" d="M5.38997 91.3898L4.04511 90.1071C1.41475 87.4949 -0.0434466 83.9368 0.00131643 80.24C-0.0494489 76.5066 1.37823 72.9032 3.97602 70.2079L16.1304 57.8716C21.4257 52.3441 21.4257 43.6556 16.1304 38.1281L3.97142 25.7918C-1.32381 20.2643 -1.32381 11.5758 3.97142 6.04828L5.96108 4.0327C8.53472 1.45175 12.0381 0 15.6929 0C19.3477 0 22.8511 1.45175 25.4247 4.0327L57.5171 36.6668C57.7138 36.8356 57.9058 37.0097 58.0928 37.189L92.2532 70.6522C94.843 73.224 96.2982 76.7146 96.2982 80.3545C96.2982 83.9944 94.843 87.4849 92.2532 90.0567L90.2313 92.0403C84.6969 97.3199 75.9613 97.3199 70.4269 92.0403L58.056 79.9193C52.521 74.6367 43.7819 74.6367 38.2469 79.9193L25.8761 92.0403C23.1815 94.6224 19.5725 96.0444 15.8311 95.9981C12.129 96.0339 8.5695 94.5801 5.96108 91.967L5.38997 91.3898ZM81.4851 0.00153983C91.7098 0.00153983 100 8.26542 100 18.4624C100 28.6594 91.7098 36.9233 81.4851 36.9233C71.2462 36.9107 62.9555 28.6462 62.9657 18.4624C62.9657 8.26542 71.2559 0.00153983 81.4805 0.00153983" fill="#22CD9C"/>
</svg>
