<svg xmlns="http://www.w3.org/2000/svg" width="100" height="100" fill="none" viewBox="0 0 100 100"><path fill="#5291CC" d="M63.2931 99.0099H64.5047L84.3446 89.1775L84.6691 88.7062V10.2823L84.3446 9.81102L64.5047 0H63.2715V99.0099"/><path fill="#1F5B95" d="M37.4572 99.0099H36.224L16.3841 89.1775L15.973 88.492L15.7783 10.6679L16.3841 9.81102L36.224 0H37.4789V99.0099"/><path fill="#2D72B5" d="M36.2686 0H64.5031V99.0099H36.2686V0Z"/><path fill="#1A476F" d="M94.7495 47.2773L94.0788 47.1273L84.4942 46.249L84.3427 46.3133L64.4812 45.5207H36.2466L16.3851 46.3133V31.3183V31.2754L36.2466 26.7127H64.4812L84.3427 31.2754L91.6556 35.1099V32.6464L94.7495 32.3037L94.4249 31.6825L84.6456 24.7633L84.3427 24.849L64.4812 18.7439H36.2466L16.3851 24.849V9.78974L6 21.85V32.3679L6.08654 32.3037L9.0939 32.625V35.1527L6 36.7808V47.2558H6.08654L9.0939 47.2987V51.6901L6.49762 51.7329L6 51.6901V62.1652L9.0939 63.8146V66.3638L6.12981 66.6851L6 66.5994V77.1173L16.3851 89.1776V74.1183L36.2466 80.2234H64.4812L84.4076 74.1183L84.6672 74.2254L94.3167 67.4134L94.7495 66.7279L91.6556 66.3852V63.8789L91.2445 63.7289L84.6456 67.242L84.4076 67.7347L64.4812 72.2761H36.2466L16.3851 67.7133V52.654L36.2466 53.4466H64.4812L84.3427 52.654L84.7971 52.8683L94.0788 52.0757L94.7278 51.7543L91.6339 51.7115V47.3201L94.7278 47.2773"/><path fill="#2D72B5" d="M84.3662 74.1184V89.1777L94.7513 77.1174V66.6638L84.4311 74.0756H84.3662"/><path fill="#2D72B5" d="M84.3662 67.7563H84.4311L94.7513 62.251V51.7331L84.3662 52.6756V67.7563Z"/><path fill="#2D72B5" d="M84.4057 31.297H84.3408V46.3134L94.7259 47.2773V36.7594L84.4057 31.297Z"/><path fill="#2D72B5" d="M84.4057 24.9347L94.7259 32.3251V21.8715L84.3408 9.81119V24.8705H84.4057V24.9347Z"/></svg>