<svg width="100" height="100" viewBox="0 0 100 100" fill="none" xmlns="http://www.w3.org/2000/svg">
<path d="M50.3711 76.4172L88.4282 85.634V14.1498L50.3711 23.3666V76.4172Z" fill="#205B95"/>
<path d="M88.4287 14.1498L95.7416 17.8062V81.9992L88.4287 85.634V14.1498Z" fill="#5291CC"/>
<path d="M50.3716 76.4172L12.3145 85.634V14.1498L50.3716 23.3666V76.4172Z" fill="#5291CC"/>
<path d="M12.3129 14.1498L5 17.8062V81.9992L12.3129 85.634V14.1498Z" fill="#205B95"/>
<path d="M60.1078 100L74.582 92.7737V7.22631L60.1078 0L55.5859 47.5552L60.1078 100Z" fill="#5291CC"/>
<path d="M40.6323 100L26.1797 92.7737V7.22631L40.6323 0L45.1758 47.3821L40.6323 100Z" fill="#205B95"/>
<path d="M60.1295 0H40.6357V100H60.1295V0Z" fill="#2D72B5"/>
</svg>
