<?xml version="1.0" encoding="UTF-8"?><svg id="Layer_1" xmlns="http://www.w3.org/2000/svg" viewBox="0 0 50 50"><defs><style>.cls-1{fill:#58150d;}.cls-1,.cls-2,.cls-3{fill-rule:evenodd;}.cls-2{fill:#7b1d13;}.cls-3{fill:#df5444;}</style></defs><path class="cls-3" d="m40.79,9.88l-7.99,15.21,7.99,15.21,3.27-1.83V11.71l-3.27-1.83Z"/><path class="cls-2" d="m40.79,9.88l-15.99,1.83-8.14,13.39,8.14,13.39,15.99,1.83V9.88Z"/><path class="cls-1" d="m8.53,9.88l-2.6,1.16v28.12l2.6,1.16,16.27-15.21L8.53,9.88Z"/><path class="cls-3" d="m8.5,9.85l16.33,4.54v21.83l-16.33,4.11V9.85Z"/><path class="cls-1" d="m24.84,16.78l-6.93-1.11,6.93-7.87,6.92,7.87-6.92,1.11Z"/><path class="cls-1" d="m31.75,15.67l-6.93,1.13-6.93-1.13v-7.87"/><path class="cls-1" d="m24.84,33.3l-6.93,1.28,6.93,6.76,6.92-6.76-6.92-1.28Z"/><path class="cls-2" d="m24.81,1.89l-6.93,3.66v10.11l6.95-1.96-.02-11.81Z"/><path class="cls-2" d="m24.83,19.26l-6.93.75v10.1l6.93.79v-11.64Z"/><path class="cls-2" d="m24.83,36.3l-6.93-1.74v9.92l6.93,3.62v-11.81Z"/><path class="cls-3" d="m31.75,34.56l-6.93,1.74v11.81l6.93-3.62v-9.92Z"/><path class="cls-3" d="m24.83,19.26l6.93.75v10.1l-6.93.79v-11.64Z"/><path class="cls-3" d="m24.81,1.89l6.93,3.66v10.11l-6.93-1.93V1.89Z"/></svg>