<svg xmlns="http://www.w3.org/2000/svg" width="100" height="100" fill="none" viewBox="0 0 100 100"><path fill="#D6A441" d="M91.8264 32.4247H90.4853L50.425 20.5494V20.0086L50.4033 0.0216522L91.8048 20.7224V32.4463"/><path fill="#846929" d="M50.4015 21.1982V0L9 20.7007V79.2771L50.4015 99.9779L50.5313 99.7832L50.488 80.0775L50.4015 79.9693L47.8058 78.1307L15.7705 68.5915L15.9219 31.5378L50.3799 21.1766"/><path fill="#D6A441" d="M56.5912 63.1838L14.2812 69.1323V30.824L56.6129 36.7941V63.2054"/><path fill="#846929" d="M35.1519 60.7616L50.4016 62.7084V37.2488L35.1519 39.1956V60.7616ZM19.7939 58.8148L29.7009 60.0694V39.8878L19.7939 41.1424V58.7932"/><path fill="#624A1E" d="M14.2775 30.824L50.401 19.9869L91.8025 32.4246L56.6091 36.7941L14.2559 30.824"/><path fill="#D6A441" d="M91.8048 57.3872L50.4033 62.6219V37.2705L91.8048 42.5484V57.4088M91.8048 67.597L90.9179 67.6402L50.5547 79.8617L50.425 80.0131V100L91.8264 79.2993V67.5753"/><path fill="#F7D48E" d="M14.2812 69.1327L50.4048 79.9698L91.8063 67.5536L56.6129 63.1842L14.3029 69.1327"/></svg>