<svg xmlns="http://www.w3.org/2000/svg" width="100" height="100" fill="none" viewBox="0 0 100 100"><g clip-path="url(#clip0_681_1824)"><path fill="#fff" d="M50 100C77.6142 100 100 77.6142 100 50C100 22.3858 77.6142 0 50 0C22.3858 0 0 22.3858 0 50C0 77.6142 22.3858 100 50 100Z"/><mask id="mask0_681_1824" style="mask-type:luminance" width="100" height="100" x="0" y="0" maskUnits="userSpaceOnUse"><path fill="#fff" d="M100 0H0V100H100V0Z"/></mask><g mask="url(#mask0_681_1824)"><path fill="#35996F" d="M44.2839 0.298261C33.6544 1.37494 22.6213 6.69099 14.6828 14.6988C-4.89427 34.2135 -4.89427 65.8406 14.6828 85.3555C40.7856 111.532 85.6581 101.102 97.364 66.1101C103.486 47.7392 98.7767 27.9553 84.9855 14.3623C74.154 3.66287 59.7573 -1.31675 44.2839 0.298261ZM62.8518 21.6298C68.0322 24.3216 70.4541 28.4264 70.4541 34.4827C70.4541 38.1837 70.1175 39.5968 68.57 42.2212L66.7536 45.384L69.512 48.0757C73.5486 51.9788 75.1632 56.0163 75.1632 61.8031C75.1632 69.4073 71.7321 75.0598 64.6682 79.2321C59.5555 82.2602 54.8459 83.0001 41.7947 83.0001H29.8197V51.3732V19.7457H44.553H59.286L62.8518 21.6298Z"/><path fill="#35996F" d="M38.5654 39.5969V50.6327L40.9201 49.0178C42.2655 48.1431 44.8893 46.9318 46.8403 46.2588C59.0169 42.3559 63.9954 35.694 58.8151 30.4452L56.8644 28.4937H47.7148H38.5654V39.5969Z"/><path fill="#35996F" d="M53.3657 52.7862C44.6871 56.2181 42.8034 57.2946 40.9198 59.7172C39.3051 61.8031 39.036 62.9472 38.6997 68.196L38.3633 74.2523H45.0908C55.451 74.2523 61.6405 71.695 64.5332 66.1101C65.677 63.8894 65.7441 59.65 64.735 56.958C63.9277 54.805 60.2277 50.6999 59.1515 50.7675C58.7479 50.7675 56.1241 51.7092 53.3657 52.7862Z"/></g></g><defs><clipPath id="clip0_681_1824"><rect width="100" height="100" fill="#fff"/></clipPath></defs></svg>