<svg width="200" height="200" viewBox="0 0 200 200" fill="none" xmlns="http://www.w3.org/2000/svg">
<circle cx="100" cy="100" r="100" fill="white"/>
<g clip-path="url(#clip0_663_887)">
<path d="M88.6671 1.46667C67.6004 3.60001 45.7337 14.1333 30.0004 30C-8.79961 68.6667 -8.79961 131.333 30.0004 170C81.7337 221.867 170.667 201.2 193.867 131.867C206 95.4667 196.667 56.2667 169.334 29.3333C147.867 8.13334 119.334 -1.73333 88.6671 1.46667ZM125.467 43.7333C135.734 49.0667 140.534 57.2 140.534 69.2C140.534 76.5333 139.867 79.3333 136.8 84.5333L133.2 90.8L138.667 96.1333C146.667 103.867 149.867 111.867 149.867 123.333C149.867 138.4 143.067 149.6 129.067 157.867C118.934 163.867 109.6 165.333 83.7337 165.333H60.0004V102.667V40H89.2004H118.4L125.467 43.7333Z" fill="#35996F"/>
<path d="M77.334 79.3335V101.2L82.0007 98.0002C84.6673 96.2669 89.8673 93.8669 93.734 92.5335C117.867 84.8002 127.734 71.6002 117.467 61.2002L113.601 57.3335H95.4673H77.334V79.3335Z" fill="#35996F"/>
<path d="M106.667 105.467C89.4669 112.267 85.7336 114.4 82.0003 119.2C78.8003 123.333 78.2669 125.6 77.6003 136L76.9336 148H90.2669C110.8 148 123.067 142.933 128.8 131.867C131.067 127.467 131.2 119.067 129.2 113.733C127.6 109.467 120.267 101.333 118.134 101.467C117.334 101.467 112.134 103.333 106.667 105.467Z" fill="#35996F"/>
</g>
<defs>
<clipPath id="clip0_663_887">
<rect width="200" height="200" fill="white"/>
</clipPath>
</defs>
</svg>
