<svg width="100" height="87" viewBox="0 0 100 87" fill="none" xmlns="http://www.w3.org/2000/svg">
<g clip-path="url(#clip0_681_1833)">
<path d="M11.5895 55.0074C5.19314 55.0074 0 49.7223 0 43.2121C0 36.7022 5.19314 31.4814 11.5262 31.4814C17.8593 31.4814 23.0524 36.7665 23.0524 43.2121C23.0524 49.6577 17.986 55.0074 11.5895 55.0074ZM71.3738 0.0271301C62.8242 0.0271301 62.4443 7.37504 49.3979 7.37504C36.2251 7.37504 35.1487 0.0271301 27.3589 0.0271301C20.9625 0.0271301 15.8327 5.31246 15.8327 11.758C15.8327 18.2035 21.0258 23.4888 27.3589 23.4888C35.972 23.4888 36.3519 16.1409 49.3979 16.1409C62.5707 16.1409 63.6475 23.4888 71.4373 23.4888C77.8336 23.4888 82.9635 18.2035 82.9635 11.758C82.9635 5.31246 77.7704 0.0271301 71.3738 0.0271301ZM71.3738 62.8711C62.761 62.8711 62.3808 70.2188 49.3347 70.2188C36.1619 70.2188 35.0851 62.8711 27.2956 62.8711C20.8992 62.8711 15.7694 68.1562 15.7694 74.6018C15.7694 81.0474 20.9625 86.3328 27.2956 86.3328C35.9084 86.3328 36.2887 78.9847 49.3347 78.9847C62.5075 78.9847 63.584 86.3328 71.3738 86.3328C77.7704 86.3328 82.8999 81.0474 82.8999 74.6018C82.8999 68.1562 77.7704 62.8711 71.3738 62.8711ZM88.4732 31.4814C79.7969 31.4814 80.1136 39.216 69.2205 39.216C59.151 39.216 59.0243 31.5456 49.3347 31.5456C43.3183 31.5456 38.3784 37.1533 38.3784 43.2767C38.3784 49.3997 43.3815 55.0074 49.9046 55.0074C58.5809 55.0074 58.2645 47.2728 69.1573 47.2728C79.2268 47.2728 79.3535 54.9431 89.0431 54.9431C95.0595 54.9431 99.9994 49.3354 99.9994 43.2121C100.063 37.0887 95.0595 31.4814 88.4732 31.4814Z" fill="#1955FF"/>
</g>
<defs>
<clipPath id="clip0_681_1833">
<rect width="100" height="87" fill="white"/>
</clipPath>
</defs>
</svg>
