<svg width="100" height="100" viewBox="0 0 100 100" fill="none" xmlns="http://www.w3.org/2000/svg">
<path d="M44.8762 0.103025C49.1633 0.51214 56.0077 2.01707 63.2663 3.8532V25.999C58.5216 25.2198 54.5269 24.6353 52.5488 24.4697C45.1101 23.8511 28.7805 29.827 29.4042 50.0003C30.0277 70.1734 47.1708 74.2453 49.7429 74.2453C50.6441 74.2453 56.2855 73.5535 63.2907 72.6427V95.115C59.3595 96.2546 55.4964 97.4429 51.9158 98.6216C34.5728 104.413 6.67834 92.626 5.06585 50.4971C3.45336 8.36809 31.8692 -1.13406 44.8762 0.103025Z" fill="#4FAEDE"/>
<path d="M94.4613 12.698V31.4929C94.4613 31.4929 82.0339 29.1892 70.4883 27.2118V5.75763C82.9205 9.1036 94.4613 12.698 94.4613 12.698Z" fill="#4FAEDE"/>
<path d="M70.4883 71.6979C82.2045 70.1444 94.4613 68.4689 94.4613 68.4689V87.0593C94.4613 87.0593 83.1591 89.6405 70.4883 93.1033V71.6979Z" fill="#4FAEDE"/>
</svg>
