<svg width="100" height="100" viewBox="0 0 100 100" fill="none" xmlns="http://www.w3.org/2000/svg">
<path d="M25.501 72.2161H91.6801V53.9034L79.108 46.6939L76.9392 45.7564L25.501 46.1095V72.2161Z" fill="white"/>
<path d="M68.7885 69.785C69.4042 67.6756 69.1698 65.7412 68.1448 64.3037C67.2073 62.9849 65.6229 62.2224 63.7197 62.1349L27.6411 61.6661C27.4067 61.6661 27.2035 61.5474 27.0848 61.3724C26.966 61.1974 26.9379 60.9661 26.9973 60.7286C27.116 60.3755 27.4661 60.113 27.8473 60.0849L64.2478 59.6161C68.5604 59.4099 73.248 55.9223 74.8855 51.6472L76.9668 46.2253C77.0584 46.0027 77.0802 45.7574 77.0293 45.5221C74.6855 34.9126 65.2166 27 53.9039 27C43.4663 27 34.6224 33.7407 31.4536 43.094C29.4005 41.569 26.766 40.7502 23.9785 41.0127C18.9659 41.5127 14.9159 45.5253 14.4534 50.5378C14.3319 51.7844 14.4206 53.0426 14.7159 54.2598C10.7725 54.3665 7.02694 56.0097 4.27784 58.8387C1.52874 61.6678 -0.00631573 65.459 1.95317e-05 69.4038C1.95317e-05 70.135 0.0625205 70.8725 0.146897 71.6007C0.209398 71.9538 0.500027 72.2163 0.850032 72.2163H67.4385C67.6301 72.2126 67.8155 72.1483 67.9682 72.0326C68.1209 71.917 68.2331 71.7559 68.2885 71.5725L68.7885 69.785Z" fill="#F38020"/>
<path d="M80.2751 46.6002L79.2751 46.6315C79.0407 46.6315 78.8376 46.8065 78.7439 47.0377L77.3376 51.9315C76.722 54.0409 76.9563 55.9753 77.9813 57.4129C78.9189 58.7316 80.5033 59.4941 82.4064 59.5816L90.0847 60.0504C90.319 60.0504 90.5222 60.1692 90.6409 60.3442C90.7597 60.5192 90.7878 60.7817 90.7284 60.9879C90.6097 61.341 90.2597 61.6036 89.8784 61.6317L81.8783 62.1004C77.5407 62.3067 72.8781 65.7942 71.2406 70.0693L70.6531 71.5631C70.5344 71.8568 70.7406 72.1506 71.0594 72.1506H98.5504C98.7095 72.1528 98.8649 72.1022 98.9922 72.0066C99.1194 71.911 99.2113 71.7759 99.2535 71.6224C99.7407 69.8891 99.9919 68.0979 100 66.2974C99.9855 61.0733 97.9016 56.068 94.2047 52.377C90.5078 48.6859 85.4992 46.6068 80.2751 46.6002Z" fill="#FAAE40"/>
</svg>
