<svg xmlns="http://www.w3.org/2000/svg" width="100" height="100" fill="none" viewBox="0 0 100 100"><g clip-path="url(#clip0_681_1842)"><path fill="#ED2226" d="M50 0C22.4222 0 0 22.3556 0 50C0 77.6444 22.3556 100 50 100C77.6444 100 100 77.6444 100 50C100 22.3556 77.5778 0 50 0ZM83.7556 58.7556C83.7556 61.7778 82.0222 64.4222 78.6222 65.0222C72.7333 66.0889 60.3333 66.6889 50 66.6889C39.6667 66.6889 27.2667 66.0889 21.3778 65.0222C17.9778 64.4222 16.2444 61.7778 16.2444 58.7556V39.2667C16.2444 36.2444 18.5778 33.4444 21.3778 33C23.1111 32.6889 27.2 32.4 30.3556 32.4C31.5556 32.4 32.5556 33.3111 32.5556 34.7333V48.4L50.0889 48.0222L67.6222 48.4V34.7333C67.6222 33.2889 68.6 32.4 69.8222 32.4C73 32.4 77.0667 32.7111 78.8 33C81.6667 33.4444 83.9333 36.2444 83.9333 39.2667C83.7778 45.6889 83.7778 52.2667 83.7778 58.7556H83.7556Z"/></g><defs><clipPath id="clip0_681_1842"><rect width="100" height="100" fill="#fff"/></clipPath></defs></svg>