<?xml version="1.0" encoding="UTF-8"?><svg id="Layer_1" xmlns="http://www.w3.org/2000/svg" viewBox="0 0 50 50"><defs><style>.cls-1{fill:#ed2226;}</style></defs><path class="cls-1" d="m25,2.5C12.59,2.5,2.5,12.56,2.5,25s10.06,22.5,22.5,22.5,22.5-10.06,22.5-22.5S37.41,2.5,25,2.5Zm15.19,26.44c0,1.36-.78,2.55-2.31,2.82-2.65.48-8.23.75-12.88.75s-10.23-.27-12.88-.75c-1.53-.27-2.31-1.46-2.31-2.82v-8.77c0-1.36,1.05-2.62,2.31-2.82.78-.14,2.62-.27,4.04-.27.54,0,.99.41.99,1.05v6.15l7.89-.17,7.89.17v-6.15c0-.65.44-1.05.99-1.05,1.43,0,3.26.14,4.04.27,1.29.2,2.31,1.46,2.31,2.82-.07,2.89-.07,5.85-.07,8.77h0Z"/></svg>