<svg width="100" height="100" viewBox="0 0 100 100" fill="none" xmlns="http://www.w3.org/2000/svg">
<path fill-rule="evenodd" clip-rule="evenodd" d="M93.4563 28.1109V87.4563C93.4563 90.7698 92.14 93.9477 89.7969 96.2907C87.4539 98.6337 84.2761 99.95 80.9625 99.95H74.7156V93.7032H80.9625C82.6193 93.7032 84.2082 93.045 85.3797 91.8735C86.5512 90.702 87.2094 89.113 87.2094 87.4563V28.1109H74.7156C72.2305 28.1109 69.8471 27.1237 68.0898 25.3664C66.3326 23.6092 65.3453 21.2258 65.3453 18.7406V6.24688H30.9875C29.3307 6.24688 27.7418 6.90503 26.5703 8.07654C25.3988 9.24806 24.7406 10.837 24.7406 12.4938V68.7156H18.4938V12.4938C18.4938 9.1802 19.8101 6.00237 22.1531 3.65934C24.4961 1.3163 27.674 0 30.9875 0L65.3453 0L93.4563 28.1109ZM27.9703 92.7099C28.006 93.6942 28.2474 94.6601 28.6788 95.5455C29.1102 96.431 29.7222 97.2163 30.4753 97.8511C31.2874 98.5257 32.2806 99.0505 33.4613 99.4253C34.6482 99.8064 36.0287 99.9938 37.6154 99.9938C39.7269 99.9938 41.5135 99.6627 42.9815 99.0067C44.4558 98.3508 45.5802 97.4325 46.3486 96.2581C47.1294 95.0775 47.5167 93.7094 47.5167 92.1602C47.5167 90.7609 47.2356 89.599 46.6797 88.6619C46.1079 87.726 45.3 86.9569 44.3371 86.4318C43.2306 85.8205 42.0388 85.3783 40.8014 85.1199L36.922 84.2204C36.0076 84.0524 35.1441 83.6762 34.3983 83.1209C34.1133 82.9011 33.8835 82.6178 33.7274 82.2935C33.5712 81.9693 33.4929 81.613 33.4988 81.2531C33.4988 80.2786 33.8861 79.479 34.6544 78.8543C35.4353 78.2234 36.5035 77.9048 37.8528 77.9048C38.7461 77.9048 39.5145 78.0485 40.1642 78.3296C40.7622 78.5734 41.2902 78.9619 41.7009 79.4603C42.0854 79.924 42.3436 80.4792 42.4505 81.072H47.1357C47.0577 79.7998 46.6249 78.575 45.8863 77.5362C45.0968 76.415 44.0171 75.5296 42.7629 74.975C41.2289 74.3021 39.5647 73.9778 37.8903 74.0255C36.06 74.0255 34.4483 74.3378 33.0427 74.9625C31.6372 75.581 30.544 76.4618 29.7506 77.5925C28.9573 78.7294 28.5637 80.06 28.5637 81.5842C28.5637 82.8398 28.8136 83.933 29.3258 84.8576C29.8381 85.7884 30.5752 86.5442 31.5247 87.1502C32.4743 87.7436 33.5987 88.1934 34.8918 88.4808L38.7524 89.3803C40.0455 89.6864 41.0075 90.0862 41.6447 90.586C41.956 90.8232 42.205 91.1325 42.3704 91.4872C42.5358 91.8419 42.6126 92.2315 42.5942 92.6224C42.6063 93.2663 42.421 93.8985 42.0632 94.434C41.661 94.9825 41.1073 95.4015 40.4703 95.6397C39.7769 95.9333 38.9148 96.077 37.8903 96.077C37.1594 96.077 36.4973 95.9958 35.8913 95.8271C35.3391 95.674 34.8157 95.4313 34.3421 95.1087C33.9262 94.8395 33.5702 94.4876 33.2961 94.075C33.0221 93.6623 32.8359 93.1976 32.7491 92.7099H27.9703ZM11.035 85.5385C11.035 83.9893 11.2474 82.6649 11.6722 81.5842C12.0427 80.5862 12.6988 79.7193 13.5587 79.0917C14.4352 78.5057 15.4721 78.2066 16.526 78.2359C17.463 78.2359 18.2939 78.4358 19.0122 78.8418C19.7162 79.218 20.3039 79.7797 20.7114 80.466C21.1468 81.1886 21.4038 82.0044 21.461 82.8461H26.2399V82.3963C26.1984 81.2456 25.9183 80.1161 25.4171 79.0794C24.916 78.0428 24.2049 77.1216 23.3288 76.3743C22.4314 75.6138 21.3936 75.0365 20.2741 74.6752C19.0551 74.2625 17.7754 74.0576 16.4885 74.0692C14.2646 74.0692 12.3656 74.5315 10.7976 75.4623C9.23588 76.3868 8.04898 77.7049 7.22439 79.4103C6.41229 81.1219 6 83.1584 6 85.526V88.6369C6 91.0045 6.3998 93.0347 7.20565 94.7339C8.02399 96.4268 9.21714 97.7324 10.7789 98.6444C12.3406 99.5502 14.2396 100 16.4885 100C18.3188 100 19.9493 99.6564 21.3923 98.9755C22.8291 98.2884 23.9785 97.3513 24.8281 96.1394C25.6899 94.899 26.1797 93.4383 26.2399 91.929V91.4543H21.4673C21.4084 92.2586 21.1554 93.0367 20.7301 93.7219C20.3138 94.3852 19.727 94.9246 19.031 95.2836C18.2509 95.661 17.3923 95.8473 16.526 95.8271C15.4706 95.857 14.4304 95.5698 13.54 95.0025C12.6846 94.3934 12.0334 93.5398 11.6722 92.5537C11.2154 91.2998 10.9992 89.971 11.035 88.6369V85.5447V85.5385ZM62.503 99.519H56.5497L48.1914 74.5377H53.9198L59.517 94.1404H59.7544L65.3016 74.5377H70.7926L62.503 99.5252V99.519Z" fill="#151515"/>
</svg>
