<svg width="100" height="100" viewBox="0 0 100 100" fill="none" xmlns="http://www.w3.org/2000/svg">
<path d="M91.1277 41.1702L49.8936 64.5319L6.08511 39.6596L4.04255 40.766V58.8298L49.9362 84.9787L91.1702 61.617V71.234L49.9362 94.5957L6.08511 69.7021L4.04255 70.8085V73.8511L49.9362 100L96 73.8511V55.7872L93.9574 54.6809L49.8936 79.5745L8.82979 56.1915V46.7447L49.8936 69.9574L95.9574 43.8085V26L93.5957 24.7447L49.8936 49.4894L11.0213 27.3617L49.8936 5.40426L81.9787 23.4681L84.8723 21.9362V19.7234L49.8936 0L4 26.0426V28.8298L49.8936 54.9787L91.1277 31.617V41.1702Z" fill="#FF3621"/>
</svg>
