<?xml version="1.0" encoding="UTF-8"?><svg id="Layer_1" xmlns="http://www.w3.org/2000/svg" viewBox="0 0 50 50"><defs><style>.cls-1{fill:#ff3621;}</style></defs><path class="cls-1" d="m44.33,20.85l-19.38,10.98L4.36,20.14l-.96.52v8.49l21.57,12.29,19.38-10.98v4.52l-19.38,10.98-20.61-11.7-.96.52v1.43l21.57,12.29,21.65-12.29v-8.49l-.96-.52-20.71,11.7L5.65,27.91v-4.44l19.3,10.91,21.65-12.29v-8.37l-1.11-.59-20.54,11.63L6.68,14.36,24.95,4.04l15.08,8.49,1.36-.72v-1.04L24.95,1.5,3.38,13.74v1.31l21.57,12.29,19.38-10.98v4.49Z"/></svg>