<?xml version="1.0" encoding="UTF-8"?><svg id="Layer_1" xmlns="http://www.w3.org/2000/svg" xmlns:xlink="http://www.w3.org/1999/xlink" viewBox="0 0 50 50"><defs><style>.cls-1{fill:none;}.cls-2{clip-path:url(#clippath);}.cls-3{fill:#6cd210;}.cls-3,.cls-4,.cls-5{fill-rule:evenodd;}.cls-4{fill:#c8ff82;}.cls-5{fill:#8beb2d;}</style><clipPath id="clippath"><rect class="cls-1" x="3.44" y="4.85" width="43.13" height="40.3"/></clipPath></defs><g class="cls-2"><g id="Screen_iso_color_screen-iso-devengo-color-fides"><g id="isotipo"><path id="_3" class="cls-3" d="m26.24,45.15H3.44v-5.76h22.84c7.93,0,14.49-6.37,14.53-14.31.04-7.96-6.37-14.44-14.32-14.47-.02,0-.04,0-.05,0H3.44v-5.76h23c11.13.01,20.14,9.05,20.13,20.2h0c-.03,11.14-9.2,20.09-20.32,20.09"/><path id="_2" class="cls-5" d="m14.74,45.15H3.44v-5.76h11.35c7.93,0,14.49-6.37,14.54-14.31.04-7.96-6.38-14.44-14.33-14.47-.02,0-.03,0-.05,0H3.44v-5.76h11.51c11.13.02,20.14,9.06,20.13,20.2-.03,11.14-9.2,20.09-20.33,20.09"/><path id="_1" class="cls-4" d="m3.44,45.15v-5.76c7.94,0,14.38-6.45,14.39-14.39,0-7.94-6.45-14.38-14.39-14.39v-5.76c11.12.01,20.13,9.03,20.15,20.15-.01,11.12-9.03,20.13-20.15,20.15Z"/></g></g></g></svg>