<svg width="100" height="100" viewBox="0 0 100 100" fill="none" xmlns="http://www.w3.org/2000/svg">
<mask id="mask0_681_1846" style="mask-type:luminance" maskUnits="userSpaceOnUse" x="0" y="3" width="100" height="94">
<path d="M100 3H0V96.4384H100V3Z" fill="white"/>
</mask>
<g mask="url(#mask0_681_1846)">
<path fill-rule="evenodd" clip-rule="evenodd" d="M52.8634 96.4384H0V83.0835H52.9562C71.3424 83.0835 86.5523 68.3142 86.645 49.9047C86.7378 31.4489 71.8757 16.4245 53.4431 16.355C53.3967 16.355 53.3503 16.355 53.3271 16.355H0V3H53.3271C79.1328 3.02319 100.023 23.9831 100 49.8351C99.9304 75.664 78.6691 96.4153 52.8866 96.4153" fill="#6CD210"/>
<path fill-rule="evenodd" clip-rule="evenodd" d="M26.1999 96.4384H0V83.0835H26.3158C44.7021 83.0835 59.9119 68.3142 60.0278 49.9047C60.1206 31.4489 45.2353 16.4245 26.8027 16.355C26.7563 16.355 26.7331 16.355 26.6868 16.355H0V3H26.6868C52.4925 3.04637 73.3828 24.0063 73.3596 49.8351C73.2901 75.664 52.0288 96.4153 26.223 96.4153" fill="#8BEB2D"/>
<path fill-rule="evenodd" clip-rule="evenodd" d="M0 96.4384V83.0835C18.4095 83.0835 33.3411 68.1287 33.3642 49.7192C33.3642 31.3098 18.4095 16.3782 0 16.355V3C25.7825 3.02319 46.6728 23.9367 46.7192 49.7192C46.696 75.5017 25.7825 96.3921 0 96.4384Z" fill="#C8FF82"/>
</g>
</svg>
