<svg xmlns="http://www.w3.org/2000/svg" width="100" height="100" fill="none" viewBox="0 0 100 100"><path fill="#5865EF" d="M84.6863 17.4744C78.2119 14.4515 71.2864 12.2407 64.0676 11C63.1878 12.6017 62.1501 14.7673 61.4283 16.4818C53.7357 15.3313 46.1109 15.3313 38.5763 16.4818C37.8544 14.7673 36.7941 12.6017 35.8918 11C28.6504 12.2633 21.7249 14.4515 15.2506 17.4969C2.18905 37.2132 -1.35267 56.4558 0.429472 75.4277C9.09202 81.9021 17.4839 85.8273 25.7404 88.399C27.7706 85.6017 29.5979 82.6239 31.1544 79.4657C28.1767 78.3378 25.3117 76.9391 22.6273 75.3149C23.3491 74.7735 24.0485 74.2321 24.7252 73.6681C41.1705 81.3606 59.0596 81.3606 75.3019 73.6681C75.9786 74.2321 76.678 74.7961 77.3998 75.3149C74.6928 76.9391 71.8278 78.3378 68.8501 79.4657C70.4066 82.6014 72.2339 85.5791 74.2642 88.399C82.5207 85.8273 90.9125 81.9021 99.575 75.4277C101.65 53.433 96.0333 34.3708 84.7089 17.4744H84.6863ZM33.3652 63.7648C28.4248 63.7648 24.3868 59.1629 24.3868 53.5457C24.3868 47.9286 28.3572 43.3041 33.3652 43.3041C38.3732 43.3041 42.4338 47.9061 42.3436 53.5457C42.3436 59.1629 38.3732 63.7648 33.3652 63.7648ZM66.5942 63.7648C61.6538 63.7648 57.6158 59.1629 57.6158 53.5457C57.6158 47.9286 61.5862 43.3041 66.5942 43.3041C71.6022 43.3041 75.6628 47.9061 75.5726 53.5457C75.5726 59.1629 71.6022 63.7648 66.5942 63.7648Z"/></svg>