<svg xmlns="http://www.w3.org/2000/svg" width="100" height="100" fill="none" viewBox="0 0 100 100"><path fill="#FD9966" d="M99.9996 31.0263L80.7672 58.9736C78.6151 62.0984 75.7355 64.653 72.3766 66.4174C69.0176 68.1818 65.2801 69.1029 61.486 69.1016H53.2451L72.5245 41.1298C74.6762 38.005 77.5554 35.4502 80.914 33.6855C84.2726 31.9208 88.0099 30.9992 91.8039 31L99.9996 31.0263Z"/><path fill="#FD9966" d="M73.4065 31.0264L54.1741 58.9737C52.0158 62.1061 49.1269 64.6656 45.7572 66.4306C42.3875 68.1956 38.6385 69.113 34.8345 69.1035H26.5918L45.8712 41.1318C48.0301 37.9982 50.9202 35.438 54.2914 33.6729C57.6625 31.9079 61.4131 30.9911 65.2183 31.0019L73.4065 31.0264Z"/><path fill="#FD9966" d="M46.8147 31.0264L27.5823 58.9737C25.4242 62.1063 22.5352 64.6658 19.1655 66.4308C15.7958 68.1958 12.0467 69.1132 8.24273 69.1035H0L19.2794 41.1318C21.4384 37.9983 24.3286 35.4382 27.6997 33.6732C31.0708 31.9081 34.8213 30.9912 38.6265 31.0019L46.8147 31.0264Z"/><path fill="#CE6E4D" d="M99.9996 31.0262L80.7672 58.9735C78.6155 62.0983 75.7363 64.6532 72.3777 66.4179C69.0191 68.1825 65.2818 69.1042 61.4878 69.1033H53.2451C78.4192 69.1259 84.2009 31.0262 99.9996 31.0262Z"/><path fill="#CE6E4D" d="M73.4078 31.0262L54.1754 58.9735C52.0237 62.0983 49.1445 64.6532 45.7859 66.4179C42.4273 68.1825 38.69 69.1042 34.896 69.1033H26.6533C51.8274 69.1259 57.6091 31.0262 73.4078 31.0262Z"/><path fill="#CE6E4D" d="M46.815 31.0262L27.5826 58.9735C25.4309 62.0983 22.5518 64.6532 19.1931 66.4179C15.8345 68.1825 12.0972 69.1042 8.30322 69.1033H0.0605469C25.2346 69.1259 31.0163 31.0262 46.815 31.0262Z"/></svg>