<svg width="100" height="100" viewBox="0 0 100 100" fill="none" xmlns="http://www.w3.org/2000/svg">
<g clip-path="url(#clip0_681_1858)">
<path d="M71.2544 37.5H45.1211C45.2544 38.1222 45.4989 38.7444 45.6322 39.2556C46.4989 42.2556 47.01 45.3889 47.2544 48.6333C47.3878 49.8778 47.3878 51.2556 47.3878 52.5C47.3878 53.7444 47.3878 55.1222 47.2544 56.3667C47.01 59.6111 46.4989 62.7444 45.6322 65.7444C45.4989 66.3667 45.2544 66.9889 45.1211 67.5H71.2544C79.4989 67.5 86.1211 60.7444 86.1211 52.5C86.1211 44.2556 79.4989 37.5 71.2544 37.5Z" fill="#00A9E5"/>
<path d="M47.2556 56.3667C47.3889 55.1222 47.3889 53.7444 47.3889 52.5C47.3889 51.2556 47.3889 49.8778 47.2556 48.6333C47.0111 45.3889 46.5 42.2556 45.6333 39.2556C45.5 38.6333 45.2556 38.0111 45.1222 37.5H4.74444C3.25556 42.2556 2.5 47.2556 2.5 52.5C2.5 57.7444 3.25556 62.7444 4.74444 67.5H45.1222C45.2556 66.8778 45.5 66.2556 45.6333 65.7444C46.5 62.7444 47.0111 59.6111 47.2556 56.3667Z" fill="#353535"/>
<path d="M75.7456 72.5H43.2567C42.2567 74.7444 41.1233 76.8778 39.8789 78.8778C38.0122 82.0111 35.7456 84.7444 33.2567 87.3889C32.39 88.2556 31.5011 89.0111 30.6345 89.8778C28.8789 91.5 26.8789 92.8778 24.8789 94.2556C32.7456 99.5 42.2567 102.5 52.3678 102.5C69.7456 102.5 84.99 93.6333 93.99 80.2556C89.3678 75.5 82.8567 72.5 75.7456 72.5Z" fill="#00BFB3"/>
<path d="M39.8763 78.8778C41.1207 76.8778 42.2541 74.7444 43.2541 72.5H6.63184C10.4985 81.3667 16.8763 88.9889 25.0096 94.2556C27.0096 92.8778 28.8763 91.5 30.7652 89.8778C31.6318 89.1222 32.5207 88.2556 33.3874 87.3889C35.7652 84.9 38.0096 82.0111 39.8763 78.8778Z" fill="#019B8F"/>
<path d="M33.2575 17.6333C32.3908 16.7666 31.502 16.011 30.6353 15.1444C28.8797 13.5222 26.8797 12.1444 24.8797 10.7666C16.8797 16.011 10.502 23.6333 6.50195 32.5222H43.1242C42.1242 30.2777 40.9908 28.1444 39.7464 26.1444C37.9908 23.011 35.7464 20.1444 33.2353 17.6333H33.2575Z" fill="#F9B110"/>
<path d="M52.3678 2.5C42.2345 2.5 32.7456 5.5 24.8789 10.7444C26.8789 12.1222 28.7456 13.5 30.6345 15.1222C31.5011 15.8778 32.39 16.7444 33.2567 17.6111C35.7456 20.2333 38.0122 22.9889 39.8789 26.1222C41.1233 28.1222 42.2567 30.2556 43.2567 32.5H75.7456C82.8789 32.5 89.3678 29.5 93.99 24.7444C84.99 11.3667 69.7456 2.5 52.3678 2.5Z" fill="#FED10A"/>
</g>
<defs>
<clipPath id="clip0_681_1858">
<rect width="100" height="100" fill="white"/>
</clipPath>
</defs>
</svg>
