<?xml version="1.0" encoding="UTF-8"?><svg id="Layer_1" xmlns="http://www.w3.org/2000/svg" viewBox="0 0 50 50"><defs><style>.cls-1{fill:#f9b110;}.cls-2{fill:#019b8f;}.cls-3{fill:#00bfb3;}.cls-4{fill:#00a9e5;}.cls-5{fill:#fed10a;}.cls-6{fill:#353535;}</style></defs><path class="cls-4" d="m33.44,18.25h-11.76c.06.28.17.56.23.79.39,1.35.62,2.76.73,4.22.06.56.06,1.18.06,1.74s0,1.18-.06,1.74c-.11,1.46-.34,2.87-.73,4.22-.06.28-.17.56-.23.79h11.76c3.71,0,6.69-3.04,6.69-6.75s-2.98-6.75-6.69-6.75Z"/><path class="cls-6" d="m22.64,26.74c.06-.56.06-1.18.06-1.74s0-1.18-.06-1.74c-.11-1.46-.34-2.87-.73-4.22-.06-.28-.17-.56-.23-.79H3.51c-.67,2.14-1.01,4.39-1.01,6.75s.34,4.61,1.01,6.75h18.17c.06-.28.17-.56.23-.79.39-1.35.62-2.76.73-4.22Z"/><path class="cls-3" d="m35.46,34h-14.62c-.45,1.01-.96,1.97-1.52,2.87-.84,1.41-1.86,2.64-2.98,3.83-.39.39-.79.73-1.18,1.12-.79.73-1.69,1.35-2.59,1.97,3.54,2.36,7.82,3.71,12.37,3.71,7.82,0,14.68-3.99,18.73-10.01-2.08-2.14-5.01-3.49-8.21-3.49h0Z"/><path class="cls-2" d="m19.32,36.87c.56-.9,1.07-1.86,1.52-2.87H4.36c1.74,3.99,4.61,7.42,8.27,9.79.9-.62,1.74-1.24,2.59-1.97.39-.34.79-.73,1.18-1.12,1.07-1.12,2.08-2.42,2.92-3.83h0Z"/><path class="cls-1" d="m16.34,9.31c-.39-.39-.79-.73-1.18-1.12-.79-.73-1.69-1.35-2.59-1.97-3.6,2.36-6.47,5.79-8.27,9.79h16.48c-.45-1.01-.96-1.97-1.52-2.87-.79-1.41-1.8-2.7-2.93-3.83Z"/><path class="cls-5" d="m24.94,2.5c-4.56,0-8.83,1.35-12.37,3.71.9.62,1.74,1.24,2.59,1.97.39.34.79.73,1.18,1.12,1.12,1.18,2.14,2.42,2.98,3.83.56.9,1.07,1.86,1.52,2.87h14.62c3.21,0,6.13-1.35,8.21-3.49-4.05-6.02-10.91-10.01-18.73-10.01Z"/></svg>