<svg width="100" height="100" viewBox="0 0 100 100" fill="none" xmlns="http://www.w3.org/2000/svg">
<path d="M84.2391 63H84.7599V60.5891H84.7687L85.6349 63H86.0854L86.9516 60.5891H86.9604V63H87.4812V59.876H86.7198L85.8797 62.3219H85.8708L85.0094 59.876H84.2391V63ZM81.3562 60.3484H82.3448V63H82.8917V60.3484H83.8849V59.876H81.3562V60.3484ZM75 63L100 38H84.9531L59.9536 63H75ZM71.4156 48.8875H41.1516C31.9281 48.8875 30.3141 49.3766 26.3635 53.3271C22.6687 57.0219 16.6672 63 16.6672 63H29.7771L32.9047 59.8724C34.9609 57.8161 36.0214 57.6031 40.3391 57.6031H62.7005L71.4156 48.8875ZM25.9599 51.5443C23.2312 54.1187 17.2943 59.8859 14.0943 63H0C0 63 11.2938 51.7391 17.5708 45.5604C24.038 39.4042 27.262 38 39.124 38H82.3036L72.9542 47.349H40.001C31.6661 47.349 29.7932 47.9266 25.9599 51.5443Z" fill="#EE0000"/>
</svg>
