<svg xmlns="http://www.w3.org/2000/svg" width="100" height="100" fill="none" viewBox="0 0 100 100"><g clip-path="url(#clip0_681_1870)"><path fill="#FF355E" d="M81.4895 88.8221C72.8895 95.7999 61.9339 99.9777 50.0006 99.9777C38.0673 99.9777 27.1117 95.7999 18.5117 88.8221C27.1117 81.8443 38.0673 77.6666 50.0006 77.6666C61.9339 77.6666 72.8895 81.8443 81.4895 88.8221Z"/><path fill="#FF355E" fill-rule="evenodd" d="M18.2444 76.7556C12.1333 69.5333 8.46667 60.1778 8.46667 49.9778C8.46667 27.0444 27.0667 8.44444 50 8.44444C72.9333 8.44444 91.5333 27.0444 91.5333 49.9778C91.5333 60.1778 87.8445 69.5333 81.7556 76.7556C83.8667 78.0667 85.8667 79.5111 87.7778 81.0667L88.6222 81.7556C95.7333 73.1111 100 62.0667 100 50C100 22.3778 77.6222 0 50 0C22.3778 0 0 22.3556 0 49.9778C0 62.0444 4.26667 73.1111 11.3778 81.7333L12.2222 81.0444C14.1333 79.4889 16.1556 78.0444 18.2444 76.7333V76.7556Z" clip-rule="evenodd"/><path fill="#FF355E" d="M68.4656 48.4444C68.4656 58.6444 60.1989 66.9111 49.9989 66.9111C39.7989 66.9111 31.5322 58.6444 31.5322 48.4444C31.5322 38.2444 39.7989 29.9778 49.9989 29.9778C60.1989 29.9778 68.4656 38.2444 68.4656 48.4444Z"/></g><defs><clipPath id="clip0_681_1870"><rect width="100" height="100" fill="#fff"/></clipPath></defs></svg>