<?xml version="1.0" encoding="UTF-8"?><svg id="Layer_1" xmlns="http://www.w3.org/2000/svg" viewBox="0 0 50 50"><defs><style>.cls-1,.cls-2{fill:#ff355e;}.cls-2{fill-rule:evenodd;}</style></defs><path class="cls-1" d="m39.17,42.48c-3.87,3.14-8.8,5.02-14.17,5.02s-10.3-1.88-14.17-5.02c3.87-3.14,8.8-5.02,14.17-5.02s10.3,1.88,14.17,5.02Z"/><path class="cls-2" d="m10.71,37.05c-2.75-3.25-4.4-7.46-4.4-12.05C6.31,14.68,14.68,6.31,25,6.31s18.69,8.37,18.69,18.69c0,4.59-1.66,8.8-4.4,12.05.95.59,1.85,1.24,2.71,1.94l.38.31c3.2-3.89,5.12-8.86,5.12-14.29,0-12.43-10.07-22.5-22.5-22.5S2.5,12.57,2.5,25c0,5.43,1.92,10.41,5.12,14.29l.38-.31c.86-.7,1.77-1.35,2.71-1.94Z"/><path class="cls-1" d="m33.31,24.31c0,4.59-3.72,8.31-8.31,8.31s-8.31-3.72-8.31-8.31,3.72-8.31,8.31-8.31,8.31,3.72,8.31,8.31Z"/></svg>