<svg width="100" height="100" viewBox="0 0 100 100" fill="none" xmlns="http://www.w3.org/2000/svg">
<g clip-path="url(#clip0_681_1877)">
<path d="M31.8199 6.54027L26.3716 8.89293C23.4453 10.1566 20.6139 11.6294 17.8993 13.2999L15.7863 14.6002C14.0994 15.6383 12.5006 16.8131 11.0059 18.1128L10.485 18.5658C8.90362 19.9409 7.47226 21.4796 6.2149 23.1561L6.0047 23.4363C4.72576 25.1416 3.65507 26.9935 2.81541 28.9527C1.87263 31.1525 1.22913 33.4689 0.902112 35.8397L0.5 38.755C0.5 43.5165 0.959123 48.2669 1.87099 52.9403L2.28971 55.0861L4.97427 63.811L8.10626 72.3121L10.7908 78.3524L11.7678 80.2311C13.0528 82.7022 14.5567 85.053 16.2617 87.2553L16.8629 88.032C18.3296 89.9264 19.9787 91.6723 21.7866 93.2441L22.28 93.6732C23.5666 94.7922 24.9489 95.7958 26.4109 96.6732L26.9251 96.9814C28.0979 97.6852 29.3322 98.2808 30.6128 98.7609C32.894 99.6163 35.2985 100.097 37.7331 100.184L40.321 100.276L43.6685 100.172C46.206 100.092 48.7349 99.8311 51.2351 99.3899C53.7989 98.9376 56.326 98.2969 58.7962 97.4736L68.5089 94.236L71.9944 92.7421C76.972 90.6087 81.7886 88.1175 86.406 85.2875L90.7277 81.7376C92.0199 80.6763 93.2119 79.4987 94.2893 78.2195C95.5922 76.6723 96.7192 74.9855 97.6503 73.1899L98.143 72.24C98.9653 70.6539 99.5819 68.9694 99.9779 67.2275C100.325 65.7004 100.5 64.1394 100.5 62.5734V59.7841V56.6521L99.8289 50.3881L98.4866 44.5716L95.5783 35.1756L92.67 27.7931L89.7617 21.5291L88.4195 18.8445L88.1085 18.3158C86.8262 16.1358 85.3846 14.0536 83.7953 12.0861C82.2566 10.181 80.5837 8.38846 78.789 6.72215L78.3524 6.31655L78.2083 6.18855C76.9676 5.08555 75.5868 4.15076 74.1018 3.40828C72.1685 2.51606 70.1443 1.83648 68.0642 1.3815L67.5998 1.27991C65.2302 0.761481 62.811 0.5 60.385 0.5H58.6114C55.0781 0.5 51.5546 0.873289 48.0996 1.61365L43.9004 2.51342L31.8199 6.54027Z" fill="#333740"/>
<path d="M38.36 51.0593H42.8746C43.1056 51.0593 43.3315 50.9908 43.5237 50.8629C43.7659 50.7013 43.9392 50.4553 44.0098 50.1729L44.0697 49.9331C44.1056 49.7895 44.1238 49.6423 44.1238 49.4942V49.4843C44.1238 49.0557 44.2697 48.6396 44.5375 48.3049L44.6346 48.1837C44.8863 47.8691 45.215 47.6248 45.5891 47.4754L46.1372 47.2561C46.7256 46.9617 47.3748 46.8087 48.0325 46.8087H48.598H49.5721C49.9658 46.8087 50.3587 46.8476 50.7443 46.9246L50.9175 46.9595C51.1604 47.0078 51.3985 47.0785 51.6285 47.1707L52.0115 47.3242C52.2687 47.4271 52.5023 47.581 52.6978 47.7765C52.9434 48.0221 53.1224 48.3264 53.2177 48.6602L53.411 49.3358C53.4822 49.5855 53.4866 49.8499 53.4235 50.1018C53.3412 50.4315 53.1475 50.7233 52.8754 50.9273L52.7842 50.9957C52.5332 51.1841 52.2374 51.3036 51.926 51.3425L50.6115 51.5067C49.2714 51.5067 47.9336 51.6172 46.6119 51.8378L45.9135 51.9541L43.6763 52.4016L42.5678 52.6785C42.1145 52.7922 41.6719 52.9443 41.245 53.134L41.0045 53.2409C40.2567 53.5734 39.5765 54.0405 38.9978 54.6195C38.6873 54.9295 38.4082 55.27 38.1647 55.6356L37.6361 56.4284L37.4525 56.7344C37.1303 57.2714 36.9121 57.8642 36.8091 58.4817C36.7639 58.7528 36.7412 59.0275 36.7412 59.3022V61.3501L36.8542 62.3671C36.9276 63.0275 37.1022 63.6727 37.3721 64.2794C37.6945 65.0051 38.1476 65.6646 38.7089 66.2262L39.8732 67.3904L40.5682 67.9859C41.1444 68.4799 41.8027 68.8691 42.5133 69.1353C42.9887 69.3139 43.4834 69.4356 43.9873 69.4987L45.0186 69.6275H46.5846H47.2298C47.6938 69.6275 48.1578 69.5944 48.6173 69.5291C49.1998 69.4459 49.7739 69.3103 50.3323 69.1242L51.177 68.8423C51.3962 68.7693 51.6101 68.6808 51.8168 68.5774L52.7032 68.134C52.7989 68.0866 52.9041 68.0615 53.011 68.0615C53.1936 68.0615 53.3685 68.134 53.4974 68.2629L53.9672 68.7327C54.2535 69.019 54.6423 69.1801 55.0473 69.1801H55.9806H56.1766C56.7188 69.1801 57.1913 68.811 57.3229 68.2852L57.7703 66.4955L58.2177 64.2584L59.1126 61.5738L59.7837 59.113C59.9327 58.0705 60.0074 57.0186 60.0074 55.9649V49.304C60.0074 48.9832 59.9846 48.6629 59.9394 48.3452C59.8361 47.6239 59.6177 46.9237 59.2915 46.2723L59.1126 45.9139L58.8871 45.5752C58.4419 44.9078 57.9242 44.2779 57.3569 43.7106C56.892 43.2457 56.3828 42.8136 55.8477 42.4314L55.7197 42.3397C55.2978 42.0384 54.8526 41.7706 54.3891 41.5387L54.2714 41.4798C53.6235 41.1559 52.9385 40.9127 52.2316 40.7557C51.6007 40.6155 50.9564 40.5447 50.3103 40.5447H47.9269L45.9135 40.7685L45.7766 40.8027C44.6765 41.0777 43.6001 41.4403 42.5578 41.887L41.6121 42.4124C40.9037 42.8059 40.2537 43.2963 39.6807 43.8693C39.214 44.336 38.8017 44.8541 38.4519 45.4136L38.3356 45.5998C38.0195 46.1058 37.7645 46.6472 37.5759 47.2132L37.3358 47.9336C37.2383 48.2257 37.1886 48.5318 37.1886 48.84V49.8879C37.1886 50.3318 37.4393 50.7371 37.8362 50.9358C37.9988 51.0168 38.1782 51.0593 38.36 51.0593Z" fill="white" stroke="#333740"/>
<path d="M26.0561 69.1801H29.1029C30.1452 69.1801 31.5962 68.9684 31.5962 67.9259V47.0602C31.5962 46.9215 31.7088 46.8087 31.8479 46.8087H32.0995H32.6029H33.6096H34.8991C35.3428 46.8087 35.7483 46.5581 35.9468 46.1613C36.0281 45.9984 36.0704 45.819 36.0704 45.6373V41.9142C36.0704 41.6103 35.9497 41.3189 35.7349 41.104C35.52 40.8892 35.2286 40.7684 34.9247 40.7684H33.4977H32.547H32.0716H31.8338C31.7026 40.7684 31.5962 40.662 31.5962 40.5308V39.8177V38.8669V37.2817C31.5962 37.0791 31.6767 36.8848 31.8199 36.7416C31.9631 36.5984 32.1574 36.5179 32.36 36.5179H35.1079C35.4297 36.5179 35.7303 36.357 35.9088 36.0892C36.0142 35.9311 36.0704 35.7453 36.0704 35.5553V31.4651C36.0704 31.2626 35.99 31.0683 35.8467 30.925C35.7035 30.7818 35.5092 30.7013 35.3066 30.7013H34.2807H32.491L31.044 30.8621C30.667 30.904 30.2943 30.9774 29.9296 31.0816C29.2551 31.2743 28.6144 31.5706 28.0306 31.9598L27.5693 32.2673L26.9104 32.7945C26.6049 33.0389 26.3275 33.3163 26.0831 33.6218C25.7338 34.0583 25.4559 34.5475 25.2596 35.0709L25.242 35.1177C25.0058 35.7478 24.8848 36.4151 24.8848 37.0879V68.0087C24.8848 68.4526 25.1355 68.8579 25.5323 69.0566C25.6949 69.1376 25.8743 69.1801 26.0561 69.1801Z" fill="#D9D9D9" stroke="#333740"/>
<path d="M53.743 59.415V58.1144C53.743 57.3068 53.0884 56.6522 52.2808 56.6522C52.2119 56.6522 52.1425 56.6571 52.0741 56.6669L50.611 56.8759L49.045 57.0996L47.2553 57.547L45.913 57.9945C45.1752 58.2898 44.5046 58.7318 43.9426 59.2938L43.8996 59.3367C43.6131 59.6231 43.4521 60.0119 43.4521 60.4168V60.4553V60.8428C43.4521 61.0311 43.4753 61.2191 43.521 61.4016C43.6224 61.807 43.8319 62.1775 44.1274 62.4728L44.2064 62.552C44.2999 62.6455 44.4024 62.7296 44.5124 62.8025C44.8422 63.0226 45.2298 63.1399 45.6258 63.1399H45.6893H48.8213H49.4826C49.9327 63.1399 50.3783 63.054 50.7958 62.8871C51.1184 62.7582 51.4199 62.5824 51.6911 62.3654L52.4007 61.7976L53.0074 61.1909C53.1985 60.9998 53.3573 60.7797 53.4777 60.5381C53.6521 60.1895 53.743 59.8048 53.743 59.415Z" fill="#333740" stroke="black"/>
<path d="M76.74 27.3457H71.4268C71.0242 27.3457 70.6711 27.6145 70.5642 28.0026L58.5298 71.6267C58.3727 72.1967 58.8013 72.7596 59.3924 72.7596H65.1356C65.5414 72.7596 65.8962 72.4866 66.0005 72.0947L77.6049 28.4706C77.7562 27.9026 77.328 27.3457 76.74 27.3457Z" fill="#A299FF"/>
</g>
<defs>
<clipPath id="clip0_681_1877">
<rect width="100" height="100" fill="white"/>
</clipPath>
</defs>
</svg>
