<svg width="224" height="224" viewBox="0 0 224 224" fill="none" xmlns="http://www.w3.org/2000/svg">
<path d="M70.5 14L58.3231 19.2582C51.7828 22.0824 45.4546 25.3741 39.3875 29.1077L34.6648 32.014C30.8946 34.3341 27.3213 36.9598 23.9807 39.8646L22.8165 40.877C19.2821 43.9504 16.083 47.3893 13.2728 51.1363L12.803 51.7626C9.94457 55.5739 7.55159 59.713 5.67493 64.0918C3.56783 69.0084 2.12961 74.1854 1.39872 79.4843L0.5 86C0.5 96.6419 1.52614 107.259 3.56417 117.704L4.5 122.5L10.5 142L17.5 161L23.5 174.5L25.6836 178.699C28.5554 184.222 31.9168 189.476 35.7274 194.398L37.0711 196.134C40.3491 200.368 44.035 204.27 48.0756 207.783L49.1783 208.742C52.0539 211.243 55.1433 213.486 58.4109 215.447L59.56 216.136C62.1812 217.709 64.94 219.04 67.8022 220.113C72.9005 222.025 78.2746 223.099 83.716 223.293L89.5 223.5L96.9815 223.266C102.653 223.089 108.305 222.505 113.893 221.519C119.623 220.508 125.271 219.076 130.792 217.236L152.5 210L160.29 206.661C171.415 201.893 182.18 196.325 192.5 190L202.159 182.066C205.047 179.694 207.711 177.062 210.119 174.203C213.031 170.745 215.55 166.975 217.631 162.962L218.732 160.839C220.57 157.294 221.948 153.529 222.833 149.636C223.609 146.223 224 142.734 224 139.234V133V126L222.5 112L219.5 99L213 78L206.5 61.5L200 47.5L197 41.5L196.305 40.3183C193.439 35.4461 190.217 30.7923 186.665 26.3949C183.226 22.1371 179.487 18.1307 175.476 14.4065L174.5 13.5L174.178 13.2139C171.405 10.7487 168.319 8.65944 165 7C160.679 5.0059 156.155 3.48704 151.506 2.47016L150.468 2.2431C145.172 1.08441 139.765 0.5 134.343 0.5H130.379C122.482 0.5 114.607 1.3343 106.885 2.98901L97.5 5L70.5 14Z" fill="#333740"/>
<path d="M85.118 113.5H95.2082C95.7245 113.5 96.2292 113.347 96.6588 113.061C97.2001 112.7 97.5874 112.15 97.7452 111.519L97.8792 110.983C97.9594 110.662 98 110.333 98 110.002V109.98C98 109.022 98.3262 108.092 98.9248 107.344L99.1418 107.073C99.7043 106.37 100.439 105.824 101.275 105.49L102.5 105C103.815 104.342 105.266 104 106.736 104H108H110.177C111.057 104 111.935 104.087 112.797 104.259L113.184 104.337C113.727 104.445 114.259 104.603 114.773 104.809L115.629 105.152C116.204 105.382 116.726 105.726 117.163 106.163C117.712 106.712 118.112 107.392 118.325 108.138L118.757 109.648C118.916 110.206 118.926 110.797 118.785 111.36C118.601 112.097 118.168 112.749 117.56 113.205L117.356 113.358C116.795 113.779 116.134 114.046 115.438 114.133L112.5 114.5C109.505 114.5 106.515 114.747 103.561 115.24L102 115.5L97 116.5L94.5224 117.119C93.5094 117.373 92.5202 117.713 91.566 118.137L91.0285 118.376C89.3571 119.119 87.8368 120.163 86.5434 121.457C85.8495 122.15 85.2258 122.911 84.6815 123.728L83.5 125.5L83.0898 126.184C82.3697 127.384 81.8819 128.709 81.6518 130.089C81.5508 130.695 81.5 131.309 81.5 131.923V136.5L81.7526 138.773C81.9165 140.249 82.3069 141.691 82.91 143.047C83.6305 144.669 84.6433 146.143 85.8978 147.398L88.5 150L90.0534 151.331C91.3411 152.435 92.8125 153.305 94.4006 153.9C95.4632 154.299 96.5689 154.571 97.695 154.712L100 155H103.5H104.942C105.979 155 107.016 154.926 108.043 154.78C109.345 154.594 110.628 154.291 111.876 153.875L113.764 153.245C114.254 153.082 114.732 152.884 115.194 152.653L117.175 151.662C117.389 151.556 117.624 151.5 117.863 151.5C118.271 151.5 118.662 151.662 118.95 151.95L120 153C120.64 153.64 121.509 154 122.414 154H124.5H124.938C126.15 154 127.206 153.175 127.5 152L128.5 148L129.5 143L131.5 137L133 131.5C133.333 129.17 133.5 126.819 133.5 124.464V109.577C133.5 108.86 133.449 108.144 133.348 107.434C133.117 105.822 132.629 104.257 131.9 102.801L131.5 102L130.996 101.243C130.001 99.7514 128.844 98.3437 127.576 97.0758C126.537 96.0367 125.399 95.0708 124.203 94.2167L123.917 94.0118C122.974 93.3383 121.979 92.7397 120.943 92.2215L120.68 92.0898C119.232 91.366 117.701 90.8225 116.121 90.4714C114.711 90.1581 113.271 90 111.827 90H106.5L102 90.5L101.694 90.5765C99.2353 91.1912 96.8296 92.0016 94.5 93L92.3864 94.1742C90.8032 95.0538 89.3503 96.1497 88.0697 97.4303C87.0266 98.4734 86.1053 99.6315 85.3235 100.882L85.0635 101.298C84.357 102.429 83.787 103.639 83.3655 104.904L82.8288 106.514C82.611 107.167 82.5 107.851 82.5 108.54V110.882C82.5 111.874 83.0603 112.78 83.9472 113.224C84.3107 113.405 84.7116 113.5 85.118 113.5Z" fill="white" stroke="#333740"/>
<path d="M57.618 154H64.4276C66.757 154 70 153.527 70 151.197V104.562C70 104.252 70.2518 104 70.5625 104H71.125H72.25H74.5H77.382C78.3736 104 79.2801 103.44 79.7236 102.553C79.9054 102.189 80 101.788 80 101.382V93.0607C80 92.3815 79.7302 91.7302 79.25 91.25C78.7698 90.7698 78.1185 90.5 77.4393 90.5H74.25H72.125H71.0625H70.5312C70.2378 90.5 70 90.2622 70 89.9688V88.375V86.25V82.7071C70 82.2544 70.1799 81.8201 70.5 81.5C70.8201 81.1799 71.2544 81 71.7071 81H77.8486C78.5679 81 79.2397 80.6405 79.6387 80.042C79.8743 79.6886 80 79.2733 80 78.8486V69.7071C80 69.2544 79.8201 68.8201 79.5 68.5C79.1799 68.1799 78.7456 68 78.2929 68H76H72L68.7659 68.3593C67.9234 68.453 67.0903 68.617 66.2753 68.8499C64.7676 69.2807 63.3358 69.9428 62.031 70.8126L61 71.5L59.5272 72.6782C58.8445 73.2244 58.2244 73.8445 57.6782 74.5272C56.8977 75.5029 56.2765 76.5961 55.8377 77.766L55.7985 77.8707C55.2705 79.2788 55 80.7703 55 82.2741V151.382C55 152.374 55.5603 153.28 56.4472 153.724C56.8107 153.905 57.2116 154 57.618 154Z" fill="#D9D9D9" stroke="#333740"/>
<path d="M119.5 132.175V129.268C119.5 127.463 118.037 126 116.232 126C116.078 126 115.923 126.011 115.77 126.033L112.5 126.5L109 127L105 128L102 129C100.351 129.66 98.8523 130.648 97.5961 131.904L97.5 132C96.8597 132.64 96.5 133.509 96.5 134.414V134.5V135.366C96.5 135.787 96.5517 136.207 96.6538 136.615C96.8804 137.521 97.3488 138.349 98.0092 139.009L98.1858 139.186C98.3948 139.395 98.6238 139.583 98.8697 139.746C99.6067 140.238 100.473 140.5 101.358 140.5H101.5H108.5H109.978C110.984 140.5 111.98 140.308 112.913 139.935C113.634 139.647 114.308 139.254 114.914 138.769L116.5 137.5L117.856 136.144C118.283 135.717 118.638 135.225 118.907 134.685C119.297 133.906 119.5 133.046 119.5 132.175Z" fill="#333740" stroke="black"/>
<path d="M170.898 60.5H159.023C158.123 60.5 157.334 61.1008 157.095 61.9681L130.198 159.468C129.847 160.742 130.805 162 132.126 162H144.962C145.869 162 146.662 161.39 146.895 160.514L172.831 63.0141C173.169 61.7447 172.212 60.5 170.898 60.5Z" fill="#A299FF"/>
</svg>
