<svg width="100" height="100" viewBox="0 0 100 100" fill="none" xmlns="http://www.w3.org/2000/svg">
<path d="M74.5579 20.9767C68.4977 23.0417 65.5794 26.7454 63.5914 32.5139C63.0784 34.0543 61.7957 35.7588 60.3528 36.9061L65.3231 42.3469L49.5461 31.0719L6 0C6 0 9.14252 20.8457 10.2328 28.5153C11.0024 33.9232 12.3171 36.3487 16.4857 38.8071L18.1532 39.7247L25.3361 43.5925L21.0713 41.3309L40.76 52.3108L40.6319 52.6059L19.4358 42.5764C20.5582 46.5096 22.7386 54.0806 23.6686 57.424C24.6627 61.0292 25.785 62.3402 29.2162 63.619L35.5333 65.9788L39.4454 64.4053L34.4752 67.7814L9.6235 100C26.1378 84.3332 40.1187 78.7613 50.3479 74.2053C63.399 68.4369 71.2554 64.7332 76.3858 51.4257C80.0415 42.0848 82.8951 30.1215 86.5192 25.4999L94.2472 15.4048C94.2472 15.4048 78.2455 19.7313 74.5579 20.9767Z" fill="#3A1AB6"/>
</svg>
