<svg xmlns="http://www.w3.org/2000/svg" width="100" height="100" fill="none" viewBox="0 0 100 100"><path fill="#FFBF4A" d="M14 80.6895L14.6045 79.8475L43.2304 25.5317L43.2951 24.9489L30.6876 1.24507C29.6298 -0.741043 26.6507 -0.244516 26.3052 1.97906L14.0216 80.6895H14Z"/><path fill="#FFA412" fill-rule="evenodd" d="M14.3672 80.0419L14.8205 79.1568L43.1442 25.4023L30.5583 1.61212C29.5221 -0.352402 26.8451 0.144126 26.5213 2.34612L14.3672 80.0635V80.0419Z" clip-rule="evenodd"/><path fill="#000" d="M14.3672 80.0419L14.8205 79.1568L43.1442 25.4023L30.5583 1.61212C29.5221 -0.352402 26.8451 0.144126 26.5213 2.34612L14.3672 80.0635V80.0419Z"/><path fill="#F1BA62" d="M52.5115 42.8887L61.9024 33.2604L52.5115 15.3206C51.6264 13.6152 49.1222 13.6152 48.2371 15.3206L43.207 24.9058V25.7261L52.4899 42.9103L52.5115 42.8887Z"/><path fill="#FFA20E" fill-rule="evenodd" d="M52.3374 42.4785L61.4692 33.1309L52.3374 15.7308C51.4739 14.0901 49.3583 13.8958 48.4947 15.5581L43.4431 25.2728L43.292 25.7693L52.3158 42.4569L52.3374 42.4785Z" clip-rule="evenodd"/><path fill="#000" d="M52.3374 42.4785L61.4692 33.1309L52.3374 15.7308C51.4739 14.0901 49.3583 13.8958 48.4947 15.5581L43.4431 25.2728L43.292 25.7693L52.3158 42.4569L52.3374 42.4785Z"/><path fill="#F3800C" d="M14 80.6894L14.2806 80.4087L15.2737 79.9986L51.9088 43.493L52.3837 42.2193L43.2519 24.7977L14.0216 80.6462L14 80.6894Z"/><path fill="#FADD68" d="M53.679 99.104L86.8384 80.6246L77.3612 22.315C77.059 20.48 74.8354 19.7676 73.5185 21.0845L14 80.7109L46.9651 99.1256C49.0592 100.291 51.585 100.291 53.679 99.1256"/><path fill="#F9C73F" d="M86.5353 80.452L77.1445 22.5957C76.8422 20.7823 74.9856 20.0267 73.6903 21.3436L14.3877 80.6031L46.9858 98.8235C49.0583 99.9677 51.5625 99.9677 53.635 98.8235L86.5353 80.4736V80.452Z"/><path fill="#EBA837" d="M53.679 98.5644C51.585 99.7302 49.0592 99.7302 46.9651 98.5644L14.2591 80.4304L14 80.711L46.9651 99.1257C49.0592 100.291 51.585 100.291 53.679 99.1257L86.8384 80.6462L86.7521 80.1497L53.679 98.586V98.5644Z"/></svg>