<svg width="100" height="100" viewBox="0 0 100 100" fill="none" xmlns="http://www.w3.org/2000/svg">
<path fill-rule="evenodd" clip-rule="evenodd" d="M50 1C22.3672 1 0 23.3672 0 51C0 73.1154 14.3086 91.8196 34.1804 98.4359C36.6758 98.8709 37.6145 97.3828 37.6145 96.0549C37.6145 94.8645 37.5458 90.9267 37.5458 86.7372C24.9771 89.0494 21.7262 83.6694 20.7418 80.8535C20.1694 79.4112 17.7427 74.9698 15.6136 73.8022C13.8736 72.8635 11.3553 70.5513 15.5449 70.4826C19.4826 70.4139 22.2985 74.0998 23.2372 75.6108C27.7473 83.1657 34.913 81.0595 37.7976 79.7317C38.2326 76.4808 39.5375 74.283 40.9799 73.0467C29.8535 71.7875 18.2234 67.4835 18.2234 48.3672C18.2234 42.9185 20.1694 38.4313 23.3516 34.9286C22.848 33.6694 21.1081 28.5641 23.8553 21.6731C23.8553 21.6731 28.0449 20.3681 37.6145 26.8013C41.6209 25.6795 45.8562 25.1071 50.1145 25.1071C54.3727 25.1071 58.6081 25.6795 62.6145 26.8013C72.1841 20.2995 76.3736 21.6731 76.3736 21.6731C79.1209 28.5412 77.381 33.6694 76.8773 34.9286C80.0595 38.4313 82.0055 42.8727 82.0055 48.3672C82.0055 67.5522 70.3297 71.8104 59.2033 73.0467C61.0119 74.6035 62.5687 77.6026 62.5687 82.2958C62.5687 88.9808 62.5 94.3608 62.5 96.0549C62.5 97.3599 63.4386 98.9396 65.9341 98.4359C85.6914 91.8196 100 73.0696 100 51C100 23.3672 77.6328 1 50 1Z" fill="#1B1F23"/>
</svg>
