<svg width="100" height="100" viewBox="0 0 100 100" fill="none" xmlns="http://www.w3.org/2000/svg">
<path d="M6.81818 87.0183H22.7273V48.3819L0 31.3365V80.2001C0 83.9672 3.05114 87.0183 6.81818 87.0183Z" fill="#4285F4"/>
<path d="M77.2725 87.0183H93.1816C96.9486 87.0183 99.9997 83.9672 99.9997 80.2001V31.3365L77.2725 48.3819V87.0183Z" fill="#34A853"/>
<path d="M77.2725 18.8366V48.3821L99.9997 31.3366V22.2457C99.9997 13.8195 90.3804 9.00701 83.6361 14.0638L77.2725 18.8366Z" fill="#FBBC04"/>
<path fill-rule="evenodd" clip-rule="evenodd" d="M22.7275 48.3819V18.8365L50.0003 39.291L77.273 18.8365V48.3819L50.0003 68.8365L22.7275 48.3819Z" fill="#EA4335"/>
<path d="M0 22.2457V31.3366L22.7273 48.3821V18.8366L16.3636 14.0638C9.61932 9.00701 0 13.8195 0 22.2457Z" fill="#C5221F"/>
</svg>
