<svg xmlns="http://www.w3.org/2000/svg" width="100" height="100" fill="none" viewBox="0 0 100 100"><path fill="#00AC47" d="M49.9995 33.6366L34.2494 6.37451C32.703 7.29088 31.3857 8.55089 30.4693 10.1545L1.37454 60.555C0.475018 62.1241 0.00119816 63.9009 0 65.7096H31.5003L49.9995 33.6366Z"/><path fill="#EA4335" d="M84.2495 92.9717C85.7959 92.0553 87.1132 90.7953 88.0295 89.1916L89.8623 86.0416L98.6251 70.8642C99.5415 69.2606 99.9996 67.4851 99.9996 65.7096H68.4971L75.2003 78.8825L84.2495 92.9717Z"/><path fill="#00832D" d="M50.0001 33.6366L65.7503 6.37456C64.2039 5.45819 62.4284 5 60.5957 5H39.4046C37.5718 5 35.7964 5.51546 34.25 6.37456L50.0001 33.6366Z"/><path fill="#2684FC" d="M68.4986 65.7096H31.5001L15.75 92.9717C17.2964 93.8881 19.0718 94.3462 20.9046 94.3462H79.0942C80.9269 94.3462 82.7024 93.8308 84.2488 92.9717L68.4986 65.7096Z"/><path fill="#FFBA00" d="M84.0776 35.3548L69.5302 10.1545C68.6138 8.55089 67.2965 7.29088 65.7501 6.37451L50 33.6366L68.4993 65.7096H99.9423C99.9423 63.9342 99.4841 62.1587 98.5677 60.555L84.0776 35.3548Z"/><path fill="#0066DA" d="M7.56008 81.5743L11.9701 89.1916C12.8865 90.7953 14.2037 92.0553 15.7501 92.9717L31.5003 65.7096H0C0 67.4851 0.458165 69.2606 1.37454 70.8642L7.56008 81.5743Z"/></svg>