<svg width="100" height="100" viewBox="0 0 100 100" fill="none" xmlns="http://www.w3.org/2000/svg">
<g clip-path="url(#clip0_681_1938)">
<path d="M76.3161 23.6842H23.6846V76.3158H76.3161V23.6842Z" fill="white"/>
<path d="M34.4815 64.5131C32.5144 63.1842 31.1526 61.2434 30.4092 58.6776L34.975 56.796C35.3894 58.3749 36.113 59.5986 37.1459 60.4671C38.1722 61.3355 39.4223 61.7631 40.8829 61.7631C42.3763 61.7631 43.659 61.3092 44.7314 60.4013C45.8038 59.4934 46.3434 58.3355 46.3434 56.9342C46.3434 55.4999 45.7775 54.3289 44.6459 53.421C43.5143 52.5131 42.0933 52.0592 40.3959 52.0592H37.7579V47.5394H40.1262C41.5867 47.5394 42.8171 47.1447 43.8171 46.3552C44.8171 45.5657 45.3171 44.4868 45.3171 43.1118C45.3171 41.8881 44.8696 40.9144 43.9748 40.1842C43.0801 39.4539 41.9487 39.0855 40.5737 39.0855C39.2315 39.0855 38.1656 39.4407 37.3762 40.1578C36.5872 40.8768 35.9942 41.7847 35.6526 42.796L31.1329 40.9144C31.7315 39.2171 32.8302 37.7171 34.4421 36.421C36.0539 35.1249 38.1131 34.4736 40.6131 34.4736C42.4618 34.4736 44.1262 34.8289 45.5998 35.546C47.0735 36.2631 48.2314 37.2565 49.0669 38.5197C49.9025 39.7894 50.3171 41.2105 50.3171 42.7894C50.3171 44.4013 49.9288 45.7631 49.1525 46.8815C48.3762 47.9999 47.4222 48.8552 46.2906 49.4539V49.7236C47.7518 50.326 49.021 51.3155 49.9618 52.5855C50.9158 53.8684 51.3959 55.4013 51.3959 57.1907C51.3959 58.9802 50.9419 60.5789 50.034 61.9802C49.1262 63.3815 47.8696 64.4868 46.2775 65.2894C44.6788 66.0921 42.8827 66.4999 40.8893 66.4999C38.5801 66.5065 36.4487 65.8421 34.4815 64.5131ZM62.5276 41.8552L57.5144 45.4802L55.0077 41.6776L64.0013 35.1907H67.4485V65.7894H62.5276V41.8552Z" fill="#4285F4"/>
<path d="M76.3161 76.3158H23.6846V100H76.3161V76.3158Z" fill="#34A853"/>
<path d="M76.3158 0H7.89474C3.53289 0 0 3.53289 0 7.89474V76.3158H23.6842V23.6842H76.3158V0Z" fill="#4285F4"/>
<path d="M0 76.3158V92.1053C0 96.4671 3.53289 100 7.89474 100H23.6842V76.3158H0Z" fill="#188038"/>
<path d="M99.9996 23.6842H76.3154V76.3158H99.9996V23.6842Z" fill="#FBBC04"/>
<path d="M99.9996 23.6842V7.89474C99.9996 3.53289 96.4667 0 92.1049 0H76.3154V23.6842H99.9996Z" fill="#1967D2"/>
<path d="M76.3154 100L99.9996 76.3158H76.3154V100Z" fill="#EA4335"/>
</g>
<defs>
<clipPath id="clip0_681_1938">
<rect width="100" height="100" fill="white"/>
</clipPath>
</defs>
</svg>
