<?xml version="1.0" encoding="UTF-8"?><svg id="Layer_1" xmlns="http://www.w3.org/2000/svg" viewBox="0 0 50 50"><defs><style>.cls-1{fill:#fff;}.cls-2{fill:#4383f7;}.cls-3{isolation:isolate;opacity:.1;}</style></defs><path class="cls-2" d="m11.8,44.74L1.31,26.57c-.56-.97-.56-2.17,0-3.14L11.8,5.26c.56-.97,1.59-1.57,2.71-1.57h20.99c1.12,0,2.14.6,2.7,1.57l10.49,18.17c.56.97.56,2.17,0,3.14l-10.49,18.17c-.56.97-1.59,1.57-2.71,1.57H14.5c-1.12,0-2.15-.6-2.71-1.57h0Z"/><path class="cls-3" d="m31.55,19.15s2.92,6.99-1.06,10.96c-3.98,3.96-11.21,1.43-11.21,1.43l14.72,14.77h1.49c1.12,0,2.15-.6,2.71-1.57l6.94-12.02-13.6-13.56Z"/><path class="cls-1" d="m35,33.46l-3.22-3.22s-.08-.07-.12-.09c2.97-3.82,2.27-9.33-1.55-12.3-3.82-2.97-9.33-2.27-12.3,1.55s-2.27,9.33,1.55,12.3c3.17,2.46,7.6,2.45,10.76-.01.02.04.05.08.09.11l3.22,3.22c.2.2.52.2.71,0l.84-.84c.2-.2.2-.52,0-.71Zm-10.27-2.08c-3.64,0-6.59-2.95-6.59-6.59,0-3.64,2.95-6.59,6.59-6.59,3.64,0,6.59,2.95,6.59,6.59h0c0,3.64-2.95,6.59-6.59,6.59Zm-4.21-6.94v2.72c.42.74,1.03,1.36,1.76,1.79v-4.53l-1.76.02Zm3.3-2.26v7.36c.58.11,1.18.11,1.76,0v-7.36h-1.76Zm5.1,4.98v-1.61h-1.76v3.39c.73-.43,1.34-1.05,1.76-1.78h0Z"/></svg>