<svg xmlns="http://www.w3.org/2000/svg" width="100" height="100" fill="none" viewBox="0 0 100 100"><path fill="#4383F7" d="M22.6255 91.1307L0.871008 53.4492C-0.290336 51.4376 -0.290336 48.949 0.871008 46.9374L22.6255 9.25591C23.7868 7.2443 25.9229 6 28.2455 6H71.7752C74.0979 6 76.2132 7.2443 77.3745 9.25591L99.129 46.9374C100.29 48.949 100.29 51.4376 99.129 53.4492L77.3745 91.1307C76.2132 93.1423 74.0772 94.3866 71.7545 94.3866H28.2248C25.9021 94.3866 23.7661 93.1423 22.6047 91.1307H22.6255Z"/><path fill="#000" d="M63.5806 38.0616C63.5806 38.0616 69.6362 52.5576 61.3824 60.7907C53.1285 69.0031 38.1348 63.7563 38.1348 63.7563L68.6615 94.3867H71.7515C74.0742 94.3867 76.2103 93.1424 77.3716 91.1308L91.764 66.2034L63.5599 38.0823L63.5806 38.0616Z" opacity=".1"/><path fill="#fff" d="M70.7362 67.738L64.0585 61.0603C64.0585 61.0603 63.8926 60.9151 63.8096 60.8736C69.9689 52.9516 68.5172 41.5248 60.5952 35.3655C52.6732 29.2063 41.2464 30.6579 35.0871 38.58C28.9278 46.502 30.3795 57.9288 38.3016 64.0881C44.8756 69.1897 54.0626 69.1689 60.6159 64.0673C60.6574 64.1503 60.7196 64.2332 60.8026 64.2954L67.4803 70.9732C67.8951 71.3879 68.5587 71.3879 68.9527 70.9732L70.6947 69.2311C71.1095 68.8164 71.1095 68.1528 70.6947 67.7587L70.7362 67.738ZM49.438 63.4244C41.8893 63.4244 35.7715 57.3066 35.7715 49.7579C35.7715 42.2092 41.8893 36.0914 49.438 36.0914C56.9867 36.0914 63.1045 42.2092 63.1045 49.7579C63.1045 57.3066 56.9867 63.4244 49.438 63.4244ZM40.7072 49.0321V54.6729C41.5782 56.2075 42.8432 57.4933 44.3571 58.385V48.9906L40.7072 49.0321ZM47.5508 44.3452V59.6086C48.7536 59.8367 49.9979 59.8367 51.2008 59.6086V44.3452H47.5508ZM58.1273 54.6729V51.334H54.4774V58.3643C55.9913 57.4725 57.2563 56.1868 58.1273 54.6729Z"/></svg>