<svg width="100" height="100" viewBox="0 0 100 100" fill="none" xmlns="http://www.w3.org/2000/svg">
<path d="M59.4545 0H20.8236C17.0663 0 14 3.06629 14 6.82358V93.1764C14 96.9337 17.0663 100 20.8236 100H79.9037C83.661 100 86.7273 96.9337 86.7273 93.1764V27.2727L70.8128 15.9145L59.4545 0Z" fill="#0F9A58"/>
<path d="M32.1816 48.8447V81.7966H68.5453V48.8447H32.1816ZM48.0961 77.2619H36.7379V71.5828H48.0961V77.2619ZM48.0961 68.171H36.7379V62.4919H48.0961V68.171ZM48.0961 59.0801H36.7379V53.401H48.0961V59.0801ZM64.0106 77.2619H52.6524V71.5828H64.0106V77.2619ZM64.0106 68.171H52.6524V62.4919H64.0106V68.171ZM64.0106 59.0801H52.6524V53.401H64.0106V59.0801Z" fill="#EEEEEE"/>
<path d="M61.4414 25.2644L86.7275 50.5505V27.2726L61.4414 25.2644Z" fill="url(#paint0_linear_681_1961)"/>
<path d="M59.4541 0V20.4491C59.4541 24.2064 62.4988 27.2727 66.2777 27.2727H86.7268L59.4541 0Z" fill="#84CBA9"/>
<path d="M20.8236 0C17.0663 0 14 3.06629 14 6.82358V7.38501C14 3.62773 17.0663 0.561434 20.8236 0.561434H59.4545V0H20.8236Z" fill="black"/>
<path d="M79.9037 99.417H20.8236C17.0663 99.417 14 96.3507 14 92.5934V93.1548C14 96.9121 17.0663 99.9784 20.8236 99.9784H79.9037C83.661 99.9784 86.7273 96.9121 86.7273 93.1548V92.5934C86.7273 96.3507 83.661 99.417 79.9037 99.417Z" fill="black"/>
<path d="M66.2787 27.2726C62.5214 27.2726 59.4551 24.2279 59.4551 20.4491V21.0105C59.4551 24.7678 62.4998 27.8341 66.2787 27.8341H86.7278V27.2726H66.2787Z" fill="black"/>
<path d="M59.4545 0H20.8236C17.0663 0 14 3.06629 14 6.82358V93.1764C14 96.9337 17.0663 100 20.8236 100H79.9037C83.661 100 86.7273 96.9337 86.7273 93.1764V27.2727L59.4545 0Z" fill="url(#paint1_radial_681_1961)"/>
<defs>
<linearGradient id="paint0_linear_681_1961" x1="72.3743" y1="25.6661" x2="72.3743" y2="48.755" gradientUnits="userSpaceOnUse">
<stop stop-color="#263238" stop-opacity="0.2"/>
<stop offset="1" stop-color="#263238" stop-opacity="0.02"/>
</linearGradient>
<radialGradient id="paint1_radial_681_1961" cx="0" cy="0" r="1" gradientUnits="userSpaceOnUse" gradientTransform="translate(13.3807 7.04383) scale(116.986 116.986)">
<stop stop-color="white" stop-opacity="0.1"/>
<stop offset="1" stop-color="white" stop-opacity="0"/>
</radialGradient>
</defs>
</svg>
