<svg width="100" height="100" viewBox="0 0 100 100" fill="none" xmlns="http://www.w3.org/2000/svg">
<path d="M56.5713 50.1429L66.3199 61.2858L79.4284 69.663L81.7141 50.2173L79.4284 31.2L66.0684 38.56L56.5713 50.1429Z" fill="#00832D"/>
<path d="M0 67.8571V84.4286C0 88.2171 3.06857 91.2857 6.85714 91.2857H23.4286L26.8571 78.76L23.4286 67.8571L12.0571 64.4286L0 67.8571Z" fill="#0066DA"/>
<path d="M23.4286 9L0 32.4286L12.0571 35.8571L23.4286 32.4286L26.8 21.6686L23.4286 9Z" fill="#E94235"/>
<path d="M23.4286 32.4286H0V67.8571H23.4286V32.4286Z" fill="#2684FC"/>
<path d="M94.3944 18.92L79.4287 31.2V69.6629L94.4573 81.9886C96.7087 83.7486 100 82.1428 100 79.2857V21.5714C100 18.6743 96.6344 17.0857 94.3944 18.92ZM56.5716 50.1428V67.8571H23.4287V91.2857H72.5716C76.3601 91.2857 79.4287 88.2171 79.4287 84.4286V69.6629L56.5716 50.1428Z" fill="#00AC47"/>
<path d="M72.5716 9H23.4287V32.4286H56.5716V50.1429L79.4287 31.2V15.8571C79.4287 12.0686 76.3601 9 72.5716 9Z" fill="#FFBA00"/>
</svg>
