<svg xmlns="http://www.w3.org/2000/svg" width="100" height="100" fill="none" viewBox="0 0 100 100"><path fill="#4283F2" d="M98.8188 45.308L78.2746 9.57709C77.4942 8.20607 76.3763 7.06707 75.0264 6.26556C73.6764 5.46404 72.1367 5.02109 70.5547 5H29.4664C27.8844 5.02109 26.3447 5.46404 24.9947 6.26556C23.6448 7.06707 22.5269 8.22717 21.7465 9.59819L1.20228 45.2025C0.421852 46.5524 0 48.1133 0 49.6741C0 51.235 0.400759 52.7747 1.20228 54.1457L21.7465 90.0875C22.5058 91.4796 23.6237 92.6397 24.9736 93.4834C26.3236 94.3271 27.8633 94.7912 29.4453 94.8545H70.5547C72.1367 94.7912 73.6764 94.3271 75.0264 93.5045C76.3763 92.6819 77.4942 91.5007 78.2535 90.1086L98.7977 54.3778C99.5781 52.9857 100 51.4248 100 49.8429C100 48.2609 99.5781 46.679 98.7977 45.308H98.8188Z"/><path fill="#000" d="M92.6178 65.1773L78.2749 90.1087C77.4944 91.5008 76.3976 92.6609 75.0266 93.5046C73.6767 94.3273 72.1158 94.7913 70.555 94.8546H67.6653L33.0945 60.2838L37.6927 52.0788L33.0312 47.4384L38.5153 41.9754L66.7794 39.381L92.5967 65.1773H92.6178Z" opacity=".07"/><path fill="#fff" d="M65.9597 39.149H34.0466C33.4349 39.149 32.9287 39.6553 32.9287 40.288V46.6791C32.9287 47.2908 33.4349 47.797 34.0466 47.797H65.9597C66.5714 47.797 67.0987 47.2908 67.0987 46.6791V40.288C67.0987 39.6553 66.5714 39.149 65.9597 39.149ZM61.235 45.4557C60.1593 45.4557 59.2734 44.5698 59.2734 43.4941C59.2734 42.4184 60.1593 41.5325 61.235 41.5325C62.3107 41.5325 63.1966 42.4184 63.1966 43.4941C63.1966 44.5698 62.3107 45.4557 61.235 45.4557Z"/><path fill="#fff" d="M65.9597 51.9944H34.0466C33.4349 51.9944 32.9287 52.5006 32.9287 53.1334V59.5244C32.9287 60.1361 33.4349 60.6423 34.0466 60.6423H65.9597C66.5714 60.6423 67.0987 60.1361 67.0987 59.5244V53.1334C67.0987 52.5006 66.5714 51.9944 65.9597 51.9944ZM61.235 58.301C60.1593 58.301 59.2734 57.4152 59.2734 56.3394C59.2734 55.2637 60.1593 54.3778 61.235 54.3778C62.3107 54.3778 63.1966 55.2637 63.1966 56.3394C63.1966 57.4152 62.3107 58.301 61.235 58.301Z"/></svg>