<svg xmlns="http://www.w3.org/2000/svg" width="100" height="100" fill="none" viewBox="0 0 100 100"><g clip-path="url(#clip0_681_1917)"><path fill="#669AF3" fill-rule="evenodd" d="M70.9718 22.217L49.8696 9.67566C46.7692 7.73545 44.529 4.67513 43.6289 1.13475C43.6289 1.13475 44.429 -0.465424 45.5291 0.13464C46.6292 0.734705 63.031 10.4357 71.7719 15.6363C74.9122 17.4765 72.972 25.6374 72.972 25.6374C72.972 24.2172 72.212 22.9171 70.9718 22.237V22.217Z" clip-rule="evenodd"/><path fill="#ABC8F7" fill-rule="evenodd" d="M77.3106 53.4003C77.3706 54.0604 77.0706 54.7004 76.5105 55.0405L71.51 58.4408V18.7166C71.51 17.3764 72.3501 15.9163 71.21 15.2162L75.8105 18.6166C76.9306 19.2967 77.6106 20.5368 77.5506 21.8569L77.3106 53.4003Z" clip-rule="evenodd"/><path fill="#669AF3" fill-rule="evenodd" d="M49.8674 57.9609C49.5073 57.9609 49.1673 57.8609 48.8673 57.6609L31.5654 47.3598V51.8603L49.8674 62.7614L51.3075 59.9211C51.3075 59.9211 50.2074 57.9809 49.8674 57.9809V57.9609Z" clip-rule="evenodd"/><path fill="#669AF3" fill-rule="evenodd" d="M50.8675 66.9617C50.2674 67.3617 49.4673 67.3617 48.8673 66.9617L31.5654 56.6606V59.9609C31.5654 60.661 31.9255 61.3211 32.5055 61.7011L48.9073 71.7022C49.4873 72.0422 50.2274 72.0422 50.8075 71.7022C51.2675 70.8821 51.5876 70.002 51.8076 69.1019L50.8675 67.1617V66.9617Z" clip-rule="evenodd"/><path fill="#ABC8F7" fill-rule="evenodd" d="M49.8669 53.6003L68.1689 42.6992V40.5589C68.1689 39.8589 67.8088 39.2188 67.2288 38.8588L50.827 28.8577C50.247 28.5177 49.5069 28.5177 48.9268 28.8577L32.5251 38.8588C31.945 39.2388 31.585 39.8589 31.585 40.5589V42.6992L49.8869 53.6003H49.8669Z" clip-rule="evenodd"/><path fill="#669AF3" fill-rule="evenodd" d="M49.8669 49.1198L32.5251 38.8787C31.945 39.2587 31.585 39.8788 31.585 40.5788V42.7191L49.8869 53.6202L51.2871 50.8199L49.8869 49.1198H49.8669Z" clip-rule="evenodd"/><path fill="#4282F1" fill-rule="evenodd" d="M49.8682 57.9609V62.9614L68.1701 52.0602V47.5598L50.8683 57.6608C50.5482 57.8208 50.2082 57.9209 49.8682 57.9609Z" clip-rule="evenodd"/><path fill="#4282F1" fill-rule="evenodd" d="M50.8683 66.9618C50.5682 67.1618 50.2282 67.2618 49.8682 67.2618V71.7623C50.2282 71.7623 50.5882 71.6623 50.9083 71.5223L67.31 61.5212C67.9301 61.1612 68.2901 60.4811 68.2501 59.781V56.4807L50.8483 66.9818L50.8683 66.9618Z" clip-rule="evenodd"/><path fill="#4282F1" fill-rule="evenodd" d="M67.2295 38.8589L49.8877 49.1V53.6005L68.1897 42.6993V40.5591C68.1897 39.859 67.8296 39.2189 67.2495 38.8589H67.2295Z" clip-rule="evenodd"/><path fill="#669AF3" fill-rule="evenodd" d="M28.7863 77.603L49.5286 89.9443C52.8289 91.9045 55.1692 95.1648 55.9292 98.9452C56.0092 99.4253 55.6892 99.9053 55.2092 99.9854C54.9691 100.025 54.7291 99.9853 54.5291 99.8453L27.2862 83.7036C24.6459 82.1034 26.9461 74.3026 26.9461 74.3026C26.9461 75.6428 27.6462 76.9029 28.7863 77.603Z" clip-rule="evenodd"/><path fill="#ABC8F7" fill-rule="evenodd" d="M22.4477 78.603V45.8195C22.4677 45.1394 22.8278 44.5394 23.3878 44.1793L28.3884 41.239V80.7832C28.3884 82.1234 28.3884 84.2236 29.4285 84.9237L24.1279 81.6233C23.1078 80.9633 22.4677 79.8431 22.4277 78.623L22.4477 78.603Z" clip-rule="evenodd"/><path fill="#669AF3" fill-rule="evenodd" d="M40.6876 17.2765C39.5475 16.6164 38.1274 16.6164 36.9873 17.2765L15.985 29.9778C12.8447 31.838 9.08427 32.2981 5.5839 31.278C5.02384 30.9579 4.84382 30.2579 5.14385 29.7178C5.24386 29.5378 5.40388 29.3978 5.5839 29.2778C6.48399 28.8377 37.1673 10.5758 37.1673 10.5758C38.3074 9.87568 40.8677 17.5165 40.8677 17.5165L40.6676 17.2765H40.6876Z" clip-rule="evenodd"/><path fill="#ABC8F7" fill-rule="evenodd" d="M40.6275 10.3758L67.2104 26.1175C67.7904 26.4175 68.1705 27.0176 68.2105 27.6576V33.5583L34.8869 13.7762C33.7468 13.1161 32.3266 13.1161 31.1865 13.7762L37.0872 10.3358C38.2073 9.65573 39.6074 9.65573 40.7275 10.3358L40.6275 10.3758Z" clip-rule="evenodd"/><path fill="#669AF3" fill-rule="evenodd" d="M58.9701 82.4034C60.1102 83.0835 61.5304 83.0835 62.6705 82.4034L83.6727 69.9621C86.8331 68.1019 90.6535 67.6418 94.1739 68.7219C94.6939 68.962 94.9139 69.602 94.6739 70.1221C94.5739 70.3421 94.3939 70.5221 94.1739 70.6221L62.5305 89.3641C61.4304 90.0642 58.8301 82.3634 58.8301 82.3634L58.9701 82.4034Z" clip-rule="evenodd"/><path fill="#ABC8F7" fill-rule="evenodd" d="M32.4251 73.7025C31.965 73.2625 31.665 72.6824 31.585 72.0623V66.2617L64.8685 85.9038C65.9886 86.6039 67.4088 86.6039 68.5089 85.9038L62.6083 89.4042C61.4681 90.1043 60.048 90.1043 58.9079 89.4042L32.4251 73.7025Z" clip-rule="evenodd"/><path fill="#669AF3" fill-rule="evenodd" d="M21.1857 39.0188C20.0456 39.6988 19.3455 40.939 19.3455 42.2591V67.2418C19.3455 71.0222 17.7653 74.6426 15.005 77.2428C14.625 77.5829 14.0649 77.5429 13.7249 77.1628C13.5849 77.0028 13.5049 76.8028 13.5049 76.5828V38.7987C13.5049 37.3986 21.2057 38.7987 21.2057 38.7987V38.9988L21.1857 39.0188Z" clip-rule="evenodd"/><path fill="#ABC8F7" fill-rule="evenodd" d="M38.7288 22.577C39.2889 22.237 39.9689 22.237 40.529 22.577L45.5295 25.5173L15.1463 43.3192C13.9862 44.0193 13.2861 45.2794 13.3061 46.6196V39.6788C13.3061 38.3387 14.0262 37.1185 15.2063 36.4785L38.7488 22.577H38.7288Z" clip-rule="evenodd"/><path fill="#669AF3" fill-rule="evenodd" d="M80.7104 57.1608V32.1781C80.7104 28.4177 82.2306 24.8174 84.9109 22.1771C84.9109 22.1771 86.551 21.637 86.451 23.2172C86.351 24.8174 86.451 60.0611 86.451 60.0611C84.9109 61.9013 78.4102 60.0611 78.4102 60.0611C79.5903 59.5211 80.4504 58.4409 80.7104 57.1608Z" clip-rule="evenodd"/><path fill="#ABC8F7" fill-rule="evenodd" d="M84.8719 63.0013L61.1894 77.2429C60.6293 77.6029 59.9092 77.6029 59.3492 77.2429L54.3486 74.4026L84.8919 56.0606C86.052 55.3605 86.7521 54.1004 86.7321 52.7603V59.961C86.6321 61.1011 84.8919 63.0013 84.8919 63.0013H84.8719Z" clip-rule="evenodd"/></g><defs><clipPath id="clip0_681_1917"><rect width="100" height="100" fill="#fff"/></clipPath></defs></svg>