<svg xmlns="http://www.w3.org/2000/svg" width="100" height="100" fill="none" viewBox="0 0 100 100"><path fill="#0060D9" d="M94.6984 6H66.835L55.5947 21.9746L48.9033 37.804L66.835 39.8272L85.4614 37.8769L99.2871 13.9411C101.317 10.4102 98.7713 6 94.6984 6Z"/><path fill="#4285F4" d="M0.728767 13.9543L12.3065 33.8105C13.7281 36.2436 16.3266 37.7445 19.1433 37.7445L48.8977 37.804L66.8359 6H5.29768C1.21144 6 -1.32759 10.4301 0.728767 13.9543Z"/><path fill="#4285F4" d="M54.8081 91.3882C52.7914 94.8928 47.7464 94.9389 45.6767 91.4611L34.1455 72.101C32.6906 69.6545 32.6511 66.6196 34.0526 64.1401L48.9034 37.7977L85.4549 37.8702L54.8081 91.3882Z"/></svg>