<svg xmlns="http://www.w3.org/2000/svg" width="100" height="100" fill="none" viewBox="0 0 100 100"><path fill="#DC34A3" d="M19.1482 21.7504C14.9483 19.2867 9.57528 20.7414 7.15857 25.0117C6.73623 25.7391 6.43121 26.5368 6.24351 27.358C5.11728 32.1445 8.00325 36.9779 12.7193 38.1276V61.8724C11.0769 62.2712 9.59874 63.1394 8.44905 64.3829C5.11728 67.9493 5.23459 73.5805 8.7306 76.9826C12.2266 80.3848 17.7874 80.244 21.1192 76.7011L41.3444 88.5734C41.1098 89.3946 40.9925 90.2628 40.9925 91.1075C40.9925 96.0347 44.9108 100 49.7677 100C50.7062 100 51.6213 99.8358 52.5129 99.5542C57.1116 98.0056 59.6222 92.961 58.0971 88.2919L78.1816 76.4899C78.7916 77.1938 79.5424 77.8038 80.3402 78.2731C84.5401 80.7367 89.9131 79.282 92.3299 75.0117C92.7522 74.2609 93.0807 73.4397 93.2684 72.595C94.3946 67.832 91.4852 63.022 86.7925 61.8958V38.1511C87.5903 37.9399 88.3646 37.6349 89.0685 37.2126C93.2918 34.7489 94.7466 29.3055 92.3299 25.0117C91.9075 24.2844 91.3913 23.6039 90.7813 23.0174C87.2618 19.6152 81.701 19.756 78.3693 23.3458L58.144 11.4735C58.3787 10.6523 58.5194 9.78414 58.5194 8.89254C58.5194 3.96527 54.6011 0 49.7442 0C48.8995 0 48.0549 0.117315 47.2337 0.37541C42.6114 1.75974 39.9601 6.73393 41.3209 11.45L21.0957 23.3224C20.5091 22.7123 19.8521 22.1727 19.1248 21.7504H19.1482ZM56.22 85.0774C54.6011 83.2942 52.3017 82.168 49.7442 82.168C47.1867 82.168 45.0281 83.2004 43.4326 84.8897L23.2074 73.0174L23.3012 72.6654H76.2107C76.2576 72.8766 76.3045 73.0643 76.3749 73.252L56.2435 85.0774H56.22ZM56.0323 15.1103L76.281 27.0061C76.281 27.0061 76.2341 27.2173 76.2107 27.3111C75.0375 32.0741 77.9 36.9076 82.5926 38.1042V61.8724C82.5926 61.8724 82.358 61.9193 82.2642 61.9662L55.7977 15.3449C55.7977 15.3449 55.9619 15.1807 56.0323 15.1103ZM47.304 17.4566C48.8995 17.9259 50.5889 17.9259 52.1844 17.4566L78.6508 64.0544C77.4307 65.2276 76.5861 66.7527 76.1872 68.3951H23.3012C22.9024 66.7527 22.0577 65.2276 20.8376 64.0544L47.304 17.4331V17.4566ZM23.1839 26.9826L43.4326 15.1103L43.6673 15.3684L17.2243 61.9897L16.8723 61.8958V38.1276C16.8723 38.1276 17.0835 38.0807 17.1773 38.0338C21.823 36.6729 24.4978 31.7457 23.1604 27.0061L23.1839 26.9826Z"/></svg>