<?xml version="1.0" encoding="UTF-8"?><svg id="Layer_1" xmlns="http://www.w3.org/2000/svg" viewBox="0 0 50 50"><defs><style>.cls-1{fill:#dc34a3;}</style></defs><path class="cls-1" d="m11.96,12.96c-1.79-1.05-4.08-.43-5.11,1.39-.18.31-.31.65-.39,1-.48,2.04.75,4.1,2.76,4.59v10.12c-.7.17-1.33.54-1.82,1.07-1.42,1.52-1.37,3.92.12,5.37,1.49,1.45,3.86,1.39,5.28-.12l8.62,5.06c-.1.35-.15.72-.15,1.08,0,2.1,1.67,3.79,3.74,3.79.4,0,.79-.07,1.17-.19,1.96-.66,3.03-2.81,2.38-4.8l8.56-5.03c.26.3.58.56.92.76,1.79,1.05,4.08.43,5.11-1.39.18-.32.32-.67.4-1.03.48-2.03-.76-4.08-2.76-4.56v-10.12c.34-.09.67-.22.97-.4,1.8-1.05,2.42-3.37,1.39-5.2-.18-.31-.4-.6-.66-.85-1.5-1.45-3.87-1.39-5.29.14l-8.62-5.06c.1-.35.16-.72.16-1.1,0-2.1-1.67-3.79-3.74-3.79-.36,0-.72.05-1.07.16-1.97.59-3.1,2.71-2.52,4.72l-8.62,5.06c-.25-.26-.53-.49-.84-.67Zm15.8,26.99c-.69-.76-1.67-1.24-2.76-1.24s-2.01.44-2.69,1.16l-8.62-5.06.04-.15h22.55c.02.09.04.17.07.25l-8.58,5.04Zm-.08-29.82l8.63,5.07s-.02.09-.03.13c-.5,2.03.72,4.09,2.72,4.6v10.13s-.1.02-.14.04l-11.28-19.87s.07-.07.1-.1Zm-3.72,1c.68.2,1.4.2,2.08,0l11.28,19.86c-.52.5-.88,1.15-1.05,1.85H13.73c-.17-.7-.53-1.35-1.05-1.85l11.28-19.87Zm-10.28,4.06l8.63-5.06.1.11-11.27,19.87-.15-.04v-10.13s.09-.02.13-.04c1.98-.58,3.12-2.68,2.55-4.7Z"/></svg>