<svg width="100" height="100" viewBox="0 0 100 100" fill="none" xmlns="http://www.w3.org/2000/svg">
<path d="M1.1266 33.1432L16.444 14.8576C17.5706 13.5144 19.5638 13.341 20.9071 14.446C21.0587 14.576 21.1887 14.706 21.3187 14.8576L68.0292 71.1442C69.0042 72.3358 69.0042 74.0691 68.0292 75.2606L51.8452 94.6728C50.7403 96.0161 48.7471 96.2111 47.3822 95.0845C47.2305 94.9545 47.0788 94.8245 46.9705 94.6728L1.10493 39.2961C-0.368311 37.4979 -0.368311 34.9197 1.10493 33.1215L1.1266 33.1432Z" fill="url(#paint0_linear_681_1999)"/>
<path d="M31.5893 5H73.9018C75.31 5 76.6533 5.6283 77.5416 6.71156L98.9036 32.5583C100.355 34.3349 100.377 36.8914 98.9036 38.668L78.5382 63.5615C77.4332 64.9047 75.4617 65.1214 74.1184 64.0165C73.9451 63.8865 73.7934 63.7348 73.6635 63.5615L29.4011 9.70138C28.4045 8.48812 28.5562 6.6899 29.7694 5.67163C30.2894 5.23832 30.9177 5 31.5893 5Z" fill="url(#paint1_linear_681_1999)"/>
<defs>
<linearGradient id="paint0_linear_681_1999" x1="24.0572" y1="19.0932" x2="57.4637" y2="99.9023" gradientUnits="userSpaceOnUse">
<stop stop-color="#FD454D"/>
<stop offset="1" stop-color="#FF7441"/>
</linearGradient>
<linearGradient id="paint1_linear_681_1999" x1="55.848" y1="10.1319" x2="83.7769" y2="58.4875" gradientUnits="userSpaceOnUse">
<stop stop-color="#FD454D"/>
<stop offset="1" stop-color="#FF7441"/>
</linearGradient>
</defs>
</svg>
