<svg width="100" height="100" viewBox="0 0 100 100" fill="none" xmlns="http://www.w3.org/2000/svg">
<g clip-path="url(#clip0_681_2002)">
<path d="M50 100C77.6142 100 100 77.6142 100 50C100 22.3858 77.6142 0 50 0C22.3858 0 0 22.3858 0 50C0 77.6142 22.3858 100 50 100Z" fill="#FF7A59"/>
<path fill-rule="evenodd" clip-rule="evenodd" d="M60.9126 61.0222C57.1793 61.0222 54.1571 58.0222 54.1571 54.3333C54.1571 50.6444 57.1793 47.6444 60.9126 47.6444C64.6459 47.6444 67.6682 50.6444 67.6682 54.3333C67.6682 58.0222 64.6459 61.0222 60.9126 61.0222ZM62.9348 41.4444V35.4889C64.5571 34.7555 65.6015 33.1333 65.6015 31.3555V31.2222C65.6015 28.7111 63.5126 26.6444 60.9793 26.6444H60.8459C58.3126 26.6444 56.2237 28.7111 56.2237 31.2222V31.3555C56.2237 33.1333 57.2682 34.7555 58.8904 35.4889V41.4444C56.6015 41.7778 54.4682 42.7333 52.6459 44.1555L36.1348 31.4444C36.2459 31.0222 36.3126 30.6 36.3126 30.1555C36.3126 27.3111 33.9793 24.9778 31.0904 24.9778C28.2015 24.9778 25.8682 27.2889 25.8682 30.1333C25.8682 32.9778 28.2015 35.2889 31.0682 35.3111C31.9793 35.3111 32.8459 35.0666 33.6459 34.6222L49.8904 47.1333C46.8904 51.6 46.9793 57.4444 50.0904 61.8L45.1571 66.6889C42.9126 65.9777 40.5348 67.2222 39.8459 69.4666C39.1571 71.7111 40.3793 74.0889 42.6237 74.7778C43.0459 74.9111 43.4904 74.9778 43.9348 74.9778C46.3126 74.9778 48.2237 73.0666 48.2237 70.7333C48.2237 70.3111 48.1571 69.9111 48.0237 69.5111L52.9126 64.6666C55.2015 66.4 58.0237 67.3555 60.8904 67.3555C68.1793 67.3555 74.0904 61.5111 74.0904 54.3111C74.0904 47.7778 69.2459 42.4 62.9348 41.4222" fill="white"/>
</g>
<defs>
<clipPath id="clip0_681_2002">
<rect width="100" height="100" fill="white"/>
</clipPath>
</defs>
</svg>
