<svg xmlns="http://www.w3.org/2000/svg" width="100" height="100" fill="none" viewBox="0 0 100 100"><g clip-path="url(#clip0_712_1078)"><path fill="#1F8DED" d="M86.6668 54.9797C86.6573 55.8575 86.3019 56.6962 85.6778 57.3135C85.0537 57.9309 84.2113 58.2772 83.3334 58.2772C82.4555 58.2772 81.6131 57.9309 80.989 57.3135C80.3649 56.6962 80.0095 55.8575 80 54.9797V25C80.0095 24.1222 80.3649 23.2835 80.989 22.6662C81.6131 22.0488 82.4555 21.7025 83.3334 21.7025C84.2113 21.7025 85.0537 22.0488 85.6778 22.6662C86.3019 23.2835 86.6573 24.1222 86.6668 25V54.9797ZM85.5035 75.8441C84.9883 76.2852 72.6402 86.6469 50 86.6469C27.3602 86.6469 15.0125 76.2848 14.4973 75.8438C13.8262 75.2683 13.4111 74.4498 13.3433 73.5684C13.2756 72.6869 13.5607 71.8146 14.1359 71.1434C14.71 70.4732 15.5264 70.058 16.4061 69.989C17.2859 69.92 18.157 70.2028 18.8285 70.7754C19.0242 70.9395 30.0508 79.9797 50.0004 79.9797C70.2004 79.9797 81.0563 70.8742 81.1637 70.7824C82.5586 69.5844 84.6668 69.7453 85.8641 71.1438C86.4395 71.8149 86.7248 72.6871 86.6572 73.5686C86.5896 74.4501 86.1746 75.2686 85.5035 75.8441ZM13.3332 25C13.3427 24.1222 13.6981 23.2835 14.3222 22.6662C14.9463 22.0488 15.7887 21.7025 16.6666 21.7025C17.5445 21.7025 18.3869 22.0488 19.011 22.6662C19.6351 23.2835 19.9905 24.1222 20 25V54.9797C19.9905 55.8575 19.6351 56.6962 19.011 57.3135C18.3869 57.9309 17.5445 58.2772 16.6666 58.2772C15.7887 58.2772 14.9463 57.9309 14.3222 57.3135C13.6981 56.6962 13.3427 55.8575 13.3332 54.9797V25ZM30.0004 18.3332C30.0138 17.458 30.3709 16.6232 30.9945 16.0091C31.6181 15.3949 32.4583 15.0506 33.3336 15.0506C34.2089 15.0506 35.049 15.3949 35.6727 16.0091C36.2963 16.6232 36.6534 17.458 36.6668 18.3332V62.8648C36.6534 63.74 36.2963 64.5748 35.6727 65.189C35.049 65.8032 34.2089 66.1474 33.3336 66.1474C32.4583 66.1474 31.6181 65.8032 30.9945 65.189C30.3709 64.5748 30.0138 63.74 30.0004 62.8648V18.3332ZM46.6668 16.6465C46.6667 16.2087 46.7529 15.7753 46.9204 15.3709C47.0879 14.9664 47.3334 14.599 47.643 14.2894C47.9525 13.9799 48.32 13.7344 48.7244 13.5669C49.1288 13.3994 49.5623 13.3132 50 13.3133C50.4378 13.3132 50.8713 13.3993 51.2757 13.5668C51.6802 13.7343 52.0477 13.9798 52.3573 14.2893C52.6669 14.5988 52.9124 14.9663 53.0799 15.3708C53.2475 15.7752 53.3336 16.2087 53.3336 16.6465V64.9797C53.3241 65.8575 52.9687 66.6962 52.3446 67.3135C51.7205 67.9309 50.8781 68.2772 50.0002 68.2772C49.1223 68.2772 48.2799 67.9309 47.6558 67.3135C47.0317 66.6962 46.6763 65.8575 46.6668 64.9797V16.6465ZM63.3336 18.3332C63.347 17.458 63.7041 16.6232 64.3277 16.0091C64.9513 15.3949 65.7915 15.0506 66.6668 15.0506C67.5421 15.0506 68.3822 15.3949 69.0059 16.0091C69.6295 16.6232 69.9866 17.458 70 18.3332V62.8648C69.9866 63.74 69.6295 64.5748 69.0059 65.189C68.3822 65.8032 67.5421 66.1474 66.6668 66.1474C65.7915 66.1474 64.9513 65.8032 64.3277 65.189C63.7041 64.5748 63.347 63.74 63.3336 62.8648V18.3332ZM87.5 0H12.5C5.59648 0 0 5.59648 0 12.5V87.5C0 94.4031 5.59648 100 12.5 100H87.5C94.4035 100 100 94.4031 100 87.5V12.5C100 5.59648 94.4035 0 87.5 0Z"/></g><defs><clipPath id="clip0_712_1078"><rect width="100" height="100" fill="#fff"/></clipPath></defs></svg>