<svg xmlns="http://www.w3.org/2000/svg" width="100" height="100" fill="none" viewBox="0 0 100 100"><path fill="#fff" d="M27.4208 61.3226L50.8677 100L74.515 61.3226L80.1263 49.499L81.9299 44.489L83.1323 39.0782L83.5331 35.8717L83.7335 32.2645V28.2565L83.1323 24.8497L81.1283 19.4389L78.523 14.0281L76.1182 10.8216L73.1122 7.81563L68.1022 4.60922L62.2906 2.00401L55.8778 0.601202L49.0641 0L43.6533 0.601202L38.2425 2.00401L32.6313 4.60922L27.4208 7.81563L24.8156 10.6212L22.6112 14.0281L21.2084 16.7335L19.8056 19.4389L18.002 24.8497L17 31.8637L17.4008 39.0782L18.6032 44.2886L20.8076 49.499L27.4208 61.3226Z"/><ellipse cx="50.467" cy="34.068" fill="#776FFB" rx="26.854" ry="26.453"/><path stroke="#fff" stroke-linecap="round" stroke-linejoin="round" stroke-width="4" d="M37.3742 29.3921H63.5599M37.3742 38.7442H63.5599M36.439 34.0682C36.439 35.9103 36.8018 37.7345 37.5068 39.4365C38.2118 41.1384 39.2451 42.6849 40.5477 43.9875C41.8503 45.2901 43.3968 46.3234 45.0987 47.0284C46.8007 47.7334 48.6248 48.0962 50.467 48.0962C52.3092 48.0962 54.1334 47.7334 55.8353 47.0284C57.5373 46.3234 59.0837 45.2901 60.3864 43.9875C61.689 42.6849 62.7223 41.1384 63.4273 39.4365C64.1322 37.7345 64.4951 35.9103 64.4951 34.0682C64.4951 30.3477 63.0171 26.7796 60.3864 24.1488C57.7556 21.5181 54.1875 20.0401 50.467 20.0401C46.7465 20.0401 43.1785 21.5181 40.5477 24.1488C37.9169 26.7796 36.439 30.3477 36.439 34.0682Z"/><path stroke="#fff" stroke-linecap="round" stroke-linejoin="round" stroke-width="4" d="M49.6879 20.0401C47.062 24.2479 45.6699 29.1082 45.6699 34.0682C45.6699 39.0281 47.062 43.8884 49.6879 48.0962M51.2465 20.0401C53.8724 24.2479 55.2645 29.1082 55.2645 34.0682C55.2645 39.0281 53.8724 43.8884 51.2465 48.0962"/></svg>