<svg width="100" height="100" viewBox="0 0 100 100" fill="none" xmlns="http://www.w3.org/2000/svg">
<path d="M85.2702 58.3337V71.0087C85.2702 74.0239 83.1089 76.6056 80.1405 77.1358L60.3704 80.6671C60.0068 80.7323 59.6381 80.7651 59.2687 80.7653C56.3104 80.7653 53.687 78.6484 53.1488 75.6346C52.5444 72.2508 54.7976 69.0174 58.1815 68.413L72.8219 65.7979V58.3339C72.8219 54.8964 75.6086 52.1098 79.0461 52.1098C82.4835 52.1098 85.2702 54.8964 85.2702 58.3337ZM61.8131 9.64931C61.9494 9.6495 62.0843 9.62274 62.2102 9.57059C62.3361 9.51843 62.4504 9.4419 62.5466 9.34539L66.6633 5.2287C66.7596 5.13237 66.836 5.01802 66.8882 4.89217C66.9403 4.76633 66.9671 4.63144 66.9671 4.49522C66.9671 4.359 66.9403 4.22412 66.8882 4.09827C66.836 3.97242 66.7596 3.85807 66.6633 3.76175C66.567 3.66543 66.4526 3.58902 66.3268 3.53689C66.2009 3.48476 66.066 3.45793 65.9298 3.45793C65.7936 3.45793 65.6587 3.48476 65.5329 3.53689C65.407 3.58902 65.2927 3.66543 65.1964 3.76175L61.0797 7.87844C60.9345 8.02349 60.8356 8.20832 60.7956 8.40957C60.7555 8.61082 60.776 8.81943 60.8545 9.00901C60.9331 9.19859 61.0661 9.36062 61.2367 9.4746C61.4073 9.58857 61.6079 9.64938 61.8131 9.64931ZM66.0654 20.555C66.0642 20.6913 66.0898 20.8264 66.1408 20.9527C66.1919 21.079 66.2673 21.1941 66.3628 21.2912C66.4583 21.3884 66.572 21.4658 66.6974 21.5191C66.8228 21.5723 66.9574 21.6003 67.0937 21.6015L71.2106 21.6374H71.2198C71.4915 21.6333 71.7508 21.5228 71.9419 21.3297C72.133 21.1365 72.2407 20.8761 72.2419 20.6044C72.2431 20.3326 72.1376 20.0713 71.9481 19.8765C71.7587 19.6817 71.5004 19.569 71.2287 19.5626L67.1118 19.5267C66.9756 19.5255 66.8405 19.5512 66.7141 19.6022C66.5878 19.6532 66.4728 19.7286 66.3756 19.8241C66.2784 19.9196 66.201 20.0333 66.1478 20.1587C66.0946 20.2841 66.0665 20.4188 66.0654 20.555ZM64.9778 13.1814C65.0869 13.4339 65.292 13.6327 65.5478 13.7341C65.8035 13.8354 66.0891 13.831 66.3416 13.7218L70.4585 11.9425C70.5836 11.8885 70.6968 11.8103 70.7916 11.7126C70.8865 11.6148 70.9611 11.4993 71.0113 11.3726C71.0616 11.246 71.0863 11.1107 71.0842 10.9745C71.0822 10.8383 71.0533 10.7038 70.9992 10.5788C70.9452 10.4538 70.8671 10.3406 70.7693 10.2457C70.6715 10.1509 70.556 10.0762 70.4294 10.026C70.3027 9.97578 70.1674 9.95102 70.0312 9.9531C69.895 9.95518 69.7606 9.98407 69.6355 10.0381L65.5186 11.8175C65.3935 11.8715 65.2803 11.9496 65.1855 12.0474C65.0906 12.1452 65.0159 12.2607 64.9657 12.3874C64.9155 12.514 64.8907 12.6493 64.8927 12.7856C64.8948 12.9218 64.9237 13.0563 64.9778 13.1814ZM71.2285 28.3107L67.1116 28.2746C66.5371 28.2725 66.0702 28.7299 66.0652 29.3029C66.064 29.4391 66.0896 29.5742 66.1406 29.7006C66.1917 29.8269 66.2671 29.9419 66.3626 30.0391C66.4581 30.1363 66.5718 30.2137 66.6972 30.2669C66.8226 30.3202 66.9572 30.3482 67.0935 30.3493L71.2104 30.3854H71.2196C71.4948 30.3866 71.7591 30.2785 71.9545 30.0847C72.1499 29.891 72.2603 29.6276 72.2615 29.3525C72.2626 29.0774 72.1545 28.813 71.9608 28.6176C71.767 28.4223 71.5037 28.3118 71.2285 28.3107ZM71.2285 37.0587L67.1116 37.0226C66.5371 37.0222 66.0702 37.4778 66.0652 38.0509C66.064 38.1872 66.0896 38.3223 66.1406 38.4486C66.1917 38.5749 66.2671 38.69 66.3626 38.7871C66.4581 38.8843 66.5718 38.9617 66.6972 39.015C66.8226 39.0682 66.9572 39.0962 67.0935 39.0974L71.2104 39.1335H71.2196C71.4948 39.1347 71.7591 39.0265 71.9545 38.8328C72.1499 38.6391 72.2603 38.3757 72.2615 38.1005C72.2626 37.8254 72.1545 37.5611 71.9608 37.3657C71.767 37.1703 71.5037 37.0599 71.2285 37.0587ZM15.0174 44.1273H15.0267L19.1433 44.0914C19.4142 44.0838 19.6713 43.9705 19.8597 43.7759C20.0481 43.5813 20.153 43.3207 20.1518 43.0497C20.1507 42.7788 20.0436 42.5191 19.8535 42.3261C19.6634 42.1331 19.4053 42.0221 19.1345 42.0168H19.1252L15.0085 42.0527C14.7377 42.0603 14.4806 42.1735 14.2921 42.3681C14.1037 42.5628 13.9989 42.8234 14 43.0943C14.0012 43.3652 14.1082 43.6249 14.2983 43.8179C14.4884 44.011 14.7465 44.122 15.0174 44.1273ZM20.7186 34.3075L16.6019 32.5282C16.3493 32.4191 16.0638 32.4147 15.808 32.5161C15.5522 32.6175 15.3472 32.8164 15.2381 33.069C15.129 33.3215 15.1246 33.6071 15.226 33.8629C15.3275 34.1186 15.5263 34.3236 15.7789 34.4328L19.8956 36.2121C20.0206 36.2661 20.1551 36.295 20.2913 36.2971C20.4275 36.2992 20.5628 36.2744 20.6895 36.2242C20.8161 36.1739 20.9316 36.0993 21.0294 36.0044C21.1272 35.9096 21.2053 35.7964 21.2594 35.6713C21.3134 35.5463 21.3423 35.4118 21.3444 35.2756C21.3464 35.1394 21.3216 35.0041 21.2714 34.8774C21.2212 34.7508 21.1465 34.6353 21.0517 34.5375C20.9568 34.4397 20.8436 34.3616 20.7186 34.3075ZM30.818 26.2518C30.6235 26.0574 30.3596 25.9481 30.0846 25.9481C29.8095 25.9481 29.5457 26.0574 29.3511 26.2518L25.2344 30.3689C25.0399 30.5634 24.9306 30.8273 24.9306 31.1024C24.9307 31.3774 25.04 31.6413 25.2345 31.8358C25.429 32.0303 25.6929 32.1395 25.9679 32.1395C26.243 32.1395 26.5068 32.0302 26.7013 31.8357L30.818 27.7188C30.9144 27.6224 30.9908 27.5081 31.0429 27.3822C31.0951 27.2564 31.1219 27.1215 31.1219 26.9853C31.1219 26.8491 31.0951 26.7142 31.0429 26.5883C30.9908 26.4625 30.9144 26.3481 30.818 26.2518ZM35.383 42.0527L31.2663 42.0168C31.13 42.0153 30.9948 42.0408 30.8684 42.0918C30.742 42.1427 30.6268 42.2181 30.5296 42.3137C30.4324 42.4092 30.355 42.523 30.3018 42.6485C30.2487 42.774 30.2208 42.9088 30.2199 43.0451C30.2175 43.3202 30.3245 43.585 30.5174 43.7812C30.7102 43.9774 30.9731 44.089 31.2482 44.0914L35.3649 44.1273H35.3742C35.645 44.122 35.9031 44.011 36.0932 43.8179C36.2833 43.6249 36.3904 43.3652 36.3915 43.0943C36.3927 42.8234 36.2878 42.5628 36.0994 42.3681C35.911 42.1735 35.6539 42.0603 35.383 42.0527ZM34.6129 34.4328C34.8601 34.3202 35.0533 34.1151 35.151 33.8615C35.2486 33.608 35.243 33.3263 35.1352 33.0769C35.0275 32.8275 34.8262 32.6304 34.5746 32.5278C34.3231 32.4252 34.0413 32.4253 33.7898 32.5282L29.6732 34.3075C29.4254 34.4198 29.2316 34.6249 29.1335 34.8787C29.0355 35.1325 29.041 35.4146 29.1489 35.6643C29.2569 35.914 29.4586 36.1114 29.7106 36.2138C29.9626 36.3163 30.2448 36.3157 30.4964 36.2121L34.6129 34.4328ZM20.1717 51.7933C20.1693 51.5198 20.0589 51.2583 19.8647 51.0657C19.6705 50.8731 19.408 50.7651 19.1345 50.765H19.1252L15.0085 50.8007C14.7377 50.8083 14.4806 50.9215 14.2921 51.1162C14.1037 51.3108 13.9989 51.5714 14 51.8423C14.0012 52.1133 14.1082 52.373 14.2983 52.566C14.4884 52.759 14.7465 52.87 15.0174 52.8753H15.0267L19.1433 52.8394C19.2796 52.8383 19.4142 52.8103 19.5396 52.7571C19.665 52.7039 19.7787 52.6265 19.8742 52.5294C19.9697 52.4322 20.0451 52.3172 20.0961 52.1909C20.1472 52.0647 20.1728 51.9296 20.1717 51.7933ZM18.9453 59.5302L16.0013 60.0755C15.8674 60.1004 15.7396 60.1513 15.6254 60.2255C15.5111 60.2997 15.4126 60.3957 15.3354 60.5079C15.2582 60.6202 15.2039 60.7466 15.1756 60.8798C15.1472 61.0131 15.1454 61.1506 15.1702 61.2846C15.1951 61.4185 15.246 61.5463 15.3202 61.6605C15.3944 61.7748 15.4904 61.8733 15.6026 61.9505C15.7149 62.0277 15.8413 62.082 15.9745 62.1103C16.1078 62.1386 16.2453 62.1405 16.3793 62.1156L19.3232 61.5703C19.4572 61.5455 19.5849 61.4945 19.6992 61.4204C19.8135 61.3462 19.912 61.2502 19.9892 61.1379C20.0663 61.0257 20.1206 60.8993 20.149 60.766C20.1773 60.6328 20.1791 60.4953 20.1543 60.3613C20.1295 60.2274 20.0785 60.0996 20.0044 59.9853C19.9302 59.8711 19.8342 59.7725 19.7219 59.6954C19.6097 59.6182 19.4833 59.5639 19.35 59.5356C19.2168 59.5072 19.0793 59.5054 18.9453 59.5302ZM71.2285 45.8068L67.1116 45.7707H67.1023C66.8296 45.7731 66.5688 45.8829 66.3764 46.0762C66.184 46.2695 66.0755 46.5308 66.0743 46.8036C66.0731 47.0763 66.1794 47.3386 66.3702 47.5335C66.5609 47.7285 66.8208 47.8405 67.0935 47.8452L71.2104 47.8813H71.2196C71.4924 47.8789 71.7532 47.7691 71.9456 47.5758C72.138 47.3825 72.2465 47.1212 72.2477 46.8484C72.2489 46.5757 72.1426 46.3135 71.9518 46.1185C71.7611 45.9235 71.5012 45.8116 71.2285 45.8068ZM67.1116 54.5191C66.5371 54.5215 66.0702 54.9745 66.0652 55.5474C66.0628 55.8225 66.1698 56.0873 66.3626 56.2835C66.5555 56.4797 66.8184 56.5913 67.0935 56.5937L71.2104 56.6296H71.2196C71.4905 56.6243 71.7486 56.5133 71.9387 56.3203C72.1288 56.1273 72.2358 55.8676 72.237 55.5966C72.2382 55.3257 72.1333 55.0651 71.9449 54.8705C71.7564 54.6758 71.4993 54.5626 71.2285 54.555L67.1116 54.5191ZM42.0021 19.5267H41.9928L37.8761 19.5626C37.6044 19.569 37.3461 19.6817 37.1567 19.8765C36.9672 20.0713 36.8618 20.3326 36.8629 20.6044C36.8641 20.8761 36.9718 21.1365 37.1629 21.3297C37.354 21.5228 37.6133 21.6333 37.885 21.6374H37.8942L42.0109 21.6015C42.2826 21.5951 42.5409 21.4824 42.7303 21.2876C42.9198 21.0928 43.0253 20.8315 43.0241 20.5598C43.023 20.288 42.9152 20.0276 42.7241 19.8344C42.533 19.6413 42.2738 19.5308 42.0021 19.5267ZM43.5862 11.8177L39.4695 10.0383C39.3445 9.98419 39.21 9.95524 39.0737 9.95311C38.9375 9.95099 38.8022 9.97575 38.6756 10.026C38.5489 10.0762 38.4334 10.1509 38.3356 10.2458C38.2379 10.3407 38.1598 10.4539 38.1058 10.579C38.0517 10.704 38.0228 10.8385 38.0208 10.9747C38.0187 11.1109 38.0434 11.2462 38.0937 11.3729C38.1439 11.4995 38.2185 11.615 38.3134 11.7128C38.4082 11.8105 38.5214 11.8887 38.6465 11.9427L42.7632 13.722C42.8885 13.7782 43.0238 13.8089 43.1612 13.8123C43.2985 13.8157 43.4351 13.7919 43.5632 13.7421C43.6912 13.6923 43.8081 13.6176 43.907 13.5222C44.0059 13.4269 44.0849 13.3129 44.1394 13.1868C44.1939 13.0607 44.2228 12.925 44.2245 12.7876C44.2261 12.6503 44.2004 12.514 44.149 12.3866C44.0975 12.2592 44.0213 12.1433 43.9246 12.0457C43.828 11.948 43.713 11.8705 43.5862 11.8177ZM42.0021 28.2748H41.9928L37.8761 28.3109C37.6053 28.3185 37.3482 28.4317 37.1597 28.6263C36.9713 28.821 36.8664 29.0816 36.8676 29.3525C36.8688 29.6234 36.9758 29.8831 37.1659 30.0761C37.356 30.2692 37.6141 30.3802 37.885 30.3854H37.8942L42.0109 30.3493C42.2817 30.3418 42.5388 30.2285 42.7273 30.0339C42.9157 29.8393 43.0206 29.5786 43.0194 29.3077C43.0183 29.0368 42.9112 28.7771 42.7211 28.5841C42.531 28.3911 42.2729 28.28 42.0021 28.2748ZM41.9928 37.0228L37.8761 37.0589C37.6053 37.0665 37.3482 37.1797 37.1597 37.3744C36.9713 37.569 36.8664 37.8296 36.8676 38.1005C36.8688 38.3715 36.9758 38.6312 37.1659 38.8242C37.356 39.0172 37.6141 39.1282 37.885 39.1335H37.8942L42.0109 39.0974C42.2861 39.0949 42.5489 38.9833 42.7418 38.7871C42.9346 38.5908 43.0416 38.3261 43.0393 38.0509C43.0385 37.9146 43.0108 37.7797 42.9577 37.6541C42.9047 37.5285 42.8273 37.4146 42.73 37.3191C42.6327 37.2235 42.5175 37.1481 42.391 37.0973C42.2645 37.0465 42.1291 37.0211 41.9928 37.0228ZM42.0021 45.7709H41.9928L37.8761 45.807C37.6053 45.8146 37.3482 45.9278 37.1597 46.1224C36.9713 46.3171 36.8664 46.5777 36.8676 46.8486C36.8688 47.1195 36.9758 47.3792 37.1659 47.5722C37.356 47.7653 37.6141 47.8763 37.885 47.8816H37.8942L42.0109 47.8455C42.2817 47.8379 42.5388 47.7246 42.7273 47.53C42.9157 47.3354 43.0206 47.0747 43.0194 46.8038C43.0183 46.5329 42.9112 46.2732 42.7211 46.0802C42.531 45.8872 42.2729 45.7761 42.0021 45.7709Z" fill="#2BA52E"/>
<path d="M54.4355 3.19606C46.4143 3.19606 39.9126 9.69771 39.9126 17.7189V52.4645L33.7498 50.8038V36.1821C33.7498 31.5987 30.0342 27.8833 25.4511 27.8833C20.8677 27.8833 17.1523 31.5987 17.1523 36.1821V57.1622C17.1523 60.9139 19.6694 64.1991 23.2918 65.1752L39.9126 69.6543V91.0535C39.9126 99.0747 46.4143 100 54.4355 100C62.4568 100 68.9584 99.0747 68.9584 91.0535V17.7189C68.9586 9.69771 62.4568 3.19606 54.4355 3.19606Z" fill="#5DC15D"/>
<path d="M37.8851 56.6296C37.6124 56.6272 37.3516 56.5174 37.1592 56.3241C36.9668 56.1308 36.8583 55.8694 36.8571 55.5967C36.8559 55.324 36.9622 55.0617 37.153 54.8668C37.3437 54.6718 37.6036 54.5598 37.8763 54.555L41.993 54.5191H42.0022C42.275 54.5216 42.5358 54.6313 42.7282 54.8247C42.9206 55.018 43.0291 55.2793 43.0303 55.552C43.0315 55.8248 42.9252 56.087 42.7344 56.282C42.5437 56.4769 42.2838 56.5889 42.0111 56.5937L37.8944 56.6296H37.8851ZM55.4736 24.4477V1.03739C55.4736 0.762258 55.3643 0.498394 55.1698 0.303845C54.9752 0.109296 54.7114 0 54.4362 0C54.1611 0 53.8972 0.109296 53.7027 0.303845C53.5081 0.498394 53.3988 0.762258 53.3988 1.03739V24.4477C53.3988 24.7228 53.5081 24.9867 53.7027 25.1812C53.8972 25.3758 54.1611 25.4851 54.4362 25.4851C54.7114 25.4851 54.9752 25.3758 55.1698 25.1812C55.3643 24.9867 55.4736 24.7228 55.4736 24.4477ZM62.5117 17.7189V4.2617C62.5117 3.98656 62.4024 3.7227 62.2079 3.52815C62.0133 3.3336 61.7494 3.2243 61.4743 3.2243C61.1992 3.2243 60.9353 3.3336 60.7408 3.52815C60.5462 3.7227 60.4369 3.98656 60.4369 4.2617V17.7189C60.4369 17.9941 60.5462 18.2579 60.7408 18.4525C60.9353 18.647 61.1992 18.7563 61.4743 18.7563C61.7494 18.7563 62.0133 18.647 62.2079 18.4525C62.4024 18.2579 62.5117 17.9941 62.5117 17.7189ZM64.5863 37.9051V24.4477C64.5863 24.1725 64.477 23.9087 64.2824 23.7141C64.0879 23.5196 63.824 23.4103 63.5489 23.4103C63.2738 23.4103 63.0099 23.5196 62.8153 23.7141C62.6208 23.9087 62.5115 24.1725 62.5115 24.4477V37.9051C62.5115 38.1803 62.6208 38.4441 62.8153 38.6387C63.0099 38.8332 63.2738 38.9425 63.5489 38.9425C63.824 38.9425 64.0879 38.8332 64.2824 38.6387C64.477 38.4441 64.5863 38.1803 64.5863 37.9051ZM45.3953 41.1016V27.6444C45.3953 27.3692 45.286 27.1054 45.0915 26.9108C44.8969 26.7163 44.6331 26.607 44.3579 26.607C44.0828 26.607 43.8189 26.7163 43.6244 26.9108C43.4299 27.1054 43.3206 27.3692 43.3206 27.6444V41.1016C43.3206 41.3767 43.4299 41.6406 43.6244 41.8352C43.8189 42.0297 44.0828 42.139 44.3579 42.139C44.6331 42.139 44.8969 42.0297 45.0915 41.8352C45.286 41.6406 45.3953 41.3767 45.3953 41.1016ZM52.6569 54.942V30.5589C52.6569 30.2838 52.5476 30.0199 52.353 29.8253C52.1585 29.6308 51.8946 29.5215 51.6195 29.5215C51.3444 29.5215 51.0805 29.6308 50.8859 29.8253C50.6914 30.0199 50.5821 30.2838 50.5821 30.5589V54.942C50.5821 55.2172 50.6914 55.481 50.8859 55.6756C51.0805 55.8701 51.3444 55.9794 51.6195 55.9794C51.8946 55.9794 52.1585 55.8701 52.353 55.6756C52.5476 55.481 52.6569 55.2172 52.6569 54.942ZM60.3135 61.0956V47.6381C60.3135 47.363 60.2042 47.0991 60.0097 46.9046C59.8151 46.71 59.5512 46.6008 59.2761 46.6008C59.001 46.6008 58.7371 46.71 58.5426 46.9046C58.348 47.0991 58.2387 47.363 58.2387 47.6381V61.0956C58.2387 61.3707 58.348 61.6346 58.5426 61.8291C58.7371 62.0237 59.001 62.133 59.2761 62.133C59.5512 62.133 59.8151 62.0237 60.0097 61.8291C60.2042 61.6346 60.3135 61.3707 60.3135 61.0956ZM46.2706 73.7903V60.3329C46.2706 60.0577 46.1613 59.7939 45.9667 59.5993C45.7722 59.4048 45.5083 59.2955 45.2332 59.2955C44.9581 59.2955 44.6942 59.4048 44.4997 59.5993C44.3051 59.7939 44.1958 60.0577 44.1958 60.3329V73.7903C44.1958 74.0655 44.3051 74.3293 44.4997 74.5239C44.6942 74.7184 44.9581 74.8277 45.2332 74.8277C45.5083 74.8277 45.7722 74.7184 45.9667 74.5239C46.1613 74.3293 46.2706 74.0655 46.2706 73.7903ZM55.4736 94.8153V69.7961C55.4736 69.5209 55.3643 69.2571 55.1698 69.0625C54.9752 68.868 54.7114 68.7587 54.4362 68.7587C54.1611 68.7587 53.8972 68.868 53.7027 69.0625C53.5081 69.2571 53.3988 69.5209 53.3988 69.7961V94.8153C53.3988 95.0904 53.5081 95.3543 53.7027 95.5488C53.8972 95.7434 54.1611 95.8527 54.4362 95.8527C54.7114 95.8527 54.9752 95.7434 55.1698 95.5488C55.3643 95.3543 55.4736 95.0904 55.4736 94.8153ZM64.5863 85.0468V71.5893C64.5863 71.3142 64.477 71.0503 64.2824 70.8558C64.0879 70.6612 63.824 70.5519 63.5489 70.5519C63.2738 70.5519 63.0099 70.6612 62.8153 70.8558C62.6208 71.0503 62.5115 71.3142 62.5115 71.5893V85.0468C62.5115 85.3219 62.6208 85.5858 62.8153 85.7803C63.0099 85.9749 63.2738 86.0842 63.5489 86.0842C63.824 86.0842 64.0879 85.9749 64.2824 85.7803C64.477 85.5858 64.5863 85.3219 64.5863 85.0468ZM50.4361 10.2007V1.53027C50.4361 1.25514 50.3268 0.991276 50.1322 0.796727C49.9377 0.602178 49.6738 0.492882 49.3987 0.492882C49.1236 0.492882 48.8597 0.602178 48.6652 0.796727C48.4706 0.991276 48.3613 1.25514 48.3613 1.53027V10.2007C48.3613 10.4758 48.4706 10.7397 48.6652 10.9342C48.8597 11.1288 49.1236 11.2381 49.3987 11.2381C49.6738 11.2381 49.9377 11.1288 50.1322 10.9342C50.3268 10.7397 50.4361 10.4758 50.4361 10.2007ZM23.7071 38.0961V29.3481C23.7071 29.2118 23.6803 29.0769 23.6282 28.9511C23.576 28.8252 23.4996 28.7109 23.4032 28.6146L21.0404 26.2518C20.8443 26.065 20.583 25.9622 20.3122 25.9655C20.0413 25.9688 19.7825 26.0778 19.591 26.2693C19.3995 26.4609 19.2905 26.7197 19.2872 26.9905C19.2839 27.2613 19.3867 27.5227 19.5735 27.7188L21.6323 29.7778V38.0961C21.6323 38.3712 21.7416 38.6351 21.9362 38.8297C22.1307 39.0242 22.3946 39.1335 22.6697 39.1335C22.9449 39.1335 23.2087 39.0242 23.4033 38.8297C23.5978 38.6351 23.7071 38.3712 23.7071 38.0961ZM29.0637 46.8083V33.4805C29.0637 33.2054 28.9544 32.9415 28.7598 32.7469C28.5653 32.5524 28.3014 32.4431 28.0263 32.4431C27.7512 32.4431 27.4873 32.5524 27.2927 32.7469C27.0982 32.9415 26.9889 33.2054 26.9889 33.4805V46.8083C26.9889 47.0834 27.0982 47.3473 27.2927 47.5418C27.4873 47.7364 27.7512 47.8457 28.0263 47.8457C28.3014 47.8457 28.5653 47.7364 28.7598 47.5418C28.9544 47.3473 29.0637 47.0834 29.0637 46.8083ZM22.5259 52.7341V45.7558C22.5259 45.4806 22.4166 45.2168 22.2221 45.0222C22.0275 44.8277 21.7637 44.7184 21.4885 44.7184C21.2134 44.7184 20.9495 44.8277 20.755 45.0222C20.5604 45.2168 20.4511 45.4806 20.4511 45.7558V52.7341C20.4511 53.0093 20.5604 53.2731 20.755 53.4677C20.9495 53.6622 21.2134 53.7715 21.4885 53.7715C21.7637 53.7715 22.0275 53.6622 22.2221 53.4677C22.4166 53.2731 22.5259 53.0093 22.5259 52.7341ZM26.4886 64.1656V52.2639C26.4886 51.9887 26.3793 51.7249 26.1847 51.5303C25.9902 51.3358 25.7263 51.2265 25.4512 51.2265C25.176 51.2265 24.9122 51.3358 24.7176 51.5303C24.5231 51.7249 24.4138 51.9887 24.4138 52.2639V64.1656C24.4138 64.4408 24.5231 64.7046 24.7176 64.8992C24.9122 65.0937 25.176 65.203 25.4512 65.203C25.7263 65.203 25.9902 65.0937 26.1847 64.8992C26.3793 64.7046 26.4886 64.4408 26.4886 64.1656ZM34.3531 62.4595V55.4811C34.3531 55.206 34.2438 54.9421 34.0492 54.7476C33.8547 54.553 33.5908 54.4437 33.3157 54.4437C33.0406 54.4437 32.7767 54.553 32.5821 54.7476C32.3876 54.9421 32.2783 55.206 32.2783 55.4811V62.4595C32.2783 62.7346 32.3876 62.9985 32.5821 63.193C32.7767 63.3876 33.0406 63.4969 33.3157 63.4969C33.5908 63.4969 33.8547 63.3876 34.0492 63.193C34.2438 62.9985 34.3531 62.7346 34.3531 62.4595ZM48.3288 89.9899V83.2614C48.3288 82.9862 48.2195 82.7224 48.025 82.5278C47.8304 82.3333 47.5666 82.224 47.2914 82.224C47.0163 82.224 46.7524 82.3333 46.5579 82.5278C46.3633 82.7224 46.2541 82.9862 46.2541 83.2614V89.9899C46.2541 90.265 46.3633 90.5289 46.5579 90.7234C46.7524 90.918 47.0163 91.0273 47.2914 91.0273C47.5666 91.0273 47.8304 90.918 48.025 90.7234C48.2195 90.5289 48.3288 90.265 48.3288 89.9899ZM46.0104 5.89361C46.0163 5.88958 46.0217 5.88514 46.0276 5.88091L43.9084 3.76176C43.7123 3.57493 43.451 3.47218 43.1801 3.47546C42.9093 3.47873 42.6505 3.58777 42.459 3.77929C42.2675 3.9708 42.1585 4.22961 42.1552 4.50043C42.1519 4.77125 42.2547 5.03261 42.4415 5.2287L44.196 6.98324V17.7189C44.196 17.9941 44.3053 18.2579 44.4999 18.4525C44.6944 18.647 44.9583 18.7563 45.2334 18.7563C45.5085 18.7563 45.7724 18.647 45.9669 18.4525C46.1615 18.2579 46.2708 17.9941 46.2708 17.7189V6.57405C46.2698 6.32309 46.1772 6.08114 46.0104 5.89361Z" fill="#2BA52E"/>
</svg>
