<svg width="100" height="100" viewBox="0 0 100 100" fill="none" xmlns="http://www.w3.org/2000/svg">
<path fill-rule="evenodd" clip-rule="evenodd" d="M88.432 28.1122V68.7188H82.1848V28.1122H69.6905C67.2052 28.1122 64.8217 27.125 63.0643 25.3676C61.307 23.6103 60.3197 21.2268 60.3197 18.7415V6.24717H25.9603C24.3034 6.24717 22.7145 6.90535 21.5429 8.07692C20.3713 9.24849 19.7131 10.8375 19.7131 12.4943V68.7188H13.466V12.4943C13.466 9.18063 14.7823 6.00265 17.1255 3.65951C19.4686 1.31636 22.6466 0 25.9603 0L60.3197 0L88.432 28.1122ZM26.9036 95.5192C26.4891 94.6393 26.2534 93.6859 26.2102 92.7142H30.983C31.0698 93.2019 31.256 93.6666 31.53 94.0793C31.8041 94.492 32.1602 94.8439 32.576 95.1131C33.0133 95.4192 33.5381 95.6566 34.1378 95.8253C34.7313 96.0002 35.3935 96.0814 36.1307 96.0814C37.1552 96.0814 38.0111 95.9377 38.7108 95.6441C39.3479 95.4059 39.9015 94.9869 40.3038 94.4384C40.6586 93.9018 40.8417 93.2699 40.8286 92.6267C40.847 92.2357 40.7702 91.8462 40.6048 91.4914C40.4394 91.1367 40.1903 90.8274 39.879 90.5902C39.248 90.0904 38.2797 89.6906 36.9865 89.3844L33.1258 88.4911C31.9358 88.2393 30.7972 87.7872 29.7586 87.1542C28.8404 86.592 28.083 85.8023 27.5596 84.8615C27.0282 83.8538 26.7636 82.7269 26.7912 81.588C26.7912 80.0637 27.191 78.733 27.9781 77.596C28.7778 76.4653 29.8773 75.5845 31.2766 74.9597C32.6822 74.335 34.3003 74.0289 36.1307 74.0289C38.0298 74.0289 39.6541 74.3413 40.9972 74.9785C42.3529 75.6157 43.3961 76.4716 44.1208 77.5398C44.8705 78.6018 45.2828 79.7826 45.3702 81.0757H40.6849C40.5779 80.4829 40.3197 79.9277 39.9352 79.4639C39.5245 78.9656 38.9964 78.577 38.3984 78.3332C37.6653 78.0344 36.8784 77.8898 36.087 77.9084C34.7376 77.9084 33.6693 78.2208 32.8884 78.858C32.5211 79.1392 32.2251 79.5028 32.0243 79.9195C31.8236 80.3363 31.7236 80.7944 31.7327 81.2569C31.7327 82.0128 32.0325 82.6313 32.6323 83.131C33.3786 83.6841 34.2422 84.0581 35.1561 84.2243L39.0356 85.1176C40.3913 85.43 41.572 85.8673 42.5715 86.4358C43.5354 86.9624 44.3435 87.7338 44.9142 88.6723C45.4764 89.5969 45.7576 90.7651 45.7576 92.1707C45.7576 93.7137 45.364 95.0819 44.5831 96.2688C43.7515 97.4912 42.5812 98.4443 41.2159 99.0113C39.754 99.6673 37.9674 99.9984 35.8558 99.9984C34.269 99.9984 32.8822 99.811 31.7014 99.4361C30.6135 99.1097 29.5994 98.575 28.7153 97.8619C27.9526 97.2178 27.3351 96.4194 26.9036 95.5192ZM7.51242 95.313C7.16771 94.3814 6.99417 93.3952 7.00015 92.4018H11.773C11.786 92.9935 11.9448 93.5729 12.2353 94.0886C12.5229 94.579 12.9392 94.9815 13.4391 95.2523C13.9391 95.5232 14.5035 95.6522 15.0715 95.6254C16.2584 95.6254 17.1331 95.2818 17.7078 94.6008C18.2763 93.9136 18.5637 92.9453 18.5637 91.6897V74.5412H23.5052V91.5647C23.5052 94.3135 22.7617 96.4 21.2749 97.8431C19.7943 99.28 17.7453 99.9984 15.1215 99.9984C13.9128 100.02 12.7103 99.8212 11.5731 99.4111C10.6164 99.0456 9.74927 98.479 9.03048 97.7494C8.36433 97.0487 7.84782 96.2198 7.51242 95.313ZM64.3054 85.4112V88.6723C64.3054 90.2715 64.0618 91.6084 63.5745 92.6767C63.1595 93.6648 62.4591 94.5066 61.5629 95.0944C60.678 95.6284 59.6601 95.9013 58.6267 95.8815C57.5936 95.8993 56.5762 95.6266 55.6906 95.0944C54.801 94.5025 54.1057 93.6616 53.6915 92.6767C53.1668 91.4088 52.9177 90.0438 52.9605 88.6723V85.4112C52.9605 83.7995 53.2042 82.4688 53.6915 81.4068C54.1057 80.422 54.801 79.581 55.6906 78.9892C56.5722 78.4456 57.5911 78.166 58.6267 78.1833C59.7325 78.1833 60.707 78.4519 61.5629 78.9892C62.4591 79.5769 63.1595 80.4187 63.5745 81.4068C64.0618 82.4688 64.3054 83.7995 64.3054 85.4112ZM69.3219 88.6535V85.4487C69.3219 83.0936 68.8908 81.0695 68.0412 79.3702C67.2373 77.7168 65.9526 76.345 64.3554 75.4345C62.7748 74.5224 60.8632 74.0601 58.633 74.0601C56.409 74.0601 54.4974 74.5224 52.8856 75.4345C51.2879 76.3367 50.0041 77.7056 49.206 79.3577C48.3501 81.0507 47.9253 83.0811 47.9253 85.4487V88.6535C47.9253 90.9962 48.3501 93.0203 49.206 94.732C50.0619 96.425 51.2863 97.7307 52.8856 98.6427C54.4974 99.5486 56.409 99.9984 58.633 99.9984C60.8632 99.9984 62.7748 99.5486 64.3616 98.6427C65.9609 97.7307 67.1853 96.425 68.0412 94.732C68.8908 93.0203 69.3219 90.9962 69.3219 88.6535ZM77.3807 82.8124V99.5236H72.7203V74.5412H76.856L87.801 91.1586H88.0009V74.5412H92.6863V99.5298H88.5881L77.5869 82.8124H77.387H77.3807Z" fill="#151515"/>
</svg>
