<?xml version="1.0" encoding="UTF-8"?><svg id="Layer_1" xmlns="http://www.w3.org/2000/svg" viewBox="0 0 50 50"><defs><style>.cls-1{fill:#231f20;}</style></defs><path class="cls-1" d="m33.43,27.56c-1.85,0-3.51.82-4.64,2.11l-2.91-2.06c.31-.85.49-1.76.49-2.72s-.17-1.84-.47-2.67l2.9-2.04c1.14,1.28,2.79,2.1,4.63,2.1,3.41,0,6.19-2.78,6.19-6.19s-2.78-6.19-6.19-6.19-6.19,2.78-6.19,6.19c0,.61.09,1.2.26,1.76l-2.9,2.04c-1.21-1.5-2.96-2.56-4.95-2.88v-3.5c2.8-.59,4.92-3.08,4.92-6.06,0-3.41-2.78-6.19-6.19-6.19s-6.19,2.78-6.19,6.19c0,2.94,2.06,5.4,4.81,6.03v3.55c-3.75.66-6.61,3.93-6.61,7.87s2.89,7.24,6.67,7.88v3.74c-2.78.61-4.86,3.09-4.86,6.04,0,3.41,2.78,6.19,6.19,6.19s6.19-2.78,6.19-6.19c0-2.96-2.09-5.43-4.86-6.04v-3.74c1.91-.32,3.64-1.33,4.87-2.83l2.93,2.07c-.16.55-.25,1.14-.25,1.74,0,3.41,2.78,6.19,6.19,6.19s6.19-2.78,6.19-6.19-2.78-6.19-6.19-6.19Zm0-14.47c1.65,0,3,1.35,3,3s-1.35,3-3,3-3-1.35-3-3,1.35-3,3-3ZM15.37,7.45c0-1.65,1.35-3,3-3s3,1.35,3,3-1.35,3-3,3-3-1.35-3-3Zm6,35.1c0,1.65-1.35,3-3,3s-3-1.35-3-3,1.35-3,3-3,3,1.35,3,3Zm-3-13.48c-2.31,0-4.19-1.88-4.19-4.19s1.88-4.19,4.19-4.19,4.19,1.88,4.19,4.19-1.88,4.19-4.19,4.19Zm15.06,7.67c-1.65,0-3-1.35-3-3s1.35-3,3-3,3,1.35,3,3-1.35,3-3,3Z"/></svg>