<svg xmlns="http://www.w3.org/2000/svg" width="100" height="100" fill="none" viewBox="0 0 100 100"><path fill="#231F20" d="M67.5155 55.3801C63.6199 55.3801 60.1245 57.1068 57.745 59.8231L51.6174 55.4854C52.2702 53.6955 52.6492 51.7793 52.6492 49.7578C52.6492 47.7364 52.2912 45.8833 51.6595 44.1356L57.7661 39.84C60.1666 42.5353 63.641 44.262 67.5155 44.262C74.6959 44.262 80.5498 38.4081 80.5498 31.2276C80.5498 24.0472 74.6959 18.1933 67.5155 18.1933C60.335 18.1933 54.4812 24.0472 54.4812 31.2276C54.4812 32.5121 54.6707 33.7545 55.0286 34.9337L48.9221 39.2293C46.3742 36.0707 42.6892 33.8387 38.4988 33.1649V25.7949C44.3948 24.5525 48.8589 19.3093 48.8589 13.0343C48.8589 5.85386 43.0051 0 35.8246 0C28.6441 0 22.7903 5.85386 22.7903 13.0343C22.7903 19.2251 27.128 24.4051 32.9187 25.7317V33.207C25.0223 34.5968 19 41.4824 19 49.7789C19 58.0754 25.0855 65.0242 33.0451 66.3719V74.2472C27.1912 75.5317 22.8113 80.7538 22.8113 86.9657C22.8113 94.1461 28.6652 100 35.8456 100C43.0261 100 48.88 94.1461 48.88 86.9657C48.88 80.7328 44.479 75.5317 38.6462 74.2472V66.3719C42.6681 65.698 46.311 63.5713 48.901 60.4127L55.0708 64.7715C54.7338 65.9297 54.5443 67.172 54.5443 68.4355C54.5443 75.6159 60.3982 81.4698 67.5786 81.4698C74.7591 81.4698 80.613 75.6159 80.613 68.4355C80.613 61.255 74.7591 55.4011 67.5786 55.4011L67.5155 55.3801ZM67.5155 24.9105C70.9899 24.9105 73.8326 27.7532 73.8326 31.2276C73.8326 34.702 70.9899 37.5447 67.5155 37.5447C64.0411 37.5447 61.1984 34.702 61.1984 31.2276C61.1984 27.7532 64.0411 24.9105 67.5155 24.9105ZM29.4864 13.0343C29.4864 9.55991 32.3291 6.7172 35.8035 6.7172C39.278 6.7172 42.1207 9.55991 42.1207 13.0343C42.1207 16.5087 39.278 19.3514 35.8035 19.3514C32.3291 19.3514 29.4864 16.5087 29.4864 13.0343ZM42.1207 86.9446C42.1207 90.419 39.278 93.2617 35.8035 93.2617C32.3291 93.2617 29.4864 90.419 29.4864 86.9446C29.4864 83.4702 32.3291 80.6275 35.8035 80.6275C39.278 80.6275 42.1207 83.4702 42.1207 86.9446ZM35.8035 58.5597C30.9394 58.5597 26.9806 54.601 26.9806 49.7368C26.9806 44.8726 30.9394 40.9139 35.8035 40.9139C40.6677 40.9139 44.6264 44.8726 44.6264 49.7368C44.6264 54.601 40.6677 58.5597 35.8035 58.5597ZM67.5155 74.7105C64.0411 74.7105 61.1984 71.8678 61.1984 68.3934C61.1984 64.9189 64.0411 62.0762 67.5155 62.0762C70.9899 62.0762 73.8326 64.9189 73.8326 68.3934C73.8326 71.8678 70.9899 74.7105 67.5155 74.7105Z"/></svg>