<?xml version="1.0" encoding="UTF-8"?><svg id="Layer_1" xmlns="http://www.w3.org/2000/svg" xmlns:xlink="http://www.w3.org/1999/xlink" viewBox="0 0 50 50"><defs><style>.cls-1{fill:none;}.cls-2{clip-path:url(#clippath);}.cls-3{fill:#00b7e2;}.cls-4{fill:#0089a9;}.cls-5{fill:#e3e3e3;}.cls-6{fill:#e2e2e2;}.cls-7{fill:#c1c1c1;}.cls-8{fill:#cdcdcd;}.cls-9{fill:#d8d8d8;}.cls-10{fill:#bebebe;}.cls-11{fill:#d0d0d0;}.cls-12{fill:#cfcfcf;}.cls-13{fill:#c7c7c7;}.cls-14{fill:#ddd;}.cls-15{fill:#d2d2d2;}.cls-16{fill:#c4c4c4;}.cls-17{fill:#dcdcdc;}.cls-18{fill:#d3d3d3;}.cls-19{fill:#d4d4d4;}.cls-20{fill:#e0e0e0;}.cls-21{fill:#d7d7d7;}.cls-22{fill:#c5c5c5;}.cls-23{fill:#c6c6c6;}.cls-24{fill:#e1e1e1;}.cls-25{fill:#33c5e8;}.cls-26{fill:#4d4d4d;}</style><clipPath id="clippath"><rect class="cls-1" x="1.31" y="1.31" width="47.37" height="47.37"/></clipPath></defs><g class="cls-2"><g><path class="cls-26" d="m41.88,15.38c-.13,0-.24-.07-.31-.17l-5.34-9.27c-.07-.11-.19-.18-.31-.17H14.11c-.13,0-.24.07-.31.17l-5.55,9.62h0l-5.35,9.27c-.06.11-.06.24,0,.35l5.35,9.26,5.55,9.62c.06.11.18.18.31.17h21.81c.13,0,.25-.07.31-.17l5.35-9.26c.06-.11.18-.18.31-.17h6.66c.22,0,.4-.18.4-.4h0V15.78c0-.22-.18-.4-.4-.4h-6.66,0Z"/><path class="cls-1" d="m48.54,15.38H8.56c-.13,0-.24.07-.31.17h0s-.2.35-.2.35l-2.45,4.24-2.7,4.68c-.06.11-.06.24,0,.35l.59,1.02,4.76,8.25c.06.11.18.18.31.18h39.99c.22,0,.39-.18.39-.4V15.78c0-.22-.18-.4-.4-.4h0Z"/><path class="cls-20" d="m9.47,24.03l-5.97,2.17-.59-1.02c-.06-.11-.06-.24,0-.35l2.7-4.68,3.86,3.89Z"/><polygon class="cls-13" points="45 25.76 48.94 25.2 48.94 29.76 45 25.76"/><path class="cls-7" d="m45,25.76l3.94,4v4.46c0,.22-.17.39-.39.4h-4.58l1.04-8.86Z"/><polygon class="cls-23" points="45 25.76 43.97 34.62 38.46 34.62 36.79 30.6 45 25.76"/><polygon class="cls-8" points="45 25.76 48.94 20.97 48.94 25.2 45 25.76"/><path class="cls-15" d="m48.94,15.78v5.19l-3.94,4.79-2.97-10.38h6.51c.22,0,.4.18.4.4h0Z"/><polygon class="cls-22" points="38.46 34.62 35.55 34.62 34.8 33.54 36.79 30.6 38.46 34.62"/><polygon class="cls-19" points="45 25.76 34.11 21.15 39.84 15.38 42.04 15.38 45 25.76"/><path class="cls-12" d="m34.11,21.15l2.68,9.45,8.22-4.84-10.9-4.61Z"/><polygon class="cls-10" points="35.55 34.62 34.76 34.62 34.8 33.54 35.55 34.62"/><polygon class="cls-9" points="39.84 15.38 34.11 21.15 33.07 15.99 35.28 15.38 39.84 15.38"/><path class="cls-18" d="m34.11,21.15l-13.23,3.05,13.92,9.33-.69-12.39Z"/><path class="cls-12" d="m34.11,21.15l.69,12.39,1.99-2.94-2.68-9.45Z"/><path class="cls-9" d="m33.07,15.99l-12.19,8.22,13.23-3.05-1.04-5.16Z"/><polygon class="cls-21" points="20.88 24.2 15.15 34.62 11.88 34.62 9.47 24.03 20.88 24.2"/><path class="cls-24" d="m15,15.38l-5.54,8.65-1.41-8.13.2-.34h0c.07-.11.18-.18.31-.18h6.44Z"/><path class="cls-21" d="m11.88,34.62h-3.32c-.13,0-.25-.07-.31-.19l-4.76-8.24,5.97-2.17,2.41,10.59Z"/><polygon class="cls-5" points="9.47 24.03 5.61 20.14 8.05 15.9 9.47 24.03"/><polygon class="cls-14" points="26.92 15.38 23.11 15.38 17.26 15.38 20.88 24.2 33.07 15.99 29.4 15.38 26.92 15.38"/><polygon class="cls-14" points="15.76 15.38 15 15.38 9.47 24.03 20.88 24.2 17.26 15.38 15.76 15.38"/><polygon class="cls-16" points="32.15 34.62 34.27 34.62 34.76 34.62 34.8 33.54 32.15 34.62"/><polygon class="cls-12" points="34.8 33.54 20.88 24.2 23.39 34.62 26.92 34.62 32.15 34.62 34.8 33.54"/><polygon class="cls-11" points="15.15 34.62 15.76 34.62 23.11 34.62 23.39 34.62 20.88 24.2 15.15 34.62"/><polygon class="cls-17" points="33.11 15.38 33.07 15.99 35.28 15.38 34.27 15.38 33.11 15.38"/><polygon class="cls-6" points="29.4 15.38 33.07 15.99 32.73 15.38 29.4 15.38"/><polygon class="cls-24" points="32.73 15.38 33.07 15.99 33.11 15.38 32.73 15.38"/><path class="cls-3" d="m23.07,15.55l-5.38,9.31s-.04.1-.04.15h-3.75l7.38-12.78s.08.06.11.11h.01s1.67,2.92,1.67,2.92c.05.09.05.21,0,.3Z"/><path class="cls-25" d="m23.06,34.8l-1.67,2.89s-.07.08-.11.11l-7.39-12.78h3.76c0,.05.01.1.04.15,0,0,0,.01,0,.02l5.37,9.31c.06.1.06.22,0,.32Z"/><path class="cls-4" d="m21.28,12.22l-7.38,12.78h0l-1.85,3.21-1.77-3.06s-.04-.09-.04-.15c0-.05.01-.11.04-.15l1.79-3.09,5.44-9.41c.06-.1.16-.16.28-.16h3.33c.06,0,.11.01.16.04Z"/><path class="cls-3" d="m21.28,37.8s-.1.04-.16.04h-3.34c-.12,0-.22-.06-.28-.16l-4.97-8.6-.49-.85,1.85-3.21,7.38,12.78Z"/><path class="cls-4" d="m36.12,25.01l-7.38,12.79s-.08-.06-.11-.11h0s-1.68-2.91-1.68-2.91c-.05-.09-.05-.2,0-.3l5.37-9.31s.05-.1.05-.16h3.76Z"/><path class="cls-3" d="m39.77,25.01c0,.06-.02.11-.05.16l-7.23,12.52c-.06.09-.16.15-.27.15h-3.33c-.06,0-.11-.01-.16-.04l7.38-12.79,1.85-3.2,1.76,3.04s.04.1.05.16Z"/><path class="cls-3" d="m36.12,25.01h-3.75c0-.06-.02-.11-.05-.16l-5.37-9.3c-.06-.1-.06-.22,0-.32l1.67-2.9s.07-.08.11-.11l7.38,12.78Z"/><path class="cls-25" d="m37.97,21.8h0l-1.85,3.2-7.38-12.78s.11-.04.16-.04h3.33c.11,0,.21.06.27.15l5.47,9.47Z"/></g></g></svg>