<svg xmlns="http://www.w3.org/2000/svg" width="100" height="100" fill="none" viewBox="0 0 100 100"><path fill="#4D4D4D" d="M84.6621 28.8503C84.3801 28.8503 84.1414 28.6984 83.9896 28.4815L72.4048 8.37086C72.253 8.13222 71.9926 7.98036 71.7323 8.00206H24.417C24.1349 8.00206 23.8963 8.15392 23.7444 8.37086L11.7041 29.2408L0.0976245 49.3514C-0.0325415 49.5901 -0.0325415 49.8721 0.0976245 50.1107L11.7041 70.1997L23.7444 91.0696C23.8746 91.3083 24.1349 91.4601 24.417 91.4384H71.7323C72.0143 91.4384 72.2746 91.2866 72.4048 91.0696L84.0113 70.9807C84.1414 70.742 84.4018 70.5902 84.6838 70.6119H99.1322C99.6095 70.6119 100 70.2214 100 69.7441V29.7181C100 29.2408 99.6095 28.8503 99.1322 28.8503H84.6838H84.6621Z"/><path fill="#E0E0E0" d="M14.3506 47.6159L1.39907 52.3236L0.119109 50.1108C-0.0110571 49.8722 -0.0110571 49.5901 0.119109 49.3515L5.97658 39.1985L14.3506 47.6376V47.6159Z"/><path fill="#C7C7C7" d="M91.4297 51.3689L99.9772 50.1541V60.0467L91.4297 51.3689Z"/><path fill="#C1C1C1" d="M91.4308 51.3691L99.9784 60.0468V69.7225C99.9784 70.1998 99.6096 70.5686 99.1323 70.5902H89.1963L91.4525 51.3691H91.4308Z"/><path fill="#C6C6C6" d="M91.4321 51.3691L89.1976 70.5902H77.244L73.6211 61.8691L91.4321 51.3691Z"/><path fill="#CDCDCD" d="M91.4297 51.369L99.9772 40.9774V50.1541L91.4297 51.369Z"/><path fill="#D2D2D2" d="M99.98 29.7181V40.9775L91.4325 51.3691L84.9893 28.8503H99.1123C99.5895 28.8503 99.98 29.2408 99.98 29.7181Z"/><path fill="#C5C5C5" d="M77.2429 70.5901H70.9298L69.3027 68.2472L73.6199 61.869L77.2429 70.5901Z"/><path fill="#D4D4D4" d="M91.4327 51.3691L67.8076 41.368L80.2385 28.8503H85.0112L91.4327 51.3691Z"/><path fill="#CFCFCF" d="M67.8076 41.368L73.6217 61.8691L91.4544 51.3691L67.8076 41.368Z"/><path fill="#BEBEBE" d="M70.9277 70.5903H69.2139L69.3006 68.2473L70.9277 70.5903Z"/><path fill="#D8D8D8" d="M80.2359 28.8503L67.805 41.368L65.5488 30.1737L70.3433 28.8503H80.2359Z"/><path fill="#D3D3D3" d="M67.8061 41.368L39.1045 47.9848L69.303 68.2256L67.8061 41.3463V41.368Z"/><path fill="#CFCFCF" d="M67.8076 41.368L69.3045 68.2473L73.6217 61.8691L67.8076 41.368Z"/><path fill="#D8D8D8" d="M65.5499 30.1736L39.1045 48.0064L67.8061 41.3896L65.5499 30.1953V30.1736Z"/><path fill="#D7D7D7" d="M39.1048 47.9848L26.6739 70.5903H19.5799L14.3516 47.616L39.1048 47.9848Z"/><path fill="#E1E1E1" d="M26.3481 28.8503L14.3294 47.6159L11.2705 29.9784L11.7044 29.2408C11.8563 29.0022 12.0949 28.8503 12.3769 28.8503H26.3481Z"/><path fill="#D7D7D7" d="M19.5785 70.5902H12.376C12.094 70.5902 11.8336 70.4384 11.7035 70.178L1.37695 52.3019L14.3285 47.5942L19.5568 70.5685L19.5785 70.5902Z"/><path fill="#E3E3E3" d="M14.3525 47.6159L5.97852 39.1768L11.2719 29.9785L14.3525 47.6159Z"/><path fill="#DDD" d="M52.2057 28.8503H43.9402H31.249L39.1024 47.9847L65.5478 30.1737L57.5859 28.8503H52.2057Z"/><path fill="#DDD" d="M27.9973 28.8503H26.3485L14.3516 47.6159L39.1048 47.9847L31.2514 28.8503H27.9973Z"/><path fill="#C4C4C4" d="M63.5537 70.5903H68.1529H69.2159L69.3027 68.2473L63.5537 70.5903Z"/><path fill="#CFCFCF" d="M69.303 68.2471L39.1045 47.9846L44.5498 70.5901H52.2079H63.554L69.303 68.2471Z"/><path fill="#D0D0D0" d="M26.6729 70.5901H27.9962H43.9415H44.549L39.1037 47.9846L26.6729 70.5901Z"/><path fill="#DCDCDC" d="M65.6356 28.8503L65.5488 30.1737L70.3433 28.8503H68.1521H65.6356Z"/><path fill="#E2E2E2" d="M57.5879 28.8503L65.5497 30.1737L64.8121 28.8503H57.5879Z"/><path fill="#E1E1E1" d="M64.8115 28.8503L65.5491 30.1737L65.6359 28.8503H64.8115Z"/><path fill="#00B7E2" d="M43.8546 29.2191L32.1831 49.4165C32.1831 49.4165 32.0963 49.6334 32.0963 49.7419H23.9609L39.9714 22.0165C39.9714 22.0165 40.1449 22.1467 40.21 22.2552H40.2317L43.8546 28.5899C43.9631 28.7852 43.9631 29.0455 43.8546 29.2408V29.2191Z"/><path fill="#33C5E8" d="M43.8341 70.9807L40.2112 77.2504C40.2112 77.2504 40.0593 77.4239 39.9725 77.489L23.9404 49.7637H32.0975C32.0975 49.8721 32.1192 49.9806 32.1843 50.0891C32.1843 50.0891 32.1843 50.1108 32.1843 50.1325L43.8341 70.3299C43.9643 70.5468 43.9643 70.8072 43.8341 71.0241V70.9807Z"/><path fill="#0089A9" d="M39.971 21.9948L23.9606 49.7201L19.9472 56.684L16.1073 50.0455C16.1073 50.0455 16.0205 49.8503 16.0205 49.7201C16.0205 49.6116 16.0422 49.4815 16.1073 49.3947L19.9906 42.6912L31.7923 22.2768C31.9225 22.0599 32.1394 21.9297 32.3997 21.9297H39.6239C39.7541 21.9297 39.8626 21.9514 39.971 22.0165V21.9948Z"/><path fill="#00B7E2" d="M39.9733 77.489C39.9733 77.489 39.7564 77.5758 39.6262 77.5758H32.3803C32.1199 77.5758 31.903 77.4456 31.7728 77.2287L20.9908 58.5716L19.9277 56.7275L23.9412 49.7637L39.9516 77.489H39.9733Z"/><path fill="#0089A9" d="M72.1645 49.742L56.1541 77.489C56.1541 77.489 55.9805 77.3589 55.9155 77.2504L52.2708 70.9374C52.1623 70.7421 52.1623 70.5035 52.2708 70.2865L63.9207 50.0891C63.9207 50.0891 64.0291 49.8722 64.0291 49.742H72.1862H72.1645Z"/><path fill="#00B7E2" d="M80.0843 49.7418C80.0843 49.872 80.0409 49.9804 79.9759 50.0889L64.2909 77.2502C64.1607 77.4455 63.9438 77.5756 63.7051 77.5756H56.4809C56.3507 77.5756 56.2423 77.5539 56.1338 77.4888L72.1442 49.7418L76.1577 42.7996L79.9759 49.3947C79.9759 49.3947 80.0626 49.6116 80.0843 49.7418Z"/><path fill="#00B7E2" d="M72.1681 49.7419H64.0327C64.0327 49.6118 63.9893 49.5033 63.9242 49.3948L52.2744 29.2191C52.1442 29.0021 52.1442 28.7418 52.2744 28.5249L55.8973 22.2335C55.8973 22.2335 56.0492 22.06 56.136 21.9949L72.1464 49.7202L72.1681 49.7419Z"/><path fill="#33C5E8" d="M76.1791 42.778L72.1657 49.7201L56.1553 21.9948C56.1553 21.9948 56.3939 21.908 56.5024 21.908H63.7266C63.9652 21.908 64.1822 22.0382 64.3123 22.2334L76.1791 42.778Z"/></svg>