<svg xmlns="http://www.w3.org/2000/svg" width="100" height="100" fill="none" viewBox="0 0 100 100"><g clip-path="url(#clip0_764_109786)"><g clip-path="url(#clip1_764_109786)"><path fill="#C02126" d="M50.1031 31.1812C39.65 31.1812 31.15 39.6703 31.15 50.0875C31.15 60.5047 39.6547 68.9937 50.1031 68.9937C60.5516 68.9937 69.0562 60.5047 69.0562 50.0875C69.0562 39.6703 60.5516 31.1812 50.1031 31.1812ZM20.5953 50.0875C20.5953 33.825 33.8141 20.6312 50.1031 20.6312C66.3922 20.6312 79.6094 33.8406 79.6094 50.1016C79.6094 51.2266 79.5062 52.25 79.4062 53.2734C79.2031 56.1375 81.25 58.2844 84.1187 58.2844C88.9344 58.2844 89.4313 52.0453 89.4313 50C89.4313 28.2141 71.8062 10.625 49.9844 10.625C28.1625 10.625 10.5531 28.2141 10.5531 50C10.5531 71.7859 28.1766 89.375 50 89.375C61.5625 89.375 71.9266 84.3641 79.2031 76.4875L87.2969 83.2375C78.1781 93.4656 64.8594 99.9094 50 99.9094C22.3359 99.9125 0 77.5125 0 50C0 22.3844 22.4375 0.0874939 50 0.0874939C77.6641 0.0874939 100 22.4875 100 50C100 61.0469 94.6875 70.0469 84.1187 70.0469C79.4062 70.0469 76.6391 67.8984 75 65.5469C69.775 73.9344 60.5531 79.4562 49.8969 79.4562C33.8109 79.5578 20.5938 66.3625 20.5938 50.1031L20.5953 50.0875ZM50.1031 41.3937C54.9188 41.3937 58.8125 45.2797 58.8125 49.9844C58.8125 54.7922 54.9188 58.6781 50.1031 58.6781C45.2875 58.6781 41.3938 54.8078 41.3938 50C41.4969 45.2969 45.2875 41.4094 50.1031 41.4094V41.3937Z"/></g></g><defs><clipPath id="clip0_764_109786"><rect width="100" height="100" fill="#fff"/></clipPath><clipPath id="clip1_764_109786"><rect width="100" height="100" fill="#fff"/></clipPath></defs></svg>