<svg width="100" height="100" viewBox="0 0 100 100" fill="none" xmlns="http://www.w3.org/2000/svg">
<path d="M46.0214 0.0356346C27.143 1.427 -7.23431 42.8539 5.92945 53.9689L9.21687 56.7599C8.32946 59.1389 8.01803 61.697 8.3055 64.2217C9.05543 71.6585 16.3187 77.6808 23.343 77.6725C36.2 107.307 83.0057 107.353 95.1211 78.3398C95.5044 77.3399 97.1473 72.8504 97.1473 68.8925C97.1473 64.9346 94.8985 63.2697 93.4611 63.2697C92.7154 60.6575 92.2333 60.3569 91.3292 59.1279C91.875 58.3113 94.7328 53.7805 90.6457 49.4934C88.3292 47.0604 83.7138 45.3824 82.1098 44.9366C81.7765 42.3994 83.1455 31.8609 77.317 26.4489C81.9457 21.6536 84.6569 16.3716 84.6486 11.8346C84.6361 3.11462 74.1111 0.473155 60.9124 5.93509L58.1132 7.12312C58.1007 7.11062 53.0536 2.16914 52.9787 2.10248C51.0981 0.462024 48.7183 -0.163132 46.0214 0.0356346ZM47.7383 3.64041C48.2791 3.66661 48.7926 3.74801 49.2681 3.87639C50.5055 4.22635 54.598 8.97026 54.598 8.97026C54.598 8.97026 46.9922 13.1858 39.9429 19.0685C30.4397 26.3886 23.2648 37.0214 18.9652 48.5577C15.5906 49.2159 12.608 51.132 10.7873 53.7817C9.69996 52.8735 7.67504 51.1081 7.3209 50.4374C4.42537 44.9046 10.4885 34.1789 14.7339 28.1171C24.5688 14.0794 39.6262 3.24737 47.7383 3.64041ZM61.0101 17.2621C61.1059 17.2537 61.1807 17.3331 61.1891 17.4248C61.1932 17.4831 61.1698 17.5338 61.124 17.5713C60.4824 18.067 59.9028 18.6506 59.407 19.2963C59.3529 19.3713 59.3727 19.47 59.4477 19.5242C59.4769 19.545 59.5079 19.5526 59.5454 19.5567C62.2867 19.5776 66.1464 20.5367 68.6753 21.9491C68.8461 22.0449 68.7286 22.3732 68.5369 22.3315C53.0469 18.7819 41.1214 26.4667 38.5758 28.3123C38.4967 28.3623 38.398 28.3345 38.348 28.2554C38.3063 28.1929 38.3103 28.1184 38.3561 28.0601H38.3399C42.0686 23.7522 46.6614 20.0088 50.7735 17.9049C50.8526 17.8591 50.9473 17.8827 50.9932 17.9619C51.0223 18.0118 51.0223 18.0704 50.9932 18.1246C50.6682 18.7162 50.0377 19.9818 49.8377 20.9401C49.8169 21.0317 49.8762 21.1227 49.9679 21.1435C50.0137 21.156 50.0606 21.1441 50.0981 21.1191C52.6562 19.3734 57.1105 17.5037 61.0101 17.2621ZM74.2655 30.6721C74.7811 30.7575 75.2803 30.9461 75.7302 31.2336C77.9592 32.7126 78.2663 36.2945 78.3829 38.9151C78.4496 40.4108 78.6297 44.0336 78.6922 45.0668C78.8338 47.4416 79.4599 47.7792 80.7264 48.1834C81.4389 48.4167 82.0911 48.5919 83.0618 48.8669C86.0032 49.6918 87.1205 50.9613 88.2371 52.0404C88.8037 52.5987 89.1782 53.3198 89.2949 54.1072C89.6407 56.6403 87.9493 59.3379 81.825 62.1793C71.4219 67.008 60.9601 65.3934 59.4477 65.2226C54.9607 64.6185 52.4029 70.4228 55.0943 74.3932C60.1355 81.8341 82.3492 78.8485 88.7985 69.6411C88.9527 69.4203 88.8233 69.2799 88.6358 69.4133C79.3326 75.7793 67.0287 77.9233 60.0336 75.2069C58.9712 74.7945 56.7484 73.7753 56.4776 71.4964C66.1891 74.5002 72.2882 71.6591 72.2882 71.6591C72.2882 71.6591 72.7411 71.0312 72.1661 71.0895C72.1661 71.0895 64.2053 72.2648 56.6811 69.5109C58.0643 65.0197 62.6902 70.8679 78.147 66.4351C81.5508 65.4602 85.4051 63.973 88.888 61.2191C89.9171 62.2898 90.7891 64.3409 91.0932 66.1991C91.9098 66.0533 94.2651 66.0774 93.6402 70.227C92.9069 74.6515 91.0331 78.2459 87.8709 81.5539C85.8961 83.6954 83.5421 85.4539 80.9299 86.7455C79.4759 87.5079 77.9638 88.1453 76.4056 88.6577C64.4902 92.549 52.2817 88.271 48.3405 79.0802C48.0197 78.3803 47.7595 77.6534 47.5511 76.9076C45.8722 70.8499 47.3004 63.5803 51.7499 59.0058C52.0249 58.7142 52.3033 58.3731 52.3033 57.9398C52.2658 57.569 52.1136 57.2183 51.872 56.9308C50.3138 54.6769 44.93 50.8275 46.0132 43.3824C46.7923 38.0371 51.4646 34.2716 55.8267 34.4966L56.9415 34.5617C58.8288 34.6742 60.4772 34.9142 62.0353 34.9767C64.6392 35.0892 66.9788 34.7134 69.7494 32.4054C70.6868 31.6263 71.4366 30.9497 72.7032 30.7372C73.2198 30.6081 73.75 30.5867 74.2655 30.6721ZM73.4274 39.7044C72.04 39.9294 71.9877 41.6545 72.4835 44.0334C72.7626 45.3708 73.2597 46.5068 73.818 47.215C74.5054 47.1275 75.1974 47.1275 75.8848 47.215C76.2556 46.361 76.3239 44.8967 75.9906 43.301C75.4948 40.9263 74.8148 39.4794 73.4274 39.7044ZM57.5192 46.1816C56.3438 46.3233 55.2008 46.7607 54.2155 47.4836C53.5489 47.971 52.9195 48.6457 53.0112 49.054C53.1987 49.8873 55.2442 48.4518 58.0481 48.281C59.6063 48.1852 60.8973 48.6696 61.8889 49.1029C62.8846 49.5486 63.4944 49.8329 63.736 49.583C64.1568 49.1497 62.9593 47.4866 61.0345 46.6617C59.9054 46.193 58.6946 46.04 57.5192 46.1816ZM75.4373 49.4934V49.5016C73.7333 49.4724 73.668 53.0202 75.3803 53.0494C77.0926 53.0786 77.1538 49.5268 75.4373 49.4934ZM59.8871 50.2502C57.8665 50.5668 56.5429 51.7003 56.8845 52.4961C57.0845 52.5711 57.1442 52.6753 58.04 52.317C59.369 51.8171 60.8103 51.6691 62.2144 51.8858C62.8643 51.9608 63.1712 52.005 63.3129 51.78C63.6378 51.2842 62.0452 49.9961 59.8871 50.2502ZM69.6924 51.8776C69.2998 51.9235 68.9533 52.1096 68.7648 52.4961C68.0084 54.0338 71.1823 55.5768 71.9464 54.0584C72.512 52.9116 70.8704 51.7402 69.6924 51.8776ZM21.7237 51.9997C25.7658 52.1272 29.725 54.9817 30.6746 61.1133C31.687 67.7127 29.6322 74.1405 23.0745 73.9864L23.0826 73.9945C17.9998 73.857 12.513 69.28 11.9672 63.8556C11.1939 56.1759 16.5268 51.8357 21.7237 51.9997ZM21.4308 55.8323C19.9335 55.7875 18.4938 56.4542 17.6877 57.3458C15.7462 59.4831 15.7438 62.5874 16.5729 62.7082C17.5228 62.8332 17.4833 61.2705 18.2166 60.1206C19.0748 58.7957 20.8464 58.4161 22.1713 59.2743C22.1796 59.2785 22.1873 59.2823 22.1957 59.2906C24.7787 60.9821 22.496 63.2414 22.7002 65.662C23.0085 69.3783 26.8052 69.3053 27.5093 67.6638C27.6009 67.4971 27.5813 67.293 27.4604 67.143C27.4688 67.343 27.6157 66.8616 26.72 67.0616L26.7118 67.0698C26.416 67.1406 25.3739 67.3989 24.824 66.549C23.6658 64.7658 27.2994 62.0115 25.4912 58.5827C24.4788 56.637 22.928 55.8771 21.4308 55.8323Z" fill="black"/>
</svg>
