<svg width="100" height="100" viewBox="0 0 100 100" fill="none" xmlns="http://www.w3.org/2000/svg">
<path d="M28.2609 22C20.7656 22 13.5774 24.9775 8.27742 30.2774C2.97748 35.5774 0 42.7656 0 50.2609C0 57.7561 2.97748 64.9444 8.27742 70.2443C13.5774 75.5443 20.7656 78.5217 28.2609 78.5217C35.7561 78.5217 42.9444 75.5443 48.2443 70.2443C53.5443 64.9444 56.5217 57.7561 56.5217 50.2609C56.5217 42.7656 53.5443 35.5774 48.2443 30.2774C42.9444 24.9775 35.7561 22 28.2609 22ZM72.8261 24.1739C65.0217 24.1739 58.6957 35.8543 58.6957 50.2609C58.6957 52.963 58.9174 55.5674 59.3304 58.0174C59.8804 61.2848 60.7696 64.2761 61.9217 66.8543C62.4978 68.1435 63.1391 69.3283 63.837 70.3913C65.2326 72.5174 66.8543 74.1587 68.6239 75.1761C69.9522 75.937 71.363 76.3478 72.8261 76.3478C74.2891 76.3478 75.7 75.937 77.0283 75.1761C78.7978 74.1587 80.4196 72.5174 81.8152 70.3913C82.513 69.3283 83.1543 68.1435 83.7304 66.8543C84.8826 64.2783 85.7717 61.2848 86.3217 58.0174C86.7348 55.5674 86.9565 52.963 86.9565 50.2609C86.9565 35.8543 80.6304 24.1739 72.8261 24.1739ZM94.5652 26.3478C94.0022 26.3478 93.4587 26.7239 92.95 27.4239C92.6087 27.8891 92.2826 28.4978 91.9761 29.2348C91.8217 29.6022 91.6717 30.0022 91.5283 30.4326C91.2391 31.2913 90.9696 32.2717 90.7239 33.3522C90.2326 35.5152 89.8348 38.0935 89.5587 40.9543C89.4217 42.3848 89.3152 43.887 89.2413 45.4435C89.1674 46.9978 89.1304 48.6109 89.1304 50.2609C89.1304 51.9109 89.1674 53.5239 89.2413 55.0804C89.313 56.637 89.4196 58.1391 89.5587 59.5696C89.8348 62.4304 90.2326 65.0065 90.7239 67.1717C90.9696 68.2543 91.2391 69.2326 91.5283 70.0913C91.6717 70.5217 91.8217 70.9217 91.9761 71.2891C92.2848 72.0261 92.6109 72.6348 92.95 73.1C93.4587 73.7978 94.0022 74.1739 94.5652 74.1739C97.5674 74.1739 100 63.4674 100 50.2609C100 37.0543 97.5674 26.3478 94.5652 26.3478Z" fill="black"/>
</svg>
