<svg width="100" height="100" viewBox="0 0 100 100" fill="none" xmlns="http://www.w3.org/2000/svg">
<path fill-rule="evenodd" clip-rule="evenodd" d="M25.3483 47.6374C33.756 47.6374 40.5965 41.2463 40.5965 33.3898C40.5965 25.5337 33.756 19.1427 25.3483 19.1427C17.6245 19.1427 11.1229 24.5371 10.2122 31.6965C10.197 31.9369 10.1728 32.1782 10.1406 32.4204C10.1128 32.7962 10.1003 33.1049 10.1003 33.3898C10.1003 41.2463 16.9406 47.6374 25.3483 47.6374ZM74.649 47.6374C83.0562 47.6374 89.897 41.2463 89.897 33.3898C89.897 33.0937 89.8834 32.7798 89.8563 32.404C89.8241 32.1692 89.8009 31.9354 89.7862 31.7021C88.8781 24.5399 82.3755 19.1427 74.649 19.1427C66.2414 19.1427 59.4016 25.5337 59.4016 33.3898C59.4016 41.2463 66.2414 47.6374 74.649 47.6374ZM96.7097 21.9582C97.9342 21.9582 99.0492 22.5874 99.62 23.599C100.029 24.3258 100.111 25.1565 99.851 25.9404C99.5905 26.7238 99.0194 27.3657 98.2423 27.748C97.0055 28.3562 96.2942 29.6246 96.3349 31.1464C96.4245 31.9106 96.4703 32.665 96.4703 33.3898C96.4703 44.6333 86.6815 53.78 74.649 53.78C62.6168 53.78 52.8275 44.6333 52.8275 33.3898C52.8275 32.2986 52.9263 31.1862 53.1213 30.0791C52.4778 28.6645 51.2747 27.7649 49.9987 27.7649C48.7458 27.7649 47.5183 28.6851 46.876 30.0809C47.0713 31.1876 47.1701 32.299 47.1701 33.3898C47.1701 44.6333 37.3805 53.78 25.3483 53.78C13.3156 53.78 3.52692 44.6333 3.52692 33.3898C3.52692 32.6668 3.57267 31.9111 3.66272 31.1427C3.7019 29.6227 2.99083 28.3553 1.7554 27.748C0.151359 26.959 -0.466174 25.0979 0.377946 23.5995C0.947528 22.5874 2.06326 21.9582 3.28827 21.9582C3.81758 21.9582 4.34652 22.0809 4.81727 22.3124C5.37602 22.5874 5.90464 22.9145 6.39876 23.2898C10.2614 16.9962 17.5446 13 25.3483 13C33.2654 13 40.6086 17.0881 44.4351 23.5203C46.0825 22.3653 48.0146 21.7412 49.9987 21.7412C51.9835 21.7412 53.9153 22.3653 55.5622 23.5203C59.389 17.0885 66.7312 13 74.649 13C82.4528 13 89.7359 16.9967 93.5986 23.2898C94.0924 22.9145 94.6214 22.5874 95.1805 22.3124C95.6514 22.0809 96.1804 21.9582 96.7097 21.9582ZM94.7559 67.2224C96.2792 68.7297 97.0715 70.6226 97.189 73.0197C97.287 75.0237 96.1841 77.5718 94.4439 79.3603C92.3209 81.3759 89.5022 83.109 86.2719 84.3914C82.3173 86.0383 78.0771 86.8757 73.6792 86.8757C64.4479 86.8757 55.6603 82.9967 49.9992 76.4613C44.3388 82.9967 35.5511 86.8757 26.3192 86.8757C21.9212 86.8757 17.6795 86.0381 13.7115 84.3855C10.4963 83.1085 7.68171 81.3791 5.58235 79.3879C3.81856 77.576 2.71216 75.0237 2.81008 73.0197C2.92758 70.6231 3.71825 68.7317 5.22785 67.237C7.0307 65.5283 9.40121 64.5259 11.9124 64.4054C13.6041 64.3244 15.2645 64.6613 16.7022 65.3669C16.9388 65.4832 17.12 65.6906 17.1982 65.9376C17.2756 66.1812 17.2503 66.44 17.127 66.6654C16.8958 67.0895 16.337 67.2838 15.8764 67.0995C15.1973 66.8279 14.4564 66.7117 13.6831 66.7552C11.0984 66.9006 9.01378 68.7997 9.0357 70.9881C9.05767 73.1094 11.1158 74.757 13.6663 74.6065C14.4561 74.5622 15.2358 74.3472 15.9221 73.9844C15.9477 73.9709 16.01 73.9428 16.0369 73.9327L16.2406 73.8534C18.7105 72.6143 21.6783 70.051 24.7572 67.3087C29.1697 63.3789 33.3018 60.6001 36.707 59.2726C36.8402 59.2194 36.9803 59.167 37.1212 59.1158L37.3522 59.0337C37.4429 59.0032 37.5226 58.9766 37.5997 58.9522C38.7821 58.5724 40.0138 58.3498 41.2573 58.2897C41.4703 58.2791 41.6834 58.2747 41.9085 58.2747H42.0127L42.0432 58.2735C42.1225 58.271 42.1791 58.2695 42.2363 58.2695C45.3949 58.2695 48.3242 59.7586 49.9992 62.1399C51.6749 59.7586 54.6047 58.2695 57.763 58.2695C57.8273 58.2695 57.8911 58.2712 57.9546 58.2737L58.0174 58.2752L58.0832 58.2747C58.315 58.2747 58.5292 58.2791 58.7418 58.2897C59.9855 58.3498 61.2182 58.5729 62.4045 58.9537C62.4762 58.9766 62.5567 59.0034 62.6382 59.031L62.8722 59.1138C63.0182 59.1662 63.1584 59.2199 63.2975 59.2749C66.697 60.5994 70.8282 63.378 75.2418 67.3087C78.3201 70.0505 81.2874 72.6141 83.7576 73.8534L83.9714 73.9362C83.997 73.946 84.0586 73.9741 84.0825 73.9866C84.7632 74.3472 85.5429 74.5622 86.3318 74.6065C88.8865 74.7521 90.9415 73.1094 90.9629 70.9881C90.9851 68.7997 88.9005 66.9006 86.3165 66.7552C85.5434 66.7117 84.8021 66.8279 84.1214 67.0995C83.6588 67.2838 83.105 67.0897 82.8727 66.6668C82.7483 66.44 82.7232 66.1812 82.8005 65.9376C82.8786 65.6906 83.0601 65.4832 83.2975 65.3669C84.7336 64.6616 86.3992 64.3254 88.0851 64.4054C90.5979 64.5259 92.9664 65.5268 94.7559 67.2224ZM31.0712 22.9287C26.4512 20.6347 20.647 21.3408 16.8019 24.6385C15.1302 26.0718 13.8883 27.9268 13.2523 29.9626C12.9221 31.0201 12.7556 32.1207 12.7556 33.2227C12.7556 34.2067 13.6054 35.1138 14.7293 34.6954C15.4597 34.4237 15.6028 33.7603 15.7422 33.114C15.7826 32.9267 15.8227 32.7408 15.8767 32.5663C16.1577 31.6573 16.5788 30.7872 17.1162 29.986C18.1895 28.3859 19.7241 27.066 21.5149 26.1926C23.6664 25.1426 26.1795 24.7472 28.5783 25.1056C28.8111 25.1404 29.0581 25.2035 29.3101 25.2678C30.109 25.4718 30.9584 25.6888 31.5732 25.0597C32.2268 24.3906 31.9662 23.2806 31.0712 22.9287ZM66.017 24.6385C69.8625 21.3408 75.6664 20.6347 80.2867 22.9287C81.1815 23.2806 81.442 24.3906 80.7879 25.0597C80.1734 25.6888 79.324 25.4718 78.525 25.2678C78.2733 25.2035 78.0263 25.1404 77.7936 25.1056C75.3945 24.7472 72.8812 25.1426 70.7297 26.1926C68.9389 27.066 67.4048 28.3859 66.332 29.986C65.7939 30.7872 65.3727 31.6573 65.0917 32.5663C65.0378 32.7406 64.9979 32.9264 64.9575 33.1135C64.8183 33.7599 64.6752 34.4236 63.9445 34.6954C62.8205 35.1138 61.9706 34.2067 61.9706 33.2227C61.9706 32.1207 62.1375 31.0201 62.4678 29.9626C63.1035 27.9268 64.3452 26.0718 66.017 24.6385Z" fill="black"/>
</svg>
