<svg width="100" height="100" viewBox="0 0 100 100" fill="none" xmlns="http://www.w3.org/2000/svg">
<path d="M12.4396 79.9556C10.229 79.9603 8.05678 79.3783 6.14479 78.2688C4.23279 77.1594 2.64959 75.5621 1.5569 73.6405C0.480951 71.7324 -0.0556568 69.5676 0.0045648 67.3778C0.0647865 65.1881 0.719568 63.056 1.89877 61.2099L24.31 26.0168C25.457 24.1254 27.0855 22.5723 29.0291 21.5162C30.9729 20.4601 33.162 19.9389 35.373 20.0057C37.5824 20.0586 39.7381 20.6976 41.6194 21.8573C43.5007 23.0169 45.0401 24.6556 46.08 26.6056C48.1692 30.556 47.9081 35.3089 45.4059 39.0171L23.009 74.2103C21.8731 75.9802 20.309 77.4346 18.4614 78.4389C16.6137 79.4432 14.5425 79.965 12.4396 79.9556Z" fill="#F62B54"/>
<path d="M50.8799 79.9546C46.3596 79.9546 42.2003 77.5379 40.0161 73.6538C38.9427 71.7509 38.4073 69.5917 38.4675 67.4077C38.5277 65.2237 39.1813 63.0974 40.358 61.2565L62.7264 26.1441C63.8566 24.2261 65.4793 22.6454 67.4263 21.5658C69.3732 20.4863 71.5736 19.9473 73.7991 20.0048C78.3572 20.1045 82.4881 22.6543 84.5773 26.6427C86.6522 30.6311 86.3484 35.4124 83.7702 39.1112L61.4065 74.2236C60.2743 75.986 58.7163 77.4347 56.8766 78.4363C55.037 79.4379 52.9746 79.9601 50.8799 79.9546Z" fill="#FFCC00"/>
<path d="M88.4619 80.2489C94.834 80.2489 99.9997 75.1916 99.9997 68.9531C99.9997 62.7147 94.834 57.6573 88.4619 57.6573C82.0896 57.6573 76.9238 62.7147 76.9238 68.9531C76.9238 75.1916 82.0896 80.2489 88.4619 80.2489Z" fill="#00CA72"/>
</svg>
