<svg width="78" height="48" viewBox="0 0 78 48" fill="none" xmlns="http://www.w3.org/2000/svg">
<path d="M9.68224 47.1841C7.96166 47.1878 6.27091 46.7348 4.78273 45.8712C3.29455 45.0077 2.06228 43.7645 1.2118 42.2688C0.374343 40.7837 -0.0433199 39.0987 0.00355297 37.3943C0.0504259 35.69 0.560068 34.0305 1.47789 32.5936L18.9214 5.20145C19.8142 3.72927 21.0817 2.52045 22.5945 1.69846C24.1074 0.87646 25.8113 0.470744 27.5322 0.52275C29.2519 0.563959 30.9297 1.06131 32.394 1.96391C33.8583 2.86651 35.0565 4.14195 35.8659 5.65971C37.492 8.73449 37.2888 12.4338 35.3412 15.3201L17.9088 42.7123C17.0247 44.0899 15.8073 45.2219 14.3692 46.0036C12.9311 46.7853 11.319 47.1914 9.68224 47.1841Z" fill="#F62B54"/>
<path d="M39.6031 47.1833C36.0848 47.1833 32.8474 45.3023 31.1474 42.2792C30.3119 40.7981 29.8952 39.1175 29.942 37.4176C29.9889 35.7177 30.4976 34.0627 31.4135 32.6299L48.8237 5.30051C49.7034 3.80764 50.9664 2.57729 52.4818 1.73706C53.9972 0.896826 55.7098 0.477316 57.442 0.522035C60.9898 0.599643 64.205 2.58421 65.8311 5.68856C67.4461 8.7929 67.2096 12.5144 65.2029 15.3933L47.7964 42.7227C46.9151 44.0944 45.7025 45.222 44.2706 46.0016C42.8387 46.7812 41.2335 47.1876 39.6031 47.1833Z" fill="#FFCC00"/>
<path d="M68.8535 47.4124C73.8132 47.4124 77.8339 43.4761 77.8339 38.6204C77.8339 33.7648 73.8132 29.8285 68.8535 29.8285C63.8937 29.8285 59.873 33.7648 59.873 38.6204C59.873 43.4761 63.8937 47.4124 68.8535 47.4124Z" fill="#00CA72"/>
</svg>
