<?xml version="1.0" encoding="UTF-8"?><svg id="Layer_1" xmlns="http://www.w3.org/2000/svg" viewBox="0 0 50 50"><defs><style>.cls-1{fill:#fff;}.cls-2{fill:#a5a284;}.cls-3{fill:#499c4a;}.cls-4{fill:#58a950;}</style></defs><path class="cls-1" d="m26.14,50l-1.33-.45s.16-6.79-2.27-7.27c-1.62-1.88.26-79.87,6.1-.26,0,0-2.01,1.01-2.37,2.73-.39,1.69-.13,5.26-.13,5.26h0Z"/><path class="cls-2" d="m26.14,50l-1.33-.45s.16-6.79-2.27-7.27c-1.62-1.88.26-79.87,6.1-.26,0,0-2.01,1.01-2.37,2.73-.39,1.69-.13,5.26-.13,5.26h0Z"/><path class="cls-1" d="m26.85,43.44s11.66-7.66,8.93-23.6c-2.63-11.59-8.83-15.39-9.51-16.85-.75-1.04-1.46-2.86-1.46-2.86l.49,32.24s-1.01,9.87,1.56,11.07h0Z"/><path class="cls-3" d="m26.85,43.44s11.66-7.66,8.93-23.6c-2.63-11.59-8.83-15.39-9.51-16.85-.75-1.04-1.46-2.86-1.46-2.86l.49,32.24s-1.01,9.87,1.56,11.07h0Z"/><path class="cls-1" d="m24.12,43.86s-10.94-7.47-10.29-20.62c.62-13.15,8.34-19.61,9.84-20.78.98-1.04,1.01-1.43,1.07-2.47.68,1.46.55,21.85.65,24.25.29,9.25-.52,17.86-1.27,19.61Z"/><path class="cls-4" d="m24.12,43.86s-10.94-7.47-10.29-20.62c.62-13.15,8.34-19.61,9.84-20.78.98-1.04,1.01-1.43,1.07-2.47.68,1.46.55,21.85.65,24.25.29,9.25-.52,17.86-1.27,19.61Z"/></svg>