<svg width="100" height="100" viewBox="0 0 100 100" fill="none" xmlns="http://www.w3.org/2000/svg">
<path d="M52.6628 99.98L50.0039 99.0804C50.0039 99.0804 50.3237 85.5058 45.4657 84.5462C42.227 80.7877 45.9855 -75.13 57.6608 84.0264C57.6608 84.0264 53.6424 86.0456 52.9227 89.4842C52.143 92.8628 52.6628 100 52.6628 100V99.98Z" fill="white"/>
<path d="M52.6628 99.98L50.0039 99.0804C50.0039 99.0804 50.3237 85.5058 45.4657 84.5462C42.227 80.7877 45.9855 -75.13 57.6608 84.0264C57.6608 84.0264 53.6424 86.0456 52.9227 89.4842C52.143 92.8628 52.6628 100 52.6628 100V99.98Z" fill="#A5A284"/>
<path d="M54.0852 86.8653C54.0852 86.8653 77.3959 71.5514 71.9381 39.6842C66.6802 16.5134 54.2851 8.91646 52.9257 5.99762C51.4263 3.91845 50.0068 0.279907 50.0068 0.279907L50.9864 64.7342C50.9864 64.7342 48.9673 84.4663 54.1052 86.8653H54.0852Z" fill="white"/>
<path d="M54.0852 86.8653C54.0852 86.8653 77.3959 71.5514 71.9381 39.6842C66.6802 16.5134 54.2851 8.91646 52.9257 5.99762C51.4263 3.91845 50.0068 0.279907 50.0068 0.279907L50.9864 64.7342C50.9864 64.7342 48.9673 84.4663 54.1052 86.8653H54.0852Z" fill="#499C4A"/>
<path d="M48.6275 87.705C48.6275 87.705 26.7562 72.7709 28.0557 46.4814C29.2952 20.1919 44.729 7.27709 47.7278 4.93803C49.6871 2.85886 49.747 2.07917 49.867 0C51.2264 2.91883 50.9665 43.6825 51.1665 48.4806C51.7462 66.9732 50.1269 84.1864 48.6275 87.685V87.705Z" fill="white"/>
<path d="M48.6275 87.705C48.6275 87.705 26.7562 72.7709 28.0557 46.4814C29.2952 20.1919 44.729 7.27709 47.7278 4.93803C49.6871 2.85886 49.747 2.07917 49.867 0C51.2264 2.91883 50.9665 43.6825 51.1665 48.4806C51.7462 66.9732 50.1269 84.1864 48.6275 87.685V87.705Z" fill="#58A950"/>
</svg>
