<svg width="100" height="100" viewBox="0 0 100 100" fill="none" xmlns="http://www.w3.org/2000/svg">
<path d="M61.7001 46.6942L41.6742 53.2361L24.249 60.9184L19.3676 62.1988C18.1272 63.3791 16.8268 64.5795 15.4064 65.7799C13.8659 67.1202 12.4255 68.3206 11.3252 69.2009C10.1048 70.1611 8.28428 71.9817 7.36401 73.142C5.9836 74.8625 4.90328 76.7031 4.42314 78.1035C3.58289 80.6443 4.00301 83.225 5.60349 85.6057C7.6641 88.6266 11.7653 91.7275 16.5467 93.8282C18.9874 94.9085 23.0887 96.2889 26.1696 97.0491C31.3111 98.3495 41.234 99.7499 46.6956 99.97C47.796 100.01 49.2764 100.01 49.3364 99.97C49.4565 99.89 50.2967 98.2695 51.297 96.2689C54.658 89.4068 57.0787 82.9649 58.3991 77.4833C59.1793 74.1623 59.7995 69.721 60.2197 64.4595C60.3197 62.999 60.3797 58.0776 60.2797 56.3971C60.1396 53.6763 59.8996 51.4556 59.5194 49.295C59.4594 48.9749 59.4394 48.6948 59.4794 48.6748C59.5395 48.6348 59.7195 48.5748 62.1802 47.8545L61.6801 46.6742L61.7001 46.6942ZM57.1187 49.375C57.2988 49.375 57.7789 54.0164 57.899 56.9572C57.939 57.5774 57.899 57.9775 57.899 57.9775C57.7789 57.9775 55.3382 56.5371 53.5977 55.4568C52.0772 54.4965 49.2164 52.5959 48.7563 52.2358C48.5962 52.1358 48.6162 52.1158 49.8566 51.6957C51.9572 50.9755 56.9587 49.375 57.1187 49.375ZM46.9157 52.736C47.0558 52.736 47.3959 52.936 48.2361 53.4562C51.357 55.4168 55.5983 57.7775 57.4188 58.5577C57.979 58.7978 58.039 58.7178 56.7586 59.578C53.9978 61.4586 50.5568 63.2991 46.3555 65.1597C45.6153 65.4998 44.9951 65.7598 44.9751 65.7598C44.9351 65.7598 45.0352 65.3797 45.1552 64.9196C46.1755 61.1585 46.7357 57.3373 46.7757 54.2764C46.7757 53.2628 46.829 52.7427 46.9357 52.716L46.9157 52.736ZM44.8151 53.5362C44.8151 53.5362 44.8551 57.0173 44.7151 57.9375C44.435 60.1582 44.0149 62.1988 43.3146 64.5195C43.1546 65.0796 42.9946 65.5398 42.9745 65.5798C42.9145 65.6598 40.8339 63.6192 40.1537 62.839C38.9734 61.4786 38.0531 60.1182 37.3729 58.7778C37.0328 58.0976 36.4726 56.7572 36.5326 56.7172C36.7727 56.5571 44.7551 53.4562 44.8151 53.5162V53.5362ZM34.9122 57.4374H34.9522C34.9922 57.4774 35.0922 57.7175 35.1722 57.9775C35.6524 59.2979 36.7527 61.2385 37.693 62.4789C38.7133 63.8393 40.0737 65.2997 41.194 66.24C41.5541 66.5401 41.8942 66.8402 41.9342 66.8802C42.0343 66.9802 42.0543 66.9602 39.5935 67.9005C36.7327 68.9808 33.6118 70.0811 30.0307 71.2215C29.1705 71.5015 28.3302 71.7816 27.47 72.0617C27.3299 72.1017 27.3699 72.0217 27.77 71.4015C29.5506 68.6207 32.2314 63.1991 33.7518 59.3579C34.0119 58.6978 34.272 58.0176 34.312 57.8775C34.372 57.6574 34.452 57.5974 34.6521 57.4774C34.7521 57.4374 34.8722 57.4174 34.9122 57.4174V57.4374ZM31.8913 58.6978C31.8913 58.6978 31.1711 60.3382 30.4108 61.8387C28.9504 64.6995 27.3299 67.5204 25.1893 70.9414C24.8292 71.5416 24.4691 72.0817 24.4291 72.1417C24.349 72.2418 24.329 72.2218 24.089 71.7416C23.5688 70.7213 23.1487 69.4209 22.9286 68.2206C22.7086 67.0402 22.7486 64.9796 23.0086 63.6992C23.2087 62.759 23.1887 62.779 23.6488 62.5389C25.5894 61.5586 31.8513 58.6177 31.9113 58.6777L31.8913 58.6978ZM58.019 59.7581V60.3983C58.019 63.7793 57.6589 68.4006 57.1187 71.7816C57.0187 72.3818 56.9587 72.8619 56.9387 72.8619C56.9387 72.8619 56.4985 72.7419 55.9784 72.5819C53.6977 71.8616 51.237 70.8213 49.0163 69.601C47.5559 68.8007 45.4153 67.4804 45.4753 67.4203C45.4753 67.4203 46.1355 67.0802 46.8757 66.6801C49.8366 65.1397 52.6974 63.4792 55.1582 61.8187C56.0784 61.1985 57.4788 60.1982 57.7789 59.9181L58.019 59.7381V59.7581ZM20.4679 64.2394C20.4679 64.2394 20.5079 64.3594 20.4279 64.8996C20.3679 65.2997 20.2878 66.0199 20.2678 66.5201C20.1478 68.7407 20.5079 70.3612 21.6082 72.6019C21.9083 73.2221 22.1484 73.7422 22.1284 73.7622C22.0283 73.8622 12.0054 76.7831 8.84444 77.6634C7.90417 77.9234 7.08392 78.1435 7.02391 78.1635C6.92388 78.2035 6.90387 78.1635 6.94388 77.9234C7.28398 75.7028 8.98449 72.7819 11.3452 70.3412C12.9257 68.7007 14.186 67.7604 16.3267 66.5201C17.8671 65.6398 20.2478 64.3194 20.4279 64.2594C20.4279 64.2594 20.4279 64.2594 20.4679 64.2594V64.2394ZM44.0949 68.4606C44.0949 68.4606 44.475 68.6407 44.9151 68.9008C48.1561 70.7813 52.6774 72.5218 56.5186 73.4221L56.8587 73.5021L56.3785 73.7822C54.3579 74.9026 47.756 77.6634 40.974 80.1841C39.9937 80.5442 39.0134 80.9043 38.8333 80.9844C38.6533 81.0644 38.4932 81.1044 38.4932 81.0844C38.4932 81.0644 38.7733 80.5442 39.1134 79.884C41.014 76.343 42.9145 72.0217 43.8748 69.0208C43.9949 68.7407 44.0749 68.4807 44.0949 68.4606ZM41.6942 69.2409C41.6942 69.2409 41.5941 69.581 41.4341 69.9411C40.1137 73.142 38.3932 76.6231 36.1725 80.5242C35.6124 81.5245 35.1522 82.3248 35.1322 82.3248C35.1122 82.3248 34.6721 82.0447 34.1119 81.7246C30.911 79.764 28.0501 77.3433 26.1896 74.9826L25.9095 74.6425L27.2899 74.2624C32.2314 72.922 36.4126 71.4615 40.5938 69.681C41.194 69.4409 41.6742 69.2409 41.6942 69.2409ZM56.6586 74.4624C56.6586 74.8025 55.8984 77.9234 55.2582 80.1841C54.738 82.0847 54.2779 83.5651 53.4376 86.1859C53.0775 87.3462 52.7574 88.2865 52.7374 88.2865C52.7174 88.2865 52.6374 88.2865 52.5374 88.2465C48.036 87.4263 44.0149 86.2859 40.2337 84.7855C39.1734 84.3654 37.653 83.6852 37.5729 83.6051C37.5329 83.5651 38.4532 83.145 39.5935 82.6448C46.4756 79.624 53.6377 76.2029 56.0784 74.7425C56.3585 74.5625 56.5986 74.4624 56.6386 74.4624H56.6586ZM22.1284 75.6428C22.1284 75.6428 20.2278 78.4436 17.547 82.2047C16.6067 83.5251 15.5264 85.0656 15.1063 85.6457C14.7062 86.2259 14.086 87.1262 13.7259 87.6663L13.0857 88.6466L12.4055 88.0664C11.6053 87.4063 10.2048 85.9858 9.58466 85.1856C8.28428 83.5651 7.40402 81.8646 7.06392 80.3041C6.90387 79.5839 6.90387 79.2038 7.06392 79.1638C7.28398 79.1038 11.3252 78.1435 15.1263 77.2632C17.2269 76.7831 19.6677 76.2029 20.5479 75.9829C21.4282 75.7628 22.1284 75.6028 22.1484 75.6028L22.1284 75.6428ZM24.069 76.383L24.5491 76.9232C26.7297 79.3639 28.9504 81.1644 31.6512 82.7449C32.1313 83.025 32.4914 83.265 32.4714 83.285C32.3714 83.3651 23.1087 86.646 18.8274 88.1265C16.4267 88.9667 14.4461 89.6469 14.4261 89.6469C14.4061 89.6469 14.266 89.5469 14.126 89.4469L13.8459 89.2468L14.2861 88.6066C15.7065 86.546 17.487 84.2853 21.3882 79.6039L24.069 76.383ZM36.1525 85.0255C36.1525 85.0255 36.8327 85.2456 37.653 85.5657C39.6136 86.3059 41.174 86.7861 43.2746 87.3062C45.8554 87.9664 49.5765 88.5866 51.7772 88.7667C52.1173 88.8067 52.2973 88.8267 52.2373 88.8667C52.1373 88.9267 49.8966 89.6669 48.2761 90.1871C45.6753 91.0073 37.713 93.348 31.2511 95.2086C30.0507 95.5487 29.0304 95.8487 28.9704 95.8688C28.8104 95.9088 28.3102 95.7687 28.3102 95.7087C28.3102 95.6687 28.6703 95.2086 29.1104 94.6884C31.2911 92.0876 33.4517 89.1868 35.2523 86.426C35.7524 85.6657 36.1725 85.0456 36.1725 85.0255H36.1525ZM33.4917 85.1056C33.4917 85.1056 32.4314 86.8461 30.5509 89.807C29.7506 91.0673 28.8504 92.4878 28.5303 92.9879C28.2302 93.468 27.77 94.2283 27.51 94.6484L27.0698 95.4286L26.8498 95.3686C26.3096 95.2086 22.4685 93.8682 21.4682 93.468C20.2078 92.9679 18.9074 92.3677 17.9471 91.8476C16.7268 91.1874 15.2263 90.2271 15.3464 90.2071C15.3864 90.2071 17.447 89.6269 19.9477 88.9467C26.5897 87.1462 30.2508 86.1059 32.6715 85.3456C33.1116 85.2056 33.4917 85.1056 33.5117 85.1256L33.4917 85.1056ZM52.3373 89.5269C52.3973 89.6869 49.9366 96.4889 49.0563 98.6496C48.8563 99.1297 48.7763 99.2498 48.6762 99.2498C48.4162 99.2498 44.8551 98.7296 42.6945 98.4095C38.9334 97.8293 32.5915 96.729 31.011 96.3689L30.6509 96.2889L32.9116 95.7687C37.753 94.6884 40.0937 94.0882 42.4544 93.368C45.4353 92.4677 48.3962 91.3274 51.377 89.927C51.8372 89.7069 52.2373 89.5469 52.3373 89.5269Z" fill="url(#paint0_linear_681_2064)"/>
<path d="M41.0554 0.000608863C40.7153 -0.039403 35.3537 1.90117 31.8727 3.30159C27.1913 5.20215 23.5502 7.02269 21.3096 8.60316C20.4693 9.20333 19.429 10.2436 19.269 10.6438C19.209 10.8038 19.1689 10.9839 19.1689 11.1639L21.1895 13.0845L26.011 14.6249L37.4944 16.6855L50.6383 18.9462L50.7783 17.8059C50.7783 17.8059 50.6983 17.8059 50.6583 17.8059L48.9378 17.5258L48.5977 16.9056C46.8171 13.7647 44.8365 9.84352 43.6962 7.22275C42.7959 5.18214 41.9557 2.82144 41.4755 1.12094C41.2155 0.100638 41.1955 0.0406207 41.0154 0.0206148L41.0554 0.000608863ZM40.8154 0.78084C40.8154 0.78084 40.8954 1.22097 40.9554 1.72112C41.2155 3.84175 41.6756 5.88235 42.4158 8.10301C42.976 9.7635 42.976 9.68347 42.3158 9.48342C40.7753 9.06329 33.8533 7.86294 28.8318 7.16273C28.0316 7.0627 27.3514 6.94266 27.3514 6.94266C27.2914 6.88265 30.9724 4.96208 32.5929 4.20185C34.6735 3.24157 40.3552 0.860864 40.7753 0.800846L40.8154 0.78084ZM26.211 7.56285L26.8112 7.76291C30.0122 8.86323 38.0945 10.4037 42.5359 10.7638C43.036 10.8038 43.4561 10.8638 43.4761 10.8638C43.4761 10.8638 43.076 11.1039 42.5159 11.364C40.3752 12.4443 37.9945 13.7647 36.374 14.765C35.8939 15.0651 35.4538 15.3051 35.3937 15.3051C35.3337 15.3051 35.0136 15.2451 34.6735 15.2051L34.0734 15.1051L32.5529 13.6246C29.8921 11.0439 27.7915 9.04329 26.9913 8.28306L26.211 7.56285ZM25.6109 8.02298L27.7515 10.6838C28.9118 12.1442 30.0922 13.5846 30.3523 13.9047C30.6123 14.2248 30.8124 14.4849 30.8124 14.5049C30.7524 14.5449 27.7315 13.9647 26.111 13.6046C24.4705 13.2245 23.7703 13.0445 22.77 12.7244L21.9298 12.4443V12.2242C21.9298 11.2039 23.2301 9.70348 25.4108 8.14302L25.6109 8.00298V8.02298ZM43.7562 11.6641C43.7562 11.6641 43.8963 11.8041 44.0763 12.2042C44.5965 13.3446 46.1969 16.4055 46.5971 16.9856C46.7171 17.1857 46.9372 17.2057 44.7965 16.8456C39.655 16.0053 38.0145 15.7453 38.0145 15.7053C38.0145 15.7053 38.1746 15.5852 38.3546 15.4852C39.9351 14.6049 41.5556 13.4846 42.976 12.2842C43.3161 12.0042 43.6362 11.7241 43.6962 11.6841C43.6962 11.6441 43.7362 11.6441 43.7562 11.6441V11.6641Z" fill="url(#paint1_linear_681_2064)"/>
<path d="M19.3862 10.4435C19.3862 10.4435 19.0461 10.9837 19.3862 11.7639C19.5862 12.244 20.1664 12.8442 20.8066 13.4444C20.8066 13.4444 27.5486 20.0063 28.3688 20.9466C32.0899 25.2479 33.7104 29.4891 33.8705 35.3309C33.9705 39.092 33.2503 42.393 31.4698 46.2141C28.3288 53.0961 21.6669 60.6784 11.4238 69.1009L12.9243 68.6007C13.8846 67.8805 15.2049 67.1003 18.3059 65.3998C25.428 61.4986 33.4704 57.8975 43.3133 54.2165C57.4775 48.8949 80.7844 42.653 94.0483 40.6124L95.4287 40.3924L95.2086 40.0523C93.9883 38.1717 93.168 37.0114 92.1677 35.771C89.2669 32.1699 85.7258 29.2491 81.4246 26.8283C75.4828 23.5074 67.8205 20.9266 58.0976 19.006C56.2571 18.6459 52.2359 17.9457 48.9749 17.4456C42.0329 16.3653 37.5516 15.625 32.6301 14.7848C30.8496 14.4847 28.2088 14.0246 26.4483 13.6444C25.548 13.4444 23.8075 13.0443 22.4271 12.5641C21.3468 12.144 19.7663 11.7239 19.4262 10.4235L19.3862 10.4435ZM23.2873 14.2246C23.2873 14.2246 23.5474 14.3046 23.8675 14.4047C24.4477 14.6047 25.1879 14.8248 26.0682 15.0649C26.7284 15.2449 27.4086 15.425 28.0688 15.585C28.969 15.8051 29.7292 16.0252 29.7493 16.0252C29.8493 16.1252 31.3897 21.0266 31.8899 22.9072C32.0899 23.6274 32.23 24.2276 32.23 24.2276C32.23 24.2276 32.0499 23.9875 31.8499 23.6274C30.0693 20.5065 27.2685 17.3455 24.0276 14.8048C23.6074 14.5047 23.2873 14.2246 23.2873 14.2046V14.2246ZM30.7295 16.2852C30.7295 16.2852 31.1297 16.3252 31.5498 16.4253C34.1306 17.0054 38.7519 17.8857 41.6928 18.3858C42.1929 18.4659 42.5931 18.5459 42.5931 18.5859C42.5931 18.6259 42.413 18.726 42.1929 18.846C41.6928 19.1061 39.6722 20.3064 39.012 20.7465C37.3315 21.8669 35.811 23.0872 34.7307 24.1676C34.2906 24.6077 33.9105 24.9678 33.9105 24.9678C33.9105 24.9678 33.8105 24.7077 33.7504 24.3876C33.2103 22.287 32.0699 19.1661 31.0496 16.9654C30.8896 16.6253 30.7495 16.3052 30.7495 16.2652L30.7295 16.2852ZM43.8334 18.786C43.8334 18.786 44.0735 19.3261 44.3736 20.4665C44.9338 22.6671 45.1938 25.1078 45.0938 27.4085C45.0538 28.0487 45.0338 28.6289 44.9938 28.7089L44.9538 28.869L44.1735 28.6089C42.553 28.0887 39.9123 27.3285 37.6716 26.6883C36.3912 26.3482 35.3309 26.0281 35.3309 25.9881C35.3309 25.8881 37.2115 24.0275 38.0117 23.3073C39.5321 21.9669 43.6934 18.746 43.8334 18.786ZM44.8737 18.946C44.8737 18.946 51.1356 19.9663 53.9764 20.5265C56.077 20.9266 59.138 21.5668 59.318 21.6468C59.418 21.6868 59.0979 21.8669 58.0776 22.307C54.0765 24.1075 51.1156 25.728 48.1547 27.6886C47.3745 28.2088 46.7343 28.6289 46.7143 28.6289C46.6943 28.6289 46.6743 28.1888 46.6743 27.6686C46.6743 24.7877 46.0941 21.8869 45.0338 19.4262C44.9337 19.1861 44.8337 18.966 44.8537 18.946H44.8737ZM60.9785 22.127C60.9785 22.127 60.8184 23.4073 60.6384 24.1275C60.0982 26.3882 58.6178 29.7292 56.8173 32.8701C56.4972 33.4303 56.2171 33.8904 56.1771 33.8904C56.1571 33.8904 55.737 33.6704 55.2768 33.4103C53.5163 32.39 51.5157 31.4097 49.3351 30.5094C48.7349 30.2494 48.1947 30.0493 48.1747 30.0093C48.0747 29.9093 52.9361 26.6883 55.5169 25.1479C57.5575 23.9075 60.8985 22.0669 60.9585 22.127H60.9785ZM62.1388 22.307C62.2789 22.307 65.0397 23.0672 66.4601 23.4874C70.0212 24.5477 74.1024 26.0481 76.7632 27.2485L77.8635 27.7486L77.0833 27.9287C70.5813 29.4291 64.9997 31.1496 59.6181 33.3303C59.178 33.5103 58.7778 33.6704 58.7578 33.6704C58.7378 33.6704 58.8779 33.3303 59.0779 32.8901C60.6984 29.4491 61.7387 25.8681 61.9988 22.8072C61.9988 22.5271 62.0588 22.287 62.0988 22.287L62.1388 22.307ZM34.7107 28.6089C34.7107 28.6089 36.8514 29.069 37.9917 29.3891C39.7122 29.8692 43.3733 31.1096 43.3733 31.1896C43.3733 31.1896 42.9732 31.5497 42.473 31.9699C40.4924 33.6104 38.5719 35.3709 36.2912 37.5715C35.611 38.2317 35.0308 38.7519 35.0108 38.7519C34.9908 38.7519 34.9708 38.6518 34.9708 38.5318C35.3109 35.9911 35.2509 32.7101 34.7507 29.4091C34.7107 28.989 34.6507 28.6289 34.6707 28.6089H34.7107ZM78.9438 28.6489C78.9438 28.6489 77.9835 30.2494 77.3433 31.1496C76.4431 32.45 75.1027 34.1705 72.0818 37.9716C70.5013 39.9722 68.7008 42.2329 68.1206 42.9931C67.5204 43.7534 67.0203 44.3935 67.0003 44.3935C66.9803 44.3935 66.7802 44.1135 66.5802 43.7934C64.8797 41.2526 62.8591 39.032 60.4383 37.0314C59.9782 36.6513 59.4781 36.2511 59.318 36.1311C59.158 36.0111 59.0179 35.891 59.0179 35.871C59.0179 35.831 61.5987 34.7107 63.5393 33.9304C66.9603 32.53 71.6216 30.8695 75.1227 29.7892C76.9632 29.2091 78.9038 28.6489 78.9438 28.6889V28.6489ZM80.1042 28.949C80.1042 28.949 80.5243 29.109 80.9644 29.3691C84.6455 31.4697 88.2466 34.1905 91.0874 36.9714C91.8876 37.7516 93.8682 39.8122 93.8482 39.8322C93.8482 39.8322 93.148 39.8922 92.3278 39.9522C85.9459 40.4324 77.7835 41.7928 69.9412 43.6733C69.421 43.7934 68.9409 43.8934 68.9209 43.8934C68.9008 43.8934 69.481 43.2932 70.2212 42.593C74.8226 38.1517 76.9232 35.3509 79.404 30.3494C79.7441 29.6092 80.0641 28.969 80.0842 28.929L80.1042 28.949ZM46.3742 32.41C46.5942 32.45 48.5548 33.3703 50.0353 34.1305C51.3957 34.8107 53.4363 35.911 53.5563 35.9911C53.5563 35.9911 52.8361 36.3912 51.9558 36.8313C49.115 38.2517 46.6743 39.5921 44.1335 41.1526C43.4133 41.5927 42.7931 41.9528 42.7931 41.9528C42.7331 41.9528 42.7531 41.8928 43.1532 41.1526C44.5136 38.6719 45.614 35.711 46.2341 32.8101C46.2942 32.5901 46.3542 32.43 46.3942 32.43L46.3742 32.41ZM44.4136 32.7701C44.4136 32.7701 43.9535 34.6707 43.6334 35.691C43.0132 37.6115 41.9729 40.0123 40.9526 41.8328C40.7125 42.2529 40.3524 42.8731 40.1523 43.2332L39.7722 43.8334L38.932 43.0131C37.9517 42.0529 37.1514 41.4727 36.1111 40.9325C35.711 40.7125 35.3909 40.5324 35.3909 40.5124C35.3909 40.3924 37.9717 38.0517 39.9723 36.3512C41.3927 35.1308 44.3936 32.7101 44.4336 32.7701H44.4136ZM56.4572 37.7116L57.1974 38.1917C58.8979 39.292 60.8985 40.7725 62.4189 42.0529C63.2792 42.7731 64.9397 44.2735 65.2798 44.6336L65.4598 44.8337L64.2395 45.1738C57.2974 47.0943 51.9358 48.8149 45.694 51.1155C44.9938 51.3756 44.4136 51.5757 44.3536 51.5757C44.2535 51.5757 44.1935 51.6557 45.754 50.2153C49.7552 46.5342 53.2962 42.473 55.937 38.5318L56.4572 37.7116ZM53.2962 38.4918C53.2962 38.4918 51.2556 41.4527 50.0153 43.0932C48.5348 45.0537 45.894 48.3547 44.0735 50.5154C43.3133 51.4156 42.6731 52.1558 42.6331 52.1759C42.5931 52.1759 42.5731 51.9558 42.5731 51.6157C42.5731 49.7751 42.1129 47.8346 41.2927 46.1741C40.9526 45.4739 40.8926 45.3138 40.9526 45.2338C41.2327 44.9737 45.654 42.453 48.4348 40.9725C50.3153 39.9722 53.2562 38.4918 53.2962 38.5118V38.4918ZM34.1506 43.1932C34.1506 43.1932 34.5507 43.3733 34.9308 43.5933C35.8911 44.1135 36.7713 44.7136 37.5316 45.3538C37.5716 45.3938 37.1714 45.6939 36.6513 46.074C35.2109 47.0943 33.0302 48.7548 31.7699 49.7751C30.4295 50.8355 30.3894 50.8555 30.5495 50.6354C31.5498 49.1149 32.0499 48.2347 32.5701 47.1344C33.0302 46.1541 33.5104 44.9937 33.8505 43.9734C33.9705 43.5333 34.1305 43.1932 34.1506 43.1932ZM39.2521 47.1944C39.2521 47.1944 39.4121 47.3144 39.8322 47.9146C40.6925 49.195 41.3527 50.9355 41.5327 52.3159V52.616L39.4921 53.4162C35.791 54.8566 32.37 56.2771 30.0493 57.3374C29.3891 57.6375 28.2688 58.1776 27.5286 58.5577C26.7884 58.9379 26.1882 59.2179 26.1882 59.2179C26.1882 59.2179 26.6483 58.8578 27.2285 58.4377C31.7498 55.1567 35.671 51.5557 38.6119 47.9546C38.932 47.5745 39.2121 47.2344 39.2521 47.2144H39.2921L39.2521 47.1944ZM36.9114 47.7745C36.9114 47.7745 35.2509 49.7951 34.0705 50.9755C31.1497 53.9564 28.2488 56.2971 24.6677 58.5577C24.2076 58.8378 23.8075 59.0979 23.7675 59.1379C23.6675 59.1979 23.8075 59.0379 25.368 57.3374C26.3683 56.2571 27.1285 55.3568 27.9887 54.2365C28.5689 53.4962 28.6689 53.3962 29.5092 52.796C31.7298 51.1956 36.8714 47.7145 36.9314 47.7745H36.9114Z" fill="url(#paint2_radial_681_2064)"/>
<defs>
<linearGradient id="paint0_linear_681_2064" x1="18.3433" y1="89.2092" x2="22.4693" y2="86.7709" gradientUnits="userSpaceOnUse">
<stop stop-color="#8F9BA8"/>
<stop offset="1" stop-color="#ECECED"/>
</linearGradient>
<linearGradient id="paint1_linear_681_2064" x1="18.5071" y1="8.44391" x2="21.8273" y2="8.44391" gradientUnits="userSpaceOnUse">
<stop stop-color="#929EAA"/>
<stop offset="1" stop-color="#DBDDE0"/>
</linearGradient>
<radialGradient id="paint2_radial_681_2064" cx="0" cy="0" r="1" gradientUnits="userSpaceOnUse" gradientTransform="translate(87.6091 102.264) rotate(-171.46) scale(4.40851 8.81701)">
<stop stop-color="#ED352C"/>
<stop offset="1" stop-color="#A81D22"/>
</radialGradient>
</defs>
</svg>
