<?xml version="1.0" encoding="UTF-8"?><svg id="Layer_1" xmlns="http://www.w3.org/2000/svg" viewBox="0 0 50 50"><defs><style>.cls-1{fill:#006189;}</style></defs><path class="cls-1" d="m49.4,48.31l-1.04-1.01c-.98-1.31-2.25-2.45-3.57-3.4-1.06-.76-3.43-1.79-3.88-3.02l-.08-.08c.75-.08,1.63-.36,2.32-.54,1.16-.31,2.12-.23,3.32-.54.54-.15,1.15-.31,1.55-.46v-.31c-.4-.62-.96-1.45-1.62-2.01-1.73-1.47-3.58-2.95-5.53-4.18-1.08-.68-2.4-1.12-3.54-1.7-.38-.19-1.05-.3-1.31-.62-.6-.77-.92-1.74-1.39-2.63-.97-1.87-1.92-3.91-2.78-5.88-.59-1.34-.97-2.66-1.7-3.87-3.51-5.78-7.29-9.26-13.15-12.69-1.25-.73-2.75-1.02-4.33-1.39-.85-.05-1.7-.1-2.55-.16-.52-.22-1.06-.85-1.55-1.16C6.63,1.44,1.65-1.23.21,2.28c-.91,2.21,1.36,4.37,2.17,5.49.57.79,1.3,1.67,1.7,2.55.27.58.31,1.16.54,1.78.56,1.52,1.05,3.16,1.78,4.56.37.71.77,1.46,1.24,2.09.28.39.77.56.85,1.16-.48.67-.5,1.71-.77,2.55-1.21,3.81-.75,8.55,1.01,11.37.54.87,1.81,2.72,3.56,2.01,1.53-.62,1.28-2.55,1.72-4.25.1-.39-.07-.67.32-.93v.08c.4.93.84,1.86,1.3,2.78,1.03,1.66,2.73,3.39,4.28,4.56.8.61,1.55,1.66,2.35,2.01v-.04h.09c-.2-.4-.52-.46-.77-.72-.61-.59-1.28-1.34-1.78-2.02-1.41-1.91-2.66-4.01-3.79-6.19-.54-1.04-1.01-2.19-1.47-3.25-.18-.41-.17-1.03-.54-1.24-.5.78-1.24,1.4-1.63,2.32-.62,1.47-.7,3.25-.93,5.11-.14.05-.08.02-.16.08-1.08-.26-1.46-1.37-1.86-2.32-1.01-2.41-1.2-6.28-.31-9.05.23-.72,1.27-2.97.85-3.64-.2-.66-.87-1.04-1.24-1.55-.46-.62-.92-1.45-1.24-2.17-.83-1.88-1.22-3.98-2.09-5.88-.42-.91-1.12-1.82-1.7-2.63-.64-.89-1.36-1.55-1.86-2.63-.18-.38-.42-1-.15-1.39.08-.27.2-.38.46-.46.45-.35,1.7.11,2.17.31,1.24.52,2.28.99,3.33,1.69.5.33,1.01.75,1.62,1.15h.7c1.09,0,2.31.09,3.33.4,1.8.55,3.41,1.4,4.87,2.33,4.46,2.82,8.1,6.83,10.6,11.61.4.77.57,1.51.93,2.32.71,1.65,1.61,3.34,2.32,4.95.71,1.61,1.4,3.23,2.4,4.56.53.7,2.56,1.08,3.48,1.47.65.27,1.71.56,2.32.93,1.17.71,2.31,1.55,3.4,2.32.55.39,2.24,1.23,2.32,1.93-2.72-.07-4.8.18-6.58.93-.5.21-1.31.22-1.39.85.28.29.32.73.54,1.08.42.69,1.14,1.61,1.78,2.09.7.53,1.42,1.09,2.17,1.55,1.33.81,2.82,1.28,4.1,2.09.76.48,1.57,1.08,2.31,1.62.36.27.35.68,1.15.85v-.08c-.4-.32-.38-.75-.6-1.08ZM11.35,8.93c-.57-.01-1,.06-1.39.15v.06h.08c.27.4.75.92,1.08,1.4l.77,1.63.08-.07c.48-.34.7-.88.7-1.7-.19-.2-.22-.45-.39-.7-.22-.32-.65-.5-.93-.77Z"/></svg>