<svg width="100" height="100" viewBox="0 0 100 100" fill="none" xmlns="http://www.w3.org/2000/svg">
<path d="M98.7803 97.5269L96.7008 95.5073C94.7412 92.8879 92.2018 90.6085 89.5624 88.7089C87.4429 87.1893 82.704 85.1298 81.8042 82.6703L81.6443 82.5104C83.1439 82.3504 84.9035 81.7905 86.2832 81.4306C88.6027 80.8108 90.5222 80.9707 92.9217 80.3509C94.0014 80.0509 95.2211 79.731 96.0209 79.4311V78.8112C95.2211 77.5715 94.1014 75.9119 92.7817 74.7922C89.3225 71.8528 85.6233 68.8935 81.7242 66.4341C79.5647 65.0744 76.9254 64.1946 74.6459 63.0349C73.8861 62.655 72.5464 62.435 72.0265 61.7952C70.8268 60.2555 70.1869 58.316 69.2472 56.5364C67.3076 52.7973 65.408 48.7182 63.6884 44.7791C62.5087 42.0998 61.7489 39.4604 60.2892 37.0409C53.2709 25.4836 45.7126 18.5252 33.9953 11.6668C31.4959 10.2072 28.4966 9.6273 25.3374 8.88747C23.6377 8.78749 21.9381 8.68751 20.2385 8.56754C19.1988 8.12764 18.119 6.86794 17.1393 6.24808C13.2602 3.80865 3.30247 -1.53011 0.423142 5.48826C-1.39644 9.90723 3.14251 14.2262 4.76213 16.4657C5.90187 18.0453 7.36153 19.8049 8.16134 21.5645C8.70122 22.7243 8.7812 23.884 9.24109 25.1237C10.3608 28.163 11.3406 31.4422 12.8003 34.2416C13.5401 35.6612 14.3399 37.1609 15.2797 38.4206C15.8396 39.2004 16.8193 39.5403 16.9793 40.7401C16.0195 42.0798 15.9795 44.1593 15.4397 45.8389C13.0202 53.4571 13.94 62.9349 17.4592 68.5736C18.5389 70.3132 21.0783 74.0123 24.5775 72.5927C27.6368 71.353 27.1369 67.4938 28.0167 64.0946C28.2167 63.3148 27.8768 62.755 28.6566 62.2351V62.395C29.4564 64.2546 30.3362 66.1142 31.256 67.9537C33.3155 71.273 36.7147 74.7322 39.814 77.0716C41.4136 78.2913 42.9133 80.3909 44.5129 81.0907V81.0107H44.6929C44.2929 80.2109 43.6531 80.0909 43.1532 79.571C41.9335 78.3913 40.5938 76.8917 39.594 75.532C36.7747 71.7129 34.2753 67.5138 32.0158 63.1549C30.936 61.0753 29.9963 58.7759 29.0765 56.6564C28.7166 55.8366 28.7366 54.5968 27.9967 54.1769C26.997 55.7366 25.5173 56.9763 24.7375 58.8159C23.4978 61.7552 23.3378 65.3144 22.8779 69.0335C22.598 69.1335 22.718 69.0735 22.558 69.1935C20.3985 68.6736 19.6387 66.4541 18.8389 64.5545C16.8193 59.7357 16.4394 51.9975 18.219 46.4587C18.6789 45.0191 20.7584 40.5201 19.9186 39.1804C19.5187 37.8607 18.179 37.1009 17.4392 36.0811C16.5194 34.8414 15.5996 33.1818 14.9598 31.7422C13.3001 27.983 12.5203 23.784 10.7807 19.9849C9.94093 18.1653 8.54126 16.3457 7.38152 14.7261C6.10182 12.9465 4.66216 11.6268 3.66239 9.46733C3.30247 8.70751 2.82258 7.4678 3.36246 6.68798C3.52242 6.1481 3.76237 5.92816 4.28225 5.76819C5.18204 5.06835 7.68145 5.98814 8.62124 6.38805C11.1007 7.42781 13.1802 8.36759 15.2797 9.76726C16.2795 10.4271 17.2992 11.2669 18.5189 12.0667H19.9186C22.0981 12.0667 24.5375 12.2467 26.5771 12.8665C30.1762 13.9663 33.3955 15.6659 36.3148 17.5255C45.2327 23.1641 52.511 31.1823 57.5099 40.7401C58.3097 42.2797 58.6496 43.7594 59.3694 45.379C60.7891 48.6782 62.5887 52.0574 64.0084 55.2767C65.428 58.4959 66.8077 61.7352 68.8073 64.3946C69.867 65.7942 73.9261 66.5541 75.7656 67.3339C77.0653 67.8738 79.1848 68.4536 80.4046 69.1935C82.744 70.6131 85.0235 72.2927 87.203 73.8324C88.3027 74.6122 91.6819 76.2918 91.8419 77.6915C86.4032 77.5515 82.2441 78.0514 78.685 79.551C77.6852 79.9709 76.0656 79.9909 75.9056 81.2506C76.4655 81.8305 76.5455 82.7103 76.9854 83.4102C77.8252 84.7898 79.2648 86.6294 80.5445 87.5892C81.9442 88.6489 83.3839 89.7687 84.8835 90.6885C87.5429 92.3081 90.5222 93.2479 93.0816 94.8675C94.6013 95.8273 96.2209 97.027 97.7005 98.1067C98.4204 98.6466 98.4004 99.4664 100 99.8063V99.6464C99.2002 99.0065 99.2402 98.1467 98.8003 97.4869L98.7803 97.5269ZM22.698 18.7852C21.5582 18.7652 20.6984 18.9051 19.9186 19.0851V19.2051H20.0786C20.6184 20.0049 21.5782 21.0446 22.2381 22.0044L23.7777 25.2637L23.9377 25.1237C24.8975 24.4439 25.3374 23.3641 25.3374 21.7245C24.9574 21.3246 24.8975 20.8247 24.5575 20.3248C24.1176 19.685 23.2578 19.325 22.698 18.7852Z" fill="#006189"/>
</svg>
