<svg xmlns="http://www.w3.org/2000/svg" width="100" height="100" fill="none" viewBox="0 0 100 100"><g clip-path="url(#clip0_681_2070)"><path fill="#01E0CB" fill-rule="evenodd" d="M50.252 100.061C61.6535 100.061 72.1638 96.2453 80.5749 89.8206L73.111 82.3567C66.6698 86.8953 58.8138 89.5612 50.3354 89.5612C41.7964 89.5612 33.889 86.8573 27.4224 82.2595L19.8908 89.7907C28.3084 96.2336 38.8332 100.061 50.252 100.061ZM10.4634 80.3453L17.9976 72.8112C13.4337 66.3594 10.752 58.4818 10.752 49.9778C10.752 41.4992 13.4177 33.6432 17.9567 27.2021L10.4928 19.7383C4.06811 28.1495 0.251953 38.6597 0.251953 50.0611C0.251953 61.445 4.05648 71.9407 10.4634 80.3453ZM100.252 50.0611C100.252 61.4626 96.4357 71.9729 90.0115 80.3839L82.5758 72.9481C87.1987 66.4713 89.919 58.5422 89.919 49.9778C89.919 41.4389 87.2151 33.5314 82.6167 27.0649L89.9817 19.6998C96.4246 28.1175 100.252 38.6423 100.252 50.0611ZM80.5362 10.2725C72.1316 3.86556 61.636 0.0610352 50.252 0.0610352C38.8506 0.0610352 28.3405 3.87719 19.9292 10.3018L27.3648 17.7374C33.8419 13.1143 41.771 10.3944 50.3354 10.3944C58.8395 10.3944 66.7173 13.0761 73.169 17.64L80.5362 10.2725Z" clip-rule="evenodd"/><path fill="#000" d="M62.7518 50.0612C62.7518 56.9647 57.1556 62.5614 50.252 62.5614C43.3484 62.5614 37.752 56.9647 37.752 50.0612C37.752 43.1576 43.3484 37.5612 50.252 37.5612C57.1556 37.5612 62.7518 43.1576 62.7518 50.0612Z"/><path fill="#0080FF" fill-rule="evenodd" d="M45.9654 19.061C32.1066 20.9455 21.1364 31.9158 19.252 45.7746H29.7499C31.4601 37.6907 37.8579 31.337 45.9654 29.6913V19.061ZM70.5144 45.7746C68.8155 37.7463 62.4938 31.4244 54.4654 29.7259V19.061C68.3244 20.9455 79.2948 31.9157 81.1792 45.7746H70.5144ZM54.4654 70.4901C62.5494 68.7795 68.9027 62.3823 70.5489 54.2746H81.1792C79.2942 68.1332 68.3244 79.1036 54.4654 80.9881V70.4901ZM29.7154 54.2746C31.3724 62.4379 37.8023 68.8679 45.9654 70.5246V80.9881C32.1067 79.1036 21.1365 68.1332 19.252 54.2746H29.7154Z" clip-rule="evenodd"/></g><defs><clipPath id="clip0_681_2070"><rect width="100" height="100" fill="#fff"/></clipPath></defs></svg>