<svg xmlns="http://www.w3.org/2000/svg" width="100" height="100" fill="none" viewBox="0 0 100 100"><path fill="#000" fill-rule="evenodd" d="M18.5888 17.5363C21.7064 20.0723 22.8697 19.8629 28.7096 19.4906L83.7806 16.1868C84.9439 16.1868 83.9667 15.0235 83.5944 14.8374L74.4508 8.22979C72.7059 6.88035 70.356 5.32152 65.8889 5.69378L12.5628 9.57923C10.6085 9.76536 10.2362 10.7425 11.004 11.5336L18.5888 17.5595V17.5363ZM21.8926 30.3792V88.3352C21.8926 91.4529 23.4514 92.6162 26.9413 92.43L87.4799 88.9168C90.9931 88.7307 91.3653 86.5902 91.3653 84.0542V26.4705C91.3653 23.9345 90.3882 22.585 88.2477 22.7711L24.987 26.4705C22.6604 26.6566 21.8693 27.8432 21.8693 30.3559L21.8926 30.3792ZM81.6401 33.4968C82.0356 35.2418 81.6401 37.01 79.8951 37.1962L76.9868 37.7778V80.5643C74.4508 81.9137 72.1242 82.7048 70.1699 82.7048C67.0522 82.7048 66.2844 81.7276 63.9345 78.8193L44.8563 48.8758V77.8421L50.8822 79.2148C50.8822 79.2148 50.8822 82.7048 46.0196 82.7048L32.595 83.4726C32.1995 82.7048 32.595 80.7504 33.9677 80.3549L37.4809 79.3777V41.0583L32.6183 40.6628C32.2227 38.9179 33.1999 36.3818 35.9221 36.1957L50.3238 35.2185L70.1699 65.5576V38.7085L65.0978 38.1268C64.7023 35.9863 66.2611 34.4275 68.2155 34.2414L81.6401 33.4503V33.4968ZM8.07247 4.32108L63.539 0.226231C70.356 -0.355423 72.101 0.0401015 76.3819 3.1345L94.0875 15.5819C97.019 17.7224 97.9729 18.304 97.9729 20.6307V88.8936C97.9729 93.1745 96.4141 95.7106 90.9698 96.0828L26.5458 99.9683C22.451 100.154 20.5199 99.5727 18.3561 96.8506L5.3038 79.9361C2.97718 76.8184 2 74.4918 2 71.7697V11.1148C2 7.62487 3.55883 4.69333 8.02594 4.32108H8.07247Z" clip-rule="evenodd"/></svg>