<svg xmlns="http://www.w3.org/2000/svg" width="100" height="100" fill="none" viewBox="0 0 100 100"><g clip-path="url(#clip0_681_2076)"><path fill="#000" fill-rule="evenodd" d="M55.0057 0.696492L52.9476 26.0338C51.975 25.9208 51.0025 25.8643 50.0048 25.8643C48.7561 25.8643 47.5325 25.9459 46.3341 26.1404L45.167 13.8671C45.1419 13.4781 45.4493 13.1392 45.8384 13.1392H47.9216L46.9176 0.727866C46.8925 0.338834 47.2 0 47.5576 0H54.3657C54.7547 0 55.0622 0.338834 55.0057 0.696492ZM44.5834 26.4479C42.3873 26.9499 40.3041 27.753 38.384 28.8072L33.0756 17.6696C32.9125 17.337 33.0756 16.9229 33.4396 16.7786L35.4098 16.057L30.2144 4.72485C30.0512 4.39229 30.2144 3.97816 30.5783 3.83385L36.9722 1.49965C37.3299 1.36161 37.7189 1.5875 37.8318 1.94516C37.8569 1.94516 44.5834 26.4479 44.5834 26.4479ZM22.1576 9.0042L36.8593 29.7233C34.9957 30.9469 33.3015 32.39 31.8583 34.0591L23.0424 25.3937C22.7663 25.1177 22.7977 24.6721 23.0737 24.4212L24.6863 23.0846L15.9268 14.2248C15.6508 13.9487 15.6821 13.5032 15.9833 13.2522L21.1851 8.89126C21.4862 8.64027 21.9066 8.69674 22.1263 9.0042H22.1576ZM30.7477 35.4458C29.4112 37.1965 28.3319 39.1416 27.5225 41.2248L16.2971 36.0858C15.9331 35.9478 15.7951 35.5023 15.9896 35.1697L17.0437 33.3626L5.76182 28.0291C5.42926 27.866 5.29122 27.4456 5.48573 27.113L8.87408 21.2273C9.06859 20.8948 9.5141 20.7818 9.82156 21.0014L30.7477 35.4458ZM1.50757 37.0019C1.56404 36.6129 1.95308 36.3933 2.31073 36.4749L26.9076 42.8939C26.2676 44.9771 25.9099 47.1732 25.8534 49.451L13.5425 48.447C13.1534 48.4219 12.8711 48.058 12.9589 47.6689L13.3166 45.6171L0.89265 44.45C0.503618 44.4186 0.258904 44.061 0.309102 43.672L1.4762 36.9768L1.50757 37.0019ZM0.566365 53.6111L25.8848 51.2769C25.9978 53.5295 26.4433 55.7257 27.1335 57.7775L15.2429 61.0592C14.879 61.1407 14.4899 60.9211 14.4335 60.5321L14.0758 58.474L2.00955 61.6113C1.65189 61.6992 1.26286 61.4733 1.20638 61.0843L0.00791582 54.3892C-0.0485565 54.0001 0.202432 53.6425 0.591464 53.6111H0.566365ZM4.54453 71.2242C4.35001 70.8916 4.48806 70.4775 4.82062 70.3081L27.7798 59.4215C28.6394 61.4733 29.8065 63.3934 31.1932 65.1126L21.1349 72.2783C20.8274 72.5042 20.3819 72.4164 20.1874 72.0838L19.1332 70.2516L8.88035 77.3358C8.57289 77.5554 8.12739 77.4487 7.93287 77.1161C7.93287 77.1161 4.51316 71.2242 4.54453 71.2242ZM37.5307 70.6406L30.5281 80.8057C30.3085 81.1445 29.863 81.1947 29.5555 80.95L27.9429 79.5884L20.7207 89.7534C20.4948 90.0609 20.0807 90.1173 19.7732 89.8663L14.5464 85.5054C14.2452 85.2544 14.2139 84.8089 14.4899 84.5328L32.3603 66.4491C33.8913 68.0555 35.642 69.4735 37.5307 70.6406ZM28.8339 95.4759C28.47 95.3379 28.3068 94.9175 28.47 94.5849L39.0617 71.4752C41.0069 72.4729 43.1214 73.2258 45.3176 73.64L42.199 85.587C42.1175 85.9447 41.7033 86.1705 41.3394 86.0325L39.3692 85.3109L36.0624 97.3395C35.9494 97.6972 35.5604 97.9231 35.1965 97.7788L28.8088 95.4508L28.8339 95.4759ZM50.0111 74.1419C51.2597 74.1419 52.4833 74.0541 53.6755 73.8596L54.8426 86.1392C54.874 86.5282 54.5665 86.8608 54.1775 86.8608H52.0943L53.0919 99.2784C53.1484 99.6674 52.8472 100 52.4582 100H45.6439C45.2862 100 44.9787 99.6674 45.0038 99.2784L47.0619 73.9474C48.0345 74.0855 49.0071 74.1419 50.0111 74.1419ZM60.9604 28.4432C59.0153 27.4707 56.9321 26.7177 54.7045 26.2785L57.8168 14.3314C57.9297 13.9675 58.3188 13.7479 58.6827 13.8859L60.653 14.6075L63.9597 2.5789C64.0727 2.22125 64.4617 1.99536 64.8256 2.1334L71.2133 4.46759C71.5772 4.60563 71.7466 4.99467 71.5772 5.3586L60.9604 28.4432ZM85.5322 15.4421L67.6555 33.5258C66.1559 31.9132 64.4366 30.5014 62.5165 29.3343L69.5191 19.163C69.745 18.8618 70.1905 18.7739 70.4917 19.0249L72.1043 20.3865L79.3328 10.2215C79.5524 9.91404 79.9979 9.85756 80.274 10.1086L85.5008 14.4695C85.8083 14.7205 85.8083 15.166 85.5322 15.4421ZM95.1764 29.6919L72.2172 40.5848C71.3262 38.5267 70.1905 36.6066 68.7975 34.8874L78.8559 27.7217C79.1633 27.4707 79.6088 27.5836 79.8034 27.9162L80.8575 29.7233L91.1167 22.6391C91.4241 22.4446 91.8633 22.5262 92.0579 22.8588L95.4776 28.7507C95.6721 29.0833 95.5654 29.4974 95.2015 29.6668L95.1764 29.6919ZM98.8157 38.8844L99.9828 45.5795C100.039 45.9685 99.7883 46.3011 99.3993 46.3575L74.0808 48.7168C73.9679 46.4391 73.5224 44.2743 72.8322 42.2162L84.729 38.9408C85.0867 38.8279 85.4757 39.0789 85.5322 39.4679L85.8961 41.526L97.9561 38.3824C98.32 38.3008 98.7091 38.5267 98.7593 38.9157L98.8157 38.8844ZM97.6486 63.4373L73.0518 57.0183C73.6918 54.9351 74.0557 52.7452 74.1122 50.4675L86.4232 51.4651C86.8122 51.5216 87.0632 51.8542 87.0067 52.2432L86.6428 54.3013L99.0667 55.4684C99.4557 55.5186 99.7067 55.8512 99.6503 56.2402L98.4832 62.9353C98.4267 63.3243 98.0377 63.5502 97.68 63.4687L97.6486 63.4373ZM91.1167 78.7413C90.9221 79.0739 90.4766 79.1554 90.1692 78.9609L69.243 64.5165C70.5795 62.7659 71.6588 60.8207 72.4682 58.7375L83.6937 63.8765C84.0576 64.0459 84.1957 64.4601 84.0011 64.7926L82.947 66.5997L94.2289 71.9332C94.5615 72.1027 94.6995 72.5168 94.505 72.8493L91.1167 78.7413ZM63.1001 70.214C64.9637 69.0218 66.6328 67.5472 68.1073 65.8844L76.917 74.5498C77.1931 74.8259 77.1931 75.2714 76.8856 75.5224L75.273 76.8526L84.0325 85.7188C84.2835 85.9949 84.2835 86.4404 83.976 86.6851L78.7806 91.0523C78.4982 91.297 78.0527 91.2468 77.8331 90.9393L63.1315 70.214H63.1001ZM62.9871 98.4376C62.6295 98.5756 62.2405 98.356 62.1275 97.9921L55.401 73.4956C57.5972 72.9937 59.6804 72.1905 61.6004 71.1301L66.9088 82.274C67.072 82.6316 66.9088 83.052 66.5449 83.1587L64.5746 83.8803L69.7701 95.2187C69.9332 95.5763 69.7701 95.9654 69.4062 96.1034L63.0185 98.4376H62.9871Z" clip-rule="evenodd"/></g><defs><clipPath id="clip0_681_2076"><rect width="100" height="100" fill="#fff"/></clipPath></defs></svg>