<svg xmlns="http://www.w3.org/2000/svg" width="100" height="100" fill="none" viewBox="0 0 100 100"><path fill="#EB6E4B" d="M5.61404 47.8421V55.5614C5.61404 55.949 5.29985 56.2632 4.91228 56.2632H2.75583C2.328 56.2632 1.90604 56.3628 1.52338 56.5541L0.313834 57.1589C0.121496 57.255 0 57.4516 0 57.6667V59.5595C0 60.569 0.50456 61.5118 1.34458 62.0718C1.84058 62.4025 2.42337 62.5789 3.01949 62.5789H15.2261C15.8222 62.5789 16.405 62.7554 16.901 63.0861C17.7411 63.6461 18.2456 64.5889 18.2456 65.5984V66.2507C18.2456 67.045 17.9301 67.8068 17.3684 68.3684C16.8068 68.9301 16.045 69.2456 15.2507 69.2456H14.5281C13.7561 69.2456 13.0085 69.5163 12.4155 70.0105L12.3724 70.0464C11.6473 70.6506 11.2281 71.5457 11.2281 72.4896C11.2281 73.3331 11.5632 74.1421 12.1596 74.7385L12.2807 74.8596C12.9547 75.5336 13.8688 75.9123 14.822 75.9123H34.3008C35.254 75.9123 36.1681 76.2909 36.8421 76.9649L37.0288 77.1516C37.5832 77.706 37.8947 78.4581 37.8947 79.2422C37.8947 80.2308 37.4007 81.1539 36.5782 81.7023L36.5502 81.7209C36.0542 82.0516 35.4714 82.2281 34.8752 82.2281H21.1948C20.2154 82.2281 19.2866 82.6631 18.6596 83.4155C18.1654 84.0085 17.8947 84.7561 17.8947 85.5281V86.1924C17.8947 86.8061 18.1036 87.4014 18.4869 87.8805C18.9997 88.5216 19.7761 88.8947 20.597 88.8947H78.6567C79.2921 88.8947 79.9016 88.6423 80.3509 88.193C80.8002 87.7437 81.0526 87.1342 81.0526 86.4988V85.6982C81.0526 84.8281 80.6892 83.9976 80.0501 83.4071C79.4738 82.8747 78.718 82.5789 77.9334 82.5789H57.2315C56.0935 82.5789 55.0124 82.0817 54.2718 81.2177L53.9797 80.8769C53.5626 80.3903 53.3333 79.7705 53.3333 79.1296C53.3333 78.4176 53.6162 77.7347 54.1197 77.2312L54.386 76.9649C55.06 76.2909 55.9741 75.9123 56.9272 75.9123H59.8943C60.6477 75.9123 61.3822 75.6769 61.9952 75.239L62.085 75.1748C62.9785 74.5367 63.5088 73.5063 63.5088 72.4083V72.2405C63.5088 71.4462 63.1932 70.6845 62.6316 70.1228C62.0699 69.5611 61.3082 69.2456 60.5138 69.2456H58.1854C57.55 69.2456 56.9406 68.9932 56.4912 68.5439C56.0419 68.0945 55.7895 67.4851 55.7895 66.8497V66.4386C55.7895 65.5399 56.1465 64.6781 56.7819 64.0427L57.0175 63.807C57.8039 63.0207 58.8703 62.5789 59.9824 62.5789H93.578C94.0828 62.5789 94.5542 62.3267 94.8342 61.9067C94.9995 61.6587 95.0877 61.3673 95.0877 61.0692V58.3299C95.0877 58.123 95.0544 57.9175 94.989 57.7212C94.8275 57.237 94.4803 56.8367 94.0238 56.6084L93.8428 56.5179C93.5078 56.3504 93.1383 56.2632 92.7637 56.2632H87.3809C84.7197 56.2632 82.6174 54.0053 82.807 51.3509V47.9865C82.807 46.0231 82.6249 44.064 82.2631 42.1343C81.9246 40.3289 81.4301 38.5562 80.7851 36.8363L79.6491 33.807L78.7622 32.0331C77.7182 29.9451 76.4884 27.9553 75.0877 26.0877L71.9298 22.5789L70.1243 21.0314C68.0568 19.2592 65.8438 17.6642 63.5088 16.2632L57.8947 13.4561L55.6567 12.5236C54.3455 11.9773 52.9793 11.5736 51.5818 11.3195C50.4127 11.1069 49.2268 11 48.0385 11H43.5088L40.9508 11.2842C38.4494 11.5622 35.9734 12.0344 33.5453 12.6966L32.3407 13.0251C30.433 13.5454 28.574 14.2304 26.7848 15.0724C24.6069 16.0973 22.5434 17.3495 20.6288 18.8083L19.5735 19.6124C17.2943 21.3489 15.2497 23.3732 13.4906 25.6349C11.9869 27.5683 10.7018 29.6621 9.65893 31.8783L8.42105 34.5088L6.66667 39.4211L6.48191 40.2216C5.90519 42.7208 5.61404 45.2773 5.61404 47.8421Z"/><path fill="#EB6E4B" d="M78.977 69.2456H71.1769C70.749 69.2456 70.3271 69.3452 69.9444 69.5366C69.0108 70.0034 68.4211 70.9576 68.4211 72.0014V73.2437C68.4211 74.2532 68.9256 75.196 69.7656 75.756C70.2616 76.0867 70.8444 76.2632 71.4405 76.2632H78.7012C79.3148 76.2632 79.9102 76.0543 80.3893 75.671C81.0303 75.1582 81.4035 74.3818 81.4035 73.5609V71.6721C81.4035 70.8198 80.9563 70.0299 80.2254 69.5914C79.8483 69.3651 79.4168 69.2456 78.977 69.2456Z"/><path fill="#EB6E4B" d="M97.8947 69.2456H89.4737C89.0182 69.2456 88.5749 69.3934 88.2105 69.6667C87.6804 70.0643 87.3684 70.6882 87.3684 71.3509V73.1565C87.3684 74.2003 87.9582 75.1545 88.8918 75.6213C89.2745 75.8127 89.6964 75.9123 90.1242 75.9123H97.2442C97.672 75.9123 98.094 75.8127 98.4766 75.6213C99.4102 75.1545 100 74.2003 100 73.1565V71.3509C100 70.6882 99.688 70.0643 99.1579 69.6667C98.7935 69.3934 98.3503 69.2456 97.8947 69.2456Z"/></svg>