<svg width="100" height="100" viewBox="0 0 100 100" fill="none" xmlns="http://www.w3.org/2000/svg">
<path d="M93.1761 40.9334C95.4427 34.1335 94.665 26.6669 91.0428 20.4669C85.5762 10.9559 74.6207 6.08931 63.9097 8.37818C59.1542 3.00045 52.2876 -0.0439641 45.1099 0.000479893C34.1544 -0.0217421 24.4434 7.02264 21.0657 17.4448C14.0213 18.8892 7.95469 23.2891 4.39917 29.5335C-1.08967 39.0001 0.154763 50.9555 7.51025 59.0666C5.2436 65.8665 6.02137 73.3331 9.64356 79.5331C15.1102 89.0441 26.0656 93.9107 36.7766 91.6218C41.5321 96.9996 48.3987 100.044 55.5765 99.9995C66.5319 100.022 76.2429 92.9774 79.6207 82.533C86.665 81.0886 92.7316 76.6886 96.2872 70.4442C101.776 60.9777 100.532 49.0445 93.1761 40.9112V40.9334ZM55.5987 93.4663C51.2209 93.4663 46.9765 91.9329 43.5988 89.133C43.7543 89.0441 44.021 88.9107 44.1988 88.7996L64.1097 77.2886C65.1319 76.7109 65.7541 75.622 65.7541 74.4442V46.3778L74.1763 51.2444C74.1763 51.2444 74.3318 51.3778 74.3318 51.4667V74.7109C74.3318 85.0441 65.9541 93.4218 55.5987 93.444V93.4663ZM15.3324 76.2664C13.1324 72.4665 12.3546 68.022 13.088 63.711C13.2435 63.7999 13.488 63.9554 13.688 64.0665L33.5989 75.5775C34.5989 76.1775 35.8655 76.1775 36.8655 75.5775L61.1764 61.5332V71.2442C61.1764 71.2442 61.132 71.4442 61.0653 71.5109L40.9322 83.133C31.9767 88.2885 20.5101 85.2219 15.3324 76.2664ZM10.088 32.8002C12.2658 29.0002 15.7324 26.0891 19.8435 24.578C19.8435 24.7558 19.8435 25.0447 19.8435 25.2669V48.2667C19.8435 49.4444 20.4657 50.5111 21.4879 51.0889L45.7988 65.1332L37.3766 69.9998C37.3766 69.9998 37.1766 70.0665 37.0877 70.022L16.9546 58.3999C7.99913 53.2222 4.9325 41.7779 10.088 32.8002ZM79.2429 48.8889L54.932 34.8446L63.3542 29.978C63.3542 29.978 63.5542 29.9113 63.643 29.9557L83.7762 41.5779C92.7317 46.7556 95.8205 58.2221 90.6428 67.1776C88.4428 70.9776 84.9984 73.8887 80.8873 75.3998V51.7111C80.8873 50.5333 80.2651 49.4667 79.2651 48.8889H79.2429ZM87.6206 36.289C87.465 36.2001 87.2206 36.0446 87.0206 35.9335L67.1097 24.4225C66.1097 23.8225 64.843 23.8225 63.843 24.4225L39.5322 38.4668V28.7558C39.5322 28.7558 39.5766 28.5558 39.6433 28.4891L59.7764 16.867C68.7319 11.6893 80.1984 14.7781 85.3762 23.7336C87.5539 27.5113 88.3539 31.9557 87.6206 36.2668V36.289ZM34.9544 53.6222L26.5323 48.7556C26.5323 48.7556 26.3767 48.6222 26.3767 48.5333V25.2891C26.3767 14.9337 34.7767 6.55597 45.1321 6.55597C49.5098 6.55597 53.7543 8.08929 57.1098 10.8893C56.9542 10.9782 56.6876 11.1115 56.5098 11.2226L36.5989 22.7336C35.5766 23.3114 34.9544 24.4002 34.9544 25.5558V53.6222ZM39.5322 43.7556L50.3543 37.5112L61.1764 43.7556V56.2666L50.3543 62.511L39.5322 56.2666V43.7556Z" fill="black"/>
</svg>
