<svg xmlns="http://www.w3.org/2000/svg" width="100" height="100" fill="none" viewBox="0 0 100 100"><g clip-path="url(#clip0_681_2080)"><path fill="#47B972" d="M100 0H0V100H100V0Z"/><path fill="#fff" d="M73.124 22.1249V36.8749L72.874 36.9999C70.749 35.2499 67.999 34.1249 64.499 34.1249C59.999 34.1249 55.874 35.7499 53.124 38.9999L57.374 43.4999C59.499 41.4999 61.749 40.3749 64.624 40.3749C69.999 40.4999 73.499 44.6249 73.499 50.1249C73.499 55.6249 69.874 59.8749 64.374 59.8749C50.624 59.8749 54.499 34.1249 35.999 34.1249C26.749 34.1249 20.249 40.9999 20.249 50.1249V77.9999H26.874V63.1249L27.124 62.9999C29.249 64.7499 31.999 65.8749 35.499 65.8749C39.999 65.8749 44.124 64.2499 46.874 60.9999L42.624 56.4999C40.499 58.4999 38.249 59.6249 35.374 59.6249C29.999 59.4999 26.499 55.3749 26.499 49.8749C26.499 44.3749 30.124 40.1249 35.624 40.1249C49.374 40.1249 45.499 65.8749 63.999 65.8749C73.249 65.8749 79.749 58.9999 79.749 49.8749V22.1249H73.124Z"/></g><defs><clipPath id="clip0_681_2080"><rect width="100" height="100" fill="#fff"/></clipPath></defs></svg>