<svg xmlns="http://www.w3.org/2000/svg" width="100" height="100" fill="none" viewBox="0 0 100 100"><g clip-path="url(#clip0_681_2087)"><path fill="#000" d="M48.3387 52.6599C45.1587 63.9999 42.5387 73.5199 42.3387 74.7999C41.8187 78.2799 36.6787 77.7199 36.9787 74.1799C37.0987 73.1199 39.2187 65.2799 41.8387 55.9599C38.1587 57.6799 35.1387 58.7799 33.2587 59.0199C30.7187 59.4399 28.5987 57.9799 28.7987 55.7799C28.9587 54.2999 30.3187 53.2199 31.7987 53.3799C32.0987 53.4199 32.3787 53.4999 32.6587 53.6199C34.2587 53.3999 38.3587 51.6999 43.7587 48.8999C46.4587 39.2999 49.2587 29.4599 50.6587 24.5799C51.7787 21.2799 56.6587 22.6799 55.8387 26.0599C54.1787 31.8599 52.2587 38.6199 50.3787 45.2399C52.6987 43.8999 55.1787 42.3999 57.6387 40.7999C71.1187 32.0799 80.2987 23.7599 82.1587 18.4399C82.8187 16.4399 82.3387 15.5399 81.3587 14.7799C78.9987 12.9399 71.7387 12.7199 58.4387 17.5799C38.4987 24.8599 17.4387 38.9799 15.4387 46.3399C16.3587 46.4199 17.3587 46.3399 18.0587 47.0599C19.1787 48.0599 19.2587 49.7799 18.2387 50.8999C17.9787 51.1799 17.6787 51.3999 17.3387 51.5599C14.3187 52.6399 8.93866 50.3399 10.0987 45.4599C11.4387 39.1799 20.0187 32.2799 26.9787 27.5799C36.2387 21.4199 46.1787 16.3599 56.5987 12.4999C66.1187 9.01992 78.6987 5.85992 84.6787 10.4999C87.4787 12.6799 88.4787 15.8399 87.5387 19.3399C86.3187 23.8999 80.9187 31.9399 62.1587 44.2999C57.4787 47.3799 52.6787 50.2399 48.3187 52.6199L48.3387 52.6599Z"/><path fill="#000" d="M86.9617 86.04H15.7617V91H86.9617V86.04Z"/><path fill="#000" d="M67.0075 74.761C67.5301 72.7969 66.5173 70.8225 64.7454 70.351C62.9735 69.8795 61.1134 71.0895 60.5908 73.0536C60.0682 75.0177 61.081 76.9921 62.8529 77.4635C64.6248 77.935 66.4849 76.725 67.0075 74.761Z"/></g><defs><clipPath id="clip0_681_2087"><rect width="100" height="100" fill="#fff"/></clipPath></defs></svg>