<svg xmlns="http://www.w3.org/2000/svg" width="100" height="100" fill="none" viewBox="0 0 100 100"><g clip-path="url(#clip0_681_2093)"><path fill="#202B3B" fill-rule="evenodd" d="M49.964 0.0504418C59.1416 0.0504418 68.3426 -0.0896743 77.5202 0.0971471C85.787 0.260616 92.5126 3.52999 96.8562 10.8861C99.1214 14.7159 99.892 18.9429 99.9154 23.3098C99.9621 41.3614 100.032 59.413 99.8687 77.488C99.7986 85.895 96.3658 92.714 88.8229 97.0342C85.0397 99.206 80.8829 99.9299 76.6094 99.9533C58.5578 100 40.5062 100.047 22.4312 99.9066C15.0751 99.8365 8.79329 97.1043 4.28623 90.9859C1.8809 87.6931 0.619855 83.9801 0.269565 79.94C0.106096 78.1652 0.0360381 76.3671 0.0360381 74.5923C0.0360381 57.2412 -0.0807253 39.8902 0.106096 22.5158C0.199507 13.5716 4.00599 6.54249 12.2728 2.40906C15.8924 0.587553 19.8157 0.0737945 23.8323 0.0737945C32.5429 0.0504418 41.2768 0.0737945 49.9874 0.0737945C49.9874 0.0737945 49.9874 0.0737944 49.9874 0.0971471L49.964 0.0504418ZM31.2819 81.0376H43.9157V60.8376C46.0174 61.8417 47.979 63.0794 50.1275 63.7333C58.3243 66.2087 67.1282 62.6124 71.7521 55.0227C75.1615 49.4414 75.9789 43.2997 75.325 36.9244C74.7879 31.8335 73.0598 27.1863 69.6503 23.2397C63.4618 16.1172 50.6646 14.2489 43.3085 22.399C43.1917 22.5392 43.0283 22.6559 42.8648 22.796C41.9073 20.4841 41.2535 19.6668 39.6655 19.1997C38.5912 18.8961 37.447 18.7327 36.3494 18.7093C33.08 18.6393 29.8106 18.7093 26.5413 18.7093H25.1167V31.2964C26.658 31.2964 28.1292 31.2964 29.6005 31.2964C30.737 31.2964 31.3052 31.8489 31.3052 32.9545C31.3052 48.4373 31.3052 63.9435 31.3052 79.4263C31.3052 79.9167 31.3052 80.4305 31.3052 81.061L31.2819 81.0376Z" clip-rule="evenodd"/><path fill="#fff" fill-rule="evenodd" d="M31.2881 81.0376V79.4029C31.2881 63.9201 31.2881 48.4139 31.2881 32.9311C31.2881 31.8258 30.7199 31.273 29.5833 31.273C28.1121 31.273 26.6409 31.273 25.0996 31.273V18.6859H26.5241C29.7935 18.6859 33.0629 18.6392 36.3322 18.6859C37.4532 18.6859 38.5975 18.8728 39.6483 19.1764C41.2597 19.6434 41.8902 20.4608 42.8476 22.7727C43.0111 22.6326 43.1512 22.5158 43.2913 22.3757C50.6474 14.2256 63.4681 16.0705 69.6332 23.2164C73.0427 27.163 74.7708 31.7868 75.3079 36.901C75.9617 43.2763 75.1444 49.4181 71.7349 54.9994C67.1111 62.5656 58.2838 66.1853 50.1103 63.7099C47.9619 63.056 45.9769 61.795 43.8985 60.8142V81.0142C39.625 81.0142 35.5149 81.0142 31.2647 81.0142L31.2881 81.0376ZM64.0752 40.5207C64.0752 38.3256 63.7016 35.8268 62.5106 33.5383C60.6657 30.0354 57.7934 28.1204 53.7533 28.2372C49.76 28.3306 46.7709 30.1988 45.2063 33.8418C43.2446 38.3723 43.2446 43.0194 45.323 47.5265C46.9577 51.0761 49.7834 53.1078 53.7767 53.0844C57.8401 53.0844 60.8292 51.1462 62.6507 47.5265C63.7016 45.4248 64.0519 43.1829 64.0752 40.4974V40.5207Z" clip-rule="evenodd"/><path fill="#202B3B" fill-rule="evenodd" d="M64.071 40.5207C64.0477 43.2063 63.7207 45.4715 62.6465 47.5499C60.8016 51.1695 57.8125 53.1078 53.7725 53.1078C49.7792 53.1078 46.9535 51.0995 45.3188 47.5499C43.2404 43.0428 43.2404 38.3956 45.2021 33.8652C46.7667 30.1988 49.7558 28.354 53.7491 28.2606C57.7892 28.1672 60.6615 30.0587 62.5064 33.5616C63.6974 35.8502 64.071 38.3489 64.071 40.5441V40.5207Z" clip-rule="evenodd"/></g><defs><clipPath id="clip0_681_2093"><rect width="100" height="100" fill="#fff"/></clipPath></defs></svg>