<svg width="50" height="50" viewBox="0 0 50 50" fill="none" xmlns="http://www.w3.org/2000/svg">
<path fill-rule="evenodd" clip-rule="evenodd" d="M25.0995 3.71996C29.0295 3.71996 32.9695 3.65996 36.8995 3.73996C40.4395 3.80996 43.3195 5.20996 45.1795 8.35996C46.1495 9.99996 46.4795 11.81 46.4895 13.68C46.5095 21.41 46.5395 29.14 46.4695 36.88C46.4395 40.48 44.9695 43.4 41.7395 45.25C40.1195 46.18 38.3395 46.49 36.5095 46.5C28.7795 46.52 21.0495 46.54 13.3095 46.48C10.1595 46.45 7.46953 45.28 5.53953 42.66C4.50953 41.25 3.96953 39.66 3.81953 37.93C3.74953 37.17 3.71953 36.4 3.71953 35.64C3.71953 28.21 3.66953 20.78 3.74953 13.34C3.78953 9.50996 5.41953 6.49996 8.95953 4.72996C10.5095 3.94996 12.1895 3.72996 13.9095 3.72996C17.6395 3.71996 21.3795 3.72996 25.1095 3.72996C25.1095 3.72996 25.1095 3.72996 25.1095 3.73996L25.0995 3.71996ZM17.0995 38.4H22.5095V29.75C23.4095 30.18 24.2495 30.71 25.1695 30.99C28.6795 32.05 32.4495 30.51 34.4295 27.26C35.8895 24.87 36.2395 22.24 35.9595 19.51C35.7295 17.33 34.9895 15.34 33.5295 13.65C30.8795 10.6 25.3995 9.79996 22.2495 13.29C22.1995 13.35 22.1295 13.4 22.0595 13.46C21.6495 12.47 21.3695 12.12 20.6895 11.92C20.2295 11.79 19.7395 11.72 19.2695 11.71C17.8695 11.68 16.4695 11.71 15.0695 11.71H14.4595V17.1C15.1195 17.1 15.7495 17.1 16.3795 17.1C16.8662 17.1 17.1095 17.3366 17.1095 17.81C17.1095 24.44 17.1095 31.08 17.1095 37.71C17.1095 37.92 17.1095 38.14 17.1095 38.41L17.0995 38.4Z" fill="#202B3B"/>
<path fill-rule="evenodd" clip-rule="evenodd" d="M17.1002 38.4V37.7C17.1002 31.07 17.1002 24.43 17.1002 17.8C17.1002 17.3267 16.8569 17.09 16.3702 17.09C15.7402 17.09 15.1102 17.09 14.4502 17.09V11.7H15.0602C16.4602 11.7 17.8602 11.68 19.2602 11.7C19.7402 11.7 20.2302 11.78 20.6802 11.91C21.3702 12.11 21.6402 12.46 22.0502 13.45C22.1202 13.39 22.1802 13.34 22.2402 13.28C25.3902 9.79 30.8802 10.58 33.5202 13.64C34.9802 15.33 35.7202 17.31 35.9502 19.5C36.2302 22.23 35.8802 24.86 34.4202 27.25C32.4402 30.49 28.6602 32.04 25.1602 30.98C24.2402 30.7 23.3902 30.16 22.5002 29.74V38.39C20.6702 38.39 18.9102 38.39 17.0902 38.39L17.1002 38.4ZM31.1402 21.05C31.1402 20.11 30.9802 19.04 30.4702 18.06C29.6802 16.56 28.4502 15.74 26.7202 15.79C25.0102 15.83 23.7302 16.63 23.0602 18.19C22.2202 20.13 22.2202 22.12 23.1102 24.05C23.8102 25.57 25.0202 26.44 26.7302 26.43C28.4702 26.43 29.7502 25.6 30.5302 24.05C30.9802 23.15 31.1302 22.19 31.1402 21.04V21.05Z" fill="white"/>
<path fill-rule="evenodd" clip-rule="evenodd" d="M31.1404 21.05C31.1304 22.2 30.9904 23.17 30.5304 24.06C29.7404 25.61 28.4604 26.44 26.7304 26.44C25.0204 26.44 23.8104 25.58 23.1104 24.06C22.2204 22.13 22.2204 20.14 23.0604 18.2C23.7304 16.63 25.0104 15.84 26.7204 15.8C28.4504 15.76 29.6804 16.57 30.4704 18.07C30.9804 19.05 31.1404 20.12 31.1404 21.06V21.05Z" fill="#202B3B"/>
</svg>
