<svg xmlns="http://www.w3.org/2000/svg" width="100" height="100" fill="none" viewBox="0 0 100 100"><g clip-path="url(#clip0_681_2097)"><path fill="#151515" fill-rule="evenodd" d="M49.9642 0.0504408C59.1415 0.0504408 68.3427 -0.089673 77.5203 0.0971462C85.787 0.260613 92.5128 3.53008 96.8564 10.8861C99.1216 14.7159 99.8922 18.9428 99.9156 23.3097C99.9623 41.3611 100.032 59.4132 99.8689 77.488C99.7988 85.895 96.3657 92.714 88.8231 97.0342C85.0399 99.206 80.8831 99.9299 76.6096 99.9533C58.5582 100 40.5061 100.047 22.4313 99.9066C15.0753 99.8365 8.79324 97.1043 4.28624 90.9859C1.88094 87.6931 0.61985 83.98 0.269564 79.94C0.106098 78.1652 0.0360371 76.3671 0.0360371 74.5923C0.0360371 57.2414 -0.080724 39.8899 0.106095 22.5158C0.199506 13.5718 4.0061 6.54244 12.2729 2.40906C15.8925 0.587569 19.8158 0.0737888 23.8325 0.0737888C32.5428 0.0504361 41.277 0.0737888 49.9875 0.0737888C49.9875 0.0737888 49.9875 0.0737935 49.9875 0.0971462L49.9642 0.0504408Z" clip-rule="evenodd"/><path fill="#fff" d="M55.6665 24.6712C55.809 24.6876 55.9491 24.7086 56.0658 24.7319C60.1222 25.2667 63.8446 27.2587 66.5349 30.3319C72.3941 37.0295 72.0648 47.1015 65.7806 53.4044C62.6233 56.5663 58.3334 58.3458 53.859 58.3458C53.6979 58.3458 53.5438 58.3365 53.3873 58.3248C53.2986 58.3201 53.2098 58.3131 53.1211 58.3108H42.0122V77.3736H32.1924V24.5708H53.8987L53.9384 24.5755C54.4989 24.5755 55.0617 24.6035 55.6245 24.6619L55.6665 24.6712ZM58.5833 33.2347H42.0122V49.8338H58.5833V33.2276V33.2347Z"/><path fill="#D9D9D9" d="M81.7094 78.7751H69.5566V66.606H81.7094V78.7751Z"/></g><defs><clipPath id="clip0_681_2097"><rect width="100" height="100" fill="#fff"/></clipPath></defs></svg>