<?xml version="1.0" encoding="UTF-8"?><svg id="Layer_1" xmlns="http://www.w3.org/2000/svg" viewBox="0 0 50 50"><defs><style>.cls-1{fill:#fff;}.cls-2{fill:#32648c;}</style></defs><path class="cls-1" d="m45.49,28.4c-1.1-.84-1.78-.52-2.51-.36-.66.15-1.41.25-2.19.27h0c2.11-3.6,3.63-7.44,4.5-10.83.51-2,.8-3.84.82-5.46.03-1.61-.1-3.05-1.06-4.28-2.99-3.86-7.19-4.93-10.44-4.97h-.3c-1.77,0-3.48.28-5.08.76l-.08.02c-.93-.17-2.01-.28-3.12-.31h0c-2.16-.03-4.01.5-5.51,1.38-1.47-.52-4.52-1.41-7.75-1.23-2.24.12-4.68.82-6.49,2.75-1.81,1.94-2.77,4.94-2.57,9.01.06,1.13.38,2.96.91,5.34.52,2.37,1.25,5.16,2.18,7.7.92,2.54,1.93,4.81,3.5,6.36.79.78,1.87,1.43,3.15,1.37.9-.04,1.71-.44,2.41-1.03.34.46.71.66,1.04.84.42.24.83.39,1.24.5.76.19,2.05.45,3.56.18.52-.08,1.06-.25,1.6-.5.02.62.04,1.21.06,1.82.08,1.91.13,3.69.7,5.25.09.25.34,1.56,1.33,2.71.99,1.17,2.92,1.88,5.13,1.4,1.55-.34,3.53-.95,4.85-2.84,1.29-1.87,1.88-4.56,2-8.91.03-.24.06-.44.1-.63l.31.03h.04c1.66.08,3.46-.16,4.97-.87,1.32-.63,2.34-1.26,3.07-2.38.19-.28.39-.62.45-1.19.05-.58-.28-1.48-.82-1.9Z"/><g><circle cx="43.52" cy="30.43" r="0"/><path class="cls-2" d="m38.01,30.08h0s0,0,0,0c-.27.1-.49.14-.68.22-.19.08-.35.22-.44.39h0c-.12.22-.22.6-.19,1.24.08.06.17.1.26.13h0c.31.1.84.16,1.43.15,1.17-.01,2.62-.29,3.38-.65.66-.31,1.23-.69,1.73-1.14-2.56.54-4.01.39-4.89.02-.23-.1-.43-.23-.61-.38Z"/><polygon class="cls-2" points="35.39 10.39 35.4 10.41 35.41 10.42 35.39 10.39"/><path class="cls-2" d="m25.59,38.58s0-.09,0-.14c0-.02,0-.03,0-.05v.19Zm-1.96-8.21c-.11-.05-.23-.09-.37-.11h0s-.04,0-.04,0c-.1,0-.24.04-.51.35-.64.73-.86,1.18-1.39,1.61-.53.42-1.21.65-2.58.94-.43.09-.68.19-.85.27.05.04.05.06.13.1.2.11.46.21.67.26.59.15,1.56.32,2.56.15,1.01-.17,2.06-.66,2.95-1.94.15-.22.17-.54.04-.89-.13-.35-.41-.65-.61-.73Zm7.52-24.91l-.11.02s.07-.01.11-.02c0,0,0,0,0,0Zm5.18,10.05c-1.25.02-1.95.34-2.32.77-.52.6-.57,1.67-.25,2.97.32,1.31.99,2.77,1.61,3.99.31.61.62,1.16.86,1.6.25.45.43.76.54,1.03.1.25.21.47.33.67.48-1.03.57-2.05.52-3.1-.06-1.31-.36-2.65-.32-4,.05-1.58.36-2.61.39-3.84-.41-.06-.88-.09-1.36-.09Zm.23.94h0v.03c0,.09-.02.17-.07.23h0c-.06.1-.12.2-.2.28-.18.2-.43.34-.7.39h0s-.08,0-.13,0c-.23,0-.45-.07-.63-.2h0c-.09-.06-.17-.13-.24-.22h0c-.06-.07-.1-.15-.12-.23h0s0-.02,0-.03c0-.08.03-.15.08-.21.06-.07.13-.12.21-.17h0c.18-.1.42-.18.68-.22.1-.01.2-.02.29-.02h0s.09,0,.09,0c.12,0,.23.02.33.04.1.02.18.06.25.1.07.05.12.12.14.2h0Zm-20.71,7.26c0-.33.03-.66.07-.98v.04c.19-1.38.21-2.66.19-3.68-.02-.99-.09-1.65-.09-2.06v-.04h0s0-.02,0-.02h0c0-2.21.39-4.33,1.09-6.29.52-1.38,1.28-2.79,2.43-3.93-1.13-.38-3.13-.95-5.3-1.06-.21-.01-.45-.02-.7-.02h0c-.23,0-.47,0-.7.02-1.86.11-3.61.65-4.87,2-1.26,1.35-2.09,3.56-1.91,7.21.04.69.33,2.63.84,4.94.51,2.3,1.23,5.02,2.1,7.41.87,2.4,1.92,4.48,2.92,5.47.5.49.94.69,1.34.68.4-.02.88-.25,1.46-.96,1.15-1.4,2.24-2.64,3.36-3.85l-.04.04c-1.36-1.2-2.21-2.96-2.21-4.92Z"/><path class="cls-2" d="m25.74,5.59h0c-2.17,0-3.73.67-4.92,1.66-1.22,1.03-2.04,2.44-2.57,3.88-.64,1.71-.86,3.37-.94,4.49h.02c.66-.39,1.52-.76,2.44-.98.92-.22,1.92-.28,2.82.07s1.65,1.19,1.92,2.45c1.29,6.06-.4,8.32-1.03,10.02-.2.49-.41,1.12-.58,1.76l-.03.12c.08-.02.16-.04.24-.05.44-.04.79.11.99.2.63.26,1.06.82,1.29,1.45.06.17.1.34.13.53.02.06.04.14.04.21v.02c-.03.93-.05,2.02-.05,3.12,0,1.3.03,2.6.07,3.89.04.98.1,1.85.18,2.53.08.7.19,1.22.26,1.4.23.6.58,1.38,1.2,1.91.62.53,1.51.88,3.14.53,1.41-.31,2.28-.73,2.87-1.35.58-.61.93-1.46,1.15-2.77.33-1.95,1-7.62,1.08-8.69-.04-.8.08-1.42.33-1.89.26-.48.67-.78,1.01-.94.17-.08.34-.13.47-.17-.16-.24-.31-.43-.46-.63l.02.02c-.48-.59-.89-1.26-1.2-1.99l-.02-.05c-.19-.39-.35-.68-.51-.97l.04.07c-.24-.45-.55-1-.88-1.63-.65-1.26-1.35-2.78-1.72-4.26-.36-1.48-.42-3.01.52-4.1.83-.96,2.28-1.36,4.46-1.14-.06-.2-.1-.36-.21-.62-.53-1.25-1.17-2.32-1.93-3.3-1.85-2.39-4.84-4.75-9.45-4.82h-.2Zm-1.44,28.1v.07h0v-.07Z"/><polygon class="cls-2" points="17.28 17.13 17.28 17.13 17.29 17.12 17.28 17.13"/><polygon class="cls-2" points="20.01 15.87 20.03 15.87 20.05 15.86 20.01 15.87"/><path class="cls-2" d="m22.32,26.74c.75-2.04,2.21-3.52.98-9.32-.2-.95-.6-1.33-1.15-1.55-.27-.1-.58-.16-.9-.16h-.06,0c-.4,0-.78.05-1.15.14-.78.2-1.47.48-2.11.83-.24.13-.45.27-.64.42l-.04.03c.01.27.06.93.09,1.9.02,1.06,0,2.41-.21,3.88-.44,3.18,1.84,5.82,4.52,5.82.16-.65.42-1.32.67-2.01Zm-1.58-9.25h0c-.09-.09-.16-.19-.22-.3h0c-.05-.09-.08-.18-.08-.28,0-.02,0-.04,0-.06h0c.03-.2.19-.3.35-.36.15-.05.31-.08.49-.08.03,0,.05,0,.08,0h0c.1,0,.2,0,.31.02.28.04.53.12.72.23.09.05.18.12.24.2h0c.06.07.1.17.1.28,0,.01,0,.03,0,.04h0c-.02.11-.07.21-.14.28-.08.09-.16.17-.26.24h0c-.19.14-.42.22-.68.22-.05,0-.1,0-.15,0h0c-.31-.05-.57-.2-.77-.42Z"/><path class="cls-2" d="m17.89,16.72s.03-.01.04-.02c0,0,0,0,0,0l-.04.02Zm18.5-7.07c.81,1.03,1.5,2.21,2.04,3.47l.04.1c.2.49.34.91.42,1.23.04.16.07.3.07.44,0,.07,0,.14-.02.27,0,0,0,.02-.01.02.06,1.63-.34,2.74-.39,4.29-.04,1.13.25,2.45.32,3.9.07,1.36-.09,2.85-.97,4.32.07.09.14.18.21.27,2.31-3.68,3.97-7.74,4.85-11.21.47-1.87.73-3.56.75-4.9.02-1.34-.23-2.31-.54-2.72-2.47-3.19-5.8-4.01-8.6-4.03h0s-.27,0-.27,0c-1.08.02-2.12.14-3.13.36,2.29,1.03,4.02,2.61,5.23,4.19Z"/><path d="m26.04,3.15h-.02c-2.17-.04-4.03.5-5.53,1.38-1.48-.52-4.54-1.41-7.78-1.24-2.25.12-4.71.82-6.53,2.76-1.81,1.94-2.77,4.95-2.57,9.05.06,1.13.37,2.97.9,5.36.53,2.39,1.27,5.18,2.19,7.73.92,2.55,1.94,4.84,3.52,6.39.79.78,1.88,1.43,3.16,1.38.9-.04,1.71-.44,2.42-1.03.34.46.71.66,1.04.84.42.23.83.39,1.25.5.76.19,2.06.45,3.58.19.52-.09,1.06-.26,1.61-.5.02.61.04,1.22.07,1.82.08,1.93.12,3.71.69,5.27.09.25.34,1.57,1.34,2.73.99,1.16,2.94,1.89,5.15,1.41,1.56-.34,3.55-.95,4.87-2.85,1.3-1.88,1.89-4.58,2.01-8.95.03-.24.07-.44.1-.63l.31.03h.04c1.67.08,3.48-.16,4.99-.87,1.34-.63,2.35-1.26,3.09-2.39.18-.28.39-.62.44-1.2.06-.58-.27-1.49-.82-1.91-1.09-.84-1.78-.52-2.52-.37-.66.15-1.42.25-2.19.27h-.01c2.13-3.62,3.65-7.47,4.52-10.88.52-2.01.8-3.86.83-5.48.02-1.62-.11-3.06-1.07-4.3-3-3.88-7.21-4.95-10.48-4.99-.1,0-.2,0-.3,0h0c-1.78,0-3.48.28-5.1.76l-.08.03c-.93-.17-2.02-.29-3.12-.31Zm4.41,1.19c1.14-.28,2.45-.45,3.8-.47h.01c3.09-.04,7.03.84,9.86,4.5.64.82.83,2.02.8,3.51-.02,1.48-.29,3.25-.79,5.19-.96,3.76-2.77,8.14-5.33,12.07.08.06.18.12.28.16h0c.53.23,1.75.42,4.17-.09.61-.13,1.06-.22,1.52.14.21.18.34.44.34.74,0,.02,0,.04,0,.06h0c-.03.23-.11.45-.24.62-.47.71-1.39,1.39-2.58,1.94-1.05.5-2.56.75-3.89.77-.67,0-1.29-.04-1.81-.21h-.03c-.2,1.96-.67,5.85-.97,7.63-.24,1.43-.67,2.57-1.48,3.42-.81.85-1.95,1.37-3.5,1.7-1.91.42-3.3-.03-4.2-.8-.9-.76-1.3-1.78-1.55-2.4-.17-.43-.26-.98-.34-1.72s-.15-1.65-.19-2.67c-.04-1.04-.06-2.26-.06-3.49,0-.4,0-.81,0-1.21-.77.71-1.74,1.22-2.82,1.41h-.03c-1.27.22-2.4,0-3.07-.16-.36-.09-.67-.22-.97-.38-.31-.17-.6-.36-.8-.73-.08-.14-.12-.32-.12-.5,0-.07,0-.15.02-.21.07-.25.21-.46.4-.61h0c.36-.3.84-.47,1.57-.62,1.32-.28,1.78-.46,2.06-.69.24-.19.51-.58.99-1.16,0-.02,0-.04,0-.07h0c-.9-.03-1.74-.28-2.47-.69h.03c-.28.31-1.68,1.82-3.4,3.91-.72.87-1.52,1.38-2.36,1.41s-1.6-.39-2.25-1.03c-1.29-1.27-2.32-3.46-3.22-5.93-.9-2.47-1.63-5.22-2.15-7.57-.52-2.34-.83-4.24-.87-5.15-.19-3.87.7-6.49,2.24-8.13,1.54-1.65,3.64-2.27,5.7-2.39,3.69-.21,7.19,1.09,7.89,1.37,1.37-.94,3.12-1.52,5.32-1.49,1.11.02,2.17.16,3.18.43l-.09-.02.04-.02c.36-.13.81-.27,1.27-.38l.08-.02Z"/></g></svg>