<svg xmlns="http://www.w3.org/2000/svg" width="100" height="100" fill="none" viewBox="0 0 100 100"><path stroke="#B04BA7" stroke-width="7.3" d="M23.5116 79.6642H50.5564H67.4446L77.4861 79.2078L78.9563 78.9977C80.1039 78.8338 81.2344 78.567 82.3341 78.2004C83.9635 77.6573 85.5132 76.8993 86.9422 75.9467L87.2687 75.7289C88.3516 75.007 89.3605 74.18 90.2808 73.2597C91.7826 71.7577 93.0332 70.0234 93.9826 68.1234L94.042 68.006C94.5669 66.9557 95.0005 65.8621 95.3373 64.7374L95.445 64.3792C95.9453 62.7108 96.2 60.9783 96.2 59.2365V59.1806C96.2 58.232 96.1215 57.2851 95.9654 56.3495C95.8175 55.4624 95.6011 54.5881 95.3163 53.7348L94.8307 52.2781L94.6207 51.7528C94.1533 50.5839 93.5819 49.4589 92.9146 48.3913C92.0647 47.0311 91.0631 45.7719 89.9288 44.6376L89.3535 44.0622L88.5369 43.3818C87.2617 42.3191 85.8455 41.4381 84.3286 40.764C83.1178 40.2258 81.8514 39.8232 80.5522 39.5633L78.3861 39.1302C78.0912 39.0712 77.791 39.0415 77.4902 39.0415H73.3782C73.1262 39.0415 72.9218 38.8371 72.9218 38.585C72.9218 37.9787 72.8474 37.3747 72.7004 36.7866L72.3971 35.5734C72.1388 34.5404 71.7873 33.533 71.3466 32.5636L71.0611 31.9355C70.177 29.9903 68.9949 28.1949 67.5576 26.6138L67.4788 26.5272C65.9459 24.841 64.1346 23.4309 62.1239 22.3586C59.6144 21.0202 56.8469 20.2358 54.0085 20.0584L53.6369 20.0352C51.8967 19.9264 50.1499 20.0703 48.4511 20.4624C46.2234 20.9764 44.1138 21.9089 42.2341 23.2102L41.1348 23.9712C39.8157 24.8845 38.6364 25.9848 37.6341 27.2377L35.935 29.3615C35.6441 29.7251 35.4309 30.1445 35.3084 30.5937L34.7438 32.6637C34.433 33.8031 33.12 34.3307 32.1073 33.7231C31.9321 33.618 31.7401 33.5438 31.5399 33.5037L30.3905 33.2738C29.8385 33.1634 29.2769 33.1078 28.7139 33.1078H27.7347C27.1301 33.1078 26.5294 33.2053 25.9557 33.3964L25.4525 33.5642L24.2515 34.0447C23.5338 34.3317 22.8571 34.712 22.2387 35.1758C21.645 35.6211 21.1099 36.1396 20.6463 36.7192L20.0459 37.4698C19.6955 37.9078 19.3924 38.3815 19.1415 38.8833C18.7864 39.5933 18.5396 40.3524 18.409 41.1356L18.3115 41.7207C18.2037 42.3678 18.1495 43.0226 18.1495 43.6786V44.0622C18.1495 45.1238 17.4002 46.0379 16.3592 46.246L15.8673 46.3444L14.0416 46.8009L13.8625 46.8606C13.0714 47.1243 12.3115 47.4737 11.5965 47.9028C10.7952 48.3835 10.056 48.9607 9.39526 49.6215L9.10898 49.9077C8.14203 50.8746 7.31457 51.9716 6.65047 53.167L6.3516 53.705C5.69864 54.8803 5.17445 56.1226 4.78809 57.4105L4.6015 58.0325C4.20264 59.3621 4 60.7427 4 62.1308C4 64.0623 4.39233 65.9737 5.15319 67.7491L5.34766 68.2029C6.26479 70.3428 7.62005 72.2669 9.32614 73.8511L9.82686 74.316C12.0006 76.3344 14.6352 77.8528 17.4666 78.7377C19.4151 79.3465 21.4702 79.6642 23.5116 79.6642Z"/></svg>