<svg width="109" height="74" viewBox="0 0 109 74" fill="none" xmlns="http://www.w3.org/2000/svg">
<path d="M25.3739 69.5H55H73.5L84.5 69L86.1105 68.7699C87.3676 68.5903 88.606 68.298 89.8107 67.8964C91.5956 67.3015 93.2932 66.4712 94.8586 65.4276L95.2163 65.1891C96.4025 64.3983 97.5077 63.4923 98.5158 62.4842C100.161 60.8388 101.531 58.939 102.571 56.8577L102.636 56.729C103.211 55.5785 103.686 54.3805 104.055 53.1485L104.173 52.7561C104.721 50.9285 105 49.0306 105 47.1226V47.0613C105 46.0222 104.914 44.9849 104.743 43.96C104.581 42.9882 104.344 42.0305 104.032 41.0958L103.5 39.5L103.27 38.9246C102.758 37.6441 102.132 36.4117 101.401 35.2422C100.47 33.7522 99.3728 32.3728 98.1303 31.1303L97.5 30.5L96.6055 29.7546C95.2086 28.5905 93.6572 27.6254 91.9955 26.8869C90.6692 26.2974 89.2819 25.8564 87.8587 25.5717L85.4859 25.0972C85.1628 25.0326 84.834 25 84.5045 25H80C79.7239 25 79.5 24.7761 79.5 24.5C79.5 23.8358 79.4185 23.1742 79.2575 22.5299L78.9252 21.2009C78.6423 20.0693 78.2572 18.9658 77.7745 17.9039L77.4617 17.2158C76.4932 15.085 75.1983 13.1182 73.6238 11.3862L73.5375 11.2913C71.8583 9.44417 69.8741 7.89953 67.6715 6.72481C64.9225 5.25868 61.8909 4.39943 58.7815 4.20509L58.3745 4.17966C56.4682 4.06051 54.5547 4.21814 52.6937 4.64762C50.2534 5.21075 47.9424 6.23221 45.8833 7.65772L44.6791 8.49139C43.2341 9.49181 41.9423 10.6972 40.8443 12.0696L38.983 14.3962C38.6644 14.7945 38.4308 15.2539 38.2966 15.746L37.6781 18.0135C37.3377 19.2617 35.8994 19.8396 34.79 19.174C34.5981 19.0589 34.3878 18.9776 34.1684 18.9337L32.9093 18.6819C32.3046 18.5609 31.6894 18.5 31.0727 18.5H30C29.3377 18.5 28.6797 18.6068 28.0513 18.8162L27.5 19L26.1844 19.5263C25.3982 19.8407 24.6569 20.2573 23.9795 20.7654C23.3291 21.2532 22.743 21.8212 22.2351 22.4561L21.5774 23.2783C21.1935 23.7581 20.8615 24.2771 20.5867 24.8267C20.1977 25.6045 19.9273 26.4361 19.7843 27.294L19.6775 27.935C19.5594 28.6438 19.5 29.3611 19.5 30.0797V30.5C19.5 31.6629 18.6792 32.6642 17.5388 32.8922L17 33L15 33.5L14.8038 33.5654C13.9372 33.8543 13.1048 34.2371 12.3216 34.7071C11.4438 35.2337 10.634 35.866 9.91021 36.5898L9.59661 36.9034C8.53737 37.9626 7.63093 39.1643 6.90344 40.4738L6.57605 41.0631C5.86077 42.3506 5.28654 43.7115 4.86331 45.1223L4.65891 45.8036C4.22198 47.2601 4 48.7725 4 50.2931C4 52.409 4.42978 54.5028 5.26326 56.4476L5.47629 56.9447C6.48095 59.2889 7.96557 61.3966 9.83449 63.132L10.383 63.6413C12.7642 65.8524 15.6503 67.5157 18.7519 68.485C20.8864 69.152 23.1376 69.5 25.3739 69.5Z" stroke="#B04BA7" stroke-width="7.3"/>
</svg>
