<svg width="100" height="100" viewBox="0 0 100 100" fill="none" xmlns="http://www.w3.org/2000/svg">
<path d="M96.0745 72.7945C90.7339 75.5748 63.0908 86.936 57.2102 90.0164C51.3295 93.0767 48.0492 93.0567 43.4087 90.8365C38.7682 88.6162 9.34493 76.7349 4.04435 74.1946C1.40406 72.9345 0.00390625 71.8544 0.00390625 70.8543V60.7532C0.00390625 60.7532 38.3081 52.4122 44.4888 50.192C50.6695 47.9718 52.8097 47.8918 58.0703 49.812C63.3309 51.7322 94.7943 57.4128 99.9949 59.313V69.2741C99.9949 70.2742 98.7948 71.3743 96.0745 72.7945Z" fill="#902626"/>
<path d="M96.0765 62.7335C90.7359 65.5138 63.0928 76.875 57.2122 79.9554C51.3316 83.0157 48.0512 82.9957 43.4107 80.7755C38.7702 78.5552 9.34694 66.6739 4.04636 64.1336C-1.25423 61.5934 -1.37424 59.8532 3.84634 57.8129C9.04691 55.7727 38.3101 44.2915 44.4908 42.0712C50.6715 39.851 52.8117 39.771 58.0723 41.6912C63.3329 43.6114 90.8159 54.5526 96.0165 56.4528C101.217 58.353 101.417 59.9332 96.0765 62.7135" fill="#C5302B"/>
<path d="M96.0745 56.4328C90.7339 59.2131 63.0908 70.5743 57.2102 73.6547C51.3295 76.715 48.0492 76.695 43.4087 74.4748C38.7682 72.2545 9.34493 60.3732 4.04435 57.8329C1.40406 56.5728 0.00390625 55.4927 0.00390625 54.4926V44.3915C0.00390625 44.3915 38.3081 36.0506 44.4888 33.8303C50.6695 31.6101 52.8097 31.5301 58.0703 33.4503C63.3309 35.3705 94.7943 41.0511 99.9949 42.9513V52.9124C99.9949 53.9125 98.7948 55.0126 96.0745 56.4328Z" fill="#902626"/>
<path d="M96.0765 46.3716C90.7359 49.1519 63.0928 60.5132 57.2122 63.5935C51.3316 66.6538 48.0512 66.6338 43.4107 64.4136C38.7702 62.1933 9.34694 50.312 4.04636 47.7718C-1.25423 45.2315 -1.37424 43.4913 3.84634 41.4511C9.04691 39.4108 38.3101 27.9296 44.4908 25.7093C50.6715 23.4891 52.8117 23.4091 58.0723 25.3293C63.3329 27.2495 90.8159 38.1907 96.0165 40.0909C101.217 41.9911 101.417 43.5713 96.0765 46.3516" fill="#C5302B"/>
<path d="M96.0745 39.4708C90.7339 42.2511 63.0908 53.6123 57.2102 56.6926C51.3295 59.753 48.0492 59.733 43.4087 57.5127C38.7682 55.2925 9.34493 43.4112 4.04435 40.8709C1.40406 39.6108 0.00390625 38.5307 0.00390625 37.5305V27.4294C0.00390625 27.4294 38.3081 19.0885 44.4888 16.8683C50.6695 14.648 52.8097 14.568 58.0703 16.4882C63.3309 18.4084 94.7943 24.0891 99.9949 25.9893V35.9504C99.9949 36.9505 98.7948 38.0506 96.0745 39.4708Z" fill="#902626"/>
<path d="M96.0765 29.4098C90.7359 32.1901 63.0928 43.5513 57.2122 46.6316C51.3316 49.692 48.0512 49.672 43.4107 47.4517C38.7702 45.2315 9.34694 33.3502 4.04636 30.8099C-1.25423 28.2696 -1.37424 26.5294 3.84634 24.4892C9.04691 22.449 38.3101 10.9677 44.4908 8.74749C50.6715 6.52724 52.8117 6.44723 58.0723 8.36744C63.3329 10.2877 90.8159 21.2289 96.0165 23.1291C101.217 25.0293 101.417 26.6094 96.0765 29.3898" fill="#C5302B"/>
<path d="M62.2106 19.5888L53.6096 20.4889L51.6894 25.1294L48.5891 19.9688L38.668 19.0687L46.0688 16.3884L43.8485 12.288L50.7893 15.0083L57.33 12.868L55.5698 17.1085L62.2306 19.6088M51.1893 42.0712L35.1476 35.4105L58.1501 31.8901L51.2093 42.0712M28.9669 22.169C35.7476 22.169 41.2482 24.3093 41.2482 26.9296C41.2482 29.5499 35.7476 31.6901 28.9669 31.6901C22.1861 31.6901 16.6855 29.5499 16.6855 26.9296C16.6855 24.3093 22.1861 22.169 28.9669 22.169Z" fill="white"/>
<path d="M72.3711 20.8487L85.9726 26.2293L72.3711 31.6099V20.8487Z" fill="#621B1C"/>
<path d="M57.3105 26.8093L72.3722 20.8487V31.5899L70.912 32.1699L57.3105 26.7893" fill="#992928"/>
</svg>
