<?xml version="1.0" encoding="UTF-8"?><svg id="Layer_1" xmlns="http://www.w3.org/2000/svg" viewBox="0 0 50 50"><defs><style>.cls-1{fill:#fff;}.cls-2{fill:#992928;}.cls-3{fill:#902626;}.cls-4{fill:#c5302b;}.cls-5{fill:#621b1c;}</style></defs><path class="cls-3" d="m48.04,36.54c-2.67,1.39-16.49,7.07-19.43,8.61-2.94,1.53-4.58,1.52-6.9.41-2.32-1.11-17.03-7.05-19.68-8.32-1.32-.63-2.02-1.17-2.02-1.67v-5.05s19.15-4.17,22.24-5.28c3.09-1.11,4.16-1.15,6.79-.19,2.63.96,18.36,3.8,20.96,4.75v4.98c0,.5-.6,1.05-1.96,1.76"/><path class="cls-4" d="m48.04,31.51c-2.67,1.39-16.49,7.07-19.43,8.61-2.94,1.53-4.58,1.52-6.9.41-2.32-1.11-17.03-7.05-19.68-8.32-2.65-1.27-2.71-2.14-.1-3.16,2.6-1.02,17.23-6.76,20.32-7.87,3.09-1.11,4.16-1.15,6.79-.19,2.63.96,16.37,6.43,18.97,7.38,2.6.95,2.7,1.74.03,3.13"/><path class="cls-3" d="m48.04,28.36c-2.67,1.39-16.49,7.07-19.43,8.61-2.94,1.53-4.58,1.52-6.9.41-2.32-1.11-17.03-7.05-19.68-8.32-1.32-.63-2.02-1.17-2.02-1.67v-5.05s19.15-4.17,22.24-5.28c3.09-1.11,4.16-1.15,6.79-.19,2.63.96,18.36,3.8,20.96,4.75v4.98c0,.5-.6,1.05-1.96,1.76"/><path class="cls-4" d="m48.04,23.33c-2.67,1.39-16.49,7.07-19.43,8.61-2.94,1.53-4.58,1.52-6.9.41-2.32-1.11-17.03-7.05-19.68-8.32-2.65-1.27-2.71-2.14-.1-3.16,2.6-1.02,17.23-6.76,20.32-7.87,3.09-1.11,4.16-1.15,6.79-.19,2.63.96,16.37,6.43,18.97,7.38,2.6.95,2.7,1.74.03,3.13"/><path class="cls-3" d="m48.04,19.88c-2.67,1.39-16.49,7.07-19.43,8.61-2.94,1.53-4.58,1.52-6.9.41-2.32-1.11-17.03-7.05-19.68-8.32-1.32-.63-2.02-1.17-2.02-1.67v-5.05s19.15-4.17,22.24-5.28c3.09-1.11,4.16-1.15,6.79-.19,2.63.96,18.36,3.8,20.96,4.75v4.98c0,.5-.6,1.05-1.96,1.76"/><path class="cls-4" d="m48.04,14.85c-2.67,1.39-16.49,7.07-19.43,8.61-2.94,1.53-4.58,1.52-6.9.41-2.32-1.11-17.03-7.05-19.68-8.32-2.65-1.27-2.71-2.14-.1-3.16,2.6-1.02,17.23-6.76,20.32-7.87,3.09-1.11,4.16-1.15,6.79-.19,2.63.96,16.37,6.43,18.97,7.38,2.6.95,2.7,1.74.03,3.13"/><path class="cls-1" d="m31.11,9.94l-4.3.45-.96,2.32-1.55-2.58-4.96-.45,3.7-1.34-1.11-2.05,3.47,1.36,3.27-1.07-.88,2.12,3.33,1.25m-5.52,11.23l-8.02-3.33,11.5-1.76-3.47,5.09m-11.12-9.95c3.39,0,6.14,1.07,6.14,2.38s-2.75,2.38-6.14,2.38-6.14-1.07-6.14-2.38,2.75-2.38,6.14-2.38"/><path class="cls-5" d="m36.19,10.57l6.8,2.69-6.8,2.69v-5.38"/><path class="cls-2" d="m28.66,13.55l7.53-2.98v5.37s-.73.29-.73.29l-6.8-2.69"/></svg>