<svg width="100" height="100" viewBox="0 0 100 100" fill="none" xmlns="http://www.w3.org/2000/svg">
<g opacity="0.8">
<path opacity="0.8" d="M38 87.1V77.7H27.9C22.2 77.7 21.1 78 21.1 71V59.7C21.1 54 17.2 50.3 9.8 49.9V49.2C17.2 48.9 21.1 45.1 21.1 39.4V28.1C21.1 21.2 22.2 21.4 27.9 21.4H38V12H25.9C15.3 12 11.9 15.6 11.9 26.5V35.7C11.9 42.2 8.8 45.2 0 44.6V54.4C8.8 53.8 11.9 56.8 11.9 63.2V72.6C11.9 83.6 15.3 87.1 25.9 87.1H38ZM74.1 87.1C84.7 87.1 88.1 83.5 88.1 72.6V63.4C88.1 57 91.2 53.9 100 54.6V44.8C91.2 45.4 88.1 42.4 88.1 35.9V26.6C88.1 15.6 84.7 12.1 74.1 12.1H62.5V21.5H66.4C72.1 21.5 78.9 21.2 78.9 28.2V39.6C78.9 45.3 82.8 49 90.2 49.4V50.1C82.8 50.4 78.9 54.1 78.9 59.9V71.2C78.9 78.1 72.1 77.9 66.4 77.9H62.5V87.3H74.1V87.1Z" fill="#A2A2A2"/>
<path opacity="0.8" d="M31.2 55.8C32.0142 55.8 32.8204 55.6397 33.5726 55.3281C34.3249 55.0165 35.0083 54.5598 35.5841 53.9841C36.1598 53.4084 36.6165 52.7249 36.9281 51.9727C37.2396 51.2204 37.4 50.4142 37.4 49.6C37.4 48.7858 37.2396 47.9796 36.9281 47.2274C36.6165 46.4752 36.1598 45.7917 35.5841 45.216C35.0083 44.6402 34.3249 44.1836 33.5726 43.872C32.8204 43.5604 32.0142 43.4 31.2 43.4C29.5557 43.4 27.9787 44.0532 26.8159 45.216C25.6532 46.3787 25 47.9557 25 49.6C25 51.2444 25.6532 52.8214 26.8159 53.9841C27.9787 55.1468 29.5557 55.8 31.2 55.8ZM50 55.8C50.8142 55.8 51.6204 55.6397 52.3726 55.3281C53.1249 55.0165 53.8083 54.5598 54.3841 53.9841C54.9598 53.4084 55.4165 52.7249 55.7281 51.9727C56.0396 51.2204 56.2 50.4142 56.2 49.6C56.2 48.7858 56.0396 47.9796 55.7281 47.2274C55.4165 46.4752 54.9598 45.7917 54.3841 45.216C53.8083 44.6402 53.1249 44.1836 52.3726 43.872C51.6204 43.5604 50.8142 43.4 50 43.4C48.3557 43.4 46.7787 44.0532 45.6159 45.216C44.4532 46.3787 43.8 47.9557 43.8 49.6C43.8 51.2444 44.4532 52.8214 45.6159 53.9841C46.7787 55.1468 48.3557 55.8 50 55.8ZM68.8 55.8C69.6142 55.8 70.4204 55.6397 71.1726 55.3281C71.9249 55.0165 72.6083 54.5598 73.1841 53.9841C73.7598 53.4084 74.2165 52.7249 74.5281 51.9727C74.8396 51.2204 75 50.4142 75 49.6C75 48.7858 74.8396 47.9796 74.5281 47.2274C74.2165 46.4752 73.7598 45.7917 73.1841 45.216C72.6083 44.6402 71.9249 44.1836 71.1726 43.872C70.4204 43.5604 69.6142 43.4 68.8 43.4C67.1557 43.4 65.5787 44.0532 64.4159 45.216C63.2532 46.3787 62.6 47.9557 62.6 49.6C62.6 51.2444 63.2532 52.8214 64.4159 53.9841C65.5787 55.1468 67.1557 55.8 68.8 55.8Z" fill="#A6A6A6"/>
</g>
</svg>
