<svg width="100" height="100" fill="none" xmlns="http://www.w3.org/2000/svg"><g opacity=".8" clip-path="url(#clip0)"><path opacity=".8" d="M38 87.5v-9.4H27.9c-5.7 0-6.8.3-6.8-6.7V60.1c0-5.7-3.9-9.4-11.3-9.8v-.7c7.4-.3 11.3-4.1 11.3-9.8V28.5c0-6.9 1.1-6.7 6.8-6.7H38v-9.4H25.9c-10.6 0-14 3.6-14 14.5v9.2c0 6.5-3.1 9.5-11.9 8.9v9.8c8.8-.6 11.9 2.4 11.9 8.8V73c0 11 3.4 14.5 14 14.5H38zm36.1 0c10.6 0 14-3.6 14-14.5v-9.2c0-6.4 3.1-9.5 11.9-8.8v-9.8c-8.8.6-11.9-2.4-11.9-8.9V27c0-11-3.4-14.5-14-14.5H62.5v9.4h3.9c5.7 0 12.5-.3 12.5 6.7V40c0 5.7 3.9 9.4 11.3 9.8v.7c-7.4.3-11.3 4-11.3 9.8v11.3c0 6.9-6.8 6.7-12.5 6.7h-3.9v9.4h11.6v-.2z" fill="#A2A2A2"/><path opacity=".8" d="M31.2 56.2a6.2 6.2 0 100-12.4 6.2 6.2 0 000 12.4zm18.8 0a6.2 6.2 0 100-12.4 6.2 6.2 0 000 12.4zm18.8 0a6.2 6.2 0 100-12.4 6.2 6.2 0 000 12.4z" fill="#A6A6A6"/></g><defs><clipPath id="clip0"><path fill="#fff" d="M0 0h100v100H0z"/></clipPath></defs></svg>