<svg xmlns="http://www.w3.org/2000/svg" width="100" height="100" fill="none" viewBox="0 0 100 100"><path fill="#F60" d="M91.6011 2H50.9186C46.28 2 42.5197 5.76034 42.5197 10.399V47.9318V49.3574C42.5197 50.4949 42.2887 51.6205 41.8406 52.6659L41.4405 53.5996C41.1119 54.3662 40.671 55.0798 40.1322 55.7165L39.1125 56.9213C38.4159 57.7449 37.5671 58.4262 36.6127 58.9286L34.9073 59.8262C33.7012 60.4609 32.3586 60.7927 30.9955 60.7927H8.39895C3.76034 60.7927 0 64.5528 0 69.1916V89.664C0 94.3029 3.76034 98.063 8.39895 98.063H29.6588C34.2974 98.063 38.0577 94.3029 38.0577 89.664V70.5039V69.7265C38.0577 68.5118 38.3406 67.3134 38.884 66.2268C39.3774 65.2399 40.074 64.3685 40.928 63.6698L42.5197 62.3675L43.4518 61.5685C44.0522 61.0541 44.7223 60.6268 45.4423 60.2992L45.5879 60.2331C46.6794 59.737 47.8644 59.4803 49.0634 59.4803H91.6011C96.2399 59.4803 100 55.7202 100 51.0814V10.399C100 5.76034 96.2399 2 91.6011 2Z"/></svg>