<svg xmlns="http://www.w3.org/2000/svg" width="100" height="100" fill="none" viewBox="0 0 100 100"><path fill="url(#paint0_linear_681_2135)" fill-rule="evenodd" d="M0 74.48H50.54L100 25H0V74.48Z" clip-rule="evenodd"/><path fill="#fff" fill-rule="evenodd" d="M59.3407 34.3H49.5007V57.7L40.9007 34.3H32.3807L25.0407 53.88C24.2607 48.94 19.1607 47.24 15.1407 45.96C12.4807 45.1 9.68073 43.86 9.70073 42.48C9.72073 41.34 11.2007 40.28 14.1607 40.44C16.1407 40.54 17.8807 40.7 21.3607 42.38L24.7807 36.42C21.6007 34.8 17.2207 33.78 13.6207 33.78H13.6007C9.42073 33.78 5.92073 35.14 3.76073 37.38C2.26073 38.94 1.44073 40.92 1.40073 43.12C1.34073 46.14 2.46073 48.28 4.78073 50C6.74073 51.44 9.26073 52.38 11.4807 53.06C14.2207 53.9 16.4407 54.64 16.4207 56.22C16.4007 56.8 16.1807 57.32 15.7807 57.76C15.1007 58.46 14.0607 58.72 12.6007 58.76C9.82073 58.82 7.74073 58.38 4.44073 56.44L1.40073 62.48C4.68073 64.34 8.58073 65.44 12.5407 65.44H13.0607C16.5207 65.38 19.3007 64.38 21.5407 62.6C21.6607 62.5 21.7807 62.4 21.9007 62.3L20.9207 64.94H29.8607L31.3607 60.38C32.9407 60.92 34.7207 61.22 36.6207 61.22C38.5207 61.22 40.2007 60.94 41.7607 60.44L43.2007 64.96H57.7807V55.52H60.9607C68.6407 55.52 73.2007 51.6 73.2007 45.04C73.2007 37.74 68.7807 34.38 59.3807 34.38L59.3407 34.3ZM36.6007 54.32C35.4607 54.32 34.3807 54.12 33.4407 53.76L36.5607 43.92H36.6207L39.6807 53.8C38.7607 54.12 37.7007 54.32 36.5807 54.32H36.6007ZM59.9207 48.66H57.7607V40.72H59.9207C62.8207 40.72 65.1207 41.68 65.1207 44.64C65.1207 47.6 62.8207 48.66 59.9207 48.66Z" clip-rule="evenodd"/><defs><linearGradient id="paint0_linear_681_2135" x1="50" x2="50" y1="25" y2="74.46" gradientUnits="userSpaceOnUse"><stop stop-color="#00B1EB"/><stop offset=".21" stop-color="#009AD9"/><stop offset=".52" stop-color="#007FC4"/><stop offset=".79" stop-color="#006EB8"/><stop offset="1" stop-color="#0069B4"/></linearGradient></defs></svg>