<svg xmlns="http://www.w3.org/2000/svg" width="100" height="100" fill="none" viewBox="0 0 100 100"><g clip-path="url(#clip0_681_2139)"><path fill="#52BC93" fill-rule="evenodd" d="M100 50C100 77.6222 77.6222 100 50 100C22.3778 100 0 77.6222 0 50C0 22.3778 22.3778 0 50 0C77.6222 0 100 22.3778 100 50Z" clip-rule="evenodd"/><path fill="#fff" d="M73.8429 40.689H45.1318C44.5795 40.689 44.1318 41.1367 44.1318 41.689V45.0224C44.1318 45.5746 44.5795 46.0224 45.1318 46.0224H73.8429C74.3952 46.0224 74.8429 45.5746 74.8429 45.0224V41.689C74.8429 41.1367 74.3952 40.689 73.8429 40.689Z"/><path fill="#fff" d="M54.8459 54.0001H26.1348C25.5825 54.0001 25.1348 54.4478 25.1348 55.0001V58.3335C25.1348 58.8857 25.5825 59.3335 26.1348 59.3335H54.8459C55.3982 59.3335 55.8459 58.8857 55.8459 58.3335V55.0001C55.8459 54.4478 55.3982 54.0001 54.8459 54.0001Z"/><path fill="#fff" fill-rule="evenodd" d="M28.823 44.3334C29.3341 44.4667 29.8674 44.1779 30.023 43.6445C33.3119 33.3112 43.9341 27.2001 54.5119 29.5334C55.023 29.6445 55.5341 29.3334 55.6674 28.8223L56.5341 25.5779C56.6674 25.0445 56.3563 24.5112 55.823 24.3556C55.823 24.3556 55.8007 24.3556 55.7785 24.3556C42.4007 21.3334 28.9563 29.1112 24.8896 42.2223C24.7341 42.7556 25.023 43.289 25.5563 43.4445C25.5563 43.4445 25.5563 43.4445 25.5785 43.4445L28.823 44.3112V44.3334Z" clip-rule="evenodd"/><path fill="#fff" fill-rule="evenodd" d="M71.1794 55.6665C70.6683 55.5332 70.135 55.8221 69.9794 56.3554C66.6905 66.6888 56.0683 72.7999 45.4905 70.4665C44.9794 70.3554 44.4683 70.6665 44.335 71.1776L43.4683 74.4221C43.335 74.9554 43.6461 75.4888 44.1794 75.6443C44.1794 75.6443 44.2016 75.6443 44.2239 75.6443C57.6016 78.6665 71.0461 70.8888 75.1127 57.7776C75.2683 57.2443 74.9794 56.711 74.4461 56.5554C74.4461 56.5554 74.4461 56.5554 74.4239 56.5554L71.1794 55.6888V55.6665Z" clip-rule="evenodd"/><path fill="#fff" d="M65.1767 34.8223C66.7845 34.8223 68.0878 33.519 68.0878 31.9112C68.0878 30.3035 66.7845 29.0001 65.1767 29.0001C63.569 29.0001 62.2656 30.3035 62.2656 31.9112C62.2656 33.519 63.569 34.8223 65.1767 34.8223Z"/><path fill="#fff" d="M34.8213 70.9999C36.429 70.9999 37.7324 69.6965 37.7324 68.0888C37.7324 66.481 36.429 65.1777 34.8213 65.1777C33.2135 65.1777 31.9102 66.481 31.9102 68.0888C31.9102 69.6965 33.2135 70.9999 34.8213 70.9999Z"/></g><defs><clipPath id="clip0_681_2139"><rect width="100" height="100" fill="#fff"/></clipPath></defs></svg>