<svg width="100" height="100" viewBox="0 0 100 100" fill="none" xmlns="http://www.w3.org/2000/svg">
<g clip-path="url(#clip0_681_2148)">
<path d="M0 33.2026H33.3964V66.599H0V33.2026Z" fill="white"/>
<path d="M0 33.2026H33.3964V66.599H0V33.2026Z" fill="#99E1F4"/>
<path d="M33.3945 66.6021H66.5972V99.8047H33.3945V66.6021Z" fill="white"/>
<path d="M33.3945 66.6021H66.5972V99.8047H33.3945V66.6021Z" fill="#99E1F4"/>
<path d="M0 99.8063H33.3964V99.9985H0V99.8063ZM0 66.6036H33.3964V99.8063H0V66.6036Z" fill="#1A82E2"/>
<path d="M33.3945 0H66.5972V33.2026H33.3945V0ZM66.6003 33.3964H99.9967V66.599H66.6003V33.3964Z" fill="#00B3E3"/>
<path d="M33.3945 66.6021H66.5972V33.2026H33.3945V66.6021Z" fill="#009DD9"/>
<path d="M66.6035 0H99.9999V33.2026H66.6035V0Z" fill="#1A82E2"/>
<path d="M66.6035 33.2026H99.9999V33.3948H66.6035V33.2026Z" fill="#1A82E2"/>
</g>
<defs>
<clipPath id="clip0_681_2148">
<rect width="100" height="100" fill="white"/>
</clipPath>
</defs>
</svg>
