<svg xmlns="http://www.w3.org/2000/svg" width="100" height="100" fill="none" viewBox="0 0 100 100"><g clip-path="url(#clip0_681_2159)"><path fill="#95BF47" d="M82.0922 21.5455C82.0258 21.1029 81.6496 20.771 81.207 20.7267C80.853 20.6604 73.13 20.1293 73.13 20.1293L67.2438 14.243C66.7127 13.6455 65.5399 13.8226 65.0973 13.9553C65.0309 13.9553 63.9244 14.3094 62.0878 14.9069C60.3175 9.773 57.1752 5.05956 51.6208 5.05956H51.1561C49.5629 3.00159 47.6155 2.05005 45.978 2.05005C33.0769 2.11644 26.9251 18.1819 24.9999 26.4138L15.9935 29.1799C13.2274 30.0651 13.1168 30.1315 12.7627 32.7648L5.15039 91.384L62.132 102.05L93.0017 95.3893C93.0017 95.3893 82.1586 22.1209 82.1143 21.5676L82.0922 21.5455ZM58.9233 15.8805C57.485 16.3452 55.8474 16.8321 54.0993 17.3632V16.301C54.1435 13.6455 53.7452 11.0122 52.9264 8.48953C55.8032 8.9321 57.7505 12.1629 58.9233 15.8805ZM49.4522 9.17552C50.4038 11.9637 50.8242 14.8847 50.7357 17.8057V18.3368L40.7777 21.4127C42.7251 14.1324 46.3321 10.5475 49.4522 9.17552ZM45.6239 5.59066C46.2214 5.59066 46.7968 5.78981 47.2615 6.12175C43.1013 8.04695 38.7198 12.9374 36.8388 22.7183L28.961 25.1304C31.1738 17.7172 36.3741 5.56853 45.6239 5.56853V5.59066Z"/><path fill="#5E8E3E" d="M81.2069 20.7046C80.8528 20.6382 73.1298 20.1071 73.1298 20.1071L67.2436 14.2208C67.0223 13.9995 66.7346 13.8668 66.4248 13.8668L62.1318 102.006L93.0015 95.345L82.092 21.5897C82.0256 21.1471 81.6716 20.7709 81.2069 20.7046Z"/><path fill="#fff" d="M51.6428 37.7879L47.8145 49.0957C45.491 47.9671 42.9683 47.3697 40.4013 47.3254C34.3823 47.3254 34.0946 51.0873 34.0946 52.0388C34.0946 57.1949 47.5932 59.1643 47.5932 71.313C47.5932 80.8505 41.5299 86.9802 33.3865 86.9802C23.6056 86.9802 18.6045 80.9169 18.6045 80.9169L21.2157 72.2424C21.2157 72.2424 26.3496 76.6682 30.7089 76.6682C32.8333 76.7567 34.6257 75.097 34.7143 72.9506C34.7143 72.8842 34.7143 72.8399 34.7143 72.7735C34.7143 66.0021 23.6277 65.6923 23.6277 54.6279C23.6277 45.3117 30.3327 36.2389 43.8313 36.2389C49.1422 36.3274 51.6649 37.7879 51.6649 37.7879H51.6428Z"/></g><defs><clipPath id="clip0_681_2159"><rect width="100" height="100" fill="#fff"/></clipPath></defs></svg>