<svg width="100" height="100" viewBox="0 0 100 100" fill="none" xmlns="http://www.w3.org/2000/svg">
<g clip-path="url(#clip0_681_2163)">
<path d="M21.0185 63.1996C21.0185 68.9771 16.2979 73.6976 10.5205 73.6976C4.74305 73.6976 0.0224609 68.9771 0.0224609 63.1996C0.0224609 57.4222 4.74305 52.7016 10.5205 52.7016H21.0185V63.1996Z" fill="#DF1E5A"/>
<path d="M26.3018 63.1996C26.3018 57.4222 31.0223 52.7016 36.7998 52.7016C42.5772 52.7016 47.2978 57.4222 47.2978 63.1996V89.5034C47.2978 95.2808 42.5772 100.001 36.7998 100.001C31.0223 100.001 26.3018 95.2808 26.3018 89.5034V63.1996Z" fill="#DF1E5A"/>
<path d="M36.7998 21.0195C31.0223 21.0195 26.3018 16.299 26.3018 10.5215C26.3018 4.74408 31.0223 0.0234985 36.7998 0.0234985C42.5772 0.0234985 47.2978 4.74408 47.2978 10.5215V21.0195H36.7998Z" fill="#36C4EF"/>
<path d="M36.8018 26.304C42.5792 26.304 47.2998 31.0245 47.2998 36.802C47.2998 42.5794 42.5792 47.3 36.8018 47.3H10.498C4.72059 47.3 0 42.5794 0 36.802C0 31.0245 4.72059 26.304 10.498 26.304H36.8018Z" fill="#36C4EF"/>
<path d="M78.9795 36.802C78.9795 31.0245 83.7001 26.304 89.4775 26.304C95.255 26.304 99.9755 31.0245 99.9755 36.802C99.9755 42.5794 95.255 47.3 89.4775 47.3H78.9795V36.802Z" fill="#2EB57D"/>
<path d="M73.6962 36.8018C73.6962 42.5792 68.9757 47.2998 63.1982 47.2998C57.4208 47.2998 52.7002 42.5792 52.7002 36.8018V10.498C52.7002 4.72059 57.4208 0 63.1982 0C68.9757 0 73.6962 4.72059 73.6962 10.498V36.8018Z" fill="#2EB57D"/>
<path d="M63.1982 78.9818C68.9757 78.9818 73.6962 83.7023 73.6962 89.4798C73.6962 95.2572 68.9757 99.9778 63.1982 99.9778C57.4208 99.9778 52.7002 95.2572 52.7002 89.4798V78.9818H63.1982Z" fill="#EBB12E"/>
<path d="M63.1982 73.6976C57.4208 73.6976 52.7002 68.9771 52.7002 63.1996C52.7002 57.4222 57.4208 52.7016 63.1982 52.7016H89.502C95.2794 52.7016 100 57.4222 100 63.1996C100 68.9771 95.2794 73.6976 89.502 73.6976H63.1982Z" fill="#EBB12E"/>
</g>
<defs>
<clipPath id="clip0_681_2163">
<rect width="100" height="100" fill="white"/>
</clipPath>
</defs>
</svg>
