<?xml version="1.0" encoding="UTF-8"?><svg id="Layer_1" xmlns="http://www.w3.org/2000/svg" viewBox="0 0 50 50"><defs><style>.cls-1{fill:#29b4e7;}</style></defs><g id="Page-1"><g id="Group"><path id="Path" class="cls-1" d="m40.41,36.27l-9.08-5.24c-1.28-.73-2.91-.3-3.64.98-.29.5-.4,1.05-.34,1.59v10.25c0,1.46,1.19,2.65,2.66,2.65s2.65-1.19,2.65-2.65v-5.89l5.08,2.94c1.28.74,2.91.3,3.64-.98.74-1.28.3-2.91-.98-3.64"/><path id="Path2" class="cls-1" d="m17.84,25.03c.02-.95-.48-1.83-1.3-2.3l-9.08-5.24c-.39-.23-.85-.35-1.3-.35-.93,0-1.8.5-2.26,1.3-.72,1.24-.29,2.84.95,3.56l5.23,3.02-5.23,3.02c-.6.35-1.04.91-1.21,1.58-.18.67-.09,1.38.26,1.98.46.8,1.33,1.3,2.26,1.3.46,0,.91-.12,1.3-.35l9.08-5.24c.81-.47,1.31-1.34,1.3-2.28"/><path id="Path3" class="cls-1" d="m9.52,13.78l9.08,5.24c1.06.61,2.36.41,3.2-.4.53-.49.86-1.18.86-1.96V6.16c0-1.47-1.19-2.66-2.65-2.66s-2.66,1.19-2.66,2.66v5.98l-5.15-2.98c-1.28-.74-2.91-.3-3.64.97-.74,1.28-.3,2.91.98,3.64"/><path id="Combined-Shape" class="cls-1" d="m29.93,25.46c0,.2-.12.48-.26.63l-3.6,3.6c-.14.14-.43.26-.63.26h-.92c-.2,0-.48-.12-.63-.26l-3.6-3.6c-.14-.15-.26-.43-.26-.63v-.92c0-.2.12-.48.26-.63l3.6-3.6c.14-.14.43-.26.63-.26h.92c.2,0,.48.12.63.26l3.6,3.6c.14.14.26.42.26.63v.92Zm-3.21-.44v-.04c0-.15-.09-.35-.19-.46l-1.06-1.06c-.1-.11-.31-.19-.46-.19h-.04c-.15,0-.35.09-.46.19l-1.06,1.06c-.1.1-.19.31-.19.46v.04c0,.15.09.36.19.46l1.06,1.06c.11.1.31.19.46.19h.04c.15,0,.36-.09.46-.19l1.06-1.06c.1-.1.19-.31.19-.46Z"/><path id="Path4" class="cls-1" d="m31.34,19.02l9.08-5.24c1.28-.73,1.72-2.37.98-3.64-.74-1.28-2.37-1.71-3.64-.97l-5.08,2.94v-5.94c0-1.47-1.19-2.66-2.65-2.66s-2.66,1.19-2.66,2.66v10.29c-.05.53.05,1.09.34,1.59.74,1.28,2.37,1.71,3.64.97"/><path id="Path5" class="cls-1" d="m20.42,30.72c-.6-.12-1.25-.02-1.82.31l-9.08,5.24c-1.28.73-1.72,2.36-.98,3.64.74,1.28,2.37,1.72,3.64.98l5.15-2.98v5.93c0,1.46,1.19,2.65,2.66,2.65s2.65-1.19,2.65-2.65v-10.5c0-1.33-.97-2.42-2.24-2.62"/><path id="Path6" class="cls-1" d="m46.09,18.42c-.73-1.28-2.37-1.72-3.64-.98l-9.08,5.24c-.87.5-1.35,1.42-1.33,2.36,0,.93.47,1.84,1.33,2.33l9.08,5.24c1.28.73,2.91.3,3.64-.98.74-1.28.3-2.91-.98-3.64l-5.14-2.97,5.14-2.97c1.28-.73,1.72-2.36.98-3.64"/></g></g></svg>