<svg width="100" height="100" viewBox="0 0 100 100" fill="none" xmlns="http://www.w3.org/2000/svg">
<g clip-path="url(#clip0_681_2172)">
<path d="M85.7234 76.2094L64.6071 64.0233C61.6303 62.3257 57.8396 63.3257 56.142 66.3024C55.4675 67.4652 55.2117 68.7443 55.3513 70.0001V93.8373C55.3513 97.2326 58.1187 100 61.5373 100C64.9559 100 67.7001 97.2326 67.7001 93.8373V80.1396L79.5141 86.9768C82.4908 88.6978 86.2815 87.6745 87.9792 84.6978C89.7001 81.721 88.6768 77.9303 85.7001 76.2326" fill="#29B4E7"/>
<path d="M33.2334 50.0698C33.2799 47.8605 32.1171 45.814 30.2102 44.7209L9.09389 32.5349C8.18692 32 7.11715 31.7209 6.07064 31.7209C3.90785 31.7209 1.88459 32.8837 0.814823 34.7442C-0.859596 37.6279 0.140404 41.3489 3.02412 43.0233L15.1869 50.0465L3.02412 57.0698C1.62878 57.8837 0.605521 59.1861 0.210172 60.7442C-0.208433 62.3023 0.000869396 63.9535 0.814823 65.3489C1.88459 67.2093 3.90785 68.3721 6.07064 68.3721C7.1404 68.3721 8.18692 68.093 9.09389 67.5582L30.2102 55.3721C32.0939 54.2791 33.2567 52.2558 33.2334 50.0698Z" fill="#29B4E7"/>
<path d="M13.8826 23.907L34.9989 36.093C37.464 37.5116 40.4873 37.0465 42.4408 35.1628C43.6733 34.0233 44.4408 32.4186 44.4408 30.6046V6.18605C44.4408 2.76744 41.6733 0 38.278 0C34.8826 0 32.0919 2.76744 32.0919 6.18605V20.093L20.1152 13.1628C17.1384 11.4419 13.3477 12.4651 11.6501 15.4186C9.92914 18.3953 10.9524 22.186 13.9291 23.8837" fill="#29B4E7"/>
<path d="M61.3504 51.0699C61.3504 51.535 61.0713 52.1861 60.7458 52.535L52.3737 60.9071C52.0481 61.2327 51.3737 61.5117 50.9085 61.5117H48.769C48.3039 61.5117 47.6527 61.2327 47.3039 60.9071L38.9318 52.535C38.6062 52.1861 38.3271 51.535 38.3271 51.0699V48.9303C38.3271 48.4652 38.6062 47.814 38.9318 47.4652L47.3039 39.0931C47.6295 38.7675 48.3039 38.4885 48.769 38.4885H50.9085C51.3737 38.4885 52.0248 38.7675 52.3737 39.0931L60.7458 47.4652C61.0713 47.7908 61.3504 48.442 61.3504 48.9303V51.0699ZM53.8853 50.0466V49.9536C53.8853 49.6047 53.676 49.1396 53.4434 48.8838L50.9783 46.4187C50.7457 46.1629 50.2574 45.9768 49.9085 45.9768H49.8155C49.4667 45.9768 49.0016 46.1861 48.7458 46.4187L46.2806 48.8838C46.0481 49.1164 45.8388 49.6047 45.8388 49.9536V50.0466C45.8388 50.3954 46.0481 50.8838 46.2806 51.1164L48.7458 53.5815C49.0016 53.8141 49.4667 54.0233 49.8155 54.0233H49.9085C50.2574 54.0233 50.7457 53.8141 50.9783 53.5815L53.4434 51.1164C53.676 50.8838 53.8853 50.3954 53.8853 50.0466Z" fill="#29B4E7"/>
<path d="M64.6304 36.093L85.7466 23.907C88.7234 22.2093 89.7466 18.3953 88.0257 15.4419C86.3048 12.4651 82.5141 11.4651 79.5606 13.186L67.7466 20.0233V6.2093C67.7466 2.7907 64.9792 0.0232544 61.5838 0.0232544C58.1885 0.0232544 55.3978 2.7907 55.3978 6.2093V30.1395C55.2815 31.3721 55.5141 32.6744 56.1885 33.8372C57.9094 36.8139 61.7001 37.814 64.6536 36.093" fill="#29B4E7"/>
<path d="M39.2331 63.3024C37.8377 63.0233 36.3261 63.2559 35.0005 64.0234L13.8842 76.2094C10.9075 77.9071 9.88422 81.6978 11.6051 84.6745C13.3261 87.6513 17.1168 88.6745 20.0703 86.9536L32.047 80.0233V93.814C32.047 97.2094 34.8144 99.9768 38.2331 99.9768C41.6517 99.9768 44.3958 97.2094 44.3958 93.814V69.3954C44.3958 66.3024 42.14 63.7675 39.1865 63.3024" fill="#29B4E7"/>
<path d="M98.9326 34.6977C97.235 31.7209 93.421 30.6977 90.4675 32.4186L69.3513 44.6047C67.328 45.7675 66.2117 47.907 66.2582 50.093C66.2582 52.2558 67.3513 54.3721 69.3513 55.5116L90.4675 67.6977C93.4443 69.3954 97.235 68.3954 98.9326 65.4186C100.654 62.4419 99.6303 58.6512 96.6536 56.9535L84.7001 50.0465L96.6536 43.1396C99.6303 41.4419 100.654 37.6512 98.9326 34.6744" fill="#29B4E7"/>
</g>
<defs>
<clipPath id="clip0_681_2172">
<rect width="100" height="100" fill="white"/>
</clipPath>
</defs>
</svg>
