<svg xmlns="http://www.w3.org/2000/svg" width="100" height="100" fill="none" viewBox="0 0 100 100"><path fill="#6772E4" fill-rule="evenodd" d="M42.7447 29.7387C42.7447 25.4638 46.3001 23.7919 52.0565 23.7919C61.5799 24.0035 70.9339 26.4161 79.3568 30.8603V5.02026C70.6588 1.61301 61.3894 -0.101198 52.0565 0.00461716C29.8776 0.00461716 15 11.6231 15 31.0296C15 61.3774 56.6912 56.4465 56.6912 69.5464C56.6912 74.6678 52.3104 76.2551 46.152 76.2551C37.0731 76.2551 25.3487 72.5092 16.164 67.4936V93.6722C25.6238 97.799 35.8456 99.9365 46.152 100C68.9446 100 84.6687 88.7413 84.6687 68.9961C84.6687 36.2357 42.7447 42.0767 42.7447 29.7599V29.7387Z" clip-rule="evenodd"/></svg>