<?xml version="1.0" encoding="UTF-8"?><svg id="Layer_1" xmlns="http://www.w3.org/2000/svg" viewBox="0 0 50 50"><defs><style>.cls-1{fill:#6772e4;fill-rule:evenodd;}</style></defs><path class="cls-1" d="m21.65,15.43c0-2.02,1.68-2.81,4.4-2.81,4.5.1,8.92,1.24,12.9,3.34V3.75c-4.11-1.61-8.49-2.42-12.9-2.37-10.48,0-17.51,5.49-17.51,14.66,0,14.34,19.7,12.01,19.7,18.2,0,2.42-2.07,3.17-4.98,3.17-4.29,0-9.83-1.77-14.17-4.14v12.37c4.47,1.95,9.3,2.96,14.17,2.99,10.77,0,18.2-5.32,18.2-14.65,0-15.48-19.81-12.72-19.81-18.54h0Z"/></svg>