<svg width="100" height="100" viewBox="0 0 100 100" fill="none" xmlns="http://www.w3.org/2000/svg">
<path d="M57.9013 98.3416C55.3489 101.554 50.1561 99.7938 50.1121 95.6792L49.21 35.5878H89.6083C96.9355 35.5878 101.006 44.0371 96.4514 49.78L57.9013 98.3416Z" fill="url(#paint0_linear_681_2188)"/>
<path d="M57.9013 98.3416C55.3489 101.554 50.1561 99.7938 50.1121 95.6792L49.21 35.5878H89.6083C96.9355 35.5878 101.006 44.0371 96.4514 49.78L57.9013 98.3416Z" fill="url(#paint1_linear_681_2188)" fill-opacity="0.2"/>
<path d="M41.4894 1.6584C44.0418 -1.5541 49.2346 0.206175 49.2786 4.32082L49.6747 64.4123H9.76044C2.43329 64.4123 -1.63735 55.9629 2.91737 50.22L41.4894 1.6584Z" fill="#3ECE8D"/>
<defs>
<linearGradient id="paint0_linear_681_2188" x1="45.9755" y1="56.6671" x2="81.8851" y2="71.7174" gradientUnits="userSpaceOnUse">
<stop stop-color="#249261"/>
<stop offset="1" stop-color="#3ECE8D"/>
</linearGradient>
<linearGradient id="paint1_linear_681_2188" x1="47.6917" y1="19.4812" x2="64.0623" y2="50.3081" gradientUnits="userSpaceOnUse">
<stop/>
<stop offset="1" stop-opacity="0"/>
</linearGradient>
</defs>
</svg>
