<?xml version="1.0" encoding="UTF-8"?><svg id="Layer_1" xmlns="http://www.w3.org/2000/svg" xmlns:xlink="http://www.w3.org/1999/xlink" viewBox="0 0 50 50"><defs><style>.cls-1{fill:url(#linear-gradient);}.cls-2{fill:#3ece8d;}.cls-3{fill:url(#linear-gradient-2);fill-opacity:.2;}</style><linearGradient id="linear-gradient" x1="23.31" y1="23.97" x2="39.63" y2="17.13" gradientTransform="translate(0 52) scale(1 -1)" gradientUnits="userSpaceOnUse"><stop offset="0" stop-color="#249261"/><stop offset="1" stop-color="#3ece8d"/></linearGradient><linearGradient id="linear-gradient-2" x1="24.09" y1="40.87" x2="31.53" y2="26.86" gradientTransform="translate(0 52) scale(1 -1)" gradientUnits="userSpaceOnUse"><stop offset="0" stop-color="#000"/><stop offset="1" stop-color="#000" stop-opacity="0"/></linearGradient></defs><path class="cls-1" d="m28.73,46.97c-1.16,1.46-3.52.66-3.54-1.21l-.41-27.31h18.36c3.33,0,5.18,3.84,3.11,6.45l-17.52,22.07Z"/><path class="cls-3" d="m28.73,46.97c-1.16,1.46-3.52.66-3.54-1.21l-.41-27.31h18.36c3.33,0,5.18,3.84,3.11,6.45l-17.52,22.07Z"/><path class="cls-2" d="m21.27,3.03c1.16-1.46,3.52-.66,3.54,1.21l.18,27.31H6.85c-3.33,0-5.18-3.84-3.11-6.45L21.27,3.03Z"/></svg>