<svg width="100" height="100" viewBox="0 0 100 100" fill="none" xmlns="http://www.w3.org/2000/svg">
<g clip-path="url(#clip0_681_2192)">
<path d="M50 100C77.6142 100 100 77.6142 100 50C100 22.3858 77.6142 0 50 0C22.3858 0 0 22.3858 0 50C0 77.6142 22.3858 100 50 100Z" fill="url(#paint0_linear_681_2192)"/>
<path fill-rule="evenodd" clip-rule="evenodd" d="M22.6231 49.4668C37.2009 43.1112 46.912 38.9334 51.7787 36.9112C65.6676 31.1334 68.5564 30.1334 70.4231 30.089C70.8453 30.089 71.7565 30.1779 72.3565 30.6668C72.8676 31.0668 73.0009 31.6223 73.0676 32.0223C73.1342 32.4223 73.2231 33.289 73.1564 34.0001C72.4009 41.9112 69.1564 61.089 67.4898 69.9557C66.7787 73.7112 65.4009 74.9557 64.0676 75.089C61.1565 75.3557 58.9565 73.1779 56.1565 71.3334C51.7565 68.4445 49.2676 66.6445 45.0009 63.8445C40.0676 60.6001 43.2676 58.8001 46.0676 55.889C46.8009 55.1334 59.6009 43.489 59.8453 42.4223C59.8676 42.289 59.912 41.8001 59.6231 41.5334C59.3342 41.2668 58.8898 41.3557 58.5787 41.4223C58.1342 41.5334 51.112 46.1779 37.4898 55.3557C35.4898 56.7334 33.6898 57.4001 32.0676 57.3557C30.2898 57.3112 26.8453 56.3557 24.2898 55.5112C21.1565 54.489 18.6676 53.9557 18.8898 52.2223C19.0009 51.3112 20.2453 50.4001 22.6009 49.4668H22.6231Z" fill="white"/>
</g>
<defs>
<linearGradient id="paint0_linear_681_2192" x1="58.8889" y1="7.77778" x2="58.8889" y2="96.6667" gradientUnits="userSpaceOnUse">
<stop stop-color="#2AABEE"/>
<stop offset="1" stop-color="#229ED9"/>
</linearGradient>
<clipPath id="clip0_681_2192">
<rect width="100" height="100" fill="white"/>
</clipPath>
</defs>
</svg>
