<?xml version="1.0" encoding="UTF-8"?><svg id="Layer_1" xmlns="http://www.w3.org/2000/svg" xmlns:xlink="http://www.w3.org/1999/xlink" viewBox="0 0 50 50"><defs><style>.cls-1{fill:url(#linear-gradient);}.cls-2{fill:#fff;fill-rule:evenodd;}</style><linearGradient id="linear-gradient" x1="-2128.84" y1="565.48" x2="-2128.84" y2="565.44" gradientTransform="translate(2128869 565486) scale(1000 -1000)" gradientUnits="userSpaceOnUse"><stop offset="0" stop-color="#2aabee"/><stop offset="1" stop-color="#229ed9"/></linearGradient></defs><g id="Artboard"><circle id="Oval" class="cls-1" cx="25" cy="25" r="22.5"/><path id="Path-3" class="cls-2" d="m12.68,24.76c6.56-2.86,10.93-4.74,13.12-5.65,6.25-2.6,7.55-3.05,8.39-3.07.19,0,.6.04.87.26.23.18.29.43.32.61s.07.57.04.89c-.34,3.56-1.8,12.19-2.55,16.18-.32,1.69-.94,2.25-1.54,2.31-1.31.12-2.3-.86-3.56-1.69-1.98-1.3-3.1-2.11-5.02-3.37-2.22-1.46-.78-2.27.48-3.58.33-.34,6.09-5.58,6.2-6.06.01-.06.03-.28-.1-.4s-.33-.08-.47-.05c-.2.05-3.36,2.14-9.49,6.27-.9.62-1.71.92-2.44.9-.8-.02-2.35-.45-3.5-.83-1.41-.46-2.53-.7-2.43-1.48.05-.41.61-.82,1.67-1.24Z"/></g></svg>