<svg xmlns="http://www.w3.org/2000/svg" width="100" height="100" fill="none" viewBox="0 0 100 100"><g clip-path="url(#clip0_681_2737)"><path fill="#CE272D" d="M50 86.8222C29.6667 86.8222 13.1778 70.3333 13.1778 50C13.1778 29.6667 29.6667 13.1778 50 13.1778C70.3333 13.1778 86.8222 29.6667 86.8222 50C86.8222 70.3333 70.3333 86.8222 50 86.8222ZM50 0C22.3778 0 0 22.3778 0 50C0 77.6222 22.3778 100 50 100C77.6222 100 100 77.6222 100 50C100 22.3778 77.6222 0 50 0Z"/><path fill="#CE272D" d="M52.0654 37.5555C52.0654 31.8222 56.7099 27.1555 62.4654 27.1555C68.221 27.1555 72.8654 31.8 72.8654 37.5555C72.8654 43.3111 68.221 47.9555 62.4654 47.9555C56.7099 47.9555 52.0654 43.3111 52.0654 37.5555ZM52.0654 62.4666C52.0654 56.7333 56.7099 52.0666 62.4654 52.0666C68.221 52.0666 72.8654 56.7111 72.8654 62.4666C72.8654 68.2222 68.221 72.8666 62.4654 72.8666C56.7099 72.8666 52.0654 68.2222 52.0654 62.4666ZM27.1543 62.4666C27.1543 56.7333 31.7987 52.0666 37.5543 52.0666C43.3098 52.0666 47.9543 56.7111 47.9543 62.4666C47.9543 68.2222 43.3098 72.8666 37.5543 72.8666C31.7987 72.8666 27.1543 68.2222 27.1543 62.4666ZM27.1543 37.5555C27.1543 31.8222 31.7987 27.1555 37.5543 27.1555C43.3098 27.1555 47.9543 31.8 47.9543 37.5555C47.9543 43.3111 43.3098 47.9555 37.5543 47.9555C31.7987 47.9555 27.1543 43.3111 27.1543 37.5555Z"/></g><defs><clipPath id="clip0_681_2737"><rect width="100" height="100" fill="#fff"/></clipPath></defs></svg>