<svg xmlns="http://www.w3.org/2000/svg" width="100" height="100" fill="none" viewBox="0 0 100 100"><path fill="#3359EA" d="M96.7326 46.2209C96.7326 65.0656 84.6218 83.3949 68.696 91.944C62.7773 95.1213 57.4944 100 50.9477 100C44.3277 100 36.7357 95.1239 30.8895 91.944C15.3974 83.5176 4 65.5688 4 46.8023C4 20.9541 25.6224 0 49.7849 0C73.9473 0 96.7326 20.3727 96.7326 46.2209Z"/><path fill="#032CB9" d="M44.9878 87.5815L43.0185 86.3571C42.9047 86.2863 42.8112 86.1871 42.7474 86.0692C42.4109 85.4475 43.0181 84.7383 43.6842 84.9749L43.8986 85.0511L45.5124 85.892C46.5366 86.4257 47.6441 86.7814 48.7875 86.9439L48.8807 86.9571C49.7699 87.0835 50.6726 87.0835 51.5618 86.9571C52.7645 86.7862 53.9235 86.3868 54.9763 85.7805L56.1315 85.1152C56.2055 85.0726 56.284 85.0383 56.3655 85.0129L56.9281 84.8381C57.6248 84.6215 58.2638 85.3051 58.0007 85.9856C57.9344 86.1569 57.8158 86.3029 57.6618 86.4028L55.7687 87.631C54.8894 88.2015 53.9047 88.5899 52.8727 88.7732L52.1429 88.9028C50.8729 89.1284 49.5721 89.115 48.3071 88.8633L48.1554 88.8332C47.0328 88.6098 45.9598 88.1858 44.9878 87.5815Z"/><path fill="url(#paint0_linear_684_2778)" d="M86.7044 42.4419L83.5067 39.9709L78.8556 39.3895L73.7684 40.5523L69.1172 42.8779L65.3381 46.3663L59.8149 54.9419L56.6172 64.3895L57.78 65.843L61.559 68.0232L65.6288 69.3314H72.8963L80.0183 67.1512L86.123 61.4825L89.3207 52.6163L88.8846 46.3663L86.7044 42.4419Z"/><path fill="#000" d="M62.5625 50.7893L59.6692 55.2326L58.6855 57.3404C57.986 58.8394 57.4155 60.3953 56.9802 61.9913L56.6532 63.1904L56.4897 63.79L56.4562 63.9127C56.3837 64.1785 56.5352 64.4539 56.7986 64.5349L57.2709 64.6802L58.2157 64.9709L60.1052 65.5523L62.1401 65.9884C63.4929 66.2783 64.8726 66.4244 66.2561 66.4244H66.2826H68.3901L70.7157 66.2791L70.7838 66.2706C72.2779 66.0838 73.7294 65.6443 75.0762 64.9709L76.2518 64.3831C77.0167 64.0007 77.743 63.5456 78.4208 63.0242C79.0002 62.5786 79.5419 62.0861 80.0406 61.5518L81.3262 60.1744L82.2795 58.8744C82.7093 58.2883 83.0967 57.6723 83.4387 57.031C83.8706 56.2213 84.2285 55.3743 84.5082 54.5002L84.7483 53.75C85.0821 52.7066 85.3014 51.6217 85.4005 50.5307C85.4937 49.5065 85.4807 48.4677 85.3605 47.4463L84.7387 42.1607C84.6941 41.7813 84.5056 41.4334 84.2121 41.1888C83.9439 40.9654 83.606 40.843 83.2569 40.843H79.6547C78.9296 40.843 78.2061 40.912 77.494 41.0489L77.1152 41.1217C75.5711 41.4187 74.0811 41.949 72.6966 42.6945L71.0064 43.6046L68.9028 44.8067C67.5969 45.5529 66.3866 46.4553 65.2985 47.4939C64.2623 48.483 63.3442 49.5888 62.5625 50.7893Z"/><path fill="#fff" d="M66.7912 63.3721L65.1924 60.1744L66.7912 59.7383L67.3726 58.5755H68.3901L68.6808 60.1744L69.5528 60.7558V61.6279L67.8087 61.9186L66.7912 63.3721Z"/><path fill="#fff" d="M75.8028 45.6395L77.111 45.0581H77.4017L78.2738 45.6395L78.7098 45.9302V46.5116V47.093L78.2738 47.6744L77.9831 48.1104H77.4017H76.6749L75.8028 47.6744L75.3668 46.5116L75.8028 45.6395Z"/><path fill="#fff" d="M80.1633 52.0348L80.5994 51.4535H80.8901H81.6168L82.0528 52.0348V52.3255V52.9069L81.6168 53.343H80.8901L80.1633 52.9069V52.0348Z"/><path fill="url(#paint1_linear_684_2778)" d="M10.9763 42.5872L14.1739 40.1163L18.8251 39.5349L23.9123 40.6977L28.5635 43.0233L32.3425 46.5117L37.8658 55.0872L41.0635 64.5349L39.9007 65.9884L36.1216 68.1686L32.0518 69.4768H24.7844L17.6623 67.2965L11.5577 61.6279L8.35999 52.7617L8.79604 46.5117L10.9763 42.5872Z"/><path fill="#000" d="M35.1182 50.9346L38.0115 55.3779L38.9951 57.4857C39.6947 58.9847 40.2652 60.5407 40.7004 62.1366L41.0275 63.3357L41.191 63.9353L41.2244 64.058C41.2969 64.3238 41.1454 64.5992 40.8821 64.6802L40.4097 64.8256L39.465 65.1163L37.5754 65.6976L35.5405 66.1337C34.1877 66.4236 32.8081 66.5697 31.4246 66.5697H31.3981H29.2905L26.965 66.4244L26.8969 66.4159C25.4028 66.2291 23.9513 65.7896 22.6045 65.1163L21.4289 64.5285C20.664 64.146 19.9376 63.6909 19.2598 63.1695C18.6805 62.7239 18.1388 62.2315 17.6401 61.6971L16.3545 60.3197L15.4012 59.0198C14.9714 58.4337 14.584 57.8176 14.242 57.1764C13.8101 56.3666 13.4522 55.5196 13.1725 54.6455L12.9324 53.8953C12.5985 52.8519 12.3793 51.767 12.2801 50.676C12.187 49.6518 12.1999 48.613 12.3201 47.5916L12.9419 42.306C12.9866 41.9266 13.1751 41.5787 13.4686 41.3342C13.7367 41.1107 14.0747 40.9883 14.4237 40.9883H18.026C18.7511 40.9883 19.4746 41.0573 20.1867 41.1942L20.5655 41.2671C22.1096 41.564 23.5995 42.0944 24.984 42.8398L26.6743 43.75L28.7778 44.952C30.0838 45.6983 31.2941 46.6006 32.3821 47.6392C33.4184 48.6283 34.3365 49.7342 35.1182 50.9346Z"/><path fill="#fff" d="M23.3312 47.8197L22.0231 47.2384H21.7324L20.8603 47.8197L20.4243 48.1104V48.6918V49.2732L20.8603 49.8546L21.151 50.2907H21.7324H22.4591L23.3312 49.8546L23.7673 48.6918L23.3312 47.8197Z"/><path fill="#fff" d="M17.5173 46.657L17.0812 46.0756H16.7905H16.0638L15.6277 46.657V46.9477V47.529L16.0638 47.9651H16.7905L17.5173 47.529V46.657Z"/><path fill="#fff" d="M33.651 61.4825L34.2324 61.0465H34.8138L35.1045 61.4825V61.9186V62.2093L34.5231 62.5H33.9417L33.651 61.9186V61.4825Z"/><defs><linearGradient id="paint0_linear_684_2778" x1="62.867" x2="85.396" y1="67.151" y2="36.919" gradientUnits="userSpaceOnUse"><stop stop-color="#C3CCEB"/><stop offset="1" stop-color="#C3CCEB" stop-opacity="0"/></linearGradient><linearGradient id="paint1_linear_684_2778" x1="34.813" x2="12.284" y1="67.296" y2="37.064" gradientUnits="userSpaceOnUse"><stop stop-color="#C3CCEB"/><stop offset="1" stop-color="#C3CCEB" stop-opacity="0"/></linearGradient></defs></svg>