<svg xmlns="http://www.w3.org/2000/svg" width="100" height="100" fill="none" viewBox="0 0 100 100"><path fill="#505050" d="M42.2411 86.2461C34.8013 96.7943 20.2784 99.4441 9.78116 92.1062C-0.665128 84.7683 -3.11109 70.1435 4.22679 59.4934C6.27887 56.5141 8.99476 54.052 12.1605 52.3011C15.3262 50.5503 18.8552 49.5585 22.4696 49.4038L22.7244 56.6907C18.0872 57.0474 13.603 59.4425 10.6984 63.621C5.60264 70.9588 7.18232 80.8446 14.1635 85.7875C21.1956 90.6794 31.0304 88.794 36.1262 81.507C37.7059 79.214 38.6231 76.717 38.9798 74.1692V69.0225L67.4141 68.8186L67.7708 68.2581C70.4715 63.57 76.3316 61.9394 80.9178 64.5892C82.0154 65.2314 82.9758 66.0836 83.744 67.0971C84.5122 68.1106 85.0732 69.2655 85.395 70.4958C85.7167 71.7262 85.793 73.0078 85.6193 74.2676C85.4457 75.5275 85.0255 76.7407 84.3829 77.8381C81.6822 82.4752 75.7711 84.1059 71.1849 81.4561C69.0957 80.2841 67.6179 78.3986 66.9555 76.2584L46.2158 76.3603C45.6084 79.9006 44.2534 83.2707 42.2411 86.2461ZM79.3381 49.8624C92.2304 51.4421 101.403 63.0095 99.823 75.6979C98.2434 88.4373 86.5231 97.4567 73.6309 95.8771C70.0508 95.4601 66.6138 94.2282 63.5839 92.276C60.554 90.3238 58.0118 87.7032 56.1525 84.6155L62.4712 80.9465C63.7784 82.9706 65.5153 84.6819 67.5585 85.9589C69.6017 87.236 71.9011 88.0473 74.2933 88.3354C83.2109 89.4055 91.1093 83.3415 92.1794 74.8316C93.2495 66.3217 86.9308 58.5252 78.1152 57.4551C75.3634 57.1494 72.7137 57.5061 70.3187 58.3723L65.9873 60.6145L52.8402 36.3078H51.7192C49.1538 36.2331 46.7222 35.146 44.9558 33.2841C43.1894 31.4222 42.2317 28.9368 42.292 26.371C42.4449 21.0715 47.0311 16.9439 52.3816 17.1477C57.7322 17.4535 61.9616 21.7849 61.8088 27.0844C61.7068 29.3266 60.8406 31.3649 59.4647 32.9446L69.1466 50.8306C72.306 49.8115 75.7711 49.4548 79.3381 49.8624Z"/><path fill="#C84068" d="M30.3923 35.4929C25.2965 23.5178 30.698 9.81028 42.4692 4.81644C54.2913 -0.17739 67.9479 5.47889 73.0437 17.4539C76.0502 24.4351 75.4387 32.0787 72.0245 38.1936L65.7058 34.5247C67.846 30.3971 68.2027 25.3523 66.1644 20.6133C62.6993 12.4601 53.476 8.53634 45.5776 11.8486C37.6282 15.2118 34.0612 24.588 37.5263 32.7411C38.9531 36.1043 41.3481 38.7032 44.2527 40.4357L46.24 41.5058L30.5961 66.9336C30.749 67.1884 30.9528 67.4942 31.1057 67.9018C33.6026 72.5389 31.87 78.3991 27.1819 80.896C22.5448 83.3929 16.6847 81.5584 14.1368 76.7684C11.6399 72.0294 13.3725 66.1693 18.0605 63.6723C20.0479 62.6022 22.2391 62.3474 24.3283 62.8061L36.0995 43.5951C33.7045 41.4039 31.6662 38.6522 30.3923 35.4929Z"/></svg>