<svg xmlns="http://www.w3.org/2000/svg" width="100" height="100" fill="none" viewBox="0 0 100 100"><g clip-path="url(#clip0_681_2206)"><path fill="#fff" d="M0 100L7.05715 74.3222C1.60955 64.8686 -0.566997 53.882 0.864993 43.0657C2.29698 32.2492 7.25752 22.2073 14.9774 14.4972C22.6974 6.78696 32.7454 1.83908 43.5637 0.420712C54.3817 -0.997651 65.3655 1.19274 74.8124 6.65227C84.259 12.1118 91.6404 20.5354 95.8124 30.6171C99.9841 40.6985 100.714 51.8752 97.887 62.4133C95.0605 72.9518 88.836 82.2631 80.1789 88.9038C71.5219 95.5445 60.9156 99.1437 50.0049 99.143C41.7265 99.1371 33.5813 97.0575 26.3131 93.0941L0 100ZM27.4977 84.1365L29.01 85.0289C35.3579 88.7907 42.601 90.7754 49.9799 90.7754C59.115 90.7754 67.9912 87.7399 75.2131 82.1458C82.4348 76.5517 87.593 68.7161 89.8762 59.8708C92.1598 51.0256 91.4391 41.6724 87.8276 33.2816C84.2158 24.8908 77.9182 17.9379 69.9246 13.5163C61.931 9.09456 52.6945 7.45468 43.6673 8.8544C34.6399 10.2541 26.3337 14.6141 20.0544 21.2489C13.7751 27.8837 9.87872 36.4173 8.97776 45.5077C8.07679 54.5985 10.2223 63.7307 15.0771 71.4689L16.055 73.0266L11.9064 88.2045L27.4977 84.1365Z"/><path fill="url(#paint0_linear_681_2206)" d="M1.72852 98.2861L8.51853 73.4954C3.25545 64.3716 1.14923 53.7668 2.52637 43.3242C3.90353 32.8819 8.68711 23.1855 16.1356 15.7383C23.584 8.2911 33.2812 3.50914 43.724 2.13372C54.1666 0.75834 64.7711 2.86632 73.8938 8.13092C83.0165 13.3955 90.1479 21.5226 94.1819 31.2523C98.2159 40.9819 98.9275 51.7708 96.2063 61.9458C93.4848 72.1211 87.4829 81.1142 79.1307 87.5316C70.7785 93.9486 60.5425 97.4312 50.0096 97.4393C42.0195 97.4403 34.1564 95.4384 27.1393 91.6172L1.72852 98.2861Z"/><path fill="url(#paint1_linear_681_2206)" d="M0 100L7.05715 74.3222C1.60955 64.8686 -0.566997 53.882 0.864993 43.0657C2.29698 32.2492 7.25752 22.2073 14.9774 14.4972C22.6974 6.78696 32.7454 1.83908 43.5637 0.420712C54.3817 -0.997651 65.3655 1.19274 74.8124 6.65227C84.259 12.1118 91.6404 20.5354 95.8124 30.6171C99.9841 40.6985 100.714 51.8752 97.887 62.4133C95.0605 72.9518 88.836 82.2631 80.1789 88.9038C71.5219 95.5445 60.9156 99.1437 50.0049 99.143C41.7265 99.1371 33.5813 97.0575 26.3131 93.0941L0 100ZM27.4977 84.1365L29.01 85.0289C35.3579 88.7907 42.601 90.7754 49.9799 90.7754C59.115 90.7754 67.9912 87.7399 75.2131 82.1458C82.4348 76.5517 87.593 68.7161 89.8762 59.8708C92.1598 51.0256 91.4391 41.6724 87.8276 33.2816C84.2158 24.8908 77.9182 17.9379 69.9246 13.5163C61.931 9.09456 52.6945 7.45468 43.6673 8.8544C34.6399 10.2541 26.3337 14.6141 20.0544 21.2489C13.7751 27.8837 9.87872 36.4173 8.97776 45.5077C8.07679 54.5985 10.2223 63.7307 15.0771 71.4689L16.055 73.0266L11.9064 88.2045L27.4977 84.1365Z"/><path fill="#fff" fill-rule="evenodd" d="M37.5967 28.8338C36.6691 26.767 35.691 26.7267 34.8089 26.6914C34.0881 26.6612 33.2614 26.6612 32.4347 26.6612C31.8065 26.678 31.1886 26.8251 30.6202 27.0932C30.0519 27.3614 29.5454 27.7446 29.133 28.2188C27.9988 29.4588 24.7979 32.4531 24.7979 38.5477C24.7979 44.642 29.2388 50.5297 29.8387 51.3564C30.4386 52.1832 38.408 65.0874 51.0102 70.0529C61.4749 74.1814 63.6123 73.3595 65.8706 73.153C68.1289 72.9461 73.1997 70.1284 74.2334 67.2653C75.2666 64.4019 75.2666 61.8917 74.954 61.3776C74.6415 60.8634 73.82 60.5508 72.5799 59.9309C71.3397 59.3107 65.2557 56.3113 64.1163 55.898C62.977 55.4849 62.1555 55.283 61.3288 56.5231C60.502 57.7632 58.1327 60.5557 57.412 61.3776C56.691 62.1991 55.9654 62.3051 54.7253 61.6849C53.4851 61.065 49.4978 59.7595 44.7645 55.5401C42.0585 53.0384 39.7362 50.1507 37.8738 46.9708C37.1531 45.736 37.7983 45.0603 38.4181 44.4505C39.038 43.8405 39.6583 43.0036 40.2782 42.2829C40.7843 41.6549 41.2001 40.9591 41.5134 40.216C41.6774 39.8739 41.7543 39.4963 41.7367 39.117C41.7192 38.7381 41.6078 38.369 41.4126 38.0434C41.1049 37.4084 38.7005 31.2786 37.5967 28.8338Z" clip-rule="evenodd"/></g><defs><linearGradient id="paint0_linear_681_2206" x1="49.788" x2="49.788" y1="98.271" y2="1.724" gradientUnits="userSpaceOnUse"><stop stop-color="#20B038"/><stop offset="1" stop-color="#60D66A"/></linearGradient><linearGradient id="paint1_linear_681_2206" x1="49.783" x2="49.783" y1="100" y2="-.005" gradientUnits="userSpaceOnUse"><stop stop-color="#F9F9F9"/><stop offset="1" stop-color="#fff"/></linearGradient><clipPath id="clip0_681_2206"><rect width="100" height="100" fill="#fff"/></clipPath></defs></svg>