<svg width="100" height="100" viewBox="0 0 100 100" fill="none" xmlns="http://www.w3.org/2000/svg">
<g clip-path="url(#clip0_758_109763)">
<g clip-path="url(#clip1_758_109763)">
<path d="M50 100C77.6142 100 100 77.6142 100 50C100 22.3858 77.6142 0 50 0C22.3858 0 0 22.3858 0 50C0 77.6142 22.3858 100 50 100Z" fill="black"/>
<path d="M53.6035 40.6446C54.3652 40.2442 55.7324 40.2832 55.7324 40.2832C55.7324 41.6113 55.6055 42.4024 54.7656 43.0176C54.502 43.2129 54.0332 43.5156 53.4961 43.711C52.7539 43.9844 52.2461 44.4629 52.2461 44.4629C52.2461 42.041 52.6172 41.1621 53.6035 40.6446ZM47.7344 41.211C46.9238 41.9238 46.6895 43.0567 46.6895 43.0567L44.0137 53.418L41.7871 44.9317C41.5723 44.0332 41.1816 42.9102 40.5664 42.1582C39.7754 41.2012 38.1738 41.1328 38.0078 41.1328C37.8418 41.1328 36.2402 41.1914 35.4492 42.1582C34.834 42.9102 34.4434 44.0235 34.2285 44.9317L31.9922 53.418L29.3164 43.0567C29.3164 43.0567 29.082 41.9238 28.2715 41.211C26.9629 40.0586 25 40.3028 25 40.3028L30.1172 59.668C30.1172 59.668 31.8066 59.7852 32.6562 59.3555C33.7695 58.7891 34.2969 58.3496 34.9707 55.7129C35.5664 53.3594 37.2461 46.4649 37.4023 45.9668C37.4805 45.7227 37.5781 45.1465 38.0078 45.1465C38.4473 45.1465 38.5352 45.7227 38.6133 45.9668C38.7695 46.4551 40.4492 53.3594 41.0449 55.7129C41.7187 58.3496 42.2461 58.7891 43.3594 59.3555C44.209 59.7852 45.8984 59.668 45.8984 59.668L51.0254 40.293C51.0059 40.3028 49.043 40.0488 47.7344 41.211ZM55.7324 43.4668C55.7324 43.4668 55.4102 43.9649 54.6777 44.375C54.209 44.6387 53.7598 44.8145 53.2715 45.0488C52.4609 45.4395 52.2461 45.8692 52.2461 46.5332V59.668C52.2461 59.668 53.5352 59.834 54.3848 59.4043C55.4688 58.8477 55.7227 58.3106 55.7324 55.9082V43.4668ZM68.5059 50.0293L75.0098 40.3613C75.0098 40.3613 72.2656 39.8926 70.9082 41.1328C70.0391 41.9238 69.0625 43.3496 69.0625 43.3496L66.6699 46.7969C66.5527 46.9727 66.4062 47.168 66.1621 47.168C65.918 47.168 65.7715 46.9727 65.6543 46.7969L63.2617 43.3496C63.2617 43.3496 62.2852 41.9238 61.416 41.1328C60.0586 39.8926 57.3145 40.3613 57.3145 40.3613L63.8184 50.0293L57.3242 59.668C57.3242 59.668 60.1855 60.0293 61.543 58.7891C62.4121 57.9981 63.252 56.709 63.252 56.709L65.6445 53.2617C65.7617 53.086 65.9082 52.8906 66.1523 52.8906C66.3965 52.8906 66.543 53.086 66.6602 53.2617L69.0527 56.709C69.0527 56.709 69.9414 57.9981 70.8105 58.7891C72.168 60.0293 74.9805 59.668 74.9805 59.668L68.5059 50.0293Z" fill="white"/>
</g>
</g>
<defs>
<clipPath id="clip0_758_109763">
<rect width="100" height="100" fill="white"/>
</clipPath>
<clipPath id="clip1_758_109763">
<rect width="100" height="100" fill="white"/>
</clipPath>
</defs>
</svg>
