<svg width="100" height="100" viewBox="0 0 100 100" fill="none" xmlns="http://www.w3.org/2000/svg">
<path fill-rule="evenodd" clip-rule="evenodd" d="M93.5 28.125V87.5C93.5 90.8152 92.183 93.9946 89.8388 96.3388C87.4946 98.683 84.3152 100 81 100V93.75C82.6576 93.75 84.2473 93.0915 85.4194 91.9194C86.5915 90.7473 87.25 89.1576 87.25 87.5V28.125H74.75C72.2636 28.125 69.879 27.1373 68.1209 25.3791C66.3627 23.621 65.375 21.2364 65.375 18.75V6.25H31C29.3424 6.25 27.7527 6.90848 26.5806 8.08058C25.4085 9.25268 24.75 10.8424 24.75 12.5V68.75H18.5V12.5C18.5 9.18479 19.817 6.00537 22.1612 3.66117C24.5054 1.31696 27.6848 0 31 0L65.375 0L93.5 28.125ZM28.0437 74.0625H22.4625L17.3187 83.0562H17.0937L11.8938 74.0625H6.075L13.7437 86.4563L6 99.0625H11.3813L16.7125 90.2188H16.9312L22.2437 99.0625H27.9187L20.0813 86.6125L28.0437 74.0625ZM34.0062 99.0562V82.4313H34.2438L40.1938 95.925H43.4187L49.3313 82.425H49.5688V99.0562H54.0375V74.0625H49.0375L41.9125 90.2875H41.7563L34.625 74.0625H29.5875V99.0562H34.0062ZM63.4437 94.8438H74.0438V99.0562H58.5V74.0625H63.4437V94.8438Z" fill="#151515"/>
</svg>
