<svg xmlns="http://www.w3.org/2000/svg" width="100" height="100" fill="none" viewBox="0 0 100 100"><path fill="#006EB9" d="M68.5412 81.9279C60.1998 81.9279 52.3411 78.6968 46.4135 72.8313L29.0893 55.5071C27.0721 53.4898 25.9651 50.807 25.9755 47.9553C25.9858 45.1036 27.1065 42.4277 29.1341 40.4242C33.279 36.3277 40.0066 36.3484 44.1273 40.4691L59.9929 56.3347C61.8515 58.1933 64.8826 58.2002 66.7481 56.3519C67.6619 55.4485 68.1653 54.245 68.1688 52.9588C68.1722 51.676 67.6757 50.4657 66.7653 49.5588L49.4653 32.2587C44.6308 27.4759 38.21 24.8414 31.4031 24.8621C24.4582 24.8793 17.9755 27.6069 13.1478 32.5414C8.31334 37.4828 5.72712 44.0312 5.86505 50.9795C6.13747 64.8106 17.6203 76.0658 31.4617 76.0658C33.9376 76.0658 36.3824 75.7141 38.7307 75.021C40.2825 74.5623 41.9135 75.4485 42.3687 77.0003C42.8273 78.552 41.9411 80.183 40.3894 80.6417C37.5031 81.4934 34.4997 81.9279 31.4617 81.9279C14.4513 81.9279 0.340889 68.0968 0.00640441 51.0967C-0.162562 42.5622 3.01676 34.5173 8.95817 28.4449C14.8961 22.3759 22.8617 19.0207 31.3893 19.0034C39.7169 18.9828 47.6446 22.2138 53.5929 28.1L70.9102 45.4174C72.9274 47.4381 74.0378 50.1208 74.0309 52.976C74.024 55.8312 72.8999 58.5105 70.8723 60.5174C66.7205 64.6244 59.9826 64.6071 55.8515 60.4761L39.9859 44.6105C38.1342 42.7587 35.1169 42.7518 33.2548 44.5898C32.3445 45.4898 31.841 46.6898 31.8376 47.9726C31.8341 49.2519 32.3307 50.4588 33.2342 51.3622L50.5411 68.6727C55.3584 73.4382 61.755 76.0692 68.5412 76.0692C82.6447 76.0692 94.131 64.5968 94.1448 50.4933C94.1517 43.6587 91.4896 37.2242 86.6482 32.3759C81.8068 27.5276 75.3757 24.8586 68.5412 24.8586C66.3619 24.8586 64.1998 25.1311 62.1102 25.6724C61.8067 25.7518 61.5032 25.8345 61.2032 25.9242C59.6515 26.3862 58.0205 25.5035 57.5584 23.9552C57.0963 22.4035 57.9791 20.7724 59.5274 20.3104C59.8963 20.2 60.2688 20.0966 60.6412 20C63.2067 19.3379 65.8653 19 68.5378 19C76.9378 19 84.8413 22.2793 90.7896 28.2345C96.7379 34.1897 100.01 42.0967 100 50.4967C99.9827 67.8278 85.8654 81.9244 68.5378 81.9244L68.5412 81.9279Z"/></svg>