<?xml version="1.0" encoding="utf-8"?>
<!-- Uploaded to: SVG Repo, www.svgrepo.com, Generator: SVG Repo Mixer Tools -->
<svg fill="#000000" width="800px" height="800px" viewBox="0 0 32 32" version="1.1" xmlns="http://www.w3.org/2000/svg">
<title>mariadb</title>
<path d="M29.942 6.518c-0.597 0.293-1.3 0.465-2.042 0.465-0.017 0-0.034-0-0.051-0l0.003 0c-0.543 0-1.064 0.096-1.546 0.271l0.032-0.010c-1.052 0.391-1.916 1.082-2.513 1.969l-0.012 0.018c-0.495 0.693-1.011 1.505-1.487 2.343l-0.074 0.142c-0.382 0.63-0.759 1.169-1.168 1.681l0.024-0.031c-0.701 0.866-1.6 1.545-2.63 1.971l-0.044 0.016c-1.369 0.617-3.070 1.245-4.818 1.767l-0.308 0.079c-1.341 0.441-2.665 0.922-2.958 1.080-1.109 0.603-2.030 1.418-2.737 2.398l-0.016 0.024c-1.253 1.65-1.215 1.641-3.801 1.183q-0.421-0.051-0.844-0.079c-0.12-0.026-0.258-0.041-0.399-0.041-0.483 0-0.925 0.173-1.268 0.461l0.003-0.003-0.284 0.269 0.221 0.11c0.268 0.167 0.496 0.331 0.714 0.508l-0.013-0.010c0.202 0.167 0.426 0.328 0.661 0.473l0.026 0.015c0.089 0.041 0.164 0.084 0.236 0.131l-0.007-0.004c-0.078 0.169-0.173 0.314-0.287 0.443l0.002-0.002c-0.544 0.726-0.741 1.088-0.717 1.31 0.024 0.205 0.040 0.212 0.537 0.212 0.027 0.001 0.059 0.001 0.091 0.001 0.533 0 1.043-0.096 1.515-0.271l-0.030 0.010c1.352-0.551 2.496-1.138 3.582-1.809l-0.103 0.059c0.704-0.485 1.508-0.922 2.358-1.271l0.086-0.031c0.102-0.025 0.442-0.087 0.742-0.142 0.42-0.055 0.906-0.087 1.4-0.087 0.647 0 1.282 0.054 1.899 0.159l-0.067-0.009c0.135 0.016 0.466 0.056 0.75 0.080 0.208 0.014 0.402 0.048 0.587 0.1l-0.020-0.005c0.033 0.015 0.592 0.046 1.247 0.070 1.167 0.032 1.38 0.009 1.625-0.236 0.256-0.353 0.467-0.761 0.613-1.199l0.009-0.032c0.261-0.804 0.521-1.151 0.457-0.615-0.1 1.117-0.418 2.14-0.912 3.055l0.021-0.042c-0.351 0.662-0.738 1.234-1.179 1.758l0.012-0.015c-0.402 0.434-0.394 0.45 0.11 0.394 0.991-0.155 1.876-0.516 2.641-1.039l-0.022 0.014c1.225-0.975 2.167-2.255 2.717-3.727l0.019-0.059c0.134-0.337 0.275-0.275 0.229 0.104-0.016 0.117-0.047 0.394-0.071 0.622l-0.039 0.41 0.441-0.252c1.245-0.867 2.178-2.107 2.644-3.555l0.014-0.049c0.473-1.33 0.936-2.995 1.294-4.699l0.047-0.269c0.106-0.524 0.223-0.961 0.363-1.387l-0.024 0.085c0.092-0.425 0.305-0.791 0.599-1.071l0.001-0.001c0.37-0.353 0.768-0.684 1.189-0.987l0.033-0.023c0.63-0.358 1.134-0.87 1.473-1.486l0.010-0.020c0.16-0.307 0.254-0.671 0.254-1.057 0-0.227-0.033-0.447-0.093-0.655l0.004 0.016c-0.165-0.252-0.355-0.245-0.954 0.008z"></path>
</svg>