<svg width="172" height="171" viewBox="0 0 172 171" fill="none" xmlns="http://www.w3.org/2000/svg">
<path fill-rule="evenodd" clip-rule="evenodd" d="M85.6617 170.823C105.138 170.823 123.092 164.304 137.46 153.33L124.71 140.58C113.707 148.333 100.287 152.887 85.804 152.887C71.2175 152.887 57.7098 148.268 46.6635 140.414L33.7976 153.279C48.1769 164.285 66.1557 170.823 85.6617 170.823ZM17.6935 137.144L30.5636 124.274C22.7674 113.253 18.1865 99.7962 18.1865 85.2693C18.1865 70.7859 22.7401 57.366 30.4938 46.3633L17.7438 33.6133C6.76888 47.9816 0.25 65.9353 0.25 85.4117C0.25 104.858 6.749 122.787 17.6935 137.144ZM171.073 85.4117C171.073 104.888 164.555 122.842 153.58 137.21L140.878 124.508C148.775 113.444 153.422 99.8992 153.422 85.2693C153.422 70.6828 148.803 57.1751 140.948 46.1288L153.529 33.5476C164.535 47.9269 171.073 65.9057 171.073 85.4117ZM137.394 17.4435C123.037 6.499 105.108 0 85.6617 0C66.1854 0 48.2316 6.51886 33.8633 17.4937L46.5649 30.1953C57.6294 22.298 71.1741 17.6517 85.804 17.6517C100.331 17.6517 113.788 22.2327 124.809 30.0289L137.394 17.4435Z" fill="#0080FF"/>
<path d="M107.014 85.4117C107.014 97.2046 97.4544 106.765 85.6615 106.765C73.8686 106.765 64.3086 97.2046 64.3086 85.4117C64.3086 73.6188 73.8686 64.0588 85.6615 64.0588C97.4544 64.0588 107.014 73.6188 107.014 85.4117Z" fill="#0080FF"/>
<path fill-rule="evenodd" clip-rule="evenodd" d="M78.3398 32.4562C54.6657 35.6754 35.9261 54.4151 32.707 78.0892H50.64C53.5614 64.2801 64.4904 53.4264 78.3398 50.6152V32.4562ZM120.275 78.0892C117.373 64.375 106.574 53.5757 92.8598 50.6743V32.4562C116.534 35.6753 135.274 54.4151 138.493 78.0892H120.275ZM92.8598 120.309C106.669 117.387 117.522 106.459 120.334 92.6092H138.493C135.273 116.283 116.534 135.023 92.8598 138.242V120.309ZM50.581 92.6092C53.4115 106.554 64.3954 117.537 78.3398 120.368V138.242C54.6658 135.023 35.9263 116.283 32.7071 92.6092H50.581Z" fill="#0080FF"/>
</svg>
