<svg xmlns="http://www.w3.org/2000/svg" width="100" height="100" fill="none" viewBox="0 0 100 100"><path fill="#fff" d="M95.8122 57.6007C93.3497 55.7202 91.8274 56.4366 90.1932 56.7948C88.7157 57.1306 87.0367 57.3544 85.2905 57.3992C90.0141 49.34 93.4169 40.7436 95.3645 33.1545C96.5062 28.6772 97.1554 24.5581 97.2002 20.9314C97.2674 17.3272 96.9763 14.1035 94.8272 11.35C88.1336 2.70873 78.7313 0.313362 71.4556 0.223816H70.784C66.8216 0.223816 62.9935 0.850641 59.4116 1.9252L59.2325 1.96997C57.1506 1.5894 54.7328 1.34315 52.2479 1.27599C47.4124 1.20883 43.2709 2.39532 39.9129 4.36534C36.6221 3.20123 29.7941 1.20883 22.5633 1.61179C17.5487 1.88043 12.0863 3.44749 8.03436 7.7681C3.98239 12.1111 1.83327 18.8271 2.28101 27.9384C2.41532 30.4681 3.1317 34.5649 4.31819 39.8929C5.48229 45.1985 7.11651 51.4444 9.19847 57.1306C11.258 62.8168 13.5191 67.8985 17.0338 71.3684C18.8023 73.1146 21.2201 74.5697 24.0856 74.4354C26.1004 74.3459 27.9137 73.4504 29.4807 72.1296C30.2419 73.1594 31.0702 73.6071 31.8089 74.0101C32.7492 74.5473 33.667 74.8831 34.5849 75.1294C36.2863 75.5547 39.1741 76.1368 42.5545 75.5324C43.7186 75.3533 44.9275 74.9727 46.1364 74.413C46.1811 75.801 46.2259 77.1218 46.2707 78.4874C46.4498 82.7632 46.5617 86.748 47.8377 90.2404C48.0392 90.8 48.5989 93.7327 50.8152 96.3071C53.0314 98.9264 57.3521 100.516 62.2995 99.4413C65.7694 98.6801 70.202 97.3145 73.157 93.0835C76.0449 88.8972 77.3657 82.8752 77.6343 73.137C77.7015 72.5997 77.7686 72.152 77.8582 71.7266L78.5522 71.7938H78.6417C82.3579 71.9729 86.3875 71.4356 89.7679 69.8462C92.7229 68.4358 95.0063 67.0254 96.6405 64.5181C97.0659 63.8913 97.5136 63.1302 97.6479 61.8541C97.7599 60.5557 97.0211 58.5409 95.8122 57.6007Z"/><path fill="#32648C" d="M79.0697 61.3617C78.4652 61.5856 77.9727 61.6751 77.5474 61.8542C77.122 62.0333 76.7639 62.3467 76.5624 62.7273C76.2937 63.2198 76.0699 64.0705 76.137 65.5033C76.3161 65.6376 76.5176 65.7271 76.7191 65.7943C77.4131 66.0181 78.5996 66.1525 79.9204 66.1301C82.5396 66.1077 85.7857 65.4809 87.487 64.6749C88.9646 63.981 90.2406 63.1303 91.3599 62.1229C85.629 63.3318 82.3829 62.996 80.4129 62.1676C79.898 61.9438 79.4502 61.6528 79.0473 61.317L79.0697 61.3617Z"/><path fill="#32648C" d="M73.2041 17.2824L73.2265 17.3272L73.2489 17.3496L73.2041 17.2824Z"/><path fill="#32648C" d="M51.2632 80.3904C51.2632 80.3904 51.2632 80.1889 51.2632 80.077C51.2632 80.0322 51.2632 80.0098 51.2632 79.9651V80.3904ZM46.8754 62.011C46.6291 61.8991 46.3605 61.8095 46.0471 61.7648H45.9575C45.7337 61.7648 45.4203 61.8543 44.8158 62.5483C43.3831 64.1825 42.8906 65.1899 41.7041 66.1525C40.5176 67.0928 38.9953 67.6077 35.9283 68.2569C34.9657 68.4584 34.406 68.6822 34.0255 68.8613C34.1374 68.9509 34.1374 68.9956 34.3165 69.0852C34.7642 69.3314 35.3463 69.5553 35.8164 69.6672C37.1372 70.003 39.3087 70.3836 41.5474 70.003C43.8084 69.6225 46.159 68.5255 48.1514 65.66C48.4872 65.1675 48.532 64.4512 48.241 63.6676C47.95 62.8841 47.3231 62.2125 46.8754 62.0334V62.011ZM63.7101 6.24597L63.4639 6.29074C63.4639 6.29074 63.6206 6.26836 63.7101 6.24597ZM75.3064 28.7445C72.5081 28.7893 70.941 29.5057 70.1127 30.4683C68.9486 31.8115 68.8367 34.2068 69.553 37.1171C70.2694 40.0497 71.7693 43.3182 73.1573 46.0494C73.8513 47.4149 74.5452 48.6462 75.0825 49.6312C75.6422 50.6386 76.0451 51.3326 76.2914 51.937C76.5153 52.4967 76.7615 52.9892 77.0302 53.4369C78.1047 51.1311 78.3062 48.8477 78.1943 46.4971C78.0599 43.5644 77.3883 40.5646 77.4779 37.5424C77.5898 34.0054 78.2838 31.6995 78.351 28.946C77.4331 28.8117 76.3809 28.7445 75.3064 28.7445ZM75.8213 30.8489V30.916C75.8213 31.1175 75.7765 31.2966 75.6646 31.4309C75.5303 31.6548 75.3959 31.8786 75.2168 32.0577C74.8139 32.5055 74.2542 32.8189 73.6498 32.9308C73.6498 32.9308 73.4707 32.9308 73.3587 32.9308C72.8439 32.9308 72.3514 32.7741 71.9484 32.4831C71.7469 32.3488 71.5678 32.192 71.4111 31.9906C71.2768 31.8339 71.1873 31.6548 71.1425 31.4757C71.1425 31.4757 71.1425 31.4309 71.1425 31.4085C71.1425 31.2294 71.2096 31.0727 71.3216 30.9384C71.4559 30.7817 71.6126 30.6698 71.7917 30.5578C72.1946 30.334 72.7319 30.1549 73.314 30.0653C73.5378 30.0429 73.7617 30.0205 73.9632 30.0205H74.1647C74.4333 30.0205 74.6796 30.0653 74.9034 30.1101C75.1273 30.1549 75.3064 30.2444 75.4631 30.334C75.6198 30.4459 75.7317 30.6026 75.7765 30.7817L75.8213 30.8489ZM29.4586 47.1015C29.4586 46.3628 29.5258 45.624 29.6153 44.9076V44.9972C30.0407 41.9078 30.0854 39.0423 30.0407 36.7589C29.9959 34.5426 29.8392 33.0651 29.8392 32.1473V32.0577V32.013C29.8392 27.0655 30.7123 22.3196 32.2793 17.9318C33.4434 14.8424 35.1448 11.6859 37.7193 9.13384C35.1896 8.28315 30.7123 7.00712 25.8544 6.76086C25.3842 6.73848 24.847 6.71609 24.2873 6.71609C23.7724 6.71609 23.2351 6.71609 22.7202 6.76086C18.5563 7.00712 14.6387 8.21599 11.818 11.2382C8.99725 14.2604 7.13916 19.2078 7.54212 27.3789C7.63167 28.9236 8.28088 33.2666 9.4226 38.4379C10.5643 43.5868 12.1761 49.676 14.1238 55.0264C16.0714 60.3992 18.422 65.0556 20.6607 67.2719C21.78 68.3688 22.765 68.8165 23.6605 68.7942C24.5559 68.7494 25.6305 68.2345 26.9289 66.645C29.5034 63.5109 31.9435 60.735 34.4508 58.0262L34.3613 58.1157C31.3167 55.4293 29.4138 51.4893 29.4138 47.1015H29.4586Z"/><path fill="#32648C" d="M51.6014 6.53696C46.7435 6.53696 43.2512 8.03686 40.5872 10.2531C37.856 12.559 36.0203 15.7155 34.8338 18.9391C33.4011 22.7672 32.9086 26.4834 32.7295 28.9907H32.7743C34.2518 28.1176 36.177 27.2893 38.2366 26.7968C40.2962 26.3043 42.5348 26.17 44.5496 26.9535C46.5644 27.7371 48.2434 29.6176 48.8479 32.4383C51.7357 46.0045 47.9524 51.0639 46.542 54.8696C46.0943 55.9666 45.6242 57.3769 45.2436 58.8097L45.1764 59.0783C45.3555 59.0336 45.5346 58.9888 45.7137 58.9664C46.6987 58.8768 47.4823 59.2126 47.93 59.4141C49.3404 59.9962 50.303 61.2498 50.8179 62.6602C50.9522 63.0408 51.0417 63.4213 51.1089 63.8467C51.1537 63.981 51.1984 64.1601 51.1984 64.3168V64.3616C51.1313 66.4435 51.0865 68.8837 51.0865 71.3462C51.0865 74.2564 51.1537 77.1667 51.2432 80.0546C51.3328 82.2485 51.4671 84.1961 51.6462 85.7184C51.8253 87.2854 52.0715 88.4496 52.2282 88.8525C52.7431 90.1957 53.5267 91.9419 54.9146 93.1284C56.3026 94.3148 58.295 95.0984 61.944 94.3148C65.1005 93.6209 67.0482 92.6806 68.369 91.2927C69.6674 89.9271 70.4509 88.0242 70.9434 85.0916C71.6822 80.7262 73.1821 68.033 73.3612 65.6376C73.2716 63.8467 73.5403 62.4587 74.0999 61.4065C74.682 60.332 75.5998 59.6604 76.361 59.3022C76.7416 59.1231 77.1221 59.0112 77.4132 58.9216C77.055 58.3843 76.7192 57.959 76.3834 57.5113L76.4282 57.556C75.3536 56.2352 74.4357 54.7353 73.7418 53.1011L73.697 52.9892C73.2716 52.1161 72.9135 51.4669 72.5553 50.8177L72.6448 50.9744C72.1075 49.967 71.4135 48.7357 70.6748 47.3254C69.2197 44.5046 67.6526 41.1019 66.8243 37.7887C66.0184 34.4754 65.8841 31.0503 67.9884 28.6102C69.8465 26.461 73.0925 25.5656 77.9728 26.0581C77.8385 25.6103 77.749 25.2522 77.5027 24.6701C76.3162 21.8718 74.8835 19.4764 73.1821 17.2825C69.0406 11.9321 62.347 6.64889 52.0268 6.49219H51.579L51.6014 6.53696Z"/><path fill="#32648C" d="M32.6592 32.3709L32.6816 32.3485L32.6592 32.3709Z"/><path fill="#32648C" d="M38.7715 29.5502H38.8163L38.861 29.5278L38.7715 29.5502Z"/><path fill="#32648C" d="M43.9452 53.8846C45.6242 49.3178 48.8926 46.0045 46.139 33.0203C45.6913 30.8936 44.7958 30.0429 43.5646 29.5504C42.9601 29.3265 42.2662 29.1922 41.5498 29.1922H41.4155C40.52 29.1922 39.6693 29.3041 38.841 29.5056C37.0949 29.9533 35.5502 30.5802 34.1174 31.3637C33.5802 31.6547 33.11 31.9681 32.6847 32.3039L32.5951 32.3711C32.6175 32.9755 32.7295 34.4531 32.7966 36.6246C32.8414 38.9975 32.7966 42.0197 32.3265 45.3106C31.3415 52.4295 36.4456 58.3396 42.4453 58.3396C42.8034 56.8844 43.3855 55.3845 43.9452 53.8399V53.8846ZM40.4081 33.177C40.2066 32.9755 40.0499 32.7517 39.9156 32.5054C39.8036 32.3039 39.7365 32.1025 39.7365 31.8786C39.7365 31.8338 39.7365 31.789 39.7365 31.7443C39.8036 31.2965 40.1618 31.0727 40.52 30.9384C40.8558 30.8264 41.214 30.7593 41.617 30.7593C41.6841 30.7593 41.7289 30.7593 41.796 30.7593C42.0199 30.7593 42.2438 30.7593 42.49 30.804C43.1169 30.8936 43.6765 31.0727 44.1019 31.3189C44.3033 31.4309 44.5048 31.5876 44.6391 31.7667C44.7735 31.9234 44.863 32.1472 44.863 32.3935C44.863 32.4159 44.863 32.4606 44.863 32.483C44.8182 32.7293 44.7063 32.9531 44.5496 33.1099C44.3705 33.3113 44.1914 33.4904 43.9675 33.6471C43.5422 33.9605 43.0273 34.1396 42.4453 34.1396C42.3333 34.1396 42.2214 34.1396 42.1095 34.1396C41.4155 34.0277 40.8334 33.6919 40.3857 33.1994L40.4081 33.177Z"/><path fill="#32648C" d="M34.0273 31.4533C34.0273 31.4533 34.0945 31.4309 34.1169 31.4085L34.0273 31.4533ZM75.4426 15.626C77.2559 17.9318 78.8006 20.5734 80.0094 23.3941L80.099 23.618C80.5467 24.7149 80.8601 25.6552 81.0392 26.3715C81.1288 26.7297 81.1959 27.0431 81.1959 27.3566C81.1959 27.5133 81.1959 27.67 81.1511 27.961C81.1511 27.961 81.1512 28.0058 81.1288 28.0058C81.2631 31.6548 80.3676 34.1397 80.2557 37.6096C80.1661 40.1393 80.8154 43.0943 80.9721 46.3404C81.1288 49.385 80.7706 52.7206 78.8006 56.0114C78.9573 56.2129 79.114 56.4144 79.2707 56.6158C84.442 48.3776 88.1582 39.2886 90.1282 31.5205C91.1804 27.3342 91.7624 23.5508 91.8072 20.551C91.8519 17.5512 91.2923 15.3797 90.5983 14.4619C85.0688 7.32054 77.6141 5.48484 71.3458 5.44006H70.7414C68.3236 5.48484 65.9954 5.75348 63.7344 6.24598C68.8609 8.5518 72.7338 12.0889 75.4426 15.626Z"/><path fill="#000" d="M52.2715 1.07456H52.2267C47.3688 0.985011 43.2049 2.19389 39.8469 4.16391C36.5337 2.99981 29.6834 1.0074 22.4302 1.38797C17.3932 1.65661 11.8861 3.22367 7.81171 7.56667C3.75973 11.9097 1.61062 18.648 2.05835 27.8266C2.19267 30.3562 2.88665 34.4754 4.07314 39.8258C5.25963 45.1762 6.91624 51.422 8.97581 57.1306C11.0354 62.8392 13.3188 67.9657 16.8559 71.4357C18.6244 73.1818 21.0646 74.6369 23.9301 74.525C25.9449 74.4355 27.7582 73.54 29.3476 72.2192C30.1088 73.249 30.9371 73.6967 31.6758 74.0997C32.6161 74.6146 33.5339 74.9727 34.4742 75.219C36.1755 75.6443 39.0858 76.2264 42.4886 75.6443C43.6527 75.4429 44.8615 75.0623 46.0928 74.525C46.1376 75.8906 46.1824 77.2562 46.2495 78.5994C46.4286 82.92 46.5182 86.9048 47.7942 90.3971C47.9957 90.9568 48.5553 93.9118 50.794 96.5087C53.0103 99.1055 57.3757 100.74 62.3231 99.6652C65.8154 98.904 70.2703 97.5384 73.2254 93.285C76.1356 89.0763 77.4564 83.0319 77.7251 73.249C77.7922 72.7117 77.8818 72.264 77.9489 71.8386L78.6429 71.9058H78.7325C82.471 72.0849 86.523 71.5476 89.9034 69.9581C92.9032 68.5478 95.1642 67.1374 96.8209 64.6077C97.2238 63.9809 97.6939 63.2198 97.8059 61.9214C97.9402 60.6229 97.2014 58.5857 95.9702 57.6455C93.53 55.765 91.9853 56.4814 90.3287 56.8172C88.8512 57.153 87.1498 57.3769 85.4261 57.4216H85.4037C90.172 49.3177 93.5748 40.6989 95.5224 33.065C96.6865 28.5653 97.3134 24.4238 97.3805 20.7972C97.4253 17.1705 97.1343 13.9469 94.9851 11.1709C88.2692 2.48491 78.8444 0.0895464 71.524 0C71.3001 0 71.0763 0 70.8524 0C66.8676 0 63.0619 0.626825 59.4352 1.70138L59.2561 1.76854C57.1742 1.38797 54.734 1.11933 52.2715 1.07456ZM62.144 3.73856C64.6961 3.11174 67.6287 2.73117 70.6509 2.68639H70.6733C77.5908 2.59685 86.4111 4.56687 92.7465 12.7604C94.1792 14.5961 94.6046 17.2825 94.5374 20.6181C94.4926 23.9313 93.8882 27.8937 92.7689 32.2367C90.6198 40.6541 86.5678 50.4594 80.8368 59.2573C81.0159 59.3917 81.2398 59.526 81.4636 59.6155C82.6501 60.1304 85.3813 60.5558 90.7989 59.414C92.1644 59.123 93.1718 58.9215 94.2016 59.7275C94.6717 60.1304 94.9628 60.7125 94.9628 61.3841C94.9628 61.4288 94.9628 61.4736 94.9628 61.5184C94.8956 62.0333 94.7165 62.5258 94.4255 62.9064C93.3733 64.4958 91.3138 66.0181 88.6497 67.2494C86.2992 68.3687 82.9188 68.9284 79.9414 68.9731C78.4415 68.9731 77.0535 68.8836 75.8894 68.503H75.8222C75.3745 72.8908 74.3223 81.5992 73.6507 85.584C73.1134 88.7853 72.1508 91.3374 70.3375 93.2402C68.5242 95.1431 65.9721 96.3072 62.5022 97.0459C58.2263 97.9862 55.1146 96.9788 53.0998 95.255C51.085 93.5536 50.1896 91.2702 49.6299 89.8822C49.2493 88.9196 49.0478 87.6883 48.8687 86.0317C48.6897 84.3751 48.5329 82.3379 48.4434 80.0545C48.3539 77.7263 48.3091 74.9951 48.3091 72.2416C48.3091 71.3461 48.3091 70.4283 48.3091 69.5328C46.5853 71.1222 44.4138 72.264 41.9961 72.6893H41.9289C39.0858 73.1818 36.5561 72.6893 35.0562 72.3311C34.2503 72.1296 33.5563 71.8386 32.8847 71.4804C32.1907 71.0999 31.5415 70.6745 31.0938 69.8462C30.9147 69.5328 30.8251 69.1298 30.8251 68.7269C30.8251 68.5702 30.8251 68.3911 30.8699 68.2568C31.0266 67.6971 31.34 67.227 31.7654 66.8912C32.5713 66.2196 33.6459 65.839 35.2801 65.5032C38.2351 64.8764 39.2649 64.4734 39.8917 63.9585C40.429 63.5332 41.0334 62.6601 42.108 61.3617C42.108 61.3169 42.108 61.2721 42.108 61.205C40.0932 61.1378 38.2127 60.5782 36.5785 59.6603H36.6457C36.0188 60.3543 32.8847 63.7347 29.0342 68.4135C27.4224 70.3611 25.6314 71.5028 23.751 71.57C21.8705 71.6371 20.1691 70.6969 18.714 69.2642C15.8261 66.4211 13.5203 61.5184 11.5055 55.9889C9.4907 50.4594 7.85648 44.3031 6.69238 39.0422C5.52827 33.8038 4.83429 29.5503 4.74474 27.5131C4.3194 18.8495 6.3118 12.9842 9.75934 9.31283C13.2069 5.61904 17.9081 4.23107 22.5197 3.96243C30.7804 3.49231 38.6157 6.40257 40.1827 7.02939C43.2497 4.92505 47.1674 3.62663 52.0924 3.69379C54.5773 3.73856 56.9503 4.05198 59.2114 4.65641L59.0099 4.61164L59.0994 4.56687C59.9053 4.27584 60.9127 3.96243 61.9425 3.71618L62.1216 3.6714L62.144 3.73856Z"/></svg>