<?xml version="1.0" encoding="UTF-8"?><svg id="Layer_1" xmlns="http://www.w3.org/2000/svg" xmlns:xlink="http://www.w3.org/1999/xlink" viewBox="0 0 50 50"><defs><style>.cls-1{fill:url(#linear-gradient);}.cls-2{mask:url(#mask);}.cls-3{fill:#eee;}.cls-4{fill:#84cba9;}.cls-5{fill:#0f9a58;}.cls-6{fill:rgba(38,50,56,.2);}.cls-7{fill:rgba(255,255,255,.2);}.cls-8{mask:url(#mask-2-2);}.cls-9{mask:url(#mask-6-2);}.cls-10{mask:url(#mask-4-2);}.cls-11{fill:url(#radial-gradient);}.cls-12{fill:#fff;fill-rule:evenodd;}.cls-13{fill:rgba(38,50,56,.1);}.cls-14{mask:url(#mask-3);}.cls-15{mask:url(#mask-5);}.cls-16{mask:url(#mask-1);}</style><mask id="mask" x="8.16" y="1.85" width="33.68" height="46.31" maskUnits="userSpaceOnUse"><g id="mask-2"><path id="path-1" class="cls-12" d="m29.21,1.85H11.32c-1.74,0-3.16,1.42-3.16,3.16v39.99c0,1.74,1.42,3.16,3.16,3.16h27.36c1.74,0,3.16-1.42,3.16-3.16V14.48L29.21,1.85Z"/></g></mask><mask id="mask-1" x="8.16" y="1.85" width="33.68" height="46.31" maskUnits="userSpaceOnUse"><g id="mask-4"><path id="path-3" class="cls-12" d="m29.21,1.85H11.32c-1.74,0-3.16,1.42-3.16,3.16v39.99c0,1.74,1.42,3.16,3.16,3.16h27.36c1.74,0,3.16-1.42,3.16-3.16V14.48L29.21,1.85Z"/></g></mask><mask id="mask-2-2" x="8.16" y="1.85" width="33.68" height="46.31" maskUnits="userSpaceOnUse"><g id="mask-6"><path id="path-5" class="cls-12" d="m29.21,1.85H11.32c-1.74,0-3.16,1.42-3.16,3.16v39.99c0,1.74,1.42,3.16,3.16,3.16h27.36c1.74,0,3.16-1.42,3.16-3.16V14.48L29.21,1.85Z"/></g></mask><linearGradient id="linear-gradient" x1="354.34" y1="534.92" x2="354.34" y2="534.27" gradientTransform="translate(-5793.7 8813.17) scale(16.45 -16.45)" gradientUnits="userSpaceOnUse"><stop offset="0" stop-color="#263238" stop-opacity=".2"/><stop offset="1" stop-color="#263238" stop-opacity=".02"/></linearGradient><mask id="mask-3" x="8.16" y="1.85" width="33.68" height="46.31" maskUnits="userSpaceOnUse"><g id="mask-9"><path id="path-8" class="cls-12" d="m29.21,1.85H11.32c-1.74,0-3.16,1.42-3.16,3.16v39.99c0,1.74,1.42,3.16,3.16,3.16h27.36c1.74,0,3.16-1.42,3.16-3.16V14.48L29.21,1.85Z"/></g></mask><mask id="mask-4-2" x="8.16" y="1.85" width="33.68" height="46.31" maskUnits="userSpaceOnUse"><g id="mask-11"><path id="path-10" class="cls-12" d="m29.21,1.85H11.32c-1.74,0-3.16,1.42-3.16,3.16v39.99c0,1.74,1.42,3.16,3.16,3.16h27.36c1.74,0,3.16-1.42,3.16-3.16V14.48L29.21,1.85Z"/></g></mask><mask id="mask-5" x="8.16" y="1.85" width="33.68" height="46.31" maskUnits="userSpaceOnUse"><g id="mask-13"><path id="path-12" class="cls-12" d="m29.21,1.85H11.32c-1.74,0-3.16,1.42-3.16,3.16v39.99c0,1.74,1.42,3.16,3.16,3.16h27.36c1.74,0,3.16-1.42,3.16-3.16V14.48L29.21,1.85Z"/></g></mask><mask id="mask-6-2" x="8.16" y="1.85" width="33.68" height="46.31" maskUnits="userSpaceOnUse"><g id="mask-15"><path id="path-14" class="cls-12" d="m29.21,1.85H11.32c-1.74,0-3.16,1.42-3.16,3.16v39.99c0,1.74,1.42,3.16,3.16,3.16h27.36c1.74,0,3.16-1.42,3.16-3.16V14.48L29.21,1.85Z"/></g></mask><radialGradient id="radial-gradient" cx="353.62" cy="555.3" fx="353.62" fy="555.3" r="1.49" gradientTransform="translate(-12849.75 20195.82) scale(36.36 -36.36)" gradientUnits="userSpaceOnUse"><stop offset="0" stop-color="#fff" stop-opacity=".1"/><stop offset="1" stop-color="#fff" stop-opacity="0"/></radialGradient></defs><g id="Consumer-Apps-Sheets-Large-VD-R8-"><g id="Hero"><g id="Personal"><g id="Sheets-icon"><g id="Group"><g id="Clipped"><g class="cls-2"><path id="Path" class="cls-5" d="m29.21,1.85H11.32c-1.74,0-3.16,1.42-3.16,3.16v39.99c0,1.74,1.42,3.16,3.16,3.16h27.36c1.74,0,3.16-1.42,3.16-3.16V14.48l-7.37-5.26-5.26-7.37Z"/></g></g><g id="Clipped-2"><g class="cls-16"><path id="Shape" class="cls-3" d="m16.58,24.47v15.26h16.84v-15.26h-16.84Zm7.37,13.16h-5.26v-2.63h5.26v2.63Zm0-4.21h-5.26v-2.63h5.26v2.63Zm0-4.21h-5.26v-2.63h5.26v2.63Zm7.37,8.42h-5.26v-2.63h5.26v2.63Zm0-4.21h-5.26v-2.63h5.26v2.63Zm0-4.21h-5.26v-2.63h5.26v2.63Z"/></g></g><g id="Clipped-3"><g class="cls-8"><polygon id="Path-2" class="cls-1" points="30.13 13.55 41.84 25.26 41.84 14.48 30.13 13.55"/></g></g><g id="Clipped-4"><g class="cls-14"><g id="Group-2"><path id="Path-3" class="cls-4" d="m29.21,1.85v9.47c0,1.74,1.41,3.16,3.16,3.16h9.47L29.21,1.85Z"/></g></g></g><g id="Clipped-5"><g class="cls-10"><path id="Path-4" class="cls-7" d="m11.32,1.85c-1.74,0-3.16,1.42-3.16,3.16v.26c0-1.74,1.42-3.16,3.16-3.16h17.89v-.26H11.32Z"/></g></g><g id="Clipped-6"><g class="cls-15"><path id="Path-5" class="cls-6" d="m38.68,47.89H11.32c-1.74,0-3.16-1.42-3.16-3.16v.26c0,1.74,1.42,3.16,3.16,3.16h27.36c1.74,0,3.16-1.42,3.16-3.16v-.26c0,1.74-1.42,3.16-3.16,3.16Z"/></g></g><g id="Clipped-7"><g class="cls-9"><path id="Path-6" class="cls-13" d="m32.37,14.48c-1.74,0-3.16-1.41-3.16-3.16v.26c0,1.74,1.41,3.16,3.16,3.16h9.47v-.26h-9.47Z"/></g></g></g><path id="Path-7" class="cls-11" d="m29.21,1.85H11.32c-1.74,0-3.16,1.42-3.16,3.16v39.99c0,1.74,1.42,3.16,3.16,3.16h27.36c1.74,0,3.16-1.42,3.16-3.16V14.48L29.21,1.85Z"/></g></g></g></g></svg>