<?xml version="1.0" encoding="UTF-8"?><svg id="Layer_1" xmlns="http://www.w3.org/2000/svg" viewBox="0 0 50 50"><defs><style>.cls-1{fill:#5865ef;}</style></defs><path class="cls-1" d="m40.38,10.72c-2.87-1.34-5.94-2.32-9.14-2.87-.39.71-.85,1.67-1.17,2.43-3.41-.51-6.79-.51-10.13,0-.32-.76-.79-1.72-1.19-2.43-3.21.56-6.28,1.53-9.15,2.88C3.81,19.47,2.24,28,3.03,36.41c3.84,2.87,7.56,4.61,11.22,5.75.9-1.24,1.71-2.56,2.4-3.96-1.32-.5-2.59-1.12-3.78-1.84.32-.24.63-.48.93-.73,7.29,3.41,15.22,3.41,22.42,0,.3.25.61.5.93.73-1.2.72-2.47,1.34-3.79,1.84.69,1.39,1.5,2.71,2.4,3.96,3.66-1.14,7.38-2.88,11.22-5.75.92-9.75-1.57-18.2-6.59-25.69Zm-22.75,20.52c-2.19,0-3.98-2.04-3.98-4.53s1.76-4.54,3.98-4.54,4.02,2.04,3.98,4.54c0,2.49-1.76,4.53-3.98,4.53Zm14.73,0c-2.19,0-3.98-2.04-3.98-4.53s1.76-4.54,3.98-4.54,4.02,2.04,3.98,4.54c0,2.49-1.76,4.53-3.98,4.53Z"/></svg>